G75*
%MOIN*%
%OFA0B0*%
%FSLAX25Y25*%
%IPPOS*%
%LPD*%
%AMOC8*
5,1,8,0,0,1.08239X$1,22.5*
%
%ADD10C,0.04000*%
%ADD11R,0.05000X0.05787*%
%ADD12R,0.03937X0.04331*%
%ADD13R,0.04331X0.03937*%
%ADD14R,0.02408X0.06402*%
%ADD15C,0.01496*%
%ADD16C,0.05600*%
%ADD17OC8,0.07400*%
%ADD18C,0.10000*%
%ADD19C,0.11024*%
%ADD20R,0.06299X0.07087*%
%ADD21C,0.07400*%
%ADD22R,0.02362X0.03543*%
%ADD23C,0.09449*%
%ADD24R,0.07087X0.06299*%
%ADD25R,0.07500X0.15000*%
%ADD26C,0.03200*%
%ADD27C,0.05000*%
%ADD28C,0.02384*%
%ADD29C,0.01600*%
%ADD30C,0.05020*%
%ADD31C,0.07650*%
%ADD32C,0.03959*%
%ADD33C,0.03172*%
%ADD34C,0.00600*%
%ADD35C,0.04156*%
D10*
X0032055Y0042933D02*
X0032058Y0043142D01*
X0032065Y0043350D01*
X0032078Y0043558D01*
X0032096Y0043766D01*
X0032119Y0043973D01*
X0032147Y0044180D01*
X0032180Y0044386D01*
X0032218Y0044591D01*
X0032262Y0044795D01*
X0032310Y0044998D01*
X0032363Y0045200D01*
X0032421Y0045400D01*
X0032484Y0045599D01*
X0032552Y0045797D01*
X0032625Y0045992D01*
X0032702Y0046186D01*
X0032784Y0046378D01*
X0032871Y0046567D01*
X0032963Y0046755D01*
X0033059Y0046940D01*
X0033159Y0047123D01*
X0033264Y0047303D01*
X0033374Y0047480D01*
X0033488Y0047655D01*
X0033606Y0047827D01*
X0033728Y0047996D01*
X0033854Y0048162D01*
X0033984Y0048325D01*
X0034119Y0048485D01*
X0034257Y0048641D01*
X0034399Y0048794D01*
X0034545Y0048943D01*
X0034694Y0049089D01*
X0034847Y0049231D01*
X0035003Y0049369D01*
X0035163Y0049504D01*
X0035326Y0049634D01*
X0035492Y0049760D01*
X0035661Y0049882D01*
X0035833Y0050000D01*
X0036008Y0050114D01*
X0036185Y0050224D01*
X0036365Y0050329D01*
X0036548Y0050429D01*
X0036733Y0050525D01*
X0036921Y0050617D01*
X0037110Y0050704D01*
X0037302Y0050786D01*
X0037496Y0050863D01*
X0037691Y0050936D01*
X0037889Y0051004D01*
X0038088Y0051067D01*
X0038288Y0051125D01*
X0038490Y0051178D01*
X0038693Y0051226D01*
X0038897Y0051270D01*
X0039102Y0051308D01*
X0039308Y0051341D01*
X0039515Y0051369D01*
X0039722Y0051392D01*
X0039930Y0051410D01*
X0040138Y0051423D01*
X0040346Y0051430D01*
X0040555Y0051433D01*
X0040764Y0051430D01*
X0040972Y0051423D01*
X0041180Y0051410D01*
X0041388Y0051392D01*
X0041595Y0051369D01*
X0041802Y0051341D01*
X0042008Y0051308D01*
X0042213Y0051270D01*
X0042417Y0051226D01*
X0042620Y0051178D01*
X0042822Y0051125D01*
X0043022Y0051067D01*
X0043221Y0051004D01*
X0043419Y0050936D01*
X0043614Y0050863D01*
X0043808Y0050786D01*
X0044000Y0050704D01*
X0044189Y0050617D01*
X0044377Y0050525D01*
X0044562Y0050429D01*
X0044745Y0050329D01*
X0044925Y0050224D01*
X0045102Y0050114D01*
X0045277Y0050000D01*
X0045449Y0049882D01*
X0045618Y0049760D01*
X0045784Y0049634D01*
X0045947Y0049504D01*
X0046107Y0049369D01*
X0046263Y0049231D01*
X0046416Y0049089D01*
X0046565Y0048943D01*
X0046711Y0048794D01*
X0046853Y0048641D01*
X0046991Y0048485D01*
X0047126Y0048325D01*
X0047256Y0048162D01*
X0047382Y0047996D01*
X0047504Y0047827D01*
X0047622Y0047655D01*
X0047736Y0047480D01*
X0047846Y0047303D01*
X0047951Y0047123D01*
X0048051Y0046940D01*
X0048147Y0046755D01*
X0048239Y0046567D01*
X0048326Y0046378D01*
X0048408Y0046186D01*
X0048485Y0045992D01*
X0048558Y0045797D01*
X0048626Y0045599D01*
X0048689Y0045400D01*
X0048747Y0045200D01*
X0048800Y0044998D01*
X0048848Y0044795D01*
X0048892Y0044591D01*
X0048930Y0044386D01*
X0048963Y0044180D01*
X0048991Y0043973D01*
X0049014Y0043766D01*
X0049032Y0043558D01*
X0049045Y0043350D01*
X0049052Y0043142D01*
X0049055Y0042933D01*
X0049052Y0042724D01*
X0049045Y0042516D01*
X0049032Y0042308D01*
X0049014Y0042100D01*
X0048991Y0041893D01*
X0048963Y0041686D01*
X0048930Y0041480D01*
X0048892Y0041275D01*
X0048848Y0041071D01*
X0048800Y0040868D01*
X0048747Y0040666D01*
X0048689Y0040466D01*
X0048626Y0040267D01*
X0048558Y0040069D01*
X0048485Y0039874D01*
X0048408Y0039680D01*
X0048326Y0039488D01*
X0048239Y0039299D01*
X0048147Y0039111D01*
X0048051Y0038926D01*
X0047951Y0038743D01*
X0047846Y0038563D01*
X0047736Y0038386D01*
X0047622Y0038211D01*
X0047504Y0038039D01*
X0047382Y0037870D01*
X0047256Y0037704D01*
X0047126Y0037541D01*
X0046991Y0037381D01*
X0046853Y0037225D01*
X0046711Y0037072D01*
X0046565Y0036923D01*
X0046416Y0036777D01*
X0046263Y0036635D01*
X0046107Y0036497D01*
X0045947Y0036362D01*
X0045784Y0036232D01*
X0045618Y0036106D01*
X0045449Y0035984D01*
X0045277Y0035866D01*
X0045102Y0035752D01*
X0044925Y0035642D01*
X0044745Y0035537D01*
X0044562Y0035437D01*
X0044377Y0035341D01*
X0044189Y0035249D01*
X0044000Y0035162D01*
X0043808Y0035080D01*
X0043614Y0035003D01*
X0043419Y0034930D01*
X0043221Y0034862D01*
X0043022Y0034799D01*
X0042822Y0034741D01*
X0042620Y0034688D01*
X0042417Y0034640D01*
X0042213Y0034596D01*
X0042008Y0034558D01*
X0041802Y0034525D01*
X0041595Y0034497D01*
X0041388Y0034474D01*
X0041180Y0034456D01*
X0040972Y0034443D01*
X0040764Y0034436D01*
X0040555Y0034433D01*
X0040346Y0034436D01*
X0040138Y0034443D01*
X0039930Y0034456D01*
X0039722Y0034474D01*
X0039515Y0034497D01*
X0039308Y0034525D01*
X0039102Y0034558D01*
X0038897Y0034596D01*
X0038693Y0034640D01*
X0038490Y0034688D01*
X0038288Y0034741D01*
X0038088Y0034799D01*
X0037889Y0034862D01*
X0037691Y0034930D01*
X0037496Y0035003D01*
X0037302Y0035080D01*
X0037110Y0035162D01*
X0036921Y0035249D01*
X0036733Y0035341D01*
X0036548Y0035437D01*
X0036365Y0035537D01*
X0036185Y0035642D01*
X0036008Y0035752D01*
X0035833Y0035866D01*
X0035661Y0035984D01*
X0035492Y0036106D01*
X0035326Y0036232D01*
X0035163Y0036362D01*
X0035003Y0036497D01*
X0034847Y0036635D01*
X0034694Y0036777D01*
X0034545Y0036923D01*
X0034399Y0037072D01*
X0034257Y0037225D01*
X0034119Y0037381D01*
X0033984Y0037541D01*
X0033854Y0037704D01*
X0033728Y0037870D01*
X0033606Y0038039D01*
X0033488Y0038211D01*
X0033374Y0038386D01*
X0033264Y0038563D01*
X0033159Y0038743D01*
X0033059Y0038926D01*
X0032963Y0039111D01*
X0032871Y0039299D01*
X0032784Y0039488D01*
X0032702Y0039680D01*
X0032625Y0039874D01*
X0032552Y0040069D01*
X0032484Y0040267D01*
X0032421Y0040466D01*
X0032363Y0040666D01*
X0032310Y0040868D01*
X0032262Y0041071D01*
X0032218Y0041275D01*
X0032180Y0041480D01*
X0032147Y0041686D01*
X0032119Y0041893D01*
X0032096Y0042100D01*
X0032078Y0042308D01*
X0032065Y0042516D01*
X0032058Y0042724D01*
X0032055Y0042933D01*
X0260228Y0042933D02*
X0260231Y0043142D01*
X0260238Y0043350D01*
X0260251Y0043558D01*
X0260269Y0043766D01*
X0260292Y0043973D01*
X0260320Y0044180D01*
X0260353Y0044386D01*
X0260391Y0044591D01*
X0260435Y0044795D01*
X0260483Y0044998D01*
X0260536Y0045200D01*
X0260594Y0045400D01*
X0260657Y0045599D01*
X0260725Y0045797D01*
X0260798Y0045992D01*
X0260875Y0046186D01*
X0260957Y0046378D01*
X0261044Y0046567D01*
X0261136Y0046755D01*
X0261232Y0046940D01*
X0261332Y0047123D01*
X0261437Y0047303D01*
X0261547Y0047480D01*
X0261661Y0047655D01*
X0261779Y0047827D01*
X0261901Y0047996D01*
X0262027Y0048162D01*
X0262157Y0048325D01*
X0262292Y0048485D01*
X0262430Y0048641D01*
X0262572Y0048794D01*
X0262718Y0048943D01*
X0262867Y0049089D01*
X0263020Y0049231D01*
X0263176Y0049369D01*
X0263336Y0049504D01*
X0263499Y0049634D01*
X0263665Y0049760D01*
X0263834Y0049882D01*
X0264006Y0050000D01*
X0264181Y0050114D01*
X0264358Y0050224D01*
X0264538Y0050329D01*
X0264721Y0050429D01*
X0264906Y0050525D01*
X0265094Y0050617D01*
X0265283Y0050704D01*
X0265475Y0050786D01*
X0265669Y0050863D01*
X0265864Y0050936D01*
X0266062Y0051004D01*
X0266261Y0051067D01*
X0266461Y0051125D01*
X0266663Y0051178D01*
X0266866Y0051226D01*
X0267070Y0051270D01*
X0267275Y0051308D01*
X0267481Y0051341D01*
X0267688Y0051369D01*
X0267895Y0051392D01*
X0268103Y0051410D01*
X0268311Y0051423D01*
X0268519Y0051430D01*
X0268728Y0051433D01*
X0268937Y0051430D01*
X0269145Y0051423D01*
X0269353Y0051410D01*
X0269561Y0051392D01*
X0269768Y0051369D01*
X0269975Y0051341D01*
X0270181Y0051308D01*
X0270386Y0051270D01*
X0270590Y0051226D01*
X0270793Y0051178D01*
X0270995Y0051125D01*
X0271195Y0051067D01*
X0271394Y0051004D01*
X0271592Y0050936D01*
X0271787Y0050863D01*
X0271981Y0050786D01*
X0272173Y0050704D01*
X0272362Y0050617D01*
X0272550Y0050525D01*
X0272735Y0050429D01*
X0272918Y0050329D01*
X0273098Y0050224D01*
X0273275Y0050114D01*
X0273450Y0050000D01*
X0273622Y0049882D01*
X0273791Y0049760D01*
X0273957Y0049634D01*
X0274120Y0049504D01*
X0274280Y0049369D01*
X0274436Y0049231D01*
X0274589Y0049089D01*
X0274738Y0048943D01*
X0274884Y0048794D01*
X0275026Y0048641D01*
X0275164Y0048485D01*
X0275299Y0048325D01*
X0275429Y0048162D01*
X0275555Y0047996D01*
X0275677Y0047827D01*
X0275795Y0047655D01*
X0275909Y0047480D01*
X0276019Y0047303D01*
X0276124Y0047123D01*
X0276224Y0046940D01*
X0276320Y0046755D01*
X0276412Y0046567D01*
X0276499Y0046378D01*
X0276581Y0046186D01*
X0276658Y0045992D01*
X0276731Y0045797D01*
X0276799Y0045599D01*
X0276862Y0045400D01*
X0276920Y0045200D01*
X0276973Y0044998D01*
X0277021Y0044795D01*
X0277065Y0044591D01*
X0277103Y0044386D01*
X0277136Y0044180D01*
X0277164Y0043973D01*
X0277187Y0043766D01*
X0277205Y0043558D01*
X0277218Y0043350D01*
X0277225Y0043142D01*
X0277228Y0042933D01*
X0277225Y0042724D01*
X0277218Y0042516D01*
X0277205Y0042308D01*
X0277187Y0042100D01*
X0277164Y0041893D01*
X0277136Y0041686D01*
X0277103Y0041480D01*
X0277065Y0041275D01*
X0277021Y0041071D01*
X0276973Y0040868D01*
X0276920Y0040666D01*
X0276862Y0040466D01*
X0276799Y0040267D01*
X0276731Y0040069D01*
X0276658Y0039874D01*
X0276581Y0039680D01*
X0276499Y0039488D01*
X0276412Y0039299D01*
X0276320Y0039111D01*
X0276224Y0038926D01*
X0276124Y0038743D01*
X0276019Y0038563D01*
X0275909Y0038386D01*
X0275795Y0038211D01*
X0275677Y0038039D01*
X0275555Y0037870D01*
X0275429Y0037704D01*
X0275299Y0037541D01*
X0275164Y0037381D01*
X0275026Y0037225D01*
X0274884Y0037072D01*
X0274738Y0036923D01*
X0274589Y0036777D01*
X0274436Y0036635D01*
X0274280Y0036497D01*
X0274120Y0036362D01*
X0273957Y0036232D01*
X0273791Y0036106D01*
X0273622Y0035984D01*
X0273450Y0035866D01*
X0273275Y0035752D01*
X0273098Y0035642D01*
X0272918Y0035537D01*
X0272735Y0035437D01*
X0272550Y0035341D01*
X0272362Y0035249D01*
X0272173Y0035162D01*
X0271981Y0035080D01*
X0271787Y0035003D01*
X0271592Y0034930D01*
X0271394Y0034862D01*
X0271195Y0034799D01*
X0270995Y0034741D01*
X0270793Y0034688D01*
X0270590Y0034640D01*
X0270386Y0034596D01*
X0270181Y0034558D01*
X0269975Y0034525D01*
X0269768Y0034497D01*
X0269561Y0034474D01*
X0269353Y0034456D01*
X0269145Y0034443D01*
X0268937Y0034436D01*
X0268728Y0034433D01*
X0268519Y0034436D01*
X0268311Y0034443D01*
X0268103Y0034456D01*
X0267895Y0034474D01*
X0267688Y0034497D01*
X0267481Y0034525D01*
X0267275Y0034558D01*
X0267070Y0034596D01*
X0266866Y0034640D01*
X0266663Y0034688D01*
X0266461Y0034741D01*
X0266261Y0034799D01*
X0266062Y0034862D01*
X0265864Y0034930D01*
X0265669Y0035003D01*
X0265475Y0035080D01*
X0265283Y0035162D01*
X0265094Y0035249D01*
X0264906Y0035341D01*
X0264721Y0035437D01*
X0264538Y0035537D01*
X0264358Y0035642D01*
X0264181Y0035752D01*
X0264006Y0035866D01*
X0263834Y0035984D01*
X0263665Y0036106D01*
X0263499Y0036232D01*
X0263336Y0036362D01*
X0263176Y0036497D01*
X0263020Y0036635D01*
X0262867Y0036777D01*
X0262718Y0036923D01*
X0262572Y0037072D01*
X0262430Y0037225D01*
X0262292Y0037381D01*
X0262157Y0037541D01*
X0262027Y0037704D01*
X0261901Y0037870D01*
X0261779Y0038039D01*
X0261661Y0038211D01*
X0261547Y0038386D01*
X0261437Y0038563D01*
X0261332Y0038743D01*
X0261232Y0038926D01*
X0261136Y0039111D01*
X0261044Y0039299D01*
X0260957Y0039488D01*
X0260875Y0039680D01*
X0260798Y0039874D01*
X0260725Y0040069D01*
X0260657Y0040267D01*
X0260594Y0040466D01*
X0260536Y0040666D01*
X0260483Y0040868D01*
X0260435Y0041071D01*
X0260391Y0041275D01*
X0260353Y0041480D01*
X0260320Y0041686D01*
X0260292Y0041893D01*
X0260269Y0042100D01*
X0260251Y0042308D01*
X0260238Y0042516D01*
X0260231Y0042724D01*
X0260228Y0042933D01*
X0418740Y0071051D02*
X0418743Y0071260D01*
X0418750Y0071468D01*
X0418763Y0071676D01*
X0418781Y0071884D01*
X0418804Y0072091D01*
X0418832Y0072298D01*
X0418865Y0072504D01*
X0418903Y0072709D01*
X0418947Y0072913D01*
X0418995Y0073116D01*
X0419048Y0073318D01*
X0419106Y0073518D01*
X0419169Y0073717D01*
X0419237Y0073915D01*
X0419310Y0074110D01*
X0419387Y0074304D01*
X0419469Y0074496D01*
X0419556Y0074685D01*
X0419648Y0074873D01*
X0419744Y0075058D01*
X0419844Y0075241D01*
X0419949Y0075421D01*
X0420059Y0075598D01*
X0420173Y0075773D01*
X0420291Y0075945D01*
X0420413Y0076114D01*
X0420539Y0076280D01*
X0420669Y0076443D01*
X0420804Y0076603D01*
X0420942Y0076759D01*
X0421084Y0076912D01*
X0421230Y0077061D01*
X0421379Y0077207D01*
X0421532Y0077349D01*
X0421688Y0077487D01*
X0421848Y0077622D01*
X0422011Y0077752D01*
X0422177Y0077878D01*
X0422346Y0078000D01*
X0422518Y0078118D01*
X0422693Y0078232D01*
X0422870Y0078342D01*
X0423050Y0078447D01*
X0423233Y0078547D01*
X0423418Y0078643D01*
X0423606Y0078735D01*
X0423795Y0078822D01*
X0423987Y0078904D01*
X0424181Y0078981D01*
X0424376Y0079054D01*
X0424574Y0079122D01*
X0424773Y0079185D01*
X0424973Y0079243D01*
X0425175Y0079296D01*
X0425378Y0079344D01*
X0425582Y0079388D01*
X0425787Y0079426D01*
X0425993Y0079459D01*
X0426200Y0079487D01*
X0426407Y0079510D01*
X0426615Y0079528D01*
X0426823Y0079541D01*
X0427031Y0079548D01*
X0427240Y0079551D01*
X0427449Y0079548D01*
X0427657Y0079541D01*
X0427865Y0079528D01*
X0428073Y0079510D01*
X0428280Y0079487D01*
X0428487Y0079459D01*
X0428693Y0079426D01*
X0428898Y0079388D01*
X0429102Y0079344D01*
X0429305Y0079296D01*
X0429507Y0079243D01*
X0429707Y0079185D01*
X0429906Y0079122D01*
X0430104Y0079054D01*
X0430299Y0078981D01*
X0430493Y0078904D01*
X0430685Y0078822D01*
X0430874Y0078735D01*
X0431062Y0078643D01*
X0431247Y0078547D01*
X0431430Y0078447D01*
X0431610Y0078342D01*
X0431787Y0078232D01*
X0431962Y0078118D01*
X0432134Y0078000D01*
X0432303Y0077878D01*
X0432469Y0077752D01*
X0432632Y0077622D01*
X0432792Y0077487D01*
X0432948Y0077349D01*
X0433101Y0077207D01*
X0433250Y0077061D01*
X0433396Y0076912D01*
X0433538Y0076759D01*
X0433676Y0076603D01*
X0433811Y0076443D01*
X0433941Y0076280D01*
X0434067Y0076114D01*
X0434189Y0075945D01*
X0434307Y0075773D01*
X0434421Y0075598D01*
X0434531Y0075421D01*
X0434636Y0075241D01*
X0434736Y0075058D01*
X0434832Y0074873D01*
X0434924Y0074685D01*
X0435011Y0074496D01*
X0435093Y0074304D01*
X0435170Y0074110D01*
X0435243Y0073915D01*
X0435311Y0073717D01*
X0435374Y0073518D01*
X0435432Y0073318D01*
X0435485Y0073116D01*
X0435533Y0072913D01*
X0435577Y0072709D01*
X0435615Y0072504D01*
X0435648Y0072298D01*
X0435676Y0072091D01*
X0435699Y0071884D01*
X0435717Y0071676D01*
X0435730Y0071468D01*
X0435737Y0071260D01*
X0435740Y0071051D01*
X0435737Y0070842D01*
X0435730Y0070634D01*
X0435717Y0070426D01*
X0435699Y0070218D01*
X0435676Y0070011D01*
X0435648Y0069804D01*
X0435615Y0069598D01*
X0435577Y0069393D01*
X0435533Y0069189D01*
X0435485Y0068986D01*
X0435432Y0068784D01*
X0435374Y0068584D01*
X0435311Y0068385D01*
X0435243Y0068187D01*
X0435170Y0067992D01*
X0435093Y0067798D01*
X0435011Y0067606D01*
X0434924Y0067417D01*
X0434832Y0067229D01*
X0434736Y0067044D01*
X0434636Y0066861D01*
X0434531Y0066681D01*
X0434421Y0066504D01*
X0434307Y0066329D01*
X0434189Y0066157D01*
X0434067Y0065988D01*
X0433941Y0065822D01*
X0433811Y0065659D01*
X0433676Y0065499D01*
X0433538Y0065343D01*
X0433396Y0065190D01*
X0433250Y0065041D01*
X0433101Y0064895D01*
X0432948Y0064753D01*
X0432792Y0064615D01*
X0432632Y0064480D01*
X0432469Y0064350D01*
X0432303Y0064224D01*
X0432134Y0064102D01*
X0431962Y0063984D01*
X0431787Y0063870D01*
X0431610Y0063760D01*
X0431430Y0063655D01*
X0431247Y0063555D01*
X0431062Y0063459D01*
X0430874Y0063367D01*
X0430685Y0063280D01*
X0430493Y0063198D01*
X0430299Y0063121D01*
X0430104Y0063048D01*
X0429906Y0062980D01*
X0429707Y0062917D01*
X0429507Y0062859D01*
X0429305Y0062806D01*
X0429102Y0062758D01*
X0428898Y0062714D01*
X0428693Y0062676D01*
X0428487Y0062643D01*
X0428280Y0062615D01*
X0428073Y0062592D01*
X0427865Y0062574D01*
X0427657Y0062561D01*
X0427449Y0062554D01*
X0427240Y0062551D01*
X0427031Y0062554D01*
X0426823Y0062561D01*
X0426615Y0062574D01*
X0426407Y0062592D01*
X0426200Y0062615D01*
X0425993Y0062643D01*
X0425787Y0062676D01*
X0425582Y0062714D01*
X0425378Y0062758D01*
X0425175Y0062806D01*
X0424973Y0062859D01*
X0424773Y0062917D01*
X0424574Y0062980D01*
X0424376Y0063048D01*
X0424181Y0063121D01*
X0423987Y0063198D01*
X0423795Y0063280D01*
X0423606Y0063367D01*
X0423418Y0063459D01*
X0423233Y0063555D01*
X0423050Y0063655D01*
X0422870Y0063760D01*
X0422693Y0063870D01*
X0422518Y0063984D01*
X0422346Y0064102D01*
X0422177Y0064224D01*
X0422011Y0064350D01*
X0421848Y0064480D01*
X0421688Y0064615D01*
X0421532Y0064753D01*
X0421379Y0064895D01*
X0421230Y0065041D01*
X0421084Y0065190D01*
X0420942Y0065343D01*
X0420804Y0065499D01*
X0420669Y0065659D01*
X0420539Y0065822D01*
X0420413Y0065988D01*
X0420291Y0066157D01*
X0420173Y0066329D01*
X0420059Y0066504D01*
X0419949Y0066681D01*
X0419844Y0066861D01*
X0419744Y0067044D01*
X0419648Y0067229D01*
X0419556Y0067417D01*
X0419469Y0067606D01*
X0419387Y0067798D01*
X0419310Y0067992D01*
X0419237Y0068187D01*
X0419169Y0068385D01*
X0419106Y0068584D01*
X0419048Y0068784D01*
X0418995Y0068986D01*
X0418947Y0069189D01*
X0418903Y0069393D01*
X0418865Y0069598D01*
X0418832Y0069804D01*
X0418804Y0070011D01*
X0418781Y0070218D01*
X0418763Y0070426D01*
X0418750Y0070634D01*
X0418743Y0070842D01*
X0418740Y0071051D01*
X0542756Y0130106D02*
X0542759Y0130315D01*
X0542766Y0130523D01*
X0542779Y0130731D01*
X0542797Y0130939D01*
X0542820Y0131146D01*
X0542848Y0131353D01*
X0542881Y0131559D01*
X0542919Y0131764D01*
X0542963Y0131968D01*
X0543011Y0132171D01*
X0543064Y0132373D01*
X0543122Y0132573D01*
X0543185Y0132772D01*
X0543253Y0132970D01*
X0543326Y0133165D01*
X0543403Y0133359D01*
X0543485Y0133551D01*
X0543572Y0133740D01*
X0543664Y0133928D01*
X0543760Y0134113D01*
X0543860Y0134296D01*
X0543965Y0134476D01*
X0544075Y0134653D01*
X0544189Y0134828D01*
X0544307Y0135000D01*
X0544429Y0135169D01*
X0544555Y0135335D01*
X0544685Y0135498D01*
X0544820Y0135658D01*
X0544958Y0135814D01*
X0545100Y0135967D01*
X0545246Y0136116D01*
X0545395Y0136262D01*
X0545548Y0136404D01*
X0545704Y0136542D01*
X0545864Y0136677D01*
X0546027Y0136807D01*
X0546193Y0136933D01*
X0546362Y0137055D01*
X0546534Y0137173D01*
X0546709Y0137287D01*
X0546886Y0137397D01*
X0547066Y0137502D01*
X0547249Y0137602D01*
X0547434Y0137698D01*
X0547622Y0137790D01*
X0547811Y0137877D01*
X0548003Y0137959D01*
X0548197Y0138036D01*
X0548392Y0138109D01*
X0548590Y0138177D01*
X0548789Y0138240D01*
X0548989Y0138298D01*
X0549191Y0138351D01*
X0549394Y0138399D01*
X0549598Y0138443D01*
X0549803Y0138481D01*
X0550009Y0138514D01*
X0550216Y0138542D01*
X0550423Y0138565D01*
X0550631Y0138583D01*
X0550839Y0138596D01*
X0551047Y0138603D01*
X0551256Y0138606D01*
X0551465Y0138603D01*
X0551673Y0138596D01*
X0551881Y0138583D01*
X0552089Y0138565D01*
X0552296Y0138542D01*
X0552503Y0138514D01*
X0552709Y0138481D01*
X0552914Y0138443D01*
X0553118Y0138399D01*
X0553321Y0138351D01*
X0553523Y0138298D01*
X0553723Y0138240D01*
X0553922Y0138177D01*
X0554120Y0138109D01*
X0554315Y0138036D01*
X0554509Y0137959D01*
X0554701Y0137877D01*
X0554890Y0137790D01*
X0555078Y0137698D01*
X0555263Y0137602D01*
X0555446Y0137502D01*
X0555626Y0137397D01*
X0555803Y0137287D01*
X0555978Y0137173D01*
X0556150Y0137055D01*
X0556319Y0136933D01*
X0556485Y0136807D01*
X0556648Y0136677D01*
X0556808Y0136542D01*
X0556964Y0136404D01*
X0557117Y0136262D01*
X0557266Y0136116D01*
X0557412Y0135967D01*
X0557554Y0135814D01*
X0557692Y0135658D01*
X0557827Y0135498D01*
X0557957Y0135335D01*
X0558083Y0135169D01*
X0558205Y0135000D01*
X0558323Y0134828D01*
X0558437Y0134653D01*
X0558547Y0134476D01*
X0558652Y0134296D01*
X0558752Y0134113D01*
X0558848Y0133928D01*
X0558940Y0133740D01*
X0559027Y0133551D01*
X0559109Y0133359D01*
X0559186Y0133165D01*
X0559259Y0132970D01*
X0559327Y0132772D01*
X0559390Y0132573D01*
X0559448Y0132373D01*
X0559501Y0132171D01*
X0559549Y0131968D01*
X0559593Y0131764D01*
X0559631Y0131559D01*
X0559664Y0131353D01*
X0559692Y0131146D01*
X0559715Y0130939D01*
X0559733Y0130731D01*
X0559746Y0130523D01*
X0559753Y0130315D01*
X0559756Y0130106D01*
X0559753Y0129897D01*
X0559746Y0129689D01*
X0559733Y0129481D01*
X0559715Y0129273D01*
X0559692Y0129066D01*
X0559664Y0128859D01*
X0559631Y0128653D01*
X0559593Y0128448D01*
X0559549Y0128244D01*
X0559501Y0128041D01*
X0559448Y0127839D01*
X0559390Y0127639D01*
X0559327Y0127440D01*
X0559259Y0127242D01*
X0559186Y0127047D01*
X0559109Y0126853D01*
X0559027Y0126661D01*
X0558940Y0126472D01*
X0558848Y0126284D01*
X0558752Y0126099D01*
X0558652Y0125916D01*
X0558547Y0125736D01*
X0558437Y0125559D01*
X0558323Y0125384D01*
X0558205Y0125212D01*
X0558083Y0125043D01*
X0557957Y0124877D01*
X0557827Y0124714D01*
X0557692Y0124554D01*
X0557554Y0124398D01*
X0557412Y0124245D01*
X0557266Y0124096D01*
X0557117Y0123950D01*
X0556964Y0123808D01*
X0556808Y0123670D01*
X0556648Y0123535D01*
X0556485Y0123405D01*
X0556319Y0123279D01*
X0556150Y0123157D01*
X0555978Y0123039D01*
X0555803Y0122925D01*
X0555626Y0122815D01*
X0555446Y0122710D01*
X0555263Y0122610D01*
X0555078Y0122514D01*
X0554890Y0122422D01*
X0554701Y0122335D01*
X0554509Y0122253D01*
X0554315Y0122176D01*
X0554120Y0122103D01*
X0553922Y0122035D01*
X0553723Y0121972D01*
X0553523Y0121914D01*
X0553321Y0121861D01*
X0553118Y0121813D01*
X0552914Y0121769D01*
X0552709Y0121731D01*
X0552503Y0121698D01*
X0552296Y0121670D01*
X0552089Y0121647D01*
X0551881Y0121629D01*
X0551673Y0121616D01*
X0551465Y0121609D01*
X0551256Y0121606D01*
X0551047Y0121609D01*
X0550839Y0121616D01*
X0550631Y0121629D01*
X0550423Y0121647D01*
X0550216Y0121670D01*
X0550009Y0121698D01*
X0549803Y0121731D01*
X0549598Y0121769D01*
X0549394Y0121813D01*
X0549191Y0121861D01*
X0548989Y0121914D01*
X0548789Y0121972D01*
X0548590Y0122035D01*
X0548392Y0122103D01*
X0548197Y0122176D01*
X0548003Y0122253D01*
X0547811Y0122335D01*
X0547622Y0122422D01*
X0547434Y0122514D01*
X0547249Y0122610D01*
X0547066Y0122710D01*
X0546886Y0122815D01*
X0546709Y0122925D01*
X0546534Y0123039D01*
X0546362Y0123157D01*
X0546193Y0123279D01*
X0546027Y0123405D01*
X0545864Y0123535D01*
X0545704Y0123670D01*
X0545548Y0123808D01*
X0545395Y0123950D01*
X0545246Y0124096D01*
X0545100Y0124245D01*
X0544958Y0124398D01*
X0544820Y0124554D01*
X0544685Y0124714D01*
X0544555Y0124877D01*
X0544429Y0125043D01*
X0544307Y0125212D01*
X0544189Y0125384D01*
X0544075Y0125559D01*
X0543965Y0125736D01*
X0543860Y0125916D01*
X0543760Y0126099D01*
X0543664Y0126284D01*
X0543572Y0126472D01*
X0543485Y0126661D01*
X0543403Y0126853D01*
X0543326Y0127047D01*
X0543253Y0127242D01*
X0543185Y0127440D01*
X0543122Y0127639D01*
X0543064Y0127839D01*
X0543011Y0128041D01*
X0542963Y0128244D01*
X0542919Y0128448D01*
X0542881Y0128653D01*
X0542848Y0128859D01*
X0542820Y0129066D01*
X0542797Y0129273D01*
X0542779Y0129481D01*
X0542766Y0129689D01*
X0542759Y0129897D01*
X0542756Y0130106D01*
X0733701Y0287587D02*
X0733704Y0287796D01*
X0733711Y0288004D01*
X0733724Y0288212D01*
X0733742Y0288420D01*
X0733765Y0288627D01*
X0733793Y0288834D01*
X0733826Y0289040D01*
X0733864Y0289245D01*
X0733908Y0289449D01*
X0733956Y0289652D01*
X0734009Y0289854D01*
X0734067Y0290054D01*
X0734130Y0290253D01*
X0734198Y0290451D01*
X0734271Y0290646D01*
X0734348Y0290840D01*
X0734430Y0291032D01*
X0734517Y0291221D01*
X0734609Y0291409D01*
X0734705Y0291594D01*
X0734805Y0291777D01*
X0734910Y0291957D01*
X0735020Y0292134D01*
X0735134Y0292309D01*
X0735252Y0292481D01*
X0735374Y0292650D01*
X0735500Y0292816D01*
X0735630Y0292979D01*
X0735765Y0293139D01*
X0735903Y0293295D01*
X0736045Y0293448D01*
X0736191Y0293597D01*
X0736340Y0293743D01*
X0736493Y0293885D01*
X0736649Y0294023D01*
X0736809Y0294158D01*
X0736972Y0294288D01*
X0737138Y0294414D01*
X0737307Y0294536D01*
X0737479Y0294654D01*
X0737654Y0294768D01*
X0737831Y0294878D01*
X0738011Y0294983D01*
X0738194Y0295083D01*
X0738379Y0295179D01*
X0738567Y0295271D01*
X0738756Y0295358D01*
X0738948Y0295440D01*
X0739142Y0295517D01*
X0739337Y0295590D01*
X0739535Y0295658D01*
X0739734Y0295721D01*
X0739934Y0295779D01*
X0740136Y0295832D01*
X0740339Y0295880D01*
X0740543Y0295924D01*
X0740748Y0295962D01*
X0740954Y0295995D01*
X0741161Y0296023D01*
X0741368Y0296046D01*
X0741576Y0296064D01*
X0741784Y0296077D01*
X0741992Y0296084D01*
X0742201Y0296087D01*
X0742410Y0296084D01*
X0742618Y0296077D01*
X0742826Y0296064D01*
X0743034Y0296046D01*
X0743241Y0296023D01*
X0743448Y0295995D01*
X0743654Y0295962D01*
X0743859Y0295924D01*
X0744063Y0295880D01*
X0744266Y0295832D01*
X0744468Y0295779D01*
X0744668Y0295721D01*
X0744867Y0295658D01*
X0745065Y0295590D01*
X0745260Y0295517D01*
X0745454Y0295440D01*
X0745646Y0295358D01*
X0745835Y0295271D01*
X0746023Y0295179D01*
X0746208Y0295083D01*
X0746391Y0294983D01*
X0746571Y0294878D01*
X0746748Y0294768D01*
X0746923Y0294654D01*
X0747095Y0294536D01*
X0747264Y0294414D01*
X0747430Y0294288D01*
X0747593Y0294158D01*
X0747753Y0294023D01*
X0747909Y0293885D01*
X0748062Y0293743D01*
X0748211Y0293597D01*
X0748357Y0293448D01*
X0748499Y0293295D01*
X0748637Y0293139D01*
X0748772Y0292979D01*
X0748902Y0292816D01*
X0749028Y0292650D01*
X0749150Y0292481D01*
X0749268Y0292309D01*
X0749382Y0292134D01*
X0749492Y0291957D01*
X0749597Y0291777D01*
X0749697Y0291594D01*
X0749793Y0291409D01*
X0749885Y0291221D01*
X0749972Y0291032D01*
X0750054Y0290840D01*
X0750131Y0290646D01*
X0750204Y0290451D01*
X0750272Y0290253D01*
X0750335Y0290054D01*
X0750393Y0289854D01*
X0750446Y0289652D01*
X0750494Y0289449D01*
X0750538Y0289245D01*
X0750576Y0289040D01*
X0750609Y0288834D01*
X0750637Y0288627D01*
X0750660Y0288420D01*
X0750678Y0288212D01*
X0750691Y0288004D01*
X0750698Y0287796D01*
X0750701Y0287587D01*
X0750698Y0287378D01*
X0750691Y0287170D01*
X0750678Y0286962D01*
X0750660Y0286754D01*
X0750637Y0286547D01*
X0750609Y0286340D01*
X0750576Y0286134D01*
X0750538Y0285929D01*
X0750494Y0285725D01*
X0750446Y0285522D01*
X0750393Y0285320D01*
X0750335Y0285120D01*
X0750272Y0284921D01*
X0750204Y0284723D01*
X0750131Y0284528D01*
X0750054Y0284334D01*
X0749972Y0284142D01*
X0749885Y0283953D01*
X0749793Y0283765D01*
X0749697Y0283580D01*
X0749597Y0283397D01*
X0749492Y0283217D01*
X0749382Y0283040D01*
X0749268Y0282865D01*
X0749150Y0282693D01*
X0749028Y0282524D01*
X0748902Y0282358D01*
X0748772Y0282195D01*
X0748637Y0282035D01*
X0748499Y0281879D01*
X0748357Y0281726D01*
X0748211Y0281577D01*
X0748062Y0281431D01*
X0747909Y0281289D01*
X0747753Y0281151D01*
X0747593Y0281016D01*
X0747430Y0280886D01*
X0747264Y0280760D01*
X0747095Y0280638D01*
X0746923Y0280520D01*
X0746748Y0280406D01*
X0746571Y0280296D01*
X0746391Y0280191D01*
X0746208Y0280091D01*
X0746023Y0279995D01*
X0745835Y0279903D01*
X0745646Y0279816D01*
X0745454Y0279734D01*
X0745260Y0279657D01*
X0745065Y0279584D01*
X0744867Y0279516D01*
X0744668Y0279453D01*
X0744468Y0279395D01*
X0744266Y0279342D01*
X0744063Y0279294D01*
X0743859Y0279250D01*
X0743654Y0279212D01*
X0743448Y0279179D01*
X0743241Y0279151D01*
X0743034Y0279128D01*
X0742826Y0279110D01*
X0742618Y0279097D01*
X0742410Y0279090D01*
X0742201Y0279087D01*
X0741992Y0279090D01*
X0741784Y0279097D01*
X0741576Y0279110D01*
X0741368Y0279128D01*
X0741161Y0279151D01*
X0740954Y0279179D01*
X0740748Y0279212D01*
X0740543Y0279250D01*
X0740339Y0279294D01*
X0740136Y0279342D01*
X0739934Y0279395D01*
X0739734Y0279453D01*
X0739535Y0279516D01*
X0739337Y0279584D01*
X0739142Y0279657D01*
X0738948Y0279734D01*
X0738756Y0279816D01*
X0738567Y0279903D01*
X0738379Y0279995D01*
X0738194Y0280091D01*
X0738011Y0280191D01*
X0737831Y0280296D01*
X0737654Y0280406D01*
X0737479Y0280520D01*
X0737307Y0280638D01*
X0737138Y0280760D01*
X0736972Y0280886D01*
X0736809Y0281016D01*
X0736649Y0281151D01*
X0736493Y0281289D01*
X0736340Y0281431D01*
X0736191Y0281577D01*
X0736045Y0281726D01*
X0735903Y0281879D01*
X0735765Y0282035D01*
X0735630Y0282195D01*
X0735500Y0282358D01*
X0735374Y0282524D01*
X0735252Y0282693D01*
X0735134Y0282865D01*
X0735020Y0283040D01*
X0734910Y0283217D01*
X0734805Y0283397D01*
X0734705Y0283580D01*
X0734609Y0283765D01*
X0734517Y0283953D01*
X0734430Y0284142D01*
X0734348Y0284334D01*
X0734271Y0284528D01*
X0734198Y0284723D01*
X0734130Y0284921D01*
X0734067Y0285120D01*
X0734009Y0285320D01*
X0733956Y0285522D01*
X0733908Y0285725D01*
X0733864Y0285929D01*
X0733826Y0286134D01*
X0733793Y0286340D01*
X0733765Y0286547D01*
X0733742Y0286754D01*
X0733724Y0286962D01*
X0733711Y0287170D01*
X0733704Y0287378D01*
X0733701Y0287587D01*
X0184488Y0169476D02*
X0184491Y0169685D01*
X0184498Y0169893D01*
X0184511Y0170101D01*
X0184529Y0170309D01*
X0184552Y0170516D01*
X0184580Y0170723D01*
X0184613Y0170929D01*
X0184651Y0171134D01*
X0184695Y0171338D01*
X0184743Y0171541D01*
X0184796Y0171743D01*
X0184854Y0171943D01*
X0184917Y0172142D01*
X0184985Y0172340D01*
X0185058Y0172535D01*
X0185135Y0172729D01*
X0185217Y0172921D01*
X0185304Y0173110D01*
X0185396Y0173298D01*
X0185492Y0173483D01*
X0185592Y0173666D01*
X0185697Y0173846D01*
X0185807Y0174023D01*
X0185921Y0174198D01*
X0186039Y0174370D01*
X0186161Y0174539D01*
X0186287Y0174705D01*
X0186417Y0174868D01*
X0186552Y0175028D01*
X0186690Y0175184D01*
X0186832Y0175337D01*
X0186978Y0175486D01*
X0187127Y0175632D01*
X0187280Y0175774D01*
X0187436Y0175912D01*
X0187596Y0176047D01*
X0187759Y0176177D01*
X0187925Y0176303D01*
X0188094Y0176425D01*
X0188266Y0176543D01*
X0188441Y0176657D01*
X0188618Y0176767D01*
X0188798Y0176872D01*
X0188981Y0176972D01*
X0189166Y0177068D01*
X0189354Y0177160D01*
X0189543Y0177247D01*
X0189735Y0177329D01*
X0189929Y0177406D01*
X0190124Y0177479D01*
X0190322Y0177547D01*
X0190521Y0177610D01*
X0190721Y0177668D01*
X0190923Y0177721D01*
X0191126Y0177769D01*
X0191330Y0177813D01*
X0191535Y0177851D01*
X0191741Y0177884D01*
X0191948Y0177912D01*
X0192155Y0177935D01*
X0192363Y0177953D01*
X0192571Y0177966D01*
X0192779Y0177973D01*
X0192988Y0177976D01*
X0193197Y0177973D01*
X0193405Y0177966D01*
X0193613Y0177953D01*
X0193821Y0177935D01*
X0194028Y0177912D01*
X0194235Y0177884D01*
X0194441Y0177851D01*
X0194646Y0177813D01*
X0194850Y0177769D01*
X0195053Y0177721D01*
X0195255Y0177668D01*
X0195455Y0177610D01*
X0195654Y0177547D01*
X0195852Y0177479D01*
X0196047Y0177406D01*
X0196241Y0177329D01*
X0196433Y0177247D01*
X0196622Y0177160D01*
X0196810Y0177068D01*
X0196995Y0176972D01*
X0197178Y0176872D01*
X0197358Y0176767D01*
X0197535Y0176657D01*
X0197710Y0176543D01*
X0197882Y0176425D01*
X0198051Y0176303D01*
X0198217Y0176177D01*
X0198380Y0176047D01*
X0198540Y0175912D01*
X0198696Y0175774D01*
X0198849Y0175632D01*
X0198998Y0175486D01*
X0199144Y0175337D01*
X0199286Y0175184D01*
X0199424Y0175028D01*
X0199559Y0174868D01*
X0199689Y0174705D01*
X0199815Y0174539D01*
X0199937Y0174370D01*
X0200055Y0174198D01*
X0200169Y0174023D01*
X0200279Y0173846D01*
X0200384Y0173666D01*
X0200484Y0173483D01*
X0200580Y0173298D01*
X0200672Y0173110D01*
X0200759Y0172921D01*
X0200841Y0172729D01*
X0200918Y0172535D01*
X0200991Y0172340D01*
X0201059Y0172142D01*
X0201122Y0171943D01*
X0201180Y0171743D01*
X0201233Y0171541D01*
X0201281Y0171338D01*
X0201325Y0171134D01*
X0201363Y0170929D01*
X0201396Y0170723D01*
X0201424Y0170516D01*
X0201447Y0170309D01*
X0201465Y0170101D01*
X0201478Y0169893D01*
X0201485Y0169685D01*
X0201488Y0169476D01*
X0201485Y0169267D01*
X0201478Y0169059D01*
X0201465Y0168851D01*
X0201447Y0168643D01*
X0201424Y0168436D01*
X0201396Y0168229D01*
X0201363Y0168023D01*
X0201325Y0167818D01*
X0201281Y0167614D01*
X0201233Y0167411D01*
X0201180Y0167209D01*
X0201122Y0167009D01*
X0201059Y0166810D01*
X0200991Y0166612D01*
X0200918Y0166417D01*
X0200841Y0166223D01*
X0200759Y0166031D01*
X0200672Y0165842D01*
X0200580Y0165654D01*
X0200484Y0165469D01*
X0200384Y0165286D01*
X0200279Y0165106D01*
X0200169Y0164929D01*
X0200055Y0164754D01*
X0199937Y0164582D01*
X0199815Y0164413D01*
X0199689Y0164247D01*
X0199559Y0164084D01*
X0199424Y0163924D01*
X0199286Y0163768D01*
X0199144Y0163615D01*
X0198998Y0163466D01*
X0198849Y0163320D01*
X0198696Y0163178D01*
X0198540Y0163040D01*
X0198380Y0162905D01*
X0198217Y0162775D01*
X0198051Y0162649D01*
X0197882Y0162527D01*
X0197710Y0162409D01*
X0197535Y0162295D01*
X0197358Y0162185D01*
X0197178Y0162080D01*
X0196995Y0161980D01*
X0196810Y0161884D01*
X0196622Y0161792D01*
X0196433Y0161705D01*
X0196241Y0161623D01*
X0196047Y0161546D01*
X0195852Y0161473D01*
X0195654Y0161405D01*
X0195455Y0161342D01*
X0195255Y0161284D01*
X0195053Y0161231D01*
X0194850Y0161183D01*
X0194646Y0161139D01*
X0194441Y0161101D01*
X0194235Y0161068D01*
X0194028Y0161040D01*
X0193821Y0161017D01*
X0193613Y0160999D01*
X0193405Y0160986D01*
X0193197Y0160979D01*
X0192988Y0160976D01*
X0192779Y0160979D01*
X0192571Y0160986D01*
X0192363Y0160999D01*
X0192155Y0161017D01*
X0191948Y0161040D01*
X0191741Y0161068D01*
X0191535Y0161101D01*
X0191330Y0161139D01*
X0191126Y0161183D01*
X0190923Y0161231D01*
X0190721Y0161284D01*
X0190521Y0161342D01*
X0190322Y0161405D01*
X0190124Y0161473D01*
X0189929Y0161546D01*
X0189735Y0161623D01*
X0189543Y0161705D01*
X0189354Y0161792D01*
X0189166Y0161884D01*
X0188981Y0161980D01*
X0188798Y0162080D01*
X0188618Y0162185D01*
X0188441Y0162295D01*
X0188266Y0162409D01*
X0188094Y0162527D01*
X0187925Y0162649D01*
X0187759Y0162775D01*
X0187596Y0162905D01*
X0187436Y0163040D01*
X0187280Y0163178D01*
X0187127Y0163320D01*
X0186978Y0163466D01*
X0186832Y0163615D01*
X0186690Y0163768D01*
X0186552Y0163924D01*
X0186417Y0164084D01*
X0186287Y0164247D01*
X0186161Y0164413D01*
X0186039Y0164582D01*
X0185921Y0164754D01*
X0185807Y0164929D01*
X0185697Y0165106D01*
X0185592Y0165286D01*
X0185492Y0165469D01*
X0185396Y0165654D01*
X0185304Y0165842D01*
X0185217Y0166031D01*
X0185135Y0166223D01*
X0185058Y0166417D01*
X0184985Y0166612D01*
X0184917Y0166810D01*
X0184854Y0167009D01*
X0184796Y0167209D01*
X0184743Y0167411D01*
X0184695Y0167614D01*
X0184651Y0167818D01*
X0184613Y0168023D01*
X0184580Y0168229D01*
X0184552Y0168436D01*
X0184529Y0168643D01*
X0184511Y0168851D01*
X0184498Y0169059D01*
X0184491Y0169267D01*
X0184488Y0169476D01*
X0097874Y0283650D02*
X0097877Y0283859D01*
X0097884Y0284067D01*
X0097897Y0284275D01*
X0097915Y0284483D01*
X0097938Y0284690D01*
X0097966Y0284897D01*
X0097999Y0285103D01*
X0098037Y0285308D01*
X0098081Y0285512D01*
X0098129Y0285715D01*
X0098182Y0285917D01*
X0098240Y0286117D01*
X0098303Y0286316D01*
X0098371Y0286514D01*
X0098444Y0286709D01*
X0098521Y0286903D01*
X0098603Y0287095D01*
X0098690Y0287284D01*
X0098782Y0287472D01*
X0098878Y0287657D01*
X0098978Y0287840D01*
X0099083Y0288020D01*
X0099193Y0288197D01*
X0099307Y0288372D01*
X0099425Y0288544D01*
X0099547Y0288713D01*
X0099673Y0288879D01*
X0099803Y0289042D01*
X0099938Y0289202D01*
X0100076Y0289358D01*
X0100218Y0289511D01*
X0100364Y0289660D01*
X0100513Y0289806D01*
X0100666Y0289948D01*
X0100822Y0290086D01*
X0100982Y0290221D01*
X0101145Y0290351D01*
X0101311Y0290477D01*
X0101480Y0290599D01*
X0101652Y0290717D01*
X0101827Y0290831D01*
X0102004Y0290941D01*
X0102184Y0291046D01*
X0102367Y0291146D01*
X0102552Y0291242D01*
X0102740Y0291334D01*
X0102929Y0291421D01*
X0103121Y0291503D01*
X0103315Y0291580D01*
X0103510Y0291653D01*
X0103708Y0291721D01*
X0103907Y0291784D01*
X0104107Y0291842D01*
X0104309Y0291895D01*
X0104512Y0291943D01*
X0104716Y0291987D01*
X0104921Y0292025D01*
X0105127Y0292058D01*
X0105334Y0292086D01*
X0105541Y0292109D01*
X0105749Y0292127D01*
X0105957Y0292140D01*
X0106165Y0292147D01*
X0106374Y0292150D01*
X0106583Y0292147D01*
X0106791Y0292140D01*
X0106999Y0292127D01*
X0107207Y0292109D01*
X0107414Y0292086D01*
X0107621Y0292058D01*
X0107827Y0292025D01*
X0108032Y0291987D01*
X0108236Y0291943D01*
X0108439Y0291895D01*
X0108641Y0291842D01*
X0108841Y0291784D01*
X0109040Y0291721D01*
X0109238Y0291653D01*
X0109433Y0291580D01*
X0109627Y0291503D01*
X0109819Y0291421D01*
X0110008Y0291334D01*
X0110196Y0291242D01*
X0110381Y0291146D01*
X0110564Y0291046D01*
X0110744Y0290941D01*
X0110921Y0290831D01*
X0111096Y0290717D01*
X0111268Y0290599D01*
X0111437Y0290477D01*
X0111603Y0290351D01*
X0111766Y0290221D01*
X0111926Y0290086D01*
X0112082Y0289948D01*
X0112235Y0289806D01*
X0112384Y0289660D01*
X0112530Y0289511D01*
X0112672Y0289358D01*
X0112810Y0289202D01*
X0112945Y0289042D01*
X0113075Y0288879D01*
X0113201Y0288713D01*
X0113323Y0288544D01*
X0113441Y0288372D01*
X0113555Y0288197D01*
X0113665Y0288020D01*
X0113770Y0287840D01*
X0113870Y0287657D01*
X0113966Y0287472D01*
X0114058Y0287284D01*
X0114145Y0287095D01*
X0114227Y0286903D01*
X0114304Y0286709D01*
X0114377Y0286514D01*
X0114445Y0286316D01*
X0114508Y0286117D01*
X0114566Y0285917D01*
X0114619Y0285715D01*
X0114667Y0285512D01*
X0114711Y0285308D01*
X0114749Y0285103D01*
X0114782Y0284897D01*
X0114810Y0284690D01*
X0114833Y0284483D01*
X0114851Y0284275D01*
X0114864Y0284067D01*
X0114871Y0283859D01*
X0114874Y0283650D01*
X0114871Y0283441D01*
X0114864Y0283233D01*
X0114851Y0283025D01*
X0114833Y0282817D01*
X0114810Y0282610D01*
X0114782Y0282403D01*
X0114749Y0282197D01*
X0114711Y0281992D01*
X0114667Y0281788D01*
X0114619Y0281585D01*
X0114566Y0281383D01*
X0114508Y0281183D01*
X0114445Y0280984D01*
X0114377Y0280786D01*
X0114304Y0280591D01*
X0114227Y0280397D01*
X0114145Y0280205D01*
X0114058Y0280016D01*
X0113966Y0279828D01*
X0113870Y0279643D01*
X0113770Y0279460D01*
X0113665Y0279280D01*
X0113555Y0279103D01*
X0113441Y0278928D01*
X0113323Y0278756D01*
X0113201Y0278587D01*
X0113075Y0278421D01*
X0112945Y0278258D01*
X0112810Y0278098D01*
X0112672Y0277942D01*
X0112530Y0277789D01*
X0112384Y0277640D01*
X0112235Y0277494D01*
X0112082Y0277352D01*
X0111926Y0277214D01*
X0111766Y0277079D01*
X0111603Y0276949D01*
X0111437Y0276823D01*
X0111268Y0276701D01*
X0111096Y0276583D01*
X0110921Y0276469D01*
X0110744Y0276359D01*
X0110564Y0276254D01*
X0110381Y0276154D01*
X0110196Y0276058D01*
X0110008Y0275966D01*
X0109819Y0275879D01*
X0109627Y0275797D01*
X0109433Y0275720D01*
X0109238Y0275647D01*
X0109040Y0275579D01*
X0108841Y0275516D01*
X0108641Y0275458D01*
X0108439Y0275405D01*
X0108236Y0275357D01*
X0108032Y0275313D01*
X0107827Y0275275D01*
X0107621Y0275242D01*
X0107414Y0275214D01*
X0107207Y0275191D01*
X0106999Y0275173D01*
X0106791Y0275160D01*
X0106583Y0275153D01*
X0106374Y0275150D01*
X0106165Y0275153D01*
X0105957Y0275160D01*
X0105749Y0275173D01*
X0105541Y0275191D01*
X0105334Y0275214D01*
X0105127Y0275242D01*
X0104921Y0275275D01*
X0104716Y0275313D01*
X0104512Y0275357D01*
X0104309Y0275405D01*
X0104107Y0275458D01*
X0103907Y0275516D01*
X0103708Y0275579D01*
X0103510Y0275647D01*
X0103315Y0275720D01*
X0103121Y0275797D01*
X0102929Y0275879D01*
X0102740Y0275966D01*
X0102552Y0276058D01*
X0102367Y0276154D01*
X0102184Y0276254D01*
X0102004Y0276359D01*
X0101827Y0276469D01*
X0101652Y0276583D01*
X0101480Y0276701D01*
X0101311Y0276823D01*
X0101145Y0276949D01*
X0100982Y0277079D01*
X0100822Y0277214D01*
X0100666Y0277352D01*
X0100513Y0277494D01*
X0100364Y0277640D01*
X0100218Y0277789D01*
X0100076Y0277942D01*
X0099938Y0278098D01*
X0099803Y0278258D01*
X0099673Y0278421D01*
X0099547Y0278587D01*
X0099425Y0278756D01*
X0099307Y0278928D01*
X0099193Y0279103D01*
X0099083Y0279280D01*
X0098978Y0279460D01*
X0098878Y0279643D01*
X0098782Y0279828D01*
X0098690Y0280016D01*
X0098603Y0280205D01*
X0098521Y0280397D01*
X0098444Y0280591D01*
X0098371Y0280786D01*
X0098303Y0280984D01*
X0098240Y0281183D01*
X0098182Y0281383D01*
X0098129Y0281585D01*
X0098081Y0281788D01*
X0098037Y0281992D01*
X0097999Y0282197D01*
X0097966Y0282403D01*
X0097938Y0282610D01*
X0097915Y0282817D01*
X0097897Y0283025D01*
X0097884Y0283233D01*
X0097877Y0283441D01*
X0097874Y0283650D01*
D11*
X0131764Y0177744D03*
X0148693Y0177744D03*
X0221764Y0177744D03*
X0238693Y0177744D03*
X0311764Y0177744D03*
X0328693Y0177744D03*
X0401764Y0177744D03*
X0418693Y0177744D03*
X0491764Y0177744D03*
X0508693Y0177744D03*
X0581764Y0177744D03*
X0598693Y0177744D03*
X0671764Y0177744D03*
X0688693Y0177744D03*
X0058693Y0177744D03*
X0041764Y0177744D03*
D12*
X0131728Y0111391D03*
X0131728Y0104698D03*
X0209728Y0117298D03*
X0209728Y0123991D03*
X0311728Y0111091D03*
X0311728Y0104398D03*
X0401728Y0104398D03*
X0401728Y0111091D03*
X0491728Y0111091D03*
X0491728Y0104398D03*
X0581728Y0104398D03*
X0581728Y0111091D03*
X0671728Y0111091D03*
X0671728Y0104398D03*
X0041628Y0104398D03*
X0041628Y0111091D03*
D13*
X0060882Y0161343D03*
X0067575Y0161343D03*
X0077083Y0161343D03*
X0083776Y0161343D03*
X0150882Y0161343D03*
X0157575Y0161343D03*
X0167083Y0161343D03*
X0173776Y0161343D03*
X0240882Y0161343D03*
X0247575Y0161343D03*
X0257083Y0161343D03*
X0263776Y0161343D03*
X0330882Y0161343D03*
X0337575Y0161343D03*
X0347083Y0161343D03*
X0353776Y0161343D03*
X0420882Y0161344D03*
X0427575Y0161344D03*
X0437082Y0161344D03*
X0443775Y0161344D03*
X0510882Y0161344D03*
X0517575Y0161344D03*
X0527082Y0161344D03*
X0533775Y0161344D03*
X0600882Y0161344D03*
X0607575Y0161344D03*
X0617082Y0161344D03*
X0623775Y0161344D03*
X0689382Y0161344D03*
X0696075Y0161344D03*
X0707082Y0161344D03*
X0713775Y0161344D03*
X0543075Y0036933D03*
X0536382Y0036933D03*
X0536382Y0024933D03*
X0543075Y0024933D03*
D14*
X0552693Y0051513D03*
X0560764Y0051513D03*
X0556728Y0059354D03*
X0525764Y0170324D03*
X0517693Y0170324D03*
X0521728Y0178165D03*
X0435764Y0170324D03*
X0427693Y0170324D03*
X0431728Y0178165D03*
X0345764Y0170324D03*
X0337693Y0170324D03*
X0341728Y0178165D03*
X0255764Y0170324D03*
X0247693Y0170324D03*
X0251728Y0178165D03*
X0165764Y0170324D03*
X0157693Y0170324D03*
X0161728Y0178165D03*
X0075764Y0170324D03*
X0067693Y0170324D03*
X0071728Y0178165D03*
X0607693Y0170324D03*
X0615764Y0170324D03*
X0611728Y0178165D03*
X0697693Y0170324D03*
X0705764Y0170324D03*
X0701728Y0178165D03*
D15*
X0684484Y0163748D02*
X0684484Y0159260D01*
X0678972Y0159260D01*
X0678972Y0163748D01*
X0684484Y0163748D01*
X0684484Y0160755D02*
X0678972Y0160755D01*
X0678972Y0162250D02*
X0684484Y0162250D01*
X0684484Y0163745D02*
X0678972Y0163745D01*
X0674484Y0163748D02*
X0674484Y0159260D01*
X0668972Y0159260D01*
X0668972Y0163748D01*
X0674484Y0163748D01*
X0674484Y0160755D02*
X0668972Y0160755D01*
X0668972Y0162250D02*
X0674484Y0162250D01*
X0674484Y0163745D02*
X0668972Y0163745D01*
X0594484Y0163748D02*
X0594484Y0159260D01*
X0588972Y0159260D01*
X0588972Y0163748D01*
X0594484Y0163748D01*
X0594484Y0160755D02*
X0588972Y0160755D01*
X0588972Y0162250D02*
X0594484Y0162250D01*
X0594484Y0163745D02*
X0588972Y0163745D01*
X0584484Y0163748D02*
X0584484Y0159260D01*
X0578972Y0159260D01*
X0578972Y0163748D01*
X0584484Y0163748D01*
X0584484Y0160755D02*
X0578972Y0160755D01*
X0578972Y0162250D02*
X0584484Y0162250D01*
X0584484Y0163745D02*
X0578972Y0163745D01*
X0584484Y0126228D02*
X0584484Y0121740D01*
X0578972Y0121740D01*
X0578972Y0126228D01*
X0584484Y0126228D01*
X0584484Y0123235D02*
X0578972Y0123235D01*
X0578972Y0124730D02*
X0584484Y0124730D01*
X0584484Y0126225D02*
X0578972Y0126225D01*
X0594484Y0126228D02*
X0594484Y0121740D01*
X0588972Y0121740D01*
X0588972Y0126228D01*
X0594484Y0126228D01*
X0594484Y0123235D02*
X0588972Y0123235D01*
X0588972Y0124730D02*
X0594484Y0124730D01*
X0594484Y0126225D02*
X0588972Y0126225D01*
X0674484Y0126228D02*
X0674484Y0121740D01*
X0668972Y0121740D01*
X0668972Y0126228D01*
X0674484Y0126228D01*
X0674484Y0123235D02*
X0668972Y0123235D01*
X0668972Y0124730D02*
X0674484Y0124730D01*
X0674484Y0126225D02*
X0668972Y0126225D01*
X0684484Y0126228D02*
X0684484Y0121740D01*
X0678972Y0121740D01*
X0678972Y0126228D01*
X0684484Y0126228D01*
X0684484Y0123235D02*
X0678972Y0123235D01*
X0678972Y0124730D02*
X0684484Y0124730D01*
X0684484Y0126225D02*
X0678972Y0126225D01*
X0504484Y0126228D02*
X0504484Y0121740D01*
X0498972Y0121740D01*
X0498972Y0126228D01*
X0504484Y0126228D01*
X0504484Y0123235D02*
X0498972Y0123235D01*
X0498972Y0124730D02*
X0504484Y0124730D01*
X0504484Y0126225D02*
X0498972Y0126225D01*
X0494484Y0126228D02*
X0494484Y0121740D01*
X0488972Y0121740D01*
X0488972Y0126228D01*
X0494484Y0126228D01*
X0494484Y0123235D02*
X0488972Y0123235D01*
X0488972Y0124730D02*
X0494484Y0124730D01*
X0494484Y0126225D02*
X0488972Y0126225D01*
X0494484Y0159260D02*
X0494484Y0163748D01*
X0494484Y0159260D02*
X0488972Y0159260D01*
X0488972Y0163748D01*
X0494484Y0163748D01*
X0494484Y0160755D02*
X0488972Y0160755D01*
X0488972Y0162250D02*
X0494484Y0162250D01*
X0494484Y0163745D02*
X0488972Y0163745D01*
X0504484Y0163748D02*
X0504484Y0159260D01*
X0498972Y0159260D01*
X0498972Y0163748D01*
X0504484Y0163748D01*
X0504484Y0160755D02*
X0498972Y0160755D01*
X0498972Y0162250D02*
X0504484Y0162250D01*
X0504484Y0163745D02*
X0498972Y0163745D01*
X0414484Y0163748D02*
X0414484Y0159260D01*
X0408972Y0159260D01*
X0408972Y0163748D01*
X0414484Y0163748D01*
X0414484Y0160755D02*
X0408972Y0160755D01*
X0408972Y0162250D02*
X0414484Y0162250D01*
X0414484Y0163745D02*
X0408972Y0163745D01*
X0404484Y0163748D02*
X0404484Y0159260D01*
X0398972Y0159260D01*
X0398972Y0163748D01*
X0404484Y0163748D01*
X0404484Y0160755D02*
X0398972Y0160755D01*
X0398972Y0162250D02*
X0404484Y0162250D01*
X0404484Y0163745D02*
X0398972Y0163745D01*
X0324484Y0163748D02*
X0324484Y0159260D01*
X0318972Y0159260D01*
X0318972Y0163748D01*
X0324484Y0163748D01*
X0324484Y0160755D02*
X0318972Y0160755D01*
X0318972Y0162250D02*
X0324484Y0162250D01*
X0324484Y0163745D02*
X0318972Y0163745D01*
X0314484Y0163748D02*
X0314484Y0159260D01*
X0308972Y0159260D01*
X0308972Y0163748D01*
X0314484Y0163748D01*
X0314484Y0160755D02*
X0308972Y0160755D01*
X0308972Y0162250D02*
X0314484Y0162250D01*
X0314484Y0163745D02*
X0308972Y0163745D01*
X0234484Y0163748D02*
X0234484Y0159260D01*
X0228972Y0159260D01*
X0228972Y0163748D01*
X0234484Y0163748D01*
X0234484Y0160755D02*
X0228972Y0160755D01*
X0228972Y0162250D02*
X0234484Y0162250D01*
X0234484Y0163745D02*
X0228972Y0163745D01*
X0224484Y0163748D02*
X0224484Y0159260D01*
X0218972Y0159260D01*
X0218972Y0163748D01*
X0224484Y0163748D01*
X0224484Y0160755D02*
X0218972Y0160755D01*
X0218972Y0162250D02*
X0224484Y0162250D01*
X0224484Y0163745D02*
X0218972Y0163745D01*
X0144484Y0163748D02*
X0144484Y0159260D01*
X0138972Y0159260D01*
X0138972Y0163748D01*
X0144484Y0163748D01*
X0144484Y0160755D02*
X0138972Y0160755D01*
X0138972Y0162250D02*
X0144484Y0162250D01*
X0144484Y0163745D02*
X0138972Y0163745D01*
X0134484Y0163748D02*
X0134484Y0159260D01*
X0128972Y0159260D01*
X0128972Y0163748D01*
X0134484Y0163748D01*
X0134484Y0160755D02*
X0128972Y0160755D01*
X0128972Y0162250D02*
X0134484Y0162250D01*
X0134484Y0163745D02*
X0128972Y0163745D01*
X0054484Y0163748D02*
X0054484Y0159260D01*
X0048972Y0159260D01*
X0048972Y0163748D01*
X0054484Y0163748D01*
X0054484Y0160755D02*
X0048972Y0160755D01*
X0048972Y0162250D02*
X0054484Y0162250D01*
X0054484Y0163745D02*
X0048972Y0163745D01*
X0044484Y0163748D02*
X0044484Y0159260D01*
X0038972Y0159260D01*
X0038972Y0163748D01*
X0044484Y0163748D01*
X0044484Y0160755D02*
X0038972Y0160755D01*
X0038972Y0162250D02*
X0044484Y0162250D01*
X0044484Y0163745D02*
X0038972Y0163745D01*
X0044484Y0126228D02*
X0044484Y0121740D01*
X0038972Y0121740D01*
X0038972Y0126228D01*
X0044484Y0126228D01*
X0044484Y0123235D02*
X0038972Y0123235D01*
X0038972Y0124730D02*
X0044484Y0124730D01*
X0044484Y0126225D02*
X0038972Y0126225D01*
X0054484Y0126228D02*
X0054484Y0121740D01*
X0048972Y0121740D01*
X0048972Y0126228D01*
X0054484Y0126228D01*
X0054484Y0123235D02*
X0048972Y0123235D01*
X0048972Y0124730D02*
X0054484Y0124730D01*
X0054484Y0126225D02*
X0048972Y0126225D01*
X0134484Y0126228D02*
X0134484Y0121740D01*
X0128972Y0121740D01*
X0128972Y0126228D01*
X0134484Y0126228D01*
X0134484Y0123235D02*
X0128972Y0123235D01*
X0128972Y0124730D02*
X0134484Y0124730D01*
X0134484Y0126225D02*
X0128972Y0126225D01*
X0144484Y0126228D02*
X0144484Y0121740D01*
X0138972Y0121740D01*
X0138972Y0126228D01*
X0144484Y0126228D01*
X0144484Y0123235D02*
X0138972Y0123235D01*
X0138972Y0124730D02*
X0144484Y0124730D01*
X0144484Y0126225D02*
X0138972Y0126225D01*
X0224484Y0126228D02*
X0224484Y0121740D01*
X0218972Y0121740D01*
X0218972Y0126228D01*
X0224484Y0126228D01*
X0224484Y0123235D02*
X0218972Y0123235D01*
X0218972Y0124730D02*
X0224484Y0124730D01*
X0224484Y0126225D02*
X0218972Y0126225D01*
X0234484Y0126228D02*
X0234484Y0121740D01*
X0228972Y0121740D01*
X0228972Y0126228D01*
X0234484Y0126228D01*
X0234484Y0123235D02*
X0228972Y0123235D01*
X0228972Y0124730D02*
X0234484Y0124730D01*
X0234484Y0126225D02*
X0228972Y0126225D01*
X0314484Y0126228D02*
X0314484Y0121740D01*
X0308972Y0121740D01*
X0308972Y0126228D01*
X0314484Y0126228D01*
X0314484Y0123235D02*
X0308972Y0123235D01*
X0308972Y0124730D02*
X0314484Y0124730D01*
X0314484Y0126225D02*
X0308972Y0126225D01*
X0324484Y0126228D02*
X0324484Y0121740D01*
X0318972Y0121740D01*
X0318972Y0126228D01*
X0324484Y0126228D01*
X0324484Y0123235D02*
X0318972Y0123235D01*
X0318972Y0124730D02*
X0324484Y0124730D01*
X0324484Y0126225D02*
X0318972Y0126225D01*
X0404484Y0126228D02*
X0404484Y0121740D01*
X0398972Y0121740D01*
X0398972Y0126228D01*
X0404484Y0126228D01*
X0404484Y0123235D02*
X0398972Y0123235D01*
X0398972Y0124730D02*
X0404484Y0124730D01*
X0404484Y0126225D02*
X0398972Y0126225D01*
X0414484Y0126228D02*
X0414484Y0121740D01*
X0408972Y0121740D01*
X0408972Y0126228D01*
X0414484Y0126228D01*
X0414484Y0123235D02*
X0408972Y0123235D01*
X0408972Y0124730D02*
X0414484Y0124730D01*
X0414484Y0126225D02*
X0408972Y0126225D01*
D16*
X0401728Y0195744D03*
X0431728Y0195744D03*
X0491728Y0195744D03*
X0521728Y0195744D03*
X0581728Y0195744D03*
X0611728Y0195744D03*
X0671728Y0195744D03*
X0701728Y0195744D03*
X0701728Y0235744D03*
X0671728Y0255744D03*
X0701728Y0265744D03*
X0611728Y0265744D03*
X0581728Y0255744D03*
X0611728Y0235744D03*
X0521728Y0235744D03*
X0491728Y0255744D03*
X0521728Y0265744D03*
X0431728Y0265744D03*
X0401728Y0255744D03*
X0431728Y0235744D03*
X0341728Y0235744D03*
X0311728Y0255744D03*
X0341728Y0265744D03*
X0251728Y0265744D03*
X0221728Y0255744D03*
X0251728Y0235744D03*
X0251728Y0195744D03*
X0221728Y0195744D03*
X0161728Y0195744D03*
X0131728Y0195744D03*
X0071728Y0195744D03*
X0041728Y0195744D03*
X0071728Y0235744D03*
X0041728Y0255744D03*
X0071728Y0265744D03*
X0131728Y0255744D03*
X0161728Y0265744D03*
X0161728Y0235744D03*
X0311728Y0195744D03*
X0341728Y0195744D03*
D17*
X0249728Y0047933D03*
X0239728Y0047933D03*
X0229728Y0047933D03*
X0219728Y0047933D03*
X0209728Y0047933D03*
X0199728Y0047933D03*
X0189728Y0047933D03*
X0179728Y0047933D03*
X0169728Y0047933D03*
X0159728Y0047933D03*
X0149728Y0047933D03*
X0139728Y0047933D03*
X0129728Y0047933D03*
X0119728Y0047933D03*
X0109728Y0047933D03*
X0099728Y0047933D03*
X0089728Y0047933D03*
X0079728Y0047933D03*
X0069728Y0047933D03*
X0059728Y0047933D03*
X0059728Y0037933D03*
X0069728Y0037933D03*
X0079728Y0037933D03*
X0089728Y0037933D03*
X0099728Y0037933D03*
X0109728Y0037933D03*
X0119728Y0037933D03*
X0129728Y0037933D03*
X0139728Y0037933D03*
X0149728Y0037933D03*
X0159728Y0037933D03*
X0169728Y0037933D03*
X0179728Y0037933D03*
X0189728Y0037933D03*
X0199728Y0037933D03*
X0209728Y0037933D03*
X0219728Y0037933D03*
X0229728Y0037933D03*
X0239728Y0037933D03*
X0249728Y0037933D03*
D18*
X0266413Y0288374D03*
X0274287Y0298217D03*
X0246728Y0298217D03*
X0227043Y0288374D03*
X0219169Y0298217D03*
X0184287Y0298217D03*
X0176413Y0288374D03*
X0156728Y0298217D03*
X0137043Y0288374D03*
X0129169Y0298217D03*
X0094287Y0298217D03*
X0086413Y0288374D03*
X0066728Y0298217D03*
X0047043Y0288374D03*
X0039169Y0298217D03*
X0056886Y0337587D03*
X0076571Y0337587D03*
X0146886Y0337587D03*
X0166571Y0337587D03*
X0236886Y0337587D03*
X0256571Y0337587D03*
X0309169Y0298217D03*
X0317043Y0288374D03*
X0336728Y0298217D03*
X0356413Y0288374D03*
X0364287Y0298217D03*
X0399169Y0298217D03*
X0407043Y0288374D03*
X0426728Y0298217D03*
X0446413Y0288374D03*
X0454287Y0298217D03*
X0489169Y0298217D03*
X0497043Y0288374D03*
X0516728Y0298217D03*
X0536413Y0288374D03*
X0544287Y0298217D03*
X0579169Y0298217D03*
X0587043Y0288374D03*
X0606728Y0298217D03*
X0626413Y0288374D03*
X0634287Y0298217D03*
X0669169Y0298217D03*
X0677043Y0288374D03*
X0696728Y0298217D03*
X0716413Y0288374D03*
X0724287Y0298217D03*
X0706571Y0337587D03*
X0686886Y0337587D03*
X0616571Y0337587D03*
X0596886Y0337587D03*
X0526571Y0337587D03*
X0506886Y0337587D03*
X0436571Y0337587D03*
X0416886Y0337587D03*
X0346571Y0337587D03*
X0326886Y0337587D03*
D19*
X0361728Y0258453D03*
X0361728Y0244043D03*
X0361728Y0226445D03*
X0361728Y0212035D03*
X0271728Y0212035D03*
X0271728Y0226445D03*
X0271728Y0244043D03*
X0271728Y0258453D03*
X0181728Y0258453D03*
X0181728Y0244043D03*
X0181728Y0226445D03*
X0181728Y0212035D03*
X0091728Y0212035D03*
X0091728Y0226445D03*
X0091728Y0244043D03*
X0091728Y0258453D03*
X0451728Y0258453D03*
X0451728Y0244043D03*
X0451728Y0226445D03*
X0451728Y0212035D03*
X0541728Y0212035D03*
X0541728Y0226445D03*
X0541728Y0244043D03*
X0541728Y0258453D03*
X0631728Y0258453D03*
X0631728Y0244043D03*
X0631728Y0226445D03*
X0631728Y0212035D03*
X0721728Y0212035D03*
X0721728Y0226445D03*
X0721728Y0244043D03*
X0721728Y0258453D03*
X0724328Y0109842D03*
X0724328Y0095432D03*
X0724328Y0077834D03*
X0724328Y0063424D03*
D20*
X0571640Y0068433D03*
X0560617Y0068433D03*
X0471240Y0027433D03*
X0460217Y0027433D03*
D21*
X0105428Y0100233D03*
X0095428Y0100233D03*
D22*
X0556988Y0034961D03*
X0560728Y0034961D03*
X0564469Y0034961D03*
X0564469Y0025906D03*
X0560728Y0025906D03*
X0556988Y0025906D03*
D23*
X0665201Y0032933D03*
X0684886Y0032933D03*
X0704571Y0032933D03*
X0724256Y0032933D03*
D24*
X0500728Y0027421D03*
X0485728Y0027421D03*
X0485728Y0038445D03*
X0500728Y0038445D03*
D25*
X0602228Y0056633D03*
X0647228Y0056633D03*
X0647228Y0084233D03*
X0602228Y0084233D03*
D26*
X0589728Y0098933D02*
X0581628Y0090833D01*
X0507828Y0090833D01*
X0451528Y0034533D01*
X0451428Y0034333D01*
X0450928Y0033833D01*
X0299728Y0033833D01*
X0277328Y0056233D01*
X0300628Y0050033D02*
X0310328Y0040333D01*
X0444428Y0040333D01*
X0501028Y0096933D01*
X0500728Y0096933D01*
X0501028Y0096933D02*
X0574728Y0096933D01*
X0581728Y0103933D01*
X0581728Y0104398D01*
X0581728Y0111091D02*
X0581728Y0123984D01*
X0589728Y0098933D02*
X0666264Y0098933D01*
X0671728Y0104398D01*
X0671693Y0104398D01*
X0671728Y0111091D02*
X0671728Y0123984D01*
X0671728Y0161504D02*
X0671764Y0161539D01*
X0671764Y0177744D01*
X0671728Y0177780D01*
X0671728Y0195744D01*
X0633139Y0195744D01*
X0632128Y0194733D01*
X0611728Y0195744D02*
X0611728Y0178165D01*
X0611488Y0177744D01*
X0598693Y0177744D01*
X0607693Y0170324D02*
X0607669Y0161439D01*
X0616987Y0161439D01*
X0617082Y0161344D01*
X0607669Y0161439D02*
X0607575Y0161344D01*
X0600882Y0161344D02*
X0591888Y0161344D01*
X0591728Y0161504D01*
X0581764Y0161539D02*
X0581728Y0161504D01*
X0581764Y0161539D02*
X0581764Y0177744D01*
X0581728Y0177780D01*
X0581728Y0195744D01*
X0542839Y0195744D01*
X0541728Y0194633D01*
X0521728Y0195744D02*
X0521728Y0178165D01*
X0521488Y0177744D01*
X0508693Y0177744D01*
X0517693Y0170324D02*
X0517669Y0161439D01*
X0517575Y0161344D01*
X0527082Y0161344D01*
X0510882Y0161344D02*
X0509222Y0161504D01*
X0501728Y0161504D01*
X0491764Y0161539D02*
X0491728Y0161504D01*
X0491764Y0161539D02*
X0491764Y0177744D01*
X0491764Y0195709D01*
X0491728Y0195744D01*
X0454839Y0195744D01*
X0453728Y0194633D01*
X0431728Y0195744D02*
X0431728Y0178165D01*
X0431488Y0177744D01*
X0418693Y0177744D01*
X0427693Y0170324D02*
X0427669Y0161439D01*
X0436987Y0161439D01*
X0437082Y0161344D01*
X0427669Y0161439D02*
X0427575Y0161344D01*
X0420882Y0161344D02*
X0420722Y0161504D01*
X0411728Y0161504D01*
X0401728Y0161504D02*
X0401728Y0177709D01*
X0401764Y0177744D01*
X0401764Y0195709D01*
X0401728Y0195744D01*
X0360339Y0195744D01*
X0359228Y0194633D01*
X0341728Y0195744D02*
X0341728Y0178165D01*
X0328933Y0177984D01*
X0328693Y0177744D01*
X0337693Y0170324D02*
X0337669Y0161437D01*
X0337575Y0161343D01*
X0347083Y0161343D01*
X0330882Y0161343D02*
X0330220Y0161504D01*
X0321728Y0161504D01*
X0311728Y0161504D02*
X0311728Y0161833D01*
X0304128Y0161833D01*
X0290428Y0148133D01*
X0290428Y0097333D01*
X0282528Y0090133D02*
X0259528Y0113133D01*
X0236728Y0113133D01*
X0229628Y0104733D02*
X0220728Y0104733D01*
X0217628Y0101633D01*
X0201928Y0101633D01*
X0199028Y0104533D01*
X0138093Y0104733D01*
X0131728Y0104698D01*
X0131728Y0111391D02*
X0131728Y0123984D01*
X0130328Y0094333D02*
X0084828Y0139833D01*
X0077083Y0161343D02*
X0067575Y0161343D01*
X0067669Y0161437D01*
X0067693Y0170324D01*
X0071488Y0177744D02*
X0058693Y0177744D01*
X0071488Y0177744D02*
X0071728Y0178165D01*
X0071728Y0195744D01*
X0095228Y0195133D02*
X0095839Y0195744D01*
X0131728Y0195744D01*
X0131728Y0177780D01*
X0131764Y0177744D01*
X0131764Y0161539D01*
X0131728Y0161504D01*
X0141728Y0161504D02*
X0150720Y0161504D01*
X0150882Y0161343D01*
X0157575Y0161343D02*
X0167083Y0161343D01*
X0157575Y0161343D02*
X0157575Y0170409D01*
X0157693Y0170324D01*
X0161488Y0177744D02*
X0148693Y0177744D01*
X0161488Y0177744D02*
X0161728Y0178165D01*
X0161728Y0195744D01*
X0182428Y0194833D02*
X0182428Y0194633D01*
X0182428Y0194833D02*
X0183428Y0195833D01*
X0221639Y0195833D01*
X0221728Y0195744D01*
X0221764Y0195709D01*
X0221764Y0177744D01*
X0221764Y0161539D01*
X0221728Y0161504D01*
X0231728Y0161504D02*
X0231890Y0161343D01*
X0240882Y0161343D01*
X0247575Y0161343D02*
X0257083Y0161343D01*
X0247669Y0161437D02*
X0247693Y0170324D01*
X0251488Y0177744D02*
X0238693Y0177744D01*
X0251488Y0177744D02*
X0251728Y0178165D01*
X0251728Y0195744D01*
X0273428Y0194633D02*
X0274504Y0195709D01*
X0311764Y0195709D01*
X0311764Y0177744D01*
X0311728Y0177709D01*
X0311728Y0161833D01*
X0311764Y0195709D02*
X0311728Y0195744D01*
X0247669Y0161437D02*
X0247575Y0161343D01*
X0221728Y0123984D02*
X0209728Y0123991D01*
X0209728Y0117298D02*
X0209728Y0107433D01*
X0222428Y0097233D02*
X0219528Y0094333D01*
X0130328Y0094333D01*
X0099728Y0081333D02*
X0265728Y0081333D01*
X0265828Y0081233D01*
X0282528Y0090133D02*
X0302528Y0090133D01*
X0311728Y0099333D01*
X0311728Y0104398D01*
X0311728Y0111091D02*
X0311728Y0123984D01*
X0302528Y0090133D02*
X0301528Y0089133D01*
X0294128Y0073833D02*
X0109828Y0074833D01*
X0109728Y0074733D01*
X0058093Y0087933D02*
X0239728Y0087933D01*
X0249928Y0097233D02*
X0222428Y0097233D01*
X0189728Y0068033D02*
X0299628Y0068033D01*
X0299728Y0067933D01*
X0330728Y0067933D01*
X0345728Y0052933D01*
X0390728Y0052933D01*
X0401728Y0063933D01*
X0401728Y0104398D01*
X0401728Y0111091D02*
X0401728Y0123984D01*
X0439728Y0046933D02*
X0491728Y0098933D01*
X0491728Y0104398D01*
X0491728Y0111091D02*
X0491728Y0123984D01*
X0560764Y0051513D02*
X0565608Y0051513D01*
X0565728Y0051633D01*
X0439728Y0046933D02*
X0343628Y0046933D01*
X0331328Y0059233D01*
X0331328Y0059333D01*
X0328728Y0061933D01*
X0196728Y0061933D01*
X0193728Y0058933D01*
X0179728Y0059233D01*
X0089728Y0037933D02*
X0089728Y0033933D01*
X0076728Y0020933D01*
X0051728Y0020933D01*
X0026728Y0020933D01*
X0036728Y0020933D02*
X0026728Y0030933D01*
X0026728Y0036993D01*
X0026628Y0037093D01*
X0026628Y0048773D01*
X0026728Y0048873D01*
X0026728Y0060933D01*
X0041728Y0075933D01*
X0058093Y0087933D02*
X0041628Y0104398D01*
X0041628Y0111091D02*
X0041628Y0123884D01*
X0041728Y0123984D01*
X0041728Y0161504D02*
X0041764Y0161539D01*
X0041764Y0177744D01*
X0041764Y0195709D01*
X0041728Y0195744D01*
X0051728Y0161504D02*
X0051890Y0161343D01*
X0060882Y0161343D01*
X0161488Y0177744D02*
X0161728Y0178165D01*
X0051728Y0020933D02*
X0036728Y0020933D01*
X0681728Y0161504D02*
X0681888Y0161344D01*
X0689382Y0161344D01*
X0696075Y0161344D02*
X0697669Y0161439D01*
X0706987Y0161439D01*
X0707082Y0161344D01*
X0697669Y0161439D02*
X0697693Y0170324D01*
X0701488Y0177744D02*
X0688693Y0177744D01*
X0701488Y0177744D02*
X0701728Y0178165D01*
X0701728Y0195744D01*
D27*
X0696538Y0200878D02*
X0676918Y0200878D01*
X0677917Y0199879D02*
X0675863Y0201933D01*
X0673180Y0203044D01*
X0670276Y0203044D01*
X0667593Y0201933D01*
X0667505Y0201844D01*
X0631926Y0201844D01*
X0631682Y0201743D01*
X0630734Y0201743D01*
X0628158Y0200676D01*
X0626186Y0198704D01*
X0625119Y0196127D01*
X0625119Y0193339D01*
X0626186Y0190762D01*
X0628158Y0188790D01*
X0630734Y0187723D01*
X0633523Y0187723D01*
X0636099Y0188790D01*
X0636953Y0189644D01*
X0665628Y0189644D01*
X0665628Y0183366D01*
X0665449Y0183187D01*
X0664764Y0181533D01*
X0664764Y0173955D01*
X0665449Y0172301D01*
X0665664Y0172086D01*
X0665664Y0167861D01*
X0664523Y0166721D01*
X0663724Y0164792D01*
X0663724Y0158216D01*
X0664523Y0156287D01*
X0664728Y0156082D01*
X0664728Y0149741D01*
X0665794Y0147168D01*
X0686528Y0126434D01*
X0686528Y0064160D01*
X0665201Y0042833D01*
X0655478Y0052555D01*
X0655478Y0065028D01*
X0654793Y0066682D01*
X0653527Y0067948D01*
X0651873Y0068633D01*
X0642583Y0068633D01*
X0640929Y0067948D01*
X0639663Y0066682D01*
X0638978Y0065028D01*
X0638978Y0063633D01*
X0610478Y0063633D01*
X0610478Y0065028D01*
X0609793Y0066682D01*
X0608527Y0067948D01*
X0606873Y0068633D01*
X0597583Y0068633D01*
X0595929Y0067948D01*
X0594663Y0066682D01*
X0593978Y0065028D01*
X0593978Y0063633D01*
X0586340Y0063633D01*
X0579290Y0070683D01*
X0579290Y0072871D01*
X0578605Y0074525D01*
X0577339Y0075791D01*
X0575685Y0076476D01*
X0567595Y0076476D01*
X0566128Y0075869D01*
X0564661Y0076476D01*
X0556572Y0076476D01*
X0554918Y0075791D01*
X0553652Y0074525D01*
X0552967Y0072871D01*
X0552967Y0070683D01*
X0550794Y0068510D01*
X0549843Y0066213D01*
X0536616Y0066213D01*
X0534043Y0065148D01*
X0503967Y0035071D01*
X0496290Y0035071D01*
X0494722Y0034421D01*
X0491735Y0034421D01*
X0490167Y0035071D01*
X0481290Y0035071D01*
X0479722Y0034421D01*
X0477309Y0034421D01*
X0476939Y0034791D01*
X0475285Y0035476D01*
X0467195Y0035476D01*
X0465728Y0034869D01*
X0464261Y0035476D01*
X0461098Y0035476D01*
X0510355Y0084733D01*
X0582842Y0084733D01*
X0585084Y0085662D01*
X0592255Y0092833D01*
X0667477Y0092833D01*
X0669719Y0093762D01*
X0673690Y0097732D01*
X0674592Y0097732D01*
X0676246Y0098417D01*
X0677512Y0099683D01*
X0678197Y0101337D01*
X0678197Y0107458D01*
X0678078Y0107744D01*
X0678197Y0108030D01*
X0678197Y0114151D01*
X0677828Y0115041D01*
X0677828Y0117662D01*
X0678933Y0118767D01*
X0679732Y0120696D01*
X0679732Y0127272D01*
X0678933Y0129201D01*
X0677457Y0130677D01*
X0675528Y0131476D01*
X0667929Y0131476D01*
X0666000Y0130677D01*
X0664523Y0129201D01*
X0663724Y0127272D01*
X0663724Y0120696D01*
X0664523Y0118767D01*
X0665628Y0117662D01*
X0665628Y0115041D01*
X0665260Y0114151D01*
X0665260Y0108030D01*
X0665378Y0107744D01*
X0665260Y0107458D01*
X0665260Y0106556D01*
X0663737Y0105033D01*
X0588515Y0105033D01*
X0588197Y0104901D01*
X0588197Y0107458D01*
X0588078Y0107744D01*
X0588197Y0108030D01*
X0588197Y0114151D01*
X0587828Y0115041D01*
X0587828Y0117662D01*
X0588933Y0118767D01*
X0589732Y0120696D01*
X0589732Y0127272D01*
X0588933Y0129201D01*
X0587457Y0130677D01*
X0585528Y0131476D01*
X0577929Y0131476D01*
X0576000Y0130677D01*
X0574523Y0129201D01*
X0573724Y0127272D01*
X0573724Y0120696D01*
X0574523Y0118767D01*
X0575628Y0117662D01*
X0575628Y0115041D01*
X0575260Y0114151D01*
X0575260Y0108030D01*
X0575378Y0107744D01*
X0575260Y0107458D01*
X0575260Y0106091D01*
X0572202Y0103033D01*
X0499515Y0103033D01*
X0498197Y0102487D01*
X0498197Y0107458D01*
X0498078Y0107744D01*
X0498197Y0108030D01*
X0498197Y0114151D01*
X0497828Y0115041D01*
X0497828Y0117662D01*
X0498933Y0118767D01*
X0499732Y0120696D01*
X0499732Y0127272D01*
X0498933Y0129201D01*
X0497457Y0130677D01*
X0495528Y0131476D01*
X0487929Y0131476D01*
X0486000Y0130677D01*
X0484523Y0129201D01*
X0483724Y0127272D01*
X0483724Y0120696D01*
X0484523Y0118767D01*
X0485628Y0117662D01*
X0485628Y0115041D01*
X0485260Y0114151D01*
X0485260Y0108030D01*
X0485378Y0107744D01*
X0485260Y0107458D01*
X0485260Y0101337D01*
X0485332Y0101163D01*
X0437202Y0053033D01*
X0399455Y0053033D01*
X0405184Y0058762D01*
X0406900Y0060478D01*
X0407828Y0062720D01*
X0407828Y0100448D01*
X0408197Y0101337D01*
X0408197Y0107458D01*
X0408078Y0107744D01*
X0408197Y0108030D01*
X0408197Y0114151D01*
X0407828Y0115041D01*
X0407828Y0117662D01*
X0408933Y0118767D01*
X0409732Y0120696D01*
X0409732Y0127272D01*
X0408933Y0129201D01*
X0407457Y0130677D01*
X0405528Y0131476D01*
X0397929Y0131476D01*
X0396000Y0130677D01*
X0394523Y0129201D01*
X0393724Y0127272D01*
X0393724Y0120696D01*
X0394523Y0118767D01*
X0395628Y0117662D01*
X0395628Y0115041D01*
X0395260Y0114151D01*
X0395260Y0108030D01*
X0395378Y0107744D01*
X0395260Y0107458D01*
X0395260Y0101337D01*
X0395628Y0100448D01*
X0395628Y0066460D01*
X0388202Y0059033D01*
X0348255Y0059033D01*
X0335900Y0071388D01*
X0334184Y0073104D01*
X0331942Y0074033D01*
X0301083Y0074033D01*
X0300842Y0074133D01*
X0300608Y0074133D01*
X0300608Y0075122D01*
X0299621Y0077503D01*
X0297799Y0079326D01*
X0295417Y0080313D01*
X0292839Y0080313D01*
X0291952Y0079945D01*
X0272406Y0080051D01*
X0272406Y0082541D01*
X0271405Y0084959D01*
X0269554Y0086810D01*
X0267137Y0087811D01*
X0264520Y0087811D01*
X0263607Y0087433D01*
X0246208Y0087433D01*
X0246208Y0089222D01*
X0245937Y0089875D01*
X0248272Y0088908D01*
X0251584Y0088908D01*
X0254644Y0090175D01*
X0256986Y0092517D01*
X0258253Y0095577D01*
X0258253Y0098889D01*
X0256986Y0101949D01*
X0254644Y0104291D01*
X0251584Y0105558D01*
X0248272Y0105558D01*
X0245213Y0104291D01*
X0244255Y0103333D01*
X0236062Y0103333D01*
X0236108Y0103444D01*
X0236108Y0106022D01*
X0235846Y0106654D01*
X0238017Y0106654D01*
X0238933Y0107033D01*
X0257002Y0107033D01*
X0279073Y0084962D01*
X0281315Y0084033D01*
X0298002Y0084033D01*
X0298073Y0083962D01*
X0300315Y0083033D01*
X0302742Y0083033D01*
X0304984Y0083962D01*
X0305984Y0084962D01*
X0307700Y0086678D01*
X0315184Y0094162D01*
X0316900Y0095878D01*
X0317828Y0098120D01*
X0317828Y0100448D01*
X0318197Y0101337D01*
X0318197Y0107458D01*
X0318078Y0107744D01*
X0318197Y0108030D01*
X0318197Y0114151D01*
X0317828Y0115041D01*
X0317828Y0117662D01*
X0318933Y0118767D01*
X0319732Y0120696D01*
X0319732Y0127272D01*
X0318933Y0129201D01*
X0317457Y0130677D01*
X0315528Y0131476D01*
X0307929Y0131476D01*
X0306000Y0130677D01*
X0304523Y0129201D01*
X0303724Y0127272D01*
X0303724Y0120696D01*
X0304523Y0118767D01*
X0305628Y0117662D01*
X0305628Y0115041D01*
X0305260Y0114151D01*
X0305260Y0108030D01*
X0305378Y0107744D01*
X0305260Y0107458D01*
X0305260Y0101491D01*
X0300002Y0096233D01*
X0297438Y0096233D01*
X0297438Y0098727D01*
X0296528Y0100924D01*
X0296528Y0145606D01*
X0305866Y0154944D01*
X0306000Y0154811D01*
X0307929Y0154012D01*
X0315528Y0154012D01*
X0316728Y0154509D01*
X0317929Y0154012D01*
X0325528Y0154012D01*
X0327457Y0154811D01*
X0327608Y0154962D01*
X0327821Y0154874D01*
X0333942Y0154874D01*
X0334228Y0154992D01*
X0334514Y0154874D01*
X0340635Y0154874D01*
X0341525Y0155243D01*
X0343133Y0155243D01*
X0344022Y0154874D01*
X0350143Y0154874D01*
X0351797Y0155559D01*
X0353063Y0156825D01*
X0353748Y0158479D01*
X0353748Y0164206D01*
X0353063Y0165860D01*
X0351797Y0167126D01*
X0350143Y0167811D01*
X0344022Y0167811D01*
X0343786Y0167713D01*
X0343793Y0170464D01*
X0343827Y0170464D01*
X0345481Y0171149D01*
X0346747Y0172415D01*
X0347432Y0174069D01*
X0347432Y0175995D01*
X0347828Y0176951D01*
X0347828Y0176996D01*
X0347845Y0177037D01*
X0347828Y0178207D01*
X0347828Y0191520D01*
X0347917Y0191609D01*
X0349028Y0194292D01*
X0349028Y0197196D01*
X0347917Y0199879D01*
X0345863Y0201933D01*
X0343180Y0203044D01*
X0340276Y0203044D01*
X0337593Y0201933D01*
X0335540Y0199879D01*
X0334428Y0197196D01*
X0334428Y0194292D01*
X0335540Y0191609D01*
X0335628Y0191520D01*
X0335628Y0184179D01*
X0334038Y0184157D01*
X0333742Y0184453D01*
X0332088Y0185138D01*
X0325298Y0185138D01*
X0323644Y0184453D01*
X0322378Y0183187D01*
X0321693Y0181533D01*
X0321693Y0173955D01*
X0322378Y0172301D01*
X0323644Y0171035D01*
X0325298Y0170350D01*
X0331593Y0170350D01*
X0331586Y0167811D01*
X0327843Y0167811D01*
X0327457Y0168197D01*
X0325528Y0168996D01*
X0317929Y0168996D01*
X0317828Y0168955D01*
X0317828Y0172051D01*
X0318079Y0172301D01*
X0318764Y0173955D01*
X0318764Y0181533D01*
X0318079Y0183187D01*
X0317864Y0183402D01*
X0317864Y0191556D01*
X0317917Y0191609D01*
X0319028Y0194292D01*
X0319028Y0197196D01*
X0317917Y0199879D01*
X0315863Y0201933D01*
X0313180Y0203044D01*
X0310276Y0203044D01*
X0307593Y0201933D01*
X0307469Y0201809D01*
X0273291Y0201809D01*
X0272890Y0201643D01*
X0272034Y0201643D01*
X0269458Y0200576D01*
X0267486Y0198604D01*
X0266419Y0196027D01*
X0266419Y0193239D01*
X0267486Y0190662D01*
X0269458Y0188690D01*
X0272034Y0187623D01*
X0274823Y0187623D01*
X0277399Y0188690D01*
X0278317Y0189609D01*
X0305664Y0189609D01*
X0305664Y0183402D01*
X0305449Y0183187D01*
X0304764Y0181533D01*
X0304764Y0173955D01*
X0305449Y0172301D01*
X0305628Y0172122D01*
X0305628Y0167933D01*
X0302915Y0167933D01*
X0300673Y0167004D01*
X0298957Y0165288D01*
X0286973Y0153304D01*
X0285257Y0151588D01*
X0284328Y0149346D01*
X0284328Y0100924D01*
X0283419Y0098727D01*
X0283419Y0097870D01*
X0262984Y0118304D01*
X0260742Y0119233D01*
X0238933Y0119233D01*
X0238017Y0119613D01*
X0235439Y0119613D01*
X0233058Y0118626D01*
X0231235Y0116803D01*
X0230249Y0114422D01*
X0230249Y0111844D01*
X0230510Y0111213D01*
X0228339Y0111213D01*
X0227423Y0110833D01*
X0219515Y0110833D01*
X0217273Y0109904D01*
X0216173Y0108805D01*
X0215828Y0109638D01*
X0215828Y0113348D01*
X0216197Y0114237D01*
X0216197Y0117209D01*
X0217929Y0116492D01*
X0225528Y0116492D01*
X0227457Y0117291D01*
X0228933Y0118767D01*
X0229732Y0120696D01*
X0229732Y0127272D01*
X0228933Y0129201D01*
X0227457Y0130677D01*
X0225528Y0131476D01*
X0217929Y0131476D01*
X0216000Y0130677D01*
X0215410Y0130088D01*
X0213962Y0130088D01*
X0212592Y0130656D01*
X0206865Y0130656D01*
X0205211Y0129971D01*
X0203945Y0128705D01*
X0203260Y0127051D01*
X0203260Y0120930D01*
X0203378Y0120644D01*
X0203260Y0120358D01*
X0203260Y0114237D01*
X0203628Y0113348D01*
X0203628Y0109638D01*
X0203313Y0108876D01*
X0202501Y0109693D01*
X0202491Y0109697D01*
X0202484Y0109704D01*
X0201373Y0110165D01*
X0200262Y0110629D01*
X0200251Y0110629D01*
X0200242Y0110633D01*
X0199040Y0110633D01*
X0139298Y0110829D01*
X0139272Y0110840D01*
X0138197Y0110834D01*
X0138197Y0114451D01*
X0137828Y0115341D01*
X0137828Y0117662D01*
X0138933Y0118767D01*
X0139732Y0120696D01*
X0139732Y0127272D01*
X0138933Y0129201D01*
X0137457Y0130677D01*
X0135528Y0131476D01*
X0127929Y0131476D01*
X0126000Y0130677D01*
X0124523Y0129201D01*
X0123724Y0127272D01*
X0123724Y0120696D01*
X0124523Y0118767D01*
X0125628Y0117662D01*
X0125628Y0115341D01*
X0125260Y0114451D01*
X0125260Y0108330D01*
X0125378Y0108044D01*
X0125339Y0107949D01*
X0091681Y0141607D01*
X0090771Y0143804D01*
X0088799Y0145776D01*
X0086223Y0146843D01*
X0083434Y0146843D01*
X0080858Y0145776D01*
X0078886Y0143804D01*
X0077819Y0141227D01*
X0077819Y0138439D01*
X0078886Y0135862D01*
X0080858Y0133890D01*
X0083054Y0132981D01*
X0122002Y0094033D01*
X0100825Y0094033D01*
X0102380Y0095588D01*
X0103628Y0098602D01*
X0103628Y0101864D01*
X0102380Y0104878D01*
X0100073Y0107185D01*
X0097059Y0108433D01*
X0093797Y0108433D01*
X0090783Y0107185D01*
X0089032Y0105433D01*
X0081828Y0105433D01*
X0081828Y0123525D01*
X0082614Y0125423D01*
X0082614Y0127844D01*
X0081688Y0130080D01*
X0079976Y0131792D01*
X0077739Y0132719D01*
X0075318Y0132719D01*
X0073081Y0131792D01*
X0071369Y0130080D01*
X0070443Y0127844D01*
X0070443Y0127719D01*
X0068818Y0127719D01*
X0066581Y0126792D01*
X0064869Y0125080D01*
X0063943Y0122844D01*
X0063943Y0120423D01*
X0064728Y0118525D01*
X0064728Y0096341D01*
X0063943Y0094444D01*
X0063943Y0094033D01*
X0060620Y0094033D01*
X0048097Y0106556D01*
X0048097Y0107458D01*
X0047978Y0107744D01*
X0048097Y0108030D01*
X0048097Y0114151D01*
X0047728Y0115041D01*
X0047728Y0117562D01*
X0048933Y0118767D01*
X0049732Y0120696D01*
X0049732Y0127272D01*
X0048933Y0129201D01*
X0047457Y0130677D01*
X0045528Y0131476D01*
X0037929Y0131476D01*
X0036000Y0130677D01*
X0034523Y0129201D01*
X0033724Y0127272D01*
X0033724Y0120696D01*
X0034523Y0118767D01*
X0035528Y0117762D01*
X0035528Y0115041D01*
X0035160Y0114151D01*
X0035160Y0108030D01*
X0035278Y0107744D01*
X0035160Y0107458D01*
X0035160Y0101337D01*
X0035845Y0099683D01*
X0037111Y0098417D01*
X0038765Y0097732D01*
X0039667Y0097732D01*
X0052922Y0084478D01*
X0054638Y0082762D01*
X0056880Y0081833D01*
X0093249Y0081833D01*
X0093249Y0080044D01*
X0094235Y0077663D01*
X0096058Y0075840D01*
X0098439Y0074854D01*
X0101017Y0074854D01*
X0101933Y0075233D01*
X0103249Y0075233D01*
X0103249Y0073444D01*
X0104235Y0071063D01*
X0106058Y0069240D01*
X0108439Y0068254D01*
X0111017Y0068254D01*
X0112144Y0068720D01*
X0183249Y0068335D01*
X0183249Y0066744D01*
X0183870Y0065246D01*
X0182050Y0065285D01*
X0181017Y0065713D01*
X0178439Y0065713D01*
X0176058Y0064726D01*
X0174235Y0062903D01*
X0173249Y0060522D01*
X0173249Y0057944D01*
X0174235Y0055563D01*
X0174998Y0054800D01*
X0174728Y0054530D01*
X0173125Y0056133D01*
X0166332Y0056133D01*
X0164728Y0054530D01*
X0163125Y0056133D01*
X0156332Y0056133D01*
X0154728Y0054530D01*
X0153125Y0056133D01*
X0146332Y0056133D01*
X0144728Y0054530D01*
X0143125Y0056133D01*
X0136332Y0056133D01*
X0131528Y0051330D01*
X0131528Y0046133D01*
X0127928Y0046133D01*
X0127928Y0051330D01*
X0123125Y0056133D01*
X0116332Y0056133D01*
X0114728Y0054530D01*
X0113125Y0056133D01*
X0106332Y0056133D01*
X0104728Y0054530D01*
X0103125Y0056133D01*
X0096332Y0056133D01*
X0094728Y0054530D01*
X0093125Y0056133D01*
X0086332Y0056133D01*
X0084728Y0054530D01*
X0083125Y0056133D01*
X0076332Y0056133D01*
X0074728Y0054530D01*
X0073125Y0056133D01*
X0066332Y0056133D01*
X0061528Y0051330D01*
X0061528Y0046133D01*
X0056332Y0046133D01*
X0055224Y0045025D01*
X0054821Y0047568D01*
X0054821Y0047568D01*
X0052690Y0051750D01*
X0049372Y0055068D01*
X0045190Y0057199D01*
X0040555Y0057933D01*
X0035920Y0057199D01*
X0035920Y0057199D01*
X0031738Y0055068D01*
X0028420Y0051750D01*
X0028420Y0051750D01*
X0026978Y0048921D01*
X0026978Y0343933D01*
X0049797Y0343933D01*
X0048832Y0342968D01*
X0047386Y0339476D01*
X0047386Y0335697D01*
X0048832Y0332205D01*
X0051505Y0329533D01*
X0054996Y0328087D01*
X0058775Y0328087D01*
X0062267Y0329533D01*
X0064940Y0332205D01*
X0066386Y0335697D01*
X0066386Y0339476D01*
X0064940Y0342968D01*
X0063974Y0343933D01*
X0069482Y0343933D01*
X0068517Y0342968D01*
X0067071Y0339476D01*
X0067071Y0335697D01*
X0068517Y0332205D01*
X0071190Y0329533D01*
X0074681Y0328087D01*
X0078461Y0328087D01*
X0081952Y0329533D01*
X0084625Y0332205D01*
X0086071Y0335697D01*
X0086071Y0339476D01*
X0084625Y0342968D01*
X0083659Y0343933D01*
X0139797Y0343933D01*
X0138832Y0342968D01*
X0137386Y0339476D01*
X0137386Y0335697D01*
X0138832Y0332205D01*
X0141505Y0329533D01*
X0144996Y0328087D01*
X0148775Y0328087D01*
X0152267Y0329533D01*
X0154940Y0332205D01*
X0156386Y0335697D01*
X0156386Y0339476D01*
X0154940Y0342968D01*
X0153974Y0343933D01*
X0159482Y0343933D01*
X0158517Y0342968D01*
X0157071Y0339476D01*
X0157071Y0335697D01*
X0158517Y0332205D01*
X0161190Y0329533D01*
X0164681Y0328087D01*
X0168461Y0328087D01*
X0171952Y0329533D01*
X0174625Y0332205D01*
X0176071Y0335697D01*
X0176071Y0339476D01*
X0174625Y0342968D01*
X0173659Y0343933D01*
X0229797Y0343933D01*
X0228832Y0342968D01*
X0227386Y0339476D01*
X0227386Y0335697D01*
X0228832Y0332205D01*
X0231505Y0329533D01*
X0234996Y0328087D01*
X0238775Y0328087D01*
X0242267Y0329533D01*
X0244940Y0332205D01*
X0246386Y0335697D01*
X0246386Y0339476D01*
X0244940Y0342968D01*
X0243974Y0343933D01*
X0249482Y0343933D01*
X0248517Y0342968D01*
X0247071Y0339476D01*
X0247071Y0335697D01*
X0248517Y0332205D01*
X0251190Y0329533D01*
X0254681Y0328087D01*
X0258461Y0328087D01*
X0261952Y0329533D01*
X0264625Y0332205D01*
X0266071Y0335697D01*
X0266071Y0339476D01*
X0264625Y0342968D01*
X0263659Y0343933D01*
X0319797Y0343933D01*
X0318832Y0342968D01*
X0317386Y0339476D01*
X0317386Y0335697D01*
X0318832Y0332205D01*
X0321505Y0329533D01*
X0324996Y0328087D01*
X0328775Y0328087D01*
X0332267Y0329533D01*
X0334940Y0332205D01*
X0336386Y0335697D01*
X0336386Y0339476D01*
X0334940Y0342968D01*
X0333974Y0343933D01*
X0339482Y0343933D01*
X0338517Y0342968D01*
X0337071Y0339476D01*
X0337071Y0335697D01*
X0338517Y0332205D01*
X0341190Y0329533D01*
X0344681Y0328087D01*
X0348461Y0328087D01*
X0351952Y0329533D01*
X0354625Y0332205D01*
X0356071Y0335697D01*
X0356071Y0339476D01*
X0354625Y0342968D01*
X0353659Y0343933D01*
X0409797Y0343933D01*
X0408832Y0342968D01*
X0407386Y0339476D01*
X0407386Y0335697D01*
X0408832Y0332205D01*
X0411505Y0329533D01*
X0414996Y0328087D01*
X0418775Y0328087D01*
X0422267Y0329533D01*
X0424940Y0332205D01*
X0426386Y0335697D01*
X0426386Y0339476D01*
X0424940Y0342968D01*
X0423974Y0343933D01*
X0429482Y0343933D01*
X0428517Y0342968D01*
X0427071Y0339476D01*
X0427071Y0335697D01*
X0428517Y0332205D01*
X0431190Y0329533D01*
X0434681Y0328087D01*
X0438461Y0328087D01*
X0441952Y0329533D01*
X0444625Y0332205D01*
X0446071Y0335697D01*
X0446071Y0339476D01*
X0444625Y0342968D01*
X0443659Y0343933D01*
X0499797Y0343933D01*
X0498832Y0342968D01*
X0497386Y0339476D01*
X0497386Y0335697D01*
X0498832Y0332205D01*
X0501505Y0329533D01*
X0504996Y0328087D01*
X0508775Y0328087D01*
X0512267Y0329533D01*
X0514940Y0332205D01*
X0516386Y0335697D01*
X0516386Y0339476D01*
X0514940Y0342968D01*
X0513974Y0343933D01*
X0519482Y0343933D01*
X0518517Y0342968D01*
X0517071Y0339476D01*
X0517071Y0335697D01*
X0518517Y0332205D01*
X0521190Y0329533D01*
X0524681Y0328087D01*
X0528461Y0328087D01*
X0531952Y0329533D01*
X0534625Y0332205D01*
X0536071Y0335697D01*
X0536071Y0339476D01*
X0534625Y0342968D01*
X0533659Y0343933D01*
X0589797Y0343933D01*
X0588832Y0342968D01*
X0587386Y0339476D01*
X0587386Y0335697D01*
X0588832Y0332205D01*
X0591505Y0329533D01*
X0594996Y0328087D01*
X0598775Y0328087D01*
X0602267Y0329533D01*
X0604940Y0332205D01*
X0606386Y0335697D01*
X0606386Y0339476D01*
X0604940Y0342968D01*
X0603974Y0343933D01*
X0609482Y0343933D01*
X0608517Y0342968D01*
X0607071Y0339476D01*
X0607071Y0335697D01*
X0608517Y0332205D01*
X0611190Y0329533D01*
X0614681Y0328087D01*
X0618461Y0328087D01*
X0621952Y0329533D01*
X0624625Y0332205D01*
X0626071Y0335697D01*
X0626071Y0339476D01*
X0624625Y0342968D01*
X0623659Y0343933D01*
X0679797Y0343933D01*
X0678832Y0342968D01*
X0677386Y0339476D01*
X0677386Y0335697D01*
X0678832Y0332205D01*
X0681505Y0329533D01*
X0684996Y0328087D01*
X0688775Y0328087D01*
X0692267Y0329533D01*
X0694940Y0332205D01*
X0696386Y0335697D01*
X0696386Y0339476D01*
X0694940Y0342968D01*
X0693974Y0343933D01*
X0699482Y0343933D01*
X0698517Y0342968D01*
X0697071Y0339476D01*
X0697071Y0335697D01*
X0698517Y0332205D01*
X0701190Y0329533D01*
X0704681Y0328087D01*
X0708461Y0328087D01*
X0711952Y0329533D01*
X0714625Y0332205D01*
X0716071Y0335697D01*
X0716071Y0339476D01*
X0714625Y0342968D01*
X0713659Y0343933D01*
X0752699Y0343933D01*
X0752699Y0298041D01*
X0751018Y0299722D01*
X0751018Y0299722D01*
X0746836Y0301852D01*
X0742201Y0302587D01*
X0737566Y0301852D01*
X0737566Y0301852D01*
X0733787Y0299927D01*
X0733787Y0300106D01*
X0732341Y0303598D01*
X0729669Y0306270D01*
X0726177Y0307717D01*
X0724844Y0307717D01*
X0715163Y0317398D01*
X0713194Y0319367D01*
X0710621Y0320433D01*
X0647836Y0320433D01*
X0645263Y0319367D01*
X0634228Y0308333D01*
X0625163Y0317398D01*
X0623194Y0319367D01*
X0620621Y0320433D01*
X0557836Y0320433D01*
X0555263Y0319367D01*
X0553294Y0317398D01*
X0544228Y0308333D01*
X0535163Y0317398D01*
X0533194Y0319367D01*
X0530621Y0320433D01*
X0467836Y0320433D01*
X0465263Y0319367D01*
X0463294Y0317398D01*
X0454228Y0308333D01*
X0445163Y0317398D01*
X0443194Y0319367D01*
X0440621Y0320433D01*
X0377836Y0320433D01*
X0375263Y0319367D01*
X0373294Y0317398D01*
X0364228Y0308333D01*
X0355163Y0317398D01*
X0353194Y0319367D01*
X0350621Y0320433D01*
X0287836Y0320433D01*
X0285263Y0319367D01*
X0283294Y0317398D01*
X0274228Y0308333D01*
X0265163Y0317398D01*
X0263194Y0319367D01*
X0260621Y0320433D01*
X0197836Y0320433D01*
X0195263Y0319367D01*
X0193294Y0317398D01*
X0184228Y0308333D01*
X0173194Y0319367D01*
X0170621Y0320433D01*
X0107836Y0320433D01*
X0105263Y0319367D01*
X0093612Y0307717D01*
X0092398Y0307717D01*
X0088906Y0306270D01*
X0086234Y0303598D01*
X0084787Y0300106D01*
X0084787Y0297874D01*
X0084524Y0297874D01*
X0081032Y0296428D01*
X0078360Y0293755D01*
X0076913Y0290264D01*
X0076913Y0286594D01*
X0067042Y0271381D01*
X0065540Y0269879D01*
X0064428Y0267196D01*
X0064428Y0264292D01*
X0065540Y0261609D01*
X0067593Y0259555D01*
X0070276Y0258444D01*
X0073180Y0258444D01*
X0075863Y0259555D01*
X0077917Y0261609D01*
X0078848Y0263856D01*
X0088700Y0279038D01*
X0091795Y0280320D01*
X0091887Y0280412D01*
X0092108Y0279014D01*
X0094239Y0274833D01*
X0094239Y0274833D01*
X0097557Y0271514D01*
X0097557Y0271514D01*
X0101739Y0269384D01*
X0106374Y0268650D01*
X0111009Y0269384D01*
X0111009Y0269384D01*
X0115191Y0271514D01*
X0118509Y0274833D01*
X0120640Y0279014D01*
X0120640Y0279014D01*
X0121374Y0283650D01*
X0120640Y0288285D01*
X0118509Y0292466D01*
X0118509Y0292466D01*
X0115191Y0295785D01*
X0115191Y0295785D01*
X0111009Y0297915D01*
X0106374Y0298650D01*
X0103962Y0298268D01*
X0112128Y0306433D01*
X0124181Y0306433D01*
X0123788Y0306270D01*
X0121116Y0303598D01*
X0119669Y0300106D01*
X0119669Y0296327D01*
X0121116Y0292835D01*
X0123788Y0290163D01*
X0127280Y0288717D01*
X0131059Y0288717D01*
X0134551Y0290163D01*
X0137223Y0292835D01*
X0138669Y0296327D01*
X0138669Y0300106D01*
X0137223Y0303598D01*
X0134551Y0306270D01*
X0134157Y0306433D01*
X0151740Y0306433D01*
X0151347Y0306270D01*
X0148675Y0303598D01*
X0147228Y0300106D01*
X0147228Y0296327D01*
X0148675Y0292835D01*
X0151347Y0290163D01*
X0154839Y0288717D01*
X0158618Y0288717D01*
X0162110Y0290163D01*
X0164782Y0292835D01*
X0166228Y0296327D01*
X0166228Y0300106D01*
X0164782Y0303598D01*
X0162110Y0306270D01*
X0161717Y0306433D01*
X0166329Y0306433D01*
X0174787Y0297975D01*
X0174787Y0297874D01*
X0174524Y0297874D01*
X0171032Y0296428D01*
X0168360Y0293755D01*
X0166913Y0290264D01*
X0166913Y0286594D01*
X0157042Y0271381D01*
X0155540Y0269879D01*
X0154428Y0267196D01*
X0154428Y0264292D01*
X0155540Y0261609D01*
X0157593Y0259555D01*
X0160276Y0258444D01*
X0163180Y0258444D01*
X0165863Y0259555D01*
X0167917Y0261609D01*
X0168848Y0263856D01*
X0178700Y0279038D01*
X0181795Y0280320D01*
X0184467Y0282993D01*
X0185913Y0286484D01*
X0185913Y0288717D01*
X0186177Y0288717D01*
X0189669Y0290163D01*
X0192341Y0292835D01*
X0193787Y0296327D01*
X0193787Y0298093D01*
X0202128Y0306433D01*
X0214181Y0306433D01*
X0213788Y0306270D01*
X0211116Y0303598D01*
X0209669Y0300106D01*
X0209669Y0296327D01*
X0211116Y0292835D01*
X0213788Y0290163D01*
X0217280Y0288717D01*
X0221059Y0288717D01*
X0224551Y0290163D01*
X0227223Y0292835D01*
X0228669Y0296327D01*
X0228669Y0300106D01*
X0227223Y0303598D01*
X0224551Y0306270D01*
X0224157Y0306433D01*
X0241740Y0306433D01*
X0241347Y0306270D01*
X0238675Y0303598D01*
X0237228Y0300106D01*
X0237228Y0296327D01*
X0238675Y0292835D01*
X0241347Y0290163D01*
X0244839Y0288717D01*
X0248618Y0288717D01*
X0252110Y0290163D01*
X0254782Y0292835D01*
X0256228Y0296327D01*
X0256228Y0300106D01*
X0254782Y0303598D01*
X0252110Y0306270D01*
X0251717Y0306433D01*
X0256329Y0306433D01*
X0264787Y0297975D01*
X0264787Y0297874D01*
X0264524Y0297874D01*
X0261032Y0296428D01*
X0258360Y0293755D01*
X0256913Y0290264D01*
X0256913Y0286594D01*
X0247042Y0271381D01*
X0245540Y0269879D01*
X0244428Y0267196D01*
X0244428Y0264292D01*
X0245540Y0261609D01*
X0247593Y0259555D01*
X0250276Y0258444D01*
X0253180Y0258444D01*
X0255863Y0259555D01*
X0257917Y0261609D01*
X0258848Y0263856D01*
X0268700Y0279038D01*
X0271795Y0280320D01*
X0274467Y0282993D01*
X0275913Y0286484D01*
X0275913Y0288717D01*
X0276177Y0288717D01*
X0279669Y0290163D01*
X0282341Y0292835D01*
X0283787Y0296327D01*
X0283787Y0298093D01*
X0292128Y0306433D01*
X0304181Y0306433D01*
X0303788Y0306270D01*
X0301116Y0303598D01*
X0299669Y0300106D01*
X0299669Y0296327D01*
X0301116Y0292835D01*
X0303788Y0290163D01*
X0307280Y0288717D01*
X0311059Y0288717D01*
X0314551Y0290163D01*
X0317223Y0292835D01*
X0318669Y0296327D01*
X0318669Y0300106D01*
X0317223Y0303598D01*
X0314551Y0306270D01*
X0314157Y0306433D01*
X0331740Y0306433D01*
X0331347Y0306270D01*
X0328675Y0303598D01*
X0327228Y0300106D01*
X0327228Y0296327D01*
X0328675Y0292835D01*
X0331347Y0290163D01*
X0334839Y0288717D01*
X0338618Y0288717D01*
X0342110Y0290163D01*
X0344782Y0292835D01*
X0346228Y0296327D01*
X0346228Y0300106D01*
X0344782Y0303598D01*
X0342110Y0306270D01*
X0341717Y0306433D01*
X0346329Y0306433D01*
X0354787Y0297975D01*
X0354787Y0297874D01*
X0354524Y0297874D01*
X0351032Y0296428D01*
X0348360Y0293755D01*
X0346913Y0290264D01*
X0346913Y0286594D01*
X0337042Y0271381D01*
X0335540Y0269879D01*
X0334428Y0267196D01*
X0334428Y0264292D01*
X0335540Y0261609D01*
X0337593Y0259555D01*
X0340276Y0258444D01*
X0343180Y0258444D01*
X0345863Y0259555D01*
X0347917Y0261609D01*
X0348848Y0263856D01*
X0358700Y0279038D01*
X0361795Y0280320D01*
X0364467Y0282993D01*
X0365913Y0286484D01*
X0365913Y0288717D01*
X0366177Y0288717D01*
X0369669Y0290163D01*
X0372341Y0292835D01*
X0373787Y0296327D01*
X0373787Y0298093D01*
X0382128Y0306433D01*
X0394181Y0306433D01*
X0393788Y0306270D01*
X0391116Y0303598D01*
X0389669Y0300106D01*
X0389669Y0296327D01*
X0391116Y0292835D01*
X0393788Y0290163D01*
X0397280Y0288717D01*
X0401059Y0288717D01*
X0404551Y0290163D01*
X0407223Y0292835D01*
X0408669Y0296327D01*
X0408669Y0300106D01*
X0407223Y0303598D01*
X0404551Y0306270D01*
X0404157Y0306433D01*
X0421740Y0306433D01*
X0421347Y0306270D01*
X0418675Y0303598D01*
X0417228Y0300106D01*
X0417228Y0296327D01*
X0418675Y0292835D01*
X0421347Y0290163D01*
X0424839Y0288717D01*
X0428618Y0288717D01*
X0432110Y0290163D01*
X0434782Y0292835D01*
X0436228Y0296327D01*
X0436228Y0300106D01*
X0434782Y0303598D01*
X0432110Y0306270D01*
X0431717Y0306433D01*
X0436329Y0306433D01*
X0444787Y0297975D01*
X0444787Y0297874D01*
X0444524Y0297874D01*
X0441032Y0296428D01*
X0438360Y0293755D01*
X0436913Y0290264D01*
X0436913Y0286594D01*
X0427042Y0271381D01*
X0425540Y0269879D01*
X0424428Y0267196D01*
X0424428Y0264292D01*
X0425540Y0261609D01*
X0427593Y0259555D01*
X0430276Y0258444D01*
X0433180Y0258444D01*
X0435863Y0259555D01*
X0437917Y0261609D01*
X0438848Y0263856D01*
X0448700Y0279038D01*
X0451795Y0280320D01*
X0454467Y0282993D01*
X0455913Y0286484D01*
X0455913Y0288717D01*
X0456177Y0288717D01*
X0459669Y0290163D01*
X0462341Y0292835D01*
X0463787Y0296327D01*
X0463787Y0298093D01*
X0472128Y0306433D01*
X0484181Y0306433D01*
X0483788Y0306270D01*
X0481116Y0303598D01*
X0479669Y0300106D01*
X0479669Y0296327D01*
X0481116Y0292835D01*
X0483788Y0290163D01*
X0487280Y0288717D01*
X0491059Y0288717D01*
X0494551Y0290163D01*
X0497223Y0292835D01*
X0498669Y0296327D01*
X0498669Y0300106D01*
X0497223Y0303598D01*
X0494551Y0306270D01*
X0494157Y0306433D01*
X0511740Y0306433D01*
X0511347Y0306270D01*
X0508675Y0303598D01*
X0507228Y0300106D01*
X0507228Y0296327D01*
X0508675Y0292835D01*
X0511347Y0290163D01*
X0514839Y0288717D01*
X0518618Y0288717D01*
X0522110Y0290163D01*
X0524782Y0292835D01*
X0526228Y0296327D01*
X0526228Y0300106D01*
X0524782Y0303598D01*
X0522110Y0306270D01*
X0521717Y0306433D01*
X0526329Y0306433D01*
X0534787Y0297975D01*
X0534787Y0297874D01*
X0534524Y0297874D01*
X0531032Y0296428D01*
X0528360Y0293755D01*
X0526913Y0290264D01*
X0526913Y0286594D01*
X0517042Y0271381D01*
X0515540Y0269879D01*
X0514428Y0267196D01*
X0514428Y0264292D01*
X0515540Y0261609D01*
X0517593Y0259555D01*
X0520276Y0258444D01*
X0523180Y0258444D01*
X0525863Y0259555D01*
X0527917Y0261609D01*
X0528848Y0263856D01*
X0538700Y0279038D01*
X0541795Y0280320D01*
X0544467Y0282993D01*
X0545913Y0286484D01*
X0545913Y0288717D01*
X0546177Y0288717D01*
X0549669Y0290163D01*
X0552341Y0292835D01*
X0553787Y0296327D01*
X0553787Y0298093D01*
X0562128Y0306433D01*
X0574181Y0306433D01*
X0573788Y0306270D01*
X0571116Y0303598D01*
X0569669Y0300106D01*
X0569669Y0296327D01*
X0571116Y0292835D01*
X0573788Y0290163D01*
X0577280Y0288717D01*
X0581059Y0288717D01*
X0584551Y0290163D01*
X0587223Y0292835D01*
X0588669Y0296327D01*
X0588669Y0300106D01*
X0587223Y0303598D01*
X0584551Y0306270D01*
X0584157Y0306433D01*
X0601740Y0306433D01*
X0601347Y0306270D01*
X0598675Y0303598D01*
X0597228Y0300106D01*
X0597228Y0296327D01*
X0598675Y0292835D01*
X0601347Y0290163D01*
X0604839Y0288717D01*
X0608618Y0288717D01*
X0612110Y0290163D01*
X0614782Y0292835D01*
X0616228Y0296327D01*
X0616228Y0300106D01*
X0614782Y0303598D01*
X0612110Y0306270D01*
X0611717Y0306433D01*
X0616329Y0306433D01*
X0624787Y0297975D01*
X0624787Y0297874D01*
X0624524Y0297874D01*
X0621032Y0296428D01*
X0618360Y0293755D01*
X0616913Y0290264D01*
X0616913Y0286594D01*
X0607042Y0271381D01*
X0605540Y0269879D01*
X0604428Y0267196D01*
X0604428Y0264292D01*
X0605540Y0261609D01*
X0607593Y0259555D01*
X0610276Y0258444D01*
X0613180Y0258444D01*
X0615863Y0259555D01*
X0617917Y0261609D01*
X0618848Y0263856D01*
X0628700Y0279038D01*
X0631795Y0280320D01*
X0634467Y0282993D01*
X0635913Y0286484D01*
X0635913Y0288717D01*
X0636177Y0288717D01*
X0639669Y0290163D01*
X0642341Y0292835D01*
X0643787Y0296327D01*
X0643787Y0298093D01*
X0652128Y0306433D01*
X0664181Y0306433D01*
X0663788Y0306270D01*
X0661116Y0303598D01*
X0659669Y0300106D01*
X0659669Y0296327D01*
X0661116Y0292835D01*
X0663788Y0290163D01*
X0667280Y0288717D01*
X0671059Y0288717D01*
X0674551Y0290163D01*
X0677223Y0292835D01*
X0678669Y0296327D01*
X0678669Y0300106D01*
X0677223Y0303598D01*
X0674551Y0306270D01*
X0674157Y0306433D01*
X0691740Y0306433D01*
X0691347Y0306270D01*
X0688675Y0303598D01*
X0687228Y0300106D01*
X0687228Y0296327D01*
X0688675Y0292835D01*
X0691347Y0290163D01*
X0694839Y0288717D01*
X0698618Y0288717D01*
X0702110Y0290163D01*
X0704782Y0292835D01*
X0706228Y0296327D01*
X0706228Y0300106D01*
X0704782Y0303598D01*
X0702110Y0306270D01*
X0701717Y0306433D01*
X0706329Y0306433D01*
X0714787Y0297975D01*
X0714787Y0297874D01*
X0714524Y0297874D01*
X0711032Y0296428D01*
X0708360Y0293755D01*
X0706913Y0290264D01*
X0706913Y0286594D01*
X0697042Y0271381D01*
X0695540Y0269879D01*
X0694428Y0267196D01*
X0694428Y0264292D01*
X0695540Y0261609D01*
X0697593Y0259555D01*
X0700276Y0258444D01*
X0703180Y0258444D01*
X0705863Y0259555D01*
X0707917Y0261609D01*
X0708848Y0263856D01*
X0718700Y0279038D01*
X0721795Y0280320D01*
X0724467Y0282993D01*
X0725913Y0286484D01*
X0725913Y0288717D01*
X0726177Y0288717D01*
X0727464Y0289250D01*
X0727201Y0287587D01*
X0727201Y0287587D01*
X0727935Y0282951D01*
X0730066Y0278770D01*
X0733384Y0275451D01*
X0737566Y0273321D01*
X0742201Y0272587D01*
X0742201Y0272587D01*
X0746836Y0273321D01*
X0751018Y0275451D01*
X0752699Y0277133D01*
X0752699Y0021183D01*
X0569063Y0021183D01*
X0569465Y0021585D01*
X0570150Y0023239D01*
X0570150Y0028572D01*
X0569574Y0029961D01*
X0570731Y0030440D01*
X0572279Y0031988D01*
X0574176Y0032774D01*
X0575888Y0034486D01*
X0576814Y0036723D01*
X0576814Y0039144D01*
X0575888Y0041380D01*
X0574176Y0043092D01*
X0571939Y0044019D01*
X0569518Y0044019D01*
X0567281Y0043092D01*
X0566064Y0041875D01*
X0566064Y0044633D01*
X0579833Y0044633D01*
X0582405Y0045699D01*
X0586340Y0049633D01*
X0593978Y0049633D01*
X0593978Y0048238D01*
X0594663Y0046584D01*
X0595929Y0045318D01*
X0597583Y0044633D01*
X0606873Y0044633D01*
X0608527Y0045318D01*
X0609793Y0046584D01*
X0610478Y0048238D01*
X0610478Y0049633D01*
X0638978Y0049633D01*
X0638978Y0048238D01*
X0639663Y0046584D01*
X0640929Y0045318D01*
X0642583Y0044633D01*
X0643601Y0044633D01*
X0655976Y0032258D01*
X0655976Y0031098D01*
X0657381Y0027708D01*
X0659976Y0025113D01*
X0663366Y0023709D01*
X0667036Y0023709D01*
X0670426Y0025113D01*
X0673021Y0027708D01*
X0674425Y0031098D01*
X0674425Y0032258D01*
X0699463Y0057295D01*
X0700528Y0059868D01*
X0700528Y0130725D01*
X0699463Y0133298D01*
X0697494Y0135267D01*
X0678749Y0154012D01*
X0685528Y0154012D01*
X0687457Y0154811D01*
X0687522Y0154876D01*
X0692442Y0154876D01*
X0692728Y0154994D01*
X0693014Y0154876D01*
X0699135Y0154876D01*
X0700253Y0155339D01*
X0702904Y0155339D01*
X0704021Y0154876D01*
X0710142Y0154876D01*
X0711796Y0155561D01*
X0713062Y0156827D01*
X0713747Y0158480D01*
X0713747Y0164208D01*
X0713062Y0165862D01*
X0711796Y0167128D01*
X0710142Y0167813D01*
X0704021Y0167813D01*
X0703786Y0167715D01*
X0703793Y0170464D01*
X0703827Y0170464D01*
X0705481Y0171149D01*
X0706747Y0172415D01*
X0707432Y0174069D01*
X0707432Y0175852D01*
X0707627Y0176193D01*
X0707677Y0176586D01*
X0707828Y0176951D01*
X0707828Y0177779D01*
X0707933Y0178600D01*
X0707828Y0178982D01*
X0707828Y0191520D01*
X0707917Y0191609D01*
X0709028Y0194292D01*
X0709028Y0197196D01*
X0707917Y0199879D01*
X0705863Y0201933D01*
X0703180Y0203044D01*
X0700276Y0203044D01*
X0697593Y0201933D01*
X0695540Y0199879D01*
X0694428Y0197196D01*
X0694428Y0194292D01*
X0695540Y0191609D01*
X0695628Y0191520D01*
X0695628Y0183844D01*
X0694351Y0183844D01*
X0693742Y0184453D01*
X0692088Y0185138D01*
X0685298Y0185138D01*
X0683644Y0184453D01*
X0682378Y0183187D01*
X0681693Y0181533D01*
X0681693Y0173955D01*
X0682378Y0172301D01*
X0683644Y0171035D01*
X0685298Y0170350D01*
X0691593Y0170350D01*
X0691586Y0167813D01*
X0687842Y0167813D01*
X0687457Y0168197D01*
X0685528Y0168996D01*
X0677929Y0168996D01*
X0677864Y0168969D01*
X0677864Y0172086D01*
X0678079Y0172301D01*
X0678764Y0173955D01*
X0678764Y0181533D01*
X0678079Y0183187D01*
X0677828Y0183437D01*
X0677828Y0191520D01*
X0677917Y0191609D01*
X0679028Y0194292D01*
X0679028Y0197196D01*
X0677917Y0199879D01*
X0679028Y0195879D02*
X0694428Y0195879D01*
X0695628Y0190881D02*
X0677828Y0190881D01*
X0677828Y0185882D02*
X0695628Y0185882D01*
X0707828Y0185882D02*
X0717294Y0185882D01*
X0717328Y0185799D02*
X0717328Y0117001D01*
X0715841Y0115513D01*
X0714317Y0111833D01*
X0714317Y0107850D01*
X0715841Y0104170D01*
X0717328Y0102683D01*
X0717328Y0102591D01*
X0715841Y0101104D01*
X0714317Y0097424D01*
X0714317Y0093441D01*
X0715841Y0089761D01*
X0718657Y0086945D01*
X0719409Y0086633D01*
X0718657Y0086321D01*
X0715841Y0083505D01*
X0714317Y0079825D01*
X0714317Y0075842D01*
X0715841Y0072163D01*
X0717328Y0070675D01*
X0717328Y0070583D01*
X0715841Y0069096D01*
X0714317Y0065416D01*
X0714317Y0061433D01*
X0715841Y0057753D01*
X0717256Y0056338D01*
X0717256Y0038978D01*
X0716436Y0038158D01*
X0715031Y0034768D01*
X0715031Y0031098D01*
X0716436Y0027708D01*
X0719031Y0025113D01*
X0722421Y0023709D01*
X0726091Y0023709D01*
X0729481Y0025113D01*
X0732076Y0027708D01*
X0733480Y0031098D01*
X0733480Y0034768D01*
X0732076Y0038158D01*
X0731256Y0038978D01*
X0731256Y0056193D01*
X0732816Y0057753D01*
X0734340Y0061433D01*
X0734340Y0065416D01*
X0732816Y0069096D01*
X0731328Y0070583D01*
X0731328Y0070675D01*
X0732816Y0072163D01*
X0734340Y0075842D01*
X0734340Y0079825D01*
X0732816Y0083505D01*
X0730000Y0086321D01*
X0729247Y0086633D01*
X0730000Y0086945D01*
X0732816Y0089761D01*
X0734340Y0093441D01*
X0734340Y0097424D01*
X0732816Y0101104D01*
X0731328Y0102591D01*
X0731328Y0102683D01*
X0732816Y0104170D01*
X0734340Y0107850D01*
X0734340Y0111833D01*
X0732816Y0115513D01*
X0731328Y0117001D01*
X0731328Y0184634D01*
X0743494Y0196799D01*
X0745463Y0198768D01*
X0746528Y0201341D01*
X0746528Y0227636D01*
X0745463Y0230208D01*
X0743494Y0232178D01*
X0743494Y0232178D01*
X0731740Y0243931D01*
X0731740Y0246035D01*
X0730216Y0249715D01*
X0728728Y0251202D01*
X0728728Y0251294D01*
X0730216Y0252782D01*
X0731740Y0256461D01*
X0731740Y0260444D01*
X0730216Y0264124D01*
X0727400Y0266940D01*
X0723720Y0268465D01*
X0719737Y0268465D01*
X0716057Y0266940D01*
X0713241Y0264124D01*
X0711717Y0260444D01*
X0711717Y0256461D01*
X0713241Y0252782D01*
X0714728Y0251294D01*
X0714728Y0251202D01*
X0714570Y0251043D01*
X0677351Y0251043D01*
X0677917Y0251609D01*
X0679028Y0254292D01*
X0679028Y0257196D01*
X0677917Y0259879D01*
X0675863Y0261933D01*
X0673180Y0263044D01*
X0670276Y0263044D01*
X0667593Y0261933D01*
X0665540Y0259879D01*
X0664428Y0257196D01*
X0664428Y0254292D01*
X0665540Y0251609D01*
X0666105Y0251043D01*
X0638887Y0251043D01*
X0638728Y0251202D01*
X0638728Y0251294D01*
X0640216Y0252782D01*
X0641740Y0256461D01*
X0641740Y0260444D01*
X0640216Y0264124D01*
X0637400Y0266940D01*
X0633720Y0268465D01*
X0629737Y0268465D01*
X0626057Y0266940D01*
X0623241Y0264124D01*
X0621717Y0260444D01*
X0621717Y0256461D01*
X0623241Y0252782D01*
X0624728Y0251294D01*
X0624728Y0251202D01*
X0624570Y0251043D01*
X0587351Y0251043D01*
X0587917Y0251609D01*
X0589028Y0254292D01*
X0589028Y0257196D01*
X0587917Y0259879D01*
X0585863Y0261933D01*
X0583180Y0263044D01*
X0580276Y0263044D01*
X0577593Y0261933D01*
X0575540Y0259879D01*
X0574428Y0257196D01*
X0574428Y0254292D01*
X0575540Y0251609D01*
X0576105Y0251043D01*
X0548887Y0251043D01*
X0548728Y0251202D01*
X0548728Y0251294D01*
X0550216Y0252782D01*
X0551740Y0256461D01*
X0551740Y0260444D01*
X0550216Y0264124D01*
X0547400Y0266940D01*
X0543720Y0268465D01*
X0539737Y0268465D01*
X0536057Y0266940D01*
X0533241Y0264124D01*
X0531717Y0260444D01*
X0531717Y0256461D01*
X0533241Y0252782D01*
X0534728Y0251294D01*
X0534728Y0251202D01*
X0534570Y0251043D01*
X0497351Y0251043D01*
X0497917Y0251609D01*
X0499028Y0254292D01*
X0499028Y0257196D01*
X0497917Y0259879D01*
X0495863Y0261933D01*
X0493180Y0263044D01*
X0490276Y0263044D01*
X0487593Y0261933D01*
X0485540Y0259879D01*
X0484428Y0257196D01*
X0484428Y0254292D01*
X0485540Y0251609D01*
X0486105Y0251043D01*
X0458887Y0251043D01*
X0458728Y0251202D01*
X0458728Y0251294D01*
X0460216Y0252782D01*
X0461740Y0256461D01*
X0461740Y0260444D01*
X0460216Y0264124D01*
X0457400Y0266940D01*
X0453720Y0268465D01*
X0449737Y0268465D01*
X0446057Y0266940D01*
X0443241Y0264124D01*
X0441717Y0260444D01*
X0441717Y0256461D01*
X0443241Y0252782D01*
X0444728Y0251294D01*
X0444728Y0251202D01*
X0444570Y0251043D01*
X0407351Y0251043D01*
X0407917Y0251609D01*
X0409028Y0254292D01*
X0409028Y0257196D01*
X0407917Y0259879D01*
X0405863Y0261933D01*
X0403180Y0263044D01*
X0400276Y0263044D01*
X0397593Y0261933D01*
X0395540Y0259879D01*
X0394428Y0257196D01*
X0394428Y0254292D01*
X0395540Y0251609D01*
X0396105Y0251043D01*
X0368887Y0251043D01*
X0368728Y0251202D01*
X0368728Y0251294D01*
X0370216Y0252782D01*
X0371740Y0256461D01*
X0371740Y0260444D01*
X0370216Y0264124D01*
X0367400Y0266940D01*
X0363720Y0268465D01*
X0359737Y0268465D01*
X0356057Y0266940D01*
X0353241Y0264124D01*
X0351717Y0260444D01*
X0351717Y0256461D01*
X0353241Y0252782D01*
X0354728Y0251294D01*
X0354728Y0251202D01*
X0354570Y0251043D01*
X0317351Y0251043D01*
X0317917Y0251609D01*
X0319028Y0254292D01*
X0319028Y0257196D01*
X0317917Y0259879D01*
X0315863Y0261933D01*
X0313180Y0263044D01*
X0310276Y0263044D01*
X0307593Y0261933D01*
X0305540Y0259879D01*
X0304428Y0257196D01*
X0304428Y0254292D01*
X0305540Y0251609D01*
X0306105Y0251043D01*
X0278887Y0251043D01*
X0278728Y0251202D01*
X0278728Y0251294D01*
X0280216Y0252782D01*
X0281740Y0256461D01*
X0281740Y0260444D01*
X0280216Y0264124D01*
X0277400Y0266940D01*
X0273720Y0268465D01*
X0269737Y0268465D01*
X0266057Y0266940D01*
X0263241Y0264124D01*
X0261717Y0260444D01*
X0261717Y0256461D01*
X0263241Y0252782D01*
X0264728Y0251294D01*
X0264728Y0251202D01*
X0264570Y0251043D01*
X0227351Y0251043D01*
X0227917Y0251609D01*
X0229028Y0254292D01*
X0229028Y0257196D01*
X0227917Y0259879D01*
X0225863Y0261933D01*
X0223180Y0263044D01*
X0220276Y0263044D01*
X0217593Y0261933D01*
X0215540Y0259879D01*
X0214428Y0257196D01*
X0214428Y0254292D01*
X0215540Y0251609D01*
X0216105Y0251043D01*
X0188887Y0251043D01*
X0188728Y0251202D01*
X0188728Y0251294D01*
X0190216Y0252782D01*
X0191740Y0256461D01*
X0191740Y0260444D01*
X0190216Y0264124D01*
X0187400Y0266940D01*
X0183720Y0268465D01*
X0179737Y0268465D01*
X0176057Y0266940D01*
X0173241Y0264124D01*
X0171717Y0260444D01*
X0171717Y0256461D01*
X0173241Y0252782D01*
X0174728Y0251294D01*
X0174728Y0251202D01*
X0174570Y0251043D01*
X0137351Y0251043D01*
X0137917Y0251609D01*
X0139028Y0254292D01*
X0139028Y0257196D01*
X0137917Y0259879D01*
X0135863Y0261933D01*
X0133180Y0263044D01*
X0130276Y0263044D01*
X0127593Y0261933D01*
X0125540Y0259879D01*
X0124428Y0257196D01*
X0124428Y0254292D01*
X0125540Y0251609D01*
X0126105Y0251043D01*
X0098887Y0251043D01*
X0098728Y0251202D01*
X0098728Y0251294D01*
X0100216Y0252782D01*
X0101740Y0256461D01*
X0101740Y0260444D01*
X0100216Y0264124D01*
X0097400Y0266940D01*
X0093720Y0268465D01*
X0089737Y0268465D01*
X0086057Y0266940D01*
X0083241Y0264124D01*
X0081717Y0260444D01*
X0081717Y0256461D01*
X0083241Y0252782D01*
X0084728Y0251294D01*
X0084728Y0251202D01*
X0083241Y0249715D01*
X0081717Y0246035D01*
X0081717Y0242052D01*
X0083241Y0238372D01*
X0086057Y0235556D01*
X0086809Y0235244D01*
X0086057Y0234932D01*
X0083241Y0232116D01*
X0081717Y0228436D01*
X0081717Y0224453D01*
X0083241Y0220774D01*
X0084774Y0219240D01*
X0083241Y0217707D01*
X0081717Y0214027D01*
X0081717Y0210044D01*
X0083241Y0206364D01*
X0086057Y0203548D01*
X0089737Y0202024D01*
X0093546Y0202024D01*
X0091258Y0201076D01*
X0089286Y0199104D01*
X0088219Y0196527D01*
X0088219Y0193739D01*
X0089286Y0191162D01*
X0091258Y0189190D01*
X0093834Y0188123D01*
X0096623Y0188123D01*
X0099199Y0189190D01*
X0099653Y0189644D01*
X0125628Y0189644D01*
X0125628Y0183366D01*
X0125449Y0183187D01*
X0124764Y0181533D01*
X0124764Y0173955D01*
X0125449Y0172301D01*
X0125664Y0172086D01*
X0125664Y0167861D01*
X0124523Y0166721D01*
X0123724Y0164792D01*
X0123724Y0158216D01*
X0124523Y0156287D01*
X0126000Y0154811D01*
X0127929Y0154012D01*
X0135528Y0154012D01*
X0136728Y0154509D01*
X0137929Y0154012D01*
X0145528Y0154012D01*
X0147457Y0154811D01*
X0147608Y0154962D01*
X0147821Y0154874D01*
X0153942Y0154874D01*
X0154228Y0154992D01*
X0154514Y0154874D01*
X0160635Y0154874D01*
X0161525Y0155243D01*
X0163133Y0155243D01*
X0164022Y0154874D01*
X0170143Y0154874D01*
X0171797Y0155559D01*
X0173063Y0156825D01*
X0173748Y0158479D01*
X0173748Y0164206D01*
X0173063Y0165860D01*
X0171797Y0167126D01*
X0170143Y0167811D01*
X0164022Y0167811D01*
X0163675Y0167667D01*
X0163675Y0169110D01*
X0163908Y0170079D01*
X0163845Y0170471D01*
X0165481Y0171149D01*
X0166747Y0172415D01*
X0167432Y0174069D01*
X0167432Y0175852D01*
X0167627Y0176193D01*
X0167677Y0176586D01*
X0167828Y0176951D01*
X0167828Y0177779D01*
X0167933Y0178600D01*
X0167828Y0178982D01*
X0167828Y0191520D01*
X0167917Y0191609D01*
X0169028Y0194292D01*
X0169028Y0197196D01*
X0167917Y0199879D01*
X0165863Y0201933D01*
X0163180Y0203044D01*
X0160276Y0203044D01*
X0157593Y0201933D01*
X0155540Y0199879D01*
X0154428Y0197196D01*
X0154428Y0194292D01*
X0155540Y0191609D01*
X0155628Y0191520D01*
X0155628Y0183844D01*
X0154351Y0183844D01*
X0153742Y0184453D01*
X0152088Y0185138D01*
X0145298Y0185138D01*
X0143644Y0184453D01*
X0142378Y0183187D01*
X0141693Y0181533D01*
X0141693Y0173955D01*
X0142378Y0172301D01*
X0143644Y0171035D01*
X0145298Y0170350D01*
X0151408Y0170350D01*
X0151475Y0169930D01*
X0151475Y0167811D01*
X0147843Y0167811D01*
X0147457Y0168197D01*
X0145528Y0168996D01*
X0137929Y0168996D01*
X0137864Y0168969D01*
X0137864Y0172086D01*
X0138079Y0172301D01*
X0138764Y0173955D01*
X0138764Y0181533D01*
X0138079Y0183187D01*
X0137828Y0183437D01*
X0137828Y0191520D01*
X0137917Y0191609D01*
X0139028Y0194292D01*
X0139028Y0197196D01*
X0137917Y0199879D01*
X0135863Y0201933D01*
X0133180Y0203044D01*
X0130276Y0203044D01*
X0127593Y0201933D01*
X0127505Y0201844D01*
X0097344Y0201844D01*
X0096623Y0202143D01*
X0094008Y0202143D01*
X0097400Y0203548D01*
X0100216Y0206364D01*
X0101740Y0210044D01*
X0101740Y0214027D01*
X0100216Y0217707D01*
X0098682Y0219240D01*
X0100216Y0220774D01*
X0101740Y0224453D01*
X0101740Y0228436D01*
X0100216Y0232116D01*
X0097400Y0234932D01*
X0096647Y0235244D01*
X0097400Y0235556D01*
X0098887Y0237043D01*
X0154428Y0237043D01*
X0154428Y0234292D01*
X0155540Y0231609D01*
X0157593Y0229555D01*
X0160276Y0228444D01*
X0163180Y0228444D01*
X0165863Y0229555D01*
X0167917Y0231609D01*
X0169028Y0234292D01*
X0169028Y0237043D01*
X0174570Y0237043D01*
X0176057Y0235556D01*
X0176809Y0235244D01*
X0176057Y0234932D01*
X0173241Y0232116D01*
X0171717Y0228436D01*
X0171717Y0224453D01*
X0173241Y0220774D01*
X0174774Y0219240D01*
X0173241Y0217707D01*
X0171717Y0214027D01*
X0171717Y0210044D01*
X0173241Y0206364D01*
X0176057Y0203548D01*
X0179737Y0202024D01*
X0183720Y0202024D01*
X0187400Y0203548D01*
X0190216Y0206364D01*
X0191740Y0210044D01*
X0191740Y0214027D01*
X0190216Y0217707D01*
X0188682Y0219240D01*
X0190216Y0220774D01*
X0191740Y0224453D01*
X0191740Y0228436D01*
X0190216Y0232116D01*
X0187400Y0234932D01*
X0186647Y0235244D01*
X0187400Y0235556D01*
X0188887Y0237043D01*
X0244428Y0237043D01*
X0244428Y0234292D01*
X0245540Y0231609D01*
X0247593Y0229555D01*
X0250276Y0228444D01*
X0253180Y0228444D01*
X0255863Y0229555D01*
X0257917Y0231609D01*
X0259028Y0234292D01*
X0259028Y0237043D01*
X0264570Y0237043D01*
X0266057Y0235556D01*
X0266809Y0235244D01*
X0266057Y0234932D01*
X0263241Y0232116D01*
X0261717Y0228436D01*
X0261717Y0224453D01*
X0263241Y0220774D01*
X0264774Y0219240D01*
X0263241Y0217707D01*
X0261717Y0214027D01*
X0261717Y0210044D01*
X0263241Y0206364D01*
X0266057Y0203548D01*
X0269737Y0202024D01*
X0273720Y0202024D01*
X0277400Y0203548D01*
X0280216Y0206364D01*
X0281740Y0210044D01*
X0281740Y0214027D01*
X0280216Y0217707D01*
X0278682Y0219240D01*
X0280216Y0220774D01*
X0281740Y0224453D01*
X0281740Y0228436D01*
X0280216Y0232116D01*
X0277400Y0234932D01*
X0276647Y0235244D01*
X0277400Y0235556D01*
X0278887Y0237043D01*
X0334428Y0237043D01*
X0334428Y0234292D01*
X0335540Y0231609D01*
X0337593Y0229555D01*
X0340276Y0228444D01*
X0343180Y0228444D01*
X0345863Y0229555D01*
X0347917Y0231609D01*
X0349028Y0234292D01*
X0349028Y0237043D01*
X0354570Y0237043D01*
X0356057Y0235556D01*
X0356809Y0235244D01*
X0356057Y0234932D01*
X0353241Y0232116D01*
X0351717Y0228436D01*
X0351717Y0224453D01*
X0353241Y0220774D01*
X0354774Y0219240D01*
X0353241Y0217707D01*
X0351717Y0214027D01*
X0351717Y0210044D01*
X0353241Y0206364D01*
X0356057Y0203548D01*
X0359737Y0202024D01*
X0363720Y0202024D01*
X0367400Y0203548D01*
X0370216Y0206364D01*
X0371740Y0210044D01*
X0371740Y0214027D01*
X0370216Y0217707D01*
X0368682Y0219240D01*
X0370216Y0220774D01*
X0371740Y0224453D01*
X0371740Y0228436D01*
X0370216Y0232116D01*
X0367400Y0234932D01*
X0366647Y0235244D01*
X0367400Y0235556D01*
X0368887Y0237043D01*
X0424428Y0237043D01*
X0424428Y0234292D01*
X0425540Y0231609D01*
X0427593Y0229555D01*
X0430276Y0228444D01*
X0433180Y0228444D01*
X0435863Y0229555D01*
X0437917Y0231609D01*
X0439028Y0234292D01*
X0439028Y0237043D01*
X0444570Y0237043D01*
X0446057Y0235556D01*
X0446809Y0235244D01*
X0446057Y0234932D01*
X0443241Y0232116D01*
X0441717Y0228436D01*
X0441717Y0224453D01*
X0443241Y0220774D01*
X0444774Y0219240D01*
X0443241Y0217707D01*
X0441717Y0214027D01*
X0441717Y0210044D01*
X0443241Y0206364D01*
X0446057Y0203548D01*
X0449737Y0202024D01*
X0453720Y0202024D01*
X0457400Y0203548D01*
X0460216Y0206364D01*
X0461740Y0210044D01*
X0461740Y0214027D01*
X0460216Y0217707D01*
X0458682Y0219240D01*
X0460216Y0220774D01*
X0461740Y0224453D01*
X0461740Y0228436D01*
X0460216Y0232116D01*
X0457400Y0234932D01*
X0456647Y0235244D01*
X0457400Y0235556D01*
X0458887Y0237043D01*
X0514428Y0237043D01*
X0514428Y0234292D01*
X0515540Y0231609D01*
X0517593Y0229555D01*
X0520276Y0228444D01*
X0523180Y0228444D01*
X0525863Y0229555D01*
X0527917Y0231609D01*
X0529028Y0234292D01*
X0529028Y0237043D01*
X0534570Y0237043D01*
X0536057Y0235556D01*
X0536809Y0235244D01*
X0536057Y0234932D01*
X0533241Y0232116D01*
X0531717Y0228436D01*
X0531717Y0224453D01*
X0533241Y0220774D01*
X0534774Y0219240D01*
X0533241Y0217707D01*
X0531717Y0214027D01*
X0531717Y0210044D01*
X0533241Y0206364D01*
X0536057Y0203548D01*
X0539737Y0202024D01*
X0543720Y0202024D01*
X0547400Y0203548D01*
X0550216Y0206364D01*
X0551740Y0210044D01*
X0551740Y0214027D01*
X0550216Y0217707D01*
X0548682Y0219240D01*
X0550216Y0220774D01*
X0551740Y0224453D01*
X0551740Y0228436D01*
X0550216Y0232116D01*
X0547400Y0234932D01*
X0546647Y0235244D01*
X0547400Y0235556D01*
X0548887Y0237043D01*
X0604428Y0237043D01*
X0604428Y0234292D01*
X0605540Y0231609D01*
X0607593Y0229555D01*
X0610276Y0228444D01*
X0613180Y0228444D01*
X0615863Y0229555D01*
X0617917Y0231609D01*
X0619028Y0234292D01*
X0619028Y0237043D01*
X0624570Y0237043D01*
X0626057Y0235556D01*
X0626809Y0235244D01*
X0626057Y0234932D01*
X0623241Y0232116D01*
X0621717Y0228436D01*
X0621717Y0224453D01*
X0623241Y0220774D01*
X0624774Y0219240D01*
X0623241Y0217707D01*
X0621717Y0214027D01*
X0621717Y0210044D01*
X0623241Y0206364D01*
X0626057Y0203548D01*
X0629737Y0202024D01*
X0633720Y0202024D01*
X0637400Y0203548D01*
X0640216Y0206364D01*
X0641740Y0210044D01*
X0641740Y0214027D01*
X0640216Y0217707D01*
X0638682Y0219240D01*
X0640216Y0220774D01*
X0641740Y0224453D01*
X0641740Y0228436D01*
X0640216Y0232116D01*
X0637400Y0234932D01*
X0636647Y0235244D01*
X0637400Y0235556D01*
X0638887Y0237043D01*
X0694428Y0237043D01*
X0694428Y0234292D01*
X0695540Y0231609D01*
X0697593Y0229555D01*
X0700276Y0228444D01*
X0703180Y0228444D01*
X0705863Y0229555D01*
X0707917Y0231609D01*
X0709028Y0234292D01*
X0709028Y0237043D01*
X0714570Y0237043D01*
X0716057Y0235556D01*
X0716809Y0235244D01*
X0716057Y0234932D01*
X0713241Y0232116D01*
X0711717Y0228436D01*
X0711717Y0224453D01*
X0713241Y0220774D01*
X0714774Y0219240D01*
X0713241Y0217707D01*
X0711717Y0214027D01*
X0711717Y0210044D01*
X0713241Y0206364D01*
X0716057Y0203548D01*
X0719737Y0202024D01*
X0723720Y0202024D01*
X0727400Y0203548D01*
X0730216Y0206364D01*
X0731740Y0210044D01*
X0731740Y0214027D01*
X0730216Y0217707D01*
X0728682Y0219240D01*
X0730216Y0220774D01*
X0731646Y0224226D01*
X0732528Y0223344D01*
X0732528Y0205633D01*
X0720263Y0193367D01*
X0718294Y0191398D01*
X0717228Y0188825D01*
X0717228Y0186041D01*
X0717328Y0185799D01*
X0717328Y0180884D02*
X0707828Y0180884D01*
X0707451Y0175885D02*
X0717328Y0175885D01*
X0717328Y0170887D02*
X0704849Y0170887D01*
X0713035Y0165888D02*
X0717328Y0165888D01*
X0717328Y0160890D02*
X0713747Y0160890D01*
X0712127Y0155891D02*
X0717328Y0155891D01*
X0717328Y0150893D02*
X0681868Y0150893D01*
X0686867Y0145894D02*
X0717328Y0145894D01*
X0717328Y0140896D02*
X0691865Y0140896D01*
X0696864Y0135897D02*
X0717328Y0135897D01*
X0717328Y0130899D02*
X0700457Y0130899D01*
X0700528Y0125900D02*
X0717328Y0125900D01*
X0717328Y0120902D02*
X0700528Y0120902D01*
X0700528Y0115903D02*
X0716231Y0115903D01*
X0714317Y0110905D02*
X0700528Y0110905D01*
X0700528Y0105906D02*
X0715122Y0105906D01*
X0715760Y0100908D02*
X0700528Y0100908D01*
X0700528Y0095909D02*
X0714317Y0095909D01*
X0715365Y0090911D02*
X0700528Y0090911D01*
X0700528Y0085912D02*
X0718248Y0085912D01*
X0714767Y0080914D02*
X0700528Y0080914D01*
X0700528Y0075915D02*
X0714317Y0075915D01*
X0717087Y0070917D02*
X0700528Y0070917D01*
X0700528Y0065918D02*
X0714525Y0065918D01*
X0714529Y0060920D02*
X0700528Y0060920D01*
X0698088Y0055921D02*
X0717256Y0055921D01*
X0717256Y0050923D02*
X0693090Y0050923D01*
X0688091Y0045924D02*
X0717256Y0045924D01*
X0717256Y0040926D02*
X0683093Y0040926D01*
X0678094Y0035927D02*
X0715512Y0035927D01*
X0715102Y0030929D02*
X0674355Y0030929D01*
X0671243Y0025930D02*
X0718214Y0025930D01*
X0724256Y0032933D02*
X0724256Y0063352D01*
X0724328Y0063424D01*
X0724328Y0077834D01*
X0733889Y0080914D02*
X0752699Y0080914D01*
X0752699Y0085912D02*
X0730409Y0085912D01*
X0733292Y0090911D02*
X0752699Y0090911D01*
X0752699Y0095909D02*
X0734340Y0095909D01*
X0724328Y0095432D02*
X0724328Y0109842D01*
X0724328Y0187333D01*
X0724228Y0187433D01*
X0739528Y0202733D01*
X0739528Y0226243D01*
X0721728Y0244043D01*
X0721728Y0258453D01*
X0711965Y0255862D02*
X0679028Y0255862D01*
X0676936Y0260860D02*
X0696289Y0260860D01*
X0694428Y0265859D02*
X0638481Y0265859D01*
X0641568Y0260860D02*
X0666521Y0260860D01*
X0664428Y0255862D02*
X0641492Y0255862D01*
X0631728Y0258453D02*
X0631728Y0244043D01*
X0721728Y0244043D01*
X0729067Y0250863D02*
X0752699Y0250863D01*
X0752699Y0245865D02*
X0731740Y0245865D01*
X0734805Y0240866D02*
X0752699Y0240866D01*
X0752699Y0235868D02*
X0739804Y0235868D01*
X0744802Y0230869D02*
X0752699Y0230869D01*
X0752699Y0225871D02*
X0746528Y0225871D01*
X0746528Y0220872D02*
X0752699Y0220872D01*
X0752699Y0215874D02*
X0746528Y0215874D01*
X0746528Y0210875D02*
X0752699Y0210875D01*
X0752699Y0205877D02*
X0746528Y0205877D01*
X0746337Y0200878D02*
X0752699Y0200878D01*
X0752699Y0195879D02*
X0742574Y0195879D01*
X0737576Y0190881D02*
X0752699Y0190881D01*
X0752699Y0185882D02*
X0732577Y0185882D01*
X0731328Y0180884D02*
X0752699Y0180884D01*
X0752699Y0175885D02*
X0731328Y0175885D01*
X0731328Y0170887D02*
X0752699Y0170887D01*
X0752699Y0165888D02*
X0731328Y0165888D01*
X0731328Y0160890D02*
X0752699Y0160890D01*
X0752699Y0155891D02*
X0731328Y0155891D01*
X0731328Y0150893D02*
X0752699Y0150893D01*
X0752699Y0145894D02*
X0731328Y0145894D01*
X0731328Y0140896D02*
X0752699Y0140896D01*
X0752699Y0135897D02*
X0731328Y0135897D01*
X0731328Y0130899D02*
X0752699Y0130899D01*
X0752699Y0125900D02*
X0731328Y0125900D01*
X0731328Y0120902D02*
X0752699Y0120902D01*
X0752699Y0115903D02*
X0732426Y0115903D01*
X0734340Y0110905D02*
X0752699Y0110905D01*
X0752699Y0105906D02*
X0733535Y0105906D01*
X0732897Y0100908D02*
X0752699Y0100908D01*
X0752699Y0075915D02*
X0734340Y0075915D01*
X0731570Y0070917D02*
X0752699Y0070917D01*
X0752699Y0065918D02*
X0734132Y0065918D01*
X0734128Y0060920D02*
X0752699Y0060920D01*
X0752699Y0055921D02*
X0731256Y0055921D01*
X0731256Y0050923D02*
X0752699Y0050923D01*
X0752699Y0045924D02*
X0731256Y0045924D01*
X0731256Y0040926D02*
X0752699Y0040926D01*
X0752699Y0035927D02*
X0733000Y0035927D01*
X0733410Y0030929D02*
X0752699Y0030929D01*
X0752699Y0025930D02*
X0730298Y0025930D01*
X0678289Y0055921D02*
X0655478Y0055921D01*
X0655478Y0060920D02*
X0683288Y0060920D01*
X0686528Y0065918D02*
X0655110Y0065918D01*
X0639347Y0065918D02*
X0610110Y0065918D01*
X0594347Y0065918D02*
X0584055Y0065918D01*
X0579290Y0070917D02*
X0686528Y0070917D01*
X0686528Y0075915D02*
X0577040Y0075915D01*
X0566241Y0075915D02*
X0566016Y0075915D01*
X0555217Y0075915D02*
X0501537Y0075915D01*
X0506536Y0080914D02*
X0686528Y0080914D01*
X0686528Y0085912D02*
X0585334Y0085912D01*
X0590333Y0090911D02*
X0686528Y0090911D01*
X0686528Y0095909D02*
X0671867Y0095909D01*
X0678019Y0100908D02*
X0686528Y0100908D01*
X0686528Y0105906D02*
X0678197Y0105906D01*
X0678197Y0110905D02*
X0686528Y0110905D01*
X0686528Y0115903D02*
X0677828Y0115903D01*
X0679732Y0120902D02*
X0686528Y0120902D01*
X0686528Y0125900D02*
X0679732Y0125900D01*
X0682063Y0130899D02*
X0676922Y0130899D01*
X0677065Y0135897D02*
X0564933Y0135897D01*
X0565522Y0134742D02*
X0563391Y0138923D01*
X0563391Y0138923D01*
X0560073Y0142242D01*
X0555891Y0144372D01*
X0551256Y0145106D01*
X0546621Y0144372D01*
X0546621Y0144372D01*
X0542439Y0142242D01*
X0539121Y0138923D01*
X0536990Y0134742D01*
X0536990Y0134742D01*
X0536256Y0130106D01*
X0536990Y0125471D01*
X0539121Y0121290D01*
X0539121Y0121290D01*
X0542439Y0117971D01*
X0542439Y0117971D01*
X0546621Y0115840D01*
X0551256Y0115106D01*
X0555891Y0115840D01*
X0555891Y0115840D01*
X0560073Y0117971D01*
X0563391Y0121290D01*
X0565522Y0125471D01*
X0566256Y0130106D01*
X0565522Y0134742D01*
X0565522Y0134742D01*
X0566130Y0130899D02*
X0576534Y0130899D01*
X0573724Y0125900D02*
X0565590Y0125900D01*
X0565522Y0125471D02*
X0565522Y0125471D01*
X0563391Y0121290D02*
X0563391Y0121290D01*
X0563003Y0120902D02*
X0573724Y0120902D01*
X0575628Y0115903D02*
X0556014Y0115903D01*
X0560073Y0117971D02*
X0560073Y0117971D01*
X0551256Y0115106D02*
X0551256Y0115106D01*
X0546621Y0115840D02*
X0546621Y0115840D01*
X0546497Y0115903D02*
X0497828Y0115903D01*
X0499732Y0120902D02*
X0539508Y0120902D01*
X0536990Y0125471D02*
X0536990Y0125471D01*
X0536922Y0125900D02*
X0499732Y0125900D01*
X0496922Y0130899D02*
X0536381Y0130899D01*
X0536256Y0130106D02*
X0536256Y0130106D01*
X0537579Y0135897D02*
X0296528Y0135897D01*
X0296528Y0130899D02*
X0306534Y0130899D01*
X0303724Y0125900D02*
X0296528Y0125900D01*
X0296528Y0120902D02*
X0303724Y0120902D01*
X0305628Y0115903D02*
X0296528Y0115903D01*
X0296528Y0110905D02*
X0305260Y0110905D01*
X0305260Y0105906D02*
X0296528Y0105906D01*
X0296535Y0100908D02*
X0304676Y0100908D01*
X0318019Y0100908D02*
X0395438Y0100908D01*
X0395260Y0105906D02*
X0318197Y0105906D01*
X0318197Y0110905D02*
X0395260Y0110905D01*
X0395628Y0115903D02*
X0317828Y0115903D01*
X0319732Y0120902D02*
X0393724Y0120902D01*
X0393724Y0125900D02*
X0319732Y0125900D01*
X0316922Y0130899D02*
X0396534Y0130899D01*
X0406922Y0130899D02*
X0486534Y0130899D01*
X0483724Y0125900D02*
X0409732Y0125900D01*
X0409732Y0120902D02*
X0483724Y0120902D01*
X0485628Y0115903D02*
X0407828Y0115903D01*
X0408197Y0110905D02*
X0485260Y0110905D01*
X0485260Y0105906D02*
X0408197Y0105906D01*
X0408019Y0100908D02*
X0485076Y0100908D01*
X0480078Y0095909D02*
X0407828Y0095909D01*
X0407828Y0090911D02*
X0475079Y0090911D01*
X0470081Y0085912D02*
X0428117Y0085912D01*
X0427240Y0086051D02*
X0427240Y0086051D01*
X0422605Y0085317D01*
X0422605Y0085317D01*
X0418423Y0083186D01*
X0415105Y0079868D01*
X0415105Y0079868D01*
X0412974Y0075686D01*
X0412240Y0071051D01*
X0412974Y0066416D01*
X0415105Y0062234D01*
X0418423Y0058916D01*
X0418423Y0058916D01*
X0422605Y0056785D01*
X0427240Y0056051D01*
X0431875Y0056785D01*
X0431875Y0056785D01*
X0436057Y0058916D01*
X0439375Y0062234D01*
X0441506Y0066416D01*
X0442240Y0071051D01*
X0442240Y0071051D01*
X0441506Y0075686D01*
X0441506Y0075686D01*
X0439375Y0079868D01*
X0436057Y0083186D01*
X0431875Y0085317D01*
X0427240Y0086051D01*
X0426363Y0085912D02*
X0407828Y0085912D01*
X0407828Y0080914D02*
X0416151Y0080914D01*
X0418423Y0083186D02*
X0418423Y0083186D01*
X0431875Y0085317D02*
X0431875Y0085317D01*
X0436057Y0083186D02*
X0436057Y0083186D01*
X0438330Y0080914D02*
X0465082Y0080914D01*
X0460084Y0075915D02*
X0441389Y0075915D01*
X0439375Y0079868D02*
X0439375Y0079868D01*
X0442219Y0070917D02*
X0455085Y0070917D01*
X0450087Y0065918D02*
X0441252Y0065918D01*
X0438061Y0060920D02*
X0445088Y0060920D01*
X0440090Y0055921D02*
X0402343Y0055921D01*
X0407083Y0060920D02*
X0416420Y0060920D01*
X0415105Y0062234D02*
X0415105Y0062234D01*
X0413228Y0065918D02*
X0407828Y0065918D01*
X0407828Y0070917D02*
X0412261Y0070917D01*
X0412240Y0071051D02*
X0412240Y0071051D01*
X0412974Y0066416D02*
X0412974Y0066416D01*
X0395628Y0070917D02*
X0336371Y0070917D01*
X0341370Y0065918D02*
X0395087Y0065918D01*
X0390088Y0060920D02*
X0346368Y0060920D01*
X0335502Y0046433D02*
X0327873Y0054062D01*
X0326157Y0055778D01*
X0326134Y0055833D01*
X0303558Y0055833D01*
X0304299Y0055526D01*
X0306121Y0053703D01*
X0306501Y0052787D01*
X0312855Y0046433D01*
X0335502Y0046433D01*
X0331012Y0050923D02*
X0308365Y0050923D01*
X0300279Y0075915D02*
X0395628Y0075915D01*
X0395628Y0080914D02*
X0272406Y0080914D01*
X0270452Y0085912D02*
X0278122Y0085912D01*
X0273124Y0090911D02*
X0255379Y0090911D01*
X0258253Y0095909D02*
X0268125Y0095909D01*
X0263127Y0100908D02*
X0257417Y0100908D01*
X0258128Y0105906D02*
X0236108Y0105906D01*
X0227596Y0110905D02*
X0215828Y0110905D01*
X0216197Y0115903D02*
X0230862Y0115903D01*
X0229732Y0120902D02*
X0284328Y0120902D01*
X0284328Y0115903D02*
X0265385Y0115903D01*
X0270383Y0110905D02*
X0284328Y0110905D01*
X0284328Y0105906D02*
X0275382Y0105906D01*
X0280380Y0100908D02*
X0284322Y0100908D01*
X0311933Y0090911D02*
X0395628Y0090911D01*
X0395628Y0095909D02*
X0316913Y0095909D01*
X0306934Y0085912D02*
X0395628Y0085912D01*
X0407828Y0075915D02*
X0413091Y0075915D01*
X0412974Y0075686D02*
X0412974Y0075686D01*
X0436057Y0058916D02*
X0436057Y0058916D01*
X0436057Y0058916D01*
X0427240Y0056051D02*
X0427240Y0056051D01*
X0422605Y0056785D02*
X0422605Y0056785D01*
X0461549Y0035927D02*
X0504823Y0035927D01*
X0509821Y0040926D02*
X0466548Y0040926D01*
X0471546Y0045924D02*
X0514820Y0045924D01*
X0519818Y0050923D02*
X0476545Y0050923D01*
X0481543Y0055921D02*
X0524817Y0055921D01*
X0529815Y0060920D02*
X0486542Y0060920D01*
X0491540Y0065918D02*
X0535904Y0065918D01*
X0538009Y0059213D02*
X0505728Y0026933D01*
X0501217Y0026933D01*
X0500728Y0027421D01*
X0485728Y0027421D01*
X0471252Y0027421D01*
X0471240Y0027433D01*
X0460217Y0027433D02*
X0260228Y0027433D01*
X0249728Y0037933D01*
X0239728Y0037933D01*
X0231528Y0039733D02*
X0231528Y0034537D01*
X0236332Y0029733D01*
X0243125Y0029733D01*
X0244325Y0030933D01*
X0245132Y0030933D01*
X0246332Y0029733D01*
X0248029Y0029733D01*
X0256263Y0021499D01*
X0257025Y0021183D01*
X0026978Y0021183D01*
X0026978Y0036945D01*
X0028420Y0034116D01*
X0031738Y0030798D01*
X0031738Y0030798D01*
X0035920Y0028667D01*
X0040555Y0027933D01*
X0040555Y0027933D01*
X0045190Y0028667D01*
X0049372Y0030798D01*
X0052319Y0033745D01*
X0056332Y0029733D01*
X0063125Y0029733D01*
X0064728Y0031337D01*
X0066332Y0029733D01*
X0073125Y0029733D01*
X0074728Y0031337D01*
X0076332Y0029733D01*
X0083125Y0029733D01*
X0087928Y0034537D01*
X0087928Y0039733D01*
X0091528Y0039733D01*
X0091528Y0034537D01*
X0096332Y0029733D01*
X0103125Y0029733D01*
X0107928Y0034537D01*
X0107928Y0039733D01*
X0111528Y0039733D01*
X0111528Y0034537D01*
X0116332Y0029733D01*
X0123125Y0029733D01*
X0124728Y0031337D01*
X0126332Y0029733D01*
X0133125Y0029733D01*
X0134728Y0031337D01*
X0136332Y0029733D01*
X0143125Y0029733D01*
X0144728Y0031337D01*
X0146332Y0029733D01*
X0153125Y0029733D01*
X0157928Y0034537D01*
X0157928Y0039733D01*
X0161528Y0039733D01*
X0161528Y0034537D01*
X0166332Y0029733D01*
X0173125Y0029733D01*
X0174728Y0031337D01*
X0176332Y0029733D01*
X0183125Y0029733D01*
X0187928Y0034537D01*
X0187928Y0039733D01*
X0191528Y0039733D01*
X0191528Y0034537D01*
X0196332Y0029733D01*
X0203125Y0029733D01*
X0204728Y0031337D01*
X0206332Y0029733D01*
X0213125Y0029733D01*
X0214728Y0031337D01*
X0216332Y0029733D01*
X0223125Y0029733D01*
X0227928Y0034537D01*
X0227928Y0039733D01*
X0231528Y0039733D01*
X0231528Y0035927D02*
X0227928Y0035927D01*
X0224320Y0030929D02*
X0235136Y0030929D01*
X0244320Y0030929D02*
X0245136Y0030929D01*
X0251832Y0025930D02*
X0026978Y0025930D01*
X0026978Y0030929D02*
X0031608Y0030929D01*
X0028420Y0034116D02*
X0028420Y0034116D01*
X0027497Y0035927D02*
X0026978Y0035927D01*
X0035920Y0028667D02*
X0035920Y0028667D01*
X0045190Y0028667D02*
X0045190Y0028667D01*
X0049372Y0030798D02*
X0049372Y0030798D01*
X0049503Y0030929D02*
X0055136Y0030929D01*
X0064320Y0030929D02*
X0065136Y0030929D01*
X0074320Y0030929D02*
X0075136Y0030929D01*
X0084320Y0030929D02*
X0095136Y0030929D01*
X0091528Y0035927D02*
X0087928Y0035927D01*
X0104320Y0030929D02*
X0115136Y0030929D01*
X0111528Y0035927D02*
X0107928Y0035927D01*
X0124320Y0030929D02*
X0125136Y0030929D01*
X0134320Y0030929D02*
X0135136Y0030929D01*
X0144320Y0030929D02*
X0145136Y0030929D01*
X0154320Y0030929D02*
X0165136Y0030929D01*
X0161528Y0035927D02*
X0157928Y0035927D01*
X0174320Y0030929D02*
X0175136Y0030929D01*
X0184320Y0030929D02*
X0195136Y0030929D01*
X0191528Y0035927D02*
X0187928Y0035927D01*
X0204320Y0030929D02*
X0205136Y0030929D01*
X0214320Y0030929D02*
X0215136Y0030929D01*
X0211528Y0046133D02*
X0207928Y0046133D01*
X0207928Y0051330D01*
X0203425Y0055833D01*
X0216032Y0055833D01*
X0211528Y0051330D01*
X0211528Y0046133D01*
X0211528Y0050923D02*
X0207928Y0050923D01*
X0183591Y0065918D02*
X0026978Y0065918D01*
X0026978Y0070917D02*
X0104381Y0070917D01*
X0095983Y0075915D02*
X0026978Y0075915D01*
X0026978Y0080914D02*
X0093249Y0080914D01*
X0102513Y0095909D02*
X0120125Y0095909D01*
X0115127Y0100908D02*
X0103628Y0100908D01*
X0101352Y0105906D02*
X0110128Y0105906D01*
X0105130Y0110905D02*
X0081828Y0110905D01*
X0081828Y0105906D02*
X0089505Y0105906D01*
X0081828Y0115903D02*
X0100131Y0115903D01*
X0095133Y0120902D02*
X0081828Y0120902D01*
X0082614Y0125900D02*
X0090134Y0125900D01*
X0085136Y0130899D02*
X0080869Y0130899D01*
X0078871Y0135897D02*
X0026978Y0135897D01*
X0026978Y0130899D02*
X0036534Y0130899D01*
X0033724Y0125900D02*
X0026978Y0125900D01*
X0026978Y0120902D02*
X0033724Y0120902D01*
X0035528Y0115903D02*
X0026978Y0115903D01*
X0026978Y0110905D02*
X0035160Y0110905D01*
X0035160Y0105906D02*
X0026978Y0105906D01*
X0026978Y0100908D02*
X0035338Y0100908D01*
X0041490Y0095909D02*
X0026978Y0095909D01*
X0026978Y0090911D02*
X0046489Y0090911D01*
X0058743Y0095909D02*
X0064550Y0095909D01*
X0064728Y0100908D02*
X0053745Y0100908D01*
X0048746Y0105906D02*
X0064728Y0105906D01*
X0064728Y0110905D02*
X0048097Y0110905D01*
X0047728Y0115903D02*
X0064728Y0115903D01*
X0063943Y0120902D02*
X0049732Y0120902D01*
X0049732Y0125900D02*
X0065689Y0125900D01*
X0072187Y0130899D02*
X0046922Y0130899D01*
X0026978Y0140896D02*
X0077819Y0140896D01*
X0081144Y0145894D02*
X0026978Y0145894D01*
X0026978Y0150893D02*
X0284969Y0150893D01*
X0286973Y0153304D02*
X0286973Y0153304D01*
X0289560Y0155891D02*
X0262129Y0155891D01*
X0261797Y0155559D02*
X0263063Y0156825D01*
X0263748Y0158479D01*
X0263748Y0164206D01*
X0263063Y0165860D01*
X0261797Y0167126D01*
X0260143Y0167811D01*
X0254022Y0167811D01*
X0253786Y0167713D01*
X0253793Y0170464D01*
X0253827Y0170464D01*
X0255481Y0171149D01*
X0256747Y0172415D01*
X0257432Y0174069D01*
X0257432Y0175852D01*
X0257627Y0176193D01*
X0257677Y0176586D01*
X0257828Y0176951D01*
X0257828Y0177779D01*
X0257933Y0178600D01*
X0257828Y0178982D01*
X0257828Y0191520D01*
X0257917Y0191609D01*
X0259028Y0194292D01*
X0259028Y0197196D01*
X0257917Y0199879D01*
X0255863Y0201933D01*
X0253180Y0203044D01*
X0250276Y0203044D01*
X0247593Y0201933D01*
X0245540Y0199879D01*
X0244428Y0197196D01*
X0244428Y0194292D01*
X0245540Y0191609D01*
X0245628Y0191520D01*
X0245628Y0183844D01*
X0244351Y0183844D01*
X0243742Y0184453D01*
X0242088Y0185138D01*
X0235298Y0185138D01*
X0233644Y0184453D01*
X0232378Y0183187D01*
X0231693Y0181533D01*
X0231693Y0173955D01*
X0232378Y0172301D01*
X0233644Y0171035D01*
X0235298Y0170350D01*
X0241593Y0170350D01*
X0241586Y0167811D01*
X0237843Y0167811D01*
X0237457Y0168197D01*
X0235528Y0168996D01*
X0227929Y0168996D01*
X0227864Y0168969D01*
X0227864Y0172086D01*
X0228079Y0172301D01*
X0228764Y0173955D01*
X0228764Y0181533D01*
X0228079Y0183187D01*
X0227864Y0183402D01*
X0227864Y0191556D01*
X0227917Y0191609D01*
X0229028Y0194292D01*
X0229028Y0197196D01*
X0227917Y0199879D01*
X0225863Y0201933D01*
X0223180Y0203044D01*
X0220276Y0203044D01*
X0217594Y0201933D01*
X0182215Y0201933D01*
X0181514Y0201643D01*
X0181034Y0201643D01*
X0178458Y0200576D01*
X0176486Y0198604D01*
X0175419Y0196027D01*
X0175419Y0193239D01*
X0176486Y0190662D01*
X0178458Y0188690D01*
X0181034Y0187623D01*
X0183823Y0187623D01*
X0186399Y0188690D01*
X0187442Y0189733D01*
X0215664Y0189733D01*
X0215664Y0183402D01*
X0215449Y0183187D01*
X0214764Y0181533D01*
X0214764Y0173955D01*
X0215449Y0172301D01*
X0215664Y0172086D01*
X0215664Y0167861D01*
X0214523Y0166721D01*
X0213724Y0164792D01*
X0213724Y0158216D01*
X0214523Y0156287D01*
X0216000Y0154811D01*
X0217929Y0154012D01*
X0225528Y0154012D01*
X0226728Y0154509D01*
X0227929Y0154012D01*
X0235528Y0154012D01*
X0237457Y0154811D01*
X0237608Y0154962D01*
X0237821Y0154874D01*
X0243942Y0154874D01*
X0244228Y0154992D01*
X0244514Y0154874D01*
X0250635Y0154874D01*
X0251525Y0155243D01*
X0253133Y0155243D01*
X0254022Y0154874D01*
X0260143Y0154874D01*
X0261797Y0155559D01*
X0263748Y0160890D02*
X0294558Y0160890D01*
X0298957Y0165288D02*
X0298957Y0165288D01*
X0299557Y0165888D02*
X0263035Y0165888D01*
X0254849Y0170887D02*
X0305628Y0170887D01*
X0304764Y0175885D02*
X0257451Y0175885D01*
X0257828Y0180884D02*
X0304764Y0180884D01*
X0305664Y0185882D02*
X0257828Y0185882D01*
X0245628Y0185882D02*
X0227864Y0185882D01*
X0228764Y0180884D02*
X0231693Y0180884D01*
X0231693Y0175885D02*
X0228764Y0175885D01*
X0227864Y0170887D02*
X0234002Y0170887D01*
X0215664Y0170887D02*
X0207765Y0170887D01*
X0207988Y0169476D02*
X0207254Y0174112D01*
X0205123Y0178293D01*
X0201805Y0181612D01*
X0197623Y0183742D01*
X0192988Y0184476D01*
X0188353Y0183742D01*
X0184171Y0181612D01*
X0180853Y0178293D01*
X0178722Y0174112D01*
X0177988Y0169476D01*
X0178722Y0164841D01*
X0180853Y0160660D01*
X0180853Y0160660D01*
X0184171Y0157341D01*
X0184171Y0157341D01*
X0188353Y0155211D01*
X0192988Y0154476D01*
X0197623Y0155211D01*
X0197623Y0155211D01*
X0201805Y0157341D01*
X0205123Y0160660D01*
X0207254Y0164841D01*
X0207254Y0164841D01*
X0207988Y0169476D01*
X0207420Y0165888D02*
X0214179Y0165888D01*
X0213724Y0160890D02*
X0205241Y0160890D01*
X0205123Y0160660D02*
X0205123Y0160660D01*
X0201805Y0157341D02*
X0201805Y0157341D01*
X0198960Y0155891D02*
X0214919Y0155891D01*
X0192988Y0154476D02*
X0192988Y0154476D01*
X0188353Y0155211D02*
X0188353Y0155211D01*
X0187017Y0155891D02*
X0172129Y0155891D01*
X0173748Y0160890D02*
X0180736Y0160890D01*
X0178722Y0164841D02*
X0178722Y0164841D01*
X0178556Y0165888D02*
X0173035Y0165888D01*
X0177988Y0169476D02*
X0177988Y0169476D01*
X0178212Y0170887D02*
X0164849Y0170887D01*
X0167451Y0175885D02*
X0179626Y0175885D01*
X0178722Y0174112D02*
X0178722Y0174112D01*
X0180853Y0178293D02*
X0180853Y0178293D01*
X0183444Y0180884D02*
X0167828Y0180884D01*
X0167828Y0185882D02*
X0215664Y0185882D01*
X0214764Y0180884D02*
X0202533Y0180884D01*
X0205123Y0178293D02*
X0205123Y0178293D01*
X0205123Y0178293D01*
X0206350Y0175885D02*
X0214764Y0175885D01*
X0207254Y0174112D02*
X0207254Y0174112D01*
X0184171Y0181612D02*
X0184171Y0181612D01*
X0176395Y0190881D02*
X0167828Y0190881D01*
X0169028Y0195879D02*
X0175419Y0195879D01*
X0179187Y0200878D02*
X0166918Y0200878D01*
X0156538Y0200878D02*
X0136918Y0200878D01*
X0139028Y0195879D02*
X0154428Y0195879D01*
X0155628Y0190881D02*
X0137828Y0190881D01*
X0137828Y0185882D02*
X0155628Y0185882D01*
X0141693Y0180884D02*
X0138764Y0180884D01*
X0138764Y0175885D02*
X0141693Y0175885D01*
X0144002Y0170887D02*
X0137864Y0170887D01*
X0125664Y0170887D02*
X0074849Y0170887D01*
X0075481Y0171149D02*
X0076747Y0172415D01*
X0077432Y0174069D01*
X0077432Y0175852D01*
X0077627Y0176193D01*
X0077677Y0176586D01*
X0077828Y0176951D01*
X0077828Y0177779D01*
X0077933Y0178600D01*
X0077828Y0178982D01*
X0077828Y0191520D01*
X0077917Y0191609D01*
X0079028Y0194292D01*
X0079028Y0197196D01*
X0077917Y0199879D01*
X0075863Y0201933D01*
X0073180Y0203044D01*
X0070276Y0203044D01*
X0067593Y0201933D01*
X0065540Y0199879D01*
X0064428Y0197196D01*
X0064428Y0194292D01*
X0065540Y0191609D01*
X0065628Y0191520D01*
X0065628Y0183844D01*
X0064351Y0183844D01*
X0063742Y0184453D01*
X0062088Y0185138D01*
X0055298Y0185138D01*
X0053644Y0184453D01*
X0052378Y0183187D01*
X0051693Y0181533D01*
X0051693Y0173955D01*
X0052378Y0172301D01*
X0053644Y0171035D01*
X0055298Y0170350D01*
X0061593Y0170350D01*
X0061586Y0167811D01*
X0057843Y0167811D01*
X0057457Y0168197D01*
X0055528Y0168996D01*
X0047929Y0168996D01*
X0047864Y0168969D01*
X0047864Y0172086D01*
X0048079Y0172301D01*
X0048764Y0173955D01*
X0048764Y0181533D01*
X0048079Y0183187D01*
X0047864Y0183402D01*
X0047864Y0191556D01*
X0047917Y0191609D01*
X0049028Y0194292D01*
X0049028Y0197196D01*
X0047917Y0199879D01*
X0045863Y0201933D01*
X0043180Y0203044D01*
X0040276Y0203044D01*
X0037593Y0201933D01*
X0035540Y0199879D01*
X0034428Y0197196D01*
X0034428Y0194292D01*
X0035540Y0191609D01*
X0035664Y0191485D01*
X0035664Y0183402D01*
X0035449Y0183187D01*
X0034764Y0181533D01*
X0034764Y0173955D01*
X0035449Y0172301D01*
X0035664Y0172086D01*
X0035664Y0167861D01*
X0034523Y0166721D01*
X0033724Y0164792D01*
X0033724Y0158216D01*
X0034523Y0156287D01*
X0036000Y0154811D01*
X0037929Y0154012D01*
X0045528Y0154012D01*
X0046728Y0154509D01*
X0047929Y0154012D01*
X0055528Y0154012D01*
X0057457Y0154811D01*
X0057608Y0154962D01*
X0057821Y0154874D01*
X0063942Y0154874D01*
X0064228Y0154992D01*
X0064514Y0154874D01*
X0070635Y0154874D01*
X0071525Y0155243D01*
X0073133Y0155243D01*
X0074022Y0154874D01*
X0080143Y0154874D01*
X0081797Y0155559D01*
X0083063Y0156825D01*
X0083748Y0158479D01*
X0083748Y0164206D01*
X0083063Y0165860D01*
X0081797Y0167126D01*
X0080143Y0167811D01*
X0074022Y0167811D01*
X0073786Y0167713D01*
X0073793Y0170464D01*
X0073827Y0170464D01*
X0075481Y0171149D01*
X0077451Y0175885D02*
X0124764Y0175885D01*
X0124764Y0180884D02*
X0077828Y0180884D01*
X0077828Y0185882D02*
X0125628Y0185882D01*
X0124179Y0165888D02*
X0083035Y0165888D01*
X0083748Y0160890D02*
X0123724Y0160890D01*
X0124919Y0155891D02*
X0082129Y0155891D01*
X0088513Y0145894D02*
X0284328Y0145894D01*
X0284328Y0140896D02*
X0092392Y0140896D01*
X0097391Y0135897D02*
X0284328Y0135897D01*
X0284328Y0130899D02*
X0226922Y0130899D01*
X0229732Y0125900D02*
X0284328Y0125900D01*
X0296528Y0140896D02*
X0541093Y0140896D01*
X0542439Y0142242D02*
X0542439Y0142242D01*
X0539121Y0138923D02*
X0539121Y0138923D01*
X0551256Y0145106D02*
X0551256Y0145106D01*
X0555891Y0144372D02*
X0555891Y0144372D01*
X0560073Y0142242D02*
X0560073Y0142242D01*
X0561418Y0140896D02*
X0672066Y0140896D01*
X0667068Y0145894D02*
X0296816Y0145894D01*
X0301815Y0150893D02*
X0664728Y0150893D01*
X0671728Y0151133D02*
X0693528Y0129333D01*
X0693528Y0061261D01*
X0665201Y0032933D01*
X0647228Y0050906D01*
X0647228Y0056633D01*
X0602228Y0056633D01*
X0583440Y0056633D01*
X0578440Y0051633D01*
X0565728Y0051633D01*
X0562028Y0051633D01*
X0556588Y0059213D02*
X0552228Y0059213D01*
X0552128Y0059213D02*
X0538009Y0059213D01*
X0540908Y0052213D02*
X0546989Y0052213D01*
X0546989Y0047417D01*
X0547428Y0046356D01*
X0547428Y0042866D01*
X0546135Y0043402D01*
X0540014Y0043402D01*
X0538360Y0042716D01*
X0537095Y0041451D01*
X0536409Y0039797D01*
X0536409Y0034069D01*
X0537095Y0032416D01*
X0538360Y0031150D01*
X0538883Y0030933D01*
X0538360Y0030716D01*
X0537095Y0029451D01*
X0536409Y0027797D01*
X0536409Y0022069D01*
X0536777Y0021183D01*
X0509878Y0021183D01*
X0511663Y0022968D01*
X0540908Y0052213D01*
X0539617Y0050923D02*
X0546989Y0050923D01*
X0547428Y0045924D02*
X0534619Y0045924D01*
X0536877Y0040926D02*
X0529620Y0040926D01*
X0524622Y0035927D02*
X0536409Y0035927D01*
X0538873Y0030929D02*
X0519623Y0030929D01*
X0514625Y0025930D02*
X0536409Y0025930D01*
X0570150Y0025930D02*
X0659158Y0025930D01*
X0656047Y0030929D02*
X0571219Y0030929D01*
X0576485Y0035927D02*
X0652307Y0035927D01*
X0647309Y0040926D02*
X0576076Y0040926D01*
X0582631Y0045924D02*
X0595323Y0045924D01*
X0609133Y0045924D02*
X0640323Y0045924D01*
X0657111Y0050923D02*
X0673291Y0050923D01*
X0668292Y0045924D02*
X0662109Y0045924D01*
X0583440Y0056633D02*
X0571640Y0068433D01*
X0560617Y0068433D02*
X0556728Y0064545D01*
X0556728Y0059354D01*
X0556588Y0059213D01*
X0552967Y0070917D02*
X0496539Y0070917D01*
X0498197Y0105906D02*
X0575075Y0105906D01*
X0575260Y0110905D02*
X0498197Y0110905D01*
X0497929Y0154012D02*
X0505528Y0154012D01*
X0507457Y0154811D01*
X0507610Y0154963D01*
X0507821Y0154876D01*
X0513942Y0154876D01*
X0514228Y0154994D01*
X0514514Y0154876D01*
X0520635Y0154876D01*
X0521525Y0155244D01*
X0523132Y0155244D01*
X0524021Y0154876D01*
X0530142Y0154876D01*
X0531796Y0155561D01*
X0533062Y0156827D01*
X0533747Y0158480D01*
X0533747Y0164208D01*
X0533062Y0165862D01*
X0531796Y0167128D01*
X0530142Y0167813D01*
X0524021Y0167813D01*
X0523786Y0167715D01*
X0523793Y0170464D01*
X0523827Y0170464D01*
X0525481Y0171149D01*
X0526747Y0172415D01*
X0527432Y0174069D01*
X0527432Y0175852D01*
X0527627Y0176193D01*
X0527677Y0176586D01*
X0527828Y0176951D01*
X0527828Y0177779D01*
X0527933Y0178600D01*
X0527828Y0178982D01*
X0527828Y0191520D01*
X0527917Y0191609D01*
X0529028Y0194292D01*
X0529028Y0197196D01*
X0527917Y0199879D01*
X0525863Y0201933D01*
X0523180Y0203044D01*
X0520276Y0203044D01*
X0517593Y0201933D01*
X0515540Y0199879D01*
X0514428Y0197196D01*
X0514428Y0194292D01*
X0515540Y0191609D01*
X0515628Y0191520D01*
X0515628Y0183844D01*
X0514351Y0183844D01*
X0513742Y0184453D01*
X0512088Y0185138D01*
X0505298Y0185138D01*
X0503644Y0184453D01*
X0502378Y0183187D01*
X0501693Y0181533D01*
X0501693Y0173955D01*
X0502378Y0172301D01*
X0503644Y0171035D01*
X0505298Y0170350D01*
X0511593Y0170350D01*
X0511586Y0167813D01*
X0507842Y0167813D01*
X0507457Y0168197D01*
X0505528Y0168996D01*
X0497929Y0168996D01*
X0497864Y0168969D01*
X0497864Y0172086D01*
X0498079Y0172301D01*
X0498764Y0173955D01*
X0498764Y0181533D01*
X0498079Y0183187D01*
X0497864Y0183402D01*
X0497864Y0191556D01*
X0497917Y0191609D01*
X0499028Y0194292D01*
X0499028Y0197196D01*
X0497917Y0199879D01*
X0495863Y0201933D01*
X0493180Y0203044D01*
X0490276Y0203044D01*
X0487593Y0201933D01*
X0487505Y0201844D01*
X0453626Y0201844D01*
X0453140Y0201643D01*
X0452334Y0201643D01*
X0449758Y0200576D01*
X0447786Y0198604D01*
X0446719Y0196027D01*
X0446719Y0193239D01*
X0447786Y0190662D01*
X0449758Y0188690D01*
X0452334Y0187623D01*
X0455123Y0187623D01*
X0457699Y0188690D01*
X0458653Y0189644D01*
X0485664Y0189644D01*
X0485664Y0183402D01*
X0485449Y0183187D01*
X0484764Y0181533D01*
X0484764Y0173955D01*
X0485449Y0172301D01*
X0485664Y0172086D01*
X0485664Y0167861D01*
X0484523Y0166721D01*
X0483724Y0164792D01*
X0483724Y0158216D01*
X0484523Y0156287D01*
X0486000Y0154811D01*
X0487929Y0154012D01*
X0495528Y0154012D01*
X0496728Y0154509D01*
X0497929Y0154012D01*
X0484919Y0155891D02*
X0442127Y0155891D01*
X0441796Y0155561D02*
X0443062Y0156827D01*
X0443747Y0158480D01*
X0443747Y0164208D01*
X0443062Y0165862D01*
X0441796Y0167128D01*
X0440142Y0167813D01*
X0434021Y0167813D01*
X0433786Y0167715D01*
X0433793Y0170464D01*
X0433827Y0170464D01*
X0435481Y0171149D01*
X0436747Y0172415D01*
X0437432Y0174069D01*
X0437432Y0175852D01*
X0437627Y0176193D01*
X0437677Y0176586D01*
X0437828Y0176951D01*
X0437828Y0177779D01*
X0437933Y0178600D01*
X0437828Y0178982D01*
X0437828Y0191520D01*
X0437917Y0191609D01*
X0439028Y0194292D01*
X0439028Y0197196D01*
X0437917Y0199879D01*
X0435863Y0201933D01*
X0433180Y0203044D01*
X0430276Y0203044D01*
X0427593Y0201933D01*
X0425540Y0199879D01*
X0424428Y0197196D01*
X0424428Y0194292D01*
X0425540Y0191609D01*
X0425628Y0191520D01*
X0425628Y0183844D01*
X0424351Y0183844D01*
X0423742Y0184453D01*
X0422088Y0185138D01*
X0415298Y0185138D01*
X0413644Y0184453D01*
X0412378Y0183187D01*
X0411693Y0181533D01*
X0411693Y0173955D01*
X0412378Y0172301D01*
X0413644Y0171035D01*
X0415298Y0170350D01*
X0421593Y0170350D01*
X0421586Y0167813D01*
X0417842Y0167813D01*
X0417457Y0168197D01*
X0415528Y0168996D01*
X0407929Y0168996D01*
X0407828Y0168955D01*
X0407828Y0172051D01*
X0408079Y0172301D01*
X0408764Y0173955D01*
X0408764Y0181533D01*
X0408079Y0183187D01*
X0407864Y0183402D01*
X0407864Y0191556D01*
X0407917Y0191609D01*
X0409028Y0194292D01*
X0409028Y0197196D01*
X0407917Y0199879D01*
X0405863Y0201933D01*
X0403180Y0203044D01*
X0400276Y0203044D01*
X0397593Y0201933D01*
X0397505Y0201844D01*
X0359126Y0201844D01*
X0358640Y0201643D01*
X0357834Y0201643D01*
X0355258Y0200576D01*
X0353286Y0198604D01*
X0352219Y0196027D01*
X0352219Y0193239D01*
X0353286Y0190662D01*
X0355258Y0188690D01*
X0357834Y0187623D01*
X0360623Y0187623D01*
X0363199Y0188690D01*
X0364153Y0189644D01*
X0395664Y0189644D01*
X0395664Y0183402D01*
X0395449Y0183187D01*
X0394764Y0181533D01*
X0394764Y0173955D01*
X0395449Y0172301D01*
X0395628Y0172122D01*
X0395628Y0167826D01*
X0394523Y0166721D01*
X0393724Y0164792D01*
X0393724Y0158216D01*
X0394523Y0156287D01*
X0396000Y0154811D01*
X0397929Y0154012D01*
X0405528Y0154012D01*
X0406728Y0154509D01*
X0407929Y0154012D01*
X0415528Y0154012D01*
X0417457Y0154811D01*
X0417610Y0154963D01*
X0417821Y0154876D01*
X0423942Y0154876D01*
X0424228Y0154994D01*
X0424514Y0154876D01*
X0430635Y0154876D01*
X0431753Y0155339D01*
X0432904Y0155339D01*
X0434021Y0154876D01*
X0440142Y0154876D01*
X0441796Y0155561D01*
X0443747Y0160890D02*
X0483724Y0160890D01*
X0484179Y0165888D02*
X0443035Y0165888D01*
X0434849Y0170887D02*
X0485664Y0170887D01*
X0484764Y0175885D02*
X0437451Y0175885D01*
X0437828Y0180884D02*
X0484764Y0180884D01*
X0485664Y0185882D02*
X0437828Y0185882D01*
X0437828Y0190881D02*
X0447695Y0190881D01*
X0446719Y0195879D02*
X0439028Y0195879D01*
X0436918Y0200878D02*
X0450487Y0200878D01*
X0443728Y0205877D02*
X0369728Y0205877D01*
X0371740Y0210875D02*
X0441717Y0210875D01*
X0442481Y0215874D02*
X0370975Y0215874D01*
X0370257Y0220872D02*
X0443200Y0220872D01*
X0441717Y0225871D02*
X0371740Y0225871D01*
X0370732Y0230869D02*
X0426280Y0230869D01*
X0424428Y0235868D02*
X0367711Y0235868D01*
X0361728Y0244043D02*
X0361728Y0258453D01*
X0351965Y0255862D02*
X0319028Y0255862D01*
X0316936Y0260860D02*
X0336289Y0260860D01*
X0334428Y0265859D02*
X0278481Y0265859D01*
X0281568Y0260860D02*
X0306521Y0260860D01*
X0304428Y0255862D02*
X0281492Y0255862D01*
X0271728Y0258453D02*
X0271728Y0244043D01*
X0361728Y0244043D01*
X0451728Y0244043D01*
X0451728Y0258453D01*
X0441965Y0255862D02*
X0409028Y0255862D01*
X0406936Y0260860D02*
X0426289Y0260860D01*
X0424428Y0265859D02*
X0368481Y0265859D01*
X0371568Y0260860D02*
X0396521Y0260860D01*
X0394428Y0255862D02*
X0371492Y0255862D01*
X0354975Y0265859D02*
X0350147Y0265859D01*
X0351889Y0260860D02*
X0347168Y0260860D01*
X0341728Y0265744D02*
X0356413Y0288374D01*
X0347157Y0290851D02*
X0342798Y0290851D01*
X0346433Y0285853D02*
X0275652Y0285853D01*
X0272329Y0280854D02*
X0343189Y0280854D01*
X0339945Y0275856D02*
X0266635Y0275856D01*
X0263391Y0270857D02*
X0336518Y0270857D01*
X0353391Y0270857D02*
X0426518Y0270857D01*
X0429945Y0275856D02*
X0356635Y0275856D01*
X0362329Y0280854D02*
X0433189Y0280854D01*
X0436433Y0285853D02*
X0365652Y0285853D01*
X0370357Y0290851D02*
X0393100Y0290851D01*
X0389867Y0295850D02*
X0373590Y0295850D01*
X0376543Y0300848D02*
X0389977Y0300848D01*
X0393364Y0305847D02*
X0381541Y0305847D01*
X0379228Y0313433D02*
X0439228Y0313433D01*
X0454228Y0298433D01*
X0454287Y0298217D01*
X0454228Y0298433D02*
X0469228Y0313433D01*
X0529228Y0313433D01*
X0544228Y0298433D01*
X0544287Y0298217D01*
X0544228Y0298433D02*
X0559228Y0313433D01*
X0619228Y0313433D01*
X0634228Y0298433D01*
X0634287Y0298217D01*
X0634228Y0298433D02*
X0649228Y0313433D01*
X0709228Y0313433D01*
X0724228Y0298433D01*
X0724287Y0298217D01*
X0733480Y0300848D02*
X0735595Y0300848D01*
X0742201Y0302587D02*
X0742201Y0302587D01*
X0746836Y0301852D02*
X0746836Y0301852D01*
X0748807Y0300848D02*
X0752699Y0300848D01*
X0752699Y0305847D02*
X0730092Y0305847D01*
X0721716Y0310845D02*
X0752699Y0310845D01*
X0752699Y0315844D02*
X0716717Y0315844D01*
X0706915Y0305847D02*
X0702533Y0305847D01*
X0705921Y0300848D02*
X0711914Y0300848D01*
X0710454Y0295850D02*
X0706031Y0295850D01*
X0707157Y0290851D02*
X0702798Y0290851D01*
X0706433Y0285853D02*
X0635652Y0285853D01*
X0632329Y0280854D02*
X0703189Y0280854D01*
X0699945Y0275856D02*
X0626635Y0275856D01*
X0623391Y0270857D02*
X0696518Y0270857D01*
X0701728Y0265744D02*
X0716413Y0288374D01*
X0725652Y0285853D02*
X0727475Y0285853D01*
X0727935Y0282951D02*
X0727935Y0282951D01*
X0729003Y0280854D02*
X0722329Y0280854D01*
X0730066Y0278770D02*
X0730066Y0278770D01*
X0732980Y0275856D02*
X0716635Y0275856D01*
X0713391Y0270857D02*
X0752699Y0270857D01*
X0751018Y0275451D02*
X0751018Y0275451D01*
X0751422Y0275856D02*
X0752699Y0275856D01*
X0746836Y0273321D02*
X0746836Y0273321D01*
X0752699Y0265859D02*
X0728481Y0265859D01*
X0731568Y0260860D02*
X0752699Y0260860D01*
X0752699Y0255862D02*
X0731492Y0255862D01*
X0714975Y0265859D02*
X0710147Y0265859D01*
X0711889Y0260860D02*
X0707168Y0260860D01*
X0709028Y0235868D02*
X0715745Y0235868D01*
X0712724Y0230869D02*
X0707177Y0230869D01*
X0711717Y0225871D02*
X0641740Y0225871D01*
X0640257Y0220872D02*
X0713200Y0220872D01*
X0712481Y0215874D02*
X0640975Y0215874D01*
X0641740Y0210875D02*
X0711717Y0210875D01*
X0713728Y0205877D02*
X0639728Y0205877D01*
X0628646Y0200878D02*
X0616918Y0200878D01*
X0617917Y0199879D02*
X0615863Y0201933D01*
X0613180Y0203044D01*
X0610276Y0203044D01*
X0607593Y0201933D01*
X0605540Y0199879D01*
X0604428Y0197196D01*
X0604428Y0194292D01*
X0605540Y0191609D01*
X0605628Y0191520D01*
X0605628Y0183844D01*
X0604351Y0183844D01*
X0603742Y0184453D01*
X0602088Y0185138D01*
X0595298Y0185138D01*
X0593644Y0184453D01*
X0592378Y0183187D01*
X0591693Y0181533D01*
X0591693Y0173955D01*
X0592378Y0172301D01*
X0593644Y0171035D01*
X0595298Y0170350D01*
X0601593Y0170350D01*
X0601586Y0167813D01*
X0597842Y0167813D01*
X0597457Y0168197D01*
X0595528Y0168996D01*
X0587929Y0168996D01*
X0587864Y0168969D01*
X0587864Y0172086D01*
X0588079Y0172301D01*
X0588764Y0173955D01*
X0588764Y0181533D01*
X0588079Y0183187D01*
X0587828Y0183437D01*
X0587828Y0191520D01*
X0587917Y0191609D01*
X0589028Y0194292D01*
X0589028Y0197196D01*
X0587917Y0199879D01*
X0585863Y0201933D01*
X0583180Y0203044D01*
X0580276Y0203044D01*
X0577593Y0201933D01*
X0577505Y0201844D01*
X0541626Y0201844D01*
X0541140Y0201643D01*
X0540334Y0201643D01*
X0537758Y0200576D01*
X0535786Y0198604D01*
X0534719Y0196027D01*
X0534719Y0193239D01*
X0535786Y0190662D01*
X0537758Y0188690D01*
X0540334Y0187623D01*
X0543123Y0187623D01*
X0545699Y0188690D01*
X0546653Y0189644D01*
X0575628Y0189644D01*
X0575628Y0183366D01*
X0575449Y0183187D01*
X0574764Y0181533D01*
X0574764Y0173955D01*
X0575449Y0172301D01*
X0575664Y0172086D01*
X0575664Y0167861D01*
X0574523Y0166721D01*
X0573724Y0164792D01*
X0573724Y0158216D01*
X0574523Y0156287D01*
X0576000Y0154811D01*
X0577929Y0154012D01*
X0585528Y0154012D01*
X0586728Y0154509D01*
X0587929Y0154012D01*
X0595528Y0154012D01*
X0597457Y0154811D01*
X0597610Y0154963D01*
X0597821Y0154876D01*
X0603942Y0154876D01*
X0604228Y0154994D01*
X0604514Y0154876D01*
X0610635Y0154876D01*
X0611753Y0155339D01*
X0612904Y0155339D01*
X0614021Y0154876D01*
X0620142Y0154876D01*
X0621796Y0155561D01*
X0623062Y0156827D01*
X0623747Y0158480D01*
X0623747Y0164208D01*
X0623062Y0165862D01*
X0621796Y0167128D01*
X0620142Y0167813D01*
X0614021Y0167813D01*
X0613786Y0167715D01*
X0613793Y0170464D01*
X0613827Y0170464D01*
X0615481Y0171149D01*
X0616747Y0172415D01*
X0617432Y0174069D01*
X0617432Y0175852D01*
X0617627Y0176193D01*
X0617677Y0176586D01*
X0617828Y0176951D01*
X0617828Y0177779D01*
X0617933Y0178600D01*
X0617828Y0178982D01*
X0617828Y0191520D01*
X0617917Y0191609D01*
X0619028Y0194292D01*
X0619028Y0197196D01*
X0617917Y0199879D01*
X0619028Y0195879D02*
X0625119Y0195879D01*
X0626137Y0190881D02*
X0617828Y0190881D01*
X0617828Y0185882D02*
X0665628Y0185882D01*
X0664764Y0180884D02*
X0617828Y0180884D01*
X0617451Y0175885D02*
X0664764Y0175885D01*
X0665664Y0170887D02*
X0614849Y0170887D01*
X0623035Y0165888D02*
X0664179Y0165888D01*
X0663724Y0160890D02*
X0623747Y0160890D01*
X0622127Y0155891D02*
X0664728Y0155891D01*
X0671728Y0151133D02*
X0671728Y0161504D01*
X0677864Y0170887D02*
X0684002Y0170887D01*
X0681693Y0175885D02*
X0678764Y0175885D01*
X0678764Y0180884D02*
X0681693Y0180884D01*
X0707828Y0190881D02*
X0718080Y0190881D01*
X0720263Y0193367D02*
X0720263Y0193367D01*
X0722775Y0195879D02*
X0709028Y0195879D01*
X0706918Y0200878D02*
X0727774Y0200878D01*
X0729728Y0205877D02*
X0732528Y0205877D01*
X0732528Y0210875D02*
X0731740Y0210875D01*
X0730975Y0215874D02*
X0732528Y0215874D01*
X0732528Y0220872D02*
X0730257Y0220872D01*
X0696280Y0230869D02*
X0640732Y0230869D01*
X0637711Y0235868D02*
X0694428Y0235868D01*
X0631728Y0244043D02*
X0541728Y0244043D01*
X0541728Y0258453D01*
X0551492Y0255862D02*
X0574428Y0255862D01*
X0576521Y0260860D02*
X0551568Y0260860D01*
X0548481Y0265859D02*
X0604428Y0265859D01*
X0606289Y0260860D02*
X0586936Y0260860D01*
X0589028Y0255862D02*
X0621965Y0255862D01*
X0621889Y0260860D02*
X0617168Y0260860D01*
X0620147Y0265859D02*
X0624975Y0265859D01*
X0611728Y0265744D02*
X0626413Y0288374D01*
X0617157Y0290851D02*
X0612798Y0290851D01*
X0616433Y0285853D02*
X0545652Y0285853D01*
X0542329Y0280854D02*
X0613189Y0280854D01*
X0609945Y0275856D02*
X0536635Y0275856D01*
X0533391Y0270857D02*
X0606518Y0270857D01*
X0600659Y0290851D02*
X0585239Y0290851D01*
X0573100Y0290851D02*
X0550357Y0290851D01*
X0553590Y0295850D02*
X0569867Y0295850D01*
X0569977Y0300848D02*
X0556543Y0300848D01*
X0561541Y0305847D02*
X0573364Y0305847D01*
X0584974Y0305847D02*
X0600924Y0305847D01*
X0612533Y0305847D02*
X0616915Y0305847D01*
X0615921Y0300848D02*
X0621914Y0300848D01*
X0620454Y0295850D02*
X0616031Y0295850D01*
X0597426Y0295850D02*
X0588472Y0295850D01*
X0588362Y0300848D02*
X0597536Y0300848D01*
X0626717Y0315844D02*
X0641740Y0315844D01*
X0636741Y0310845D02*
X0631716Y0310845D01*
X0651541Y0305847D02*
X0663364Y0305847D01*
X0674974Y0305847D02*
X0690924Y0305847D01*
X0687536Y0300848D02*
X0678362Y0300848D01*
X0678472Y0295850D02*
X0687426Y0295850D01*
X0690659Y0290851D02*
X0675239Y0290851D01*
X0663100Y0290851D02*
X0640357Y0290851D01*
X0643590Y0295850D02*
X0659867Y0295850D01*
X0659977Y0300848D02*
X0646543Y0300848D01*
X0623259Y0330839D02*
X0680198Y0330839D01*
X0677386Y0335838D02*
X0626071Y0335838D01*
X0625508Y0340836D02*
X0677949Y0340836D01*
X0695822Y0340836D02*
X0697634Y0340836D01*
X0697071Y0335838D02*
X0696386Y0335838D01*
X0693574Y0330839D02*
X0699883Y0330839D01*
X0713259Y0330839D02*
X0752699Y0330839D01*
X0752699Y0335838D02*
X0716071Y0335838D01*
X0715508Y0340836D02*
X0752699Y0340836D01*
X0752699Y0325841D02*
X0026978Y0325841D01*
X0026978Y0320842D02*
X0752699Y0320842D01*
X0609883Y0330839D02*
X0603574Y0330839D01*
X0606386Y0335838D02*
X0607071Y0335838D01*
X0607634Y0340836D02*
X0605822Y0340836D01*
X0587949Y0340836D02*
X0535508Y0340836D01*
X0536071Y0335838D02*
X0587386Y0335838D01*
X0590198Y0330839D02*
X0533259Y0330839D01*
X0519883Y0330839D02*
X0513574Y0330839D01*
X0516386Y0335838D02*
X0517071Y0335838D01*
X0517634Y0340836D02*
X0515822Y0340836D01*
X0497949Y0340836D02*
X0445508Y0340836D01*
X0446071Y0335838D02*
X0497386Y0335838D01*
X0500198Y0330839D02*
X0443259Y0330839D01*
X0429883Y0330839D02*
X0423574Y0330839D01*
X0426386Y0335838D02*
X0427071Y0335838D01*
X0427634Y0340836D02*
X0425822Y0340836D01*
X0407949Y0340836D02*
X0355508Y0340836D01*
X0356071Y0335838D02*
X0407386Y0335838D01*
X0410198Y0330839D02*
X0353259Y0330839D01*
X0339883Y0330839D02*
X0333574Y0330839D01*
X0336386Y0335838D02*
X0337071Y0335838D01*
X0337634Y0340836D02*
X0335822Y0340836D01*
X0320198Y0330839D02*
X0263259Y0330839D01*
X0266071Y0335838D02*
X0317386Y0335838D01*
X0317949Y0340836D02*
X0265508Y0340836D01*
X0247634Y0340836D02*
X0245822Y0340836D01*
X0246386Y0335838D02*
X0247071Y0335838D01*
X0249883Y0330839D02*
X0243574Y0330839D01*
X0230198Y0330839D02*
X0173259Y0330839D01*
X0176071Y0335838D02*
X0227386Y0335838D01*
X0227949Y0340836D02*
X0175508Y0340836D01*
X0159883Y0330839D02*
X0153574Y0330839D01*
X0156386Y0335838D02*
X0157071Y0335838D01*
X0157634Y0340836D02*
X0155822Y0340836D01*
X0137949Y0340836D02*
X0085508Y0340836D01*
X0086071Y0335838D02*
X0137386Y0335838D01*
X0140198Y0330839D02*
X0083259Y0330839D01*
X0069883Y0330839D02*
X0063574Y0330839D01*
X0066386Y0335838D02*
X0067071Y0335838D01*
X0067634Y0340836D02*
X0065822Y0340836D01*
X0047949Y0340836D02*
X0026978Y0340836D01*
X0026978Y0335838D02*
X0047386Y0335838D01*
X0050198Y0330839D02*
X0026978Y0330839D01*
X0026978Y0315844D02*
X0101740Y0315844D01*
X0096741Y0310845D02*
X0026978Y0310845D01*
X0026978Y0305847D02*
X0033364Y0305847D01*
X0033788Y0306270D02*
X0031116Y0303598D01*
X0029669Y0300106D01*
X0029669Y0296327D01*
X0031116Y0292835D01*
X0033788Y0290163D01*
X0037280Y0288717D01*
X0041059Y0288717D01*
X0044551Y0290163D01*
X0047223Y0292835D01*
X0048669Y0296327D01*
X0048669Y0300106D01*
X0047223Y0303598D01*
X0044551Y0306270D01*
X0041059Y0307717D01*
X0037280Y0307717D01*
X0033788Y0306270D01*
X0044974Y0305847D02*
X0060924Y0305847D01*
X0061347Y0306270D02*
X0058675Y0303598D01*
X0057228Y0300106D01*
X0057228Y0296327D01*
X0058675Y0292835D01*
X0061347Y0290163D01*
X0064839Y0288717D01*
X0068618Y0288717D01*
X0072110Y0290163D01*
X0074782Y0292835D01*
X0076228Y0296327D01*
X0076228Y0300106D01*
X0074782Y0303598D01*
X0072110Y0306270D01*
X0068618Y0307717D01*
X0064839Y0307717D01*
X0061347Y0306270D01*
X0072533Y0305847D02*
X0088483Y0305847D01*
X0085095Y0300848D02*
X0075921Y0300848D01*
X0076031Y0295850D02*
X0080454Y0295850D01*
X0077157Y0290851D02*
X0072798Y0290851D01*
X0076433Y0285853D02*
X0026978Y0285853D01*
X0026978Y0290851D02*
X0033100Y0290851D01*
X0045239Y0290851D02*
X0060659Y0290851D01*
X0057426Y0295850D02*
X0048472Y0295850D01*
X0048362Y0300848D02*
X0057536Y0300848D01*
X0029977Y0300848D02*
X0026978Y0300848D01*
X0026978Y0295850D02*
X0029867Y0295850D01*
X0026978Y0280854D02*
X0073189Y0280854D01*
X0069945Y0275856D02*
X0026978Y0275856D01*
X0026978Y0270857D02*
X0066518Y0270857D01*
X0064428Y0265859D02*
X0026978Y0265859D01*
X0026978Y0260860D02*
X0036521Y0260860D01*
X0035540Y0259879D02*
X0034428Y0257196D01*
X0034428Y0254292D01*
X0035540Y0251609D01*
X0037593Y0249555D01*
X0040276Y0248444D01*
X0043180Y0248444D01*
X0045863Y0249555D01*
X0047917Y0251609D01*
X0049028Y0254292D01*
X0049028Y0257196D01*
X0047917Y0259879D01*
X0045863Y0261933D01*
X0043180Y0263044D01*
X0040276Y0263044D01*
X0037593Y0261933D01*
X0035540Y0259879D01*
X0034428Y0255862D02*
X0026978Y0255862D01*
X0026978Y0250863D02*
X0036286Y0250863D01*
X0026978Y0245865D02*
X0081717Y0245865D01*
X0082208Y0240866D02*
X0076930Y0240866D01*
X0077917Y0239879D02*
X0075863Y0241933D01*
X0073180Y0243044D01*
X0070276Y0243044D01*
X0067593Y0241933D01*
X0065540Y0239879D01*
X0064428Y0237196D01*
X0064428Y0234292D01*
X0065540Y0231609D01*
X0067593Y0229555D01*
X0070276Y0228444D01*
X0073180Y0228444D01*
X0075863Y0229555D01*
X0077917Y0231609D01*
X0079028Y0234292D01*
X0079028Y0237196D01*
X0077917Y0239879D01*
X0079028Y0235868D02*
X0085745Y0235868D01*
X0082724Y0230869D02*
X0077177Y0230869D01*
X0081717Y0225871D02*
X0026978Y0225871D01*
X0026978Y0220872D02*
X0083200Y0220872D01*
X0082481Y0215874D02*
X0026978Y0215874D01*
X0026978Y0210875D02*
X0081717Y0210875D01*
X0083728Y0205877D02*
X0026978Y0205877D01*
X0026978Y0200878D02*
X0036538Y0200878D01*
X0034428Y0195879D02*
X0026978Y0195879D01*
X0026978Y0190881D02*
X0035664Y0190881D01*
X0035664Y0185882D02*
X0026978Y0185882D01*
X0026978Y0180884D02*
X0034764Y0180884D01*
X0034764Y0175885D02*
X0026978Y0175885D01*
X0026978Y0170887D02*
X0035664Y0170887D01*
X0034179Y0165888D02*
X0026978Y0165888D01*
X0026978Y0160890D02*
X0033724Y0160890D01*
X0034919Y0155891D02*
X0026978Y0155891D01*
X0047864Y0170887D02*
X0054002Y0170887D01*
X0051693Y0175885D02*
X0048764Y0175885D01*
X0048764Y0180884D02*
X0051693Y0180884D01*
X0047864Y0185882D02*
X0065628Y0185882D01*
X0065628Y0190881D02*
X0047864Y0190881D01*
X0049028Y0195879D02*
X0064428Y0195879D01*
X0066538Y0200878D02*
X0046918Y0200878D01*
X0076918Y0200878D02*
X0091060Y0200878D01*
X0088219Y0195879D02*
X0079028Y0195879D01*
X0077828Y0190881D02*
X0089567Y0190881D01*
X0099728Y0205877D02*
X0173728Y0205877D01*
X0171717Y0210875D02*
X0101740Y0210875D01*
X0100975Y0215874D02*
X0172481Y0215874D01*
X0173200Y0220872D02*
X0100257Y0220872D01*
X0101740Y0225871D02*
X0171717Y0225871D01*
X0172724Y0230869D02*
X0167177Y0230869D01*
X0169028Y0235868D02*
X0175745Y0235868D01*
X0187711Y0235868D02*
X0244428Y0235868D01*
X0246280Y0230869D02*
X0190732Y0230869D01*
X0191740Y0225871D02*
X0261717Y0225871D01*
X0263200Y0220872D02*
X0190257Y0220872D01*
X0190975Y0215874D02*
X0262481Y0215874D01*
X0261717Y0210875D02*
X0191740Y0210875D01*
X0189728Y0205877D02*
X0263728Y0205877D01*
X0270187Y0200878D02*
X0256918Y0200878D01*
X0259028Y0195879D02*
X0266419Y0195879D01*
X0267395Y0190881D02*
X0257828Y0190881D01*
X0245628Y0190881D02*
X0227864Y0190881D01*
X0229028Y0195879D02*
X0244428Y0195879D01*
X0246538Y0200878D02*
X0226918Y0200878D01*
X0279728Y0205877D02*
X0353728Y0205877D01*
X0351717Y0210875D02*
X0281740Y0210875D01*
X0280975Y0215874D02*
X0352481Y0215874D01*
X0353200Y0220872D02*
X0280257Y0220872D01*
X0281740Y0225871D02*
X0351717Y0225871D01*
X0352724Y0230869D02*
X0347177Y0230869D01*
X0349028Y0235868D02*
X0355745Y0235868D01*
X0336280Y0230869D02*
X0280732Y0230869D01*
X0277711Y0235868D02*
X0334428Y0235868D01*
X0271728Y0244043D02*
X0181728Y0244043D01*
X0181728Y0258453D01*
X0171965Y0255862D02*
X0139028Y0255862D01*
X0136936Y0260860D02*
X0156289Y0260860D01*
X0154428Y0265859D02*
X0098481Y0265859D01*
X0101739Y0269384D02*
X0101739Y0269384D01*
X0098847Y0270857D02*
X0083391Y0270857D01*
X0086635Y0275856D02*
X0093718Y0275856D01*
X0092108Y0279014D02*
X0092108Y0279014D01*
X0113901Y0270857D02*
X0156518Y0270857D01*
X0159945Y0275856D02*
X0119030Y0275856D01*
X0118509Y0274833D02*
X0118509Y0274833D01*
X0115191Y0271514D02*
X0115191Y0271514D01*
X0106374Y0268650D02*
X0106374Y0268650D01*
X0101568Y0260860D02*
X0126521Y0260860D01*
X0124428Y0255862D02*
X0101492Y0255862D01*
X0091728Y0258453D02*
X0091728Y0244043D01*
X0181728Y0244043D01*
X0154428Y0235868D02*
X0097711Y0235868D01*
X0100732Y0230869D02*
X0156280Y0230869D01*
X0191492Y0255862D02*
X0214428Y0255862D01*
X0216521Y0260860D02*
X0191568Y0260860D01*
X0188481Y0265859D02*
X0244428Y0265859D01*
X0246289Y0260860D02*
X0226936Y0260860D01*
X0229028Y0255862D02*
X0261965Y0255862D01*
X0261889Y0260860D02*
X0257168Y0260860D01*
X0260147Y0265859D02*
X0264975Y0265859D01*
X0251728Y0265744D02*
X0266413Y0288374D01*
X0280357Y0290851D02*
X0303100Y0290851D01*
X0299867Y0295850D02*
X0283590Y0295850D01*
X0286543Y0300848D02*
X0299977Y0300848D01*
X0303364Y0305847D02*
X0291541Y0305847D01*
X0289228Y0313433D02*
X0274228Y0298433D01*
X0274287Y0298217D01*
X0274228Y0298433D02*
X0259228Y0313433D01*
X0199228Y0313433D01*
X0184228Y0298433D01*
X0184287Y0298217D01*
X0184228Y0298433D02*
X0169228Y0313433D01*
X0109228Y0313433D01*
X0094228Y0298433D01*
X0094287Y0298217D01*
X0106374Y0298650D02*
X0106374Y0298650D01*
X0106543Y0300848D02*
X0119977Y0300848D01*
X0119867Y0295850D02*
X0115064Y0295850D01*
X0111009Y0297915D02*
X0111009Y0297915D01*
X0119332Y0290851D02*
X0123100Y0290851D01*
X0120640Y0288285D02*
X0120640Y0288285D01*
X0121025Y0285853D02*
X0166433Y0285853D01*
X0167157Y0290851D02*
X0162798Y0290851D01*
X0166031Y0295850D02*
X0170454Y0295850D01*
X0171914Y0300848D02*
X0165921Y0300848D01*
X0166915Y0305847D02*
X0162533Y0305847D01*
X0150924Y0305847D02*
X0134974Y0305847D01*
X0123364Y0305847D02*
X0111541Y0305847D01*
X0138362Y0300848D02*
X0147536Y0300848D01*
X0147426Y0295850D02*
X0138472Y0295850D01*
X0135239Y0290851D02*
X0150659Y0290851D01*
X0163189Y0280854D02*
X0120931Y0280854D01*
X0086413Y0288374D02*
X0071728Y0265744D01*
X0066289Y0260860D02*
X0046936Y0260860D01*
X0049028Y0255862D02*
X0081965Y0255862D01*
X0081889Y0260860D02*
X0077168Y0260860D01*
X0080147Y0265859D02*
X0084975Y0265859D01*
X0084389Y0250863D02*
X0047171Y0250863D01*
X0066527Y0240866D02*
X0026978Y0240866D01*
X0026978Y0235868D02*
X0064428Y0235868D01*
X0066280Y0230869D02*
X0026978Y0230869D01*
X0161728Y0265744D02*
X0176413Y0288374D01*
X0185652Y0285853D02*
X0256433Y0285853D01*
X0257157Y0290851D02*
X0252798Y0290851D01*
X0256031Y0295850D02*
X0260454Y0295850D01*
X0261914Y0300848D02*
X0255921Y0300848D01*
X0256915Y0305847D02*
X0252533Y0305847D01*
X0240924Y0305847D02*
X0224974Y0305847D01*
X0213364Y0305847D02*
X0201541Y0305847D01*
X0196543Y0300848D02*
X0209977Y0300848D01*
X0209867Y0295850D02*
X0193590Y0295850D01*
X0190357Y0290851D02*
X0213100Y0290851D01*
X0225239Y0290851D02*
X0240659Y0290851D01*
X0237426Y0295850D02*
X0228472Y0295850D01*
X0228362Y0300848D02*
X0237536Y0300848D01*
X0266717Y0315844D02*
X0281740Y0315844D01*
X0283294Y0317398D02*
X0283294Y0317398D01*
X0289228Y0313433D02*
X0349228Y0313433D01*
X0364228Y0298433D01*
X0364287Y0298217D01*
X0364228Y0298433D02*
X0379228Y0313433D01*
X0371740Y0315844D02*
X0356717Y0315844D01*
X0361716Y0310845D02*
X0366741Y0310845D01*
X0351914Y0300848D02*
X0345921Y0300848D01*
X0346031Y0295850D02*
X0350454Y0295850D01*
X0346915Y0305847D02*
X0342533Y0305847D01*
X0330924Y0305847D02*
X0314974Y0305847D01*
X0318362Y0300848D02*
X0327536Y0300848D01*
X0327426Y0295850D02*
X0318472Y0295850D01*
X0315239Y0290851D02*
X0330659Y0290851D01*
X0276741Y0310845D02*
X0271716Y0310845D01*
X0253189Y0280854D02*
X0182329Y0280854D01*
X0176635Y0275856D02*
X0249945Y0275856D01*
X0246518Y0270857D02*
X0173391Y0270857D01*
X0174975Y0265859D02*
X0170147Y0265859D01*
X0171889Y0260860D02*
X0167168Y0260860D01*
X0257177Y0230869D02*
X0262724Y0230869D01*
X0265745Y0235868D02*
X0259028Y0235868D01*
X0316918Y0200878D02*
X0336538Y0200878D01*
X0334428Y0195879D02*
X0319028Y0195879D01*
X0317864Y0190881D02*
X0335628Y0190881D01*
X0347828Y0190881D02*
X0353195Y0190881D01*
X0352219Y0195879D02*
X0349028Y0195879D01*
X0346918Y0200878D02*
X0355987Y0200878D01*
X0347828Y0185882D02*
X0395664Y0185882D01*
X0394764Y0180884D02*
X0347828Y0180884D01*
X0335628Y0185882D02*
X0317864Y0185882D01*
X0318764Y0180884D02*
X0321693Y0180884D01*
X0321693Y0175885D02*
X0318764Y0175885D01*
X0317828Y0170887D02*
X0324002Y0170887D01*
X0344849Y0170887D02*
X0395628Y0170887D01*
X0394764Y0175885D02*
X0347432Y0175885D01*
X0353035Y0165888D02*
X0394179Y0165888D01*
X0393724Y0160890D02*
X0353748Y0160890D01*
X0352129Y0155891D02*
X0394919Y0155891D01*
X0407828Y0170887D02*
X0414002Y0170887D01*
X0411693Y0175885D02*
X0408764Y0175885D01*
X0408764Y0180884D02*
X0411693Y0180884D01*
X0407864Y0185882D02*
X0425628Y0185882D01*
X0425628Y0190881D02*
X0407864Y0190881D01*
X0409028Y0195879D02*
X0424428Y0195879D01*
X0426538Y0200878D02*
X0406918Y0200878D01*
X0459728Y0205877D02*
X0533728Y0205877D01*
X0531717Y0210875D02*
X0461740Y0210875D01*
X0460975Y0215874D02*
X0532481Y0215874D01*
X0533200Y0220872D02*
X0460257Y0220872D01*
X0461740Y0225871D02*
X0531717Y0225871D01*
X0532724Y0230869D02*
X0527177Y0230869D01*
X0529028Y0235868D02*
X0535745Y0235868D01*
X0541728Y0244043D02*
X0451728Y0244043D01*
X0445745Y0235868D02*
X0439028Y0235868D01*
X0437177Y0230869D02*
X0442724Y0230869D01*
X0457711Y0235868D02*
X0514428Y0235868D01*
X0516280Y0230869D02*
X0460732Y0230869D01*
X0461492Y0255862D02*
X0484428Y0255862D01*
X0486521Y0260860D02*
X0461568Y0260860D01*
X0458481Y0265859D02*
X0514428Y0265859D01*
X0516289Y0260860D02*
X0496936Y0260860D01*
X0499028Y0255862D02*
X0531965Y0255862D01*
X0531889Y0260860D02*
X0527168Y0260860D01*
X0530147Y0265859D02*
X0534975Y0265859D01*
X0521728Y0265744D02*
X0536413Y0288374D01*
X0527157Y0290851D02*
X0522798Y0290851D01*
X0526433Y0285853D02*
X0455652Y0285853D01*
X0452329Y0280854D02*
X0523189Y0280854D01*
X0519945Y0275856D02*
X0446635Y0275856D01*
X0443391Y0270857D02*
X0516518Y0270857D01*
X0510659Y0290851D02*
X0495239Y0290851D01*
X0498472Y0295850D02*
X0507426Y0295850D01*
X0507536Y0300848D02*
X0498362Y0300848D01*
X0494974Y0305847D02*
X0510924Y0305847D01*
X0522533Y0305847D02*
X0526915Y0305847D01*
X0525921Y0300848D02*
X0531914Y0300848D01*
X0530454Y0295850D02*
X0526031Y0295850D01*
X0541716Y0310845D02*
X0546741Y0310845D01*
X0551740Y0315844D02*
X0536717Y0315844D01*
X0483364Y0305847D02*
X0471541Y0305847D01*
X0466543Y0300848D02*
X0479977Y0300848D01*
X0479867Y0295850D02*
X0463590Y0295850D01*
X0460357Y0290851D02*
X0483100Y0290851D01*
X0446413Y0288374D02*
X0431728Y0265744D01*
X0437168Y0260860D02*
X0441889Y0260860D01*
X0440147Y0265859D02*
X0444975Y0265859D01*
X0437157Y0290851D02*
X0432798Y0290851D01*
X0420659Y0290851D02*
X0405239Y0290851D01*
X0408472Y0295850D02*
X0417426Y0295850D01*
X0417536Y0300848D02*
X0408362Y0300848D01*
X0404974Y0305847D02*
X0420924Y0305847D01*
X0432533Y0305847D02*
X0436915Y0305847D01*
X0435921Y0300848D02*
X0441914Y0300848D01*
X0440454Y0295850D02*
X0436031Y0295850D01*
X0451716Y0310845D02*
X0456741Y0310845D01*
X0461740Y0315844D02*
X0446717Y0315844D01*
X0547711Y0235868D02*
X0604428Y0235868D01*
X0606280Y0230869D02*
X0550732Y0230869D01*
X0551740Y0225871D02*
X0621717Y0225871D01*
X0623200Y0220872D02*
X0550257Y0220872D01*
X0550975Y0215874D02*
X0622481Y0215874D01*
X0621717Y0210875D02*
X0551740Y0210875D01*
X0549728Y0205877D02*
X0623728Y0205877D01*
X0606538Y0200878D02*
X0586918Y0200878D01*
X0589028Y0195879D02*
X0604428Y0195879D01*
X0605628Y0190881D02*
X0587828Y0190881D01*
X0587828Y0185882D02*
X0605628Y0185882D01*
X0591693Y0180884D02*
X0588764Y0180884D01*
X0588764Y0175885D02*
X0591693Y0175885D01*
X0594002Y0170887D02*
X0587864Y0170887D01*
X0575664Y0170887D02*
X0524849Y0170887D01*
X0527451Y0175885D02*
X0574764Y0175885D01*
X0574764Y0180884D02*
X0527828Y0180884D01*
X0527828Y0185882D02*
X0575628Y0185882D01*
X0574179Y0165888D02*
X0533035Y0165888D01*
X0533747Y0160890D02*
X0573724Y0160890D01*
X0574919Y0155891D02*
X0532127Y0155891D01*
X0504002Y0170887D02*
X0497864Y0170887D01*
X0498764Y0175885D02*
X0501693Y0175885D01*
X0501693Y0180884D02*
X0498764Y0180884D01*
X0497864Y0185882D02*
X0515628Y0185882D01*
X0515628Y0190881D02*
X0497864Y0190881D01*
X0499028Y0195879D02*
X0514428Y0195879D01*
X0516538Y0200878D02*
X0496918Y0200878D01*
X0526918Y0200878D02*
X0538487Y0200878D01*
X0534719Y0195879D02*
X0529028Y0195879D01*
X0527828Y0190881D02*
X0535695Y0190881D01*
X0617177Y0230869D02*
X0622724Y0230869D01*
X0625745Y0235868D02*
X0619028Y0235868D01*
X0586922Y0130899D02*
X0666534Y0130899D01*
X0663724Y0125900D02*
X0589732Y0125900D01*
X0589732Y0120902D02*
X0663724Y0120902D01*
X0665628Y0115903D02*
X0587828Y0115903D01*
X0588197Y0110905D02*
X0665260Y0110905D01*
X0664610Y0105906D02*
X0588197Y0105906D01*
X0216534Y0130899D02*
X0136922Y0130899D01*
X0139732Y0125900D02*
X0203260Y0125900D01*
X0203272Y0120902D02*
X0139732Y0120902D01*
X0137828Y0115903D02*
X0203260Y0115903D01*
X0203628Y0110905D02*
X0138197Y0110905D01*
X0125260Y0110905D02*
X0122383Y0110905D01*
X0125628Y0115903D02*
X0117385Y0115903D01*
X0112386Y0120902D02*
X0123724Y0120902D01*
X0123724Y0125900D02*
X0107388Y0125900D01*
X0102389Y0130899D02*
X0126534Y0130899D01*
X0051487Y0085912D02*
X0026978Y0085912D01*
X0026978Y0060920D02*
X0173414Y0060920D01*
X0173337Y0055921D02*
X0174087Y0055921D01*
X0166120Y0055921D02*
X0163337Y0055921D01*
X0156120Y0055921D02*
X0153337Y0055921D01*
X0146120Y0055921D02*
X0143337Y0055921D01*
X0136120Y0055921D02*
X0123337Y0055921D01*
X0127928Y0050923D02*
X0131528Y0050923D01*
X0116120Y0055921D02*
X0113337Y0055921D01*
X0106120Y0055921D02*
X0103337Y0055921D01*
X0096120Y0055921D02*
X0093337Y0055921D01*
X0086120Y0055921D02*
X0083337Y0055921D01*
X0076120Y0055921D02*
X0073337Y0055921D01*
X0066120Y0055921D02*
X0047698Y0055921D01*
X0049372Y0055068D02*
X0049372Y0055068D01*
X0052690Y0051750D02*
X0052690Y0051750D01*
X0053112Y0050923D02*
X0061528Y0050923D01*
X0056123Y0045924D02*
X0055081Y0045924D01*
X0045190Y0057199D02*
X0045190Y0057199D01*
X0040555Y0057933D02*
X0040555Y0057933D01*
X0033412Y0055921D02*
X0026978Y0055921D01*
X0031738Y0055068D02*
X0031738Y0055068D01*
X0027998Y0050923D02*
X0026978Y0050923D01*
X0181716Y0310845D02*
X0186741Y0310845D01*
X0191740Y0315844D02*
X0176717Y0315844D01*
X0193294Y0317398D02*
X0193294Y0317398D01*
D28*
X0026728Y0020933D03*
X0051728Y0020933D03*
X0076728Y0020933D03*
X0101728Y0020933D03*
X0126728Y0020933D03*
X0151728Y0020933D03*
X0154228Y0030933D03*
X0164228Y0030933D03*
X0176728Y0020933D03*
X0184228Y0030933D03*
X0194228Y0030933D03*
X0201728Y0020933D03*
X0224228Y0030933D03*
X0234228Y0030933D03*
X0226728Y0020933D03*
X0251728Y0020933D03*
X0311728Y0049933D03*
X0318728Y0049933D03*
X0306728Y0055933D03*
X0302728Y0075933D03*
X0297728Y0079933D03*
X0292728Y0083933D03*
X0311728Y0085933D03*
X0316728Y0080933D03*
X0321728Y0080933D03*
X0321728Y0075933D03*
X0326728Y0075933D03*
X0326728Y0080933D03*
X0336728Y0090933D03*
X0331728Y0095933D03*
X0321728Y0100933D03*
X0316728Y0100933D03*
X0276728Y0105933D03*
X0266728Y0115933D03*
X0256728Y0125933D03*
X0200228Y0112933D03*
X0257228Y0090933D03*
X0257228Y0086433D03*
X0261728Y0086433D03*
X0211728Y0055933D03*
X0206728Y0055933D03*
X0176728Y0065933D03*
X0166728Y0065933D03*
X0131728Y0060933D03*
X0081728Y0075933D03*
X0041728Y0075933D03*
X0041728Y0095933D03*
X0209728Y0163433D03*
X0105728Y0234933D03*
X0116728Y0265933D03*
X0201728Y0275933D03*
X0281728Y0275933D03*
X0381728Y0275933D03*
X0461728Y0275933D03*
X0561728Y0275933D03*
X0641728Y0275933D03*
X0721728Y0315933D03*
X0741728Y0315933D03*
X0432728Y0129933D03*
X0422728Y0114933D03*
X0442728Y0114933D03*
X0432728Y0099933D03*
X0412728Y0099933D03*
X0422728Y0084933D03*
X0442728Y0084933D03*
X0452728Y0099933D03*
X0499228Y0063433D03*
X0506728Y0051933D03*
X0487728Y0051933D03*
X0461728Y0035933D03*
X0518228Y0063433D03*
X0544228Y0043433D03*
X0529228Y0028433D03*
X0573228Y0028433D03*
X0599228Y0028433D03*
X0625728Y0027933D03*
X0637728Y0043933D03*
X0612228Y0043433D03*
X0588228Y0043433D03*
X0681728Y0075933D03*
X0681728Y0095933D03*
X0701728Y0095933D03*
X0741728Y0095933D03*
X0741728Y0075933D03*
X0741728Y0055933D03*
X0741728Y0035933D03*
D29*
X0570728Y0037933D02*
X0567728Y0034933D01*
X0567701Y0034961D01*
X0564469Y0034961D01*
X0560764Y0034996D02*
X0560764Y0051513D01*
X0556728Y0046933D02*
X0556728Y0059354D01*
X0552693Y0051513D02*
X0552728Y0051477D01*
X0552728Y0036933D01*
X0543075Y0036933D01*
X0556988Y0034961D02*
X0556988Y0046673D01*
X0556728Y0046933D01*
X0560764Y0034996D02*
X0560728Y0034961D01*
X0560728Y0025906D02*
X0556988Y0025906D01*
X0546701Y0025906D01*
X0545728Y0024933D01*
X0543075Y0024933D01*
X0560728Y0025906D02*
X0564469Y0025906D01*
X0095428Y0100233D02*
X0095328Y0100133D01*
X0076428Y0100133D01*
X0076528Y0100233D01*
X0076528Y0126633D01*
X0070028Y0121633D02*
X0070028Y0093233D01*
D30*
X0084828Y0139833D03*
X0095228Y0195133D03*
X0182428Y0194633D03*
X0273428Y0194633D03*
X0359228Y0194633D03*
X0453728Y0194633D03*
X0541728Y0194633D03*
X0632128Y0194733D03*
X0290428Y0097333D03*
D31*
X0249928Y0097233D03*
D32*
X0229628Y0104733D03*
X0236728Y0113133D03*
X0209728Y0107433D03*
X0239728Y0087933D03*
X0189728Y0068033D03*
X0179728Y0059233D03*
X0109728Y0074733D03*
X0099728Y0081333D03*
X0277328Y0056233D03*
X0300628Y0050033D03*
X0294128Y0073833D03*
D33*
X0076428Y0100133D03*
X0070028Y0093233D03*
X0070028Y0121633D03*
X0076528Y0126633D03*
X0552728Y0036933D03*
X0570728Y0037933D03*
D34*
X0552228Y0059213D02*
X0552128Y0059213D01*
D35*
X0265828Y0081233D03*
M02*
