G75*
%MOIN*%
%OFA0B0*%
%FSLAX25Y25*%
%IPPOS*%
%LPD*%
%AMOC8*
5,1,8,0,0,1.08239X$1,22.5*
%
%ADD10C,0.03200*%
%ADD11C,0.05000*%
%ADD12OC8,0.07400*%
%ADD13R,0.02362X0.08661*%
%ADD14C,0.10000*%
%ADD15C,0.11024*%
%ADD16R,0.04331X0.03937*%
%ADD17R,0.06000X0.06000*%
%ADD18R,0.06102X0.02362*%
%ADD19C,0.07400*%
%ADD20C,0.02000*%
%ADD21C,0.03600*%
%ADD22C,0.01600*%
%ADD23C,0.05100*%
%ADD24C,0.04950*%
D10*
X0032228Y0042933D02*
X0032231Y0043142D01*
X0032238Y0043350D01*
X0032251Y0043558D01*
X0032269Y0043766D01*
X0032292Y0043973D01*
X0032320Y0044180D01*
X0032353Y0044386D01*
X0032391Y0044591D01*
X0032435Y0044795D01*
X0032483Y0044998D01*
X0032536Y0045200D01*
X0032594Y0045400D01*
X0032657Y0045599D01*
X0032725Y0045797D01*
X0032798Y0045992D01*
X0032875Y0046186D01*
X0032957Y0046378D01*
X0033044Y0046567D01*
X0033136Y0046755D01*
X0033232Y0046940D01*
X0033332Y0047123D01*
X0033437Y0047303D01*
X0033547Y0047480D01*
X0033661Y0047655D01*
X0033779Y0047827D01*
X0033901Y0047996D01*
X0034027Y0048162D01*
X0034157Y0048325D01*
X0034292Y0048485D01*
X0034430Y0048641D01*
X0034572Y0048794D01*
X0034718Y0048943D01*
X0034867Y0049089D01*
X0035020Y0049231D01*
X0035176Y0049369D01*
X0035336Y0049504D01*
X0035499Y0049634D01*
X0035665Y0049760D01*
X0035834Y0049882D01*
X0036006Y0050000D01*
X0036181Y0050114D01*
X0036358Y0050224D01*
X0036538Y0050329D01*
X0036721Y0050429D01*
X0036906Y0050525D01*
X0037094Y0050617D01*
X0037283Y0050704D01*
X0037475Y0050786D01*
X0037669Y0050863D01*
X0037864Y0050936D01*
X0038062Y0051004D01*
X0038261Y0051067D01*
X0038461Y0051125D01*
X0038663Y0051178D01*
X0038866Y0051226D01*
X0039070Y0051270D01*
X0039275Y0051308D01*
X0039481Y0051341D01*
X0039688Y0051369D01*
X0039895Y0051392D01*
X0040103Y0051410D01*
X0040311Y0051423D01*
X0040519Y0051430D01*
X0040728Y0051433D01*
X0040937Y0051430D01*
X0041145Y0051423D01*
X0041353Y0051410D01*
X0041561Y0051392D01*
X0041768Y0051369D01*
X0041975Y0051341D01*
X0042181Y0051308D01*
X0042386Y0051270D01*
X0042590Y0051226D01*
X0042793Y0051178D01*
X0042995Y0051125D01*
X0043195Y0051067D01*
X0043394Y0051004D01*
X0043592Y0050936D01*
X0043787Y0050863D01*
X0043981Y0050786D01*
X0044173Y0050704D01*
X0044362Y0050617D01*
X0044550Y0050525D01*
X0044735Y0050429D01*
X0044918Y0050329D01*
X0045098Y0050224D01*
X0045275Y0050114D01*
X0045450Y0050000D01*
X0045622Y0049882D01*
X0045791Y0049760D01*
X0045957Y0049634D01*
X0046120Y0049504D01*
X0046280Y0049369D01*
X0046436Y0049231D01*
X0046589Y0049089D01*
X0046738Y0048943D01*
X0046884Y0048794D01*
X0047026Y0048641D01*
X0047164Y0048485D01*
X0047299Y0048325D01*
X0047429Y0048162D01*
X0047555Y0047996D01*
X0047677Y0047827D01*
X0047795Y0047655D01*
X0047909Y0047480D01*
X0048019Y0047303D01*
X0048124Y0047123D01*
X0048224Y0046940D01*
X0048320Y0046755D01*
X0048412Y0046567D01*
X0048499Y0046378D01*
X0048581Y0046186D01*
X0048658Y0045992D01*
X0048731Y0045797D01*
X0048799Y0045599D01*
X0048862Y0045400D01*
X0048920Y0045200D01*
X0048973Y0044998D01*
X0049021Y0044795D01*
X0049065Y0044591D01*
X0049103Y0044386D01*
X0049136Y0044180D01*
X0049164Y0043973D01*
X0049187Y0043766D01*
X0049205Y0043558D01*
X0049218Y0043350D01*
X0049225Y0043142D01*
X0049228Y0042933D01*
X0049225Y0042724D01*
X0049218Y0042516D01*
X0049205Y0042308D01*
X0049187Y0042100D01*
X0049164Y0041893D01*
X0049136Y0041686D01*
X0049103Y0041480D01*
X0049065Y0041275D01*
X0049021Y0041071D01*
X0048973Y0040868D01*
X0048920Y0040666D01*
X0048862Y0040466D01*
X0048799Y0040267D01*
X0048731Y0040069D01*
X0048658Y0039874D01*
X0048581Y0039680D01*
X0048499Y0039488D01*
X0048412Y0039299D01*
X0048320Y0039111D01*
X0048224Y0038926D01*
X0048124Y0038743D01*
X0048019Y0038563D01*
X0047909Y0038386D01*
X0047795Y0038211D01*
X0047677Y0038039D01*
X0047555Y0037870D01*
X0047429Y0037704D01*
X0047299Y0037541D01*
X0047164Y0037381D01*
X0047026Y0037225D01*
X0046884Y0037072D01*
X0046738Y0036923D01*
X0046589Y0036777D01*
X0046436Y0036635D01*
X0046280Y0036497D01*
X0046120Y0036362D01*
X0045957Y0036232D01*
X0045791Y0036106D01*
X0045622Y0035984D01*
X0045450Y0035866D01*
X0045275Y0035752D01*
X0045098Y0035642D01*
X0044918Y0035537D01*
X0044735Y0035437D01*
X0044550Y0035341D01*
X0044362Y0035249D01*
X0044173Y0035162D01*
X0043981Y0035080D01*
X0043787Y0035003D01*
X0043592Y0034930D01*
X0043394Y0034862D01*
X0043195Y0034799D01*
X0042995Y0034741D01*
X0042793Y0034688D01*
X0042590Y0034640D01*
X0042386Y0034596D01*
X0042181Y0034558D01*
X0041975Y0034525D01*
X0041768Y0034497D01*
X0041561Y0034474D01*
X0041353Y0034456D01*
X0041145Y0034443D01*
X0040937Y0034436D01*
X0040728Y0034433D01*
X0040519Y0034436D01*
X0040311Y0034443D01*
X0040103Y0034456D01*
X0039895Y0034474D01*
X0039688Y0034497D01*
X0039481Y0034525D01*
X0039275Y0034558D01*
X0039070Y0034596D01*
X0038866Y0034640D01*
X0038663Y0034688D01*
X0038461Y0034741D01*
X0038261Y0034799D01*
X0038062Y0034862D01*
X0037864Y0034930D01*
X0037669Y0035003D01*
X0037475Y0035080D01*
X0037283Y0035162D01*
X0037094Y0035249D01*
X0036906Y0035341D01*
X0036721Y0035437D01*
X0036538Y0035537D01*
X0036358Y0035642D01*
X0036181Y0035752D01*
X0036006Y0035866D01*
X0035834Y0035984D01*
X0035665Y0036106D01*
X0035499Y0036232D01*
X0035336Y0036362D01*
X0035176Y0036497D01*
X0035020Y0036635D01*
X0034867Y0036777D01*
X0034718Y0036923D01*
X0034572Y0037072D01*
X0034430Y0037225D01*
X0034292Y0037381D01*
X0034157Y0037541D01*
X0034027Y0037704D01*
X0033901Y0037870D01*
X0033779Y0038039D01*
X0033661Y0038211D01*
X0033547Y0038386D01*
X0033437Y0038563D01*
X0033332Y0038743D01*
X0033232Y0038926D01*
X0033136Y0039111D01*
X0033044Y0039299D01*
X0032957Y0039488D01*
X0032875Y0039680D01*
X0032798Y0039874D01*
X0032725Y0040069D01*
X0032657Y0040267D01*
X0032594Y0040466D01*
X0032536Y0040666D01*
X0032483Y0040868D01*
X0032435Y0041071D01*
X0032391Y0041275D01*
X0032353Y0041480D01*
X0032320Y0041686D01*
X0032292Y0041893D01*
X0032269Y0042100D01*
X0032251Y0042308D01*
X0032238Y0042516D01*
X0032231Y0042724D01*
X0032228Y0042933D01*
X0239728Y0037933D02*
X0249728Y0037933D01*
X0259728Y0027933D01*
X0276728Y0027933D01*
X0286728Y0037933D01*
X0287382Y0037933D01*
X0294075Y0037933D02*
X0305728Y0037933D01*
X0310728Y0032933D01*
X0312728Y0032933D01*
X0322728Y0032933D01*
X0316728Y0048933D02*
X0305728Y0037933D01*
X0316728Y0048933D02*
X0316728Y0074933D01*
X0287382Y0047933D02*
X0286728Y0047933D01*
X0276728Y0057933D01*
X0259728Y0057933D01*
X0249728Y0047933D01*
X0260228Y0042933D02*
X0260231Y0043142D01*
X0260238Y0043350D01*
X0260251Y0043558D01*
X0260269Y0043766D01*
X0260292Y0043973D01*
X0260320Y0044180D01*
X0260353Y0044386D01*
X0260391Y0044591D01*
X0260435Y0044795D01*
X0260483Y0044998D01*
X0260536Y0045200D01*
X0260594Y0045400D01*
X0260657Y0045599D01*
X0260725Y0045797D01*
X0260798Y0045992D01*
X0260875Y0046186D01*
X0260957Y0046378D01*
X0261044Y0046567D01*
X0261136Y0046755D01*
X0261232Y0046940D01*
X0261332Y0047123D01*
X0261437Y0047303D01*
X0261547Y0047480D01*
X0261661Y0047655D01*
X0261779Y0047827D01*
X0261901Y0047996D01*
X0262027Y0048162D01*
X0262157Y0048325D01*
X0262292Y0048485D01*
X0262430Y0048641D01*
X0262572Y0048794D01*
X0262718Y0048943D01*
X0262867Y0049089D01*
X0263020Y0049231D01*
X0263176Y0049369D01*
X0263336Y0049504D01*
X0263499Y0049634D01*
X0263665Y0049760D01*
X0263834Y0049882D01*
X0264006Y0050000D01*
X0264181Y0050114D01*
X0264358Y0050224D01*
X0264538Y0050329D01*
X0264721Y0050429D01*
X0264906Y0050525D01*
X0265094Y0050617D01*
X0265283Y0050704D01*
X0265475Y0050786D01*
X0265669Y0050863D01*
X0265864Y0050936D01*
X0266062Y0051004D01*
X0266261Y0051067D01*
X0266461Y0051125D01*
X0266663Y0051178D01*
X0266866Y0051226D01*
X0267070Y0051270D01*
X0267275Y0051308D01*
X0267481Y0051341D01*
X0267688Y0051369D01*
X0267895Y0051392D01*
X0268103Y0051410D01*
X0268311Y0051423D01*
X0268519Y0051430D01*
X0268728Y0051433D01*
X0268937Y0051430D01*
X0269145Y0051423D01*
X0269353Y0051410D01*
X0269561Y0051392D01*
X0269768Y0051369D01*
X0269975Y0051341D01*
X0270181Y0051308D01*
X0270386Y0051270D01*
X0270590Y0051226D01*
X0270793Y0051178D01*
X0270995Y0051125D01*
X0271195Y0051067D01*
X0271394Y0051004D01*
X0271592Y0050936D01*
X0271787Y0050863D01*
X0271981Y0050786D01*
X0272173Y0050704D01*
X0272362Y0050617D01*
X0272550Y0050525D01*
X0272735Y0050429D01*
X0272918Y0050329D01*
X0273098Y0050224D01*
X0273275Y0050114D01*
X0273450Y0050000D01*
X0273622Y0049882D01*
X0273791Y0049760D01*
X0273957Y0049634D01*
X0274120Y0049504D01*
X0274280Y0049369D01*
X0274436Y0049231D01*
X0274589Y0049089D01*
X0274738Y0048943D01*
X0274884Y0048794D01*
X0275026Y0048641D01*
X0275164Y0048485D01*
X0275299Y0048325D01*
X0275429Y0048162D01*
X0275555Y0047996D01*
X0275677Y0047827D01*
X0275795Y0047655D01*
X0275909Y0047480D01*
X0276019Y0047303D01*
X0276124Y0047123D01*
X0276224Y0046940D01*
X0276320Y0046755D01*
X0276412Y0046567D01*
X0276499Y0046378D01*
X0276581Y0046186D01*
X0276658Y0045992D01*
X0276731Y0045797D01*
X0276799Y0045599D01*
X0276862Y0045400D01*
X0276920Y0045200D01*
X0276973Y0044998D01*
X0277021Y0044795D01*
X0277065Y0044591D01*
X0277103Y0044386D01*
X0277136Y0044180D01*
X0277164Y0043973D01*
X0277187Y0043766D01*
X0277205Y0043558D01*
X0277218Y0043350D01*
X0277225Y0043142D01*
X0277228Y0042933D01*
X0277225Y0042724D01*
X0277218Y0042516D01*
X0277205Y0042308D01*
X0277187Y0042100D01*
X0277164Y0041893D01*
X0277136Y0041686D01*
X0277103Y0041480D01*
X0277065Y0041275D01*
X0277021Y0041071D01*
X0276973Y0040868D01*
X0276920Y0040666D01*
X0276862Y0040466D01*
X0276799Y0040267D01*
X0276731Y0040069D01*
X0276658Y0039874D01*
X0276581Y0039680D01*
X0276499Y0039488D01*
X0276412Y0039299D01*
X0276320Y0039111D01*
X0276224Y0038926D01*
X0276124Y0038743D01*
X0276019Y0038563D01*
X0275909Y0038386D01*
X0275795Y0038211D01*
X0275677Y0038039D01*
X0275555Y0037870D01*
X0275429Y0037704D01*
X0275299Y0037541D01*
X0275164Y0037381D01*
X0275026Y0037225D01*
X0274884Y0037072D01*
X0274738Y0036923D01*
X0274589Y0036777D01*
X0274436Y0036635D01*
X0274280Y0036497D01*
X0274120Y0036362D01*
X0273957Y0036232D01*
X0273791Y0036106D01*
X0273622Y0035984D01*
X0273450Y0035866D01*
X0273275Y0035752D01*
X0273098Y0035642D01*
X0272918Y0035537D01*
X0272735Y0035437D01*
X0272550Y0035341D01*
X0272362Y0035249D01*
X0272173Y0035162D01*
X0271981Y0035080D01*
X0271787Y0035003D01*
X0271592Y0034930D01*
X0271394Y0034862D01*
X0271195Y0034799D01*
X0270995Y0034741D01*
X0270793Y0034688D01*
X0270590Y0034640D01*
X0270386Y0034596D01*
X0270181Y0034558D01*
X0269975Y0034525D01*
X0269768Y0034497D01*
X0269561Y0034474D01*
X0269353Y0034456D01*
X0269145Y0034443D01*
X0268937Y0034436D01*
X0268728Y0034433D01*
X0268519Y0034436D01*
X0268311Y0034443D01*
X0268103Y0034456D01*
X0267895Y0034474D01*
X0267688Y0034497D01*
X0267481Y0034525D01*
X0267275Y0034558D01*
X0267070Y0034596D01*
X0266866Y0034640D01*
X0266663Y0034688D01*
X0266461Y0034741D01*
X0266261Y0034799D01*
X0266062Y0034862D01*
X0265864Y0034930D01*
X0265669Y0035003D01*
X0265475Y0035080D01*
X0265283Y0035162D01*
X0265094Y0035249D01*
X0264906Y0035341D01*
X0264721Y0035437D01*
X0264538Y0035537D01*
X0264358Y0035642D01*
X0264181Y0035752D01*
X0264006Y0035866D01*
X0263834Y0035984D01*
X0263665Y0036106D01*
X0263499Y0036232D01*
X0263336Y0036362D01*
X0263176Y0036497D01*
X0263020Y0036635D01*
X0262867Y0036777D01*
X0262718Y0036923D01*
X0262572Y0037072D01*
X0262430Y0037225D01*
X0262292Y0037381D01*
X0262157Y0037541D01*
X0262027Y0037704D01*
X0261901Y0037870D01*
X0261779Y0038039D01*
X0261661Y0038211D01*
X0261547Y0038386D01*
X0261437Y0038563D01*
X0261332Y0038743D01*
X0261232Y0038926D01*
X0261136Y0039111D01*
X0261044Y0039299D01*
X0260957Y0039488D01*
X0260875Y0039680D01*
X0260798Y0039874D01*
X0260725Y0040069D01*
X0260657Y0040267D01*
X0260594Y0040466D01*
X0260536Y0040666D01*
X0260483Y0040868D01*
X0260435Y0041071D01*
X0260391Y0041275D01*
X0260353Y0041480D01*
X0260320Y0041686D01*
X0260292Y0041893D01*
X0260269Y0042100D01*
X0260251Y0042308D01*
X0260238Y0042516D01*
X0260231Y0042724D01*
X0260228Y0042933D01*
X0341728Y0032933D02*
X0351728Y0032933D01*
X0370528Y0032933D02*
X0380528Y0032933D01*
X0380728Y0033133D01*
X0380728Y0032933D01*
X0383728Y0035933D01*
X0383728Y0220933D01*
X0387528Y0224732D01*
X0396728Y0224732D01*
X0342043Y0268374D02*
X0342043Y0271248D01*
X0346728Y0275933D01*
X0346728Y0280933D01*
X0356728Y0290933D01*
X0396728Y0290933D01*
X0406728Y0280933D01*
X0406728Y0111933D01*
X0397728Y0102933D01*
X0397728Y0032933D01*
X0407728Y0032933D01*
X0342043Y0268374D02*
X0314287Y0268374D01*
X0306728Y0275933D01*
X0306728Y0285933D01*
X0301728Y0290933D01*
X0256728Y0290933D01*
X0251728Y0285933D01*
X0251728Y0275933D01*
X0247043Y0271248D01*
X0247043Y0268374D01*
X0219287Y0268374D01*
X0211728Y0275933D01*
X0211728Y0285933D01*
X0206728Y0290933D01*
X0161728Y0290933D01*
X0156728Y0285933D01*
X0156728Y0275933D01*
X0152043Y0271248D01*
X0152043Y0268374D01*
X0124287Y0268374D01*
X0116728Y0275933D01*
X0116728Y0285933D01*
X0111728Y0290933D01*
X0066728Y0290933D01*
X0061728Y0285933D01*
X0061728Y0275933D01*
X0057043Y0271248D01*
X0057043Y0268374D01*
X0032055Y0235846D02*
X0032058Y0236055D01*
X0032065Y0236263D01*
X0032078Y0236471D01*
X0032096Y0236679D01*
X0032119Y0236886D01*
X0032147Y0237093D01*
X0032180Y0237299D01*
X0032218Y0237504D01*
X0032262Y0237708D01*
X0032310Y0237911D01*
X0032363Y0238113D01*
X0032421Y0238313D01*
X0032484Y0238512D01*
X0032552Y0238710D01*
X0032625Y0238905D01*
X0032702Y0239099D01*
X0032784Y0239291D01*
X0032871Y0239480D01*
X0032963Y0239668D01*
X0033059Y0239853D01*
X0033159Y0240036D01*
X0033264Y0240216D01*
X0033374Y0240393D01*
X0033488Y0240568D01*
X0033606Y0240740D01*
X0033728Y0240909D01*
X0033854Y0241075D01*
X0033984Y0241238D01*
X0034119Y0241398D01*
X0034257Y0241554D01*
X0034399Y0241707D01*
X0034545Y0241856D01*
X0034694Y0242002D01*
X0034847Y0242144D01*
X0035003Y0242282D01*
X0035163Y0242417D01*
X0035326Y0242547D01*
X0035492Y0242673D01*
X0035661Y0242795D01*
X0035833Y0242913D01*
X0036008Y0243027D01*
X0036185Y0243137D01*
X0036365Y0243242D01*
X0036548Y0243342D01*
X0036733Y0243438D01*
X0036921Y0243530D01*
X0037110Y0243617D01*
X0037302Y0243699D01*
X0037496Y0243776D01*
X0037691Y0243849D01*
X0037889Y0243917D01*
X0038088Y0243980D01*
X0038288Y0244038D01*
X0038490Y0244091D01*
X0038693Y0244139D01*
X0038897Y0244183D01*
X0039102Y0244221D01*
X0039308Y0244254D01*
X0039515Y0244282D01*
X0039722Y0244305D01*
X0039930Y0244323D01*
X0040138Y0244336D01*
X0040346Y0244343D01*
X0040555Y0244346D01*
X0040764Y0244343D01*
X0040972Y0244336D01*
X0041180Y0244323D01*
X0041388Y0244305D01*
X0041595Y0244282D01*
X0041802Y0244254D01*
X0042008Y0244221D01*
X0042213Y0244183D01*
X0042417Y0244139D01*
X0042620Y0244091D01*
X0042822Y0244038D01*
X0043022Y0243980D01*
X0043221Y0243917D01*
X0043419Y0243849D01*
X0043614Y0243776D01*
X0043808Y0243699D01*
X0044000Y0243617D01*
X0044189Y0243530D01*
X0044377Y0243438D01*
X0044562Y0243342D01*
X0044745Y0243242D01*
X0044925Y0243137D01*
X0045102Y0243027D01*
X0045277Y0242913D01*
X0045449Y0242795D01*
X0045618Y0242673D01*
X0045784Y0242547D01*
X0045947Y0242417D01*
X0046107Y0242282D01*
X0046263Y0242144D01*
X0046416Y0242002D01*
X0046565Y0241856D01*
X0046711Y0241707D01*
X0046853Y0241554D01*
X0046991Y0241398D01*
X0047126Y0241238D01*
X0047256Y0241075D01*
X0047382Y0240909D01*
X0047504Y0240740D01*
X0047622Y0240568D01*
X0047736Y0240393D01*
X0047846Y0240216D01*
X0047951Y0240036D01*
X0048051Y0239853D01*
X0048147Y0239668D01*
X0048239Y0239480D01*
X0048326Y0239291D01*
X0048408Y0239099D01*
X0048485Y0238905D01*
X0048558Y0238710D01*
X0048626Y0238512D01*
X0048689Y0238313D01*
X0048747Y0238113D01*
X0048800Y0237911D01*
X0048848Y0237708D01*
X0048892Y0237504D01*
X0048930Y0237299D01*
X0048963Y0237093D01*
X0048991Y0236886D01*
X0049014Y0236679D01*
X0049032Y0236471D01*
X0049045Y0236263D01*
X0049052Y0236055D01*
X0049055Y0235846D01*
X0049052Y0235637D01*
X0049045Y0235429D01*
X0049032Y0235221D01*
X0049014Y0235013D01*
X0048991Y0234806D01*
X0048963Y0234599D01*
X0048930Y0234393D01*
X0048892Y0234188D01*
X0048848Y0233984D01*
X0048800Y0233781D01*
X0048747Y0233579D01*
X0048689Y0233379D01*
X0048626Y0233180D01*
X0048558Y0232982D01*
X0048485Y0232787D01*
X0048408Y0232593D01*
X0048326Y0232401D01*
X0048239Y0232212D01*
X0048147Y0232024D01*
X0048051Y0231839D01*
X0047951Y0231656D01*
X0047846Y0231476D01*
X0047736Y0231299D01*
X0047622Y0231124D01*
X0047504Y0230952D01*
X0047382Y0230783D01*
X0047256Y0230617D01*
X0047126Y0230454D01*
X0046991Y0230294D01*
X0046853Y0230138D01*
X0046711Y0229985D01*
X0046565Y0229836D01*
X0046416Y0229690D01*
X0046263Y0229548D01*
X0046107Y0229410D01*
X0045947Y0229275D01*
X0045784Y0229145D01*
X0045618Y0229019D01*
X0045449Y0228897D01*
X0045277Y0228779D01*
X0045102Y0228665D01*
X0044925Y0228555D01*
X0044745Y0228450D01*
X0044562Y0228350D01*
X0044377Y0228254D01*
X0044189Y0228162D01*
X0044000Y0228075D01*
X0043808Y0227993D01*
X0043614Y0227916D01*
X0043419Y0227843D01*
X0043221Y0227775D01*
X0043022Y0227712D01*
X0042822Y0227654D01*
X0042620Y0227601D01*
X0042417Y0227553D01*
X0042213Y0227509D01*
X0042008Y0227471D01*
X0041802Y0227438D01*
X0041595Y0227410D01*
X0041388Y0227387D01*
X0041180Y0227369D01*
X0040972Y0227356D01*
X0040764Y0227349D01*
X0040555Y0227346D01*
X0040346Y0227349D01*
X0040138Y0227356D01*
X0039930Y0227369D01*
X0039722Y0227387D01*
X0039515Y0227410D01*
X0039308Y0227438D01*
X0039102Y0227471D01*
X0038897Y0227509D01*
X0038693Y0227553D01*
X0038490Y0227601D01*
X0038288Y0227654D01*
X0038088Y0227712D01*
X0037889Y0227775D01*
X0037691Y0227843D01*
X0037496Y0227916D01*
X0037302Y0227993D01*
X0037110Y0228075D01*
X0036921Y0228162D01*
X0036733Y0228254D01*
X0036548Y0228350D01*
X0036365Y0228450D01*
X0036185Y0228555D01*
X0036008Y0228665D01*
X0035833Y0228779D01*
X0035661Y0228897D01*
X0035492Y0229019D01*
X0035326Y0229145D01*
X0035163Y0229275D01*
X0035003Y0229410D01*
X0034847Y0229548D01*
X0034694Y0229690D01*
X0034545Y0229836D01*
X0034399Y0229985D01*
X0034257Y0230138D01*
X0034119Y0230294D01*
X0033984Y0230454D01*
X0033854Y0230617D01*
X0033728Y0230783D01*
X0033606Y0230952D01*
X0033488Y0231124D01*
X0033374Y0231299D01*
X0033264Y0231476D01*
X0033159Y0231656D01*
X0033059Y0231839D01*
X0032963Y0232024D01*
X0032871Y0232212D01*
X0032784Y0232401D01*
X0032702Y0232593D01*
X0032625Y0232787D01*
X0032552Y0232982D01*
X0032484Y0233180D01*
X0032421Y0233379D01*
X0032363Y0233579D01*
X0032310Y0233781D01*
X0032262Y0233984D01*
X0032218Y0234188D01*
X0032180Y0234393D01*
X0032147Y0234599D01*
X0032119Y0234806D01*
X0032096Y0235013D01*
X0032078Y0235221D01*
X0032065Y0235429D01*
X0032058Y0235637D01*
X0032055Y0235846D01*
X0361728Y0275933D02*
X0361728Y0278217D01*
D11*
X0346728Y0248933D03*
X0346728Y0218933D03*
X0346728Y0178933D03*
X0376728Y0178933D03*
X0281728Y0178933D03*
X0251728Y0178933D03*
X0251728Y0218933D03*
X0251728Y0248933D03*
X0156728Y0248933D03*
X0156728Y0218933D03*
X0156728Y0178933D03*
X0186728Y0178933D03*
X0091728Y0178933D03*
X0061728Y0178933D03*
X0061728Y0218933D03*
X0061728Y0248933D03*
D12*
X0059728Y0047933D03*
X0069728Y0047933D03*
X0079728Y0047933D03*
X0089728Y0047933D03*
X0099728Y0047933D03*
X0099728Y0037933D03*
X0089728Y0037933D03*
X0079728Y0037933D03*
X0069728Y0037933D03*
X0059728Y0037933D03*
X0109728Y0037933D03*
X0119728Y0037933D03*
X0129728Y0037933D03*
X0139728Y0037933D03*
X0149728Y0037933D03*
X0159728Y0037933D03*
X0169728Y0037933D03*
X0179728Y0037933D03*
X0189728Y0037933D03*
X0199728Y0037933D03*
X0199728Y0047933D03*
X0189728Y0047933D03*
X0179728Y0047933D03*
X0169728Y0047933D03*
X0159728Y0047933D03*
X0149728Y0047933D03*
X0139728Y0047933D03*
X0129728Y0047933D03*
X0119728Y0047933D03*
X0109728Y0047933D03*
X0209728Y0047933D03*
X0219728Y0047933D03*
X0229728Y0047933D03*
X0239728Y0047933D03*
X0249728Y0047933D03*
X0249728Y0037933D03*
X0239728Y0037933D03*
X0229728Y0037933D03*
X0219728Y0037933D03*
X0209728Y0037933D03*
D13*
X0211079Y0076563D03*
X0216079Y0076563D03*
X0221079Y0076563D03*
X0226079Y0076563D03*
X0231079Y0076563D03*
X0236079Y0076563D03*
X0206079Y0076563D03*
X0201079Y0076563D03*
X0201079Y0112783D03*
X0206079Y0112783D03*
X0211079Y0112783D03*
X0216079Y0112783D03*
X0221079Y0112783D03*
X0226079Y0112783D03*
X0231079Y0112783D03*
X0236079Y0112783D03*
D14*
X0247043Y0268374D03*
X0239169Y0278217D03*
X0266728Y0278217D03*
X0286413Y0268374D03*
X0294287Y0278217D03*
X0334169Y0278217D03*
X0342043Y0268374D03*
X0361728Y0278217D03*
X0381413Y0268374D03*
X0389287Y0278217D03*
X0371571Y0317587D03*
X0351886Y0317587D03*
X0276571Y0317587D03*
X0256886Y0317587D03*
X0199287Y0278217D03*
X0191413Y0268374D03*
X0171728Y0278217D03*
X0152043Y0268374D03*
X0144169Y0278217D03*
X0104287Y0278217D03*
X0096413Y0268374D03*
X0076728Y0278217D03*
X0057043Y0268374D03*
X0049169Y0278217D03*
X0066886Y0317587D03*
X0086571Y0317587D03*
X0161886Y0317587D03*
X0181571Y0317587D03*
D15*
X0206728Y0239142D03*
X0206728Y0224732D03*
X0206728Y0207134D03*
X0206728Y0192724D03*
X0111728Y0192724D03*
X0111728Y0207134D03*
X0111728Y0224732D03*
X0111728Y0239142D03*
X0301728Y0239142D03*
X0301728Y0224732D03*
X0301728Y0207134D03*
X0301728Y0192724D03*
X0396728Y0192724D03*
X0396728Y0207134D03*
X0396728Y0224732D03*
X0396728Y0239142D03*
D16*
X0184075Y0112933D03*
X0177382Y0112933D03*
X0154075Y0082933D03*
X0147382Y0082933D03*
X0155382Y0074933D03*
X0162075Y0074933D03*
X0163382Y0066933D03*
X0170075Y0066933D03*
X0185182Y0076533D03*
X0191875Y0076533D03*
X0115075Y0099933D03*
X0108382Y0099933D03*
X0087075Y0082933D03*
X0080382Y0082933D03*
X0080382Y0071933D03*
X0087075Y0071933D03*
X0087075Y0061933D03*
X0080382Y0061933D03*
X0279382Y0064933D03*
X0286075Y0064933D03*
X0287382Y0047933D03*
X0294075Y0047933D03*
X0294075Y0037933D03*
X0287382Y0037933D03*
D17*
X0312728Y0032933D03*
X0322728Y0032933D03*
X0341728Y0032933D03*
X0351728Y0032933D03*
X0370528Y0032933D03*
X0380528Y0032933D03*
X0397728Y0032933D03*
X0407728Y0032933D03*
D18*
X0122358Y0078433D03*
X0122358Y0083433D03*
X0122358Y0088433D03*
X0122358Y0093433D03*
X0101098Y0093433D03*
X0101098Y0088433D03*
X0101098Y0083433D03*
X0101098Y0078433D03*
D19*
X0106728Y0064933D03*
X0116728Y0064933D03*
D20*
X0034737Y0027924D02*
X0254646Y0027924D01*
X0256645Y0025926D02*
X0036736Y0025926D01*
X0038734Y0023927D02*
X0410328Y0023927D01*
X0410328Y0021929D02*
X0040733Y0021929D01*
X0041728Y0020933D02*
X0031828Y0030833D01*
X0031828Y0034846D01*
X0034678Y0032454D01*
X0034678Y0032454D01*
X0038627Y0031017D01*
X0042829Y0031017D01*
X0046778Y0032454D01*
X0049997Y0035155D01*
X0052099Y0038795D01*
X0052828Y0042933D01*
X0052099Y0047071D01*
X0052099Y0047072D01*
X0049997Y0050711D01*
X0046778Y0053412D01*
X0042829Y0054849D01*
X0038627Y0054849D01*
X0034678Y0053412D01*
X0031828Y0051021D01*
X0031828Y0089033D01*
X0041728Y0098933D01*
X0089283Y0098935D01*
X0087973Y0097533D01*
X0087772Y0097533D01*
X0086376Y0096955D01*
X0085307Y0095886D01*
X0084728Y0094489D01*
X0084728Y0092977D01*
X0085307Y0091581D01*
X0086154Y0090733D01*
X0082171Y0090733D01*
X0081142Y0090307D01*
X0079142Y0088307D01*
X0078355Y0087519D01*
X0078099Y0086902D01*
X0077388Y0086902D01*
X0076217Y0085730D01*
X0076217Y0080136D01*
X0077388Y0078965D01*
X0077582Y0078965D01*
X0077582Y0075902D01*
X0077388Y0075902D01*
X0076217Y0074730D01*
X0076217Y0069136D01*
X0077388Y0067965D01*
X0077582Y0067965D01*
X0077582Y0065902D01*
X0077388Y0065902D01*
X0076217Y0064730D01*
X0076217Y0059136D01*
X0077388Y0057965D01*
X0083376Y0057965D01*
X0083728Y0058317D01*
X0084081Y0057965D01*
X0090069Y0057965D01*
X0091237Y0059133D01*
X0104285Y0059133D01*
X0105061Y0059454D01*
X0105595Y0059233D01*
X0107862Y0059233D01*
X0109957Y0060101D01*
X0111561Y0061704D01*
X0112428Y0063799D01*
X0112428Y0066067D01*
X0111561Y0068162D01*
X0109957Y0069765D01*
X0107862Y0070633D01*
X0105595Y0070633D01*
X0103500Y0069765D01*
X0101896Y0068162D01*
X0101028Y0066067D01*
X0101028Y0064733D01*
X0091237Y0064733D01*
X0090069Y0065902D01*
X0084081Y0065902D01*
X0083728Y0065549D01*
X0083376Y0065902D01*
X0083182Y0065902D01*
X0083182Y0067965D01*
X0083376Y0067965D01*
X0083728Y0068317D01*
X0084081Y0067965D01*
X0090069Y0067965D01*
X0090745Y0068641D01*
X0091972Y0068133D01*
X0093484Y0068133D01*
X0094881Y0068712D01*
X0095950Y0069781D01*
X0096528Y0071177D01*
X0096528Y0071773D01*
X0099888Y0075133D01*
X0101155Y0075133D01*
X0101442Y0075252D01*
X0104978Y0075252D01*
X0106150Y0076424D01*
X0106150Y0080443D01*
X0105659Y0080933D01*
X0106150Y0081424D01*
X0106150Y0085443D01*
X0105659Y0085933D01*
X0106150Y0086424D01*
X0106150Y0090443D01*
X0105659Y0090933D01*
X0106150Y0091424D01*
X0106150Y0095443D01*
X0105628Y0095965D01*
X0111376Y0095965D01*
X0112547Y0097136D01*
X0112547Y0098936D01*
X0136764Y0098937D01*
X0144355Y0091347D01*
X0145142Y0090559D01*
X0146171Y0090133D01*
X0178154Y0090133D01*
X0178576Y0089712D01*
X0179972Y0089133D01*
X0180686Y0089133D01*
X0177800Y0086247D01*
X0177576Y0086155D01*
X0176507Y0085086D01*
X0175928Y0083689D01*
X0175928Y0082177D01*
X0176507Y0080781D01*
X0177576Y0079712D01*
X0178972Y0079133D01*
X0180484Y0079133D01*
X0181057Y0079370D01*
X0181017Y0079330D01*
X0181017Y0074888D01*
X0170428Y0085476D01*
X0169325Y0085933D01*
X0158037Y0085933D01*
X0157069Y0086902D01*
X0151081Y0086902D01*
X0150728Y0086549D01*
X0150376Y0086902D01*
X0144388Y0086902D01*
X0143217Y0085730D01*
X0143217Y0085554D01*
X0143029Y0085476D01*
X0138029Y0080476D01*
X0137185Y0079632D01*
X0136728Y0078530D01*
X0136728Y0052994D01*
X0134028Y0050294D01*
X0134028Y0045572D01*
X0136667Y0042933D01*
X0134728Y0040994D01*
X0132089Y0043633D01*
X0127367Y0043633D01*
X0124728Y0040994D01*
X0122789Y0042933D01*
X0125428Y0045572D01*
X0125428Y0050294D01*
X0122089Y0053633D01*
X0117367Y0053633D01*
X0114728Y0050994D01*
X0112089Y0053633D01*
X0107367Y0053633D01*
X0104728Y0050994D01*
X0102089Y0053633D01*
X0097367Y0053633D01*
X0094728Y0050994D01*
X0092089Y0053633D01*
X0087367Y0053633D01*
X0084728Y0050994D01*
X0082089Y0053633D01*
X0077367Y0053633D01*
X0074728Y0050994D01*
X0072089Y0053633D01*
X0067367Y0053633D01*
X0064028Y0050294D01*
X0064028Y0045572D01*
X0066667Y0042933D01*
X0064728Y0040994D01*
X0062089Y0043633D01*
X0057367Y0043633D01*
X0054028Y0040294D01*
X0054028Y0035572D01*
X0057367Y0032233D01*
X0062089Y0032233D01*
X0064728Y0034872D01*
X0067367Y0032233D01*
X0072089Y0032233D01*
X0074728Y0034872D01*
X0077367Y0032233D01*
X0082089Y0032233D01*
X0085428Y0035572D01*
X0085428Y0040294D01*
X0082789Y0042933D01*
X0084728Y0044872D01*
X0087367Y0042233D01*
X0092089Y0042233D01*
X0094728Y0044872D01*
X0096667Y0042933D01*
X0094028Y0040294D01*
X0094028Y0035572D01*
X0097367Y0032233D01*
X0102089Y0032233D01*
X0105428Y0035572D01*
X0105428Y0040294D01*
X0102789Y0042933D01*
X0104728Y0044872D01*
X0107367Y0042233D01*
X0112089Y0042233D01*
X0114728Y0044872D01*
X0116667Y0042933D01*
X0114028Y0040294D01*
X0114028Y0035572D01*
X0117367Y0032233D01*
X0122089Y0032233D01*
X0124728Y0034872D01*
X0127367Y0032233D01*
X0132089Y0032233D01*
X0134728Y0034872D01*
X0137367Y0032233D01*
X0142089Y0032233D01*
X0144728Y0034872D01*
X0147367Y0032233D01*
X0152089Y0032233D01*
X0155428Y0035572D01*
X0155428Y0040294D01*
X0152789Y0042933D01*
X0154728Y0044872D01*
X0157367Y0042233D01*
X0162089Y0042233D01*
X0164728Y0044872D01*
X0166667Y0042933D01*
X0164028Y0040294D01*
X0164028Y0035572D01*
X0167367Y0032233D01*
X0172089Y0032233D01*
X0174728Y0034872D01*
X0177367Y0032233D01*
X0182089Y0032233D01*
X0185428Y0035572D01*
X0185428Y0040294D01*
X0182789Y0042933D01*
X0184728Y0044872D01*
X0187367Y0042233D01*
X0192089Y0042233D01*
X0194728Y0044872D01*
X0196667Y0042933D01*
X0194028Y0040294D01*
X0194028Y0035572D01*
X0197367Y0032233D01*
X0202089Y0032233D01*
X0204728Y0034872D01*
X0207367Y0032233D01*
X0212089Y0032233D01*
X0214728Y0034872D01*
X0217367Y0032233D01*
X0222089Y0032233D01*
X0225428Y0035572D01*
X0225428Y0040294D01*
X0222789Y0042933D01*
X0224728Y0044872D01*
X0227367Y0042233D01*
X0232089Y0042233D01*
X0234728Y0044872D01*
X0236667Y0042933D01*
X0234028Y0040294D01*
X0234028Y0035572D01*
X0237367Y0032233D01*
X0242089Y0032233D01*
X0244189Y0034333D01*
X0245267Y0034333D01*
X0247367Y0032233D01*
X0250337Y0032233D01*
X0257689Y0024881D01*
X0259012Y0024333D01*
X0277444Y0024333D01*
X0278768Y0024881D01*
X0279780Y0025894D01*
X0287851Y0033965D01*
X0290376Y0033965D01*
X0290728Y0034317D01*
X0291081Y0033965D01*
X0297069Y0033965D01*
X0297437Y0034333D01*
X0304237Y0034333D01*
X0307728Y0030842D01*
X0307728Y0029105D01*
X0308900Y0027933D01*
X0316557Y0027933D01*
X0317728Y0029105D01*
X0317728Y0029333D01*
X0317728Y0029333D01*
X0317728Y0029105D01*
X0318900Y0027933D01*
X0326557Y0027933D01*
X0327728Y0029105D01*
X0327728Y0036761D01*
X0326557Y0037933D01*
X0318900Y0037933D01*
X0317728Y0036761D01*
X0316557Y0037933D01*
X0310820Y0037933D01*
X0310820Y0037933D01*
X0318768Y0045881D01*
X0319780Y0046894D01*
X0320328Y0048217D01*
X0320328Y0072098D01*
X0320586Y0072356D01*
X0321278Y0074028D01*
X0321278Y0075838D01*
X0320586Y0077510D01*
X0319306Y0078790D01*
X0317633Y0079483D01*
X0316421Y0079483D01*
X0310371Y0085533D01*
X0327754Y0085533D01*
X0327976Y0085312D01*
X0329372Y0084733D01*
X0330884Y0084733D01*
X0332281Y0085312D01*
X0333350Y0086381D01*
X0333928Y0087777D01*
X0333928Y0089289D01*
X0333350Y0090686D01*
X0332281Y0091755D01*
X0330884Y0092333D01*
X0329372Y0092333D01*
X0327976Y0091755D01*
X0327754Y0091533D01*
X0310371Y0091533D01*
X0305428Y0096476D01*
X0304325Y0096933D01*
X0224971Y0096933D01*
X0222963Y0098942D01*
X0380128Y0098949D01*
X0380128Y0037933D01*
X0376700Y0037933D01*
X0375528Y0036761D01*
X0374357Y0037933D01*
X0366700Y0037933D01*
X0365528Y0036761D01*
X0365528Y0029105D01*
X0366700Y0027933D01*
X0374357Y0027933D01*
X0375528Y0029105D01*
X0375528Y0029333D01*
X0375528Y0029333D01*
X0375528Y0029105D01*
X0376700Y0027933D01*
X0384357Y0027933D01*
X0385528Y0029105D01*
X0385528Y0032642D01*
X0386780Y0033894D01*
X0387328Y0035217D01*
X0387328Y0098949D01*
X0410246Y0098950D01*
X0410328Y0099033D01*
X0410328Y0020733D01*
X0042128Y0020733D01*
X0041728Y0020933D01*
X0045314Y0031921D02*
X0250649Y0031921D01*
X0252648Y0029923D02*
X0032739Y0029923D01*
X0031828Y0031921D02*
X0036143Y0031921D01*
X0032932Y0033920D02*
X0031828Y0033920D01*
X0046778Y0032454D02*
X0046778Y0032454D01*
X0048525Y0033920D02*
X0055681Y0033920D01*
X0054028Y0035918D02*
X0050438Y0035918D01*
X0049997Y0035155D02*
X0049997Y0035155D01*
X0051592Y0037917D02*
X0054028Y0037917D01*
X0054028Y0039915D02*
X0052296Y0039915D01*
X0052099Y0038795D02*
X0052099Y0038795D01*
X0052649Y0041914D02*
X0055648Y0041914D01*
X0052656Y0043912D02*
X0065688Y0043912D01*
X0065648Y0041914D02*
X0063809Y0041914D01*
X0064028Y0045911D02*
X0052303Y0045911D01*
X0051615Y0047909D02*
X0064028Y0047909D01*
X0064028Y0049908D02*
X0050461Y0049908D01*
X0049997Y0050711D02*
X0049997Y0050711D01*
X0049997Y0050711D01*
X0048573Y0051906D02*
X0065641Y0051906D01*
X0073816Y0051906D02*
X0075641Y0051906D01*
X0076217Y0059900D02*
X0031828Y0059900D01*
X0031828Y0057902D02*
X0136728Y0057902D01*
X0136728Y0059900D02*
X0109473Y0059900D01*
X0111641Y0061899D02*
X0136728Y0061899D01*
X0136728Y0063897D02*
X0112428Y0063897D01*
X0112428Y0065896D02*
X0136728Y0065896D01*
X0136728Y0067894D02*
X0111671Y0067894D01*
X0109649Y0069893D02*
X0136728Y0069893D01*
X0136728Y0071891D02*
X0096646Y0071891D01*
X0095996Y0069893D02*
X0103808Y0069893D01*
X0101785Y0067894D02*
X0083182Y0067894D01*
X0083381Y0065896D02*
X0084075Y0065896D01*
X0090074Y0065896D02*
X0101028Y0065896D01*
X0098645Y0073890D02*
X0136728Y0073890D01*
X0136728Y0075888D02*
X0105614Y0075888D01*
X0106150Y0077887D02*
X0136728Y0077887D01*
X0137438Y0079885D02*
X0106150Y0079885D01*
X0106150Y0081884D02*
X0139437Y0081884D01*
X0141435Y0083882D02*
X0106150Y0083882D01*
X0105711Y0085881D02*
X0143368Y0085881D01*
X0144728Y0082933D02*
X0139728Y0077933D01*
X0139728Y0047933D01*
X0134028Y0047909D02*
X0125428Y0047909D01*
X0125428Y0045911D02*
X0134028Y0045911D01*
X0135688Y0043912D02*
X0123769Y0043912D01*
X0123809Y0041914D02*
X0125648Y0041914D01*
X0125681Y0033920D02*
X0123776Y0033920D01*
X0115681Y0033920D02*
X0103776Y0033920D01*
X0105428Y0035918D02*
X0114028Y0035918D01*
X0114028Y0037917D02*
X0105428Y0037917D01*
X0105428Y0039915D02*
X0114028Y0039915D01*
X0115648Y0041914D02*
X0103809Y0041914D01*
X0103769Y0043912D02*
X0105688Y0043912D01*
X0113769Y0043912D02*
X0115688Y0043912D01*
X0115641Y0051906D02*
X0113816Y0051906D01*
X0105641Y0051906D02*
X0103816Y0051906D01*
X0095641Y0051906D02*
X0093816Y0051906D01*
X0085641Y0051906D02*
X0083816Y0051906D01*
X0083769Y0043912D02*
X0085688Y0043912D01*
X0083809Y0041914D02*
X0095648Y0041914D01*
X0095688Y0043912D02*
X0093769Y0043912D01*
X0094028Y0039915D02*
X0085428Y0039915D01*
X0085428Y0037917D02*
X0094028Y0037917D01*
X0094028Y0035918D02*
X0085428Y0035918D01*
X0083776Y0033920D02*
X0095681Y0033920D01*
X0075681Y0033920D02*
X0073776Y0033920D01*
X0065681Y0033920D02*
X0063776Y0033920D01*
X0046778Y0053412D02*
X0046778Y0053412D01*
X0045424Y0053905D02*
X0136728Y0053905D01*
X0136728Y0055903D02*
X0031828Y0055903D01*
X0031828Y0053905D02*
X0036032Y0053905D01*
X0034678Y0053412D02*
X0034678Y0053412D01*
X0032884Y0051906D02*
X0031828Y0051906D01*
X0031828Y0061899D02*
X0076217Y0061899D01*
X0076217Y0063897D02*
X0031828Y0063897D01*
X0031828Y0065896D02*
X0077382Y0065896D01*
X0077582Y0067894D02*
X0031828Y0067894D01*
X0031828Y0069893D02*
X0076217Y0069893D01*
X0076217Y0071891D02*
X0031828Y0071891D01*
X0031828Y0073890D02*
X0076217Y0073890D01*
X0077375Y0075888D02*
X0031828Y0075888D01*
X0031828Y0077887D02*
X0077582Y0077887D01*
X0076467Y0079885D02*
X0031828Y0079885D01*
X0031828Y0081884D02*
X0076217Y0081884D01*
X0076217Y0083882D02*
X0031828Y0083882D01*
X0031828Y0085881D02*
X0076368Y0085881D01*
X0078715Y0087879D02*
X0031828Y0087879D01*
X0032673Y0089878D02*
X0080713Y0089878D01*
X0085184Y0091877D02*
X0034672Y0091877D01*
X0036670Y0093875D02*
X0084728Y0093875D01*
X0085302Y0095874D02*
X0038669Y0095874D01*
X0040667Y0097872D02*
X0088290Y0097872D01*
X0088528Y0093733D02*
X0102728Y0108933D01*
X0140728Y0108933D01*
X0150728Y0098933D01*
X0173728Y0098933D01*
X0171643Y0101939D02*
X0151683Y0101938D01*
X0143102Y0110519D01*
X0142314Y0111307D01*
X0141285Y0111733D01*
X0103236Y0111733D01*
X0103190Y0111750D01*
X0102681Y0111733D01*
X0102171Y0111733D01*
X0102126Y0111714D01*
X0102077Y0111713D01*
X0101613Y0111502D01*
X0101142Y0111307D01*
X0101107Y0111272D01*
X0101062Y0111252D01*
X0100715Y0110879D01*
X0100355Y0110519D01*
X0100336Y0110474D01*
X0092359Y0101935D01*
X0041657Y0101933D01*
X0041132Y0101933D01*
X0041132Y0101933D01*
X0041131Y0101933D01*
X0040846Y0101815D01*
X0031828Y0110833D01*
X0031828Y0227871D01*
X0034605Y0225541D01*
X0034605Y0225541D01*
X0038489Y0224127D01*
X0042622Y0224127D01*
X0046505Y0225541D01*
X0049671Y0228197D01*
X0049671Y0228197D01*
X0051737Y0231776D01*
X0052455Y0235846D01*
X0051737Y0239916D01*
X0051737Y0239916D01*
X0049671Y0243496D01*
X0046505Y0246152D01*
X0042622Y0247566D01*
X0038489Y0247566D01*
X0034605Y0246152D01*
X0031828Y0243822D01*
X0031828Y0325933D01*
X0411728Y0325933D01*
X0411728Y0240933D01*
X0410128Y0240933D01*
X0410128Y0281609D01*
X0409611Y0282859D01*
X0398654Y0293815D01*
X0397405Y0294333D01*
X0356052Y0294333D01*
X0354802Y0293815D01*
X0353846Y0292859D01*
X0343846Y0282859D01*
X0343328Y0281609D01*
X0343328Y0277341D01*
X0341161Y0275174D01*
X0340691Y0275174D01*
X0340182Y0274963D01*
X0340969Y0276864D01*
X0340969Y0279569D01*
X0339934Y0282068D01*
X0338021Y0283981D01*
X0335522Y0285017D01*
X0332817Y0285017D01*
X0330317Y0283981D01*
X0328405Y0282068D01*
X0327369Y0279569D01*
X0327369Y0276864D01*
X0328405Y0274365D01*
X0330317Y0272452D01*
X0331954Y0271774D01*
X0315696Y0271774D01*
X0310128Y0277341D01*
X0310128Y0286609D01*
X0309611Y0287859D01*
X0304611Y0292859D01*
X0303654Y0293815D01*
X0302405Y0294333D01*
X0256052Y0294333D01*
X0254802Y0293815D01*
X0253846Y0292859D01*
X0248846Y0287859D01*
X0248328Y0286609D01*
X0248328Y0277341D01*
X0246161Y0275174D01*
X0245691Y0275174D01*
X0245182Y0274963D01*
X0245969Y0276864D01*
X0245969Y0279569D01*
X0244934Y0282068D01*
X0243021Y0283981D01*
X0240522Y0285017D01*
X0237817Y0285017D01*
X0235317Y0283981D01*
X0233405Y0282068D01*
X0232369Y0279569D01*
X0232369Y0276864D01*
X0233405Y0274365D01*
X0235317Y0272452D01*
X0236954Y0271774D01*
X0220696Y0271774D01*
X0215128Y0277341D01*
X0215128Y0286609D01*
X0214611Y0287859D01*
X0209611Y0292859D01*
X0208654Y0293815D01*
X0207405Y0294333D01*
X0161052Y0294333D01*
X0159802Y0293815D01*
X0158846Y0292859D01*
X0153846Y0287859D01*
X0153328Y0286609D01*
X0153328Y0277341D01*
X0151161Y0275174D01*
X0150691Y0275174D01*
X0150182Y0274963D01*
X0150969Y0276864D01*
X0150969Y0279569D01*
X0149934Y0282068D01*
X0148021Y0283981D01*
X0145522Y0285017D01*
X0142817Y0285017D01*
X0140317Y0283981D01*
X0138405Y0282068D01*
X0137369Y0279569D01*
X0137369Y0276864D01*
X0138405Y0274365D01*
X0140317Y0272452D01*
X0141954Y0271774D01*
X0125696Y0271774D01*
X0120128Y0277341D01*
X0120128Y0286609D01*
X0119611Y0287859D01*
X0114611Y0292859D01*
X0113654Y0293815D01*
X0112405Y0294333D01*
X0066052Y0294333D01*
X0064802Y0293815D01*
X0063846Y0292859D01*
X0058846Y0287859D01*
X0058328Y0286609D01*
X0058328Y0277341D01*
X0056161Y0275174D01*
X0055691Y0275174D01*
X0055182Y0274963D01*
X0055969Y0276864D01*
X0055969Y0279569D01*
X0054934Y0282068D01*
X0053021Y0283981D01*
X0050522Y0285017D01*
X0047817Y0285017D01*
X0045317Y0283981D01*
X0043405Y0282068D01*
X0042369Y0279569D01*
X0042369Y0276864D01*
X0043405Y0274365D01*
X0045317Y0272452D01*
X0047817Y0271417D01*
X0050522Y0271417D01*
X0051031Y0271627D01*
X0050243Y0269727D01*
X0050243Y0267021D01*
X0051279Y0264522D01*
X0053191Y0262609D01*
X0055691Y0261574D01*
X0058396Y0261574D01*
X0060895Y0262609D01*
X0062808Y0264522D01*
X0063843Y0267021D01*
X0063843Y0269727D01*
X0062814Y0272211D01*
X0063654Y0273051D01*
X0064611Y0274007D01*
X0065128Y0275257D01*
X0065128Y0284525D01*
X0068137Y0287533D01*
X0110320Y0287533D01*
X0113328Y0284525D01*
X0113328Y0275257D01*
X0113846Y0274007D01*
X0122361Y0265492D01*
X0123611Y0264974D01*
X0146091Y0264974D01*
X0146279Y0264522D01*
X0148191Y0262609D01*
X0150691Y0261574D01*
X0153396Y0261574D01*
X0155895Y0262609D01*
X0157808Y0264522D01*
X0158843Y0267021D01*
X0158843Y0269727D01*
X0157814Y0272211D01*
X0158654Y0273051D01*
X0159611Y0274007D01*
X0160128Y0275257D01*
X0160128Y0284525D01*
X0163137Y0287533D01*
X0205320Y0287533D01*
X0208328Y0284525D01*
X0208328Y0275257D01*
X0208846Y0274007D01*
X0217361Y0265492D01*
X0218611Y0264974D01*
X0241091Y0264974D01*
X0241279Y0264522D01*
X0243191Y0262609D01*
X0245691Y0261574D01*
X0248396Y0261574D01*
X0250895Y0262609D01*
X0252808Y0264522D01*
X0253843Y0267021D01*
X0253843Y0269727D01*
X0252814Y0272211D01*
X0253654Y0273051D01*
X0254611Y0274007D01*
X0255128Y0275257D01*
X0255128Y0284525D01*
X0258137Y0287533D01*
X0300320Y0287533D01*
X0303328Y0284525D01*
X0303328Y0275257D01*
X0303846Y0274007D01*
X0312361Y0265492D01*
X0313611Y0264974D01*
X0336091Y0264974D01*
X0336279Y0264522D01*
X0338191Y0262609D01*
X0340691Y0261574D01*
X0343396Y0261574D01*
X0343419Y0261584D01*
X0324142Y0242307D01*
X0323355Y0241519D01*
X0322928Y0240490D01*
X0322928Y0143093D01*
X0308569Y0128733D01*
X0221171Y0128733D01*
X0220142Y0128307D01*
X0213879Y0122043D01*
X0213879Y0128124D01*
X0234102Y0148347D01*
X0234528Y0149376D01*
X0234528Y0237773D01*
X0248054Y0251299D01*
X0247428Y0249788D01*
X0247428Y0248078D01*
X0248083Y0246497D01*
X0249293Y0245288D01*
X0250873Y0244633D01*
X0252584Y0244633D01*
X0254164Y0245288D01*
X0255374Y0246497D01*
X0256028Y0248078D01*
X0256028Y0249788D01*
X0255374Y0251369D01*
X0254164Y0252578D01*
X0252584Y0253233D01*
X0250873Y0253233D01*
X0249362Y0252607D01*
X0268236Y0271481D01*
X0270580Y0272452D01*
X0272493Y0274365D01*
X0273528Y0276864D01*
X0273528Y0279569D01*
X0272493Y0282068D01*
X0270580Y0283981D01*
X0268081Y0285017D01*
X0265376Y0285017D01*
X0262876Y0283981D01*
X0260964Y0282068D01*
X0259928Y0279569D01*
X0259928Y0276864D01*
X0260964Y0274365D01*
X0262082Y0273246D01*
X0230142Y0241307D01*
X0229355Y0240519D01*
X0228928Y0239490D01*
X0228928Y0151093D01*
X0208705Y0130870D01*
X0208279Y0129840D01*
X0208279Y0123342D01*
X0199314Y0132307D01*
X0198285Y0132733D01*
X0150888Y0132733D01*
X0138528Y0145093D01*
X0138528Y0236773D01*
X0153054Y0251299D01*
X0152428Y0249788D01*
X0152428Y0248078D01*
X0153083Y0246497D01*
X0154293Y0245288D01*
X0155873Y0244633D01*
X0157584Y0244633D01*
X0159164Y0245288D01*
X0160374Y0246497D01*
X0161028Y0248078D01*
X0161028Y0249788D01*
X0160374Y0251369D01*
X0159164Y0252578D01*
X0157584Y0253233D01*
X0155873Y0253233D01*
X0154362Y0252607D01*
X0173236Y0271481D01*
X0175580Y0272452D01*
X0177493Y0274365D01*
X0178528Y0276864D01*
X0178528Y0279569D01*
X0177493Y0282068D01*
X0175580Y0283981D01*
X0173081Y0285017D01*
X0170376Y0285017D01*
X0167876Y0283981D01*
X0165964Y0282068D01*
X0164928Y0279569D01*
X0164928Y0276864D01*
X0165964Y0274365D01*
X0167082Y0273246D01*
X0134142Y0240307D01*
X0133355Y0239519D01*
X0132928Y0238490D01*
X0132928Y0143376D01*
X0133355Y0142347D01*
X0147355Y0128347D01*
X0148142Y0127559D01*
X0149171Y0127133D01*
X0196569Y0127133D01*
X0203279Y0120423D01*
X0203279Y0120342D01*
X0198102Y0125519D01*
X0197314Y0126307D01*
X0196285Y0126733D01*
X0064888Y0126733D01*
X0052528Y0139093D01*
X0052528Y0215773D01*
X0057314Y0220559D01*
X0058054Y0221299D01*
X0057428Y0219788D01*
X0057428Y0218078D01*
X0058083Y0216497D01*
X0059293Y0215288D01*
X0060873Y0214633D01*
X0062584Y0214633D01*
X0064164Y0215288D01*
X0065374Y0216497D01*
X0066028Y0218078D01*
X0066028Y0219788D01*
X0065374Y0221369D01*
X0064164Y0222578D01*
X0062584Y0223233D01*
X0060873Y0223233D01*
X0059293Y0222578D01*
X0058131Y0221417D01*
X0058528Y0222376D01*
X0058528Y0246052D01*
X0059293Y0245288D01*
X0060873Y0244633D01*
X0062584Y0244633D01*
X0064164Y0245288D01*
X0065374Y0246497D01*
X0066028Y0248078D01*
X0066028Y0249788D01*
X0065374Y0251369D01*
X0064164Y0252578D01*
X0062584Y0253233D01*
X0060873Y0253233D01*
X0059362Y0252607D01*
X0078236Y0271481D01*
X0080580Y0272452D01*
X0082493Y0274365D01*
X0083528Y0276864D01*
X0083528Y0279569D01*
X0082493Y0282068D01*
X0080580Y0283981D01*
X0078081Y0285017D01*
X0075376Y0285017D01*
X0072876Y0283981D01*
X0070964Y0282068D01*
X0069928Y0279569D01*
X0069928Y0276864D01*
X0070964Y0274365D01*
X0072082Y0273246D01*
X0053355Y0254519D01*
X0052928Y0253490D01*
X0052928Y0224093D01*
X0048142Y0219307D01*
X0047355Y0218519D01*
X0046928Y0217490D01*
X0046928Y0137376D01*
X0047355Y0136347D01*
X0048142Y0135559D01*
X0061355Y0122347D01*
X0062142Y0121559D01*
X0063171Y0121133D01*
X0194569Y0121133D01*
X0198098Y0117604D01*
X0198098Y0107707D01*
X0199152Y0106653D01*
X0203005Y0106653D01*
X0203579Y0107226D01*
X0204152Y0106653D01*
X0208005Y0106653D01*
X0208579Y0107226D01*
X0209152Y0106653D01*
X0213005Y0106653D01*
X0213579Y0107226D01*
X0214152Y0106653D01*
X0218005Y0106653D01*
X0218579Y0107226D01*
X0219152Y0106653D01*
X0223005Y0106653D01*
X0223579Y0107226D01*
X0224152Y0106653D01*
X0228005Y0106653D01*
X0228579Y0107226D01*
X0229152Y0106653D01*
X0233005Y0106653D01*
X0233579Y0107226D01*
X0234152Y0106653D01*
X0238005Y0106653D01*
X0239060Y0107707D01*
X0239060Y0117860D01*
X0238005Y0118914D01*
X0234152Y0118914D01*
X0233579Y0118341D01*
X0233005Y0118914D01*
X0229152Y0118914D01*
X0228579Y0118341D01*
X0228005Y0118914D01*
X0224152Y0118914D01*
X0223579Y0118341D01*
X0223005Y0118914D01*
X0219152Y0118914D01*
X0218879Y0118641D01*
X0218879Y0119124D01*
X0222888Y0123133D01*
X0310285Y0123133D01*
X0311314Y0123559D01*
X0328102Y0140347D01*
X0328528Y0141376D01*
X0328528Y0238773D01*
X0361172Y0271417D01*
X0363081Y0271417D01*
X0365580Y0272452D01*
X0367493Y0274365D01*
X0368528Y0276864D01*
X0368528Y0279569D01*
X0367493Y0282068D01*
X0365580Y0283981D01*
X0363081Y0285017D01*
X0360376Y0285017D01*
X0357876Y0283981D01*
X0355964Y0282068D01*
X0354928Y0279569D01*
X0354928Y0276864D01*
X0355964Y0274365D01*
X0356082Y0274246D01*
X0348834Y0266998D01*
X0348843Y0267021D01*
X0348843Y0269727D01*
X0347814Y0272211D01*
X0348654Y0273051D01*
X0349611Y0274007D01*
X0350128Y0275257D01*
X0350128Y0279525D01*
X0358137Y0287533D01*
X0395320Y0287533D01*
X0403328Y0279525D01*
X0403328Y0242315D01*
X0402927Y0243284D01*
X0400870Y0245340D01*
X0398183Y0246454D01*
X0395274Y0246454D01*
X0392587Y0245340D01*
X0390530Y0243284D01*
X0389556Y0240933D01*
X0386728Y0240933D01*
X0371728Y0225933D01*
X0371728Y0115933D01*
X0357743Y0101948D01*
X0175813Y0101939D01*
X0175768Y0101985D01*
X0174444Y0102533D01*
X0173012Y0102533D01*
X0171689Y0101985D01*
X0171643Y0101939D01*
X0173676Y0104894D02*
X0174689Y0103881D01*
X0176012Y0103333D01*
X0177444Y0103333D01*
X0178768Y0103881D01*
X0179780Y0104894D01*
X0180328Y0106217D01*
X0180328Y0107649D01*
X0179780Y0108972D01*
X0179588Y0109165D01*
X0180293Y0109165D01*
X0181347Y0110219D01*
X0181347Y0115647D01*
X0180293Y0116702D01*
X0174471Y0116702D01*
X0173417Y0115647D01*
X0173417Y0110219D01*
X0173928Y0109707D01*
X0173928Y0109224D01*
X0173676Y0108972D01*
X0173128Y0107649D01*
X0173128Y0106217D01*
X0173676Y0104894D01*
X0173274Y0105866D02*
X0147755Y0105866D01*
X0145757Y0107865D02*
X0173218Y0107865D01*
X0173772Y0109863D02*
X0143758Y0109863D01*
X0149754Y0103868D02*
X0174722Y0103868D01*
X0176728Y0106933D02*
X0176728Y0112280D01*
X0177382Y0112933D01*
X0181347Y0113860D02*
X0198098Y0113860D01*
X0198098Y0111862D02*
X0181347Y0111862D01*
X0180991Y0109863D02*
X0198098Y0109863D01*
X0198098Y0107865D02*
X0180239Y0107865D01*
X0180183Y0105866D02*
X0361661Y0105866D01*
X0359663Y0103868D02*
X0178735Y0103868D01*
X0173417Y0111862D02*
X0031828Y0111862D01*
X0031828Y0113860D02*
X0173417Y0113860D01*
X0173628Y0115859D02*
X0031828Y0115859D01*
X0031828Y0117857D02*
X0197844Y0117857D01*
X0198098Y0115859D02*
X0181136Y0115859D01*
X0184075Y0112933D02*
X0191728Y0112933D01*
X0195846Y0119856D02*
X0031828Y0119856D01*
X0031828Y0121854D02*
X0061847Y0121854D01*
X0063728Y0123933D02*
X0195728Y0123933D01*
X0201079Y0118583D01*
X0201079Y0112783D01*
X0206079Y0112783D02*
X0206079Y0121583D01*
X0197728Y0129933D01*
X0149728Y0129933D01*
X0135728Y0143933D01*
X0135728Y0237933D01*
X0171728Y0273933D01*
X0171728Y0278217D01*
X0178063Y0275740D02*
X0192953Y0275740D01*
X0192766Y0275174D02*
X0190061Y0275174D01*
X0187561Y0274139D01*
X0185649Y0272226D01*
X0184613Y0269727D01*
X0184613Y0267021D01*
X0185649Y0264522D01*
X0187561Y0262609D01*
X0190061Y0261574D01*
X0192766Y0261574D01*
X0195265Y0262609D01*
X0197178Y0264522D01*
X0198213Y0267021D01*
X0198213Y0269727D01*
X0197426Y0271627D01*
X0197935Y0271417D01*
X0200640Y0271417D01*
X0203139Y0272452D01*
X0205052Y0274365D01*
X0206087Y0276864D01*
X0206087Y0279569D01*
X0205052Y0282068D01*
X0203139Y0283981D01*
X0200640Y0285017D01*
X0197935Y0285017D01*
X0195436Y0283981D01*
X0193523Y0282068D01*
X0192487Y0279569D01*
X0192487Y0276864D01*
X0193275Y0274963D01*
X0192766Y0275174D01*
X0192487Y0277738D02*
X0178528Y0277738D01*
X0178459Y0279737D02*
X0192557Y0279737D01*
X0193385Y0281735D02*
X0177631Y0281735D01*
X0175828Y0283734D02*
X0195188Y0283734D01*
X0203387Y0283734D02*
X0208328Y0283734D01*
X0208328Y0281735D02*
X0205190Y0281735D01*
X0206018Y0279737D02*
X0208328Y0279737D01*
X0208328Y0277738D02*
X0206087Y0277738D01*
X0205622Y0275740D02*
X0208328Y0275740D01*
X0209112Y0273741D02*
X0204429Y0273741D01*
X0201427Y0271743D02*
X0211111Y0271743D01*
X0213109Y0269744D02*
X0198206Y0269744D01*
X0198213Y0267745D02*
X0215108Y0267745D01*
X0217106Y0265747D02*
X0197685Y0265747D01*
X0196404Y0263748D02*
X0242052Y0263748D01*
X0245266Y0261750D02*
X0193191Y0261750D01*
X0189636Y0261750D02*
X0163505Y0261750D01*
X0165504Y0263748D02*
X0186422Y0263748D01*
X0185141Y0265747D02*
X0167502Y0265747D01*
X0169501Y0267745D02*
X0184613Y0267745D01*
X0184621Y0269744D02*
X0171499Y0269744D01*
X0173868Y0271743D02*
X0185448Y0271743D01*
X0187164Y0273741D02*
X0176869Y0273741D01*
X0166587Y0273741D02*
X0159345Y0273741D01*
X0160128Y0275740D02*
X0165394Y0275740D01*
X0164928Y0277738D02*
X0160128Y0277738D01*
X0160128Y0279737D02*
X0164998Y0279737D01*
X0165826Y0281735D02*
X0160128Y0281735D01*
X0160128Y0283734D02*
X0167629Y0283734D01*
X0161336Y0285732D02*
X0207121Y0285732D01*
X0212741Y0289729D02*
X0250716Y0289729D01*
X0248793Y0287731D02*
X0214664Y0287731D01*
X0215128Y0285732D02*
X0248328Y0285732D01*
X0248328Y0283734D02*
X0243269Y0283734D01*
X0245072Y0281735D02*
X0248328Y0281735D01*
X0248328Y0279737D02*
X0245900Y0279737D01*
X0245969Y0277738D02*
X0248328Y0277738D01*
X0246727Y0275740D02*
X0245504Y0275740D01*
X0253008Y0271743D02*
X0260578Y0271743D01*
X0261587Y0273741D02*
X0254345Y0273741D01*
X0255128Y0275740D02*
X0260394Y0275740D01*
X0259928Y0277738D02*
X0255128Y0277738D01*
X0255128Y0279737D02*
X0259998Y0279737D01*
X0260826Y0281735D02*
X0255128Y0281735D01*
X0255128Y0283734D02*
X0262629Y0283734D01*
X0266728Y0278217D02*
X0266728Y0273933D01*
X0231728Y0238933D01*
X0231728Y0149933D01*
X0211079Y0129283D01*
X0211079Y0112783D01*
X0216079Y0112783D02*
X0216079Y0120283D01*
X0221728Y0125933D01*
X0309728Y0125933D01*
X0325728Y0141933D01*
X0325728Y0239933D01*
X0361728Y0275933D01*
X0363868Y0271743D02*
X0375448Y0271743D01*
X0375649Y0272226D02*
X0374613Y0269727D01*
X0374613Y0267021D01*
X0375649Y0264522D01*
X0377561Y0262609D01*
X0380061Y0261574D01*
X0382766Y0261574D01*
X0385265Y0262609D01*
X0387178Y0264522D01*
X0388213Y0267021D01*
X0388213Y0269727D01*
X0387426Y0271627D01*
X0387935Y0271417D01*
X0390640Y0271417D01*
X0393139Y0272452D01*
X0395052Y0274365D01*
X0396087Y0276864D01*
X0396087Y0279569D01*
X0395052Y0282068D01*
X0393139Y0283981D01*
X0390640Y0285017D01*
X0387935Y0285017D01*
X0385436Y0283981D01*
X0383523Y0282068D01*
X0382487Y0279569D01*
X0382487Y0276864D01*
X0383275Y0274963D01*
X0382766Y0275174D01*
X0380061Y0275174D01*
X0377561Y0274139D01*
X0375649Y0272226D01*
X0377164Y0273741D02*
X0366869Y0273741D01*
X0368063Y0275740D02*
X0382953Y0275740D01*
X0382487Y0277738D02*
X0368528Y0277738D01*
X0368459Y0279737D02*
X0382557Y0279737D01*
X0383385Y0281735D02*
X0367631Y0281735D01*
X0365828Y0283734D02*
X0385188Y0283734D01*
X0393387Y0283734D02*
X0399120Y0283734D01*
X0401118Y0281735D02*
X0395190Y0281735D01*
X0396018Y0279737D02*
X0403117Y0279737D01*
X0403328Y0277738D02*
X0396087Y0277738D01*
X0395622Y0275740D02*
X0403328Y0275740D01*
X0403328Y0273741D02*
X0394429Y0273741D01*
X0391427Y0271743D02*
X0403328Y0271743D01*
X0403328Y0269744D02*
X0388206Y0269744D01*
X0388213Y0267745D02*
X0403328Y0267745D01*
X0403328Y0265747D02*
X0387685Y0265747D01*
X0386404Y0263748D02*
X0403328Y0263748D01*
X0403328Y0261750D02*
X0383191Y0261750D01*
X0379636Y0261750D02*
X0351505Y0261750D01*
X0349507Y0259751D02*
X0403328Y0259751D01*
X0403328Y0257753D02*
X0347508Y0257753D01*
X0345509Y0255754D02*
X0403328Y0255754D01*
X0403328Y0253756D02*
X0343511Y0253756D01*
X0344293Y0252578D02*
X0343083Y0251369D01*
X0342428Y0249788D01*
X0342428Y0248078D01*
X0343083Y0246497D01*
X0344293Y0245288D01*
X0345873Y0244633D01*
X0347584Y0244633D01*
X0349164Y0245288D01*
X0350374Y0246497D01*
X0351028Y0248078D01*
X0351028Y0249788D01*
X0350374Y0251369D01*
X0349164Y0252578D01*
X0347584Y0253233D01*
X0345873Y0253233D01*
X0344293Y0252578D01*
X0343472Y0251757D02*
X0341512Y0251757D01*
X0342428Y0249759D02*
X0339514Y0249759D01*
X0337515Y0247760D02*
X0342560Y0247760D01*
X0343818Y0245762D02*
X0335517Y0245762D01*
X0333518Y0243763D02*
X0391010Y0243763D01*
X0389901Y0241765D02*
X0331520Y0241765D01*
X0329521Y0239766D02*
X0385562Y0239766D01*
X0383563Y0237768D02*
X0328528Y0237768D01*
X0328528Y0235769D02*
X0381565Y0235769D01*
X0379566Y0233771D02*
X0328528Y0233771D01*
X0328528Y0231772D02*
X0377568Y0231772D01*
X0375569Y0229774D02*
X0328528Y0229774D01*
X0328528Y0227775D02*
X0373571Y0227775D01*
X0371728Y0225777D02*
X0328528Y0225777D01*
X0328528Y0223778D02*
X0371728Y0223778D01*
X0371728Y0221780D02*
X0349963Y0221780D01*
X0350374Y0221369D02*
X0349164Y0222578D01*
X0347584Y0223233D01*
X0345873Y0223233D01*
X0344293Y0222578D01*
X0343083Y0221369D01*
X0342428Y0219788D01*
X0342428Y0218078D01*
X0343083Y0216497D01*
X0344293Y0215288D01*
X0345873Y0214633D01*
X0347584Y0214633D01*
X0349164Y0215288D01*
X0350374Y0216497D01*
X0351028Y0218078D01*
X0351028Y0219788D01*
X0350374Y0221369D01*
X0351028Y0219781D02*
X0371728Y0219781D01*
X0371728Y0217783D02*
X0350906Y0217783D01*
X0349661Y0215784D02*
X0371728Y0215784D01*
X0371728Y0213786D02*
X0328528Y0213786D01*
X0328528Y0215784D02*
X0343796Y0215784D01*
X0342551Y0217783D02*
X0328528Y0217783D01*
X0328528Y0219781D02*
X0342428Y0219781D01*
X0343494Y0221780D02*
X0328528Y0221780D01*
X0322928Y0221780D02*
X0308420Y0221780D01*
X0307927Y0220590D02*
X0309040Y0223278D01*
X0309040Y0226187D01*
X0307927Y0228874D01*
X0305870Y0230931D01*
X0303441Y0231937D01*
X0305870Y0232943D01*
X0307927Y0235000D01*
X0309040Y0237687D01*
X0309040Y0240596D01*
X0307927Y0243284D01*
X0305870Y0245340D01*
X0303183Y0246454D01*
X0300274Y0246454D01*
X0297587Y0245340D01*
X0295530Y0243284D01*
X0294417Y0240596D01*
X0294417Y0237687D01*
X0295530Y0235000D01*
X0297587Y0232943D01*
X0300015Y0231937D01*
X0297587Y0230931D01*
X0295530Y0228874D01*
X0294417Y0226187D01*
X0294417Y0223278D01*
X0295530Y0220590D01*
X0297587Y0218534D01*
X0300274Y0217420D01*
X0303183Y0217420D01*
X0305870Y0218534D01*
X0307927Y0220590D01*
X0307118Y0219781D02*
X0322928Y0219781D01*
X0322928Y0217783D02*
X0304057Y0217783D01*
X0303183Y0214446D02*
X0300274Y0214446D01*
X0297587Y0213333D01*
X0295530Y0211276D01*
X0294417Y0208588D01*
X0294417Y0205679D01*
X0295530Y0202992D01*
X0297587Y0200935D01*
X0300015Y0199929D01*
X0297587Y0198923D01*
X0295530Y0196866D01*
X0294417Y0194179D01*
X0294417Y0191270D01*
X0295530Y0188583D01*
X0297587Y0186526D01*
X0300274Y0185413D01*
X0303183Y0185413D01*
X0305870Y0186526D01*
X0307927Y0188583D01*
X0309040Y0191270D01*
X0309040Y0194179D01*
X0307927Y0196866D01*
X0305870Y0198923D01*
X0303441Y0199929D01*
X0305870Y0200935D01*
X0307927Y0202992D01*
X0309040Y0205679D01*
X0309040Y0208588D01*
X0307927Y0211276D01*
X0305870Y0213333D01*
X0303183Y0214446D01*
X0304776Y0213786D02*
X0322928Y0213786D01*
X0322928Y0215784D02*
X0254661Y0215784D01*
X0254164Y0215288D02*
X0255374Y0216497D01*
X0256028Y0218078D01*
X0256028Y0219788D01*
X0255374Y0221369D01*
X0254164Y0222578D01*
X0252584Y0223233D01*
X0250873Y0223233D01*
X0249293Y0222578D01*
X0248083Y0221369D01*
X0247428Y0219788D01*
X0247428Y0218078D01*
X0248083Y0216497D01*
X0249293Y0215288D01*
X0250873Y0214633D01*
X0252584Y0214633D01*
X0254164Y0215288D01*
X0255906Y0217783D02*
X0299399Y0217783D01*
X0296339Y0219781D02*
X0256028Y0219781D01*
X0254963Y0221780D02*
X0295037Y0221780D01*
X0294417Y0223778D02*
X0234528Y0223778D01*
X0234528Y0221780D02*
X0248494Y0221780D01*
X0247428Y0219781D02*
X0234528Y0219781D01*
X0234528Y0217783D02*
X0247551Y0217783D01*
X0248796Y0215784D02*
X0234528Y0215784D01*
X0234528Y0213786D02*
X0298681Y0213786D01*
X0296041Y0211787D02*
X0234528Y0211787D01*
X0234528Y0209789D02*
X0294914Y0209789D01*
X0294417Y0207790D02*
X0234528Y0207790D01*
X0234528Y0205792D02*
X0294417Y0205792D01*
X0295198Y0203793D02*
X0234528Y0203793D01*
X0234528Y0201795D02*
X0296727Y0201795D01*
X0299694Y0199796D02*
X0234528Y0199796D01*
X0234528Y0197798D02*
X0296461Y0197798D01*
X0295088Y0195799D02*
X0234528Y0195799D01*
X0234528Y0193801D02*
X0294417Y0193801D01*
X0294417Y0191802D02*
X0234528Y0191802D01*
X0234528Y0189804D02*
X0295024Y0189804D01*
X0296307Y0187805D02*
X0234528Y0187805D01*
X0234528Y0185807D02*
X0299323Y0185807D01*
X0304134Y0185807D02*
X0322928Y0185807D01*
X0322928Y0187805D02*
X0307149Y0187805D01*
X0308433Y0189804D02*
X0322928Y0189804D01*
X0322928Y0191802D02*
X0309040Y0191802D01*
X0309040Y0193801D02*
X0322928Y0193801D01*
X0322928Y0195799D02*
X0308369Y0195799D01*
X0306996Y0197798D02*
X0322928Y0197798D01*
X0322928Y0199796D02*
X0303762Y0199796D01*
X0306730Y0201795D02*
X0322928Y0201795D01*
X0322928Y0203793D02*
X0308259Y0203793D01*
X0309040Y0205792D02*
X0322928Y0205792D01*
X0322928Y0207790D02*
X0309040Y0207790D01*
X0308543Y0209789D02*
X0322928Y0209789D01*
X0322928Y0211787D02*
X0307415Y0211787D01*
X0309040Y0223778D02*
X0322928Y0223778D01*
X0322928Y0225777D02*
X0309040Y0225777D01*
X0308382Y0227775D02*
X0322928Y0227775D01*
X0322928Y0229774D02*
X0307027Y0229774D01*
X0303839Y0231772D02*
X0322928Y0231772D01*
X0322928Y0233771D02*
X0306698Y0233771D01*
X0308246Y0235769D02*
X0322928Y0235769D01*
X0322928Y0237768D02*
X0309040Y0237768D01*
X0309040Y0239766D02*
X0322928Y0239766D01*
X0323600Y0241765D02*
X0308556Y0241765D01*
X0307447Y0243763D02*
X0325599Y0243763D01*
X0327597Y0245762D02*
X0304853Y0245762D01*
X0298604Y0245762D02*
X0254638Y0245762D01*
X0255897Y0247760D02*
X0329596Y0247760D01*
X0331594Y0249759D02*
X0256028Y0249759D01*
X0254985Y0251757D02*
X0333593Y0251757D01*
X0335591Y0253756D02*
X0250511Y0253756D01*
X0252509Y0255754D02*
X0337590Y0255754D01*
X0339588Y0257753D02*
X0254508Y0257753D01*
X0256507Y0259751D02*
X0341587Y0259751D01*
X0340266Y0261750D02*
X0288191Y0261750D01*
X0287766Y0261574D02*
X0290265Y0262609D01*
X0292178Y0264522D01*
X0293213Y0267021D01*
X0293213Y0269727D01*
X0292426Y0271627D01*
X0292935Y0271417D01*
X0295640Y0271417D01*
X0298139Y0272452D01*
X0300052Y0274365D01*
X0301087Y0276864D01*
X0301087Y0279569D01*
X0300052Y0282068D01*
X0298139Y0283981D01*
X0295640Y0285017D01*
X0292935Y0285017D01*
X0290436Y0283981D01*
X0288523Y0282068D01*
X0287487Y0279569D01*
X0287487Y0276864D01*
X0288275Y0274963D01*
X0287766Y0275174D01*
X0285061Y0275174D01*
X0282561Y0274139D01*
X0280649Y0272226D01*
X0279613Y0269727D01*
X0279613Y0267021D01*
X0280649Y0264522D01*
X0282561Y0262609D01*
X0285061Y0261574D01*
X0287766Y0261574D01*
X0284636Y0261750D02*
X0258505Y0261750D01*
X0260504Y0263748D02*
X0281422Y0263748D01*
X0280141Y0265747D02*
X0262502Y0265747D01*
X0264501Y0267745D02*
X0279613Y0267745D01*
X0279621Y0269744D02*
X0266499Y0269744D01*
X0268868Y0271743D02*
X0280448Y0271743D01*
X0282164Y0273741D02*
X0271869Y0273741D01*
X0273063Y0275740D02*
X0287953Y0275740D01*
X0287487Y0277738D02*
X0273528Y0277738D01*
X0273459Y0279737D02*
X0287557Y0279737D01*
X0288385Y0281735D02*
X0272631Y0281735D01*
X0270828Y0283734D02*
X0290188Y0283734D01*
X0298387Y0283734D02*
X0303328Y0283734D01*
X0303328Y0281735D02*
X0300190Y0281735D01*
X0301018Y0279737D02*
X0303328Y0279737D01*
X0303328Y0277738D02*
X0301087Y0277738D01*
X0300622Y0275740D02*
X0303328Y0275740D01*
X0304112Y0273741D02*
X0299429Y0273741D01*
X0296427Y0271743D02*
X0306111Y0271743D01*
X0308109Y0269744D02*
X0293206Y0269744D01*
X0293213Y0267745D02*
X0310108Y0267745D01*
X0312106Y0265747D02*
X0292685Y0265747D01*
X0291404Y0263748D02*
X0337052Y0263748D01*
X0348843Y0267745D02*
X0349581Y0267745D01*
X0348836Y0269744D02*
X0351580Y0269744D01*
X0353578Y0271743D02*
X0348008Y0271743D01*
X0349345Y0273741D02*
X0355577Y0273741D01*
X0355394Y0275740D02*
X0350128Y0275740D01*
X0350128Y0277738D02*
X0354928Y0277738D01*
X0354998Y0279737D02*
X0350340Y0279737D01*
X0352339Y0281735D02*
X0355826Y0281735D01*
X0354337Y0283734D02*
X0357629Y0283734D01*
X0356336Y0285732D02*
X0397121Y0285732D01*
X0402741Y0289729D02*
X0411728Y0289729D01*
X0411728Y0287731D02*
X0404739Y0287731D01*
X0406738Y0285732D02*
X0411728Y0285732D01*
X0411728Y0283734D02*
X0408736Y0283734D01*
X0410076Y0281735D02*
X0411728Y0281735D01*
X0411728Y0279737D02*
X0410128Y0279737D01*
X0410128Y0277738D02*
X0411728Y0277738D01*
X0411728Y0275740D02*
X0410128Y0275740D01*
X0410128Y0273741D02*
X0411728Y0273741D01*
X0411728Y0271743D02*
X0410128Y0271743D01*
X0410128Y0269744D02*
X0411728Y0269744D01*
X0411728Y0267745D02*
X0410128Y0267745D01*
X0410128Y0265747D02*
X0411728Y0265747D01*
X0411728Y0263748D02*
X0410128Y0263748D01*
X0410128Y0261750D02*
X0411728Y0261750D01*
X0411728Y0259751D02*
X0410128Y0259751D01*
X0410128Y0257753D02*
X0411728Y0257753D01*
X0411728Y0255754D02*
X0410128Y0255754D01*
X0410128Y0253756D02*
X0411728Y0253756D01*
X0411728Y0251757D02*
X0410128Y0251757D01*
X0410128Y0249759D02*
X0411728Y0249759D01*
X0411728Y0247760D02*
X0410128Y0247760D01*
X0410128Y0245762D02*
X0411728Y0245762D01*
X0411728Y0243763D02*
X0410128Y0243763D01*
X0410128Y0241765D02*
X0411728Y0241765D01*
X0403328Y0243763D02*
X0402447Y0243763D01*
X0403328Y0245762D02*
X0399853Y0245762D01*
X0403328Y0247760D02*
X0350897Y0247760D01*
X0351028Y0249759D02*
X0403328Y0249759D01*
X0403328Y0251757D02*
X0349985Y0251757D01*
X0349638Y0245762D02*
X0393604Y0245762D01*
X0376422Y0263748D02*
X0353504Y0263748D01*
X0355502Y0265747D02*
X0375141Y0265747D01*
X0374613Y0267745D02*
X0357501Y0267745D01*
X0359499Y0269744D02*
X0374621Y0269744D01*
X0350716Y0289729D02*
X0307741Y0289729D01*
X0309664Y0287731D02*
X0348718Y0287731D01*
X0346719Y0285732D02*
X0310128Y0285732D01*
X0310128Y0283734D02*
X0330070Y0283734D01*
X0328266Y0281735D02*
X0310128Y0281735D01*
X0310128Y0279737D02*
X0327439Y0279737D01*
X0327369Y0277738D02*
X0310128Y0277738D01*
X0311730Y0275740D02*
X0327835Y0275740D01*
X0329028Y0273741D02*
X0313729Y0273741D01*
X0302121Y0285732D02*
X0256336Y0285732D01*
X0252715Y0291728D02*
X0210742Y0291728D01*
X0208744Y0293726D02*
X0254713Y0293726D01*
X0235070Y0283734D02*
X0215128Y0283734D01*
X0215128Y0281735D02*
X0233266Y0281735D01*
X0232439Y0279737D02*
X0215128Y0279737D01*
X0215128Y0277738D02*
X0232369Y0277738D01*
X0232835Y0275740D02*
X0216730Y0275740D01*
X0218729Y0273741D02*
X0234028Y0273741D01*
X0252034Y0263748D02*
X0252584Y0263748D01*
X0253315Y0265747D02*
X0254582Y0265747D01*
X0253843Y0267745D02*
X0256581Y0267745D01*
X0258580Y0269744D02*
X0253836Y0269744D01*
X0250585Y0261750D02*
X0248821Y0261750D01*
X0248587Y0259751D02*
X0161507Y0259751D01*
X0159508Y0257753D02*
X0246588Y0257753D01*
X0244590Y0255754D02*
X0157509Y0255754D01*
X0155511Y0253756D02*
X0242591Y0253756D01*
X0240593Y0251757D02*
X0159985Y0251757D01*
X0161028Y0249759D02*
X0238594Y0249759D01*
X0236596Y0247760D02*
X0160897Y0247760D01*
X0159638Y0245762D02*
X0203604Y0245762D01*
X0202587Y0245340D02*
X0200530Y0243284D01*
X0199417Y0240596D01*
X0199417Y0237687D01*
X0200530Y0235000D01*
X0202587Y0232943D01*
X0205015Y0231937D01*
X0202587Y0230931D01*
X0200530Y0228874D01*
X0199417Y0226187D01*
X0199417Y0223278D01*
X0200530Y0220590D01*
X0202587Y0218534D01*
X0205274Y0217420D01*
X0208183Y0217420D01*
X0210870Y0218534D01*
X0212927Y0220590D01*
X0214040Y0223278D01*
X0214040Y0226187D01*
X0212927Y0228874D01*
X0210870Y0230931D01*
X0208441Y0231937D01*
X0210870Y0232943D01*
X0212927Y0235000D01*
X0214040Y0237687D01*
X0214040Y0240596D01*
X0212927Y0243284D01*
X0210870Y0245340D01*
X0208183Y0246454D01*
X0205274Y0246454D01*
X0202587Y0245340D01*
X0201010Y0243763D02*
X0145518Y0243763D01*
X0143520Y0241765D02*
X0199901Y0241765D01*
X0199417Y0239766D02*
X0141521Y0239766D01*
X0139523Y0237768D02*
X0199417Y0237768D01*
X0200211Y0235769D02*
X0138528Y0235769D01*
X0138528Y0233771D02*
X0201759Y0233771D01*
X0204618Y0231772D02*
X0138528Y0231772D01*
X0138528Y0229774D02*
X0201429Y0229774D01*
X0200075Y0227775D02*
X0138528Y0227775D01*
X0138528Y0225777D02*
X0199417Y0225777D01*
X0199417Y0223778D02*
X0138528Y0223778D01*
X0138528Y0221780D02*
X0153494Y0221780D01*
X0153083Y0221369D02*
X0152428Y0219788D01*
X0152428Y0218078D01*
X0153083Y0216497D01*
X0154293Y0215288D01*
X0155873Y0214633D01*
X0157584Y0214633D01*
X0159164Y0215288D01*
X0160374Y0216497D01*
X0161028Y0218078D01*
X0161028Y0219788D01*
X0160374Y0221369D01*
X0159164Y0222578D01*
X0157584Y0223233D01*
X0155873Y0223233D01*
X0154293Y0222578D01*
X0153083Y0221369D01*
X0152428Y0219781D02*
X0138528Y0219781D01*
X0138528Y0217783D02*
X0152551Y0217783D01*
X0153796Y0215784D02*
X0138528Y0215784D01*
X0138528Y0213786D02*
X0203681Y0213786D01*
X0202587Y0213333D02*
X0200530Y0211276D01*
X0199417Y0208588D01*
X0199417Y0205679D01*
X0200530Y0202992D01*
X0202587Y0200935D01*
X0205015Y0199929D01*
X0202587Y0198923D01*
X0200530Y0196866D01*
X0199417Y0194179D01*
X0199417Y0191270D01*
X0200530Y0188583D01*
X0202587Y0186526D01*
X0205274Y0185413D01*
X0208183Y0185413D01*
X0210870Y0186526D01*
X0212927Y0188583D01*
X0214040Y0191270D01*
X0214040Y0194179D01*
X0212927Y0196866D01*
X0210870Y0198923D01*
X0208441Y0199929D01*
X0210870Y0200935D01*
X0212927Y0202992D01*
X0214040Y0205679D01*
X0214040Y0208588D01*
X0212927Y0211276D01*
X0210870Y0213333D01*
X0208183Y0214446D01*
X0205274Y0214446D01*
X0202587Y0213333D01*
X0201041Y0211787D02*
X0138528Y0211787D01*
X0138528Y0209789D02*
X0199914Y0209789D01*
X0199417Y0207790D02*
X0138528Y0207790D01*
X0138528Y0205792D02*
X0199417Y0205792D01*
X0200198Y0203793D02*
X0138528Y0203793D01*
X0138528Y0201795D02*
X0201727Y0201795D01*
X0204694Y0199796D02*
X0138528Y0199796D01*
X0138528Y0197798D02*
X0201461Y0197798D01*
X0200088Y0195799D02*
X0138528Y0195799D01*
X0138528Y0193801D02*
X0199417Y0193801D01*
X0199417Y0191802D02*
X0138528Y0191802D01*
X0138528Y0189804D02*
X0200024Y0189804D01*
X0201307Y0187805D02*
X0138528Y0187805D01*
X0138528Y0185807D02*
X0204323Y0185807D01*
X0209134Y0185807D02*
X0228928Y0185807D01*
X0228928Y0187805D02*
X0212149Y0187805D01*
X0213433Y0189804D02*
X0228928Y0189804D01*
X0228928Y0191802D02*
X0214040Y0191802D01*
X0214040Y0193801D02*
X0228928Y0193801D01*
X0228928Y0195799D02*
X0213369Y0195799D01*
X0211996Y0197798D02*
X0228928Y0197798D01*
X0228928Y0199796D02*
X0208762Y0199796D01*
X0211730Y0201795D02*
X0228928Y0201795D01*
X0228928Y0203793D02*
X0213259Y0203793D01*
X0214040Y0205792D02*
X0228928Y0205792D01*
X0228928Y0207790D02*
X0214040Y0207790D01*
X0213543Y0209789D02*
X0228928Y0209789D01*
X0228928Y0211787D02*
X0212415Y0211787D01*
X0209776Y0213786D02*
X0228928Y0213786D01*
X0228928Y0215784D02*
X0159661Y0215784D01*
X0160906Y0217783D02*
X0204399Y0217783D01*
X0201339Y0219781D02*
X0161028Y0219781D01*
X0159963Y0221780D02*
X0200037Y0221780D01*
X0209057Y0217783D02*
X0228928Y0217783D01*
X0228928Y0219781D02*
X0212118Y0219781D01*
X0213420Y0221780D02*
X0228928Y0221780D01*
X0228928Y0223778D02*
X0214040Y0223778D01*
X0214040Y0225777D02*
X0228928Y0225777D01*
X0228928Y0227775D02*
X0213382Y0227775D01*
X0212027Y0229774D02*
X0228928Y0229774D01*
X0228928Y0231772D02*
X0208839Y0231772D01*
X0211698Y0233771D02*
X0228928Y0233771D01*
X0228928Y0235769D02*
X0213246Y0235769D01*
X0214040Y0237768D02*
X0228928Y0237768D01*
X0229043Y0239766D02*
X0214040Y0239766D01*
X0213556Y0241765D02*
X0230600Y0241765D01*
X0232599Y0243763D02*
X0212447Y0243763D01*
X0209853Y0245762D02*
X0234597Y0245762D01*
X0238520Y0241765D02*
X0294901Y0241765D01*
X0294417Y0239766D02*
X0236521Y0239766D01*
X0234528Y0237768D02*
X0294417Y0237768D01*
X0295211Y0235769D02*
X0234528Y0235769D01*
X0234528Y0233771D02*
X0296759Y0233771D01*
X0299618Y0231772D02*
X0234528Y0231772D01*
X0234528Y0229774D02*
X0296429Y0229774D01*
X0295075Y0227775D02*
X0234528Y0227775D01*
X0234528Y0225777D02*
X0294417Y0225777D01*
X0296010Y0243763D02*
X0240518Y0243763D01*
X0242517Y0245762D02*
X0248818Y0245762D01*
X0247560Y0247760D02*
X0244515Y0247760D01*
X0246514Y0249759D02*
X0247428Y0249759D01*
X0303744Y0293726D02*
X0354713Y0293726D01*
X0352715Y0291728D02*
X0305742Y0291728D01*
X0282336Y0313735D02*
X0283371Y0316234D01*
X0283371Y0318939D01*
X0282336Y0321438D01*
X0280423Y0323351D01*
X0277923Y0324387D01*
X0275218Y0324387D01*
X0272719Y0323351D01*
X0270806Y0321438D01*
X0269771Y0318939D01*
X0269771Y0316234D01*
X0270806Y0313735D01*
X0272719Y0311822D01*
X0275218Y0310787D01*
X0277923Y0310787D01*
X0280423Y0311822D01*
X0282336Y0313735D01*
X0282312Y0313711D02*
X0346145Y0313711D01*
X0346121Y0313735D02*
X0348034Y0311822D01*
X0350533Y0310787D01*
X0353238Y0310787D01*
X0355738Y0311822D01*
X0357651Y0313735D01*
X0358686Y0316234D01*
X0358686Y0318939D01*
X0357651Y0321438D01*
X0355738Y0323351D01*
X0353238Y0324387D01*
X0350533Y0324387D01*
X0348034Y0323351D01*
X0346121Y0321438D01*
X0345086Y0318939D01*
X0345086Y0316234D01*
X0346121Y0313735D01*
X0345303Y0315710D02*
X0283154Y0315710D01*
X0283371Y0317708D02*
X0345086Y0317708D01*
X0345404Y0319707D02*
X0283053Y0319707D01*
X0282069Y0321705D02*
X0346388Y0321705D01*
X0348885Y0323704D02*
X0279572Y0323704D01*
X0273570Y0323704D02*
X0259887Y0323704D01*
X0260738Y0323351D02*
X0258238Y0324387D01*
X0255533Y0324387D01*
X0253034Y0323351D01*
X0251121Y0321438D01*
X0250086Y0318939D01*
X0250086Y0316234D01*
X0251121Y0313735D01*
X0253034Y0311822D01*
X0255533Y0310787D01*
X0258238Y0310787D01*
X0260738Y0311822D01*
X0262651Y0313735D01*
X0263686Y0316234D01*
X0263686Y0318939D01*
X0262651Y0321438D01*
X0260738Y0323351D01*
X0262384Y0321705D02*
X0271073Y0321705D01*
X0270089Y0319707D02*
X0263368Y0319707D01*
X0263686Y0317708D02*
X0269771Y0317708D01*
X0269988Y0315710D02*
X0263469Y0315710D01*
X0262627Y0313711D02*
X0270830Y0313711D01*
X0272982Y0311713D02*
X0260474Y0311713D01*
X0253297Y0311713D02*
X0185159Y0311713D01*
X0185423Y0311822D02*
X0187336Y0313735D01*
X0188371Y0316234D01*
X0188371Y0318939D01*
X0187336Y0321438D01*
X0185423Y0323351D01*
X0182923Y0324387D01*
X0180218Y0324387D01*
X0177719Y0323351D01*
X0175806Y0321438D01*
X0174771Y0318939D01*
X0174771Y0316234D01*
X0175806Y0313735D01*
X0177719Y0311822D01*
X0180218Y0310787D01*
X0182923Y0310787D01*
X0185423Y0311822D01*
X0187312Y0313711D02*
X0251145Y0313711D01*
X0250303Y0315710D02*
X0188154Y0315710D01*
X0188371Y0317708D02*
X0250086Y0317708D01*
X0250404Y0319707D02*
X0188053Y0319707D01*
X0187069Y0321705D02*
X0251388Y0321705D01*
X0253885Y0323704D02*
X0184572Y0323704D01*
X0178570Y0323704D02*
X0164887Y0323704D01*
X0165738Y0323351D02*
X0163238Y0324387D01*
X0160533Y0324387D01*
X0158034Y0323351D01*
X0156121Y0321438D01*
X0155086Y0318939D01*
X0155086Y0316234D01*
X0156121Y0313735D01*
X0158034Y0311822D01*
X0160533Y0310787D01*
X0163238Y0310787D01*
X0165738Y0311822D01*
X0167651Y0313735D01*
X0168686Y0316234D01*
X0168686Y0318939D01*
X0167651Y0321438D01*
X0165738Y0323351D01*
X0167384Y0321705D02*
X0176073Y0321705D01*
X0175089Y0319707D02*
X0168368Y0319707D01*
X0168686Y0317708D02*
X0174771Y0317708D01*
X0174988Y0315710D02*
X0168469Y0315710D01*
X0167627Y0313711D02*
X0175830Y0313711D01*
X0177982Y0311713D02*
X0165474Y0311713D01*
X0158297Y0311713D02*
X0090159Y0311713D01*
X0090423Y0311822D02*
X0087923Y0310787D01*
X0085218Y0310787D01*
X0082719Y0311822D01*
X0080806Y0313735D01*
X0079771Y0316234D01*
X0079771Y0318939D01*
X0080806Y0321438D01*
X0082719Y0323351D01*
X0085218Y0324387D01*
X0087923Y0324387D01*
X0090423Y0323351D01*
X0092336Y0321438D01*
X0093371Y0318939D01*
X0093371Y0316234D01*
X0092336Y0313735D01*
X0090423Y0311822D01*
X0092312Y0313711D02*
X0156145Y0313711D01*
X0155303Y0315710D02*
X0093154Y0315710D01*
X0093371Y0317708D02*
X0155086Y0317708D01*
X0155404Y0319707D02*
X0093053Y0319707D01*
X0092069Y0321705D02*
X0156388Y0321705D01*
X0158885Y0323704D02*
X0089572Y0323704D01*
X0083570Y0323704D02*
X0069887Y0323704D01*
X0070738Y0323351D02*
X0068238Y0324387D01*
X0065533Y0324387D01*
X0063034Y0323351D01*
X0061121Y0321438D01*
X0060086Y0318939D01*
X0060086Y0316234D01*
X0061121Y0313735D01*
X0063034Y0311822D01*
X0065533Y0310787D01*
X0068238Y0310787D01*
X0070738Y0311822D01*
X0072651Y0313735D01*
X0073686Y0316234D01*
X0073686Y0318939D01*
X0072651Y0321438D01*
X0070738Y0323351D01*
X0072384Y0321705D02*
X0081073Y0321705D01*
X0080089Y0319707D02*
X0073368Y0319707D01*
X0073686Y0317708D02*
X0079771Y0317708D01*
X0079988Y0315710D02*
X0073469Y0315710D01*
X0072627Y0313711D02*
X0080830Y0313711D01*
X0082982Y0311713D02*
X0070474Y0311713D01*
X0063297Y0311713D02*
X0031828Y0311713D01*
X0031828Y0313711D02*
X0061145Y0313711D01*
X0060303Y0315710D02*
X0031828Y0315710D01*
X0031828Y0317708D02*
X0060086Y0317708D01*
X0060404Y0319707D02*
X0031828Y0319707D01*
X0031828Y0321705D02*
X0061388Y0321705D01*
X0063885Y0323704D02*
X0031828Y0323704D01*
X0031828Y0325702D02*
X0411728Y0325702D01*
X0411728Y0323704D02*
X0374572Y0323704D01*
X0375423Y0323351D02*
X0372923Y0324387D01*
X0370218Y0324387D01*
X0367719Y0323351D01*
X0365806Y0321438D01*
X0364771Y0318939D01*
X0364771Y0316234D01*
X0365806Y0313735D01*
X0367719Y0311822D01*
X0370218Y0310787D01*
X0372923Y0310787D01*
X0375423Y0311822D01*
X0377336Y0313735D01*
X0378371Y0316234D01*
X0378371Y0318939D01*
X0377336Y0321438D01*
X0375423Y0323351D01*
X0377069Y0321705D02*
X0411728Y0321705D01*
X0411728Y0319707D02*
X0378053Y0319707D01*
X0378371Y0317708D02*
X0411728Y0317708D01*
X0411728Y0315710D02*
X0378154Y0315710D01*
X0377312Y0313711D02*
X0411728Y0313711D01*
X0411728Y0311713D02*
X0375159Y0311713D01*
X0367982Y0311713D02*
X0355474Y0311713D01*
X0357627Y0313711D02*
X0365830Y0313711D01*
X0364988Y0315710D02*
X0358469Y0315710D01*
X0358686Y0317708D02*
X0364771Y0317708D01*
X0365089Y0319707D02*
X0358368Y0319707D01*
X0357384Y0321705D02*
X0366073Y0321705D01*
X0368570Y0323704D02*
X0354887Y0323704D01*
X0348297Y0311713D02*
X0280159Y0311713D01*
X0338269Y0283734D02*
X0344721Y0283734D01*
X0343380Y0281735D02*
X0340072Y0281735D01*
X0340900Y0279737D02*
X0343328Y0279737D01*
X0343328Y0277738D02*
X0340969Y0277738D01*
X0340504Y0275740D02*
X0341727Y0275740D01*
X0398744Y0293726D02*
X0411728Y0293726D01*
X0411728Y0291728D02*
X0400742Y0291728D01*
X0411728Y0295725D02*
X0031828Y0295725D01*
X0031828Y0297723D02*
X0411728Y0297723D01*
X0411728Y0299722D02*
X0031828Y0299722D01*
X0031828Y0301720D02*
X0411728Y0301720D01*
X0411728Y0303719D02*
X0031828Y0303719D01*
X0031828Y0305717D02*
X0411728Y0305717D01*
X0411728Y0307716D02*
X0031828Y0307716D01*
X0031828Y0309714D02*
X0411728Y0309714D01*
X0371728Y0211787D02*
X0328528Y0211787D01*
X0328528Y0209789D02*
X0371728Y0209789D01*
X0371728Y0207790D02*
X0328528Y0207790D01*
X0328528Y0205792D02*
X0371728Y0205792D01*
X0371728Y0203793D02*
X0328528Y0203793D01*
X0328528Y0201795D02*
X0371728Y0201795D01*
X0371728Y0199796D02*
X0328528Y0199796D01*
X0328528Y0197798D02*
X0371728Y0197798D01*
X0371728Y0195799D02*
X0328528Y0195799D01*
X0328528Y0193801D02*
X0371728Y0193801D01*
X0371728Y0191802D02*
X0328528Y0191802D01*
X0328528Y0189804D02*
X0371728Y0189804D01*
X0371728Y0187805D02*
X0328528Y0187805D01*
X0328528Y0185807D02*
X0371728Y0185807D01*
X0371728Y0183808D02*
X0328528Y0183808D01*
X0328528Y0181810D02*
X0343524Y0181810D01*
X0343083Y0181369D02*
X0342428Y0179788D01*
X0342428Y0178078D01*
X0343083Y0176497D01*
X0344293Y0175288D01*
X0345873Y0174633D01*
X0347584Y0174633D01*
X0349164Y0175288D01*
X0350374Y0176497D01*
X0351028Y0178078D01*
X0351028Y0179788D01*
X0350374Y0181369D01*
X0349164Y0182578D01*
X0347584Y0183233D01*
X0345873Y0183233D01*
X0344293Y0182578D01*
X0343083Y0181369D01*
X0342438Y0179811D02*
X0328528Y0179811D01*
X0328528Y0177812D02*
X0342538Y0177812D01*
X0343766Y0175814D02*
X0328528Y0175814D01*
X0328528Y0173815D02*
X0371728Y0173815D01*
X0371728Y0171817D02*
X0328528Y0171817D01*
X0328528Y0169818D02*
X0371728Y0169818D01*
X0371728Y0167820D02*
X0328528Y0167820D01*
X0328528Y0165821D02*
X0371728Y0165821D01*
X0371728Y0163823D02*
X0328528Y0163823D01*
X0328528Y0161824D02*
X0371728Y0161824D01*
X0371728Y0159826D02*
X0328528Y0159826D01*
X0328528Y0157827D02*
X0371728Y0157827D01*
X0371728Y0155829D02*
X0328528Y0155829D01*
X0328528Y0153830D02*
X0371728Y0153830D01*
X0371728Y0151832D02*
X0328528Y0151832D01*
X0328528Y0149833D02*
X0371728Y0149833D01*
X0371728Y0147835D02*
X0328528Y0147835D01*
X0328528Y0145836D02*
X0371728Y0145836D01*
X0371728Y0143838D02*
X0328528Y0143838D01*
X0328528Y0141839D02*
X0371728Y0141839D01*
X0371728Y0139841D02*
X0327596Y0139841D01*
X0325597Y0137842D02*
X0371728Y0137842D01*
X0371728Y0135844D02*
X0323599Y0135844D01*
X0321600Y0133845D02*
X0371728Y0133845D01*
X0371728Y0131847D02*
X0319602Y0131847D01*
X0317603Y0129848D02*
X0371728Y0129848D01*
X0371728Y0127850D02*
X0315605Y0127850D01*
X0313606Y0125851D02*
X0371728Y0125851D01*
X0371728Y0123853D02*
X0311608Y0123853D01*
X0309684Y0129848D02*
X0215603Y0129848D01*
X0213879Y0127850D02*
X0219685Y0127850D01*
X0217687Y0125851D02*
X0213879Y0125851D01*
X0213879Y0123853D02*
X0215688Y0123853D01*
X0219611Y0119856D02*
X0371728Y0119856D01*
X0371728Y0121854D02*
X0221609Y0121854D01*
X0217602Y0131847D02*
X0311682Y0131847D01*
X0313681Y0133845D02*
X0219600Y0133845D01*
X0221599Y0135844D02*
X0315679Y0135844D01*
X0317678Y0137842D02*
X0223597Y0137842D01*
X0225596Y0139841D02*
X0319676Y0139841D01*
X0321675Y0141839D02*
X0227594Y0141839D01*
X0229593Y0143838D02*
X0322928Y0143838D01*
X0322928Y0145836D02*
X0231591Y0145836D01*
X0233590Y0147835D02*
X0322928Y0147835D01*
X0322928Y0149833D02*
X0234528Y0149833D01*
X0234528Y0151832D02*
X0322928Y0151832D01*
X0322928Y0153830D02*
X0234528Y0153830D01*
X0234528Y0155829D02*
X0322928Y0155829D01*
X0322928Y0157827D02*
X0234528Y0157827D01*
X0234528Y0159826D02*
X0322928Y0159826D01*
X0322928Y0161824D02*
X0234528Y0161824D01*
X0234528Y0163823D02*
X0322928Y0163823D01*
X0322928Y0165821D02*
X0234528Y0165821D01*
X0234528Y0167820D02*
X0322928Y0167820D01*
X0322928Y0169818D02*
X0234528Y0169818D01*
X0234528Y0171817D02*
X0322928Y0171817D01*
X0322928Y0173815D02*
X0234528Y0173815D01*
X0234528Y0175814D02*
X0248766Y0175814D01*
X0249293Y0175288D02*
X0250873Y0174633D01*
X0252584Y0174633D01*
X0254164Y0175288D01*
X0255374Y0176497D01*
X0256028Y0178078D01*
X0256028Y0179788D01*
X0255374Y0181369D01*
X0254164Y0182578D01*
X0252584Y0183233D01*
X0250873Y0183233D01*
X0249293Y0182578D01*
X0248083Y0181369D01*
X0247428Y0179788D01*
X0247428Y0178078D01*
X0248083Y0176497D01*
X0249293Y0175288D01*
X0247538Y0177812D02*
X0234528Y0177812D01*
X0234528Y0179811D02*
X0247438Y0179811D01*
X0248524Y0181810D02*
X0234528Y0181810D01*
X0234528Y0183808D02*
X0322928Y0183808D01*
X0322928Y0181810D02*
X0284933Y0181810D01*
X0285374Y0181369D02*
X0284164Y0182578D01*
X0282584Y0183233D01*
X0280873Y0183233D01*
X0279293Y0182578D01*
X0278083Y0181369D01*
X0277428Y0179788D01*
X0277428Y0178078D01*
X0278083Y0176497D01*
X0279293Y0175288D01*
X0280873Y0174633D01*
X0282584Y0174633D01*
X0284164Y0175288D01*
X0285374Y0176497D01*
X0286028Y0178078D01*
X0286028Y0179788D01*
X0285374Y0181369D01*
X0286019Y0179811D02*
X0322928Y0179811D01*
X0322928Y0177812D02*
X0285918Y0177812D01*
X0284690Y0175814D02*
X0322928Y0175814D01*
X0349690Y0175814D02*
X0371728Y0175814D01*
X0371728Y0177812D02*
X0350918Y0177812D01*
X0351019Y0179811D02*
X0371728Y0179811D01*
X0371728Y0181810D02*
X0349933Y0181810D01*
X0278524Y0181810D02*
X0254933Y0181810D01*
X0256019Y0179811D02*
X0277438Y0179811D01*
X0277538Y0177812D02*
X0255918Y0177812D01*
X0254690Y0175814D02*
X0278766Y0175814D01*
X0228928Y0175814D02*
X0189690Y0175814D01*
X0189164Y0175288D02*
X0190374Y0176497D01*
X0191028Y0178078D01*
X0191028Y0179788D01*
X0190374Y0181369D01*
X0189164Y0182578D01*
X0187584Y0183233D01*
X0185873Y0183233D01*
X0184293Y0182578D01*
X0183083Y0181369D01*
X0182428Y0179788D01*
X0182428Y0178078D01*
X0183083Y0176497D01*
X0184293Y0175288D01*
X0185873Y0174633D01*
X0187584Y0174633D01*
X0189164Y0175288D01*
X0190918Y0177812D02*
X0228928Y0177812D01*
X0228928Y0179811D02*
X0191019Y0179811D01*
X0189933Y0181810D02*
X0228928Y0181810D01*
X0228928Y0183808D02*
X0138528Y0183808D01*
X0138528Y0181810D02*
X0153524Y0181810D01*
X0153083Y0181369D02*
X0152428Y0179788D01*
X0152428Y0178078D01*
X0153083Y0176497D01*
X0154293Y0175288D01*
X0155873Y0174633D01*
X0157584Y0174633D01*
X0159164Y0175288D01*
X0160374Y0176497D01*
X0161028Y0178078D01*
X0161028Y0179788D01*
X0160374Y0181369D01*
X0159164Y0182578D01*
X0157584Y0183233D01*
X0155873Y0183233D01*
X0154293Y0182578D01*
X0153083Y0181369D01*
X0152438Y0179811D02*
X0138528Y0179811D01*
X0138528Y0177812D02*
X0152538Y0177812D01*
X0153766Y0175814D02*
X0138528Y0175814D01*
X0138528Y0173815D02*
X0228928Y0173815D01*
X0228928Y0171817D02*
X0138528Y0171817D01*
X0138528Y0169818D02*
X0228928Y0169818D01*
X0228928Y0167820D02*
X0138528Y0167820D01*
X0138528Y0165821D02*
X0228928Y0165821D01*
X0228928Y0163823D02*
X0138528Y0163823D01*
X0138528Y0161824D02*
X0228928Y0161824D01*
X0228928Y0159826D02*
X0138528Y0159826D01*
X0138528Y0157827D02*
X0228928Y0157827D01*
X0228928Y0155829D02*
X0138528Y0155829D01*
X0138528Y0153830D02*
X0228928Y0153830D01*
X0228928Y0151832D02*
X0138528Y0151832D01*
X0138528Y0149833D02*
X0227669Y0149833D01*
X0225670Y0147835D02*
X0138528Y0147835D01*
X0138528Y0145836D02*
X0223672Y0145836D01*
X0221673Y0143838D02*
X0139783Y0143838D01*
X0141782Y0141839D02*
X0219675Y0141839D01*
X0217676Y0139841D02*
X0143780Y0139841D01*
X0145779Y0137842D02*
X0215678Y0137842D01*
X0213679Y0135844D02*
X0147777Y0135844D01*
X0149776Y0133845D02*
X0211681Y0133845D01*
X0209682Y0131847D02*
X0199774Y0131847D01*
X0201773Y0129848D02*
X0208282Y0129848D01*
X0208279Y0127850D02*
X0203771Y0127850D01*
X0205770Y0125851D02*
X0208279Y0125851D01*
X0208279Y0123853D02*
X0207769Y0123853D01*
X0201847Y0121854D02*
X0201767Y0121854D01*
X0199849Y0123853D02*
X0199769Y0123853D01*
X0197850Y0125851D02*
X0197770Y0125851D01*
X0193728Y0097933D02*
X0179728Y0083933D01*
X0179728Y0082933D01*
X0177302Y0085881D02*
X0169451Y0085881D01*
X0168728Y0082933D02*
X0184728Y0066933D01*
X0210728Y0066933D01*
X0216079Y0072283D01*
X0216079Y0076563D01*
X0221079Y0076563D02*
X0221079Y0071283D01*
X0212728Y0062933D01*
X0182728Y0062933D01*
X0170728Y0074933D01*
X0162075Y0074933D01*
X0155382Y0074933D02*
X0152728Y0074933D01*
X0149728Y0071933D01*
X0149728Y0047933D01*
X0153769Y0043912D02*
X0155688Y0043912D01*
X0153809Y0041914D02*
X0165648Y0041914D01*
X0165688Y0043912D02*
X0163769Y0043912D01*
X0164028Y0039915D02*
X0155428Y0039915D01*
X0155428Y0037917D02*
X0164028Y0037917D01*
X0164028Y0035918D02*
X0155428Y0035918D01*
X0153776Y0033920D02*
X0165681Y0033920D01*
X0173776Y0033920D02*
X0175681Y0033920D01*
X0183776Y0033920D02*
X0195681Y0033920D01*
X0194028Y0035918D02*
X0185428Y0035918D01*
X0185428Y0037917D02*
X0194028Y0037917D01*
X0194028Y0039915D02*
X0185428Y0039915D01*
X0183809Y0041914D02*
X0195648Y0041914D01*
X0195688Y0043912D02*
X0193769Y0043912D01*
X0185688Y0043912D02*
X0183769Y0043912D01*
X0184728Y0050994D02*
X0182089Y0053633D01*
X0177367Y0053633D01*
X0174728Y0050994D01*
X0172089Y0053633D01*
X0167367Y0053633D01*
X0164728Y0050994D01*
X0162728Y0052994D01*
X0162728Y0062690D01*
X0163002Y0062965D01*
X0166376Y0062965D01*
X0166728Y0063317D01*
X0167081Y0062965D01*
X0172454Y0062965D01*
X0178185Y0057234D01*
X0179029Y0056390D01*
X0180132Y0055933D01*
X0218325Y0055933D01*
X0219428Y0056390D01*
X0220272Y0057234D01*
X0228622Y0065584D01*
X0229079Y0066687D01*
X0229079Y0070232D01*
X0229186Y0070232D01*
X0237029Y0062390D01*
X0238132Y0061933D01*
X0275420Y0061933D01*
X0275820Y0061533D01*
X0259012Y0061533D01*
X0257689Y0060985D01*
X0255489Y0058785D01*
X0254950Y0060086D01*
X0253881Y0061155D01*
X0252484Y0061733D01*
X0250972Y0061733D01*
X0249576Y0061155D01*
X0249354Y0060933D01*
X0229132Y0060933D01*
X0228029Y0060476D01*
X0227185Y0059632D01*
X0221186Y0053633D01*
X0217367Y0053633D01*
X0214028Y0050294D01*
X0214028Y0045572D01*
X0216667Y0042933D01*
X0214728Y0040994D01*
X0212089Y0043633D01*
X0207367Y0043633D01*
X0204728Y0040994D01*
X0202789Y0042933D01*
X0205428Y0045572D01*
X0205428Y0050294D01*
X0202089Y0053633D01*
X0197367Y0053633D01*
X0194728Y0050994D01*
X0192089Y0053633D01*
X0187367Y0053633D01*
X0184728Y0050994D01*
X0183816Y0051906D02*
X0185641Y0051906D01*
X0193816Y0051906D02*
X0195641Y0051906D01*
X0202728Y0054933D02*
X0173128Y0054933D01*
X0169528Y0058533D01*
X0173520Y0061899D02*
X0162728Y0061899D01*
X0162728Y0059900D02*
X0175518Y0059900D01*
X0177517Y0057902D02*
X0162728Y0057902D01*
X0162728Y0055903D02*
X0223456Y0055903D01*
X0221457Y0053905D02*
X0162728Y0053905D01*
X0163816Y0051906D02*
X0165641Y0051906D01*
X0159728Y0047933D02*
X0159728Y0063933D01*
X0162728Y0066933D01*
X0163382Y0066933D01*
X0170075Y0066933D02*
X0172728Y0066933D01*
X0180728Y0058933D01*
X0211728Y0058933D01*
X0217728Y0058933D01*
X0226079Y0067283D01*
X0226079Y0076563D01*
X0231079Y0076563D02*
X0231079Y0072583D01*
X0238728Y0064933D01*
X0279382Y0064933D01*
X0282728Y0068549D02*
X0282376Y0068902D01*
X0276388Y0068902D01*
X0275420Y0067933D01*
X0239971Y0067933D01*
X0234260Y0073644D01*
X0234260Y0081722D01*
X0233088Y0082894D01*
X0229069Y0082894D01*
X0228579Y0082403D01*
X0228088Y0082894D01*
X0224069Y0082894D01*
X0223579Y0082403D01*
X0223088Y0082894D01*
X0219069Y0082894D01*
X0218579Y0082403D01*
X0218088Y0082894D01*
X0216997Y0082894D01*
X0217444Y0083974D01*
X0218029Y0083390D01*
X0219132Y0082933D01*
X0297486Y0082933D01*
X0304728Y0075690D01*
X0304728Y0068262D01*
X0303935Y0067468D01*
X0303253Y0065823D01*
X0303253Y0064043D01*
X0303935Y0062398D01*
X0304728Y0061604D01*
X0304728Y0056176D01*
X0303444Y0054892D01*
X0302950Y0056086D01*
X0301881Y0057155D01*
X0300484Y0057733D01*
X0300171Y0057733D01*
X0290428Y0067476D01*
X0290240Y0067554D01*
X0290240Y0067730D01*
X0289069Y0068902D01*
X0283081Y0068902D01*
X0282728Y0068549D01*
X0286075Y0064933D02*
X0288728Y0064933D01*
X0299728Y0053933D01*
X0303025Y0055903D02*
X0304456Y0055903D01*
X0304728Y0057902D02*
X0300002Y0057902D01*
X0298004Y0059900D02*
X0304728Y0059900D01*
X0304434Y0061899D02*
X0296005Y0061899D01*
X0294007Y0063897D02*
X0303314Y0063897D01*
X0303283Y0065896D02*
X0292008Y0065896D01*
X0290076Y0067894D02*
X0304361Y0067894D01*
X0304728Y0069893D02*
X0238011Y0069893D01*
X0236013Y0071891D02*
X0304728Y0071891D01*
X0304728Y0073890D02*
X0234260Y0073890D01*
X0234260Y0075888D02*
X0304530Y0075888D01*
X0302532Y0077887D02*
X0234260Y0077887D01*
X0234260Y0079885D02*
X0300533Y0079885D01*
X0298535Y0081884D02*
X0234098Y0081884D01*
X0229526Y0069893D02*
X0229079Y0069893D01*
X0229079Y0067894D02*
X0231524Y0067894D01*
X0233523Y0065896D02*
X0228751Y0065896D01*
X0226935Y0063897D02*
X0235521Y0063897D01*
X0229728Y0057933D02*
X0251728Y0057933D01*
X0255027Y0059900D02*
X0256604Y0059900D01*
X0275454Y0061899D02*
X0224937Y0061899D01*
X0222938Y0059900D02*
X0227453Y0059900D01*
X0225454Y0057902D02*
X0220940Y0057902D01*
X0215641Y0051906D02*
X0203816Y0051906D01*
X0205428Y0049908D02*
X0214028Y0049908D01*
X0214028Y0047909D02*
X0205428Y0047909D01*
X0205428Y0045911D02*
X0214028Y0045911D01*
X0215688Y0043912D02*
X0203769Y0043912D01*
X0203809Y0041914D02*
X0205648Y0041914D01*
X0213809Y0041914D02*
X0215648Y0041914D01*
X0219728Y0047933D02*
X0229728Y0057933D01*
X0225688Y0043912D02*
X0223769Y0043912D01*
X0223809Y0041914D02*
X0235648Y0041914D01*
X0235688Y0043912D02*
X0233769Y0043912D01*
X0234028Y0039915D02*
X0225428Y0039915D01*
X0225428Y0037917D02*
X0234028Y0037917D01*
X0234028Y0035918D02*
X0225428Y0035918D01*
X0223776Y0033920D02*
X0235681Y0033920D01*
X0243776Y0033920D02*
X0245681Y0033920D01*
X0215681Y0033920D02*
X0213776Y0033920D01*
X0205681Y0033920D02*
X0203776Y0033920D01*
X0209728Y0047933D02*
X0202728Y0054933D01*
X0211728Y0058933D02*
X0212728Y0058933D01*
X0211079Y0076563D02*
X0211079Y0082283D01*
X0213728Y0084933D01*
X0217406Y0083882D02*
X0217536Y0083882D01*
X0219728Y0085933D02*
X0298728Y0085933D01*
X0307728Y0076933D01*
X0307728Y0064933D01*
X0307728Y0054933D01*
X0300728Y0047933D01*
X0294075Y0047933D01*
X0287806Y0033920D02*
X0304651Y0033920D01*
X0306649Y0031921D02*
X0285808Y0031921D01*
X0283809Y0029923D02*
X0307728Y0029923D01*
X0316573Y0037917D02*
X0318884Y0037917D01*
X0317728Y0036761D02*
X0317728Y0036533D01*
X0317728Y0036761D01*
X0317728Y0036533D02*
X0317728Y0036533D01*
X0312802Y0039915D02*
X0380128Y0039915D01*
X0380128Y0041914D02*
X0314800Y0041914D01*
X0316799Y0043912D02*
X0380128Y0043912D01*
X0380128Y0045911D02*
X0318797Y0045911D01*
X0320201Y0047909D02*
X0380128Y0047909D01*
X0380128Y0049908D02*
X0320328Y0049908D01*
X0320328Y0051906D02*
X0380128Y0051906D01*
X0380128Y0053905D02*
X0320328Y0053905D01*
X0320328Y0055903D02*
X0380128Y0055903D01*
X0380128Y0057902D02*
X0320328Y0057902D01*
X0320328Y0059900D02*
X0380128Y0059900D01*
X0380128Y0061899D02*
X0320328Y0061899D01*
X0320328Y0063897D02*
X0380128Y0063897D01*
X0380128Y0065896D02*
X0320328Y0065896D01*
X0320328Y0067894D02*
X0380128Y0067894D01*
X0380128Y0069893D02*
X0320328Y0069893D01*
X0320328Y0071891D02*
X0380128Y0071891D01*
X0380128Y0073890D02*
X0321221Y0073890D01*
X0321258Y0075888D02*
X0380128Y0075888D01*
X0380128Y0077887D02*
X0320209Y0077887D01*
X0316728Y0074933D02*
X0301728Y0089933D01*
X0221728Y0089933D01*
X0217728Y0093933D01*
X0195728Y0093933D01*
X0185182Y0083387D01*
X0185182Y0076533D01*
X0181017Y0075888D02*
X0180016Y0075888D01*
X0181017Y0077887D02*
X0178017Y0077887D01*
X0177402Y0079885D02*
X0176019Y0079885D01*
X0176050Y0081884D02*
X0174020Y0081884D01*
X0176009Y0083882D02*
X0172022Y0083882D01*
X0168728Y0082933D02*
X0154075Y0082933D01*
X0147382Y0082933D02*
X0144728Y0082933D01*
X0143825Y0091877D02*
X0106150Y0091877D01*
X0106150Y0093875D02*
X0141827Y0093875D01*
X0139828Y0095874D02*
X0105719Y0095874D01*
X0106150Y0089878D02*
X0178409Y0089878D01*
X0179432Y0087879D02*
X0106150Y0087879D01*
X0112547Y0097872D02*
X0137830Y0097872D01*
X0147852Y0127850D02*
X0063771Y0127850D01*
X0061773Y0129848D02*
X0145853Y0129848D01*
X0143855Y0131847D02*
X0059774Y0131847D01*
X0057776Y0133845D02*
X0141856Y0133845D01*
X0139858Y0135844D02*
X0055777Y0135844D01*
X0053779Y0137842D02*
X0137859Y0137842D01*
X0135861Y0139841D02*
X0052528Y0139841D01*
X0052528Y0141839D02*
X0133862Y0141839D01*
X0132928Y0143838D02*
X0052528Y0143838D01*
X0052528Y0145836D02*
X0132928Y0145836D01*
X0132928Y0147835D02*
X0052528Y0147835D01*
X0052528Y0149833D02*
X0132928Y0149833D01*
X0132928Y0151832D02*
X0052528Y0151832D01*
X0052528Y0153830D02*
X0132928Y0153830D01*
X0132928Y0155829D02*
X0052528Y0155829D01*
X0052528Y0157827D02*
X0132928Y0157827D01*
X0132928Y0159826D02*
X0052528Y0159826D01*
X0052528Y0161824D02*
X0132928Y0161824D01*
X0132928Y0163823D02*
X0052528Y0163823D01*
X0052528Y0165821D02*
X0132928Y0165821D01*
X0132928Y0167820D02*
X0052528Y0167820D01*
X0052528Y0169818D02*
X0132928Y0169818D01*
X0132928Y0171817D02*
X0052528Y0171817D01*
X0052528Y0173815D02*
X0132928Y0173815D01*
X0132928Y0175814D02*
X0094690Y0175814D01*
X0094164Y0175288D02*
X0095374Y0176497D01*
X0096028Y0178078D01*
X0096028Y0179788D01*
X0095374Y0181369D01*
X0094164Y0182578D01*
X0092584Y0183233D01*
X0090873Y0183233D01*
X0089293Y0182578D01*
X0088083Y0181369D01*
X0087428Y0179788D01*
X0087428Y0178078D01*
X0088083Y0176497D01*
X0089293Y0175288D01*
X0090873Y0174633D01*
X0092584Y0174633D01*
X0094164Y0175288D01*
X0095918Y0177812D02*
X0132928Y0177812D01*
X0132928Y0179811D02*
X0096019Y0179811D01*
X0094933Y0181810D02*
X0132928Y0181810D01*
X0132928Y0183808D02*
X0052528Y0183808D01*
X0052528Y0181810D02*
X0058524Y0181810D01*
X0058083Y0181369D02*
X0057428Y0179788D01*
X0057428Y0178078D01*
X0058083Y0176497D01*
X0059293Y0175288D01*
X0060873Y0174633D01*
X0062584Y0174633D01*
X0064164Y0175288D01*
X0065374Y0176497D01*
X0066028Y0178078D01*
X0066028Y0179788D01*
X0065374Y0181369D01*
X0064164Y0182578D01*
X0062584Y0183233D01*
X0060873Y0183233D01*
X0059293Y0182578D01*
X0058083Y0181369D01*
X0057438Y0179811D02*
X0052528Y0179811D01*
X0052528Y0177812D02*
X0057538Y0177812D01*
X0058766Y0175814D02*
X0052528Y0175814D01*
X0046928Y0175814D02*
X0031828Y0175814D01*
X0031828Y0177812D02*
X0046928Y0177812D01*
X0046928Y0179811D02*
X0031828Y0179811D01*
X0031828Y0181810D02*
X0046928Y0181810D01*
X0046928Y0183808D02*
X0031828Y0183808D01*
X0031828Y0185807D02*
X0046928Y0185807D01*
X0046928Y0187805D02*
X0031828Y0187805D01*
X0031828Y0189804D02*
X0046928Y0189804D01*
X0046928Y0191802D02*
X0031828Y0191802D01*
X0031828Y0193801D02*
X0046928Y0193801D01*
X0046928Y0195799D02*
X0031828Y0195799D01*
X0031828Y0197798D02*
X0046928Y0197798D01*
X0046928Y0199796D02*
X0031828Y0199796D01*
X0031828Y0201795D02*
X0046928Y0201795D01*
X0046928Y0203793D02*
X0031828Y0203793D01*
X0031828Y0205792D02*
X0046928Y0205792D01*
X0046928Y0207790D02*
X0031828Y0207790D01*
X0031828Y0209789D02*
X0046928Y0209789D01*
X0046928Y0211787D02*
X0031828Y0211787D01*
X0031828Y0213786D02*
X0046928Y0213786D01*
X0046928Y0215784D02*
X0031828Y0215784D01*
X0031828Y0217783D02*
X0047050Y0217783D01*
X0048617Y0219781D02*
X0031828Y0219781D01*
X0031828Y0221780D02*
X0050615Y0221780D01*
X0052614Y0223778D02*
X0031828Y0223778D01*
X0031828Y0225777D02*
X0034324Y0225777D01*
X0031942Y0227775D02*
X0031828Y0227775D01*
X0046505Y0225541D02*
X0046505Y0225541D01*
X0046786Y0225777D02*
X0052928Y0225777D01*
X0052928Y0227775D02*
X0049168Y0227775D01*
X0050581Y0229774D02*
X0052928Y0229774D01*
X0052928Y0231772D02*
X0051735Y0231772D01*
X0051737Y0231776D02*
X0051737Y0231776D01*
X0052089Y0233771D02*
X0052928Y0233771D01*
X0052928Y0235769D02*
X0052441Y0235769D01*
X0052116Y0237768D02*
X0052928Y0237768D01*
X0052928Y0239766D02*
X0051764Y0239766D01*
X0050670Y0241765D02*
X0052928Y0241765D01*
X0052928Y0243763D02*
X0049352Y0243763D01*
X0049671Y0243496D02*
X0049671Y0243496D01*
X0049671Y0243496D01*
X0046970Y0245762D02*
X0052928Y0245762D01*
X0052928Y0247760D02*
X0031828Y0247760D01*
X0031828Y0245762D02*
X0034140Y0245762D01*
X0034605Y0246152D02*
X0034605Y0246152D01*
X0031828Y0249759D02*
X0052928Y0249759D01*
X0052928Y0251757D02*
X0031828Y0251757D01*
X0031828Y0253756D02*
X0053038Y0253756D01*
X0054590Y0255754D02*
X0031828Y0255754D01*
X0031828Y0257753D02*
X0056588Y0257753D01*
X0058587Y0259751D02*
X0031828Y0259751D01*
X0031828Y0261750D02*
X0055266Y0261750D01*
X0058821Y0261750D02*
X0060585Y0261750D01*
X0062034Y0263748D02*
X0062584Y0263748D01*
X0063315Y0265747D02*
X0064582Y0265747D01*
X0063843Y0267745D02*
X0066581Y0267745D01*
X0068580Y0269744D02*
X0063836Y0269744D01*
X0063008Y0271743D02*
X0070578Y0271743D01*
X0071587Y0273741D02*
X0064345Y0273741D01*
X0063654Y0273051D02*
X0063654Y0273051D01*
X0065128Y0275740D02*
X0070394Y0275740D01*
X0069928Y0277738D02*
X0065128Y0277738D01*
X0065128Y0279737D02*
X0069998Y0279737D01*
X0070826Y0281735D02*
X0065128Y0281735D01*
X0065128Y0283734D02*
X0072629Y0283734D01*
X0076728Y0278217D02*
X0076728Y0273933D01*
X0055728Y0252933D01*
X0055728Y0222933D01*
X0049728Y0216933D01*
X0049728Y0137933D01*
X0063728Y0123933D01*
X0059849Y0123853D02*
X0031828Y0123853D01*
X0031828Y0125851D02*
X0057850Y0125851D01*
X0055852Y0127850D02*
X0031828Y0127850D01*
X0031828Y0129848D02*
X0053853Y0129848D01*
X0051855Y0131847D02*
X0031828Y0131847D01*
X0031828Y0133845D02*
X0049856Y0133845D01*
X0047858Y0135844D02*
X0031828Y0135844D01*
X0031828Y0137842D02*
X0046928Y0137842D01*
X0046928Y0139841D02*
X0031828Y0139841D01*
X0031828Y0141839D02*
X0046928Y0141839D01*
X0046928Y0143838D02*
X0031828Y0143838D01*
X0031828Y0145836D02*
X0046928Y0145836D01*
X0046928Y0147835D02*
X0031828Y0147835D01*
X0031828Y0149833D02*
X0046928Y0149833D01*
X0046928Y0151832D02*
X0031828Y0151832D01*
X0031828Y0153830D02*
X0046928Y0153830D01*
X0046928Y0155829D02*
X0031828Y0155829D01*
X0031828Y0157827D02*
X0046928Y0157827D01*
X0046928Y0159826D02*
X0031828Y0159826D01*
X0031828Y0161824D02*
X0046928Y0161824D01*
X0046928Y0163823D02*
X0031828Y0163823D01*
X0031828Y0165821D02*
X0046928Y0165821D01*
X0046928Y0167820D02*
X0031828Y0167820D01*
X0031828Y0169818D02*
X0046928Y0169818D01*
X0046928Y0171817D02*
X0031828Y0171817D01*
X0031828Y0173815D02*
X0046928Y0173815D01*
X0052528Y0185807D02*
X0109323Y0185807D01*
X0110274Y0185413D02*
X0107587Y0186526D01*
X0105530Y0188583D01*
X0104417Y0191270D01*
X0104417Y0194179D01*
X0105530Y0196866D01*
X0107587Y0198923D01*
X0110015Y0199929D01*
X0107587Y0200935D01*
X0105530Y0202992D01*
X0104417Y0205679D01*
X0104417Y0208588D01*
X0105530Y0211276D01*
X0107587Y0213333D01*
X0110274Y0214446D01*
X0113183Y0214446D01*
X0115870Y0213333D01*
X0117927Y0211276D01*
X0119040Y0208588D01*
X0119040Y0205679D01*
X0117927Y0202992D01*
X0115870Y0200935D01*
X0113441Y0199929D01*
X0115870Y0198923D01*
X0117927Y0196866D01*
X0119040Y0194179D01*
X0119040Y0191270D01*
X0117927Y0188583D01*
X0115870Y0186526D01*
X0113183Y0185413D01*
X0110274Y0185413D01*
X0114134Y0185807D02*
X0132928Y0185807D01*
X0132928Y0187805D02*
X0117149Y0187805D01*
X0118433Y0189804D02*
X0132928Y0189804D01*
X0132928Y0191802D02*
X0119040Y0191802D01*
X0119040Y0193801D02*
X0132928Y0193801D01*
X0132928Y0195799D02*
X0118369Y0195799D01*
X0116996Y0197798D02*
X0132928Y0197798D01*
X0132928Y0199796D02*
X0113762Y0199796D01*
X0116730Y0201795D02*
X0132928Y0201795D01*
X0132928Y0203793D02*
X0118259Y0203793D01*
X0119040Y0205792D02*
X0132928Y0205792D01*
X0132928Y0207790D02*
X0119040Y0207790D01*
X0118543Y0209789D02*
X0132928Y0209789D01*
X0132928Y0211787D02*
X0117415Y0211787D01*
X0114776Y0213786D02*
X0132928Y0213786D01*
X0132928Y0215784D02*
X0064661Y0215784D01*
X0065906Y0217783D02*
X0109399Y0217783D01*
X0110274Y0217420D02*
X0107587Y0218534D01*
X0105530Y0220590D01*
X0104417Y0223278D01*
X0104417Y0226187D01*
X0105530Y0228874D01*
X0107587Y0230931D01*
X0110015Y0231937D01*
X0107587Y0232943D01*
X0105530Y0235000D01*
X0104417Y0237687D01*
X0104417Y0240596D01*
X0105530Y0243284D01*
X0107587Y0245340D01*
X0110274Y0246454D01*
X0113183Y0246454D01*
X0115870Y0245340D01*
X0117927Y0243284D01*
X0119040Y0240596D01*
X0119040Y0237687D01*
X0117927Y0235000D01*
X0115870Y0232943D01*
X0113441Y0231937D01*
X0115870Y0230931D01*
X0117927Y0228874D01*
X0119040Y0226187D01*
X0119040Y0223278D01*
X0117927Y0220590D01*
X0115870Y0218534D01*
X0113183Y0217420D01*
X0110274Y0217420D01*
X0114057Y0217783D02*
X0132928Y0217783D01*
X0132928Y0219781D02*
X0117118Y0219781D01*
X0118420Y0221780D02*
X0132928Y0221780D01*
X0132928Y0223778D02*
X0119040Y0223778D01*
X0119040Y0225777D02*
X0132928Y0225777D01*
X0132928Y0227775D02*
X0118382Y0227775D01*
X0117027Y0229774D02*
X0132928Y0229774D01*
X0132928Y0231772D02*
X0113839Y0231772D01*
X0116698Y0233771D02*
X0132928Y0233771D01*
X0132928Y0235769D02*
X0118246Y0235769D01*
X0119040Y0237768D02*
X0132928Y0237768D01*
X0133602Y0239766D02*
X0119040Y0239766D01*
X0118556Y0241765D02*
X0135600Y0241765D01*
X0137599Y0243763D02*
X0117447Y0243763D01*
X0114853Y0245762D02*
X0139597Y0245762D01*
X0141596Y0247760D02*
X0065897Y0247760D01*
X0066028Y0249759D02*
X0143594Y0249759D01*
X0145593Y0251757D02*
X0064985Y0251757D01*
X0062509Y0255754D02*
X0149590Y0255754D01*
X0147591Y0253756D02*
X0060511Y0253756D01*
X0064508Y0257753D02*
X0151588Y0257753D01*
X0153587Y0259751D02*
X0066507Y0259751D01*
X0068505Y0261750D02*
X0094636Y0261750D01*
X0095061Y0261574D02*
X0097766Y0261574D01*
X0100265Y0262609D01*
X0102178Y0264522D01*
X0103213Y0267021D01*
X0103213Y0269727D01*
X0102426Y0271627D01*
X0102935Y0271417D01*
X0105640Y0271417D01*
X0108139Y0272452D01*
X0110052Y0274365D01*
X0111087Y0276864D01*
X0111087Y0279569D01*
X0110052Y0282068D01*
X0108139Y0283981D01*
X0105640Y0285017D01*
X0102935Y0285017D01*
X0100436Y0283981D01*
X0098523Y0282068D01*
X0097487Y0279569D01*
X0097487Y0276864D01*
X0098275Y0274963D01*
X0097766Y0275174D01*
X0095061Y0275174D01*
X0092561Y0274139D01*
X0090649Y0272226D01*
X0089613Y0269727D01*
X0089613Y0267021D01*
X0090649Y0264522D01*
X0092561Y0262609D01*
X0095061Y0261574D01*
X0098191Y0261750D02*
X0150266Y0261750D01*
X0153821Y0261750D02*
X0155585Y0261750D01*
X0157034Y0263748D02*
X0157584Y0263748D01*
X0158315Y0265747D02*
X0159582Y0265747D01*
X0158843Y0267745D02*
X0161581Y0267745D01*
X0163580Y0269744D02*
X0158836Y0269744D01*
X0158008Y0271743D02*
X0165578Y0271743D01*
X0153328Y0277738D02*
X0150969Y0277738D01*
X0150900Y0279737D02*
X0153328Y0279737D01*
X0153328Y0281735D02*
X0150072Y0281735D01*
X0148269Y0283734D02*
X0153328Y0283734D01*
X0153328Y0285732D02*
X0120128Y0285732D01*
X0120128Y0283734D02*
X0140070Y0283734D01*
X0138266Y0281735D02*
X0120128Y0281735D01*
X0120128Y0279737D02*
X0137439Y0279737D01*
X0137369Y0277738D02*
X0120128Y0277738D01*
X0121730Y0275740D02*
X0137835Y0275740D01*
X0139028Y0273741D02*
X0123729Y0273741D01*
X0118109Y0269744D02*
X0103206Y0269744D01*
X0103213Y0267745D02*
X0120108Y0267745D01*
X0122106Y0265747D02*
X0102685Y0265747D01*
X0101404Y0263748D02*
X0147052Y0263748D01*
X0150504Y0275740D02*
X0151727Y0275740D01*
X0153793Y0287731D02*
X0119664Y0287731D01*
X0117741Y0289729D02*
X0155716Y0289729D01*
X0157715Y0291728D02*
X0115742Y0291728D01*
X0113744Y0293726D02*
X0159713Y0293726D01*
X0116111Y0271743D02*
X0106427Y0271743D01*
X0109429Y0273741D02*
X0114112Y0273741D01*
X0113328Y0275740D02*
X0110622Y0275740D01*
X0111087Y0277738D02*
X0113328Y0277738D01*
X0113328Y0279737D02*
X0111018Y0279737D01*
X0110190Y0281735D02*
X0113328Y0281735D01*
X0113328Y0283734D02*
X0108387Y0283734D01*
X0112121Y0285732D02*
X0066336Y0285732D01*
X0060716Y0289729D02*
X0031828Y0289729D01*
X0031828Y0287731D02*
X0058793Y0287731D01*
X0058328Y0285732D02*
X0031828Y0285732D01*
X0031828Y0283734D02*
X0045070Y0283734D01*
X0043266Y0281735D02*
X0031828Y0281735D01*
X0031828Y0279737D02*
X0042439Y0279737D01*
X0042369Y0277738D02*
X0031828Y0277738D01*
X0031828Y0275740D02*
X0042835Y0275740D01*
X0044028Y0273741D02*
X0031828Y0273741D01*
X0031828Y0271743D02*
X0047030Y0271743D01*
X0050251Y0269744D02*
X0031828Y0269744D01*
X0031828Y0267745D02*
X0050243Y0267745D01*
X0050771Y0265747D02*
X0031828Y0265747D01*
X0031828Y0263748D02*
X0052052Y0263748D01*
X0055504Y0275740D02*
X0056727Y0275740D01*
X0055969Y0277738D02*
X0058328Y0277738D01*
X0058328Y0279737D02*
X0055900Y0279737D01*
X0055072Y0281735D02*
X0058328Y0281735D01*
X0058328Y0283734D02*
X0053269Y0283734D01*
X0062715Y0291728D02*
X0031828Y0291728D01*
X0031828Y0293726D02*
X0064713Y0293726D01*
X0063846Y0292859D02*
X0063846Y0292859D01*
X0080828Y0283734D02*
X0100188Y0283734D01*
X0098385Y0281735D02*
X0082631Y0281735D01*
X0083459Y0279737D02*
X0097557Y0279737D01*
X0097487Y0277738D02*
X0083528Y0277738D01*
X0083063Y0275740D02*
X0097953Y0275740D01*
X0092164Y0273741D02*
X0081869Y0273741D01*
X0078868Y0271743D02*
X0090448Y0271743D01*
X0089621Y0269744D02*
X0076499Y0269744D01*
X0074501Y0267745D02*
X0089613Y0267745D01*
X0090141Y0265747D02*
X0072502Y0265747D01*
X0070504Y0263748D02*
X0091422Y0263748D01*
X0108604Y0245762D02*
X0064638Y0245762D01*
X0058818Y0245762D02*
X0058528Y0245762D01*
X0058528Y0243763D02*
X0106010Y0243763D01*
X0104901Y0241765D02*
X0058528Y0241765D01*
X0058528Y0239766D02*
X0104417Y0239766D01*
X0104417Y0237768D02*
X0058528Y0237768D01*
X0058528Y0235769D02*
X0105211Y0235769D01*
X0106759Y0233771D02*
X0058528Y0233771D01*
X0058528Y0231772D02*
X0109618Y0231772D01*
X0106429Y0229774D02*
X0058528Y0229774D01*
X0058528Y0227775D02*
X0105075Y0227775D01*
X0104417Y0225777D02*
X0058528Y0225777D01*
X0058528Y0223778D02*
X0104417Y0223778D01*
X0105037Y0221780D02*
X0064963Y0221780D01*
X0066028Y0219781D02*
X0106339Y0219781D01*
X0108681Y0213786D02*
X0052528Y0213786D01*
X0052539Y0215784D02*
X0058796Y0215784D01*
X0057551Y0217783D02*
X0054538Y0217783D01*
X0056536Y0219781D02*
X0057428Y0219781D01*
X0058281Y0221780D02*
X0058494Y0221780D01*
X0052528Y0211787D02*
X0106041Y0211787D01*
X0104914Y0209789D02*
X0052528Y0209789D01*
X0052528Y0207790D02*
X0104417Y0207790D01*
X0104417Y0205792D02*
X0052528Y0205792D01*
X0052528Y0203793D02*
X0105198Y0203793D01*
X0106727Y0201795D02*
X0052528Y0201795D01*
X0052528Y0199796D02*
X0109694Y0199796D01*
X0106461Y0197798D02*
X0052528Y0197798D01*
X0052528Y0195799D02*
X0105088Y0195799D01*
X0104417Y0193801D02*
X0052528Y0193801D01*
X0052528Y0191802D02*
X0104417Y0191802D01*
X0105024Y0189804D02*
X0052528Y0189804D01*
X0052528Y0187805D02*
X0106307Y0187805D01*
X0088524Y0181810D02*
X0064933Y0181810D01*
X0066019Y0179811D02*
X0087438Y0179811D01*
X0087538Y0177812D02*
X0065918Y0177812D01*
X0064690Y0175814D02*
X0088766Y0175814D01*
X0159690Y0175814D02*
X0183766Y0175814D01*
X0182538Y0177812D02*
X0160918Y0177812D01*
X0161019Y0179811D02*
X0182438Y0179811D01*
X0183524Y0181810D02*
X0159933Y0181810D01*
X0153818Y0245762D02*
X0147517Y0245762D01*
X0149515Y0247760D02*
X0152560Y0247760D01*
X0152428Y0249759D02*
X0151514Y0249759D01*
X0046505Y0246152D02*
X0046505Y0246152D01*
X0032798Y0109863D02*
X0099765Y0109863D01*
X0097898Y0107865D02*
X0034797Y0107865D01*
X0036795Y0105866D02*
X0096031Y0105866D01*
X0094164Y0103868D02*
X0038794Y0103868D01*
X0040792Y0101869D02*
X0040977Y0101869D01*
X0123816Y0051906D02*
X0135641Y0051906D01*
X0134028Y0049908D02*
X0125428Y0049908D01*
X0133809Y0041914D02*
X0135648Y0041914D01*
X0135681Y0033920D02*
X0133776Y0033920D01*
X0143776Y0033920D02*
X0145681Y0033920D01*
X0173816Y0051906D02*
X0175641Y0051906D01*
X0191875Y0076533D02*
X0191905Y0076563D01*
X0201079Y0076563D01*
X0206079Y0076563D02*
X0206079Y0085283D01*
X0210728Y0089933D01*
X0215728Y0089933D01*
X0219728Y0085933D01*
X0223728Y0093933D02*
X0303728Y0093933D01*
X0309128Y0088533D01*
X0330128Y0088533D01*
X0332850Y0085881D02*
X0380128Y0085881D01*
X0380128Y0087879D02*
X0333928Y0087879D01*
X0333684Y0089878D02*
X0380128Y0089878D01*
X0380128Y0091877D02*
X0331986Y0091877D01*
X0328270Y0091877D02*
X0310028Y0091877D01*
X0308029Y0093875D02*
X0380128Y0093875D01*
X0380128Y0095874D02*
X0306031Y0095874D01*
X0312022Y0083882D02*
X0380128Y0083882D01*
X0380128Y0081884D02*
X0314020Y0081884D01*
X0316019Y0079885D02*
X0380128Y0079885D01*
X0387328Y0079885D02*
X0410328Y0079885D01*
X0410328Y0077887D02*
X0387328Y0077887D01*
X0387328Y0075888D02*
X0410328Y0075888D01*
X0410328Y0073890D02*
X0387328Y0073890D01*
X0387328Y0071891D02*
X0410328Y0071891D01*
X0410328Y0069893D02*
X0387328Y0069893D01*
X0387328Y0067894D02*
X0410328Y0067894D01*
X0410328Y0065896D02*
X0387328Y0065896D01*
X0387328Y0063897D02*
X0410328Y0063897D01*
X0410328Y0061899D02*
X0387328Y0061899D01*
X0387328Y0059900D02*
X0410328Y0059900D01*
X0410328Y0057902D02*
X0387328Y0057902D01*
X0387328Y0055903D02*
X0410328Y0055903D01*
X0410328Y0053905D02*
X0387328Y0053905D01*
X0387328Y0051906D02*
X0410328Y0051906D01*
X0410328Y0049908D02*
X0387328Y0049908D01*
X0387328Y0047909D02*
X0410328Y0047909D01*
X0410328Y0045911D02*
X0387328Y0045911D01*
X0387328Y0043912D02*
X0410328Y0043912D01*
X0410328Y0041914D02*
X0387328Y0041914D01*
X0387328Y0039915D02*
X0410328Y0039915D01*
X0410328Y0037917D02*
X0387328Y0037917D01*
X0387328Y0035918D02*
X0410328Y0035918D01*
X0410328Y0033920D02*
X0386791Y0033920D01*
X0385528Y0031921D02*
X0410328Y0031921D01*
X0410328Y0029923D02*
X0385528Y0029923D01*
X0376684Y0037917D02*
X0374373Y0037917D01*
X0375528Y0036761D02*
X0375528Y0036533D01*
X0375528Y0036533D01*
X0375528Y0036761D01*
X0366684Y0037917D02*
X0355573Y0037917D01*
X0355557Y0037933D02*
X0347900Y0037933D01*
X0346728Y0036761D01*
X0345557Y0037933D01*
X0337900Y0037933D01*
X0336728Y0036761D01*
X0336728Y0029105D01*
X0337900Y0027933D01*
X0345557Y0027933D01*
X0346728Y0029105D01*
X0346728Y0029333D01*
X0346728Y0029333D01*
X0346728Y0029105D01*
X0347900Y0027933D01*
X0355557Y0027933D01*
X0356728Y0029105D01*
X0356728Y0036761D01*
X0355557Y0037933D01*
X0356728Y0035918D02*
X0365528Y0035918D01*
X0365528Y0033920D02*
X0356728Y0033920D01*
X0356728Y0031921D02*
X0365528Y0031921D01*
X0365528Y0029923D02*
X0356728Y0029923D01*
X0347884Y0037917D02*
X0345573Y0037917D01*
X0346728Y0036761D02*
X0346728Y0036533D01*
X0346728Y0036533D01*
X0346728Y0036761D01*
X0337884Y0037917D02*
X0326573Y0037917D01*
X0327728Y0035918D02*
X0336728Y0035918D01*
X0336728Y0033920D02*
X0327728Y0033920D01*
X0327728Y0031921D02*
X0336728Y0031921D01*
X0336728Y0029923D02*
X0327728Y0029923D01*
X0281811Y0027924D02*
X0410328Y0027924D01*
X0410328Y0025926D02*
X0279812Y0025926D01*
X0223728Y0093933D02*
X0219728Y0097933D01*
X0193728Y0097933D01*
X0224032Y0097872D02*
X0380128Y0097872D01*
X0387328Y0097872D02*
X0410328Y0097872D01*
X0410328Y0095874D02*
X0387328Y0095874D01*
X0387328Y0093875D02*
X0410328Y0093875D01*
X0410328Y0091877D02*
X0387328Y0091877D01*
X0387328Y0089878D02*
X0410328Y0089878D01*
X0410328Y0087879D02*
X0387328Y0087879D01*
X0387328Y0085881D02*
X0410328Y0085881D01*
X0410328Y0083882D02*
X0387328Y0083882D01*
X0387328Y0081884D02*
X0410328Y0081884D01*
X0369655Y0113860D02*
X0239060Y0113860D01*
X0239060Y0111862D02*
X0367657Y0111862D01*
X0365658Y0109863D02*
X0239060Y0109863D01*
X0239060Y0107865D02*
X0363660Y0107865D01*
X0371654Y0115859D02*
X0239060Y0115859D01*
X0239060Y0117857D02*
X0371728Y0117857D01*
D21*
X0330128Y0088533D03*
X0296728Y0070933D03*
X0286728Y0075933D03*
X0276728Y0070933D03*
X0266728Y0075933D03*
X0256728Y0070933D03*
X0251728Y0057933D03*
X0213728Y0084933D03*
X0194228Y0085233D03*
X0179728Y0082933D03*
X0180728Y0092933D03*
X0173728Y0098933D03*
X0176728Y0106933D03*
X0191728Y0112933D03*
X0169528Y0058533D03*
X0129828Y0027333D03*
X0092728Y0071933D03*
X0090728Y0077933D03*
X0095128Y0088433D03*
X0088528Y0093733D03*
X0043828Y0027233D03*
X0299728Y0053933D03*
D22*
X0206079Y0085283D02*
X0206028Y0085233D01*
X0194228Y0085233D01*
X0180728Y0092933D02*
X0146728Y0092933D01*
X0134728Y0104933D01*
X0110728Y0104933D01*
X0108382Y0102587D01*
X0108382Y0099933D01*
X0104728Y0099933D01*
X0101098Y0096303D01*
X0101098Y0093433D01*
X0094228Y0093433D01*
X0088728Y0087933D01*
X0082728Y0087933D01*
X0080728Y0085933D01*
X0080728Y0083280D01*
X0080382Y0082933D01*
X0080382Y0071933D01*
X0080382Y0061933D01*
X0087075Y0061933D02*
X0103728Y0061933D01*
X0106728Y0064933D01*
X0116728Y0064933D02*
X0122358Y0070563D01*
X0122358Y0078433D01*
X0122358Y0083433D01*
X0122358Y0088433D01*
X0122358Y0093433D01*
X0122358Y0096303D01*
X0118728Y0099933D01*
X0115075Y0099933D01*
X0101098Y0088433D02*
X0095128Y0088433D01*
X0094228Y0083433D02*
X0090728Y0079933D01*
X0087402Y0083260D01*
X0087075Y0082933D01*
X0087402Y0083260D02*
X0087575Y0083433D01*
X0090728Y0079933D02*
X0090728Y0077933D01*
X0092728Y0071933D02*
X0087075Y0071933D01*
X0092728Y0071933D02*
X0098728Y0077933D01*
X0100598Y0077933D01*
X0101098Y0078433D01*
X0101098Y0083433D02*
X0094228Y0083433D01*
D23*
X0316728Y0074933D03*
D24*
X0307728Y0064933D03*
M02*
