G75*
%MOIN*%
%OFA0B0*%
%FSLAX25Y25*%
%IPPOS*%
%LPD*%
%AMOC8*
5,1,8,0,0,1.08239X$1,22.5*
%
%ADD10C,0.01000*%
%ADD11C,0.00000*%
D10*
X0026768Y0015933D02*
X0026768Y0330894D01*
X0415429Y0330894D01*
X0415429Y0015933D01*
X0026768Y0015933D01*
D11*
X0035142Y0042933D02*
X0035144Y0043080D01*
X0035150Y0043226D01*
X0035160Y0043372D01*
X0035174Y0043518D01*
X0035192Y0043664D01*
X0035213Y0043809D01*
X0035239Y0043953D01*
X0035269Y0044097D01*
X0035302Y0044239D01*
X0035339Y0044381D01*
X0035380Y0044522D01*
X0035425Y0044661D01*
X0035474Y0044800D01*
X0035526Y0044937D01*
X0035583Y0045072D01*
X0035642Y0045206D01*
X0035706Y0045338D01*
X0035773Y0045468D01*
X0035843Y0045597D01*
X0035917Y0045724D01*
X0035994Y0045848D01*
X0036075Y0045971D01*
X0036159Y0046091D01*
X0036246Y0046209D01*
X0036336Y0046324D01*
X0036429Y0046437D01*
X0036526Y0046548D01*
X0036625Y0046656D01*
X0036727Y0046761D01*
X0036832Y0046863D01*
X0036940Y0046962D01*
X0037051Y0047059D01*
X0037164Y0047152D01*
X0037279Y0047242D01*
X0037397Y0047329D01*
X0037517Y0047413D01*
X0037640Y0047494D01*
X0037764Y0047571D01*
X0037891Y0047645D01*
X0038020Y0047715D01*
X0038150Y0047782D01*
X0038282Y0047846D01*
X0038416Y0047905D01*
X0038551Y0047962D01*
X0038688Y0048014D01*
X0038827Y0048063D01*
X0038966Y0048108D01*
X0039107Y0048149D01*
X0039249Y0048186D01*
X0039391Y0048219D01*
X0039535Y0048249D01*
X0039679Y0048275D01*
X0039824Y0048296D01*
X0039970Y0048314D01*
X0040116Y0048328D01*
X0040262Y0048338D01*
X0040408Y0048344D01*
X0040555Y0048346D01*
X0040702Y0048344D01*
X0040848Y0048338D01*
X0040994Y0048328D01*
X0041140Y0048314D01*
X0041286Y0048296D01*
X0041431Y0048275D01*
X0041575Y0048249D01*
X0041719Y0048219D01*
X0041861Y0048186D01*
X0042003Y0048149D01*
X0042144Y0048108D01*
X0042283Y0048063D01*
X0042422Y0048014D01*
X0042559Y0047962D01*
X0042694Y0047905D01*
X0042828Y0047846D01*
X0042960Y0047782D01*
X0043090Y0047715D01*
X0043219Y0047645D01*
X0043346Y0047571D01*
X0043470Y0047494D01*
X0043593Y0047413D01*
X0043713Y0047329D01*
X0043831Y0047242D01*
X0043946Y0047152D01*
X0044059Y0047059D01*
X0044170Y0046962D01*
X0044278Y0046863D01*
X0044383Y0046761D01*
X0044485Y0046656D01*
X0044584Y0046548D01*
X0044681Y0046437D01*
X0044774Y0046324D01*
X0044864Y0046209D01*
X0044951Y0046091D01*
X0045035Y0045971D01*
X0045116Y0045848D01*
X0045193Y0045724D01*
X0045267Y0045597D01*
X0045337Y0045468D01*
X0045404Y0045338D01*
X0045468Y0045206D01*
X0045527Y0045072D01*
X0045584Y0044937D01*
X0045636Y0044800D01*
X0045685Y0044661D01*
X0045730Y0044522D01*
X0045771Y0044381D01*
X0045808Y0044239D01*
X0045841Y0044097D01*
X0045871Y0043953D01*
X0045897Y0043809D01*
X0045918Y0043664D01*
X0045936Y0043518D01*
X0045950Y0043372D01*
X0045960Y0043226D01*
X0045966Y0043080D01*
X0045968Y0042933D01*
X0045966Y0042786D01*
X0045960Y0042640D01*
X0045950Y0042494D01*
X0045936Y0042348D01*
X0045918Y0042202D01*
X0045897Y0042057D01*
X0045871Y0041913D01*
X0045841Y0041769D01*
X0045808Y0041627D01*
X0045771Y0041485D01*
X0045730Y0041344D01*
X0045685Y0041205D01*
X0045636Y0041066D01*
X0045584Y0040929D01*
X0045527Y0040794D01*
X0045468Y0040660D01*
X0045404Y0040528D01*
X0045337Y0040398D01*
X0045267Y0040269D01*
X0045193Y0040142D01*
X0045116Y0040018D01*
X0045035Y0039895D01*
X0044951Y0039775D01*
X0044864Y0039657D01*
X0044774Y0039542D01*
X0044681Y0039429D01*
X0044584Y0039318D01*
X0044485Y0039210D01*
X0044383Y0039105D01*
X0044278Y0039003D01*
X0044170Y0038904D01*
X0044059Y0038807D01*
X0043946Y0038714D01*
X0043831Y0038624D01*
X0043713Y0038537D01*
X0043593Y0038453D01*
X0043470Y0038372D01*
X0043346Y0038295D01*
X0043219Y0038221D01*
X0043090Y0038151D01*
X0042960Y0038084D01*
X0042828Y0038020D01*
X0042694Y0037961D01*
X0042559Y0037904D01*
X0042422Y0037852D01*
X0042283Y0037803D01*
X0042144Y0037758D01*
X0042003Y0037717D01*
X0041861Y0037680D01*
X0041719Y0037647D01*
X0041575Y0037617D01*
X0041431Y0037591D01*
X0041286Y0037570D01*
X0041140Y0037552D01*
X0040994Y0037538D01*
X0040848Y0037528D01*
X0040702Y0037522D01*
X0040555Y0037520D01*
X0040408Y0037522D01*
X0040262Y0037528D01*
X0040116Y0037538D01*
X0039970Y0037552D01*
X0039824Y0037570D01*
X0039679Y0037591D01*
X0039535Y0037617D01*
X0039391Y0037647D01*
X0039249Y0037680D01*
X0039107Y0037717D01*
X0038966Y0037758D01*
X0038827Y0037803D01*
X0038688Y0037852D01*
X0038551Y0037904D01*
X0038416Y0037961D01*
X0038282Y0038020D01*
X0038150Y0038084D01*
X0038020Y0038151D01*
X0037891Y0038221D01*
X0037764Y0038295D01*
X0037640Y0038372D01*
X0037517Y0038453D01*
X0037397Y0038537D01*
X0037279Y0038624D01*
X0037164Y0038714D01*
X0037051Y0038807D01*
X0036940Y0038904D01*
X0036832Y0039003D01*
X0036727Y0039105D01*
X0036625Y0039210D01*
X0036526Y0039318D01*
X0036429Y0039429D01*
X0036336Y0039542D01*
X0036246Y0039657D01*
X0036159Y0039775D01*
X0036075Y0039895D01*
X0035994Y0040018D01*
X0035917Y0040142D01*
X0035843Y0040269D01*
X0035773Y0040398D01*
X0035706Y0040528D01*
X0035642Y0040660D01*
X0035583Y0040794D01*
X0035526Y0040929D01*
X0035474Y0041066D01*
X0035425Y0041205D01*
X0035380Y0041344D01*
X0035339Y0041485D01*
X0035302Y0041627D01*
X0035269Y0041769D01*
X0035239Y0041913D01*
X0035213Y0042057D01*
X0035192Y0042202D01*
X0035174Y0042348D01*
X0035160Y0042494D01*
X0035150Y0042640D01*
X0035144Y0042786D01*
X0035142Y0042933D01*
X0263489Y0042933D02*
X0263491Y0043080D01*
X0263497Y0043226D01*
X0263507Y0043372D01*
X0263521Y0043518D01*
X0263539Y0043664D01*
X0263560Y0043809D01*
X0263586Y0043953D01*
X0263616Y0044097D01*
X0263649Y0044239D01*
X0263686Y0044381D01*
X0263727Y0044522D01*
X0263772Y0044661D01*
X0263821Y0044800D01*
X0263873Y0044937D01*
X0263930Y0045072D01*
X0263989Y0045206D01*
X0264053Y0045338D01*
X0264120Y0045468D01*
X0264190Y0045597D01*
X0264264Y0045724D01*
X0264341Y0045848D01*
X0264422Y0045971D01*
X0264506Y0046091D01*
X0264593Y0046209D01*
X0264683Y0046324D01*
X0264776Y0046437D01*
X0264873Y0046548D01*
X0264972Y0046656D01*
X0265074Y0046761D01*
X0265179Y0046863D01*
X0265287Y0046962D01*
X0265398Y0047059D01*
X0265511Y0047152D01*
X0265626Y0047242D01*
X0265744Y0047329D01*
X0265864Y0047413D01*
X0265987Y0047494D01*
X0266111Y0047571D01*
X0266238Y0047645D01*
X0266367Y0047715D01*
X0266497Y0047782D01*
X0266629Y0047846D01*
X0266763Y0047905D01*
X0266898Y0047962D01*
X0267035Y0048014D01*
X0267174Y0048063D01*
X0267313Y0048108D01*
X0267454Y0048149D01*
X0267596Y0048186D01*
X0267738Y0048219D01*
X0267882Y0048249D01*
X0268026Y0048275D01*
X0268171Y0048296D01*
X0268317Y0048314D01*
X0268463Y0048328D01*
X0268609Y0048338D01*
X0268755Y0048344D01*
X0268902Y0048346D01*
X0269049Y0048344D01*
X0269195Y0048338D01*
X0269341Y0048328D01*
X0269487Y0048314D01*
X0269633Y0048296D01*
X0269778Y0048275D01*
X0269922Y0048249D01*
X0270066Y0048219D01*
X0270208Y0048186D01*
X0270350Y0048149D01*
X0270491Y0048108D01*
X0270630Y0048063D01*
X0270769Y0048014D01*
X0270906Y0047962D01*
X0271041Y0047905D01*
X0271175Y0047846D01*
X0271307Y0047782D01*
X0271437Y0047715D01*
X0271566Y0047645D01*
X0271693Y0047571D01*
X0271817Y0047494D01*
X0271940Y0047413D01*
X0272060Y0047329D01*
X0272178Y0047242D01*
X0272293Y0047152D01*
X0272406Y0047059D01*
X0272517Y0046962D01*
X0272625Y0046863D01*
X0272730Y0046761D01*
X0272832Y0046656D01*
X0272931Y0046548D01*
X0273028Y0046437D01*
X0273121Y0046324D01*
X0273211Y0046209D01*
X0273298Y0046091D01*
X0273382Y0045971D01*
X0273463Y0045848D01*
X0273540Y0045724D01*
X0273614Y0045597D01*
X0273684Y0045468D01*
X0273751Y0045338D01*
X0273815Y0045206D01*
X0273874Y0045072D01*
X0273931Y0044937D01*
X0273983Y0044800D01*
X0274032Y0044661D01*
X0274077Y0044522D01*
X0274118Y0044381D01*
X0274155Y0044239D01*
X0274188Y0044097D01*
X0274218Y0043953D01*
X0274244Y0043809D01*
X0274265Y0043664D01*
X0274283Y0043518D01*
X0274297Y0043372D01*
X0274307Y0043226D01*
X0274313Y0043080D01*
X0274315Y0042933D01*
X0274313Y0042786D01*
X0274307Y0042640D01*
X0274297Y0042494D01*
X0274283Y0042348D01*
X0274265Y0042202D01*
X0274244Y0042057D01*
X0274218Y0041913D01*
X0274188Y0041769D01*
X0274155Y0041627D01*
X0274118Y0041485D01*
X0274077Y0041344D01*
X0274032Y0041205D01*
X0273983Y0041066D01*
X0273931Y0040929D01*
X0273874Y0040794D01*
X0273815Y0040660D01*
X0273751Y0040528D01*
X0273684Y0040398D01*
X0273614Y0040269D01*
X0273540Y0040142D01*
X0273463Y0040018D01*
X0273382Y0039895D01*
X0273298Y0039775D01*
X0273211Y0039657D01*
X0273121Y0039542D01*
X0273028Y0039429D01*
X0272931Y0039318D01*
X0272832Y0039210D01*
X0272730Y0039105D01*
X0272625Y0039003D01*
X0272517Y0038904D01*
X0272406Y0038807D01*
X0272293Y0038714D01*
X0272178Y0038624D01*
X0272060Y0038537D01*
X0271940Y0038453D01*
X0271817Y0038372D01*
X0271693Y0038295D01*
X0271566Y0038221D01*
X0271437Y0038151D01*
X0271307Y0038084D01*
X0271175Y0038020D01*
X0271041Y0037961D01*
X0270906Y0037904D01*
X0270769Y0037852D01*
X0270630Y0037803D01*
X0270491Y0037758D01*
X0270350Y0037717D01*
X0270208Y0037680D01*
X0270066Y0037647D01*
X0269922Y0037617D01*
X0269778Y0037591D01*
X0269633Y0037570D01*
X0269487Y0037552D01*
X0269341Y0037538D01*
X0269195Y0037528D01*
X0269049Y0037522D01*
X0268902Y0037520D01*
X0268755Y0037522D01*
X0268609Y0037528D01*
X0268463Y0037538D01*
X0268317Y0037552D01*
X0268171Y0037570D01*
X0268026Y0037591D01*
X0267882Y0037617D01*
X0267738Y0037647D01*
X0267596Y0037680D01*
X0267454Y0037717D01*
X0267313Y0037758D01*
X0267174Y0037803D01*
X0267035Y0037852D01*
X0266898Y0037904D01*
X0266763Y0037961D01*
X0266629Y0038020D01*
X0266497Y0038084D01*
X0266367Y0038151D01*
X0266238Y0038221D01*
X0266111Y0038295D01*
X0265987Y0038372D01*
X0265864Y0038453D01*
X0265744Y0038537D01*
X0265626Y0038624D01*
X0265511Y0038714D01*
X0265398Y0038807D01*
X0265287Y0038904D01*
X0265179Y0039003D01*
X0265074Y0039105D01*
X0264972Y0039210D01*
X0264873Y0039318D01*
X0264776Y0039429D01*
X0264683Y0039542D01*
X0264593Y0039657D01*
X0264506Y0039775D01*
X0264422Y0039895D01*
X0264341Y0040018D01*
X0264264Y0040142D01*
X0264190Y0040269D01*
X0264120Y0040398D01*
X0264053Y0040528D01*
X0263989Y0040660D01*
X0263930Y0040794D01*
X0263873Y0040929D01*
X0263821Y0041066D01*
X0263772Y0041205D01*
X0263727Y0041344D01*
X0263686Y0041485D01*
X0263649Y0041627D01*
X0263616Y0041769D01*
X0263586Y0041913D01*
X0263560Y0042057D01*
X0263539Y0042202D01*
X0263521Y0042348D01*
X0263507Y0042494D01*
X0263497Y0042640D01*
X0263491Y0042786D01*
X0263489Y0042933D01*
X0035142Y0235846D02*
X0035144Y0235993D01*
X0035150Y0236139D01*
X0035160Y0236285D01*
X0035174Y0236431D01*
X0035192Y0236577D01*
X0035213Y0236722D01*
X0035239Y0236866D01*
X0035269Y0237010D01*
X0035302Y0237152D01*
X0035339Y0237294D01*
X0035380Y0237435D01*
X0035425Y0237574D01*
X0035474Y0237713D01*
X0035526Y0237850D01*
X0035583Y0237985D01*
X0035642Y0238119D01*
X0035706Y0238251D01*
X0035773Y0238381D01*
X0035843Y0238510D01*
X0035917Y0238637D01*
X0035994Y0238761D01*
X0036075Y0238884D01*
X0036159Y0239004D01*
X0036246Y0239122D01*
X0036336Y0239237D01*
X0036429Y0239350D01*
X0036526Y0239461D01*
X0036625Y0239569D01*
X0036727Y0239674D01*
X0036832Y0239776D01*
X0036940Y0239875D01*
X0037051Y0239972D01*
X0037164Y0240065D01*
X0037279Y0240155D01*
X0037397Y0240242D01*
X0037517Y0240326D01*
X0037640Y0240407D01*
X0037764Y0240484D01*
X0037891Y0240558D01*
X0038020Y0240628D01*
X0038150Y0240695D01*
X0038282Y0240759D01*
X0038416Y0240818D01*
X0038551Y0240875D01*
X0038688Y0240927D01*
X0038827Y0240976D01*
X0038966Y0241021D01*
X0039107Y0241062D01*
X0039249Y0241099D01*
X0039391Y0241132D01*
X0039535Y0241162D01*
X0039679Y0241188D01*
X0039824Y0241209D01*
X0039970Y0241227D01*
X0040116Y0241241D01*
X0040262Y0241251D01*
X0040408Y0241257D01*
X0040555Y0241259D01*
X0040702Y0241257D01*
X0040848Y0241251D01*
X0040994Y0241241D01*
X0041140Y0241227D01*
X0041286Y0241209D01*
X0041431Y0241188D01*
X0041575Y0241162D01*
X0041719Y0241132D01*
X0041861Y0241099D01*
X0042003Y0241062D01*
X0042144Y0241021D01*
X0042283Y0240976D01*
X0042422Y0240927D01*
X0042559Y0240875D01*
X0042694Y0240818D01*
X0042828Y0240759D01*
X0042960Y0240695D01*
X0043090Y0240628D01*
X0043219Y0240558D01*
X0043346Y0240484D01*
X0043470Y0240407D01*
X0043593Y0240326D01*
X0043713Y0240242D01*
X0043831Y0240155D01*
X0043946Y0240065D01*
X0044059Y0239972D01*
X0044170Y0239875D01*
X0044278Y0239776D01*
X0044383Y0239674D01*
X0044485Y0239569D01*
X0044584Y0239461D01*
X0044681Y0239350D01*
X0044774Y0239237D01*
X0044864Y0239122D01*
X0044951Y0239004D01*
X0045035Y0238884D01*
X0045116Y0238761D01*
X0045193Y0238637D01*
X0045267Y0238510D01*
X0045337Y0238381D01*
X0045404Y0238251D01*
X0045468Y0238119D01*
X0045527Y0237985D01*
X0045584Y0237850D01*
X0045636Y0237713D01*
X0045685Y0237574D01*
X0045730Y0237435D01*
X0045771Y0237294D01*
X0045808Y0237152D01*
X0045841Y0237010D01*
X0045871Y0236866D01*
X0045897Y0236722D01*
X0045918Y0236577D01*
X0045936Y0236431D01*
X0045950Y0236285D01*
X0045960Y0236139D01*
X0045966Y0235993D01*
X0045968Y0235846D01*
X0045966Y0235699D01*
X0045960Y0235553D01*
X0045950Y0235407D01*
X0045936Y0235261D01*
X0045918Y0235115D01*
X0045897Y0234970D01*
X0045871Y0234826D01*
X0045841Y0234682D01*
X0045808Y0234540D01*
X0045771Y0234398D01*
X0045730Y0234257D01*
X0045685Y0234118D01*
X0045636Y0233979D01*
X0045584Y0233842D01*
X0045527Y0233707D01*
X0045468Y0233573D01*
X0045404Y0233441D01*
X0045337Y0233311D01*
X0045267Y0233182D01*
X0045193Y0233055D01*
X0045116Y0232931D01*
X0045035Y0232808D01*
X0044951Y0232688D01*
X0044864Y0232570D01*
X0044774Y0232455D01*
X0044681Y0232342D01*
X0044584Y0232231D01*
X0044485Y0232123D01*
X0044383Y0232018D01*
X0044278Y0231916D01*
X0044170Y0231817D01*
X0044059Y0231720D01*
X0043946Y0231627D01*
X0043831Y0231537D01*
X0043713Y0231450D01*
X0043593Y0231366D01*
X0043470Y0231285D01*
X0043346Y0231208D01*
X0043219Y0231134D01*
X0043090Y0231064D01*
X0042960Y0230997D01*
X0042828Y0230933D01*
X0042694Y0230874D01*
X0042559Y0230817D01*
X0042422Y0230765D01*
X0042283Y0230716D01*
X0042144Y0230671D01*
X0042003Y0230630D01*
X0041861Y0230593D01*
X0041719Y0230560D01*
X0041575Y0230530D01*
X0041431Y0230504D01*
X0041286Y0230483D01*
X0041140Y0230465D01*
X0040994Y0230451D01*
X0040848Y0230441D01*
X0040702Y0230435D01*
X0040555Y0230433D01*
X0040408Y0230435D01*
X0040262Y0230441D01*
X0040116Y0230451D01*
X0039970Y0230465D01*
X0039824Y0230483D01*
X0039679Y0230504D01*
X0039535Y0230530D01*
X0039391Y0230560D01*
X0039249Y0230593D01*
X0039107Y0230630D01*
X0038966Y0230671D01*
X0038827Y0230716D01*
X0038688Y0230765D01*
X0038551Y0230817D01*
X0038416Y0230874D01*
X0038282Y0230933D01*
X0038150Y0230997D01*
X0038020Y0231064D01*
X0037891Y0231134D01*
X0037764Y0231208D01*
X0037640Y0231285D01*
X0037517Y0231366D01*
X0037397Y0231450D01*
X0037279Y0231537D01*
X0037164Y0231627D01*
X0037051Y0231720D01*
X0036940Y0231817D01*
X0036832Y0231916D01*
X0036727Y0232018D01*
X0036625Y0232123D01*
X0036526Y0232231D01*
X0036429Y0232342D01*
X0036336Y0232455D01*
X0036246Y0232570D01*
X0036159Y0232688D01*
X0036075Y0232808D01*
X0035994Y0232931D01*
X0035917Y0233055D01*
X0035843Y0233182D01*
X0035773Y0233311D01*
X0035706Y0233441D01*
X0035642Y0233573D01*
X0035583Y0233707D01*
X0035526Y0233842D01*
X0035474Y0233979D01*
X0035425Y0234118D01*
X0035380Y0234257D01*
X0035339Y0234398D01*
X0035302Y0234540D01*
X0035269Y0234682D01*
X0035239Y0234826D01*
X0035213Y0234970D01*
X0035192Y0235115D01*
X0035174Y0235261D01*
X0035160Y0235407D01*
X0035150Y0235553D01*
X0035144Y0235699D01*
X0035142Y0235846D01*
M02*
