G75*
%MOIN*%
%OFA0B0*%
%FSLAX25Y25*%
%IPPOS*%
%LPD*%
%AMOC8*
5,1,8,0,0,1.08239X$1,22.5*
%
%ADD10C,0.03200*%
%ADD11R,0.05000X0.05787*%
%ADD12R,0.04331X0.03937*%
%ADD13R,0.02756X0.03543*%
%ADD14C,0.01496*%
%ADD15C,0.05000*%
%ADD16R,0.03937X0.04331*%
%ADD17OC8,0.07400*%
%ADD18C,0.10000*%
%ADD19C,0.11024*%
%ADD20R,0.06000X0.06000*%
%ADD21C,0.07400*%
%ADD22C,0.01600*%
%ADD23C,0.03600*%
%ADD24C,0.05100*%
%ADD25C,0.02000*%
%ADD26C,0.04950*%
D10*
X0031828Y0020933D02*
X0031828Y0034074D01*
X0034378Y0031935D01*
X0034378Y0031935D01*
X0038523Y0030426D01*
X0042934Y0030426D01*
X0047078Y0031935D01*
X0049328Y0033823D01*
X0049328Y0031257D01*
X0049846Y0030007D01*
X0050802Y0029051D01*
X0058920Y0020933D01*
X0031828Y0020933D01*
X0031828Y0022330D02*
X0057523Y0022330D01*
X0054324Y0025529D02*
X0031828Y0025529D01*
X0031828Y0028727D02*
X0051126Y0028727D01*
X0049328Y0031926D02*
X0047054Y0031926D01*
X0047078Y0031935D02*
X0047078Y0031935D01*
X0034403Y0031926D02*
X0031828Y0031926D01*
X0032228Y0042933D02*
X0032231Y0043142D01*
X0032238Y0043350D01*
X0032251Y0043558D01*
X0032269Y0043766D01*
X0032292Y0043973D01*
X0032320Y0044180D01*
X0032353Y0044386D01*
X0032391Y0044591D01*
X0032435Y0044795D01*
X0032483Y0044998D01*
X0032536Y0045200D01*
X0032594Y0045400D01*
X0032657Y0045599D01*
X0032725Y0045797D01*
X0032798Y0045992D01*
X0032875Y0046186D01*
X0032957Y0046378D01*
X0033044Y0046567D01*
X0033136Y0046755D01*
X0033232Y0046940D01*
X0033332Y0047123D01*
X0033437Y0047303D01*
X0033547Y0047480D01*
X0033661Y0047655D01*
X0033779Y0047827D01*
X0033901Y0047996D01*
X0034027Y0048162D01*
X0034157Y0048325D01*
X0034292Y0048485D01*
X0034430Y0048641D01*
X0034572Y0048794D01*
X0034718Y0048943D01*
X0034867Y0049089D01*
X0035020Y0049231D01*
X0035176Y0049369D01*
X0035336Y0049504D01*
X0035499Y0049634D01*
X0035665Y0049760D01*
X0035834Y0049882D01*
X0036006Y0050000D01*
X0036181Y0050114D01*
X0036358Y0050224D01*
X0036538Y0050329D01*
X0036721Y0050429D01*
X0036906Y0050525D01*
X0037094Y0050617D01*
X0037283Y0050704D01*
X0037475Y0050786D01*
X0037669Y0050863D01*
X0037864Y0050936D01*
X0038062Y0051004D01*
X0038261Y0051067D01*
X0038461Y0051125D01*
X0038663Y0051178D01*
X0038866Y0051226D01*
X0039070Y0051270D01*
X0039275Y0051308D01*
X0039481Y0051341D01*
X0039688Y0051369D01*
X0039895Y0051392D01*
X0040103Y0051410D01*
X0040311Y0051423D01*
X0040519Y0051430D01*
X0040728Y0051433D01*
X0040937Y0051430D01*
X0041145Y0051423D01*
X0041353Y0051410D01*
X0041561Y0051392D01*
X0041768Y0051369D01*
X0041975Y0051341D01*
X0042181Y0051308D01*
X0042386Y0051270D01*
X0042590Y0051226D01*
X0042793Y0051178D01*
X0042995Y0051125D01*
X0043195Y0051067D01*
X0043394Y0051004D01*
X0043592Y0050936D01*
X0043787Y0050863D01*
X0043981Y0050786D01*
X0044173Y0050704D01*
X0044362Y0050617D01*
X0044550Y0050525D01*
X0044735Y0050429D01*
X0044918Y0050329D01*
X0045098Y0050224D01*
X0045275Y0050114D01*
X0045450Y0050000D01*
X0045622Y0049882D01*
X0045791Y0049760D01*
X0045957Y0049634D01*
X0046120Y0049504D01*
X0046280Y0049369D01*
X0046436Y0049231D01*
X0046589Y0049089D01*
X0046738Y0048943D01*
X0046884Y0048794D01*
X0047026Y0048641D01*
X0047164Y0048485D01*
X0047299Y0048325D01*
X0047429Y0048162D01*
X0047555Y0047996D01*
X0047677Y0047827D01*
X0047795Y0047655D01*
X0047909Y0047480D01*
X0048019Y0047303D01*
X0048124Y0047123D01*
X0048224Y0046940D01*
X0048320Y0046755D01*
X0048412Y0046567D01*
X0048499Y0046378D01*
X0048581Y0046186D01*
X0048658Y0045992D01*
X0048731Y0045797D01*
X0048799Y0045599D01*
X0048862Y0045400D01*
X0048920Y0045200D01*
X0048973Y0044998D01*
X0049021Y0044795D01*
X0049065Y0044591D01*
X0049103Y0044386D01*
X0049136Y0044180D01*
X0049164Y0043973D01*
X0049187Y0043766D01*
X0049205Y0043558D01*
X0049218Y0043350D01*
X0049225Y0043142D01*
X0049228Y0042933D01*
X0049225Y0042724D01*
X0049218Y0042516D01*
X0049205Y0042308D01*
X0049187Y0042100D01*
X0049164Y0041893D01*
X0049136Y0041686D01*
X0049103Y0041480D01*
X0049065Y0041275D01*
X0049021Y0041071D01*
X0048973Y0040868D01*
X0048920Y0040666D01*
X0048862Y0040466D01*
X0048799Y0040267D01*
X0048731Y0040069D01*
X0048658Y0039874D01*
X0048581Y0039680D01*
X0048499Y0039488D01*
X0048412Y0039299D01*
X0048320Y0039111D01*
X0048224Y0038926D01*
X0048124Y0038743D01*
X0048019Y0038563D01*
X0047909Y0038386D01*
X0047795Y0038211D01*
X0047677Y0038039D01*
X0047555Y0037870D01*
X0047429Y0037704D01*
X0047299Y0037541D01*
X0047164Y0037381D01*
X0047026Y0037225D01*
X0046884Y0037072D01*
X0046738Y0036923D01*
X0046589Y0036777D01*
X0046436Y0036635D01*
X0046280Y0036497D01*
X0046120Y0036362D01*
X0045957Y0036232D01*
X0045791Y0036106D01*
X0045622Y0035984D01*
X0045450Y0035866D01*
X0045275Y0035752D01*
X0045098Y0035642D01*
X0044918Y0035537D01*
X0044735Y0035437D01*
X0044550Y0035341D01*
X0044362Y0035249D01*
X0044173Y0035162D01*
X0043981Y0035080D01*
X0043787Y0035003D01*
X0043592Y0034930D01*
X0043394Y0034862D01*
X0043195Y0034799D01*
X0042995Y0034741D01*
X0042793Y0034688D01*
X0042590Y0034640D01*
X0042386Y0034596D01*
X0042181Y0034558D01*
X0041975Y0034525D01*
X0041768Y0034497D01*
X0041561Y0034474D01*
X0041353Y0034456D01*
X0041145Y0034443D01*
X0040937Y0034436D01*
X0040728Y0034433D01*
X0040519Y0034436D01*
X0040311Y0034443D01*
X0040103Y0034456D01*
X0039895Y0034474D01*
X0039688Y0034497D01*
X0039481Y0034525D01*
X0039275Y0034558D01*
X0039070Y0034596D01*
X0038866Y0034640D01*
X0038663Y0034688D01*
X0038461Y0034741D01*
X0038261Y0034799D01*
X0038062Y0034862D01*
X0037864Y0034930D01*
X0037669Y0035003D01*
X0037475Y0035080D01*
X0037283Y0035162D01*
X0037094Y0035249D01*
X0036906Y0035341D01*
X0036721Y0035437D01*
X0036538Y0035537D01*
X0036358Y0035642D01*
X0036181Y0035752D01*
X0036006Y0035866D01*
X0035834Y0035984D01*
X0035665Y0036106D01*
X0035499Y0036232D01*
X0035336Y0036362D01*
X0035176Y0036497D01*
X0035020Y0036635D01*
X0034867Y0036777D01*
X0034718Y0036923D01*
X0034572Y0037072D01*
X0034430Y0037225D01*
X0034292Y0037381D01*
X0034157Y0037541D01*
X0034027Y0037704D01*
X0033901Y0037870D01*
X0033779Y0038039D01*
X0033661Y0038211D01*
X0033547Y0038386D01*
X0033437Y0038563D01*
X0033332Y0038743D01*
X0033232Y0038926D01*
X0033136Y0039111D01*
X0033044Y0039299D01*
X0032957Y0039488D01*
X0032875Y0039680D01*
X0032798Y0039874D01*
X0032725Y0040069D01*
X0032657Y0040267D01*
X0032594Y0040466D01*
X0032536Y0040666D01*
X0032483Y0040868D01*
X0032435Y0041071D01*
X0032391Y0041275D01*
X0032353Y0041480D01*
X0032320Y0041686D01*
X0032292Y0041893D01*
X0032269Y0042100D01*
X0032251Y0042308D01*
X0032238Y0042516D01*
X0032231Y0042724D01*
X0032228Y0042933D01*
X0031828Y0051792D02*
X0031828Y0226842D01*
X0034205Y0224848D01*
X0034205Y0224848D01*
X0038350Y0223339D01*
X0042760Y0223339D01*
X0043444Y0223588D01*
X0035349Y0215494D01*
X0034168Y0214312D01*
X0033528Y0212769D01*
X0033528Y0202098D01*
X0034168Y0200554D01*
X0056628Y0178093D01*
X0056628Y0177919D01*
X0057405Y0176044D01*
X0058364Y0175085D01*
X0058364Y0166268D01*
X0057791Y0166031D01*
X0057060Y0165300D01*
X0056664Y0164344D01*
X0056664Y0157522D01*
X0057060Y0156567D01*
X0057791Y0155835D01*
X0058328Y0155613D01*
X0058328Y0150285D01*
X0058306Y0150285D01*
X0057076Y0149775D01*
X0056134Y0148834D01*
X0055624Y0147603D01*
X0055624Y0141783D01*
X0056134Y0140552D01*
X0057076Y0139610D01*
X0058306Y0139101D01*
X0065150Y0139101D01*
X0066381Y0139610D01*
X0066728Y0139958D01*
X0067076Y0139610D01*
X0068306Y0139101D01*
X0075150Y0139101D01*
X0076381Y0139610D01*
X0077323Y0140552D01*
X0077629Y0141293D01*
X0077928Y0141293D01*
X0078012Y0141090D01*
X0078744Y0140359D01*
X0079699Y0139963D01*
X0085064Y0139963D01*
X0085728Y0140238D01*
X0086392Y0139963D01*
X0091757Y0139963D01*
X0092713Y0140359D01*
X0093079Y0140725D01*
X0093445Y0140359D01*
X0094400Y0139963D01*
X0099765Y0139963D01*
X0100721Y0140359D01*
X0101452Y0141090D01*
X0101848Y0142046D01*
X0101848Y0147017D01*
X0101452Y0147973D01*
X0100721Y0148704D01*
X0099765Y0149100D01*
X0094400Y0149100D01*
X0093445Y0148704D01*
X0093079Y0148338D01*
X0092713Y0148704D01*
X0092569Y0148764D01*
X0092569Y0150266D01*
X0092751Y0150448D01*
X0093147Y0151404D01*
X0093147Y0155982D01*
X0092808Y0156802D01*
X0093623Y0156802D01*
X0094579Y0157197D01*
X0095310Y0157929D01*
X0095706Y0158884D01*
X0095706Y0163462D01*
X0095310Y0164418D01*
X0095128Y0164600D01*
X0095128Y0175121D01*
X0096052Y0176044D01*
X0096828Y0177919D01*
X0096828Y0178893D01*
X0098168Y0177554D01*
X0099349Y0176372D01*
X0100893Y0175733D01*
X0122564Y0175733D01*
X0124107Y0176372D01*
X0125289Y0177554D01*
X0129468Y0181733D01*
X0147989Y0181733D01*
X0151628Y0178093D01*
X0151628Y0177919D01*
X0152405Y0176044D01*
X0153364Y0175085D01*
X0153364Y0166268D01*
X0152791Y0166031D01*
X0152060Y0165300D01*
X0151664Y0164344D01*
X0151664Y0157522D01*
X0152060Y0156567D01*
X0152791Y0155835D01*
X0153328Y0155613D01*
X0153328Y0150285D01*
X0153306Y0150285D01*
X0152076Y0149775D01*
X0151134Y0148834D01*
X0150624Y0147603D01*
X0150624Y0141783D01*
X0151134Y0140552D01*
X0152076Y0139610D01*
X0153306Y0139101D01*
X0160150Y0139101D01*
X0161381Y0139610D01*
X0161728Y0139958D01*
X0162076Y0139610D01*
X0163306Y0139101D01*
X0170150Y0139101D01*
X0171381Y0139610D01*
X0172323Y0140552D01*
X0172629Y0141293D01*
X0172928Y0141293D01*
X0173012Y0141090D01*
X0173744Y0140359D01*
X0174699Y0139963D01*
X0180064Y0139963D01*
X0180728Y0140238D01*
X0181392Y0139963D01*
X0186757Y0139963D01*
X0187713Y0140359D01*
X0188079Y0140725D01*
X0188445Y0140359D01*
X0189400Y0139963D01*
X0194765Y0139963D01*
X0195721Y0140359D01*
X0196452Y0141090D01*
X0196848Y0142046D01*
X0196848Y0147017D01*
X0196452Y0147973D01*
X0195721Y0148704D01*
X0194765Y0149100D01*
X0189400Y0149100D01*
X0188445Y0148704D01*
X0188079Y0148338D01*
X0187713Y0148704D01*
X0187569Y0148764D01*
X0187569Y0150266D01*
X0187751Y0150448D01*
X0188147Y0151404D01*
X0188147Y0155982D01*
X0187808Y0156802D01*
X0188623Y0156802D01*
X0189579Y0157197D01*
X0190310Y0157929D01*
X0190706Y0158884D01*
X0190706Y0163462D01*
X0190310Y0164418D01*
X0190128Y0164600D01*
X0190128Y0175121D01*
X0191052Y0176044D01*
X0191828Y0177919D01*
X0191828Y0179893D01*
X0195349Y0176372D01*
X0196893Y0175733D01*
X0218564Y0175733D01*
X0220107Y0176372D01*
X0225468Y0181733D01*
X0243989Y0181733D01*
X0246628Y0179093D01*
X0246628Y0177919D01*
X0247405Y0176044D01*
X0248364Y0175085D01*
X0248364Y0166268D01*
X0247791Y0166031D01*
X0247060Y0165300D01*
X0246664Y0164344D01*
X0246664Y0157522D01*
X0247060Y0156567D01*
X0247791Y0155835D01*
X0248328Y0155613D01*
X0248328Y0150285D01*
X0248306Y0150285D01*
X0247076Y0149775D01*
X0246134Y0148834D01*
X0245624Y0147603D01*
X0245624Y0141783D01*
X0246134Y0140552D01*
X0247076Y0139610D01*
X0247528Y0139423D01*
X0247528Y0139098D01*
X0248168Y0137554D01*
X0249349Y0136372D01*
X0311578Y0074143D01*
X0311578Y0073909D01*
X0312362Y0072016D01*
X0313811Y0070567D01*
X0315704Y0069783D01*
X0317753Y0069783D01*
X0319646Y0070567D01*
X0321094Y0072016D01*
X0321878Y0073909D01*
X0321878Y0075957D01*
X0321094Y0077850D01*
X0319646Y0079299D01*
X0317753Y0080083D01*
X0317518Y0080083D01*
X0258500Y0139101D01*
X0265150Y0139101D01*
X0266381Y0139610D01*
X0267323Y0140552D01*
X0267629Y0141293D01*
X0267928Y0141293D01*
X0268012Y0141090D01*
X0268744Y0140359D01*
X0269699Y0139963D01*
X0275064Y0139963D01*
X0275728Y0140238D01*
X0276392Y0139963D01*
X0281757Y0139963D01*
X0282713Y0140359D01*
X0283079Y0140725D01*
X0283445Y0140359D01*
X0284400Y0139963D01*
X0289765Y0139963D01*
X0290721Y0140359D01*
X0291452Y0141090D01*
X0291848Y0142046D01*
X0291848Y0147017D01*
X0291452Y0147973D01*
X0290721Y0148704D01*
X0289765Y0149100D01*
X0284400Y0149100D01*
X0283445Y0148704D01*
X0283079Y0148338D01*
X0282713Y0148704D01*
X0282569Y0148764D01*
X0282569Y0150266D01*
X0282751Y0150448D01*
X0283147Y0151404D01*
X0283147Y0155982D01*
X0282808Y0156802D01*
X0283623Y0156802D01*
X0284579Y0157197D01*
X0285310Y0157929D01*
X0285706Y0158884D01*
X0285706Y0163462D01*
X0285310Y0164418D01*
X0285128Y0164600D01*
X0285128Y0175121D01*
X0286052Y0176044D01*
X0286828Y0177919D01*
X0286828Y0178893D01*
X0289349Y0176372D01*
X0290893Y0175733D01*
X0312564Y0175733D01*
X0314107Y0176372D01*
X0315289Y0177554D01*
X0319468Y0181733D01*
X0337989Y0181733D01*
X0341628Y0178093D01*
X0341628Y0177919D01*
X0342405Y0176044D01*
X0343364Y0175085D01*
X0343364Y0166268D01*
X0342791Y0166031D01*
X0342060Y0165300D01*
X0341664Y0164344D01*
X0341664Y0157522D01*
X0342060Y0156567D01*
X0342791Y0155835D01*
X0343328Y0155613D01*
X0343328Y0150285D01*
X0343306Y0150285D01*
X0342076Y0149775D01*
X0341134Y0148834D01*
X0340624Y0147603D01*
X0340624Y0141783D01*
X0341134Y0140552D01*
X0342076Y0139610D01*
X0343306Y0139101D01*
X0350150Y0139101D01*
X0351381Y0139610D01*
X0351728Y0139958D01*
X0352076Y0139610D01*
X0353306Y0139101D01*
X0360150Y0139101D01*
X0361381Y0139610D01*
X0362323Y0140552D01*
X0362629Y0141293D01*
X0362928Y0141293D01*
X0363012Y0141090D01*
X0363744Y0140359D01*
X0364699Y0139963D01*
X0370064Y0139963D01*
X0370728Y0140238D01*
X0371392Y0139963D01*
X0376757Y0139963D01*
X0377713Y0140359D01*
X0378079Y0140725D01*
X0378445Y0140359D01*
X0379400Y0139963D01*
X0384765Y0139963D01*
X0385721Y0140359D01*
X0386452Y0141090D01*
X0386848Y0142046D01*
X0386848Y0147017D01*
X0386452Y0147973D01*
X0385721Y0148704D01*
X0384765Y0149100D01*
X0379400Y0149100D01*
X0378445Y0148704D01*
X0378079Y0148338D01*
X0377713Y0148704D01*
X0377569Y0148764D01*
X0377569Y0150266D01*
X0377751Y0150448D01*
X0378147Y0151404D01*
X0378147Y0155982D01*
X0377808Y0156802D01*
X0378623Y0156802D01*
X0379579Y0157197D01*
X0380310Y0157929D01*
X0380706Y0158884D01*
X0380706Y0163462D01*
X0380310Y0164418D01*
X0380128Y0164600D01*
X0380128Y0175121D01*
X0381052Y0176044D01*
X0381828Y0177919D01*
X0381828Y0179948D01*
X0381052Y0181822D01*
X0379617Y0183257D01*
X0377743Y0184033D01*
X0375714Y0184033D01*
X0373839Y0183257D01*
X0372405Y0181822D01*
X0371628Y0179948D01*
X0371628Y0177919D01*
X0372405Y0176044D01*
X0373328Y0175121D01*
X0373328Y0164600D01*
X0373146Y0164418D01*
X0373111Y0164333D01*
X0368793Y0164333D01*
X0368793Y0164344D01*
X0368397Y0165300D01*
X0367666Y0166031D01*
X0366710Y0166427D01*
X0360676Y0166427D01*
X0359720Y0166031D01*
X0358989Y0165300D01*
X0358593Y0164344D01*
X0358593Y0157522D01*
X0358989Y0156567D01*
X0359720Y0155835D01*
X0360676Y0155439D01*
X0366710Y0155439D01*
X0367666Y0155835D01*
X0368397Y0156567D01*
X0368793Y0157522D01*
X0368793Y0157533D01*
X0371183Y0157533D01*
X0370587Y0156937D01*
X0370191Y0155982D01*
X0370191Y0151404D01*
X0370587Y0150448D01*
X0370769Y0150266D01*
X0370769Y0148842D01*
X0370728Y0148825D01*
X0370064Y0149100D01*
X0364699Y0149100D01*
X0363744Y0148704D01*
X0363133Y0148093D01*
X0362629Y0148093D01*
X0362323Y0148834D01*
X0361381Y0149775D01*
X0360150Y0150285D01*
X0353306Y0150285D01*
X0352076Y0149775D01*
X0351728Y0149428D01*
X0351381Y0149775D01*
X0350150Y0150285D01*
X0350128Y0150285D01*
X0350128Y0155583D01*
X0350737Y0155835D01*
X0351468Y0156567D01*
X0351864Y0157522D01*
X0351864Y0164344D01*
X0351468Y0165300D01*
X0350737Y0166031D01*
X0350164Y0166268D01*
X0350164Y0175156D01*
X0351052Y0176044D01*
X0351828Y0177919D01*
X0351828Y0179948D01*
X0351052Y0181822D01*
X0349617Y0183257D01*
X0347743Y0184033D01*
X0347568Y0184033D01*
X0343289Y0188312D01*
X0342107Y0189494D01*
X0340564Y0190133D01*
X0316893Y0190133D01*
X0315349Y0189494D01*
X0309989Y0184133D01*
X0293468Y0184133D01*
X0289289Y0188312D01*
X0288107Y0189494D01*
X0286564Y0190133D01*
X0257893Y0190133D01*
X0256349Y0189494D01*
X0252228Y0185373D01*
X0249289Y0188312D01*
X0248107Y0189494D01*
X0246564Y0190133D01*
X0222893Y0190133D01*
X0221349Y0189494D01*
X0215989Y0184133D01*
X0199468Y0184133D01*
X0195289Y0188312D01*
X0195289Y0188312D01*
X0194107Y0189494D01*
X0192564Y0190133D01*
X0162893Y0190133D01*
X0161349Y0189494D01*
X0156728Y0184873D01*
X0152107Y0189494D01*
X0150564Y0190133D01*
X0126893Y0190133D01*
X0125349Y0189494D01*
X0119989Y0184133D01*
X0103468Y0184133D01*
X0098107Y0189494D01*
X0096564Y0190133D01*
X0068893Y0190133D01*
X0067349Y0189494D01*
X0066168Y0188312D01*
X0062228Y0184373D01*
X0041928Y0204673D01*
X0041928Y0210193D01*
X0058289Y0226554D01*
X0058928Y0228098D01*
X0058928Y0243769D01*
X0058397Y0245052D01*
X0058839Y0244609D01*
X0060714Y0243833D01*
X0062743Y0243833D01*
X0064617Y0244609D01*
X0064741Y0244733D01*
X0077808Y0244733D01*
X0079352Y0245372D01*
X0094797Y0260818D01*
X0094902Y0260774D01*
X0097925Y0260774D01*
X0100718Y0261931D01*
X0102856Y0264069D01*
X0104013Y0266862D01*
X0104013Y0269886D01*
X0103711Y0270617D01*
X0105799Y0270617D01*
X0106016Y0270706D01*
X0123168Y0253554D01*
X0124349Y0252372D01*
X0125893Y0251733D01*
X0152368Y0251733D01*
X0151628Y0249948D01*
X0151628Y0247919D01*
X0152405Y0246044D01*
X0153839Y0244609D01*
X0155714Y0243833D01*
X0157743Y0243833D01*
X0159617Y0244609D01*
X0159741Y0244733D01*
X0172808Y0244733D01*
X0174352Y0245372D01*
X0189797Y0260818D01*
X0189902Y0260774D01*
X0192925Y0260774D01*
X0195718Y0261931D01*
X0197856Y0264069D01*
X0199013Y0266862D01*
X0199013Y0269886D01*
X0198711Y0270617D01*
X0200799Y0270617D01*
X0202430Y0271292D01*
X0220168Y0253554D01*
X0221349Y0252372D01*
X0222893Y0251733D01*
X0247368Y0251733D01*
X0246628Y0249948D01*
X0246628Y0247919D01*
X0247405Y0246044D01*
X0248839Y0244609D01*
X0250714Y0243833D01*
X0252743Y0243833D01*
X0254617Y0244609D01*
X0254741Y0244733D01*
X0267808Y0244733D01*
X0269352Y0245372D01*
X0284797Y0260818D01*
X0284902Y0260774D01*
X0287925Y0260774D01*
X0290718Y0261931D01*
X0292856Y0264069D01*
X0294013Y0266862D01*
X0294013Y0269886D01*
X0293711Y0270617D01*
X0295799Y0270617D01*
X0296016Y0270706D01*
X0314349Y0252372D01*
X0315893Y0251733D01*
X0342368Y0251733D01*
X0341628Y0249948D01*
X0341628Y0247919D01*
X0342405Y0246044D01*
X0343839Y0244609D01*
X0345714Y0243833D01*
X0347743Y0243833D01*
X0349617Y0244609D01*
X0349741Y0244733D01*
X0362808Y0244733D01*
X0364352Y0245372D01*
X0379797Y0260818D01*
X0379902Y0260774D01*
X0382925Y0260774D01*
X0385718Y0261931D01*
X0387856Y0264069D01*
X0389013Y0266862D01*
X0389013Y0269886D01*
X0388711Y0270617D01*
X0390799Y0270617D01*
X0393592Y0271774D01*
X0395730Y0273911D01*
X0396887Y0276705D01*
X0396887Y0279728D01*
X0395730Y0282522D01*
X0393592Y0284659D01*
X0390799Y0285817D01*
X0387776Y0285817D01*
X0384982Y0284659D01*
X0382844Y0282522D01*
X0382684Y0282133D01*
X0376893Y0282133D01*
X0375349Y0281494D01*
X0374168Y0280312D01*
X0368457Y0274602D01*
X0369328Y0276705D01*
X0369328Y0279728D01*
X0368171Y0282522D01*
X0366033Y0284659D01*
X0363240Y0285817D01*
X0360217Y0285817D01*
X0357423Y0284659D01*
X0355285Y0282522D01*
X0354128Y0279728D01*
X0354128Y0276705D01*
X0355285Y0273911D01*
X0357423Y0271774D01*
X0360217Y0270617D01*
X0363240Y0270617D01*
X0365343Y0271488D01*
X0353989Y0260133D01*
X0318468Y0260133D01*
X0301887Y0276714D01*
X0301887Y0279728D01*
X0300730Y0282522D01*
X0298592Y0284659D01*
X0295799Y0285817D01*
X0292776Y0285817D01*
X0289982Y0284659D01*
X0287844Y0282522D01*
X0287684Y0282133D01*
X0281893Y0282133D01*
X0280349Y0281494D01*
X0279168Y0280312D01*
X0273457Y0274602D01*
X0274328Y0276705D01*
X0274328Y0279728D01*
X0273171Y0282522D01*
X0271033Y0284659D01*
X0268240Y0285817D01*
X0265217Y0285817D01*
X0262423Y0284659D01*
X0260285Y0282522D01*
X0259128Y0279728D01*
X0259128Y0276705D01*
X0260285Y0273911D01*
X0262423Y0271774D01*
X0265217Y0270617D01*
X0268240Y0270617D01*
X0270343Y0271488D01*
X0258989Y0260133D01*
X0225468Y0260133D01*
X0206887Y0278714D01*
X0206887Y0279728D01*
X0205730Y0282522D01*
X0203592Y0284659D01*
X0200799Y0285817D01*
X0197776Y0285817D01*
X0194982Y0284659D01*
X0192844Y0282522D01*
X0192684Y0282133D01*
X0185893Y0282133D01*
X0184349Y0281494D01*
X0183168Y0280312D01*
X0179164Y0276309D01*
X0179328Y0276705D01*
X0179328Y0279728D01*
X0178171Y0282522D01*
X0176033Y0284659D01*
X0173240Y0285817D01*
X0170217Y0285817D01*
X0167423Y0284659D01*
X0165285Y0282522D01*
X0164128Y0279728D01*
X0164128Y0276705D01*
X0165285Y0273911D01*
X0167423Y0271774D01*
X0170217Y0270617D01*
X0173240Y0270617D01*
X0173636Y0270781D01*
X0162989Y0260133D01*
X0128468Y0260133D01*
X0111887Y0276714D01*
X0111887Y0279728D01*
X0110730Y0282522D01*
X0108592Y0284659D01*
X0105799Y0285817D01*
X0102776Y0285817D01*
X0099982Y0284659D01*
X0097844Y0282522D01*
X0096687Y0279728D01*
X0096687Y0276705D01*
X0096990Y0275974D01*
X0094902Y0275974D01*
X0092108Y0274817D01*
X0089970Y0272679D01*
X0088813Y0269886D01*
X0088813Y0266862D01*
X0088857Y0266757D01*
X0075233Y0253133D01*
X0064741Y0253133D01*
X0064617Y0253257D01*
X0062743Y0254033D01*
X0060714Y0254033D01*
X0058839Y0253257D01*
X0057405Y0251822D01*
X0056628Y0249948D01*
X0056628Y0247919D01*
X0057297Y0246304D01*
X0057107Y0246494D01*
X0050928Y0252673D01*
X0050928Y0270719D01*
X0053474Y0271774D01*
X0055612Y0273911D01*
X0056769Y0276705D01*
X0056769Y0279728D01*
X0056680Y0279945D01*
X0073468Y0296733D01*
X0119713Y0296733D01*
X0136613Y0279833D01*
X0136569Y0279728D01*
X0136569Y0276705D01*
X0137726Y0273911D01*
X0139864Y0271774D01*
X0142658Y0270617D01*
X0145681Y0270617D01*
X0148474Y0271774D01*
X0150612Y0273911D01*
X0151769Y0276705D01*
X0151769Y0279728D01*
X0151680Y0279945D01*
X0168468Y0296733D01*
X0214713Y0296733D01*
X0231613Y0279833D01*
X0231569Y0279728D01*
X0231569Y0276705D01*
X0232726Y0273911D01*
X0234864Y0271774D01*
X0237658Y0270617D01*
X0240681Y0270617D01*
X0243474Y0271774D01*
X0245612Y0273911D01*
X0246769Y0276705D01*
X0246769Y0279728D01*
X0246680Y0279945D01*
X0263468Y0296733D01*
X0309713Y0296733D01*
X0326613Y0279833D01*
X0326569Y0279728D01*
X0326569Y0276705D01*
X0327726Y0273911D01*
X0329864Y0271774D01*
X0332658Y0270617D01*
X0335681Y0270617D01*
X0338474Y0271774D01*
X0340612Y0273911D01*
X0341769Y0276705D01*
X0341769Y0279728D01*
X0340612Y0282522D01*
X0338474Y0284659D01*
X0335681Y0285817D01*
X0332658Y0285817D01*
X0332552Y0285773D01*
X0313832Y0304494D01*
X0312288Y0305133D01*
X0260893Y0305133D01*
X0259349Y0304494D01*
X0258168Y0303312D01*
X0240672Y0285817D01*
X0237658Y0285817D01*
X0237552Y0285773D01*
X0218832Y0304494D01*
X0217288Y0305133D01*
X0165893Y0305133D01*
X0164349Y0304494D01*
X0163168Y0303312D01*
X0145672Y0285817D01*
X0142658Y0285817D01*
X0142552Y0285773D01*
X0123832Y0304494D01*
X0122288Y0305133D01*
X0070893Y0305133D01*
X0069349Y0304494D01*
X0068168Y0303312D01*
X0050672Y0285817D01*
X0047658Y0285817D01*
X0044864Y0284659D01*
X0042726Y0282522D01*
X0041569Y0279728D01*
X0041569Y0276705D01*
X0042528Y0274389D01*
X0042528Y0250098D01*
X0043168Y0248554D01*
X0043716Y0248006D01*
X0042760Y0248354D01*
X0038350Y0248354D01*
X0034205Y0246845D01*
X0031828Y0244851D01*
X0031828Y0325333D01*
X0410328Y0325333D01*
X0410328Y0020933D01*
X0291820Y0020933D01*
X0301768Y0030881D01*
X0302780Y0031894D01*
X0303328Y0033217D01*
X0303328Y0051311D01*
X0303458Y0051441D01*
X0304128Y0053058D01*
X0304128Y0054808D01*
X0303458Y0056425D01*
X0302221Y0057663D01*
X0300604Y0058333D01*
X0298853Y0058333D01*
X0297236Y0057663D01*
X0295998Y0056425D01*
X0295328Y0054808D01*
X0295328Y0053058D01*
X0295998Y0051441D01*
X0296128Y0051311D01*
X0296128Y0035424D01*
X0286237Y0025533D01*
X0149220Y0025533D01*
X0143328Y0031424D01*
X0143328Y0032624D01*
X0144728Y0034024D01*
X0147119Y0031633D01*
X0152338Y0031633D01*
X0156028Y0035324D01*
X0156028Y0040543D01*
X0153638Y0042933D01*
X0154728Y0044024D01*
X0157119Y0041633D01*
X0162338Y0041633D01*
X0164728Y0044024D01*
X0165819Y0042933D01*
X0163428Y0040543D01*
X0163428Y0035324D01*
X0167119Y0031633D01*
X0172338Y0031633D01*
X0174728Y0034024D01*
X0177119Y0031633D01*
X0182338Y0031633D01*
X0186028Y0035324D01*
X0186028Y0040543D01*
X0183638Y0042933D01*
X0184728Y0044024D01*
X0187119Y0041633D01*
X0192338Y0041633D01*
X0194728Y0044024D01*
X0195819Y0042933D01*
X0193428Y0040543D01*
X0193428Y0035324D01*
X0197119Y0031633D01*
X0202338Y0031633D01*
X0204728Y0034024D01*
X0207119Y0031633D01*
X0212338Y0031633D01*
X0214728Y0034024D01*
X0217119Y0031633D01*
X0222338Y0031633D01*
X0226028Y0035324D01*
X0226028Y0040543D01*
X0223638Y0042933D01*
X0224728Y0044024D01*
X0227119Y0041633D01*
X0232338Y0041633D01*
X0234728Y0044024D01*
X0235819Y0042933D01*
X0233428Y0040543D01*
X0233428Y0035324D01*
X0237119Y0031633D01*
X0242338Y0031633D01*
X0244728Y0034024D01*
X0247119Y0031633D01*
X0252338Y0031633D01*
X0256028Y0035324D01*
X0256028Y0040543D01*
X0253638Y0042933D01*
X0256028Y0045324D01*
X0256028Y0050543D01*
X0252911Y0053660D01*
X0254221Y0054203D01*
X0255458Y0055441D01*
X0256128Y0057058D01*
X0256128Y0058808D01*
X0255458Y0060425D01*
X0255328Y0060556D01*
X0255328Y0083376D01*
X0255901Y0083948D01*
X0256297Y0084904D01*
X0256297Y0090269D01*
X0256022Y0090933D01*
X0256297Y0091597D01*
X0256297Y0096962D01*
X0255901Y0097918D01*
X0255170Y0098649D01*
X0255128Y0098666D01*
X0255128Y0101581D01*
X0255150Y0101581D01*
X0256381Y0102091D01*
X0257323Y0103033D01*
X0257832Y0104263D01*
X0257832Y0110083D01*
X0257323Y0111314D01*
X0256381Y0112256D01*
X0255150Y0112765D01*
X0248306Y0112765D01*
X0247076Y0112256D01*
X0246134Y0111314D01*
X0245624Y0110083D01*
X0245624Y0104263D01*
X0246134Y0103033D01*
X0247076Y0102091D01*
X0248306Y0101581D01*
X0248328Y0101581D01*
X0248328Y0098666D01*
X0248287Y0098649D01*
X0247556Y0097918D01*
X0247160Y0096962D01*
X0247160Y0091597D01*
X0247435Y0090933D01*
X0247160Y0090269D01*
X0247160Y0084904D01*
X0247556Y0083948D01*
X0248128Y0083376D01*
X0248128Y0060556D01*
X0247998Y0060425D01*
X0247328Y0058808D01*
X0247328Y0057058D01*
X0247998Y0055441D01*
X0249206Y0054233D01*
X0247119Y0054233D01*
X0244728Y0051843D01*
X0242909Y0053662D01*
X0242780Y0053972D01*
X0228780Y0067972D01*
X0227768Y0068985D01*
X0226444Y0069533D01*
X0222220Y0069533D01*
X0190780Y0100972D01*
X0189768Y0101985D01*
X0188444Y0102533D01*
X0176351Y0102533D01*
X0176221Y0102663D01*
X0174604Y0103333D01*
X0172853Y0103333D01*
X0171236Y0102663D01*
X0169998Y0101425D01*
X0169328Y0099808D01*
X0169328Y0098058D01*
X0169998Y0096441D01*
X0171236Y0095203D01*
X0172853Y0094533D01*
X0174604Y0094533D01*
X0176221Y0095203D01*
X0176351Y0095333D01*
X0176960Y0095333D01*
X0176328Y0093808D01*
X0176328Y0092058D01*
X0176689Y0091187D01*
X0161127Y0091187D01*
X0161297Y0091597D01*
X0161297Y0096962D01*
X0160901Y0097918D01*
X0160170Y0098649D01*
X0160128Y0098666D01*
X0160128Y0101581D01*
X0160150Y0101581D01*
X0161381Y0102091D01*
X0162323Y0103033D01*
X0162832Y0104263D01*
X0162832Y0110083D01*
X0162323Y0111314D01*
X0161381Y0112256D01*
X0160150Y0112765D01*
X0153306Y0112765D01*
X0152076Y0112256D01*
X0151134Y0111314D01*
X0150624Y0110083D01*
X0150624Y0104263D01*
X0151134Y0103033D01*
X0152076Y0102091D01*
X0153306Y0101581D01*
X0153328Y0101581D01*
X0153328Y0098666D01*
X0153287Y0098649D01*
X0152556Y0097918D01*
X0152160Y0096962D01*
X0152160Y0091597D01*
X0152435Y0090933D01*
X0152160Y0090269D01*
X0152160Y0084904D01*
X0152556Y0083948D01*
X0153287Y0083217D01*
X0154243Y0082821D01*
X0159214Y0082821D01*
X0160170Y0083217D01*
X0160901Y0083948D01*
X0160917Y0083987D01*
X0175402Y0083987D01*
X0175328Y0083808D01*
X0175328Y0082058D01*
X0175998Y0080441D01*
X0176128Y0080311D01*
X0176128Y0079217D01*
X0176676Y0077894D01*
X0196128Y0058442D01*
X0196128Y0053243D01*
X0194728Y0051843D01*
X0192338Y0054233D01*
X0187119Y0054233D01*
X0184728Y0051843D01*
X0182338Y0054233D01*
X0177119Y0054233D01*
X0174728Y0051843D01*
X0172338Y0054233D01*
X0167119Y0054233D01*
X0164728Y0051843D01*
X0162338Y0054233D01*
X0157119Y0054233D01*
X0154728Y0051843D01*
X0152338Y0054233D01*
X0147119Y0054233D01*
X0144728Y0051843D01*
X0142338Y0054233D01*
X0137119Y0054233D01*
X0133428Y0050543D01*
X0133428Y0045324D01*
X0135819Y0042933D01*
X0134728Y0041843D01*
X0132338Y0044233D01*
X0127119Y0044233D01*
X0124728Y0041843D01*
X0123638Y0042933D01*
X0126028Y0045324D01*
X0126028Y0050543D01*
X0122338Y0054233D01*
X0120237Y0054233D01*
X0113611Y0060859D01*
X0112654Y0061815D01*
X0112314Y0061956D01*
X0113028Y0063680D01*
X0113028Y0066186D01*
X0112069Y0068502D01*
X0110297Y0070274D01*
X0107981Y0071233D01*
X0105475Y0071233D01*
X0105307Y0071163D01*
X0098528Y0077941D01*
X0098528Y0085611D01*
X0098858Y0085941D01*
X0099528Y0087558D01*
X0099528Y0089308D01*
X0098858Y0090925D01*
X0097621Y0092163D01*
X0096004Y0092833D01*
X0094253Y0092833D01*
X0092642Y0092166D01*
X0092928Y0092858D01*
X0092928Y0094608D01*
X0092258Y0096225D01*
X0091021Y0097463D01*
X0089404Y0098133D01*
X0087653Y0098133D01*
X0086036Y0097463D01*
X0085906Y0097333D01*
X0069389Y0097333D01*
X0067828Y0098894D01*
X0067164Y0099169D01*
X0066889Y0099833D01*
X0065141Y0101581D01*
X0065150Y0101581D01*
X0066381Y0102091D01*
X0067323Y0103033D01*
X0067832Y0104263D01*
X0067832Y0110083D01*
X0067323Y0111314D01*
X0066381Y0112256D01*
X0065150Y0112765D01*
X0058306Y0112765D01*
X0057076Y0112256D01*
X0056134Y0111314D01*
X0055624Y0110083D01*
X0055624Y0104263D01*
X0056134Y0103033D01*
X0057076Y0102091D01*
X0058164Y0101640D01*
X0056635Y0100111D01*
X0056239Y0099156D01*
X0056239Y0098121D01*
X0056635Y0097166D01*
X0060428Y0093372D01*
X0061092Y0093097D01*
X0061367Y0092433D01*
X0065161Y0088640D01*
X0066117Y0088244D01*
X0067151Y0088244D01*
X0068107Y0088640D01*
X0069600Y0090133D01*
X0085906Y0090133D01*
X0086036Y0090003D01*
X0087653Y0089333D01*
X0089404Y0089333D01*
X0091015Y0090001D01*
X0090728Y0089308D01*
X0090728Y0087558D01*
X0091398Y0085941D01*
X0091728Y0085611D01*
X0091728Y0082281D01*
X0091604Y0082333D01*
X0089853Y0082333D01*
X0088236Y0081663D01*
X0087906Y0081333D01*
X0062052Y0081333D01*
X0060802Y0080815D01*
X0059846Y0079859D01*
X0049846Y0069859D01*
X0049328Y0068609D01*
X0049328Y0052044D01*
X0047078Y0053932D01*
X0042934Y0055440D01*
X0038523Y0055440D01*
X0034378Y0053932D01*
X0031828Y0051792D01*
X0031828Y0054315D02*
X0035432Y0054315D01*
X0034378Y0053932D02*
X0034378Y0053932D01*
X0031828Y0057514D02*
X0049328Y0057514D01*
X0049328Y0060712D02*
X0031828Y0060712D01*
X0031828Y0063911D02*
X0049328Y0063911D01*
X0049328Y0067109D02*
X0031828Y0067109D01*
X0031828Y0070308D02*
X0050295Y0070308D01*
X0053493Y0073506D02*
X0031828Y0073506D01*
X0031828Y0076705D02*
X0056692Y0076705D01*
X0059890Y0079903D02*
X0031828Y0079903D01*
X0031828Y0083102D02*
X0091728Y0083102D01*
X0091249Y0086300D02*
X0031828Y0086300D01*
X0031828Y0089499D02*
X0064302Y0089499D01*
X0061258Y0092697D02*
X0031828Y0092697D01*
X0031828Y0095896D02*
X0057905Y0095896D01*
X0056239Y0099094D02*
X0031828Y0099094D01*
X0031828Y0102293D02*
X0056874Y0102293D01*
X0055624Y0105491D02*
X0031828Y0105491D01*
X0031828Y0108690D02*
X0055624Y0108690D01*
X0056709Y0111888D02*
X0031828Y0111888D01*
X0031828Y0115087D02*
X0187858Y0115087D01*
X0187998Y0115425D02*
X0187328Y0113808D01*
X0187328Y0112058D01*
X0187998Y0110441D01*
X0189236Y0109203D01*
X0190853Y0108533D01*
X0192604Y0108533D01*
X0194221Y0109203D01*
X0194351Y0109333D01*
X0202237Y0109333D01*
X0210128Y0101442D01*
X0210128Y0087556D01*
X0209998Y0087425D01*
X0209328Y0085808D01*
X0209328Y0084058D01*
X0209998Y0082441D01*
X0211236Y0081203D01*
X0212853Y0080533D01*
X0214604Y0080533D01*
X0216221Y0081203D01*
X0217458Y0082441D01*
X0218128Y0084058D01*
X0218128Y0085808D01*
X0217458Y0087425D01*
X0217328Y0087556D01*
X0217328Y0103649D01*
X0216780Y0104972D01*
X0215768Y0105985D01*
X0205768Y0115985D01*
X0204444Y0116533D01*
X0203012Y0116533D01*
X0194351Y0116533D01*
X0194221Y0116663D01*
X0192604Y0117333D01*
X0190853Y0117333D01*
X0189236Y0116663D01*
X0187998Y0115425D01*
X0187399Y0111888D02*
X0161748Y0111888D01*
X0162832Y0108690D02*
X0190474Y0108690D01*
X0192982Y0108690D02*
X0202880Y0108690D01*
X0206079Y0105491D02*
X0162832Y0105491D01*
X0161583Y0102293D02*
X0170866Y0102293D01*
X0169328Y0099094D02*
X0160128Y0099094D01*
X0161297Y0095896D02*
X0170543Y0095896D01*
X0176328Y0092697D02*
X0161297Y0092697D01*
X0152160Y0092697D02*
X0096331Y0092697D01*
X0093925Y0092697D02*
X0092862Y0092697D01*
X0092395Y0095896D02*
X0152160Y0095896D01*
X0153328Y0099094D02*
X0067344Y0099094D01*
X0066583Y0102293D02*
X0151874Y0102293D01*
X0150624Y0105491D02*
X0067832Y0105491D01*
X0067832Y0108690D02*
X0150624Y0108690D01*
X0151709Y0111888D02*
X0066748Y0111888D01*
X0068966Y0089499D02*
X0087253Y0089499D01*
X0089804Y0089499D02*
X0090807Y0089499D01*
X0099449Y0089499D02*
X0152160Y0089499D01*
X0152160Y0086300D02*
X0099007Y0086300D01*
X0098528Y0083102D02*
X0153565Y0083102D01*
X0159891Y0083102D02*
X0175328Y0083102D01*
X0176128Y0079903D02*
X0098528Y0079903D01*
X0099765Y0076705D02*
X0177865Y0076705D01*
X0181064Y0073506D02*
X0102963Y0073506D01*
X0110215Y0070308D02*
X0184262Y0070308D01*
X0187461Y0067109D02*
X0112646Y0067109D01*
X0113028Y0063911D02*
X0190659Y0063911D01*
X0193858Y0060712D02*
X0113757Y0060712D01*
X0116956Y0057514D02*
X0196128Y0057514D01*
X0196128Y0054315D02*
X0120155Y0054315D01*
X0125454Y0051117D02*
X0134002Y0051117D01*
X0133428Y0047918D02*
X0126028Y0047918D01*
X0125424Y0044720D02*
X0134032Y0044720D01*
X0134728Y0034024D02*
X0136128Y0032624D01*
X0136128Y0029217D01*
X0136676Y0027894D01*
X0143637Y0020933D01*
X0113537Y0020933D01*
X0122611Y0030007D01*
X0123128Y0031257D01*
X0123128Y0032424D01*
X0124728Y0034024D01*
X0127119Y0031633D01*
X0132338Y0031633D01*
X0134728Y0034024D01*
X0136128Y0031926D02*
X0132630Y0031926D01*
X0136331Y0028727D02*
X0121331Y0028727D01*
X0123128Y0031926D02*
X0126826Y0031926D01*
X0118132Y0025529D02*
X0139042Y0025529D01*
X0142240Y0022330D02*
X0114934Y0022330D01*
X0111714Y0028727D02*
X0060743Y0028727D01*
X0062338Y0031633D02*
X0057837Y0031633D01*
X0064137Y0025333D01*
X0108320Y0025333D01*
X0115869Y0032882D01*
X0113428Y0035324D01*
X0113428Y0040543D01*
X0115819Y0042933D01*
X0114728Y0044024D01*
X0112338Y0041633D01*
X0107119Y0041633D01*
X0104728Y0044024D01*
X0103638Y0042933D01*
X0106028Y0040543D01*
X0106028Y0035324D01*
X0102338Y0031633D01*
X0097119Y0031633D01*
X0093428Y0035324D01*
X0093428Y0040543D01*
X0095819Y0042933D01*
X0094728Y0044024D01*
X0092338Y0041633D01*
X0087119Y0041633D01*
X0084728Y0044024D01*
X0083638Y0042933D01*
X0086028Y0040543D01*
X0086028Y0035324D01*
X0082338Y0031633D01*
X0077119Y0031633D01*
X0074728Y0034024D01*
X0072338Y0031633D01*
X0067119Y0031633D01*
X0064728Y0034024D01*
X0062338Y0031633D01*
X0062630Y0031926D02*
X0066826Y0031926D01*
X0072630Y0031926D02*
X0076826Y0031926D01*
X0082630Y0031926D02*
X0096826Y0031926D01*
X0093628Y0035124D02*
X0085829Y0035124D01*
X0086028Y0038323D02*
X0093428Y0038323D01*
X0094407Y0041521D02*
X0085050Y0041521D01*
X0084728Y0051843D02*
X0082338Y0054233D01*
X0077119Y0054233D01*
X0074728Y0051843D01*
X0072338Y0054233D01*
X0067119Y0054233D01*
X0063428Y0050543D01*
X0063428Y0045324D01*
X0065819Y0042933D01*
X0064728Y0041843D01*
X0062338Y0044233D01*
X0057119Y0044233D01*
X0056128Y0043243D01*
X0056128Y0066525D01*
X0064137Y0074533D01*
X0087906Y0074533D01*
X0088236Y0074203D01*
X0088808Y0073966D01*
X0088328Y0072808D01*
X0088328Y0071058D01*
X0088998Y0069441D01*
X0089432Y0069007D01*
X0089846Y0068007D01*
X0101802Y0056051D01*
X0103052Y0055533D01*
X0109320Y0055533D01*
X0110620Y0054233D01*
X0107119Y0054233D01*
X0104728Y0051843D01*
X0102338Y0054233D01*
X0097119Y0054233D01*
X0094728Y0051843D01*
X0092338Y0054233D01*
X0087119Y0054233D01*
X0084728Y0051843D01*
X0093942Y0063911D02*
X0056128Y0063911D01*
X0056128Y0060712D02*
X0097141Y0060712D01*
X0100339Y0057514D02*
X0056128Y0057514D01*
X0056128Y0054315D02*
X0110538Y0054315D01*
X0114407Y0041521D02*
X0105050Y0041521D01*
X0106028Y0038323D02*
X0113428Y0038323D01*
X0113628Y0035124D02*
X0105829Y0035124D01*
X0102630Y0031926D02*
X0114913Y0031926D01*
X0108516Y0025529D02*
X0063941Y0025529D01*
X0064032Y0044720D02*
X0056128Y0044720D01*
X0056128Y0047918D02*
X0063428Y0047918D01*
X0064002Y0051117D02*
X0056128Y0051117D01*
X0049328Y0054315D02*
X0046024Y0054315D01*
X0047078Y0053932D02*
X0047078Y0053932D01*
X0056713Y0067109D02*
X0090744Y0067109D01*
X0088639Y0070308D02*
X0059911Y0070308D01*
X0063110Y0073506D02*
X0088617Y0073506D01*
X0143328Y0031926D02*
X0146826Y0031926D01*
X0146025Y0028727D02*
X0289431Y0028727D01*
X0292630Y0031926D02*
X0275054Y0031926D01*
X0275078Y0031935D02*
X0275078Y0031935D01*
X0278457Y0034770D01*
X0280662Y0038589D01*
X0281428Y0042933D01*
X0280662Y0047277D01*
X0278457Y0051096D01*
X0278457Y0051096D01*
X0275078Y0053932D01*
X0270934Y0055440D01*
X0266523Y0055440D01*
X0262378Y0053932D01*
X0259000Y0051096D01*
X0256794Y0047277D01*
X0256028Y0042933D01*
X0256794Y0038589D01*
X0259000Y0034770D01*
X0262378Y0031935D01*
X0262378Y0031935D01*
X0266523Y0030426D01*
X0270934Y0030426D01*
X0275078Y0031935D01*
X0278457Y0034770D02*
X0278457Y0034770D01*
X0278662Y0035124D02*
X0295828Y0035124D01*
X0296128Y0038323D02*
X0280508Y0038323D01*
X0280662Y0038589D02*
X0280662Y0038589D01*
X0281179Y0041521D02*
X0296128Y0041521D01*
X0296128Y0044720D02*
X0281113Y0044720D01*
X0280662Y0047277D02*
X0280662Y0047277D01*
X0280292Y0047918D02*
X0296128Y0047918D01*
X0296128Y0051117D02*
X0278433Y0051117D01*
X0278457Y0051096D02*
X0278457Y0051096D01*
X0274024Y0054315D02*
X0295328Y0054315D01*
X0297086Y0057514D02*
X0256128Y0057514D01*
X0255328Y0060712D02*
X0304772Y0060712D01*
X0304854Y0060631D02*
X0306719Y0059858D01*
X0308738Y0059858D01*
X0310603Y0060631D01*
X0310705Y0060733D01*
X0323989Y0060733D01*
X0337528Y0047193D01*
X0337528Y0038250D01*
X0337256Y0038137D01*
X0336524Y0037406D01*
X0336128Y0036450D01*
X0336128Y0029416D01*
X0336524Y0028460D01*
X0337256Y0027729D01*
X0338211Y0027333D01*
X0345246Y0027333D01*
X0346201Y0027729D01*
X0346728Y0028256D01*
X0347256Y0027729D01*
X0348211Y0027333D01*
X0355246Y0027333D01*
X0356201Y0027729D01*
X0356933Y0028460D01*
X0357328Y0029416D01*
X0357328Y0036450D01*
X0356933Y0037406D01*
X0356201Y0038137D01*
X0355246Y0038533D01*
X0348211Y0038533D01*
X0347256Y0038137D01*
X0346728Y0037610D01*
X0346201Y0038137D01*
X0345928Y0038250D01*
X0345928Y0049769D01*
X0345289Y0051312D01*
X0328107Y0068494D01*
X0326564Y0069133D01*
X0310705Y0069133D01*
X0310603Y0069235D01*
X0308738Y0070008D01*
X0306719Y0070008D01*
X0304854Y0069235D01*
X0303426Y0067808D01*
X0302653Y0065943D01*
X0302653Y0063924D01*
X0303426Y0062058D01*
X0304854Y0060631D01*
X0302659Y0063911D02*
X0255328Y0063911D01*
X0255328Y0067109D02*
X0303137Y0067109D01*
X0307728Y0064933D02*
X0325728Y0064933D01*
X0341728Y0048933D01*
X0341728Y0032933D01*
X0336128Y0031926D02*
X0328328Y0031926D01*
X0328328Y0029416D02*
X0328328Y0036450D01*
X0327933Y0037406D01*
X0327201Y0038137D01*
X0326246Y0038533D01*
X0319211Y0038533D01*
X0318256Y0038137D01*
X0317728Y0037610D01*
X0317201Y0038137D01*
X0316246Y0038533D01*
X0309211Y0038533D01*
X0308256Y0038137D01*
X0307524Y0037406D01*
X0307128Y0036450D01*
X0307128Y0029416D01*
X0307524Y0028460D01*
X0308256Y0027729D01*
X0309211Y0027333D01*
X0316246Y0027333D01*
X0317201Y0027729D01*
X0317728Y0028256D01*
X0318256Y0027729D01*
X0319211Y0027333D01*
X0326246Y0027333D01*
X0327201Y0027729D01*
X0327933Y0028460D01*
X0328328Y0029416D01*
X0328043Y0028727D02*
X0336414Y0028727D01*
X0336128Y0035124D02*
X0328328Y0035124D01*
X0326753Y0038323D02*
X0337528Y0038323D01*
X0337528Y0041521D02*
X0303328Y0041521D01*
X0303328Y0038323D02*
X0308703Y0038323D01*
X0307128Y0035124D02*
X0303328Y0035124D01*
X0302793Y0031926D02*
X0307128Y0031926D01*
X0307414Y0028727D02*
X0299614Y0028727D01*
X0296415Y0025529D02*
X0410328Y0025529D01*
X0410328Y0028727D02*
X0385843Y0028727D01*
X0385733Y0028460D02*
X0386128Y0029416D01*
X0386128Y0036450D01*
X0385733Y0037406D01*
X0385001Y0038137D01*
X0384046Y0038533D01*
X0377011Y0038533D01*
X0376056Y0038137D01*
X0375528Y0037610D01*
X0375001Y0038137D01*
X0374046Y0038533D01*
X0367011Y0038533D01*
X0366056Y0038137D01*
X0365324Y0037406D01*
X0364928Y0036450D01*
X0364928Y0029416D01*
X0365324Y0028460D01*
X0366056Y0027729D01*
X0367011Y0027333D01*
X0374046Y0027333D01*
X0375001Y0027729D01*
X0375528Y0028256D01*
X0376056Y0027729D01*
X0377011Y0027333D01*
X0384046Y0027333D01*
X0385001Y0027729D01*
X0385733Y0028460D01*
X0386128Y0031926D02*
X0410328Y0031926D01*
X0410328Y0035124D02*
X0386128Y0035124D01*
X0384553Y0038323D02*
X0410328Y0038323D01*
X0410328Y0041521D02*
X0345928Y0041521D01*
X0345928Y0038323D02*
X0347703Y0038323D01*
X0355753Y0038323D02*
X0366503Y0038323D01*
X0364928Y0035124D02*
X0357328Y0035124D01*
X0357328Y0031926D02*
X0364928Y0031926D01*
X0365214Y0028727D02*
X0357043Y0028727D01*
X0374553Y0038323D02*
X0376503Y0038323D01*
X0345928Y0044720D02*
X0410328Y0044720D01*
X0410328Y0047918D02*
X0345928Y0047918D01*
X0345370Y0051117D02*
X0410328Y0051117D01*
X0410328Y0054315D02*
X0342286Y0054315D01*
X0339087Y0057514D02*
X0410328Y0057514D01*
X0410328Y0060712D02*
X0335889Y0060712D01*
X0332690Y0063911D02*
X0410328Y0063911D01*
X0410328Y0067109D02*
X0329492Y0067109D01*
X0324009Y0060712D02*
X0310685Y0060712D01*
X0302370Y0057514D02*
X0327208Y0057514D01*
X0330407Y0054315D02*
X0304128Y0054315D01*
X0303328Y0051117D02*
X0333605Y0051117D01*
X0336804Y0047918D02*
X0303328Y0047918D01*
X0303328Y0044720D02*
X0337528Y0044720D01*
X0318703Y0038323D02*
X0316753Y0038323D01*
X0293217Y0022330D02*
X0410328Y0022330D01*
X0410328Y0070308D02*
X0319019Y0070308D01*
X0321712Y0073506D02*
X0410328Y0073506D01*
X0410328Y0076705D02*
X0321569Y0076705D01*
X0318187Y0079903D02*
X0410328Y0079903D01*
X0410328Y0083102D02*
X0342680Y0083102D01*
X0342540Y0083044D02*
X0343496Y0083440D01*
X0347289Y0087233D01*
X0347564Y0087897D01*
X0348228Y0088172D01*
X0352022Y0091966D01*
X0352418Y0092921D01*
X0352418Y0093956D01*
X0352022Y0094911D01*
X0350495Y0096439D01*
X0350495Y0101724D01*
X0351381Y0102091D01*
X0352323Y0103033D01*
X0352832Y0104263D01*
X0352832Y0110083D01*
X0352323Y0111314D01*
X0351381Y0112256D01*
X0350150Y0112765D01*
X0343306Y0112765D01*
X0342076Y0112256D01*
X0341134Y0111314D01*
X0340624Y0110083D01*
X0340624Y0104263D01*
X0341134Y0103033D01*
X0342076Y0102091D01*
X0343295Y0101586D01*
X0343295Y0096160D01*
X0341767Y0094633D01*
X0341492Y0093969D01*
X0340828Y0093694D01*
X0339268Y0092133D01*
X0332751Y0092133D01*
X0332621Y0092263D01*
X0331004Y0092933D01*
X0329253Y0092933D01*
X0327636Y0092263D01*
X0326398Y0091025D01*
X0325728Y0089408D01*
X0325728Y0087658D01*
X0326398Y0086041D01*
X0327636Y0084803D01*
X0329253Y0084133D01*
X0331004Y0084133D01*
X0332621Y0084803D01*
X0332751Y0084933D01*
X0339057Y0084933D01*
X0340550Y0083440D01*
X0341506Y0083044D01*
X0342540Y0083044D01*
X0341365Y0083102D02*
X0314499Y0083102D01*
X0311301Y0086300D02*
X0326291Y0086300D01*
X0325766Y0089499D02*
X0308102Y0089499D01*
X0304904Y0092697D02*
X0328684Y0092697D01*
X0331573Y0092697D02*
X0339832Y0092697D01*
X0343030Y0095896D02*
X0301705Y0095896D01*
X0298507Y0099094D02*
X0343295Y0099094D01*
X0341874Y0102293D02*
X0295308Y0102293D01*
X0292110Y0105491D02*
X0340624Y0105491D01*
X0340624Y0108690D02*
X0288911Y0108690D01*
X0285713Y0111888D02*
X0341709Y0111888D01*
X0351748Y0111888D02*
X0410328Y0111888D01*
X0410328Y0108690D02*
X0352832Y0108690D01*
X0352832Y0105491D02*
X0410328Y0105491D01*
X0410328Y0102293D02*
X0351583Y0102293D01*
X0350495Y0099094D02*
X0410328Y0099094D01*
X0410328Y0095896D02*
X0351037Y0095896D01*
X0352325Y0092697D02*
X0410328Y0092697D01*
X0410328Y0089499D02*
X0349555Y0089499D01*
X0346356Y0086300D02*
X0410328Y0086300D01*
X0410328Y0115087D02*
X0282514Y0115087D01*
X0279316Y0118285D02*
X0410328Y0118285D01*
X0410328Y0121484D02*
X0276117Y0121484D01*
X0272919Y0124682D02*
X0410328Y0124682D01*
X0410328Y0127881D02*
X0269720Y0127881D01*
X0266522Y0131079D02*
X0410328Y0131079D01*
X0410328Y0134278D02*
X0263323Y0134278D01*
X0260125Y0137477D02*
X0410328Y0137477D01*
X0410328Y0140675D02*
X0386037Y0140675D01*
X0386848Y0143874D02*
X0410328Y0143874D01*
X0410328Y0147072D02*
X0386825Y0147072D01*
X0377573Y0150271D02*
X0410328Y0150271D01*
X0410328Y0153469D02*
X0378147Y0153469D01*
X0377863Y0156668D02*
X0410328Y0156668D01*
X0410328Y0159866D02*
X0380706Y0159866D01*
X0380706Y0163065D02*
X0410328Y0163065D01*
X0410328Y0166263D02*
X0380128Y0166263D01*
X0380128Y0169462D02*
X0410328Y0169462D01*
X0410328Y0172660D02*
X0380128Y0172660D01*
X0380866Y0175859D02*
X0410328Y0175859D01*
X0410328Y0179057D02*
X0381828Y0179057D01*
X0380618Y0182256D02*
X0410328Y0182256D01*
X0410328Y0185454D02*
X0400374Y0185454D01*
X0401323Y0185848D02*
X0403605Y0188129D01*
X0404840Y0191111D01*
X0404840Y0194338D01*
X0403605Y0197319D01*
X0401323Y0199601D01*
X0400928Y0199765D01*
X0400928Y0200093D01*
X0401323Y0200257D01*
X0403605Y0202539D01*
X0404840Y0205520D01*
X0404840Y0208747D01*
X0403605Y0211729D01*
X0401323Y0214011D01*
X0398342Y0215246D01*
X0395115Y0215246D01*
X0392133Y0214011D01*
X0389851Y0211729D01*
X0389688Y0211334D01*
X0360267Y0211334D01*
X0351828Y0219773D01*
X0351828Y0219948D01*
X0351052Y0221822D01*
X0349617Y0223257D01*
X0347743Y0224033D01*
X0345714Y0224033D01*
X0343839Y0223257D01*
X0342405Y0221822D01*
X0341628Y0219948D01*
X0341628Y0217919D01*
X0342405Y0216044D01*
X0343839Y0214609D01*
X0345714Y0213833D01*
X0345889Y0213833D01*
X0356148Y0203573D01*
X0357692Y0202934D01*
X0389688Y0202934D01*
X0389851Y0202539D01*
X0392133Y0200257D01*
X0392528Y0200093D01*
X0392528Y0199765D01*
X0392133Y0199601D01*
X0389851Y0197319D01*
X0388617Y0194338D01*
X0388617Y0191111D01*
X0389851Y0188129D01*
X0392133Y0185848D01*
X0395115Y0184613D01*
X0398342Y0184613D01*
X0401323Y0185848D01*
X0403822Y0188653D02*
X0410328Y0188653D01*
X0410328Y0191851D02*
X0404840Y0191851D01*
X0404545Y0195050D02*
X0410328Y0195050D01*
X0410328Y0198248D02*
X0402676Y0198248D01*
X0402513Y0201447D02*
X0410328Y0201447D01*
X0410328Y0204645D02*
X0404478Y0204645D01*
X0404840Y0207844D02*
X0410328Y0207844D01*
X0410328Y0211042D02*
X0403890Y0211042D01*
X0400768Y0214241D02*
X0410328Y0214241D01*
X0410328Y0217439D02*
X0400319Y0217439D01*
X0401323Y0217855D02*
X0403605Y0220137D01*
X0404840Y0223119D01*
X0404840Y0226346D01*
X0403605Y0229327D01*
X0401323Y0231609D01*
X0400928Y0231773D01*
X0400928Y0232101D01*
X0401323Y0232265D01*
X0403605Y0234547D01*
X0404840Y0237528D01*
X0404840Y0240755D01*
X0403605Y0243737D01*
X0401323Y0246019D01*
X0398342Y0247254D01*
X0395115Y0247254D01*
X0392133Y0246019D01*
X0389851Y0243737D01*
X0389688Y0243342D01*
X0308769Y0243342D01*
X0308605Y0243737D01*
X0306323Y0246019D01*
X0303342Y0247254D01*
X0300115Y0247254D01*
X0297133Y0246019D01*
X0294851Y0243737D01*
X0294688Y0243342D01*
X0213769Y0243342D01*
X0213605Y0243737D01*
X0211323Y0246019D01*
X0208342Y0247254D01*
X0205115Y0247254D01*
X0202133Y0246019D01*
X0199851Y0243737D01*
X0199688Y0243342D01*
X0118769Y0243342D01*
X0118605Y0243737D01*
X0116323Y0246019D01*
X0113342Y0247254D01*
X0110115Y0247254D01*
X0107133Y0246019D01*
X0104851Y0243737D01*
X0103617Y0240755D01*
X0103617Y0237528D01*
X0104851Y0234547D01*
X0107133Y0232265D01*
X0107528Y0232101D01*
X0107528Y0231773D01*
X0107133Y0231609D01*
X0104851Y0229327D01*
X0103617Y0226346D01*
X0103617Y0223119D01*
X0104851Y0220137D01*
X0107133Y0217855D01*
X0110115Y0216620D01*
X0113342Y0216620D01*
X0116323Y0217855D01*
X0118605Y0220137D01*
X0119840Y0223119D01*
X0119840Y0226346D01*
X0118605Y0229327D01*
X0116323Y0231609D01*
X0115928Y0231773D01*
X0115928Y0232101D01*
X0116323Y0232265D01*
X0118605Y0234547D01*
X0118769Y0234942D01*
X0199688Y0234942D01*
X0199851Y0234547D01*
X0202133Y0232265D01*
X0202528Y0232101D01*
X0202528Y0231773D01*
X0202133Y0231609D01*
X0199851Y0229327D01*
X0198617Y0226346D01*
X0198617Y0223119D01*
X0199851Y0220137D01*
X0202133Y0217855D01*
X0205115Y0216620D01*
X0208342Y0216620D01*
X0211323Y0217855D01*
X0213605Y0220137D01*
X0214840Y0223119D01*
X0214840Y0226346D01*
X0213605Y0229327D01*
X0211323Y0231609D01*
X0210928Y0231773D01*
X0210928Y0232101D01*
X0211323Y0232265D01*
X0213605Y0234547D01*
X0213769Y0234942D01*
X0294688Y0234942D01*
X0294851Y0234547D01*
X0297133Y0232265D01*
X0297528Y0232101D01*
X0297528Y0231773D01*
X0297133Y0231609D01*
X0294851Y0229327D01*
X0293617Y0226346D01*
X0293617Y0223119D01*
X0294851Y0220137D01*
X0297133Y0217855D01*
X0300115Y0216620D01*
X0303342Y0216620D01*
X0306323Y0217855D01*
X0308605Y0220137D01*
X0309840Y0223119D01*
X0309840Y0226346D01*
X0308605Y0229327D01*
X0306323Y0231609D01*
X0305928Y0231773D01*
X0305928Y0232101D01*
X0306323Y0232265D01*
X0308605Y0234547D01*
X0308769Y0234942D01*
X0389688Y0234942D01*
X0389851Y0234547D01*
X0392133Y0232265D01*
X0392528Y0232101D01*
X0392528Y0231773D01*
X0392133Y0231609D01*
X0389851Y0229327D01*
X0388617Y0226346D01*
X0388617Y0223119D01*
X0389851Y0220137D01*
X0392133Y0217855D01*
X0395115Y0216620D01*
X0398342Y0216620D01*
X0401323Y0217855D01*
X0403812Y0220638D02*
X0410328Y0220638D01*
X0410328Y0223836D02*
X0404840Y0223836D01*
X0404555Y0227035D02*
X0410328Y0227035D01*
X0410328Y0230233D02*
X0402699Y0230233D01*
X0402490Y0233432D02*
X0410328Y0233432D01*
X0410328Y0236630D02*
X0404468Y0236630D01*
X0404840Y0239829D02*
X0410328Y0239829D01*
X0410328Y0243027D02*
X0403899Y0243027D01*
X0400823Y0246226D02*
X0410328Y0246226D01*
X0410328Y0249424D02*
X0368403Y0249424D01*
X0365205Y0246226D02*
X0392634Y0246226D01*
X0396728Y0239142D02*
X0302937Y0239142D01*
X0301728Y0237933D01*
X0301728Y0239142D01*
X0207937Y0239142D01*
X0206728Y0237933D01*
X0206728Y0239142D01*
X0111728Y0239142D01*
X0111728Y0224732D01*
X0118812Y0220638D02*
X0151914Y0220638D01*
X0151628Y0219948D02*
X0151628Y0217919D01*
X0152405Y0216044D01*
X0153839Y0214609D01*
X0155714Y0213833D01*
X0155889Y0213833D01*
X0166148Y0203573D01*
X0167692Y0202934D01*
X0199688Y0202934D01*
X0199851Y0202539D01*
X0202133Y0200257D01*
X0202528Y0200093D01*
X0202528Y0199765D01*
X0202133Y0199601D01*
X0199851Y0197319D01*
X0198617Y0194338D01*
X0198617Y0191111D01*
X0199851Y0188129D01*
X0202133Y0185848D01*
X0205115Y0184613D01*
X0208342Y0184613D01*
X0211323Y0185848D01*
X0213605Y0188129D01*
X0214840Y0191111D01*
X0214840Y0194338D01*
X0213605Y0197319D01*
X0211323Y0199601D01*
X0210928Y0199765D01*
X0210928Y0200093D01*
X0211323Y0200257D01*
X0213605Y0202539D01*
X0214840Y0205520D01*
X0214840Y0208747D01*
X0213605Y0211729D01*
X0211323Y0214011D01*
X0208342Y0215246D01*
X0205115Y0215246D01*
X0202133Y0214011D01*
X0199851Y0211729D01*
X0199688Y0211334D01*
X0170267Y0211334D01*
X0161828Y0219773D01*
X0161828Y0219948D01*
X0161052Y0221822D01*
X0159617Y0223257D01*
X0157743Y0224033D01*
X0155714Y0224033D01*
X0153839Y0223257D01*
X0152405Y0221822D01*
X0151628Y0219948D01*
X0151827Y0217439D02*
X0115319Y0217439D01*
X0113342Y0215246D02*
X0110115Y0215246D01*
X0107133Y0214011D01*
X0104851Y0211729D01*
X0104688Y0211334D01*
X0074267Y0211334D01*
X0067928Y0217673D01*
X0067928Y0217769D01*
X0067289Y0219312D01*
X0066828Y0219773D01*
X0066828Y0219948D01*
X0066052Y0221822D01*
X0064617Y0223257D01*
X0062743Y0224033D01*
X0060714Y0224033D01*
X0058839Y0223257D01*
X0057405Y0221822D01*
X0056628Y0219948D01*
X0056628Y0217919D01*
X0057405Y0216044D01*
X0058839Y0214609D01*
X0059915Y0214164D01*
X0060168Y0213554D01*
X0061349Y0212372D01*
X0070148Y0203573D01*
X0071692Y0202934D01*
X0104688Y0202934D01*
X0104851Y0202539D01*
X0107133Y0200257D01*
X0107528Y0200093D01*
X0107528Y0199765D01*
X0107133Y0199601D01*
X0104851Y0197319D01*
X0103617Y0194338D01*
X0103617Y0191111D01*
X0104851Y0188129D01*
X0107133Y0185848D01*
X0110115Y0184613D01*
X0113342Y0184613D01*
X0116323Y0185848D01*
X0118605Y0188129D01*
X0119840Y0191111D01*
X0119840Y0194338D01*
X0118605Y0197319D01*
X0116323Y0199601D01*
X0115928Y0199765D01*
X0115928Y0200093D01*
X0116323Y0200257D01*
X0118605Y0202539D01*
X0119840Y0205520D01*
X0119840Y0208747D01*
X0118605Y0211729D01*
X0116323Y0214011D01*
X0113342Y0215246D01*
X0115768Y0214241D02*
X0154730Y0214241D01*
X0158679Y0211042D02*
X0118890Y0211042D01*
X0119840Y0207844D02*
X0161878Y0207844D01*
X0165076Y0204645D02*
X0119478Y0204645D01*
X0117513Y0201447D02*
X0200944Y0201447D01*
X0200780Y0198248D02*
X0117676Y0198248D01*
X0119545Y0195050D02*
X0198911Y0195050D01*
X0198617Y0191851D02*
X0119840Y0191851D01*
X0118822Y0188653D02*
X0124508Y0188653D01*
X0127728Y0185933D02*
X0121728Y0179933D01*
X0101728Y0179933D01*
X0095728Y0185933D01*
X0069728Y0185933D01*
X0062728Y0178933D01*
X0061728Y0178933D01*
X0037728Y0202933D01*
X0037728Y0211933D01*
X0054728Y0228933D01*
X0054728Y0242933D01*
X0046728Y0250933D01*
X0046728Y0275933D01*
X0049012Y0278217D01*
X0049169Y0278217D01*
X0049169Y0278374D01*
X0071728Y0300933D01*
X0121453Y0300933D01*
X0144169Y0278217D01*
X0144169Y0278374D01*
X0166728Y0300933D01*
X0216453Y0300933D01*
X0239169Y0278217D01*
X0239169Y0278374D01*
X0261728Y0300933D01*
X0311453Y0300933D01*
X0334169Y0278217D01*
X0341769Y0278211D02*
X0354128Y0278211D01*
X0354825Y0281410D02*
X0341073Y0281410D01*
X0338526Y0284608D02*
X0357372Y0284608D01*
X0366085Y0284608D02*
X0384931Y0284608D01*
X0389287Y0278217D02*
X0389004Y0277933D01*
X0377728Y0277933D01*
X0355728Y0255933D01*
X0316728Y0255933D01*
X0294445Y0278217D01*
X0294287Y0278217D01*
X0294004Y0277933D01*
X0282728Y0277933D01*
X0260728Y0255933D01*
X0223728Y0255933D01*
X0201728Y0277933D01*
X0199571Y0277933D01*
X0199287Y0278217D01*
X0199571Y0277933D02*
X0186728Y0277933D01*
X0164728Y0255933D01*
X0126728Y0255933D01*
X0104445Y0278217D01*
X0104287Y0278217D01*
X0096687Y0278211D02*
X0084328Y0278211D01*
X0084328Y0276705D02*
X0083171Y0273911D01*
X0081033Y0271774D01*
X0078240Y0270617D01*
X0075217Y0270617D01*
X0072423Y0271774D01*
X0070285Y0273911D01*
X0069128Y0276705D01*
X0069128Y0279728D01*
X0070285Y0282522D01*
X0072423Y0284659D01*
X0075217Y0285817D01*
X0078240Y0285817D01*
X0081033Y0284659D01*
X0083171Y0282522D01*
X0084328Y0279728D01*
X0084328Y0276705D01*
X0083627Y0275012D02*
X0092580Y0275012D01*
X0089612Y0271814D02*
X0081074Y0271814D01*
X0088813Y0268615D02*
X0050928Y0268615D01*
X0050928Y0265417D02*
X0087517Y0265417D01*
X0084318Y0262218D02*
X0050928Y0262218D01*
X0050928Y0259020D02*
X0081120Y0259020D01*
X0077921Y0255821D02*
X0050928Y0255821D01*
X0050978Y0252623D02*
X0058206Y0252623D01*
X0056628Y0249424D02*
X0054177Y0249424D01*
X0061728Y0248933D02*
X0076972Y0248933D01*
X0096413Y0268374D01*
X0103415Y0265417D02*
X0111305Y0265417D01*
X0114503Y0262218D02*
X0101006Y0262218D01*
X0104013Y0268615D02*
X0108106Y0268615D01*
X0113589Y0275012D02*
X0137270Y0275012D01*
X0136569Y0278211D02*
X0111887Y0278211D01*
X0111191Y0281410D02*
X0135037Y0281410D01*
X0131838Y0284608D02*
X0108644Y0284608D01*
X0099931Y0284608D02*
X0081085Y0284608D01*
X0083632Y0281410D02*
X0097384Y0281410D01*
X0116787Y0271814D02*
X0139824Y0271814D01*
X0148515Y0271814D02*
X0167383Y0271814D01*
X0164829Y0275012D02*
X0151068Y0275012D01*
X0151769Y0278211D02*
X0164128Y0278211D01*
X0164825Y0281410D02*
X0153144Y0281410D01*
X0156343Y0284608D02*
X0167372Y0284608D01*
X0162740Y0291005D02*
X0220441Y0291005D01*
X0217243Y0294204D02*
X0165939Y0294204D01*
X0159541Y0287807D02*
X0223640Y0287807D01*
X0226838Y0284608D02*
X0203644Y0284608D01*
X0206191Y0281410D02*
X0230037Y0281410D01*
X0231569Y0278211D02*
X0207390Y0278211D01*
X0210589Y0275012D02*
X0232270Y0275012D01*
X0234824Y0271814D02*
X0213787Y0271814D01*
X0216986Y0268615D02*
X0267471Y0268615D01*
X0264273Y0265417D02*
X0220184Y0265417D01*
X0223383Y0262218D02*
X0261074Y0262218D01*
X0262383Y0271814D02*
X0243515Y0271814D01*
X0246068Y0275012D02*
X0259829Y0275012D01*
X0259128Y0278211D02*
X0246769Y0278211D01*
X0248144Y0281410D02*
X0259825Y0281410D01*
X0262372Y0284608D02*
X0251343Y0284608D01*
X0254541Y0287807D02*
X0318640Y0287807D01*
X0315441Y0291005D02*
X0257740Y0291005D01*
X0260939Y0294204D02*
X0312243Y0294204D01*
X0317725Y0300601D02*
X0410328Y0300601D01*
X0410328Y0303799D02*
X0314526Y0303799D01*
X0320923Y0297402D02*
X0410328Y0297402D01*
X0410328Y0294204D02*
X0324122Y0294204D01*
X0327320Y0291005D02*
X0410328Y0291005D01*
X0410328Y0287807D02*
X0330519Y0287807D01*
X0325037Y0281410D02*
X0301191Y0281410D01*
X0301887Y0278211D02*
X0326569Y0278211D01*
X0327270Y0275012D02*
X0303589Y0275012D01*
X0306787Y0271814D02*
X0329824Y0271814D01*
X0338515Y0271814D02*
X0357383Y0271814D01*
X0354829Y0275012D02*
X0341068Y0275012D01*
X0356074Y0262218D02*
X0316383Y0262218D01*
X0313184Y0265417D02*
X0359273Y0265417D01*
X0362471Y0268615D02*
X0309986Y0268615D01*
X0304503Y0262218D02*
X0291006Y0262218D01*
X0293415Y0265417D02*
X0301305Y0265417D01*
X0298106Y0268615D02*
X0294013Y0268615D01*
X0286413Y0268374D02*
X0266972Y0248933D01*
X0251728Y0248933D01*
X0246628Y0249424D02*
X0178403Y0249424D01*
X0175205Y0246226D02*
X0202634Y0246226D01*
X0210823Y0246226D02*
X0247329Y0246226D01*
X0270205Y0246226D02*
X0297634Y0246226D01*
X0305823Y0246226D02*
X0342329Y0246226D01*
X0341628Y0249424D02*
X0273403Y0249424D01*
X0276602Y0252623D02*
X0314099Y0252623D01*
X0310900Y0255821D02*
X0279800Y0255821D01*
X0282999Y0259020D02*
X0307702Y0259020D01*
X0301728Y0237933D02*
X0301728Y0224732D01*
X0308813Y0220638D02*
X0341914Y0220638D01*
X0341827Y0217439D02*
X0305319Y0217439D01*
X0303342Y0215246D02*
X0300115Y0215246D01*
X0297133Y0214011D01*
X0294851Y0211729D01*
X0294688Y0211334D01*
X0265267Y0211334D01*
X0256828Y0219773D01*
X0256828Y0219948D01*
X0256052Y0221822D01*
X0254617Y0223257D01*
X0252743Y0224033D01*
X0250714Y0224033D01*
X0248839Y0223257D01*
X0247405Y0221822D01*
X0246628Y0219948D01*
X0246628Y0217919D01*
X0247405Y0216044D01*
X0248839Y0214609D01*
X0250714Y0213833D01*
X0250889Y0213833D01*
X0261148Y0203573D01*
X0262692Y0202934D01*
X0294688Y0202934D01*
X0294851Y0202539D01*
X0297133Y0200257D01*
X0297528Y0200093D01*
X0297528Y0199765D01*
X0297133Y0199601D01*
X0294851Y0197319D01*
X0293617Y0194338D01*
X0293617Y0191111D01*
X0294851Y0188129D01*
X0297133Y0185848D01*
X0300115Y0184613D01*
X0303342Y0184613D01*
X0306323Y0185848D01*
X0308605Y0188129D01*
X0309840Y0191111D01*
X0309840Y0194338D01*
X0308605Y0197319D01*
X0306323Y0199601D01*
X0305928Y0199765D01*
X0305928Y0200093D01*
X0306323Y0200257D01*
X0308605Y0202539D01*
X0309840Y0205520D01*
X0309840Y0208747D01*
X0308605Y0211729D01*
X0306323Y0214011D01*
X0303342Y0215246D01*
X0305768Y0214241D02*
X0344730Y0214241D01*
X0348679Y0211042D02*
X0308890Y0211042D01*
X0309840Y0207844D02*
X0351878Y0207844D01*
X0355076Y0204645D02*
X0309478Y0204645D01*
X0307513Y0201447D02*
X0390944Y0201447D01*
X0390780Y0198248D02*
X0307676Y0198248D01*
X0309545Y0195050D02*
X0388911Y0195050D01*
X0388617Y0191851D02*
X0309840Y0191851D01*
X0308822Y0188653D02*
X0314508Y0188653D01*
X0317728Y0185933D02*
X0311728Y0179933D01*
X0291728Y0179933D01*
X0285728Y0185933D01*
X0258728Y0185933D01*
X0251728Y0178933D01*
X0251728Y0179933D01*
X0245728Y0185933D01*
X0223728Y0185933D01*
X0217728Y0179933D01*
X0197728Y0179933D01*
X0191728Y0185933D01*
X0163728Y0185933D01*
X0156728Y0178933D01*
X0149728Y0185933D01*
X0127728Y0185933D01*
X0121310Y0185454D02*
X0115374Y0185454D01*
X0108083Y0185454D02*
X0102147Y0185454D01*
X0104635Y0188653D02*
X0098948Y0188653D01*
X0103617Y0191851D02*
X0054750Y0191851D01*
X0057948Y0188653D02*
X0066508Y0188653D01*
X0063310Y0185454D02*
X0061147Y0185454D01*
X0052466Y0182256D02*
X0031828Y0182256D01*
X0031828Y0185454D02*
X0049268Y0185454D01*
X0046069Y0188653D02*
X0031828Y0188653D01*
X0031828Y0191851D02*
X0042871Y0191851D01*
X0039672Y0195050D02*
X0031828Y0195050D01*
X0031828Y0198248D02*
X0036473Y0198248D01*
X0033798Y0201447D02*
X0031828Y0201447D01*
X0031828Y0204645D02*
X0033528Y0204645D01*
X0033528Y0207844D02*
X0031828Y0207844D01*
X0031828Y0211042D02*
X0033528Y0211042D01*
X0034138Y0214241D02*
X0031828Y0214241D01*
X0031828Y0217439D02*
X0037295Y0217439D01*
X0040493Y0220638D02*
X0031828Y0220638D01*
X0031828Y0223836D02*
X0036985Y0223836D01*
X0032055Y0235846D02*
X0032058Y0236055D01*
X0032065Y0236263D01*
X0032078Y0236471D01*
X0032096Y0236679D01*
X0032119Y0236886D01*
X0032147Y0237093D01*
X0032180Y0237299D01*
X0032218Y0237504D01*
X0032262Y0237708D01*
X0032310Y0237911D01*
X0032363Y0238113D01*
X0032421Y0238313D01*
X0032484Y0238512D01*
X0032552Y0238710D01*
X0032625Y0238905D01*
X0032702Y0239099D01*
X0032784Y0239291D01*
X0032871Y0239480D01*
X0032963Y0239668D01*
X0033059Y0239853D01*
X0033159Y0240036D01*
X0033264Y0240216D01*
X0033374Y0240393D01*
X0033488Y0240568D01*
X0033606Y0240740D01*
X0033728Y0240909D01*
X0033854Y0241075D01*
X0033984Y0241238D01*
X0034119Y0241398D01*
X0034257Y0241554D01*
X0034399Y0241707D01*
X0034545Y0241856D01*
X0034694Y0242002D01*
X0034847Y0242144D01*
X0035003Y0242282D01*
X0035163Y0242417D01*
X0035326Y0242547D01*
X0035492Y0242673D01*
X0035661Y0242795D01*
X0035833Y0242913D01*
X0036008Y0243027D01*
X0036185Y0243137D01*
X0036365Y0243242D01*
X0036548Y0243342D01*
X0036733Y0243438D01*
X0036921Y0243530D01*
X0037110Y0243617D01*
X0037302Y0243699D01*
X0037496Y0243776D01*
X0037691Y0243849D01*
X0037889Y0243917D01*
X0038088Y0243980D01*
X0038288Y0244038D01*
X0038490Y0244091D01*
X0038693Y0244139D01*
X0038897Y0244183D01*
X0039102Y0244221D01*
X0039308Y0244254D01*
X0039515Y0244282D01*
X0039722Y0244305D01*
X0039930Y0244323D01*
X0040138Y0244336D01*
X0040346Y0244343D01*
X0040555Y0244346D01*
X0040764Y0244343D01*
X0040972Y0244336D01*
X0041180Y0244323D01*
X0041388Y0244305D01*
X0041595Y0244282D01*
X0041802Y0244254D01*
X0042008Y0244221D01*
X0042213Y0244183D01*
X0042417Y0244139D01*
X0042620Y0244091D01*
X0042822Y0244038D01*
X0043022Y0243980D01*
X0043221Y0243917D01*
X0043419Y0243849D01*
X0043614Y0243776D01*
X0043808Y0243699D01*
X0044000Y0243617D01*
X0044189Y0243530D01*
X0044377Y0243438D01*
X0044562Y0243342D01*
X0044745Y0243242D01*
X0044925Y0243137D01*
X0045102Y0243027D01*
X0045277Y0242913D01*
X0045449Y0242795D01*
X0045618Y0242673D01*
X0045784Y0242547D01*
X0045947Y0242417D01*
X0046107Y0242282D01*
X0046263Y0242144D01*
X0046416Y0242002D01*
X0046565Y0241856D01*
X0046711Y0241707D01*
X0046853Y0241554D01*
X0046991Y0241398D01*
X0047126Y0241238D01*
X0047256Y0241075D01*
X0047382Y0240909D01*
X0047504Y0240740D01*
X0047622Y0240568D01*
X0047736Y0240393D01*
X0047846Y0240216D01*
X0047951Y0240036D01*
X0048051Y0239853D01*
X0048147Y0239668D01*
X0048239Y0239480D01*
X0048326Y0239291D01*
X0048408Y0239099D01*
X0048485Y0238905D01*
X0048558Y0238710D01*
X0048626Y0238512D01*
X0048689Y0238313D01*
X0048747Y0238113D01*
X0048800Y0237911D01*
X0048848Y0237708D01*
X0048892Y0237504D01*
X0048930Y0237299D01*
X0048963Y0237093D01*
X0048991Y0236886D01*
X0049014Y0236679D01*
X0049032Y0236471D01*
X0049045Y0236263D01*
X0049052Y0236055D01*
X0049055Y0235846D01*
X0049052Y0235637D01*
X0049045Y0235429D01*
X0049032Y0235221D01*
X0049014Y0235013D01*
X0048991Y0234806D01*
X0048963Y0234599D01*
X0048930Y0234393D01*
X0048892Y0234188D01*
X0048848Y0233984D01*
X0048800Y0233781D01*
X0048747Y0233579D01*
X0048689Y0233379D01*
X0048626Y0233180D01*
X0048558Y0232982D01*
X0048485Y0232787D01*
X0048408Y0232593D01*
X0048326Y0232401D01*
X0048239Y0232212D01*
X0048147Y0232024D01*
X0048051Y0231839D01*
X0047951Y0231656D01*
X0047846Y0231476D01*
X0047736Y0231299D01*
X0047622Y0231124D01*
X0047504Y0230952D01*
X0047382Y0230783D01*
X0047256Y0230617D01*
X0047126Y0230454D01*
X0046991Y0230294D01*
X0046853Y0230138D01*
X0046711Y0229985D01*
X0046565Y0229836D01*
X0046416Y0229690D01*
X0046263Y0229548D01*
X0046107Y0229410D01*
X0045947Y0229275D01*
X0045784Y0229145D01*
X0045618Y0229019D01*
X0045449Y0228897D01*
X0045277Y0228779D01*
X0045102Y0228665D01*
X0044925Y0228555D01*
X0044745Y0228450D01*
X0044562Y0228350D01*
X0044377Y0228254D01*
X0044189Y0228162D01*
X0044000Y0228075D01*
X0043808Y0227993D01*
X0043614Y0227916D01*
X0043419Y0227843D01*
X0043221Y0227775D01*
X0043022Y0227712D01*
X0042822Y0227654D01*
X0042620Y0227601D01*
X0042417Y0227553D01*
X0042213Y0227509D01*
X0042008Y0227471D01*
X0041802Y0227438D01*
X0041595Y0227410D01*
X0041388Y0227387D01*
X0041180Y0227369D01*
X0040972Y0227356D01*
X0040764Y0227349D01*
X0040555Y0227346D01*
X0040346Y0227349D01*
X0040138Y0227356D01*
X0039930Y0227369D01*
X0039722Y0227387D01*
X0039515Y0227410D01*
X0039308Y0227438D01*
X0039102Y0227471D01*
X0038897Y0227509D01*
X0038693Y0227553D01*
X0038490Y0227601D01*
X0038288Y0227654D01*
X0038088Y0227712D01*
X0037889Y0227775D01*
X0037691Y0227843D01*
X0037496Y0227916D01*
X0037302Y0227993D01*
X0037110Y0228075D01*
X0036921Y0228162D01*
X0036733Y0228254D01*
X0036548Y0228350D01*
X0036365Y0228450D01*
X0036185Y0228555D01*
X0036008Y0228665D01*
X0035833Y0228779D01*
X0035661Y0228897D01*
X0035492Y0229019D01*
X0035326Y0229145D01*
X0035163Y0229275D01*
X0035003Y0229410D01*
X0034847Y0229548D01*
X0034694Y0229690D01*
X0034545Y0229836D01*
X0034399Y0229985D01*
X0034257Y0230138D01*
X0034119Y0230294D01*
X0033984Y0230454D01*
X0033854Y0230617D01*
X0033728Y0230783D01*
X0033606Y0230952D01*
X0033488Y0231124D01*
X0033374Y0231299D01*
X0033264Y0231476D01*
X0033159Y0231656D01*
X0033059Y0231839D01*
X0032963Y0232024D01*
X0032871Y0232212D01*
X0032784Y0232401D01*
X0032702Y0232593D01*
X0032625Y0232787D01*
X0032552Y0232982D01*
X0032484Y0233180D01*
X0032421Y0233379D01*
X0032363Y0233579D01*
X0032310Y0233781D01*
X0032262Y0233984D01*
X0032218Y0234188D01*
X0032180Y0234393D01*
X0032147Y0234599D01*
X0032119Y0234806D01*
X0032096Y0235013D01*
X0032078Y0235221D01*
X0032065Y0235429D01*
X0032058Y0235637D01*
X0032055Y0235846D01*
X0031828Y0246226D02*
X0033467Y0246226D01*
X0034205Y0246845D02*
X0034205Y0246845D01*
X0031828Y0249424D02*
X0042807Y0249424D01*
X0042528Y0252623D02*
X0031828Y0252623D01*
X0031828Y0255821D02*
X0042528Y0255821D01*
X0042528Y0259020D02*
X0031828Y0259020D01*
X0031828Y0262218D02*
X0042528Y0262218D01*
X0042528Y0265417D02*
X0031828Y0265417D01*
X0031828Y0268615D02*
X0042528Y0268615D01*
X0042528Y0271814D02*
X0031828Y0271814D01*
X0031828Y0275012D02*
X0042270Y0275012D01*
X0041569Y0278211D02*
X0031828Y0278211D01*
X0031828Y0281410D02*
X0042266Y0281410D01*
X0044813Y0284608D02*
X0031828Y0284608D01*
X0031828Y0287807D02*
X0052662Y0287807D01*
X0055861Y0291005D02*
X0031828Y0291005D01*
X0031828Y0294204D02*
X0059059Y0294204D01*
X0062258Y0297402D02*
X0031828Y0297402D01*
X0031828Y0300601D02*
X0065456Y0300601D01*
X0068655Y0303799D02*
X0031828Y0303799D01*
X0031828Y0306998D02*
X0410328Y0306998D01*
X0410328Y0310196D02*
X0373588Y0310196D01*
X0373083Y0309987D02*
X0375876Y0311144D01*
X0378014Y0313282D01*
X0379171Y0316075D01*
X0379171Y0319098D01*
X0378014Y0321892D01*
X0375876Y0324030D01*
X0373083Y0325187D01*
X0370059Y0325187D01*
X0367266Y0324030D01*
X0365128Y0321892D01*
X0363971Y0319098D01*
X0363971Y0316075D01*
X0365128Y0313282D01*
X0367266Y0311144D01*
X0370059Y0309987D01*
X0373083Y0309987D01*
X0369553Y0310196D02*
X0353903Y0310196D01*
X0353398Y0309987D02*
X0356191Y0311144D01*
X0358329Y0313282D01*
X0359486Y0316075D01*
X0359486Y0319098D01*
X0358329Y0321892D01*
X0356191Y0324030D01*
X0353398Y0325187D01*
X0350374Y0325187D01*
X0347581Y0324030D01*
X0345443Y0321892D01*
X0344286Y0319098D01*
X0344286Y0316075D01*
X0345443Y0313282D01*
X0347581Y0311144D01*
X0350374Y0309987D01*
X0353398Y0309987D01*
X0349868Y0310196D02*
X0278588Y0310196D01*
X0278083Y0309987D02*
X0280876Y0311144D01*
X0283014Y0313282D01*
X0284171Y0316075D01*
X0284171Y0319098D01*
X0283014Y0321892D01*
X0280876Y0324030D01*
X0278083Y0325187D01*
X0275059Y0325187D01*
X0272266Y0324030D01*
X0270128Y0321892D01*
X0268971Y0319098D01*
X0268971Y0316075D01*
X0270128Y0313282D01*
X0272266Y0311144D01*
X0275059Y0309987D01*
X0278083Y0309987D01*
X0274553Y0310196D02*
X0258903Y0310196D01*
X0258398Y0309987D02*
X0261191Y0311144D01*
X0263329Y0313282D01*
X0264486Y0316075D01*
X0264486Y0319098D01*
X0263329Y0321892D01*
X0261191Y0324030D01*
X0258398Y0325187D01*
X0255374Y0325187D01*
X0252581Y0324030D01*
X0250443Y0321892D01*
X0249286Y0319098D01*
X0249286Y0316075D01*
X0250443Y0313282D01*
X0252581Y0311144D01*
X0255374Y0309987D01*
X0258398Y0309987D01*
X0254868Y0310196D02*
X0183588Y0310196D01*
X0183083Y0309987D02*
X0185876Y0311144D01*
X0188014Y0313282D01*
X0189171Y0316075D01*
X0189171Y0319098D01*
X0188014Y0321892D01*
X0185876Y0324030D01*
X0183083Y0325187D01*
X0180059Y0325187D01*
X0177266Y0324030D01*
X0175128Y0321892D01*
X0173971Y0319098D01*
X0173971Y0316075D01*
X0175128Y0313282D01*
X0177266Y0311144D01*
X0180059Y0309987D01*
X0183083Y0309987D01*
X0179553Y0310196D02*
X0163903Y0310196D01*
X0163398Y0309987D02*
X0166191Y0311144D01*
X0168329Y0313282D01*
X0169486Y0316075D01*
X0169486Y0319098D01*
X0168329Y0321892D01*
X0166191Y0324030D01*
X0163398Y0325187D01*
X0160374Y0325187D01*
X0157581Y0324030D01*
X0155443Y0321892D01*
X0154286Y0319098D01*
X0154286Y0316075D01*
X0155443Y0313282D01*
X0157581Y0311144D01*
X0160374Y0309987D01*
X0163398Y0309987D01*
X0159868Y0310196D02*
X0088588Y0310196D01*
X0088083Y0309987D02*
X0090876Y0311144D01*
X0093014Y0313282D01*
X0094171Y0316075D01*
X0094171Y0319098D01*
X0093014Y0321892D01*
X0090876Y0324030D01*
X0088083Y0325187D01*
X0085059Y0325187D01*
X0082266Y0324030D01*
X0080128Y0321892D01*
X0078971Y0319098D01*
X0078971Y0316075D01*
X0080128Y0313282D01*
X0082266Y0311144D01*
X0085059Y0309987D01*
X0088083Y0309987D01*
X0084553Y0310196D02*
X0068903Y0310196D01*
X0068398Y0309987D02*
X0071191Y0311144D01*
X0073329Y0313282D01*
X0074486Y0316075D01*
X0074486Y0319098D01*
X0073329Y0321892D01*
X0071191Y0324030D01*
X0068398Y0325187D01*
X0065374Y0325187D01*
X0062581Y0324030D01*
X0060443Y0321892D01*
X0059286Y0319098D01*
X0059286Y0316075D01*
X0060443Y0313282D01*
X0062581Y0311144D01*
X0065374Y0309987D01*
X0068398Y0309987D01*
X0064868Y0310196D02*
X0031828Y0310196D01*
X0031828Y0313395D02*
X0060396Y0313395D01*
X0059286Y0316593D02*
X0031828Y0316593D01*
X0031828Y0319792D02*
X0059573Y0319792D01*
X0061541Y0322990D02*
X0031828Y0322990D01*
X0070939Y0294204D02*
X0122243Y0294204D01*
X0125441Y0291005D02*
X0067740Y0291005D01*
X0064541Y0287807D02*
X0128640Y0287807D01*
X0134122Y0294204D02*
X0154059Y0294204D01*
X0157258Y0297402D02*
X0130923Y0297402D01*
X0127725Y0300601D02*
X0160456Y0300601D01*
X0163655Y0303799D02*
X0124526Y0303799D01*
X0137320Y0291005D02*
X0150861Y0291005D01*
X0147662Y0287807D02*
X0140519Y0287807D01*
X0119986Y0268615D02*
X0171471Y0268615D01*
X0168273Y0265417D02*
X0123184Y0265417D01*
X0126383Y0262218D02*
X0165074Y0262218D01*
X0171972Y0248933D02*
X0156728Y0248933D01*
X0151628Y0249424D02*
X0083403Y0249424D01*
X0080205Y0246226D02*
X0107634Y0246226D01*
X0104558Y0243027D02*
X0058928Y0243027D01*
X0058928Y0239829D02*
X0103617Y0239829D01*
X0103988Y0236630D02*
X0058928Y0236630D01*
X0058928Y0233432D02*
X0105966Y0233432D01*
X0105758Y0230233D02*
X0058928Y0230233D01*
X0058488Y0227035D02*
X0103902Y0227035D01*
X0103617Y0223836D02*
X0063218Y0223836D01*
X0060239Y0223836D02*
X0055571Y0223836D01*
X0056914Y0220638D02*
X0052373Y0220638D01*
X0049174Y0217439D02*
X0056827Y0217439D01*
X0059730Y0214241D02*
X0045976Y0214241D01*
X0042777Y0211042D02*
X0062679Y0211042D01*
X0065878Y0207844D02*
X0041928Y0207844D01*
X0041956Y0204645D02*
X0069076Y0204645D01*
X0072528Y0207134D02*
X0063728Y0215933D01*
X0063728Y0216933D01*
X0061728Y0218933D01*
X0066542Y0220638D02*
X0104644Y0220638D01*
X0108138Y0217439D02*
X0068162Y0217439D01*
X0071360Y0214241D02*
X0107689Y0214241D01*
X0111728Y0207134D02*
X0072528Y0207134D01*
X0051551Y0195050D02*
X0103911Y0195050D01*
X0105780Y0198248D02*
X0048353Y0198248D01*
X0045154Y0201447D02*
X0105944Y0201447D01*
X0111728Y0207134D02*
X0111728Y0192724D01*
X0126792Y0179057D02*
X0150665Y0179057D01*
X0152590Y0175859D02*
X0122867Y0175859D01*
X0100590Y0175859D02*
X0095866Y0175859D01*
X0095128Y0172660D02*
X0153364Y0172660D01*
X0153364Y0169462D02*
X0095128Y0169462D01*
X0095128Y0166263D02*
X0153352Y0166263D01*
X0151664Y0163065D02*
X0095706Y0163065D01*
X0095706Y0159866D02*
X0151664Y0159866D01*
X0152018Y0156668D02*
X0092863Y0156668D01*
X0093147Y0153469D02*
X0153328Y0153469D01*
X0153272Y0150271D02*
X0092573Y0150271D01*
X0093029Y0140675D02*
X0093128Y0140675D01*
X0101037Y0140675D02*
X0151083Y0140675D01*
X0150624Y0143874D02*
X0101848Y0143874D01*
X0101825Y0147072D02*
X0150624Y0147072D01*
X0172373Y0140675D02*
X0173428Y0140675D01*
X0188029Y0140675D02*
X0188128Y0140675D01*
X0196037Y0140675D02*
X0246083Y0140675D01*
X0245624Y0143874D02*
X0196848Y0143874D01*
X0196825Y0147072D02*
X0245624Y0147072D01*
X0248272Y0150271D02*
X0187573Y0150271D01*
X0188147Y0153469D02*
X0248328Y0153469D01*
X0247018Y0156668D02*
X0187863Y0156668D01*
X0190706Y0159866D02*
X0246664Y0159866D01*
X0246664Y0163065D02*
X0190706Y0163065D01*
X0190128Y0166263D02*
X0248352Y0166263D01*
X0248364Y0169462D02*
X0190128Y0169462D01*
X0190128Y0172660D02*
X0248364Y0172660D01*
X0247590Y0175859D02*
X0218867Y0175859D01*
X0222792Y0179057D02*
X0246628Y0179057D01*
X0252147Y0185454D02*
X0252310Y0185454D01*
X0255508Y0188653D02*
X0248948Y0188653D01*
X0260076Y0204645D02*
X0214478Y0204645D01*
X0214840Y0207844D02*
X0256878Y0207844D01*
X0253679Y0211042D02*
X0213890Y0211042D01*
X0210768Y0214241D02*
X0249730Y0214241D01*
X0246827Y0217439D02*
X0210319Y0217439D01*
X0213812Y0220638D02*
X0246914Y0220638D01*
X0250239Y0223836D02*
X0214840Y0223836D01*
X0214555Y0227035D02*
X0293902Y0227035D01*
X0293617Y0223836D02*
X0253218Y0223836D01*
X0256542Y0220638D02*
X0294644Y0220638D01*
X0298138Y0217439D02*
X0259162Y0217439D01*
X0262360Y0214241D02*
X0297689Y0214241D01*
X0301728Y0207134D02*
X0263528Y0207134D01*
X0251728Y0218933D01*
X0214545Y0195050D02*
X0293911Y0195050D01*
X0293617Y0191851D02*
X0214840Y0191851D01*
X0213822Y0188653D02*
X0220508Y0188653D01*
X0217310Y0185454D02*
X0210374Y0185454D01*
X0203083Y0185454D02*
X0198147Y0185454D01*
X0199635Y0188653D02*
X0194948Y0188653D01*
X0192665Y0179057D02*
X0191828Y0179057D01*
X0190866Y0175859D02*
X0196590Y0175859D01*
X0206728Y0192724D02*
X0206728Y0207134D01*
X0168528Y0207134D01*
X0156728Y0218933D01*
X0161542Y0220638D02*
X0199644Y0220638D01*
X0198617Y0223836D02*
X0158218Y0223836D01*
X0155239Y0223836D02*
X0119840Y0223836D01*
X0119555Y0227035D02*
X0198902Y0227035D01*
X0200758Y0230233D02*
X0117699Y0230233D01*
X0117490Y0233432D02*
X0200966Y0233432D01*
X0206728Y0237933D02*
X0206728Y0224732D01*
X0212699Y0230233D02*
X0295758Y0230233D01*
X0295966Y0233432D02*
X0212490Y0233432D01*
X0203138Y0217439D02*
X0164162Y0217439D01*
X0167360Y0214241D02*
X0202689Y0214241D01*
X0212513Y0201447D02*
X0295944Y0201447D01*
X0295780Y0198248D02*
X0212676Y0198248D01*
X0160508Y0188653D02*
X0152948Y0188653D01*
X0156147Y0185454D02*
X0157310Y0185454D01*
X0152329Y0246226D02*
X0115823Y0246226D01*
X0124099Y0252623D02*
X0086602Y0252623D01*
X0089800Y0255821D02*
X0120900Y0255821D01*
X0117702Y0259020D02*
X0092999Y0259020D01*
X0072383Y0271814D02*
X0053515Y0271814D01*
X0056068Y0275012D02*
X0069829Y0275012D01*
X0069128Y0278211D02*
X0056769Y0278211D01*
X0058144Y0281410D02*
X0069825Y0281410D01*
X0072372Y0284608D02*
X0061343Y0284608D01*
X0073376Y0313395D02*
X0080081Y0313395D01*
X0078971Y0316593D02*
X0074486Y0316593D01*
X0074199Y0319792D02*
X0079258Y0319792D01*
X0081226Y0322990D02*
X0072230Y0322990D01*
X0091915Y0322990D02*
X0156541Y0322990D01*
X0154573Y0319792D02*
X0093884Y0319792D01*
X0094171Y0316593D02*
X0154286Y0316593D01*
X0155396Y0313395D02*
X0093061Y0313395D01*
X0167230Y0322990D02*
X0176226Y0322990D01*
X0174258Y0319792D02*
X0169199Y0319792D01*
X0169486Y0316593D02*
X0173971Y0316593D01*
X0175081Y0313395D02*
X0168376Y0313395D01*
X0188061Y0313395D02*
X0250396Y0313395D01*
X0249286Y0316593D02*
X0189171Y0316593D01*
X0188884Y0319792D02*
X0249573Y0319792D01*
X0251541Y0322990D02*
X0186915Y0322990D01*
X0219526Y0303799D02*
X0258655Y0303799D01*
X0255456Y0300601D02*
X0222725Y0300601D01*
X0225923Y0297402D02*
X0252258Y0297402D01*
X0249059Y0294204D02*
X0229122Y0294204D01*
X0232320Y0291005D02*
X0245861Y0291005D01*
X0242662Y0287807D02*
X0235519Y0287807D01*
X0205106Y0268615D02*
X0199013Y0268615D01*
X0198415Y0265417D02*
X0208305Y0265417D01*
X0211503Y0262218D02*
X0196006Y0262218D01*
X0191413Y0268374D02*
X0171972Y0248933D01*
X0181602Y0252623D02*
X0221099Y0252623D01*
X0220168Y0253554D02*
X0220168Y0253554D01*
X0217900Y0255821D02*
X0184800Y0255821D01*
X0187999Y0259020D02*
X0214702Y0259020D01*
X0194931Y0284608D02*
X0176085Y0284608D01*
X0178632Y0281410D02*
X0184265Y0281410D01*
X0181067Y0278211D02*
X0179328Y0278211D01*
X0263376Y0313395D02*
X0270081Y0313395D01*
X0268971Y0316593D02*
X0264486Y0316593D01*
X0264199Y0319792D02*
X0269258Y0319792D01*
X0271226Y0322990D02*
X0262230Y0322990D01*
X0281915Y0322990D02*
X0346541Y0322990D01*
X0344573Y0319792D02*
X0283884Y0319792D01*
X0284171Y0316593D02*
X0344286Y0316593D01*
X0345396Y0313395D02*
X0283061Y0313395D01*
X0289931Y0284608D02*
X0271085Y0284608D01*
X0273632Y0281410D02*
X0280265Y0281410D01*
X0277067Y0278211D02*
X0274328Y0278211D01*
X0273868Y0275012D02*
X0273627Y0275012D01*
X0298644Y0284608D02*
X0321838Y0284608D01*
X0358376Y0313395D02*
X0365081Y0313395D01*
X0363971Y0316593D02*
X0359486Y0316593D01*
X0359199Y0319792D02*
X0364258Y0319792D01*
X0366226Y0322990D02*
X0357230Y0322990D01*
X0376915Y0322990D02*
X0410328Y0322990D01*
X0410328Y0319792D02*
X0378884Y0319792D01*
X0379171Y0316593D02*
X0410328Y0316593D01*
X0410328Y0313395D02*
X0378061Y0313395D01*
X0393644Y0284608D02*
X0410328Y0284608D01*
X0410328Y0281410D02*
X0396191Y0281410D01*
X0396887Y0278211D02*
X0410328Y0278211D01*
X0410328Y0275012D02*
X0396186Y0275012D01*
X0393633Y0271814D02*
X0410328Y0271814D01*
X0410328Y0268615D02*
X0389013Y0268615D01*
X0388415Y0265417D02*
X0410328Y0265417D01*
X0410328Y0262218D02*
X0386006Y0262218D01*
X0381413Y0268374D02*
X0361972Y0248933D01*
X0346728Y0248933D01*
X0371602Y0252623D02*
X0410328Y0252623D01*
X0410328Y0255821D02*
X0374800Y0255821D01*
X0377999Y0259020D02*
X0410328Y0259020D01*
X0396728Y0239142D02*
X0396728Y0224732D01*
X0390758Y0230233D02*
X0307699Y0230233D01*
X0307490Y0233432D02*
X0390966Y0233432D01*
X0388902Y0227035D02*
X0309555Y0227035D01*
X0309840Y0223836D02*
X0345239Y0223836D01*
X0348218Y0223836D02*
X0388617Y0223836D01*
X0389644Y0220638D02*
X0351542Y0220638D01*
X0354162Y0217439D02*
X0393138Y0217439D01*
X0392689Y0214241D02*
X0357360Y0214241D01*
X0358528Y0207134D02*
X0346728Y0218933D01*
X0358528Y0207134D02*
X0396728Y0207134D01*
X0396728Y0192724D01*
X0393083Y0185454D02*
X0346147Y0185454D01*
X0342948Y0188653D02*
X0389635Y0188653D01*
X0372838Y0182256D02*
X0350618Y0182256D01*
X0351828Y0179057D02*
X0371628Y0179057D01*
X0372590Y0175859D02*
X0350866Y0175859D01*
X0350164Y0172660D02*
X0373328Y0172660D01*
X0373328Y0169462D02*
X0350164Y0169462D01*
X0350176Y0166263D02*
X0360281Y0166263D01*
X0358593Y0163065D02*
X0351864Y0163065D01*
X0351864Y0159866D02*
X0358593Y0159866D01*
X0358947Y0156668D02*
X0351510Y0156668D01*
X0350128Y0153469D02*
X0370191Y0153469D01*
X0370475Y0156668D02*
X0368439Y0156668D01*
X0370765Y0150271D02*
X0360185Y0150271D01*
X0353272Y0150271D02*
X0350185Y0150271D01*
X0343272Y0150271D02*
X0282573Y0150271D01*
X0283147Y0153469D02*
X0343328Y0153469D01*
X0342018Y0156668D02*
X0282863Y0156668D01*
X0285706Y0159866D02*
X0341664Y0159866D01*
X0341664Y0163065D02*
X0285706Y0163065D01*
X0285128Y0166263D02*
X0343352Y0166263D01*
X0343364Y0169462D02*
X0285128Y0169462D01*
X0285128Y0172660D02*
X0343364Y0172660D01*
X0342590Y0175859D02*
X0312867Y0175859D01*
X0316792Y0179057D02*
X0340665Y0179057D01*
X0346728Y0178933D02*
X0339728Y0185933D01*
X0317728Y0185933D01*
X0311310Y0185454D02*
X0305374Y0185454D01*
X0303728Y0191933D02*
X0302520Y0191933D01*
X0301728Y0192724D01*
X0301728Y0193933D02*
X0303728Y0191933D01*
X0301728Y0193933D02*
X0301728Y0207134D01*
X0294635Y0188653D02*
X0288948Y0188653D01*
X0292147Y0185454D02*
X0298083Y0185454D01*
X0290590Y0175859D02*
X0285866Y0175859D01*
X0291825Y0147072D02*
X0340624Y0147072D01*
X0340624Y0143874D02*
X0291848Y0143874D01*
X0291037Y0140675D02*
X0341083Y0140675D01*
X0362373Y0140675D02*
X0363428Y0140675D01*
X0378029Y0140675D02*
X0378128Y0140675D01*
X0373328Y0166263D02*
X0367105Y0166263D01*
X0283128Y0140675D02*
X0283029Y0140675D01*
X0268428Y0140675D02*
X0267373Y0140675D01*
X0254642Y0131079D02*
X0031828Y0131079D01*
X0031828Y0127881D02*
X0257841Y0127881D01*
X0261039Y0124682D02*
X0031828Y0124682D01*
X0031828Y0121484D02*
X0264238Y0121484D01*
X0267436Y0118285D02*
X0031828Y0118285D01*
X0031828Y0134278D02*
X0251444Y0134278D01*
X0248245Y0137477D02*
X0031828Y0137477D01*
X0031828Y0140675D02*
X0056083Y0140675D01*
X0055624Y0143874D02*
X0031828Y0143874D01*
X0031828Y0147072D02*
X0055624Y0147072D01*
X0058272Y0150271D02*
X0031828Y0150271D01*
X0031828Y0153469D02*
X0058328Y0153469D01*
X0057018Y0156668D02*
X0031828Y0156668D01*
X0031828Y0159866D02*
X0056664Y0159866D01*
X0056664Y0163065D02*
X0031828Y0163065D01*
X0031828Y0166263D02*
X0058352Y0166263D01*
X0058364Y0169462D02*
X0031828Y0169462D01*
X0031828Y0172660D02*
X0058364Y0172660D01*
X0057590Y0175859D02*
X0031828Y0175859D01*
X0031828Y0179057D02*
X0055665Y0179057D01*
X0077373Y0140675D02*
X0078428Y0140675D01*
X0184128Y0083442D02*
X0184128Y0082058D01*
X0183708Y0081044D01*
X0202780Y0061972D01*
X0203328Y0060649D01*
X0203328Y0053243D01*
X0206028Y0050543D01*
X0206028Y0045324D01*
X0203638Y0042933D01*
X0204728Y0041843D01*
X0207119Y0044233D01*
X0212338Y0044233D01*
X0214728Y0041843D01*
X0215819Y0042933D01*
X0213428Y0045324D01*
X0213428Y0050543D01*
X0216456Y0053570D01*
X0214775Y0053570D01*
X0213452Y0054118D01*
X0184128Y0083442D01*
X0184128Y0083102D02*
X0184468Y0083102D01*
X0184849Y0079903D02*
X0187667Y0079903D01*
X0188048Y0076705D02*
X0190865Y0076705D01*
X0191246Y0073506D02*
X0194064Y0073506D01*
X0194445Y0070308D02*
X0197262Y0070308D01*
X0197643Y0067109D02*
X0200461Y0067109D01*
X0200842Y0063911D02*
X0203659Y0063911D01*
X0203302Y0060712D02*
X0206858Y0060712D01*
X0210057Y0057514D02*
X0203328Y0057514D01*
X0203328Y0054315D02*
X0213255Y0054315D01*
X0214002Y0051117D02*
X0205454Y0051117D01*
X0206028Y0047918D02*
X0213428Y0047918D01*
X0214032Y0044720D02*
X0205424Y0044720D01*
X0194407Y0041521D02*
X0185050Y0041521D01*
X0186028Y0038323D02*
X0193428Y0038323D01*
X0193628Y0035124D02*
X0185829Y0035124D01*
X0182630Y0031926D02*
X0196826Y0031926D01*
X0202630Y0031926D02*
X0206826Y0031926D01*
X0212630Y0031926D02*
X0216826Y0031926D01*
X0222630Y0031926D02*
X0236826Y0031926D01*
X0233628Y0035124D02*
X0225829Y0035124D01*
X0226028Y0038323D02*
X0233428Y0038323D01*
X0234407Y0041521D02*
X0225050Y0041521D01*
X0242630Y0031926D02*
X0246826Y0031926D01*
X0252630Y0031926D02*
X0262403Y0031926D01*
X0259000Y0034770D02*
X0259000Y0034770D01*
X0259000Y0034770D01*
X0258795Y0035124D02*
X0255829Y0035124D01*
X0256028Y0038323D02*
X0256948Y0038323D01*
X0256794Y0038589D02*
X0256794Y0038589D01*
X0256277Y0041521D02*
X0255050Y0041521D01*
X0256028Y0042933D02*
X0256028Y0042933D01*
X0256343Y0044720D02*
X0255424Y0044720D01*
X0256794Y0047277D02*
X0256794Y0047277D01*
X0257165Y0047918D02*
X0256028Y0047918D01*
X0255454Y0051117D02*
X0259024Y0051117D01*
X0259000Y0051096D02*
X0259000Y0051096D01*
X0262378Y0053932D02*
X0262378Y0053932D01*
X0263432Y0054315D02*
X0254333Y0054315D01*
X0249124Y0054315D02*
X0242437Y0054315D01*
X0239239Y0057514D02*
X0247328Y0057514D01*
X0248128Y0060712D02*
X0236040Y0060712D01*
X0232842Y0063911D02*
X0248128Y0063911D01*
X0248128Y0067109D02*
X0229643Y0067109D01*
X0221445Y0070308D02*
X0248128Y0070308D01*
X0248128Y0073506D02*
X0218246Y0073506D01*
X0215048Y0076705D02*
X0248128Y0076705D01*
X0248128Y0079903D02*
X0211849Y0079903D01*
X0209724Y0083102D02*
X0208651Y0083102D01*
X0209532Y0086300D02*
X0205452Y0086300D01*
X0202254Y0089499D02*
X0210128Y0089499D01*
X0210128Y0092697D02*
X0199055Y0092697D01*
X0195857Y0095896D02*
X0210128Y0095896D01*
X0210128Y0099094D02*
X0192658Y0099094D01*
X0189024Y0102293D02*
X0209277Y0102293D01*
X0213063Y0108690D02*
X0245624Y0108690D01*
X0245624Y0105491D02*
X0216261Y0105491D01*
X0217328Y0102293D02*
X0246874Y0102293D01*
X0248328Y0099094D02*
X0217328Y0099094D01*
X0217328Y0095896D02*
X0247160Y0095896D01*
X0247160Y0092697D02*
X0217328Y0092697D01*
X0217328Y0089499D02*
X0247160Y0089499D01*
X0247160Y0086300D02*
X0217925Y0086300D01*
X0217732Y0083102D02*
X0248128Y0083102D01*
X0255328Y0083102D02*
X0302620Y0083102D01*
X0299421Y0086300D02*
X0256297Y0086300D01*
X0256297Y0089499D02*
X0296223Y0089499D01*
X0293024Y0092697D02*
X0256297Y0092697D01*
X0256297Y0095896D02*
X0289826Y0095896D01*
X0286627Y0099094D02*
X0255128Y0099094D01*
X0256583Y0102293D02*
X0283429Y0102293D01*
X0280230Y0105491D02*
X0257832Y0105491D01*
X0257832Y0108690D02*
X0277032Y0108690D01*
X0273833Y0111888D02*
X0256748Y0111888D01*
X0246709Y0111888D02*
X0209864Y0111888D01*
X0206666Y0115087D02*
X0270635Y0115087D01*
X0251728Y0139933D02*
X0251728Y0144693D01*
X0251728Y0139933D02*
X0316728Y0074933D01*
X0314437Y0070308D02*
X0255328Y0070308D01*
X0255328Y0073506D02*
X0311745Y0073506D01*
X0309017Y0076705D02*
X0255328Y0076705D01*
X0255328Y0079903D02*
X0305818Y0079903D01*
X0260228Y0042933D02*
X0260231Y0043142D01*
X0260238Y0043350D01*
X0260251Y0043558D01*
X0260269Y0043766D01*
X0260292Y0043973D01*
X0260320Y0044180D01*
X0260353Y0044386D01*
X0260391Y0044591D01*
X0260435Y0044795D01*
X0260483Y0044998D01*
X0260536Y0045200D01*
X0260594Y0045400D01*
X0260657Y0045599D01*
X0260725Y0045797D01*
X0260798Y0045992D01*
X0260875Y0046186D01*
X0260957Y0046378D01*
X0261044Y0046567D01*
X0261136Y0046755D01*
X0261232Y0046940D01*
X0261332Y0047123D01*
X0261437Y0047303D01*
X0261547Y0047480D01*
X0261661Y0047655D01*
X0261779Y0047827D01*
X0261901Y0047996D01*
X0262027Y0048162D01*
X0262157Y0048325D01*
X0262292Y0048485D01*
X0262430Y0048641D01*
X0262572Y0048794D01*
X0262718Y0048943D01*
X0262867Y0049089D01*
X0263020Y0049231D01*
X0263176Y0049369D01*
X0263336Y0049504D01*
X0263499Y0049634D01*
X0263665Y0049760D01*
X0263834Y0049882D01*
X0264006Y0050000D01*
X0264181Y0050114D01*
X0264358Y0050224D01*
X0264538Y0050329D01*
X0264721Y0050429D01*
X0264906Y0050525D01*
X0265094Y0050617D01*
X0265283Y0050704D01*
X0265475Y0050786D01*
X0265669Y0050863D01*
X0265864Y0050936D01*
X0266062Y0051004D01*
X0266261Y0051067D01*
X0266461Y0051125D01*
X0266663Y0051178D01*
X0266866Y0051226D01*
X0267070Y0051270D01*
X0267275Y0051308D01*
X0267481Y0051341D01*
X0267688Y0051369D01*
X0267895Y0051392D01*
X0268103Y0051410D01*
X0268311Y0051423D01*
X0268519Y0051430D01*
X0268728Y0051433D01*
X0268937Y0051430D01*
X0269145Y0051423D01*
X0269353Y0051410D01*
X0269561Y0051392D01*
X0269768Y0051369D01*
X0269975Y0051341D01*
X0270181Y0051308D01*
X0270386Y0051270D01*
X0270590Y0051226D01*
X0270793Y0051178D01*
X0270995Y0051125D01*
X0271195Y0051067D01*
X0271394Y0051004D01*
X0271592Y0050936D01*
X0271787Y0050863D01*
X0271981Y0050786D01*
X0272173Y0050704D01*
X0272362Y0050617D01*
X0272550Y0050525D01*
X0272735Y0050429D01*
X0272918Y0050329D01*
X0273098Y0050224D01*
X0273275Y0050114D01*
X0273450Y0050000D01*
X0273622Y0049882D01*
X0273791Y0049760D01*
X0273957Y0049634D01*
X0274120Y0049504D01*
X0274280Y0049369D01*
X0274436Y0049231D01*
X0274589Y0049089D01*
X0274738Y0048943D01*
X0274884Y0048794D01*
X0275026Y0048641D01*
X0275164Y0048485D01*
X0275299Y0048325D01*
X0275429Y0048162D01*
X0275555Y0047996D01*
X0275677Y0047827D01*
X0275795Y0047655D01*
X0275909Y0047480D01*
X0276019Y0047303D01*
X0276124Y0047123D01*
X0276224Y0046940D01*
X0276320Y0046755D01*
X0276412Y0046567D01*
X0276499Y0046378D01*
X0276581Y0046186D01*
X0276658Y0045992D01*
X0276731Y0045797D01*
X0276799Y0045599D01*
X0276862Y0045400D01*
X0276920Y0045200D01*
X0276973Y0044998D01*
X0277021Y0044795D01*
X0277065Y0044591D01*
X0277103Y0044386D01*
X0277136Y0044180D01*
X0277164Y0043973D01*
X0277187Y0043766D01*
X0277205Y0043558D01*
X0277218Y0043350D01*
X0277225Y0043142D01*
X0277228Y0042933D01*
X0277225Y0042724D01*
X0277218Y0042516D01*
X0277205Y0042308D01*
X0277187Y0042100D01*
X0277164Y0041893D01*
X0277136Y0041686D01*
X0277103Y0041480D01*
X0277065Y0041275D01*
X0277021Y0041071D01*
X0276973Y0040868D01*
X0276920Y0040666D01*
X0276862Y0040466D01*
X0276799Y0040267D01*
X0276731Y0040069D01*
X0276658Y0039874D01*
X0276581Y0039680D01*
X0276499Y0039488D01*
X0276412Y0039299D01*
X0276320Y0039111D01*
X0276224Y0038926D01*
X0276124Y0038743D01*
X0276019Y0038563D01*
X0275909Y0038386D01*
X0275795Y0038211D01*
X0275677Y0038039D01*
X0275555Y0037870D01*
X0275429Y0037704D01*
X0275299Y0037541D01*
X0275164Y0037381D01*
X0275026Y0037225D01*
X0274884Y0037072D01*
X0274738Y0036923D01*
X0274589Y0036777D01*
X0274436Y0036635D01*
X0274280Y0036497D01*
X0274120Y0036362D01*
X0273957Y0036232D01*
X0273791Y0036106D01*
X0273622Y0035984D01*
X0273450Y0035866D01*
X0273275Y0035752D01*
X0273098Y0035642D01*
X0272918Y0035537D01*
X0272735Y0035437D01*
X0272550Y0035341D01*
X0272362Y0035249D01*
X0272173Y0035162D01*
X0271981Y0035080D01*
X0271787Y0035003D01*
X0271592Y0034930D01*
X0271394Y0034862D01*
X0271195Y0034799D01*
X0270995Y0034741D01*
X0270793Y0034688D01*
X0270590Y0034640D01*
X0270386Y0034596D01*
X0270181Y0034558D01*
X0269975Y0034525D01*
X0269768Y0034497D01*
X0269561Y0034474D01*
X0269353Y0034456D01*
X0269145Y0034443D01*
X0268937Y0034436D01*
X0268728Y0034433D01*
X0268519Y0034436D01*
X0268311Y0034443D01*
X0268103Y0034456D01*
X0267895Y0034474D01*
X0267688Y0034497D01*
X0267481Y0034525D01*
X0267275Y0034558D01*
X0267070Y0034596D01*
X0266866Y0034640D01*
X0266663Y0034688D01*
X0266461Y0034741D01*
X0266261Y0034799D01*
X0266062Y0034862D01*
X0265864Y0034930D01*
X0265669Y0035003D01*
X0265475Y0035080D01*
X0265283Y0035162D01*
X0265094Y0035249D01*
X0264906Y0035341D01*
X0264721Y0035437D01*
X0264538Y0035537D01*
X0264358Y0035642D01*
X0264181Y0035752D01*
X0264006Y0035866D01*
X0263834Y0035984D01*
X0263665Y0036106D01*
X0263499Y0036232D01*
X0263336Y0036362D01*
X0263176Y0036497D01*
X0263020Y0036635D01*
X0262867Y0036777D01*
X0262718Y0036923D01*
X0262572Y0037072D01*
X0262430Y0037225D01*
X0262292Y0037381D01*
X0262157Y0037541D01*
X0262027Y0037704D01*
X0261901Y0037870D01*
X0261779Y0038039D01*
X0261661Y0038211D01*
X0261547Y0038386D01*
X0261437Y0038563D01*
X0261332Y0038743D01*
X0261232Y0038926D01*
X0261136Y0039111D01*
X0261044Y0039299D01*
X0260957Y0039488D01*
X0260875Y0039680D01*
X0260798Y0039874D01*
X0260725Y0040069D01*
X0260657Y0040267D01*
X0260594Y0040466D01*
X0260536Y0040666D01*
X0260483Y0040868D01*
X0260435Y0041071D01*
X0260391Y0041275D01*
X0260353Y0041480D01*
X0260320Y0041686D01*
X0260292Y0041893D01*
X0260269Y0042100D01*
X0260251Y0042308D01*
X0260238Y0042516D01*
X0260231Y0042724D01*
X0260228Y0042933D01*
X0176826Y0031926D02*
X0172630Y0031926D01*
X0166826Y0031926D02*
X0152630Y0031926D01*
X0155829Y0035124D02*
X0163628Y0035124D01*
X0163428Y0038323D02*
X0156028Y0038323D01*
X0155050Y0041521D02*
X0164407Y0041521D01*
X0368627Y0275012D02*
X0368868Y0275012D01*
X0369328Y0278211D02*
X0372067Y0278211D01*
X0375265Y0281410D02*
X0368632Y0281410D01*
D11*
X0363693Y0160933D03*
X0346764Y0160933D03*
X0268693Y0160933D03*
X0251764Y0160933D03*
X0173693Y0160933D03*
X0156764Y0160933D03*
X0078693Y0160933D03*
X0061764Y0160933D03*
D12*
X0082382Y0144531D03*
X0089075Y0144531D03*
X0097083Y0144531D03*
X0103776Y0144531D03*
G36*
X0061623Y0101421D02*
X0064684Y0098360D01*
X0061901Y0095577D01*
X0058840Y0098638D01*
X0061623Y0101421D01*
G37*
G36*
X0066356Y0096689D02*
X0069417Y0093628D01*
X0066634Y0090845D01*
X0063573Y0093906D01*
X0066356Y0096689D01*
G37*
X0177382Y0144531D03*
X0184075Y0144531D03*
X0192083Y0144531D03*
X0198776Y0144531D03*
X0272382Y0144531D03*
X0279075Y0144531D03*
X0287083Y0144531D03*
X0293776Y0144531D03*
G36*
X0349817Y0093438D02*
X0346756Y0090377D01*
X0343973Y0093160D01*
X0347034Y0096221D01*
X0349817Y0093438D01*
G37*
G36*
X0345084Y0088706D02*
X0342023Y0085645D01*
X0339240Y0088428D01*
X0342301Y0091489D01*
X0345084Y0088706D01*
G37*
X0367382Y0144531D03*
X0374075Y0144531D03*
X0382083Y0144531D03*
X0388776Y0144531D03*
D13*
X0379287Y0153693D03*
X0374169Y0153693D03*
X0376728Y0161173D03*
X0284287Y0153693D03*
X0279169Y0153693D03*
X0281728Y0161173D03*
X0189287Y0153693D03*
X0184169Y0153693D03*
X0186728Y0161173D03*
X0094287Y0153693D03*
X0089169Y0153693D03*
X0091728Y0161173D03*
D14*
X0074484Y0146937D02*
X0074484Y0142449D01*
X0068972Y0142449D01*
X0068972Y0146937D01*
X0074484Y0146937D01*
X0074484Y0143944D02*
X0068972Y0143944D01*
X0068972Y0145439D02*
X0074484Y0145439D01*
X0074484Y0146934D02*
X0068972Y0146934D01*
X0064484Y0146937D02*
X0064484Y0142449D01*
X0058972Y0142449D01*
X0058972Y0146937D01*
X0064484Y0146937D01*
X0064484Y0143944D02*
X0058972Y0143944D01*
X0058972Y0145439D02*
X0064484Y0145439D01*
X0064484Y0146934D02*
X0058972Y0146934D01*
X0064484Y0109417D02*
X0064484Y0104929D01*
X0058972Y0104929D01*
X0058972Y0109417D01*
X0064484Y0109417D01*
X0064484Y0106424D02*
X0058972Y0106424D01*
X0058972Y0107919D02*
X0064484Y0107919D01*
X0064484Y0109414D02*
X0058972Y0109414D01*
X0074484Y0109417D02*
X0074484Y0104929D01*
X0068972Y0104929D01*
X0068972Y0109417D01*
X0074484Y0109417D01*
X0074484Y0106424D02*
X0068972Y0106424D01*
X0068972Y0107919D02*
X0074484Y0107919D01*
X0074484Y0109414D02*
X0068972Y0109414D01*
X0159484Y0109417D02*
X0159484Y0104929D01*
X0153972Y0104929D01*
X0153972Y0109417D01*
X0159484Y0109417D01*
X0159484Y0106424D02*
X0153972Y0106424D01*
X0153972Y0107919D02*
X0159484Y0107919D01*
X0159484Y0109414D02*
X0153972Y0109414D01*
X0169484Y0109417D02*
X0169484Y0104929D01*
X0163972Y0104929D01*
X0163972Y0109417D01*
X0169484Y0109417D01*
X0169484Y0106424D02*
X0163972Y0106424D01*
X0163972Y0107919D02*
X0169484Y0107919D01*
X0169484Y0109414D02*
X0163972Y0109414D01*
X0169484Y0142449D02*
X0169484Y0146937D01*
X0169484Y0142449D02*
X0163972Y0142449D01*
X0163972Y0146937D01*
X0169484Y0146937D01*
X0169484Y0143944D02*
X0163972Y0143944D01*
X0163972Y0145439D02*
X0169484Y0145439D01*
X0169484Y0146934D02*
X0163972Y0146934D01*
X0159484Y0146937D02*
X0159484Y0142449D01*
X0153972Y0142449D01*
X0153972Y0146937D01*
X0159484Y0146937D01*
X0159484Y0143944D02*
X0153972Y0143944D01*
X0153972Y0145439D02*
X0159484Y0145439D01*
X0159484Y0146934D02*
X0153972Y0146934D01*
X0254484Y0146937D02*
X0254484Y0142449D01*
X0248972Y0142449D01*
X0248972Y0146937D01*
X0254484Y0146937D01*
X0254484Y0143944D02*
X0248972Y0143944D01*
X0248972Y0145439D02*
X0254484Y0145439D01*
X0254484Y0146934D02*
X0248972Y0146934D01*
X0264484Y0146937D02*
X0264484Y0142449D01*
X0258972Y0142449D01*
X0258972Y0146937D01*
X0264484Y0146937D01*
X0264484Y0143944D02*
X0258972Y0143944D01*
X0258972Y0145439D02*
X0264484Y0145439D01*
X0264484Y0146934D02*
X0258972Y0146934D01*
X0264484Y0109417D02*
X0264484Y0104929D01*
X0258972Y0104929D01*
X0258972Y0109417D01*
X0264484Y0109417D01*
X0264484Y0106424D02*
X0258972Y0106424D01*
X0258972Y0107919D02*
X0264484Y0107919D01*
X0264484Y0109414D02*
X0258972Y0109414D01*
X0254484Y0109417D02*
X0254484Y0104929D01*
X0248972Y0104929D01*
X0248972Y0109417D01*
X0254484Y0109417D01*
X0254484Y0106424D02*
X0248972Y0106424D01*
X0248972Y0107919D02*
X0254484Y0107919D01*
X0254484Y0109414D02*
X0248972Y0109414D01*
X0349484Y0109417D02*
X0349484Y0104929D01*
X0343972Y0104929D01*
X0343972Y0109417D01*
X0349484Y0109417D01*
X0349484Y0106424D02*
X0343972Y0106424D01*
X0343972Y0107919D02*
X0349484Y0107919D01*
X0349484Y0109414D02*
X0343972Y0109414D01*
X0359484Y0109417D02*
X0359484Y0104929D01*
X0353972Y0104929D01*
X0353972Y0109417D01*
X0359484Y0109417D01*
X0359484Y0106424D02*
X0353972Y0106424D01*
X0353972Y0107919D02*
X0359484Y0107919D01*
X0359484Y0109414D02*
X0353972Y0109414D01*
X0359484Y0142449D02*
X0359484Y0146937D01*
X0359484Y0142449D02*
X0353972Y0142449D01*
X0353972Y0146937D01*
X0359484Y0146937D01*
X0359484Y0143944D02*
X0353972Y0143944D01*
X0353972Y0145439D02*
X0359484Y0145439D01*
X0359484Y0146934D02*
X0353972Y0146934D01*
X0349484Y0146937D02*
X0349484Y0142449D01*
X0343972Y0142449D01*
X0343972Y0146937D01*
X0349484Y0146937D01*
X0349484Y0143944D02*
X0343972Y0143944D01*
X0343972Y0145439D02*
X0349484Y0145439D01*
X0349484Y0146934D02*
X0343972Y0146934D01*
D15*
X0346728Y0178933D03*
X0376728Y0178933D03*
X0346728Y0218933D03*
X0346728Y0248933D03*
X0251728Y0248933D03*
X0251728Y0218933D03*
X0251728Y0178933D03*
X0281728Y0178933D03*
X0186728Y0178933D03*
X0156728Y0178933D03*
X0156728Y0218933D03*
X0156728Y0248933D03*
X0061728Y0248933D03*
X0061728Y0218933D03*
X0061728Y0178933D03*
X0091728Y0178933D03*
D16*
X0156728Y0094280D03*
X0156728Y0087587D03*
X0251728Y0087587D03*
X0251728Y0094280D03*
D17*
X0249728Y0047933D03*
X0239728Y0047933D03*
X0229728Y0047933D03*
X0219728Y0047933D03*
X0209728Y0047933D03*
X0199728Y0047933D03*
X0189728Y0047933D03*
X0179728Y0047933D03*
X0169728Y0047933D03*
X0159728Y0047933D03*
X0149728Y0047933D03*
X0139728Y0047933D03*
X0129728Y0047933D03*
X0119728Y0047933D03*
X0109728Y0047933D03*
X0099728Y0047933D03*
X0089728Y0047933D03*
X0079728Y0047933D03*
X0069728Y0047933D03*
X0059728Y0047933D03*
X0059728Y0037933D03*
X0069728Y0037933D03*
X0079728Y0037933D03*
X0089728Y0037933D03*
X0099728Y0037933D03*
X0109728Y0037933D03*
X0119728Y0037933D03*
X0129728Y0037933D03*
X0139728Y0037933D03*
X0149728Y0037933D03*
X0159728Y0037933D03*
X0169728Y0037933D03*
X0179728Y0037933D03*
X0189728Y0037933D03*
X0199728Y0037933D03*
X0209728Y0037933D03*
X0219728Y0037933D03*
X0229728Y0037933D03*
X0239728Y0037933D03*
X0249728Y0037933D03*
D18*
X0247043Y0268374D03*
X0239169Y0278217D03*
X0266728Y0278217D03*
X0286413Y0268374D03*
X0294287Y0278217D03*
X0334169Y0278217D03*
X0342043Y0268374D03*
X0361728Y0278217D03*
X0381413Y0268374D03*
X0389287Y0278217D03*
X0371571Y0317587D03*
X0351886Y0317587D03*
X0276571Y0317587D03*
X0256886Y0317587D03*
X0199287Y0278217D03*
X0191413Y0268374D03*
X0171728Y0278217D03*
X0152043Y0268374D03*
X0144169Y0278217D03*
X0104287Y0278217D03*
X0096413Y0268374D03*
X0076728Y0278217D03*
X0057043Y0268374D03*
X0049169Y0278217D03*
X0066886Y0317587D03*
X0086571Y0317587D03*
X0161886Y0317587D03*
X0181571Y0317587D03*
D19*
X0206728Y0239142D03*
X0206728Y0224732D03*
X0206728Y0207134D03*
X0206728Y0192724D03*
X0111728Y0192724D03*
X0111728Y0207134D03*
X0111728Y0224732D03*
X0111728Y0239142D03*
X0301728Y0239142D03*
X0301728Y0224732D03*
X0301728Y0207134D03*
X0301728Y0192724D03*
X0396728Y0192724D03*
X0396728Y0207134D03*
X0396728Y0224732D03*
X0396728Y0239142D03*
D20*
X0397728Y0032933D03*
X0407728Y0032933D03*
X0380528Y0032933D03*
X0370528Y0032933D03*
X0351728Y0032933D03*
X0341728Y0032933D03*
X0322728Y0032933D03*
X0312728Y0032933D03*
D21*
X0116728Y0064933D03*
X0106728Y0064933D03*
D22*
X0095128Y0076533D01*
X0095128Y0088433D01*
X0090728Y0077933D02*
X0062728Y0077933D01*
X0052728Y0067933D01*
X0052728Y0031933D01*
X0062728Y0021933D01*
X0109728Y0021933D01*
X0119728Y0031933D01*
X0119728Y0037933D01*
X0119728Y0047933D02*
X0119728Y0049933D01*
X0110728Y0058933D01*
X0103728Y0058933D01*
X0092728Y0069933D01*
X0092728Y0071933D01*
X0061762Y0098499D02*
X0061728Y0098533D01*
X0061728Y0107173D01*
X0061728Y0144693D02*
X0061728Y0160898D01*
X0061764Y0160933D01*
X0061764Y0178898D01*
X0061728Y0178933D01*
X0078693Y0160933D02*
X0091488Y0160933D01*
X0091728Y0161173D01*
X0091728Y0178933D01*
X0089169Y0153693D02*
X0089169Y0144733D01*
X0089369Y0144533D01*
X0097083Y0144531D01*
X0089169Y0144628D02*
X0089075Y0144531D01*
X0089169Y0144628D02*
X0089169Y0144733D01*
X0082382Y0144531D02*
X0082222Y0144693D01*
X0071728Y0144693D01*
X0156728Y0144693D02*
X0156728Y0160898D01*
X0156764Y0160933D01*
X0156764Y0178898D01*
X0156728Y0178933D01*
X0173693Y0160933D02*
X0186488Y0160933D01*
X0186728Y0161173D01*
X0186728Y0178933D01*
X0184169Y0153693D02*
X0184169Y0144733D01*
X0184369Y0144533D01*
X0192083Y0144531D01*
X0184169Y0144628D02*
X0184075Y0144531D01*
X0184169Y0144628D02*
X0184169Y0144733D01*
X0177382Y0144531D02*
X0177222Y0144693D01*
X0166728Y0144693D01*
X0156728Y0107173D02*
X0156728Y0094280D01*
X0180728Y0092933D02*
X0186528Y0092933D01*
X0194228Y0085233D01*
X0251728Y0094280D02*
X0251728Y0107173D01*
X0251728Y0144693D02*
X0251728Y0160898D01*
X0251764Y0160933D01*
X0251764Y0178898D01*
X0251728Y0178933D01*
X0268693Y0160933D02*
X0281488Y0160933D01*
X0281728Y0161173D01*
X0281728Y0178933D01*
X0279169Y0153693D02*
X0279169Y0144733D01*
X0279369Y0144533D01*
X0287083Y0144531D01*
X0279169Y0144628D02*
X0279075Y0144531D01*
X0279169Y0144628D02*
X0279169Y0144733D01*
X0272382Y0144531D02*
X0272222Y0144693D01*
X0261728Y0144693D01*
X0346728Y0144693D02*
X0346728Y0160898D01*
X0346764Y0160933D01*
X0346764Y0178898D01*
X0346728Y0178933D01*
X0363693Y0160933D02*
X0376488Y0160933D01*
X0376728Y0161173D01*
X0376728Y0178933D01*
X0374169Y0153693D02*
X0374169Y0144733D01*
X0374369Y0144533D01*
X0382083Y0144531D01*
X0374169Y0144628D02*
X0374075Y0144531D01*
X0374169Y0144628D02*
X0374169Y0144733D01*
X0367382Y0144531D02*
X0367222Y0144693D01*
X0356728Y0144693D01*
D23*
X0330128Y0088533D03*
X0296728Y0070933D03*
X0286728Y0075933D03*
X0276728Y0070933D03*
X0266728Y0075933D03*
X0256728Y0070933D03*
X0251728Y0057933D03*
X0213728Y0084933D03*
X0194228Y0085233D03*
X0179728Y0082933D03*
X0180728Y0092933D03*
X0173728Y0098933D03*
X0176728Y0106933D03*
X0191728Y0112933D03*
X0169528Y0058533D03*
X0129828Y0027333D03*
X0092728Y0071933D03*
X0090728Y0077933D03*
X0095128Y0088433D03*
X0088528Y0093733D03*
X0043828Y0027233D03*
X0299728Y0053933D03*
D24*
X0316728Y0074933D03*
D25*
X0330128Y0088533D02*
X0342128Y0088533D01*
X0342162Y0088567D01*
X0346895Y0093299D02*
X0346895Y0107007D01*
X0346728Y0107173D01*
X0299728Y0053933D02*
X0299728Y0033933D01*
X0287728Y0021933D01*
X0147728Y0021933D01*
X0139728Y0029933D01*
X0139728Y0037933D01*
X0179728Y0079933D02*
X0199728Y0059933D01*
X0199728Y0047933D01*
X0215491Y0057170D02*
X0185075Y0087587D01*
X0156728Y0087587D01*
X0173728Y0098933D02*
X0187728Y0098933D01*
X0220728Y0065933D01*
X0225728Y0065933D01*
X0239728Y0051933D01*
X0239728Y0047933D01*
X0229728Y0047933D02*
X0229728Y0050933D01*
X0223491Y0057170D01*
X0215491Y0057170D01*
X0251728Y0057933D02*
X0251728Y0087587D01*
X0213728Y0084933D02*
X0213728Y0102933D01*
X0203728Y0112933D01*
X0191728Y0112933D01*
X0179728Y0082933D02*
X0179728Y0079933D01*
X0088528Y0093733D02*
X0066528Y0093733D01*
X0066495Y0093767D01*
D26*
X0307728Y0064933D03*
M02*
