%
M48
M72
T01C0.01378
T02C0.02200
T03C0.02953
T04C0.03300
T05C0.03400
T06C0.04000
T07C0.04724
T08C0.05600
T09C0.06496
T10C0.12205
%
T01
X61764Y178898
X62728Y178933
X37728Y202933
X63728Y216933
X76972Y248933
X168528Y207134
X163728Y185933
X156764Y178898
X149728Y185933
X251728Y179933
X251764Y178898
X258728Y185933
X263528Y207134
X266972Y248933
X171972Y248933
X339728Y185933
X346764Y178898
X358528Y207134
X361972Y248933
T02
X43828Y27233
X92728Y71933
X90728Y77933
X95128Y88433
X88528Y93733
X169528Y58533
X179728Y82933
X194228Y85233
X180728Y92933
X173728Y98933
X176728Y106933
X191728Y112933
X213728Y84933
X256728Y70933
X266728Y75933
X276728Y70933
X286728Y75933
X296728Y70933
X299728Y53933
X251728Y57933
X330128Y88533
X129828Y27333
T03
X156728Y178933
X186728Y178933
X251728Y178933
X281728Y178933
X346728Y178933
X376728Y178933
X426728Y178933
X456728Y178933
X496728Y178933
X526728Y178933
X566728Y178933
X596728Y178933
X646728Y178933
X676728Y178933
X646728Y218933
X646728Y248933
X566728Y248933
X566728Y218933
X496728Y218933
X496728Y248933
X426728Y248933
X426728Y218933
X376728Y238933
X346728Y248933
X346728Y218933
X281728Y238933
X251728Y248933
X251728Y218933
X186728Y238933
X156728Y248933
X156728Y218933
X91728Y238933
X61728Y248933
X61728Y218933
X61728Y178933
X91728Y178933
T04
X307728Y64933
T05
X316728Y74933
T06
X249728Y47933
X239728Y47933
X229728Y47933
X219728Y47933
X209728Y47933
X199728Y47933
X189728Y47933
X179728Y47933
X169728Y47933
X159728Y47933
X149728Y47933
X139728Y47933
X129728Y47933
X119728Y47933
X109728Y47933
X99728Y47933
X89728Y47933
X79728Y47933
X69728Y47933
X59728Y47933
X59728Y37933
X69728Y37933
X79728Y37933
X89728Y37933
X99728Y37933
X109728Y37933
X119728Y37933
X129728Y37933
X139728Y37933
X149728Y37933
X159728Y37933
X169728Y37933
X179728Y37933
X189728Y37933
X199728Y37933
X209728Y37933
X219728Y37933
X229728Y37933
X239728Y37933
X249728Y37933
X116728Y64933
X106728Y64933
T07
X335201Y30433
X354886Y30433
X374571Y30433
X394256Y30433
T08
X387043Y268374
X379169Y278217
X406728Y278217
X426413Y268374
X434287Y278217
X464169Y278217
X472043Y268374
X491728Y278217
X511413Y268374
X519287Y278217
X549169Y278217
X557043Y268374
X576728Y278217
X596413Y268374
X604287Y278217
X634169Y278217
X642043Y268374
X661728Y278217
X681413Y268374
X689287Y278217
X671571Y317587
X651886Y317587
X586571Y317587
X566886Y317587
X501571Y317587
X481886Y317587
X416571Y317587
X396886Y317587
X349287Y278217
X341413Y268374
X321728Y278217
X302043Y268374
X294169Y278217
X264287Y278217
X256413Y268374
X236728Y278217
X217043Y268374
X209169Y278217
X179287Y278217
X171413Y268374
X151728Y278217
X132043Y268374
X124169Y278217
X94287Y278217
X86413Y268374
X66728Y278217
X47043Y268374
X39169Y278217
X56886Y317587
X76571Y317587
X141886Y317587
X161571Y317587
X226886Y317587
X246571Y317587
X311886Y317587
X331571Y317587
T09
X301728Y239142
X301728Y224732
X301728Y207134
X301728Y192724
X206728Y192724
X206728Y207134
X206728Y224732
X206728Y239142
X111728Y239142
X111728Y224732
X111728Y207134
X111728Y192724
X396728Y192724
X396728Y207134
X396728Y224732
X396728Y239142
T10
X268902Y42933
X40555Y42933
X40555Y235846
M30
