G75*
%MOIN*%
%OFA0B0*%
%FSLAX25Y25*%
%IPPOS*%
%LPD*%
%AMOC8*
5,1,8,0,0,1.08239X$1,22.5*
%
%ADD10C,0.00400*%
%ADD11R,0.01800X0.03000*%
%ADD12R,0.03000X0.01800*%
%ADD13C,0.00500*%
%ADD14C,0.01000*%
%ADD15C,0.00800*%
%ADD16C,0.01500*%
%ADD17C,0.00600*%
%ADD18C,0.00000*%
%ADD19C,0.00001*%
%ADD20C,0.00300*%
D10*
X0043302Y0097333D02*
X0045857Y0097333D01*
X0044580Y0097333D02*
X0044580Y0101933D01*
X0045857Y0100911D01*
X0048185Y0099889D02*
X0050357Y0097333D01*
X0047802Y0097333D01*
X0050357Y0100911D02*
X0050332Y0100981D01*
X0050304Y0101050D01*
X0050273Y0101117D01*
X0050238Y0101183D01*
X0050200Y0101246D01*
X0050158Y0101308D01*
X0050114Y0101368D01*
X0050067Y0101425D01*
X0050017Y0101480D01*
X0049964Y0101532D01*
X0049908Y0101582D01*
X0049851Y0101628D01*
X0049790Y0101672D01*
X0049728Y0101713D01*
X0049664Y0101750D01*
X0049598Y0101784D01*
X0049530Y0101815D01*
X0049461Y0101842D01*
X0049391Y0101866D01*
X0049320Y0101887D01*
X0049247Y0101903D01*
X0049174Y0101916D01*
X0049100Y0101926D01*
X0049026Y0101931D01*
X0048952Y0101933D01*
X0048885Y0101931D01*
X0048818Y0101925D01*
X0048752Y0101916D01*
X0048687Y0101902D01*
X0048622Y0101885D01*
X0048559Y0101864D01*
X0048497Y0101839D01*
X0048436Y0101811D01*
X0048377Y0101779D01*
X0048320Y0101744D01*
X0048265Y0101705D01*
X0048213Y0101664D01*
X0048163Y0101619D01*
X0048116Y0101572D01*
X0048071Y0101522D01*
X0048030Y0101470D01*
X0047991Y0101415D01*
X0047956Y0101358D01*
X0047924Y0101299D01*
X0047896Y0101238D01*
X0047871Y0101176D01*
X0047850Y0101113D01*
X0047833Y0101048D01*
X0047819Y0100983D01*
X0047810Y0100917D01*
X0047804Y0100850D01*
X0047802Y0100783D01*
X0047804Y0100716D01*
X0047809Y0100650D01*
X0047818Y0100584D01*
X0047831Y0100518D01*
X0047847Y0100454D01*
X0047866Y0100390D01*
X0047889Y0100327D01*
X0047915Y0100266D01*
X0047945Y0100206D01*
X0047978Y0100148D01*
X0048013Y0100092D01*
X0048052Y0100038D01*
X0048094Y0099986D01*
X0048138Y0099936D01*
X0048185Y0099889D01*
X0052273Y0097333D02*
X0053295Y0099378D01*
X0053551Y0099378D02*
X0054828Y0099378D01*
X0053551Y0099377D02*
X0053481Y0099379D01*
X0053410Y0099385D01*
X0053341Y0099394D01*
X0053272Y0099408D01*
X0053203Y0099425D01*
X0053136Y0099446D01*
X0053070Y0099471D01*
X0053006Y0099499D01*
X0052943Y0099531D01*
X0052882Y0099566D01*
X0052823Y0099605D01*
X0052766Y0099646D01*
X0052712Y0099691D01*
X0052660Y0099739D01*
X0052611Y0099789D01*
X0052564Y0099843D01*
X0052521Y0099898D01*
X0052481Y0099956D01*
X0052444Y0100016D01*
X0052411Y0100078D01*
X0052381Y0100142D01*
X0052354Y0100207D01*
X0052331Y0100273D01*
X0052312Y0100341D01*
X0052297Y0100410D01*
X0052285Y0100479D01*
X0052277Y0100549D01*
X0052273Y0100620D01*
X0052273Y0100690D01*
X0052277Y0100761D01*
X0052285Y0100831D01*
X0052297Y0100900D01*
X0052312Y0100969D01*
X0052331Y0101037D01*
X0052354Y0101103D01*
X0052381Y0101168D01*
X0052411Y0101232D01*
X0052444Y0101294D01*
X0052481Y0101354D01*
X0052521Y0101412D01*
X0052564Y0101467D01*
X0052611Y0101521D01*
X0052660Y0101571D01*
X0052712Y0101619D01*
X0052766Y0101664D01*
X0052823Y0101705D01*
X0052882Y0101744D01*
X0052943Y0101779D01*
X0053006Y0101811D01*
X0053070Y0101839D01*
X0053136Y0101864D01*
X0053203Y0101885D01*
X0053272Y0101902D01*
X0053341Y0101916D01*
X0053410Y0101925D01*
X0053481Y0101931D01*
X0053551Y0101933D01*
X0054828Y0101933D01*
X0054828Y0097333D01*
X0054828Y0107333D02*
X0054828Y0111933D01*
X0053551Y0111933D01*
X0053481Y0111931D01*
X0053410Y0111925D01*
X0053341Y0111916D01*
X0053272Y0111902D01*
X0053203Y0111885D01*
X0053136Y0111864D01*
X0053070Y0111839D01*
X0053006Y0111811D01*
X0052943Y0111779D01*
X0052882Y0111744D01*
X0052823Y0111705D01*
X0052766Y0111664D01*
X0052712Y0111619D01*
X0052660Y0111571D01*
X0052611Y0111521D01*
X0052564Y0111467D01*
X0052521Y0111412D01*
X0052481Y0111354D01*
X0052444Y0111294D01*
X0052411Y0111232D01*
X0052381Y0111168D01*
X0052354Y0111103D01*
X0052331Y0111037D01*
X0052312Y0110969D01*
X0052297Y0110900D01*
X0052285Y0110831D01*
X0052277Y0110761D01*
X0052273Y0110690D01*
X0052273Y0110620D01*
X0052277Y0110549D01*
X0052285Y0110479D01*
X0052297Y0110410D01*
X0052312Y0110341D01*
X0052331Y0110273D01*
X0052354Y0110207D01*
X0052381Y0110142D01*
X0052411Y0110078D01*
X0052444Y0110016D01*
X0052481Y0109956D01*
X0052521Y0109898D01*
X0052564Y0109843D01*
X0052611Y0109789D01*
X0052660Y0109739D01*
X0052712Y0109691D01*
X0052766Y0109646D01*
X0052823Y0109605D01*
X0052882Y0109566D01*
X0052943Y0109531D01*
X0053006Y0109499D01*
X0053070Y0109471D01*
X0053136Y0109446D01*
X0053203Y0109425D01*
X0053272Y0109408D01*
X0053341Y0109394D01*
X0053410Y0109385D01*
X0053481Y0109379D01*
X0053551Y0109377D01*
X0053551Y0109378D02*
X0054828Y0109378D01*
X0053295Y0109378D02*
X0052273Y0107333D01*
X0050357Y0107333D02*
X0047802Y0107333D01*
X0045857Y0107333D02*
X0043302Y0107333D01*
X0045857Y0107333D02*
X0043685Y0109889D01*
X0044452Y0111933D02*
X0044526Y0111931D01*
X0044600Y0111926D01*
X0044674Y0111916D01*
X0044747Y0111903D01*
X0044820Y0111887D01*
X0044891Y0111866D01*
X0044961Y0111842D01*
X0045030Y0111815D01*
X0045098Y0111784D01*
X0045164Y0111750D01*
X0045228Y0111713D01*
X0045290Y0111672D01*
X0045351Y0111628D01*
X0045408Y0111582D01*
X0045464Y0111532D01*
X0045517Y0111480D01*
X0045567Y0111425D01*
X0045614Y0111368D01*
X0045658Y0111308D01*
X0045700Y0111246D01*
X0045738Y0111183D01*
X0045773Y0111117D01*
X0045804Y0111050D01*
X0045832Y0110981D01*
X0045857Y0110911D01*
X0043685Y0109889D02*
X0043638Y0109936D01*
X0043594Y0109986D01*
X0043552Y0110038D01*
X0043513Y0110092D01*
X0043478Y0110148D01*
X0043445Y0110206D01*
X0043415Y0110266D01*
X0043389Y0110327D01*
X0043366Y0110390D01*
X0043347Y0110454D01*
X0043331Y0110518D01*
X0043318Y0110584D01*
X0043309Y0110650D01*
X0043304Y0110716D01*
X0043302Y0110783D01*
X0043304Y0110850D01*
X0043310Y0110917D01*
X0043319Y0110983D01*
X0043333Y0111048D01*
X0043350Y0111113D01*
X0043371Y0111176D01*
X0043396Y0111238D01*
X0043424Y0111299D01*
X0043456Y0111358D01*
X0043491Y0111415D01*
X0043530Y0111470D01*
X0043571Y0111522D01*
X0043616Y0111572D01*
X0043663Y0111619D01*
X0043713Y0111664D01*
X0043765Y0111705D01*
X0043820Y0111744D01*
X0043877Y0111779D01*
X0043936Y0111811D01*
X0043997Y0111839D01*
X0044059Y0111864D01*
X0044122Y0111885D01*
X0044187Y0111902D01*
X0044252Y0111916D01*
X0044318Y0111925D01*
X0044385Y0111931D01*
X0044452Y0111933D01*
X0048185Y0109889D02*
X0050357Y0107333D01*
X0050357Y0110911D02*
X0050332Y0110981D01*
X0050304Y0111050D01*
X0050273Y0111117D01*
X0050238Y0111183D01*
X0050200Y0111246D01*
X0050158Y0111308D01*
X0050114Y0111368D01*
X0050067Y0111425D01*
X0050017Y0111480D01*
X0049964Y0111532D01*
X0049908Y0111582D01*
X0049851Y0111628D01*
X0049790Y0111672D01*
X0049728Y0111713D01*
X0049664Y0111750D01*
X0049598Y0111784D01*
X0049530Y0111815D01*
X0049461Y0111842D01*
X0049391Y0111866D01*
X0049320Y0111887D01*
X0049247Y0111903D01*
X0049174Y0111916D01*
X0049100Y0111926D01*
X0049026Y0111931D01*
X0048952Y0111933D01*
X0048885Y0111931D01*
X0048818Y0111925D01*
X0048752Y0111916D01*
X0048687Y0111902D01*
X0048622Y0111885D01*
X0048559Y0111864D01*
X0048497Y0111839D01*
X0048436Y0111811D01*
X0048377Y0111779D01*
X0048320Y0111744D01*
X0048265Y0111705D01*
X0048213Y0111664D01*
X0048163Y0111619D01*
X0048116Y0111572D01*
X0048071Y0111522D01*
X0048030Y0111470D01*
X0047991Y0111415D01*
X0047956Y0111358D01*
X0047924Y0111299D01*
X0047896Y0111238D01*
X0047871Y0111176D01*
X0047850Y0111113D01*
X0047833Y0111048D01*
X0047819Y0110983D01*
X0047810Y0110917D01*
X0047804Y0110850D01*
X0047802Y0110783D01*
X0047804Y0110716D01*
X0047809Y0110650D01*
X0047818Y0110584D01*
X0047831Y0110518D01*
X0047847Y0110454D01*
X0047866Y0110390D01*
X0047889Y0110327D01*
X0047915Y0110266D01*
X0047945Y0110206D01*
X0047978Y0110148D01*
X0048013Y0110092D01*
X0048052Y0110038D01*
X0048094Y0109986D01*
X0048138Y0109936D01*
X0048185Y0109889D01*
X0047802Y0118833D02*
X0050357Y0118833D01*
X0048185Y0121389D01*
X0048952Y0123433D02*
X0049026Y0123431D01*
X0049100Y0123426D01*
X0049174Y0123416D01*
X0049247Y0123403D01*
X0049320Y0123387D01*
X0049391Y0123366D01*
X0049461Y0123342D01*
X0049530Y0123315D01*
X0049598Y0123284D01*
X0049664Y0123250D01*
X0049728Y0123213D01*
X0049790Y0123172D01*
X0049851Y0123128D01*
X0049908Y0123082D01*
X0049964Y0123032D01*
X0050017Y0122980D01*
X0050067Y0122925D01*
X0050114Y0122868D01*
X0050158Y0122808D01*
X0050200Y0122746D01*
X0050238Y0122683D01*
X0050273Y0122617D01*
X0050304Y0122550D01*
X0050332Y0122481D01*
X0050357Y0122411D01*
X0048185Y0121389D02*
X0048138Y0121436D01*
X0048094Y0121486D01*
X0048052Y0121538D01*
X0048013Y0121592D01*
X0047978Y0121648D01*
X0047945Y0121706D01*
X0047915Y0121766D01*
X0047889Y0121827D01*
X0047866Y0121890D01*
X0047847Y0121954D01*
X0047831Y0122018D01*
X0047818Y0122084D01*
X0047809Y0122150D01*
X0047804Y0122216D01*
X0047802Y0122283D01*
X0047804Y0122350D01*
X0047810Y0122417D01*
X0047819Y0122483D01*
X0047833Y0122548D01*
X0047850Y0122613D01*
X0047871Y0122676D01*
X0047896Y0122738D01*
X0047924Y0122799D01*
X0047956Y0122858D01*
X0047991Y0122915D01*
X0048030Y0122970D01*
X0048071Y0123022D01*
X0048116Y0123072D01*
X0048163Y0123119D01*
X0048213Y0123164D01*
X0048265Y0123205D01*
X0048320Y0123244D01*
X0048377Y0123279D01*
X0048436Y0123311D01*
X0048497Y0123339D01*
X0048559Y0123364D01*
X0048622Y0123385D01*
X0048687Y0123402D01*
X0048752Y0123416D01*
X0048818Y0123425D01*
X0048885Y0123431D01*
X0048952Y0123433D01*
X0045857Y0123433D02*
X0044324Y0123433D01*
X0044261Y0123431D01*
X0044198Y0123425D01*
X0044136Y0123416D01*
X0044075Y0123402D01*
X0044014Y0123385D01*
X0043955Y0123364D01*
X0043897Y0123339D01*
X0043840Y0123311D01*
X0043786Y0123280D01*
X0043734Y0123245D01*
X0043683Y0123207D01*
X0043635Y0123166D01*
X0043590Y0123122D01*
X0043548Y0123076D01*
X0043508Y0123027D01*
X0043472Y0122976D01*
X0043439Y0122922D01*
X0043409Y0122867D01*
X0043383Y0122809D01*
X0043360Y0122751D01*
X0043341Y0122691D01*
X0043326Y0122630D01*
X0043314Y0122568D01*
X0043306Y0122505D01*
X0043302Y0122442D01*
X0043302Y0122380D01*
X0043306Y0122317D01*
X0043314Y0122254D01*
X0043326Y0122192D01*
X0043341Y0122131D01*
X0043360Y0122071D01*
X0043383Y0122013D01*
X0043409Y0121955D01*
X0043439Y0121900D01*
X0043472Y0121846D01*
X0043508Y0121795D01*
X0043548Y0121746D01*
X0043590Y0121700D01*
X0043635Y0121656D01*
X0043683Y0121615D01*
X0043734Y0121577D01*
X0043786Y0121542D01*
X0043840Y0121511D01*
X0043897Y0121483D01*
X0043955Y0121458D01*
X0044014Y0121437D01*
X0044075Y0121420D01*
X0044136Y0121406D01*
X0044198Y0121397D01*
X0044261Y0121391D01*
X0044324Y0121389D01*
X0045346Y0121389D01*
X0044580Y0121389D02*
X0044510Y0121387D01*
X0044439Y0121381D01*
X0044370Y0121372D01*
X0044301Y0121358D01*
X0044232Y0121341D01*
X0044165Y0121320D01*
X0044099Y0121295D01*
X0044035Y0121267D01*
X0043972Y0121235D01*
X0043911Y0121200D01*
X0043852Y0121161D01*
X0043795Y0121120D01*
X0043741Y0121075D01*
X0043689Y0121027D01*
X0043640Y0120977D01*
X0043593Y0120923D01*
X0043550Y0120868D01*
X0043510Y0120810D01*
X0043473Y0120750D01*
X0043440Y0120688D01*
X0043410Y0120624D01*
X0043383Y0120559D01*
X0043360Y0120493D01*
X0043341Y0120425D01*
X0043326Y0120356D01*
X0043314Y0120287D01*
X0043306Y0120217D01*
X0043302Y0120146D01*
X0043302Y0120076D01*
X0043306Y0120005D01*
X0043314Y0119935D01*
X0043326Y0119866D01*
X0043341Y0119797D01*
X0043360Y0119729D01*
X0043383Y0119663D01*
X0043410Y0119598D01*
X0043440Y0119534D01*
X0043473Y0119472D01*
X0043510Y0119412D01*
X0043550Y0119354D01*
X0043593Y0119299D01*
X0043640Y0119245D01*
X0043689Y0119195D01*
X0043741Y0119147D01*
X0043795Y0119102D01*
X0043852Y0119061D01*
X0043911Y0119022D01*
X0043972Y0118987D01*
X0044035Y0118955D01*
X0044099Y0118927D01*
X0044165Y0118902D01*
X0044232Y0118881D01*
X0044301Y0118864D01*
X0044370Y0118850D01*
X0044439Y0118841D01*
X0044510Y0118835D01*
X0044580Y0118833D01*
X0045857Y0118833D01*
X0052273Y0118833D02*
X0053295Y0120878D01*
X0053551Y0120878D02*
X0054828Y0120878D01*
X0053551Y0120877D02*
X0053481Y0120879D01*
X0053410Y0120885D01*
X0053341Y0120894D01*
X0053272Y0120908D01*
X0053203Y0120925D01*
X0053136Y0120946D01*
X0053070Y0120971D01*
X0053006Y0120999D01*
X0052943Y0121031D01*
X0052882Y0121066D01*
X0052823Y0121105D01*
X0052766Y0121146D01*
X0052712Y0121191D01*
X0052660Y0121239D01*
X0052611Y0121289D01*
X0052564Y0121343D01*
X0052521Y0121398D01*
X0052481Y0121456D01*
X0052444Y0121516D01*
X0052411Y0121578D01*
X0052381Y0121642D01*
X0052354Y0121707D01*
X0052331Y0121773D01*
X0052312Y0121841D01*
X0052297Y0121910D01*
X0052285Y0121979D01*
X0052277Y0122049D01*
X0052273Y0122120D01*
X0052273Y0122190D01*
X0052277Y0122261D01*
X0052285Y0122331D01*
X0052297Y0122400D01*
X0052312Y0122469D01*
X0052331Y0122537D01*
X0052354Y0122603D01*
X0052381Y0122668D01*
X0052411Y0122732D01*
X0052444Y0122794D01*
X0052481Y0122854D01*
X0052521Y0122912D01*
X0052564Y0122967D01*
X0052611Y0123021D01*
X0052660Y0123071D01*
X0052712Y0123119D01*
X0052766Y0123164D01*
X0052823Y0123205D01*
X0052882Y0123244D01*
X0052943Y0123279D01*
X0053006Y0123311D01*
X0053070Y0123339D01*
X0053136Y0123364D01*
X0053203Y0123385D01*
X0053272Y0123402D01*
X0053341Y0123416D01*
X0053410Y0123425D01*
X0053481Y0123431D01*
X0053551Y0123433D01*
X0054828Y0123433D01*
X0054828Y0118833D01*
X0092228Y0134133D02*
X0094784Y0134133D01*
X0093506Y0134133D02*
X0093506Y0138733D01*
X0094784Y0137711D01*
X0096503Y0138733D02*
X0097525Y0138733D01*
X0097587Y0138731D01*
X0097648Y0138726D01*
X0097709Y0138716D01*
X0097770Y0138703D01*
X0097829Y0138687D01*
X0097887Y0138667D01*
X0097944Y0138643D01*
X0098000Y0138616D01*
X0098054Y0138586D01*
X0098106Y0138552D01*
X0098155Y0138516D01*
X0098203Y0138476D01*
X0098248Y0138434D01*
X0098290Y0138389D01*
X0098330Y0138341D01*
X0098366Y0138292D01*
X0098400Y0138240D01*
X0098430Y0138186D01*
X0098457Y0138130D01*
X0098481Y0138073D01*
X0098501Y0138015D01*
X0098517Y0137956D01*
X0098530Y0137895D01*
X0098540Y0137834D01*
X0098545Y0137773D01*
X0098547Y0137711D01*
X0098547Y0135155D01*
X0098545Y0135093D01*
X0098540Y0135032D01*
X0098530Y0134971D01*
X0098517Y0134910D01*
X0098501Y0134851D01*
X0098481Y0134793D01*
X0098457Y0134736D01*
X0098430Y0134680D01*
X0098400Y0134626D01*
X0098366Y0134574D01*
X0098330Y0134525D01*
X0098290Y0134477D01*
X0098248Y0134432D01*
X0098203Y0134390D01*
X0098155Y0134350D01*
X0098106Y0134314D01*
X0098054Y0134280D01*
X0098000Y0134250D01*
X0097944Y0134223D01*
X0097887Y0134199D01*
X0097829Y0134179D01*
X0097770Y0134163D01*
X0097709Y0134150D01*
X0097648Y0134140D01*
X0097587Y0134135D01*
X0097525Y0134133D01*
X0096503Y0134133D01*
X0116722Y0136572D02*
X0119277Y0136572D01*
X0118000Y0136572D02*
X0118000Y0141172D01*
X0119277Y0140150D01*
X0121372Y0141172D02*
X0121372Y0137850D01*
X0121374Y0137780D01*
X0121380Y0137709D01*
X0121389Y0137640D01*
X0121403Y0137571D01*
X0121420Y0137502D01*
X0121441Y0137435D01*
X0121466Y0137369D01*
X0121494Y0137305D01*
X0121526Y0137242D01*
X0121561Y0137181D01*
X0121600Y0137122D01*
X0121641Y0137065D01*
X0121686Y0137011D01*
X0121734Y0136959D01*
X0121784Y0136910D01*
X0121838Y0136863D01*
X0121893Y0136820D01*
X0121951Y0136780D01*
X0122011Y0136743D01*
X0122073Y0136710D01*
X0122137Y0136680D01*
X0122202Y0136653D01*
X0122268Y0136630D01*
X0122336Y0136611D01*
X0122405Y0136596D01*
X0122474Y0136584D01*
X0122544Y0136576D01*
X0122615Y0136572D01*
X0122685Y0136572D01*
X0122756Y0136576D01*
X0122826Y0136584D01*
X0122895Y0136596D01*
X0122964Y0136611D01*
X0123032Y0136630D01*
X0123098Y0136653D01*
X0123163Y0136680D01*
X0123227Y0136710D01*
X0123289Y0136743D01*
X0123349Y0136780D01*
X0123407Y0136820D01*
X0123462Y0136863D01*
X0123516Y0136910D01*
X0123566Y0136959D01*
X0123614Y0137011D01*
X0123659Y0137065D01*
X0123700Y0137122D01*
X0123739Y0137181D01*
X0123774Y0137242D01*
X0123806Y0137305D01*
X0123834Y0137369D01*
X0123859Y0137435D01*
X0123880Y0137502D01*
X0123897Y0137571D01*
X0123911Y0137640D01*
X0123920Y0137709D01*
X0123926Y0137780D01*
X0123928Y0137850D01*
X0123927Y0137850D02*
X0123927Y0141172D01*
X0146451Y0130733D02*
X0147984Y0130733D01*
X0146451Y0130733D02*
X0146388Y0130731D01*
X0146325Y0130725D01*
X0146263Y0130716D01*
X0146202Y0130702D01*
X0146141Y0130685D01*
X0146082Y0130664D01*
X0146024Y0130639D01*
X0145967Y0130611D01*
X0145913Y0130580D01*
X0145861Y0130545D01*
X0145810Y0130507D01*
X0145762Y0130466D01*
X0145717Y0130422D01*
X0145675Y0130376D01*
X0145635Y0130327D01*
X0145599Y0130276D01*
X0145566Y0130222D01*
X0145536Y0130167D01*
X0145510Y0130109D01*
X0145487Y0130051D01*
X0145468Y0129991D01*
X0145453Y0129930D01*
X0145441Y0129868D01*
X0145433Y0129805D01*
X0145429Y0129742D01*
X0145429Y0129680D01*
X0145433Y0129617D01*
X0145441Y0129554D01*
X0145453Y0129492D01*
X0145468Y0129431D01*
X0145487Y0129371D01*
X0145510Y0129313D01*
X0145536Y0129255D01*
X0145566Y0129200D01*
X0145599Y0129146D01*
X0145635Y0129095D01*
X0145675Y0129046D01*
X0145717Y0129000D01*
X0145762Y0128956D01*
X0145810Y0128915D01*
X0145861Y0128877D01*
X0145913Y0128842D01*
X0145967Y0128811D01*
X0146024Y0128783D01*
X0146082Y0128758D01*
X0146141Y0128737D01*
X0146202Y0128720D01*
X0146263Y0128706D01*
X0146325Y0128697D01*
X0146388Y0128691D01*
X0146451Y0128689D01*
X0147473Y0128689D01*
X0146706Y0128689D02*
X0146636Y0128687D01*
X0146565Y0128681D01*
X0146496Y0128672D01*
X0146427Y0128658D01*
X0146358Y0128641D01*
X0146291Y0128620D01*
X0146225Y0128595D01*
X0146161Y0128567D01*
X0146098Y0128535D01*
X0146037Y0128500D01*
X0145978Y0128461D01*
X0145921Y0128420D01*
X0145867Y0128375D01*
X0145815Y0128327D01*
X0145766Y0128277D01*
X0145719Y0128223D01*
X0145676Y0128168D01*
X0145636Y0128110D01*
X0145599Y0128050D01*
X0145566Y0127988D01*
X0145536Y0127924D01*
X0145509Y0127859D01*
X0145486Y0127793D01*
X0145467Y0127725D01*
X0145452Y0127656D01*
X0145440Y0127587D01*
X0145432Y0127517D01*
X0145428Y0127446D01*
X0145428Y0127376D01*
X0145432Y0127305D01*
X0145440Y0127235D01*
X0145452Y0127166D01*
X0145467Y0127097D01*
X0145486Y0127029D01*
X0145509Y0126963D01*
X0145536Y0126898D01*
X0145566Y0126834D01*
X0145599Y0126772D01*
X0145636Y0126712D01*
X0145676Y0126654D01*
X0145719Y0126599D01*
X0145766Y0126545D01*
X0145815Y0126495D01*
X0145867Y0126447D01*
X0145921Y0126402D01*
X0145978Y0126361D01*
X0146037Y0126322D01*
X0146098Y0126287D01*
X0146161Y0126255D01*
X0146225Y0126227D01*
X0146291Y0126202D01*
X0146358Y0126181D01*
X0146427Y0126164D01*
X0146496Y0126150D01*
X0146565Y0126141D01*
X0146636Y0126135D01*
X0146706Y0126133D01*
X0147984Y0126133D01*
X0149928Y0126133D02*
X0152484Y0126133D01*
X0151206Y0126133D02*
X0151206Y0130733D01*
X0152484Y0129711D01*
X0155677Y0130733D02*
X0155607Y0130731D01*
X0155536Y0130725D01*
X0155467Y0130716D01*
X0155398Y0130702D01*
X0155329Y0130685D01*
X0155262Y0130664D01*
X0155196Y0130639D01*
X0155132Y0130611D01*
X0155069Y0130579D01*
X0155008Y0130544D01*
X0154949Y0130505D01*
X0154892Y0130464D01*
X0154838Y0130419D01*
X0154786Y0130371D01*
X0154737Y0130321D01*
X0154690Y0130267D01*
X0154647Y0130212D01*
X0154607Y0130154D01*
X0154570Y0130094D01*
X0154537Y0130032D01*
X0154507Y0129968D01*
X0154480Y0129903D01*
X0154457Y0129837D01*
X0154438Y0129769D01*
X0154423Y0129700D01*
X0154411Y0129631D01*
X0154403Y0129561D01*
X0154399Y0129490D01*
X0154399Y0129420D01*
X0154403Y0129349D01*
X0154411Y0129279D01*
X0154423Y0129210D01*
X0154438Y0129141D01*
X0154457Y0129073D01*
X0154480Y0129007D01*
X0154507Y0128942D01*
X0154537Y0128878D01*
X0154570Y0128816D01*
X0154607Y0128756D01*
X0154647Y0128698D01*
X0154690Y0128643D01*
X0154737Y0128589D01*
X0154786Y0128539D01*
X0154838Y0128491D01*
X0154892Y0128446D01*
X0154949Y0128405D01*
X0155008Y0128366D01*
X0155069Y0128331D01*
X0155132Y0128299D01*
X0155196Y0128271D01*
X0155262Y0128246D01*
X0155329Y0128225D01*
X0155398Y0128208D01*
X0155467Y0128194D01*
X0155536Y0128185D01*
X0155607Y0128179D01*
X0155677Y0128177D01*
X0155677Y0128178D02*
X0156955Y0128178D01*
X0155422Y0128178D02*
X0154399Y0126133D01*
X0156955Y0126133D02*
X0156955Y0130733D01*
X0155677Y0130733D01*
X0160206Y0123233D02*
X0160206Y0118633D01*
X0161484Y0118633D02*
X0158928Y0118633D01*
X0161484Y0122211D02*
X0160206Y0123233D01*
X0164677Y0123233D02*
X0165955Y0123233D01*
X0165955Y0118633D01*
X0165955Y0120678D02*
X0164677Y0120678D01*
X0164422Y0120678D02*
X0163399Y0118633D01*
X0164677Y0120677D02*
X0164607Y0120679D01*
X0164536Y0120685D01*
X0164467Y0120694D01*
X0164398Y0120708D01*
X0164329Y0120725D01*
X0164262Y0120746D01*
X0164196Y0120771D01*
X0164132Y0120799D01*
X0164069Y0120831D01*
X0164008Y0120866D01*
X0163949Y0120905D01*
X0163892Y0120946D01*
X0163838Y0120991D01*
X0163786Y0121039D01*
X0163737Y0121089D01*
X0163690Y0121143D01*
X0163647Y0121198D01*
X0163607Y0121256D01*
X0163570Y0121316D01*
X0163537Y0121378D01*
X0163507Y0121442D01*
X0163480Y0121507D01*
X0163457Y0121573D01*
X0163438Y0121641D01*
X0163423Y0121710D01*
X0163411Y0121779D01*
X0163403Y0121849D01*
X0163399Y0121920D01*
X0163399Y0121990D01*
X0163403Y0122061D01*
X0163411Y0122131D01*
X0163423Y0122200D01*
X0163438Y0122269D01*
X0163457Y0122337D01*
X0163480Y0122403D01*
X0163507Y0122468D01*
X0163537Y0122532D01*
X0163570Y0122594D01*
X0163607Y0122654D01*
X0163647Y0122712D01*
X0163690Y0122767D01*
X0163737Y0122821D01*
X0163786Y0122871D01*
X0163838Y0122919D01*
X0163892Y0122964D01*
X0163949Y0123005D01*
X0164008Y0123044D01*
X0164069Y0123079D01*
X0164132Y0123111D01*
X0164196Y0123139D01*
X0164262Y0123164D01*
X0164329Y0123185D01*
X0164398Y0123202D01*
X0164467Y0123216D01*
X0164536Y0123225D01*
X0164607Y0123231D01*
X0164677Y0123233D01*
X0176177Y0115733D02*
X0177455Y0115733D01*
X0177455Y0111133D01*
X0177455Y0113178D02*
X0176177Y0113178D01*
X0175922Y0113178D02*
X0174899Y0111133D01*
X0172984Y0111133D02*
X0170812Y0113689D01*
X0171578Y0115733D02*
X0171652Y0115731D01*
X0171726Y0115726D01*
X0171800Y0115716D01*
X0171873Y0115703D01*
X0171946Y0115687D01*
X0172017Y0115666D01*
X0172087Y0115642D01*
X0172156Y0115615D01*
X0172224Y0115584D01*
X0172290Y0115550D01*
X0172354Y0115513D01*
X0172416Y0115472D01*
X0172477Y0115428D01*
X0172534Y0115382D01*
X0172590Y0115332D01*
X0172643Y0115280D01*
X0172693Y0115225D01*
X0172740Y0115168D01*
X0172784Y0115108D01*
X0172826Y0115046D01*
X0172864Y0114983D01*
X0172899Y0114917D01*
X0172930Y0114850D01*
X0172958Y0114781D01*
X0172983Y0114711D01*
X0170812Y0113689D02*
X0170765Y0113736D01*
X0170721Y0113786D01*
X0170679Y0113838D01*
X0170640Y0113892D01*
X0170605Y0113948D01*
X0170572Y0114006D01*
X0170542Y0114066D01*
X0170516Y0114127D01*
X0170493Y0114190D01*
X0170474Y0114254D01*
X0170458Y0114318D01*
X0170445Y0114384D01*
X0170436Y0114450D01*
X0170431Y0114516D01*
X0170429Y0114583D01*
X0170428Y0114583D02*
X0170430Y0114650D01*
X0170436Y0114717D01*
X0170445Y0114783D01*
X0170459Y0114848D01*
X0170476Y0114913D01*
X0170497Y0114976D01*
X0170522Y0115038D01*
X0170550Y0115099D01*
X0170582Y0115158D01*
X0170617Y0115215D01*
X0170656Y0115270D01*
X0170697Y0115322D01*
X0170742Y0115372D01*
X0170789Y0115419D01*
X0170839Y0115464D01*
X0170891Y0115505D01*
X0170946Y0115544D01*
X0171003Y0115579D01*
X0171062Y0115611D01*
X0171123Y0115639D01*
X0171185Y0115664D01*
X0171248Y0115685D01*
X0171313Y0115702D01*
X0171378Y0115716D01*
X0171444Y0115725D01*
X0171511Y0115731D01*
X0171578Y0115733D01*
X0176177Y0115733D02*
X0176107Y0115731D01*
X0176036Y0115725D01*
X0175967Y0115716D01*
X0175898Y0115702D01*
X0175829Y0115685D01*
X0175762Y0115664D01*
X0175696Y0115639D01*
X0175632Y0115611D01*
X0175569Y0115579D01*
X0175508Y0115544D01*
X0175449Y0115505D01*
X0175392Y0115464D01*
X0175338Y0115419D01*
X0175286Y0115371D01*
X0175237Y0115321D01*
X0175190Y0115267D01*
X0175147Y0115212D01*
X0175107Y0115154D01*
X0175070Y0115094D01*
X0175037Y0115032D01*
X0175007Y0114968D01*
X0174980Y0114903D01*
X0174957Y0114837D01*
X0174938Y0114769D01*
X0174923Y0114700D01*
X0174911Y0114631D01*
X0174903Y0114561D01*
X0174899Y0114490D01*
X0174899Y0114420D01*
X0174903Y0114349D01*
X0174911Y0114279D01*
X0174923Y0114210D01*
X0174938Y0114141D01*
X0174957Y0114073D01*
X0174980Y0114007D01*
X0175007Y0113942D01*
X0175037Y0113878D01*
X0175070Y0113816D01*
X0175107Y0113756D01*
X0175147Y0113698D01*
X0175190Y0113643D01*
X0175237Y0113589D01*
X0175286Y0113539D01*
X0175338Y0113491D01*
X0175392Y0113446D01*
X0175449Y0113405D01*
X0175508Y0113366D01*
X0175569Y0113331D01*
X0175632Y0113299D01*
X0175696Y0113271D01*
X0175762Y0113246D01*
X0175829Y0113225D01*
X0175898Y0113208D01*
X0175967Y0113194D01*
X0176036Y0113185D01*
X0176107Y0113179D01*
X0176177Y0113177D01*
X0172984Y0111133D02*
X0170428Y0111133D01*
X0255128Y0082211D02*
X0255128Y0080678D01*
X0255129Y0082211D02*
X0255131Y0082273D01*
X0255136Y0082334D01*
X0255146Y0082395D01*
X0255159Y0082456D01*
X0255175Y0082515D01*
X0255195Y0082573D01*
X0255219Y0082630D01*
X0255246Y0082686D01*
X0255276Y0082740D01*
X0255310Y0082792D01*
X0255346Y0082841D01*
X0255386Y0082889D01*
X0255428Y0082934D01*
X0255473Y0082976D01*
X0255521Y0083016D01*
X0255570Y0083052D01*
X0255622Y0083086D01*
X0255676Y0083116D01*
X0255732Y0083143D01*
X0255789Y0083167D01*
X0255847Y0083187D01*
X0255906Y0083203D01*
X0255967Y0083216D01*
X0256028Y0083226D01*
X0256089Y0083231D01*
X0256151Y0083233D01*
X0256662Y0083233D01*
X0256724Y0083231D01*
X0256785Y0083226D01*
X0256846Y0083216D01*
X0256907Y0083203D01*
X0256966Y0083187D01*
X0257024Y0083167D01*
X0257081Y0083143D01*
X0257137Y0083116D01*
X0257191Y0083086D01*
X0257243Y0083052D01*
X0257292Y0083016D01*
X0257340Y0082976D01*
X0257385Y0082934D01*
X0257427Y0082889D01*
X0257467Y0082841D01*
X0257503Y0082792D01*
X0257537Y0082740D01*
X0257567Y0082686D01*
X0257594Y0082630D01*
X0257618Y0082573D01*
X0257638Y0082515D01*
X0257654Y0082456D01*
X0257667Y0082395D01*
X0257677Y0082334D01*
X0257682Y0082273D01*
X0257684Y0082211D01*
X0257684Y0080678D01*
X0259728Y0080678D01*
X0259728Y0083233D01*
X0259728Y0077455D02*
X0255128Y0077455D01*
X0255128Y0076178D02*
X0255128Y0078733D01*
X0258706Y0076178D02*
X0259728Y0077455D01*
X0259728Y0072984D02*
X0259728Y0071707D01*
X0255128Y0071707D01*
X0257173Y0071707D02*
X0257173Y0072984D01*
X0257173Y0073240D02*
X0255128Y0074262D01*
X0257173Y0072984D02*
X0257175Y0073054D01*
X0257181Y0073125D01*
X0257190Y0073194D01*
X0257204Y0073263D01*
X0257221Y0073332D01*
X0257242Y0073399D01*
X0257267Y0073465D01*
X0257295Y0073529D01*
X0257327Y0073592D01*
X0257362Y0073653D01*
X0257401Y0073712D01*
X0257442Y0073769D01*
X0257487Y0073823D01*
X0257535Y0073875D01*
X0257585Y0073924D01*
X0257639Y0073971D01*
X0257694Y0074014D01*
X0257752Y0074054D01*
X0257812Y0074091D01*
X0257874Y0074124D01*
X0257938Y0074154D01*
X0258003Y0074181D01*
X0258069Y0074204D01*
X0258137Y0074223D01*
X0258206Y0074238D01*
X0258275Y0074250D01*
X0258345Y0074258D01*
X0258416Y0074262D01*
X0258486Y0074262D01*
X0258557Y0074258D01*
X0258627Y0074250D01*
X0258696Y0074238D01*
X0258765Y0074223D01*
X0258833Y0074204D01*
X0258899Y0074181D01*
X0258964Y0074154D01*
X0259028Y0074124D01*
X0259090Y0074091D01*
X0259150Y0074054D01*
X0259208Y0074014D01*
X0259263Y0073971D01*
X0259317Y0073924D01*
X0259367Y0073875D01*
X0259415Y0073823D01*
X0259460Y0073769D01*
X0259501Y0073712D01*
X0259540Y0073653D01*
X0259575Y0073592D01*
X0259607Y0073529D01*
X0259635Y0073465D01*
X0259660Y0073399D01*
X0259681Y0073332D01*
X0259698Y0073263D01*
X0259712Y0073194D01*
X0259721Y0073125D01*
X0259727Y0073054D01*
X0259729Y0072984D01*
X0304802Y0066055D02*
X0304802Y0064778D01*
X0306335Y0064778D01*
X0304802Y0064778D02*
X0304804Y0064689D01*
X0304810Y0064600D01*
X0304819Y0064511D01*
X0304833Y0064423D01*
X0304850Y0064336D01*
X0304872Y0064249D01*
X0304897Y0064163D01*
X0304925Y0064079D01*
X0304958Y0063996D01*
X0304994Y0063914D01*
X0305033Y0063834D01*
X0305076Y0063756D01*
X0305122Y0063680D01*
X0305172Y0063606D01*
X0305224Y0063534D01*
X0305280Y0063464D01*
X0305339Y0063397D01*
X0305401Y0063333D01*
X0305465Y0063271D01*
X0305532Y0063212D01*
X0305602Y0063156D01*
X0305674Y0063104D01*
X0305748Y0063054D01*
X0305824Y0063008D01*
X0305902Y0062965D01*
X0305982Y0062926D01*
X0306064Y0062890D01*
X0306147Y0062857D01*
X0306231Y0062829D01*
X0306317Y0062804D01*
X0306404Y0062782D01*
X0306491Y0062765D01*
X0306579Y0062751D01*
X0306668Y0062742D01*
X0306757Y0062736D01*
X0306846Y0062734D01*
X0309302Y0062733D02*
X0311857Y0062733D01*
X0310580Y0062733D02*
X0310580Y0067333D01*
X0311857Y0066311D01*
X0315051Y0067333D02*
X0314981Y0067331D01*
X0314910Y0067325D01*
X0314841Y0067316D01*
X0314772Y0067302D01*
X0314703Y0067285D01*
X0314636Y0067264D01*
X0314570Y0067239D01*
X0314506Y0067211D01*
X0314443Y0067179D01*
X0314382Y0067144D01*
X0314323Y0067105D01*
X0314266Y0067064D01*
X0314212Y0067019D01*
X0314160Y0066971D01*
X0314111Y0066921D01*
X0314064Y0066867D01*
X0314021Y0066812D01*
X0313981Y0066754D01*
X0313944Y0066694D01*
X0313911Y0066632D01*
X0313881Y0066568D01*
X0313854Y0066503D01*
X0313831Y0066437D01*
X0313812Y0066369D01*
X0313797Y0066300D01*
X0313785Y0066231D01*
X0313777Y0066161D01*
X0313773Y0066090D01*
X0313773Y0066020D01*
X0313777Y0065949D01*
X0313785Y0065879D01*
X0313797Y0065810D01*
X0313812Y0065741D01*
X0313831Y0065673D01*
X0313854Y0065607D01*
X0313881Y0065542D01*
X0313911Y0065478D01*
X0313944Y0065416D01*
X0313981Y0065356D01*
X0314021Y0065298D01*
X0314064Y0065243D01*
X0314111Y0065189D01*
X0314160Y0065139D01*
X0314212Y0065091D01*
X0314266Y0065046D01*
X0314323Y0065005D01*
X0314382Y0064966D01*
X0314443Y0064931D01*
X0314506Y0064899D01*
X0314570Y0064871D01*
X0314636Y0064846D01*
X0314703Y0064825D01*
X0314772Y0064808D01*
X0314841Y0064794D01*
X0314910Y0064785D01*
X0314981Y0064779D01*
X0315051Y0064777D01*
X0315051Y0064778D02*
X0316328Y0064778D01*
X0314795Y0064778D02*
X0313773Y0062733D01*
X0316328Y0062733D02*
X0316328Y0067333D01*
X0315051Y0067333D01*
X0307357Y0066055D02*
X0307357Y0065800D01*
X0307355Y0065738D01*
X0307350Y0065677D01*
X0307340Y0065616D01*
X0307327Y0065555D01*
X0307311Y0065496D01*
X0307291Y0065438D01*
X0307267Y0065381D01*
X0307240Y0065325D01*
X0307210Y0065271D01*
X0307176Y0065219D01*
X0307140Y0065170D01*
X0307100Y0065122D01*
X0307058Y0065077D01*
X0307013Y0065035D01*
X0306965Y0064995D01*
X0306916Y0064959D01*
X0306864Y0064925D01*
X0306810Y0064895D01*
X0306754Y0064868D01*
X0306697Y0064844D01*
X0306639Y0064824D01*
X0306580Y0064808D01*
X0306519Y0064795D01*
X0306458Y0064785D01*
X0306397Y0064780D01*
X0306335Y0064778D01*
X0307358Y0066055D02*
X0307356Y0066125D01*
X0307350Y0066196D01*
X0307341Y0066265D01*
X0307327Y0066334D01*
X0307310Y0066403D01*
X0307289Y0066470D01*
X0307264Y0066536D01*
X0307236Y0066600D01*
X0307204Y0066663D01*
X0307169Y0066724D01*
X0307130Y0066783D01*
X0307089Y0066840D01*
X0307044Y0066894D01*
X0306996Y0066946D01*
X0306946Y0066995D01*
X0306892Y0067042D01*
X0306837Y0067085D01*
X0306779Y0067125D01*
X0306719Y0067162D01*
X0306657Y0067195D01*
X0306593Y0067225D01*
X0306528Y0067252D01*
X0306462Y0067275D01*
X0306394Y0067294D01*
X0306325Y0067309D01*
X0306256Y0067321D01*
X0306186Y0067329D01*
X0306115Y0067333D01*
X0306045Y0067333D01*
X0305974Y0067329D01*
X0305904Y0067321D01*
X0305835Y0067309D01*
X0305766Y0067294D01*
X0305698Y0067275D01*
X0305632Y0067252D01*
X0305567Y0067225D01*
X0305503Y0067195D01*
X0305441Y0067162D01*
X0305381Y0067125D01*
X0305323Y0067085D01*
X0305268Y0067042D01*
X0305214Y0066995D01*
X0305164Y0066946D01*
X0305116Y0066894D01*
X0305071Y0066840D01*
X0305030Y0066783D01*
X0304991Y0066724D01*
X0304956Y0066663D01*
X0304924Y0066600D01*
X0304896Y0066536D01*
X0304871Y0066470D01*
X0304850Y0066403D01*
X0304833Y0066334D01*
X0304819Y0066265D01*
X0304810Y0066196D01*
X0304804Y0066125D01*
X0304802Y0066055D01*
X0311288Y0057833D02*
X0311288Y0053233D01*
X0312565Y0053233D02*
X0310010Y0053233D01*
X0305893Y0053872D02*
X0305845Y0053976D01*
X0305799Y0054081D01*
X0305757Y0054187D01*
X0305718Y0054295D01*
X0305682Y0054404D01*
X0305650Y0054514D01*
X0305620Y0054625D01*
X0305595Y0054737D01*
X0305572Y0054849D01*
X0305553Y0054962D01*
X0305538Y0055076D01*
X0305526Y0055190D01*
X0305517Y0055304D01*
X0305512Y0055418D01*
X0305510Y0055533D01*
X0308066Y0055533D02*
X0308064Y0055648D01*
X0308059Y0055762D01*
X0308050Y0055876D01*
X0308038Y0055990D01*
X0308023Y0056104D01*
X0308004Y0056217D01*
X0307981Y0056329D01*
X0307956Y0056441D01*
X0307926Y0056552D01*
X0307894Y0056662D01*
X0307858Y0056771D01*
X0307819Y0056879D01*
X0307777Y0056985D01*
X0307731Y0057090D01*
X0307683Y0057194D01*
X0307683Y0057195D02*
X0307662Y0057250D01*
X0307638Y0057303D01*
X0307611Y0057355D01*
X0307580Y0057405D01*
X0307547Y0057453D01*
X0307510Y0057499D01*
X0307471Y0057543D01*
X0307429Y0057584D01*
X0307385Y0057622D01*
X0307338Y0057658D01*
X0307289Y0057690D01*
X0307238Y0057720D01*
X0307186Y0057746D01*
X0307132Y0057769D01*
X0307077Y0057789D01*
X0307020Y0057805D01*
X0306963Y0057818D01*
X0306905Y0057827D01*
X0306847Y0057832D01*
X0306788Y0057834D01*
X0306788Y0057833D02*
X0306729Y0057831D01*
X0306671Y0057826D01*
X0306613Y0057817D01*
X0306556Y0057804D01*
X0306499Y0057788D01*
X0306444Y0057768D01*
X0306390Y0057745D01*
X0306338Y0057719D01*
X0306287Y0057689D01*
X0306238Y0057657D01*
X0306191Y0057621D01*
X0306147Y0057583D01*
X0306105Y0057542D01*
X0306066Y0057498D01*
X0306029Y0057452D01*
X0305996Y0057404D01*
X0305965Y0057354D01*
X0305938Y0057302D01*
X0305914Y0057249D01*
X0305893Y0057194D01*
X0305765Y0056811D02*
X0307810Y0054255D01*
X0306788Y0053233D02*
X0306729Y0053235D01*
X0306671Y0053240D01*
X0306613Y0053249D01*
X0306556Y0053262D01*
X0306499Y0053278D01*
X0306444Y0053298D01*
X0306390Y0053321D01*
X0306338Y0053347D01*
X0306287Y0053377D01*
X0306238Y0053409D01*
X0306192Y0053445D01*
X0306147Y0053483D01*
X0306105Y0053524D01*
X0306066Y0053568D01*
X0306029Y0053614D01*
X0305996Y0053662D01*
X0305965Y0053712D01*
X0305938Y0053764D01*
X0305914Y0053817D01*
X0305893Y0053872D01*
X0306788Y0053233D02*
X0306847Y0053235D01*
X0306905Y0053240D01*
X0306963Y0053249D01*
X0307020Y0053262D01*
X0307077Y0053278D01*
X0307132Y0053298D01*
X0307186Y0053321D01*
X0307238Y0053347D01*
X0307289Y0053377D01*
X0307338Y0053409D01*
X0307385Y0053445D01*
X0307429Y0053483D01*
X0307471Y0053524D01*
X0307510Y0053568D01*
X0307547Y0053614D01*
X0307580Y0053662D01*
X0307611Y0053712D01*
X0307638Y0053764D01*
X0307662Y0053817D01*
X0307683Y0053872D01*
X0305509Y0055533D02*
X0305511Y0055648D01*
X0305516Y0055762D01*
X0305525Y0055876D01*
X0305537Y0055990D01*
X0305552Y0056104D01*
X0305571Y0056217D01*
X0305594Y0056329D01*
X0305619Y0056441D01*
X0305649Y0056552D01*
X0305681Y0056662D01*
X0305717Y0056771D01*
X0305756Y0056879D01*
X0305798Y0056985D01*
X0305844Y0057090D01*
X0305892Y0057194D01*
X0308065Y0055533D02*
X0308063Y0055418D01*
X0308058Y0055304D01*
X0308049Y0055190D01*
X0308037Y0055076D01*
X0308022Y0054962D01*
X0308003Y0054849D01*
X0307980Y0054737D01*
X0307955Y0054625D01*
X0307925Y0054514D01*
X0307893Y0054404D01*
X0307857Y0054295D01*
X0307818Y0054187D01*
X0307776Y0054081D01*
X0307730Y0053976D01*
X0307682Y0053872D01*
X0311288Y0057833D02*
X0312565Y0056811D01*
X0314284Y0057833D02*
X0315306Y0057833D01*
X0315368Y0057831D01*
X0315429Y0057826D01*
X0315490Y0057816D01*
X0315551Y0057803D01*
X0315610Y0057787D01*
X0315668Y0057767D01*
X0315725Y0057743D01*
X0315781Y0057716D01*
X0315835Y0057686D01*
X0315887Y0057652D01*
X0315936Y0057616D01*
X0315984Y0057576D01*
X0316029Y0057534D01*
X0316071Y0057489D01*
X0316111Y0057441D01*
X0316147Y0057392D01*
X0316181Y0057340D01*
X0316211Y0057286D01*
X0316238Y0057230D01*
X0316262Y0057173D01*
X0316282Y0057115D01*
X0316298Y0057056D01*
X0316311Y0056995D01*
X0316321Y0056934D01*
X0316326Y0056873D01*
X0316328Y0056811D01*
X0316328Y0054255D01*
X0316326Y0054193D01*
X0316321Y0054132D01*
X0316311Y0054071D01*
X0316298Y0054010D01*
X0316282Y0053951D01*
X0316262Y0053893D01*
X0316238Y0053836D01*
X0316211Y0053780D01*
X0316181Y0053726D01*
X0316147Y0053674D01*
X0316111Y0053625D01*
X0316071Y0053577D01*
X0316029Y0053532D01*
X0315984Y0053490D01*
X0315936Y0053450D01*
X0315887Y0053414D01*
X0315835Y0053380D01*
X0315781Y0053350D01*
X0315725Y0053323D01*
X0315668Y0053299D01*
X0315610Y0053279D01*
X0315551Y0053263D01*
X0315490Y0053250D01*
X0315429Y0053240D01*
X0315368Y0053235D01*
X0315306Y0053233D01*
X0314284Y0053233D01*
X0314284Y0047233D02*
X0315306Y0047233D01*
X0315368Y0047231D01*
X0315429Y0047226D01*
X0315490Y0047216D01*
X0315551Y0047203D01*
X0315610Y0047187D01*
X0315668Y0047167D01*
X0315725Y0047143D01*
X0315781Y0047116D01*
X0315835Y0047086D01*
X0315887Y0047052D01*
X0315936Y0047016D01*
X0315984Y0046976D01*
X0316029Y0046934D01*
X0316071Y0046889D01*
X0316111Y0046841D01*
X0316147Y0046792D01*
X0316181Y0046740D01*
X0316211Y0046686D01*
X0316238Y0046630D01*
X0316262Y0046573D01*
X0316282Y0046515D01*
X0316298Y0046456D01*
X0316311Y0046395D01*
X0316321Y0046334D01*
X0316326Y0046273D01*
X0316328Y0046211D01*
X0316328Y0043655D01*
X0316326Y0043593D01*
X0316321Y0043532D01*
X0316311Y0043471D01*
X0316298Y0043410D01*
X0316282Y0043351D01*
X0316262Y0043293D01*
X0316238Y0043236D01*
X0316211Y0043180D01*
X0316181Y0043126D01*
X0316147Y0043074D01*
X0316111Y0043025D01*
X0316071Y0042977D01*
X0316029Y0042932D01*
X0315984Y0042890D01*
X0315936Y0042850D01*
X0315887Y0042814D01*
X0315835Y0042780D01*
X0315781Y0042750D01*
X0315725Y0042723D01*
X0315668Y0042699D01*
X0315610Y0042679D01*
X0315551Y0042663D01*
X0315490Y0042650D01*
X0315429Y0042640D01*
X0315368Y0042635D01*
X0315306Y0042633D01*
X0314284Y0042633D01*
X0312565Y0042633D02*
X0310010Y0042633D01*
X0311288Y0042633D02*
X0311288Y0047233D01*
X0312565Y0046211D01*
X0308065Y0046211D02*
X0306788Y0047233D01*
X0306788Y0042633D01*
X0308065Y0042633D02*
X0305510Y0042633D01*
X0288455Y0030733D02*
X0287177Y0030733D01*
X0287107Y0030731D01*
X0287036Y0030725D01*
X0286967Y0030716D01*
X0286898Y0030702D01*
X0286829Y0030685D01*
X0286762Y0030664D01*
X0286696Y0030639D01*
X0286632Y0030611D01*
X0286569Y0030579D01*
X0286508Y0030544D01*
X0286449Y0030505D01*
X0286392Y0030464D01*
X0286338Y0030419D01*
X0286286Y0030371D01*
X0286237Y0030321D01*
X0286190Y0030267D01*
X0286147Y0030212D01*
X0286107Y0030154D01*
X0286070Y0030094D01*
X0286037Y0030032D01*
X0286007Y0029968D01*
X0285980Y0029903D01*
X0285957Y0029837D01*
X0285938Y0029769D01*
X0285923Y0029700D01*
X0285911Y0029631D01*
X0285903Y0029561D01*
X0285899Y0029490D01*
X0285899Y0029420D01*
X0285903Y0029349D01*
X0285911Y0029279D01*
X0285923Y0029210D01*
X0285938Y0029141D01*
X0285957Y0029073D01*
X0285980Y0029007D01*
X0286007Y0028942D01*
X0286037Y0028878D01*
X0286070Y0028816D01*
X0286107Y0028756D01*
X0286147Y0028698D01*
X0286190Y0028643D01*
X0286237Y0028589D01*
X0286286Y0028539D01*
X0286338Y0028491D01*
X0286392Y0028446D01*
X0286449Y0028405D01*
X0286508Y0028366D01*
X0286569Y0028331D01*
X0286632Y0028299D01*
X0286696Y0028271D01*
X0286762Y0028246D01*
X0286829Y0028225D01*
X0286898Y0028208D01*
X0286967Y0028194D01*
X0287036Y0028185D01*
X0287107Y0028179D01*
X0287177Y0028177D01*
X0287177Y0028178D02*
X0288455Y0028178D01*
X0286922Y0028178D02*
X0285899Y0026133D01*
X0283984Y0026133D02*
X0282706Y0026133D01*
X0282636Y0026135D01*
X0282565Y0026141D01*
X0282496Y0026150D01*
X0282427Y0026164D01*
X0282358Y0026181D01*
X0282291Y0026202D01*
X0282225Y0026227D01*
X0282161Y0026255D01*
X0282098Y0026287D01*
X0282037Y0026322D01*
X0281978Y0026361D01*
X0281921Y0026402D01*
X0281867Y0026447D01*
X0281815Y0026495D01*
X0281766Y0026545D01*
X0281719Y0026599D01*
X0281676Y0026654D01*
X0281636Y0026712D01*
X0281599Y0026772D01*
X0281566Y0026834D01*
X0281536Y0026898D01*
X0281509Y0026963D01*
X0281486Y0027029D01*
X0281467Y0027097D01*
X0281452Y0027166D01*
X0281440Y0027235D01*
X0281432Y0027305D01*
X0281428Y0027376D01*
X0281428Y0027446D01*
X0281432Y0027517D01*
X0281440Y0027587D01*
X0281452Y0027656D01*
X0281467Y0027725D01*
X0281486Y0027793D01*
X0281509Y0027859D01*
X0281536Y0027924D01*
X0281566Y0027988D01*
X0281599Y0028050D01*
X0281636Y0028110D01*
X0281676Y0028168D01*
X0281719Y0028223D01*
X0281766Y0028277D01*
X0281815Y0028327D01*
X0281867Y0028375D01*
X0281921Y0028420D01*
X0281978Y0028461D01*
X0282037Y0028500D01*
X0282098Y0028535D01*
X0282161Y0028567D01*
X0282225Y0028595D01*
X0282291Y0028620D01*
X0282358Y0028641D01*
X0282427Y0028658D01*
X0282496Y0028672D01*
X0282565Y0028681D01*
X0282636Y0028687D01*
X0282706Y0028689D01*
X0282451Y0028689D02*
X0283473Y0028689D01*
X0282451Y0028689D02*
X0282388Y0028691D01*
X0282325Y0028697D01*
X0282263Y0028706D01*
X0282202Y0028720D01*
X0282141Y0028737D01*
X0282082Y0028758D01*
X0282024Y0028783D01*
X0281967Y0028811D01*
X0281913Y0028842D01*
X0281861Y0028877D01*
X0281810Y0028915D01*
X0281762Y0028956D01*
X0281717Y0029000D01*
X0281675Y0029046D01*
X0281635Y0029095D01*
X0281599Y0029146D01*
X0281566Y0029200D01*
X0281536Y0029255D01*
X0281510Y0029313D01*
X0281487Y0029371D01*
X0281468Y0029431D01*
X0281453Y0029492D01*
X0281441Y0029554D01*
X0281433Y0029617D01*
X0281429Y0029680D01*
X0281429Y0029742D01*
X0281433Y0029805D01*
X0281441Y0029868D01*
X0281453Y0029930D01*
X0281468Y0029991D01*
X0281487Y0030051D01*
X0281510Y0030109D01*
X0281536Y0030167D01*
X0281566Y0030222D01*
X0281599Y0030276D01*
X0281635Y0030327D01*
X0281675Y0030376D01*
X0281717Y0030422D01*
X0281762Y0030466D01*
X0281810Y0030507D01*
X0281861Y0030545D01*
X0281913Y0030580D01*
X0281967Y0030611D01*
X0282024Y0030639D01*
X0282082Y0030664D01*
X0282141Y0030685D01*
X0282202Y0030702D01*
X0282263Y0030716D01*
X0282325Y0030725D01*
X0282388Y0030731D01*
X0282451Y0030733D01*
X0283984Y0030733D01*
X0288455Y0030733D02*
X0288455Y0026133D01*
X0333428Y0064133D02*
X0338028Y0064133D01*
X0338028Y0065411D01*
X0338029Y0065411D02*
X0338027Y0065481D01*
X0338021Y0065552D01*
X0338012Y0065621D01*
X0337998Y0065690D01*
X0337981Y0065759D01*
X0337960Y0065826D01*
X0337935Y0065892D01*
X0337907Y0065956D01*
X0337875Y0066019D01*
X0337840Y0066080D01*
X0337801Y0066139D01*
X0337760Y0066196D01*
X0337715Y0066250D01*
X0337667Y0066302D01*
X0337617Y0066351D01*
X0337563Y0066398D01*
X0337508Y0066441D01*
X0337450Y0066481D01*
X0337390Y0066518D01*
X0337328Y0066551D01*
X0337264Y0066581D01*
X0337199Y0066608D01*
X0337133Y0066631D01*
X0337065Y0066650D01*
X0336996Y0066665D01*
X0336927Y0066677D01*
X0336857Y0066685D01*
X0336786Y0066689D01*
X0336716Y0066689D01*
X0336645Y0066685D01*
X0336575Y0066677D01*
X0336506Y0066665D01*
X0336437Y0066650D01*
X0336369Y0066631D01*
X0336303Y0066608D01*
X0336238Y0066581D01*
X0336174Y0066551D01*
X0336112Y0066518D01*
X0336052Y0066481D01*
X0335994Y0066441D01*
X0335939Y0066398D01*
X0335885Y0066351D01*
X0335835Y0066302D01*
X0335787Y0066250D01*
X0335742Y0066196D01*
X0335701Y0066139D01*
X0335662Y0066080D01*
X0335627Y0066019D01*
X0335595Y0065956D01*
X0335567Y0065892D01*
X0335542Y0065826D01*
X0335521Y0065759D01*
X0335504Y0065690D01*
X0335490Y0065621D01*
X0335481Y0065552D01*
X0335475Y0065481D01*
X0335473Y0065411D01*
X0335473Y0064133D01*
X0335473Y0065666D02*
X0333428Y0066689D01*
X0333428Y0068604D02*
X0333428Y0071160D01*
X0333428Y0068604D02*
X0335984Y0070776D01*
X0338028Y0070010D02*
X0338026Y0069936D01*
X0338021Y0069862D01*
X0338011Y0069788D01*
X0337998Y0069715D01*
X0337982Y0069642D01*
X0337961Y0069571D01*
X0337937Y0069501D01*
X0337910Y0069432D01*
X0337879Y0069364D01*
X0337845Y0069298D01*
X0337808Y0069234D01*
X0337767Y0069172D01*
X0337723Y0069112D01*
X0337677Y0069054D01*
X0337627Y0068998D01*
X0337575Y0068945D01*
X0337520Y0068895D01*
X0337463Y0068848D01*
X0337403Y0068804D01*
X0337341Y0068762D01*
X0337278Y0068724D01*
X0337212Y0068689D01*
X0337145Y0068658D01*
X0337076Y0068630D01*
X0337006Y0068605D01*
X0335984Y0070776D02*
X0336031Y0070823D01*
X0336081Y0070867D01*
X0336133Y0070909D01*
X0336187Y0070948D01*
X0336243Y0070983D01*
X0336301Y0071016D01*
X0336361Y0071046D01*
X0336422Y0071072D01*
X0336485Y0071095D01*
X0336549Y0071114D01*
X0336613Y0071130D01*
X0336679Y0071143D01*
X0336745Y0071152D01*
X0336811Y0071157D01*
X0336878Y0071159D01*
X0336878Y0071160D02*
X0336945Y0071158D01*
X0337012Y0071152D01*
X0337078Y0071143D01*
X0337143Y0071129D01*
X0337208Y0071112D01*
X0337271Y0071091D01*
X0337333Y0071066D01*
X0337394Y0071038D01*
X0337453Y0071006D01*
X0337510Y0070971D01*
X0337565Y0070932D01*
X0337617Y0070891D01*
X0337667Y0070846D01*
X0337714Y0070799D01*
X0337759Y0070749D01*
X0337800Y0070697D01*
X0337839Y0070642D01*
X0337874Y0070585D01*
X0337906Y0070526D01*
X0337934Y0070465D01*
X0337959Y0070403D01*
X0337980Y0070340D01*
X0337997Y0070275D01*
X0338011Y0070210D01*
X0338020Y0070144D01*
X0338026Y0070077D01*
X0338028Y0070010D01*
X0337006Y0073360D02*
X0336943Y0073362D01*
X0336880Y0073368D01*
X0336818Y0073377D01*
X0336757Y0073391D01*
X0336696Y0073408D01*
X0336637Y0073429D01*
X0336579Y0073454D01*
X0336522Y0073482D01*
X0336468Y0073513D01*
X0336416Y0073548D01*
X0336365Y0073586D01*
X0336317Y0073627D01*
X0336272Y0073671D01*
X0336230Y0073717D01*
X0336190Y0073766D01*
X0336154Y0073817D01*
X0336121Y0073871D01*
X0336091Y0073926D01*
X0336065Y0073984D01*
X0336042Y0074042D01*
X0336023Y0074102D01*
X0336008Y0074163D01*
X0335996Y0074225D01*
X0335988Y0074288D01*
X0335984Y0074351D01*
X0335984Y0074413D01*
X0335988Y0074476D01*
X0335996Y0074539D01*
X0336008Y0074601D01*
X0336023Y0074662D01*
X0336042Y0074722D01*
X0336065Y0074780D01*
X0336091Y0074838D01*
X0336121Y0074893D01*
X0336154Y0074947D01*
X0336190Y0074998D01*
X0336230Y0075047D01*
X0336272Y0075093D01*
X0336317Y0075137D01*
X0336365Y0075178D01*
X0336416Y0075216D01*
X0336468Y0075251D01*
X0336522Y0075282D01*
X0336579Y0075310D01*
X0336637Y0075335D01*
X0336696Y0075356D01*
X0336757Y0075373D01*
X0336818Y0075387D01*
X0336880Y0075396D01*
X0336943Y0075402D01*
X0337006Y0075404D01*
X0337069Y0075402D01*
X0337132Y0075396D01*
X0337194Y0075387D01*
X0337255Y0075373D01*
X0337316Y0075356D01*
X0337375Y0075335D01*
X0337433Y0075310D01*
X0337490Y0075282D01*
X0337544Y0075251D01*
X0337596Y0075216D01*
X0337647Y0075178D01*
X0337695Y0075137D01*
X0337740Y0075093D01*
X0337782Y0075047D01*
X0337822Y0074998D01*
X0337858Y0074947D01*
X0337891Y0074893D01*
X0337921Y0074838D01*
X0337947Y0074780D01*
X0337970Y0074722D01*
X0337989Y0074662D01*
X0338004Y0074601D01*
X0338016Y0074539D01*
X0338024Y0074476D01*
X0338028Y0074413D01*
X0338028Y0074351D01*
X0338024Y0074288D01*
X0338016Y0074225D01*
X0338004Y0074163D01*
X0337989Y0074102D01*
X0337970Y0074042D01*
X0337947Y0073984D01*
X0337921Y0073926D01*
X0337891Y0073871D01*
X0337858Y0073817D01*
X0337822Y0073766D01*
X0337782Y0073717D01*
X0337740Y0073671D01*
X0337695Y0073627D01*
X0337647Y0073586D01*
X0337596Y0073548D01*
X0337544Y0073513D01*
X0337490Y0073482D01*
X0337433Y0073454D01*
X0337375Y0073429D01*
X0337316Y0073408D01*
X0337255Y0073391D01*
X0337194Y0073377D01*
X0337132Y0073368D01*
X0337069Y0073362D01*
X0337006Y0073360D01*
X0334706Y0073104D02*
X0334636Y0073106D01*
X0334565Y0073112D01*
X0334496Y0073121D01*
X0334427Y0073135D01*
X0334358Y0073152D01*
X0334291Y0073173D01*
X0334225Y0073198D01*
X0334161Y0073226D01*
X0334098Y0073258D01*
X0334037Y0073293D01*
X0333978Y0073332D01*
X0333921Y0073373D01*
X0333867Y0073418D01*
X0333815Y0073466D01*
X0333766Y0073516D01*
X0333719Y0073570D01*
X0333676Y0073625D01*
X0333636Y0073683D01*
X0333599Y0073743D01*
X0333566Y0073805D01*
X0333536Y0073869D01*
X0333509Y0073934D01*
X0333486Y0074000D01*
X0333467Y0074068D01*
X0333452Y0074137D01*
X0333440Y0074206D01*
X0333432Y0074276D01*
X0333428Y0074347D01*
X0333428Y0074417D01*
X0333432Y0074488D01*
X0333440Y0074558D01*
X0333452Y0074627D01*
X0333467Y0074696D01*
X0333486Y0074764D01*
X0333509Y0074830D01*
X0333536Y0074895D01*
X0333566Y0074959D01*
X0333599Y0075021D01*
X0333636Y0075081D01*
X0333676Y0075139D01*
X0333719Y0075194D01*
X0333766Y0075248D01*
X0333815Y0075298D01*
X0333867Y0075346D01*
X0333921Y0075391D01*
X0333978Y0075432D01*
X0334037Y0075471D01*
X0334098Y0075506D01*
X0334161Y0075538D01*
X0334225Y0075566D01*
X0334291Y0075591D01*
X0334358Y0075612D01*
X0334427Y0075629D01*
X0334496Y0075643D01*
X0334565Y0075652D01*
X0334636Y0075658D01*
X0334706Y0075660D01*
X0334776Y0075658D01*
X0334847Y0075652D01*
X0334916Y0075643D01*
X0334985Y0075629D01*
X0335054Y0075612D01*
X0335121Y0075591D01*
X0335187Y0075566D01*
X0335251Y0075538D01*
X0335314Y0075506D01*
X0335375Y0075471D01*
X0335434Y0075432D01*
X0335491Y0075391D01*
X0335545Y0075346D01*
X0335597Y0075298D01*
X0335646Y0075248D01*
X0335693Y0075194D01*
X0335736Y0075139D01*
X0335776Y0075081D01*
X0335813Y0075021D01*
X0335846Y0074959D01*
X0335876Y0074895D01*
X0335903Y0074830D01*
X0335926Y0074764D01*
X0335945Y0074696D01*
X0335960Y0074627D01*
X0335972Y0074558D01*
X0335980Y0074488D01*
X0335984Y0074417D01*
X0335984Y0074347D01*
X0335980Y0074276D01*
X0335972Y0074206D01*
X0335960Y0074137D01*
X0335945Y0074068D01*
X0335926Y0074000D01*
X0335903Y0073934D01*
X0335876Y0073869D01*
X0335846Y0073805D01*
X0335813Y0073743D01*
X0335776Y0073683D01*
X0335736Y0073625D01*
X0335693Y0073570D01*
X0335646Y0073516D01*
X0335597Y0073466D01*
X0335545Y0073418D01*
X0335491Y0073373D01*
X0335434Y0073332D01*
X0335375Y0073293D01*
X0335314Y0073258D01*
X0335251Y0073226D01*
X0335187Y0073198D01*
X0335121Y0073173D01*
X0335054Y0073152D01*
X0334985Y0073135D01*
X0334916Y0073121D01*
X0334847Y0073112D01*
X0334776Y0073106D01*
X0334706Y0073104D01*
X0317528Y0085155D02*
X0317528Y0087711D01*
X0317526Y0087773D01*
X0317521Y0087834D01*
X0317511Y0087895D01*
X0317498Y0087956D01*
X0317482Y0088015D01*
X0317462Y0088073D01*
X0317438Y0088130D01*
X0317411Y0088186D01*
X0317381Y0088240D01*
X0317347Y0088292D01*
X0317311Y0088341D01*
X0317271Y0088389D01*
X0317229Y0088434D01*
X0317184Y0088476D01*
X0317136Y0088516D01*
X0317087Y0088552D01*
X0317035Y0088586D01*
X0316981Y0088616D01*
X0316925Y0088643D01*
X0316868Y0088667D01*
X0316810Y0088687D01*
X0316751Y0088703D01*
X0316690Y0088716D01*
X0316629Y0088726D01*
X0316568Y0088731D01*
X0316506Y0088733D01*
X0315484Y0088733D01*
X0311593Y0086689D02*
X0311546Y0086736D01*
X0311502Y0086786D01*
X0311460Y0086838D01*
X0311421Y0086892D01*
X0311386Y0086948D01*
X0311353Y0087006D01*
X0311323Y0087066D01*
X0311297Y0087127D01*
X0311274Y0087190D01*
X0311255Y0087254D01*
X0311239Y0087318D01*
X0311226Y0087384D01*
X0311217Y0087450D01*
X0311212Y0087516D01*
X0311210Y0087583D01*
X0311593Y0086689D02*
X0313765Y0084133D01*
X0311210Y0084133D01*
X0313765Y0087711D02*
X0313740Y0087781D01*
X0313712Y0087850D01*
X0313681Y0087917D01*
X0313646Y0087983D01*
X0313608Y0088046D01*
X0313566Y0088108D01*
X0313522Y0088168D01*
X0313475Y0088225D01*
X0313425Y0088280D01*
X0313372Y0088332D01*
X0313316Y0088382D01*
X0313259Y0088428D01*
X0313198Y0088472D01*
X0313136Y0088513D01*
X0313072Y0088550D01*
X0313006Y0088584D01*
X0312938Y0088615D01*
X0312869Y0088642D01*
X0312799Y0088666D01*
X0312728Y0088687D01*
X0312655Y0088703D01*
X0312582Y0088716D01*
X0312508Y0088726D01*
X0312434Y0088731D01*
X0312360Y0088733D01*
X0312293Y0088731D01*
X0312226Y0088725D01*
X0312160Y0088716D01*
X0312095Y0088702D01*
X0312030Y0088685D01*
X0311967Y0088664D01*
X0311905Y0088639D01*
X0311844Y0088611D01*
X0311785Y0088579D01*
X0311728Y0088544D01*
X0311673Y0088505D01*
X0311621Y0088464D01*
X0311571Y0088419D01*
X0311524Y0088372D01*
X0311479Y0088322D01*
X0311438Y0088270D01*
X0311399Y0088215D01*
X0311364Y0088158D01*
X0311332Y0088099D01*
X0311304Y0088038D01*
X0311279Y0087976D01*
X0311258Y0087913D01*
X0311241Y0087848D01*
X0311227Y0087783D01*
X0311218Y0087717D01*
X0311212Y0087650D01*
X0311210Y0087583D01*
X0315484Y0084133D02*
X0316506Y0084133D01*
X0316568Y0084135D01*
X0316629Y0084140D01*
X0316690Y0084150D01*
X0316751Y0084163D01*
X0316810Y0084179D01*
X0316868Y0084199D01*
X0316925Y0084223D01*
X0316981Y0084250D01*
X0317035Y0084280D01*
X0317087Y0084314D01*
X0317136Y0084350D01*
X0317184Y0084390D01*
X0317229Y0084432D01*
X0317271Y0084477D01*
X0317311Y0084525D01*
X0317347Y0084574D01*
X0317381Y0084626D01*
X0317411Y0084680D01*
X0317438Y0084736D01*
X0317462Y0084793D01*
X0317482Y0084851D01*
X0317498Y0084910D01*
X0317511Y0084971D01*
X0317521Y0085032D01*
X0317526Y0085093D01*
X0317528Y0085155D01*
X0321488Y0098633D02*
X0322765Y0098633D01*
X0324484Y0098633D02*
X0325506Y0098633D01*
X0325568Y0098635D01*
X0325629Y0098640D01*
X0325690Y0098650D01*
X0325751Y0098663D01*
X0325810Y0098679D01*
X0325868Y0098699D01*
X0325925Y0098723D01*
X0325981Y0098750D01*
X0326035Y0098780D01*
X0326087Y0098814D01*
X0326136Y0098850D01*
X0326184Y0098890D01*
X0326229Y0098932D01*
X0326271Y0098977D01*
X0326311Y0099025D01*
X0326347Y0099074D01*
X0326381Y0099126D01*
X0326411Y0099180D01*
X0326438Y0099236D01*
X0326462Y0099293D01*
X0326482Y0099351D01*
X0326498Y0099410D01*
X0326511Y0099471D01*
X0326521Y0099532D01*
X0326526Y0099593D01*
X0326528Y0099655D01*
X0326528Y0102211D01*
X0326526Y0102273D01*
X0326521Y0102334D01*
X0326511Y0102395D01*
X0326498Y0102456D01*
X0326482Y0102515D01*
X0326462Y0102573D01*
X0326438Y0102630D01*
X0326411Y0102686D01*
X0326381Y0102740D01*
X0326347Y0102792D01*
X0326311Y0102841D01*
X0326271Y0102889D01*
X0326229Y0102934D01*
X0326184Y0102976D01*
X0326136Y0103016D01*
X0326087Y0103052D01*
X0326035Y0103086D01*
X0325981Y0103116D01*
X0325925Y0103143D01*
X0325868Y0103167D01*
X0325810Y0103187D01*
X0325751Y0103203D01*
X0325690Y0103216D01*
X0325629Y0103226D01*
X0325568Y0103231D01*
X0325506Y0103233D01*
X0324484Y0103233D01*
X0322765Y0103233D02*
X0321232Y0103233D01*
X0321169Y0103231D01*
X0321106Y0103225D01*
X0321044Y0103216D01*
X0320983Y0103202D01*
X0320922Y0103185D01*
X0320863Y0103164D01*
X0320805Y0103139D01*
X0320748Y0103111D01*
X0320694Y0103080D01*
X0320642Y0103045D01*
X0320591Y0103007D01*
X0320543Y0102966D01*
X0320498Y0102922D01*
X0320456Y0102876D01*
X0320416Y0102827D01*
X0320380Y0102776D01*
X0320347Y0102722D01*
X0320317Y0102667D01*
X0320291Y0102609D01*
X0320268Y0102551D01*
X0320249Y0102491D01*
X0320234Y0102430D01*
X0320222Y0102368D01*
X0320214Y0102305D01*
X0320210Y0102242D01*
X0320210Y0102180D01*
X0320214Y0102117D01*
X0320222Y0102054D01*
X0320234Y0101992D01*
X0320249Y0101931D01*
X0320268Y0101871D01*
X0320291Y0101813D01*
X0320317Y0101755D01*
X0320347Y0101700D01*
X0320380Y0101646D01*
X0320416Y0101595D01*
X0320456Y0101546D01*
X0320498Y0101500D01*
X0320543Y0101456D01*
X0320591Y0101415D01*
X0320642Y0101377D01*
X0320694Y0101342D01*
X0320748Y0101311D01*
X0320805Y0101283D01*
X0320863Y0101258D01*
X0320922Y0101237D01*
X0320983Y0101220D01*
X0321044Y0101206D01*
X0321106Y0101197D01*
X0321169Y0101191D01*
X0321232Y0101189D01*
X0322254Y0101189D01*
X0321488Y0101189D02*
X0321418Y0101187D01*
X0321347Y0101181D01*
X0321278Y0101172D01*
X0321209Y0101158D01*
X0321140Y0101141D01*
X0321073Y0101120D01*
X0321007Y0101095D01*
X0320943Y0101067D01*
X0320880Y0101035D01*
X0320819Y0101000D01*
X0320760Y0100961D01*
X0320703Y0100920D01*
X0320649Y0100875D01*
X0320597Y0100827D01*
X0320548Y0100777D01*
X0320501Y0100723D01*
X0320458Y0100668D01*
X0320418Y0100610D01*
X0320381Y0100550D01*
X0320348Y0100488D01*
X0320318Y0100424D01*
X0320291Y0100359D01*
X0320268Y0100293D01*
X0320249Y0100225D01*
X0320234Y0100156D01*
X0320222Y0100087D01*
X0320214Y0100017D01*
X0320210Y0099946D01*
X0320210Y0099876D01*
X0320214Y0099805D01*
X0320222Y0099735D01*
X0320234Y0099666D01*
X0320249Y0099597D01*
X0320268Y0099529D01*
X0320291Y0099463D01*
X0320318Y0099398D01*
X0320348Y0099334D01*
X0320381Y0099272D01*
X0320418Y0099212D01*
X0320458Y0099154D01*
X0320501Y0099099D01*
X0320548Y0099045D01*
X0320597Y0098995D01*
X0320649Y0098947D01*
X0320703Y0098902D01*
X0320760Y0098861D01*
X0320819Y0098822D01*
X0320880Y0098787D01*
X0320943Y0098755D01*
X0321007Y0098727D01*
X0321073Y0098702D01*
X0321140Y0098681D01*
X0321209Y0098664D01*
X0321278Y0098650D01*
X0321347Y0098641D01*
X0321418Y0098635D01*
X0321488Y0098633D01*
X0329476Y0113133D02*
X0329476Y0115178D01*
X0328710Y0114155D02*
X0331265Y0114155D01*
X0330243Y0117733D01*
X0332984Y0117733D02*
X0334006Y0117733D01*
X0334068Y0117731D01*
X0334129Y0117726D01*
X0334190Y0117716D01*
X0334251Y0117703D01*
X0334310Y0117687D01*
X0334368Y0117667D01*
X0334425Y0117643D01*
X0334481Y0117616D01*
X0334535Y0117586D01*
X0334587Y0117552D01*
X0334636Y0117516D01*
X0334684Y0117476D01*
X0334729Y0117434D01*
X0334771Y0117389D01*
X0334811Y0117341D01*
X0334847Y0117292D01*
X0334881Y0117240D01*
X0334911Y0117186D01*
X0334938Y0117130D01*
X0334962Y0117073D01*
X0334982Y0117015D01*
X0334998Y0116956D01*
X0335011Y0116895D01*
X0335021Y0116834D01*
X0335026Y0116773D01*
X0335028Y0116711D01*
X0335028Y0114155D01*
X0335026Y0114093D01*
X0335021Y0114032D01*
X0335011Y0113971D01*
X0334998Y0113910D01*
X0334982Y0113851D01*
X0334962Y0113793D01*
X0334938Y0113736D01*
X0334911Y0113680D01*
X0334881Y0113626D01*
X0334847Y0113574D01*
X0334811Y0113525D01*
X0334771Y0113477D01*
X0334729Y0113432D01*
X0334684Y0113390D01*
X0334636Y0113350D01*
X0334587Y0113314D01*
X0334535Y0113280D01*
X0334481Y0113250D01*
X0334425Y0113223D01*
X0334368Y0113199D01*
X0334310Y0113179D01*
X0334251Y0113163D01*
X0334190Y0113150D01*
X0334129Y0113140D01*
X0334068Y0113135D01*
X0334006Y0113133D01*
X0332984Y0113133D01*
X0352473Y0102660D02*
X0353751Y0102660D01*
X0353821Y0102658D01*
X0353892Y0102652D01*
X0353961Y0102643D01*
X0354030Y0102629D01*
X0354099Y0102612D01*
X0354166Y0102591D01*
X0354232Y0102566D01*
X0354296Y0102538D01*
X0354359Y0102506D01*
X0354420Y0102471D01*
X0354479Y0102432D01*
X0354536Y0102391D01*
X0354590Y0102346D01*
X0354642Y0102298D01*
X0354691Y0102248D01*
X0354738Y0102194D01*
X0354781Y0102139D01*
X0354821Y0102081D01*
X0354858Y0102021D01*
X0354891Y0101959D01*
X0354921Y0101895D01*
X0354948Y0101830D01*
X0354971Y0101764D01*
X0354990Y0101696D01*
X0355005Y0101627D01*
X0355017Y0101558D01*
X0355025Y0101488D01*
X0355029Y0101417D01*
X0355029Y0101347D01*
X0355025Y0101276D01*
X0355017Y0101206D01*
X0355005Y0101137D01*
X0354990Y0101068D01*
X0354971Y0101000D01*
X0354948Y0100934D01*
X0354921Y0100869D01*
X0354891Y0100805D01*
X0354858Y0100743D01*
X0354821Y0100683D01*
X0354781Y0100625D01*
X0354738Y0100570D01*
X0354691Y0100516D01*
X0354642Y0100466D01*
X0354590Y0100418D01*
X0354536Y0100373D01*
X0354479Y0100332D01*
X0354420Y0100293D01*
X0354359Y0100258D01*
X0354296Y0100226D01*
X0354232Y0100198D01*
X0354166Y0100173D01*
X0354099Y0100152D01*
X0354030Y0100135D01*
X0353961Y0100121D01*
X0353892Y0100112D01*
X0353821Y0100106D01*
X0353751Y0100104D01*
X0353495Y0100104D01*
X0353433Y0100106D01*
X0353372Y0100111D01*
X0353311Y0100121D01*
X0353250Y0100134D01*
X0353191Y0100150D01*
X0353133Y0100170D01*
X0353076Y0100194D01*
X0353020Y0100221D01*
X0352966Y0100251D01*
X0352914Y0100285D01*
X0352865Y0100321D01*
X0352817Y0100361D01*
X0352772Y0100403D01*
X0352730Y0100448D01*
X0352690Y0100496D01*
X0352654Y0100545D01*
X0352620Y0100597D01*
X0352590Y0100651D01*
X0352563Y0100707D01*
X0352539Y0100764D01*
X0352519Y0100822D01*
X0352503Y0100881D01*
X0352490Y0100942D01*
X0352480Y0101003D01*
X0352475Y0101064D01*
X0352473Y0101126D01*
X0352473Y0102660D01*
X0352473Y0102659D02*
X0352384Y0102657D01*
X0352295Y0102651D01*
X0352206Y0102642D01*
X0352118Y0102628D01*
X0352031Y0102611D01*
X0351944Y0102589D01*
X0351858Y0102564D01*
X0351774Y0102536D01*
X0351691Y0102503D01*
X0351609Y0102467D01*
X0351529Y0102428D01*
X0351451Y0102385D01*
X0351375Y0102339D01*
X0351301Y0102289D01*
X0351229Y0102237D01*
X0351159Y0102181D01*
X0351092Y0102122D01*
X0351028Y0102060D01*
X0350966Y0101996D01*
X0350907Y0101929D01*
X0350851Y0101859D01*
X0350799Y0101787D01*
X0350749Y0101713D01*
X0350703Y0101637D01*
X0350660Y0101559D01*
X0350621Y0101479D01*
X0350585Y0101397D01*
X0350552Y0101314D01*
X0350524Y0101230D01*
X0350499Y0101144D01*
X0350477Y0101057D01*
X0350460Y0100970D01*
X0350446Y0100882D01*
X0350437Y0100793D01*
X0350431Y0100704D01*
X0350429Y0100615D01*
X0350428Y0098160D02*
X0350428Y0095604D01*
X0352984Y0097776D01*
X0355028Y0097010D02*
X0355026Y0096936D01*
X0355021Y0096862D01*
X0355011Y0096788D01*
X0354998Y0096715D01*
X0354982Y0096642D01*
X0354961Y0096571D01*
X0354937Y0096501D01*
X0354910Y0096432D01*
X0354879Y0096364D01*
X0354845Y0096298D01*
X0354808Y0096234D01*
X0354767Y0096172D01*
X0354723Y0096112D01*
X0354677Y0096054D01*
X0354627Y0095998D01*
X0354575Y0095945D01*
X0354520Y0095895D01*
X0354463Y0095848D01*
X0354403Y0095804D01*
X0354341Y0095762D01*
X0354278Y0095724D01*
X0354212Y0095689D01*
X0354145Y0095658D01*
X0354076Y0095630D01*
X0354006Y0095605D01*
X0352984Y0097776D02*
X0353031Y0097823D01*
X0353081Y0097867D01*
X0353133Y0097909D01*
X0353187Y0097948D01*
X0353243Y0097983D01*
X0353301Y0098016D01*
X0353361Y0098046D01*
X0353422Y0098072D01*
X0353485Y0098095D01*
X0353549Y0098114D01*
X0353613Y0098130D01*
X0353679Y0098143D01*
X0353745Y0098152D01*
X0353811Y0098157D01*
X0353878Y0098159D01*
X0353878Y0098160D02*
X0353945Y0098158D01*
X0354012Y0098152D01*
X0354078Y0098143D01*
X0354143Y0098129D01*
X0354208Y0098112D01*
X0354271Y0098091D01*
X0354333Y0098066D01*
X0354394Y0098038D01*
X0354453Y0098006D01*
X0354510Y0097971D01*
X0354565Y0097932D01*
X0354617Y0097891D01*
X0354667Y0097846D01*
X0354714Y0097799D01*
X0354759Y0097749D01*
X0354800Y0097697D01*
X0354839Y0097642D01*
X0354874Y0097585D01*
X0354906Y0097526D01*
X0354934Y0097465D01*
X0354959Y0097403D01*
X0354980Y0097340D01*
X0354997Y0097275D01*
X0355011Y0097210D01*
X0355020Y0097144D01*
X0355026Y0097077D01*
X0355028Y0097010D01*
X0352473Y0092666D02*
X0350428Y0093689D01*
X0352473Y0092411D02*
X0352473Y0091133D01*
X0352473Y0092411D02*
X0352475Y0092481D01*
X0352481Y0092552D01*
X0352490Y0092621D01*
X0352504Y0092690D01*
X0352521Y0092759D01*
X0352542Y0092826D01*
X0352567Y0092892D01*
X0352595Y0092956D01*
X0352627Y0093019D01*
X0352662Y0093080D01*
X0352701Y0093139D01*
X0352742Y0093196D01*
X0352787Y0093250D01*
X0352835Y0093302D01*
X0352885Y0093351D01*
X0352939Y0093398D01*
X0352994Y0093441D01*
X0353052Y0093481D01*
X0353112Y0093518D01*
X0353174Y0093551D01*
X0353238Y0093581D01*
X0353303Y0093608D01*
X0353369Y0093631D01*
X0353437Y0093650D01*
X0353506Y0093665D01*
X0353575Y0093677D01*
X0353645Y0093685D01*
X0353716Y0093689D01*
X0353786Y0093689D01*
X0353857Y0093685D01*
X0353927Y0093677D01*
X0353996Y0093665D01*
X0354065Y0093650D01*
X0354133Y0093631D01*
X0354199Y0093608D01*
X0354264Y0093581D01*
X0354328Y0093551D01*
X0354390Y0093518D01*
X0354450Y0093481D01*
X0354508Y0093441D01*
X0354563Y0093398D01*
X0354617Y0093351D01*
X0354667Y0093302D01*
X0354715Y0093250D01*
X0354760Y0093196D01*
X0354801Y0093139D01*
X0354840Y0093080D01*
X0354875Y0093019D01*
X0354907Y0092956D01*
X0354935Y0092892D01*
X0354960Y0092826D01*
X0354981Y0092759D01*
X0354998Y0092690D01*
X0355012Y0092621D01*
X0355021Y0092552D01*
X0355027Y0092481D01*
X0355029Y0092411D01*
X0355028Y0092411D02*
X0355028Y0091133D01*
X0350428Y0091133D01*
X0368928Y0090633D02*
X0373528Y0090633D01*
X0373528Y0091911D01*
X0373529Y0091911D02*
X0373527Y0091981D01*
X0373521Y0092052D01*
X0373512Y0092121D01*
X0373498Y0092190D01*
X0373481Y0092259D01*
X0373460Y0092326D01*
X0373435Y0092392D01*
X0373407Y0092456D01*
X0373375Y0092519D01*
X0373340Y0092580D01*
X0373301Y0092639D01*
X0373260Y0092696D01*
X0373215Y0092750D01*
X0373167Y0092802D01*
X0373117Y0092851D01*
X0373063Y0092898D01*
X0373008Y0092941D01*
X0372950Y0092981D01*
X0372890Y0093018D01*
X0372828Y0093051D01*
X0372764Y0093081D01*
X0372699Y0093108D01*
X0372633Y0093131D01*
X0372565Y0093150D01*
X0372496Y0093165D01*
X0372427Y0093177D01*
X0372357Y0093185D01*
X0372286Y0093189D01*
X0372216Y0093189D01*
X0372145Y0093185D01*
X0372075Y0093177D01*
X0372006Y0093165D01*
X0371937Y0093150D01*
X0371869Y0093131D01*
X0371803Y0093108D01*
X0371738Y0093081D01*
X0371674Y0093051D01*
X0371612Y0093018D01*
X0371552Y0092981D01*
X0371494Y0092941D01*
X0371439Y0092898D01*
X0371385Y0092851D01*
X0371335Y0092802D01*
X0371287Y0092750D01*
X0371242Y0092696D01*
X0371201Y0092639D01*
X0371162Y0092580D01*
X0371127Y0092519D01*
X0371095Y0092456D01*
X0371067Y0092392D01*
X0371042Y0092326D01*
X0371021Y0092259D01*
X0371004Y0092190D01*
X0370990Y0092121D01*
X0370981Y0092052D01*
X0370975Y0091981D01*
X0370973Y0091911D01*
X0370973Y0090633D01*
X0370973Y0092166D02*
X0368928Y0093189D01*
X0368928Y0095104D02*
X0368928Y0096382D01*
X0368930Y0096452D01*
X0368936Y0096523D01*
X0368945Y0096592D01*
X0368959Y0096661D01*
X0368976Y0096730D01*
X0368997Y0096797D01*
X0369022Y0096863D01*
X0369050Y0096927D01*
X0369082Y0096990D01*
X0369117Y0097051D01*
X0369156Y0097110D01*
X0369197Y0097167D01*
X0369242Y0097221D01*
X0369290Y0097273D01*
X0369340Y0097322D01*
X0369394Y0097369D01*
X0369449Y0097412D01*
X0369507Y0097452D01*
X0369567Y0097489D01*
X0369629Y0097522D01*
X0369693Y0097552D01*
X0369758Y0097579D01*
X0369824Y0097602D01*
X0369892Y0097621D01*
X0369961Y0097636D01*
X0370030Y0097648D01*
X0370100Y0097656D01*
X0370171Y0097660D01*
X0370241Y0097660D01*
X0370312Y0097656D01*
X0370382Y0097648D01*
X0370451Y0097636D01*
X0370520Y0097621D01*
X0370588Y0097602D01*
X0370654Y0097579D01*
X0370719Y0097552D01*
X0370783Y0097522D01*
X0370845Y0097489D01*
X0370905Y0097452D01*
X0370963Y0097412D01*
X0371018Y0097369D01*
X0371072Y0097322D01*
X0371122Y0097273D01*
X0371170Y0097221D01*
X0371215Y0097167D01*
X0371256Y0097110D01*
X0371295Y0097051D01*
X0371330Y0096990D01*
X0371362Y0096927D01*
X0371390Y0096863D01*
X0371415Y0096797D01*
X0371436Y0096730D01*
X0371453Y0096661D01*
X0371467Y0096592D01*
X0371476Y0096523D01*
X0371482Y0096452D01*
X0371484Y0096382D01*
X0371484Y0096637D02*
X0371484Y0095615D01*
X0371484Y0096637D02*
X0371486Y0096700D01*
X0371492Y0096763D01*
X0371501Y0096825D01*
X0371515Y0096886D01*
X0371532Y0096947D01*
X0371553Y0097006D01*
X0371578Y0097064D01*
X0371606Y0097121D01*
X0371637Y0097175D01*
X0371672Y0097227D01*
X0371710Y0097278D01*
X0371751Y0097326D01*
X0371795Y0097371D01*
X0371841Y0097413D01*
X0371890Y0097453D01*
X0371941Y0097489D01*
X0371995Y0097522D01*
X0372050Y0097552D01*
X0372108Y0097578D01*
X0372166Y0097601D01*
X0372226Y0097620D01*
X0372287Y0097635D01*
X0372349Y0097647D01*
X0372412Y0097655D01*
X0372475Y0097659D01*
X0372537Y0097659D01*
X0372600Y0097655D01*
X0372663Y0097647D01*
X0372725Y0097635D01*
X0372786Y0097620D01*
X0372846Y0097601D01*
X0372904Y0097578D01*
X0372962Y0097552D01*
X0373017Y0097522D01*
X0373071Y0097489D01*
X0373122Y0097453D01*
X0373171Y0097413D01*
X0373217Y0097371D01*
X0373261Y0097326D01*
X0373302Y0097278D01*
X0373340Y0097227D01*
X0373375Y0097175D01*
X0373406Y0097121D01*
X0373434Y0097064D01*
X0373459Y0097006D01*
X0373480Y0096947D01*
X0373497Y0096886D01*
X0373511Y0096825D01*
X0373520Y0096763D01*
X0373526Y0096700D01*
X0373528Y0096637D01*
X0373528Y0095104D01*
X0373528Y0100626D02*
X0369951Y0099604D01*
X0369951Y0102160D01*
X0370973Y0101393D02*
X0368928Y0101393D01*
X0365528Y0105633D02*
X0360928Y0105633D01*
X0360528Y0105633D02*
X0360528Y0106911D01*
X0360529Y0106911D02*
X0360527Y0106981D01*
X0360521Y0107052D01*
X0360512Y0107121D01*
X0360498Y0107190D01*
X0360481Y0107259D01*
X0360460Y0107326D01*
X0360435Y0107392D01*
X0360407Y0107456D01*
X0360375Y0107519D01*
X0360340Y0107580D01*
X0360301Y0107639D01*
X0360260Y0107696D01*
X0360215Y0107750D01*
X0360167Y0107802D01*
X0360117Y0107851D01*
X0360063Y0107898D01*
X0360008Y0107941D01*
X0359950Y0107981D01*
X0359890Y0108018D01*
X0359828Y0108051D01*
X0359764Y0108081D01*
X0359699Y0108108D01*
X0359633Y0108131D01*
X0359565Y0108150D01*
X0359496Y0108165D01*
X0359427Y0108177D01*
X0359357Y0108185D01*
X0359286Y0108189D01*
X0359216Y0108189D01*
X0359145Y0108185D01*
X0359075Y0108177D01*
X0359006Y0108165D01*
X0358937Y0108150D01*
X0358869Y0108131D01*
X0358803Y0108108D01*
X0358738Y0108081D01*
X0358674Y0108051D01*
X0358612Y0108018D01*
X0358552Y0107981D01*
X0358494Y0107941D01*
X0358439Y0107898D01*
X0358385Y0107851D01*
X0358335Y0107802D01*
X0358287Y0107750D01*
X0358242Y0107696D01*
X0358201Y0107639D01*
X0358162Y0107580D01*
X0358127Y0107519D01*
X0358095Y0107456D01*
X0358067Y0107392D01*
X0358042Y0107326D01*
X0358021Y0107259D01*
X0358004Y0107190D01*
X0357990Y0107121D01*
X0357981Y0107052D01*
X0357975Y0106981D01*
X0357973Y0106911D01*
X0357973Y0105633D01*
X0357973Y0107166D02*
X0355928Y0108189D01*
X0355928Y0110104D02*
X0355928Y0111382D01*
X0355930Y0111452D01*
X0355936Y0111523D01*
X0355945Y0111592D01*
X0355959Y0111661D01*
X0355976Y0111730D01*
X0355997Y0111797D01*
X0356022Y0111863D01*
X0356050Y0111927D01*
X0356082Y0111990D01*
X0356117Y0112051D01*
X0356156Y0112110D01*
X0356197Y0112167D01*
X0356242Y0112221D01*
X0356290Y0112273D01*
X0356340Y0112322D01*
X0356394Y0112369D01*
X0356449Y0112412D01*
X0356507Y0112452D01*
X0356567Y0112489D01*
X0356629Y0112522D01*
X0356693Y0112552D01*
X0356758Y0112579D01*
X0356824Y0112602D01*
X0356892Y0112621D01*
X0356961Y0112636D01*
X0357030Y0112648D01*
X0357100Y0112656D01*
X0357171Y0112660D01*
X0357241Y0112660D01*
X0357312Y0112656D01*
X0357382Y0112648D01*
X0357451Y0112636D01*
X0357520Y0112621D01*
X0357588Y0112602D01*
X0357654Y0112579D01*
X0357719Y0112552D01*
X0357783Y0112522D01*
X0357845Y0112489D01*
X0357905Y0112452D01*
X0357963Y0112412D01*
X0358018Y0112369D01*
X0358072Y0112322D01*
X0358122Y0112273D01*
X0358170Y0112221D01*
X0358215Y0112167D01*
X0358256Y0112110D01*
X0358295Y0112051D01*
X0358330Y0111990D01*
X0358362Y0111927D01*
X0358390Y0111863D01*
X0358415Y0111797D01*
X0358436Y0111730D01*
X0358453Y0111661D01*
X0358467Y0111592D01*
X0358476Y0111523D01*
X0358482Y0111452D01*
X0358484Y0111382D01*
X0358484Y0111637D02*
X0358484Y0110615D01*
X0358484Y0111637D02*
X0358486Y0111700D01*
X0358492Y0111763D01*
X0358501Y0111825D01*
X0358515Y0111886D01*
X0358532Y0111947D01*
X0358553Y0112006D01*
X0358578Y0112064D01*
X0358606Y0112121D01*
X0358637Y0112175D01*
X0358672Y0112227D01*
X0358710Y0112278D01*
X0358751Y0112326D01*
X0358795Y0112371D01*
X0358841Y0112413D01*
X0358890Y0112453D01*
X0358941Y0112489D01*
X0358995Y0112522D01*
X0359050Y0112552D01*
X0359108Y0112578D01*
X0359166Y0112601D01*
X0359226Y0112620D01*
X0359287Y0112635D01*
X0359349Y0112647D01*
X0359412Y0112655D01*
X0359475Y0112659D01*
X0359537Y0112659D01*
X0359600Y0112655D01*
X0359663Y0112647D01*
X0359725Y0112635D01*
X0359786Y0112620D01*
X0359846Y0112601D01*
X0359904Y0112578D01*
X0359962Y0112552D01*
X0360017Y0112522D01*
X0360071Y0112489D01*
X0360122Y0112453D01*
X0360171Y0112413D01*
X0360217Y0112371D01*
X0360261Y0112326D01*
X0360302Y0112278D01*
X0360340Y0112227D01*
X0360375Y0112175D01*
X0360406Y0112121D01*
X0360434Y0112064D01*
X0360459Y0112006D01*
X0360480Y0111947D01*
X0360497Y0111886D01*
X0360511Y0111825D01*
X0360520Y0111763D01*
X0360526Y0111700D01*
X0360528Y0111637D01*
X0360528Y0110104D01*
X0360928Y0110104D02*
X0360928Y0111382D01*
X0360930Y0111452D01*
X0360936Y0111523D01*
X0360945Y0111592D01*
X0360959Y0111661D01*
X0360976Y0111730D01*
X0360997Y0111797D01*
X0361022Y0111863D01*
X0361050Y0111927D01*
X0361082Y0111990D01*
X0361117Y0112051D01*
X0361156Y0112110D01*
X0361197Y0112167D01*
X0361242Y0112221D01*
X0361290Y0112273D01*
X0361340Y0112322D01*
X0361394Y0112369D01*
X0361449Y0112412D01*
X0361507Y0112452D01*
X0361567Y0112489D01*
X0361629Y0112522D01*
X0361693Y0112552D01*
X0361758Y0112579D01*
X0361824Y0112602D01*
X0361892Y0112621D01*
X0361961Y0112636D01*
X0362030Y0112648D01*
X0362100Y0112656D01*
X0362171Y0112660D01*
X0362241Y0112660D01*
X0362312Y0112656D01*
X0362382Y0112648D01*
X0362451Y0112636D01*
X0362520Y0112621D01*
X0362588Y0112602D01*
X0362654Y0112579D01*
X0362719Y0112552D01*
X0362783Y0112522D01*
X0362845Y0112489D01*
X0362905Y0112452D01*
X0362963Y0112412D01*
X0363018Y0112369D01*
X0363072Y0112322D01*
X0363122Y0112273D01*
X0363170Y0112221D01*
X0363215Y0112167D01*
X0363256Y0112110D01*
X0363295Y0112051D01*
X0363330Y0111990D01*
X0363362Y0111927D01*
X0363390Y0111863D01*
X0363415Y0111797D01*
X0363436Y0111730D01*
X0363453Y0111661D01*
X0363467Y0111592D01*
X0363476Y0111523D01*
X0363482Y0111452D01*
X0363484Y0111382D01*
X0363484Y0111637D02*
X0363484Y0110615D01*
X0363484Y0111637D02*
X0363486Y0111700D01*
X0363492Y0111763D01*
X0363501Y0111825D01*
X0363515Y0111886D01*
X0363532Y0111947D01*
X0363553Y0112006D01*
X0363578Y0112064D01*
X0363606Y0112121D01*
X0363637Y0112175D01*
X0363672Y0112227D01*
X0363710Y0112278D01*
X0363751Y0112326D01*
X0363795Y0112371D01*
X0363841Y0112413D01*
X0363890Y0112453D01*
X0363941Y0112489D01*
X0363995Y0112522D01*
X0364050Y0112552D01*
X0364108Y0112578D01*
X0364166Y0112601D01*
X0364226Y0112620D01*
X0364287Y0112635D01*
X0364349Y0112647D01*
X0364412Y0112655D01*
X0364475Y0112659D01*
X0364537Y0112659D01*
X0364600Y0112655D01*
X0364663Y0112647D01*
X0364725Y0112635D01*
X0364786Y0112620D01*
X0364846Y0112601D01*
X0364904Y0112578D01*
X0364962Y0112552D01*
X0365017Y0112522D01*
X0365071Y0112489D01*
X0365122Y0112453D01*
X0365171Y0112413D01*
X0365217Y0112371D01*
X0365261Y0112326D01*
X0365302Y0112278D01*
X0365340Y0112227D01*
X0365375Y0112175D01*
X0365406Y0112121D01*
X0365434Y0112064D01*
X0365459Y0112006D01*
X0365480Y0111947D01*
X0365497Y0111886D01*
X0365511Y0111825D01*
X0365520Y0111763D01*
X0365526Y0111700D01*
X0365528Y0111637D01*
X0365528Y0110104D01*
X0365528Y0106911D02*
X0365528Y0105633D01*
X0365529Y0106911D02*
X0365527Y0106981D01*
X0365521Y0107052D01*
X0365512Y0107121D01*
X0365498Y0107190D01*
X0365481Y0107259D01*
X0365460Y0107326D01*
X0365435Y0107392D01*
X0365407Y0107456D01*
X0365375Y0107519D01*
X0365340Y0107580D01*
X0365301Y0107639D01*
X0365260Y0107696D01*
X0365215Y0107750D01*
X0365167Y0107802D01*
X0365117Y0107851D01*
X0365063Y0107898D01*
X0365008Y0107941D01*
X0364950Y0107981D01*
X0364890Y0108018D01*
X0364828Y0108051D01*
X0364764Y0108081D01*
X0364699Y0108108D01*
X0364633Y0108131D01*
X0364565Y0108150D01*
X0364496Y0108165D01*
X0364427Y0108177D01*
X0364357Y0108185D01*
X0364286Y0108189D01*
X0364216Y0108189D01*
X0364145Y0108185D01*
X0364075Y0108177D01*
X0364006Y0108165D01*
X0363937Y0108150D01*
X0363869Y0108131D01*
X0363803Y0108108D01*
X0363738Y0108081D01*
X0363674Y0108051D01*
X0363612Y0108018D01*
X0363552Y0107981D01*
X0363494Y0107941D01*
X0363439Y0107898D01*
X0363385Y0107851D01*
X0363335Y0107802D01*
X0363287Y0107750D01*
X0363242Y0107696D01*
X0363201Y0107639D01*
X0363162Y0107580D01*
X0363127Y0107519D01*
X0363095Y0107456D01*
X0363067Y0107392D01*
X0363042Y0107326D01*
X0363021Y0107259D01*
X0363004Y0107190D01*
X0362990Y0107121D01*
X0362981Y0107052D01*
X0362975Y0106981D01*
X0362973Y0106911D01*
X0362973Y0105633D01*
X0362973Y0107166D02*
X0360928Y0108189D01*
X0360528Y0105633D02*
X0355928Y0105633D01*
X0356567Y0116777D02*
X0356671Y0116825D01*
X0356776Y0116871D01*
X0356882Y0116913D01*
X0356990Y0116952D01*
X0357099Y0116988D01*
X0357209Y0117020D01*
X0357320Y0117050D01*
X0357432Y0117075D01*
X0357544Y0117098D01*
X0357657Y0117117D01*
X0357771Y0117132D01*
X0357885Y0117144D01*
X0357999Y0117153D01*
X0358113Y0117158D01*
X0358228Y0117160D01*
X0358228Y0114604D02*
X0358343Y0114606D01*
X0358457Y0114611D01*
X0358571Y0114620D01*
X0358685Y0114632D01*
X0358799Y0114647D01*
X0358912Y0114666D01*
X0359024Y0114689D01*
X0359136Y0114714D01*
X0359247Y0114744D01*
X0359357Y0114776D01*
X0359466Y0114812D01*
X0359574Y0114851D01*
X0359680Y0114893D01*
X0359785Y0114939D01*
X0359889Y0114987D01*
X0360529Y0115882D02*
X0360527Y0115941D01*
X0360522Y0115999D01*
X0360513Y0116057D01*
X0360500Y0116114D01*
X0360484Y0116171D01*
X0360464Y0116226D01*
X0360441Y0116280D01*
X0360415Y0116332D01*
X0360385Y0116383D01*
X0360353Y0116432D01*
X0360317Y0116479D01*
X0360279Y0116523D01*
X0360238Y0116565D01*
X0360194Y0116604D01*
X0360148Y0116641D01*
X0360100Y0116674D01*
X0360050Y0116705D01*
X0359998Y0116732D01*
X0359945Y0116756D01*
X0359890Y0116777D01*
X0359506Y0116904D02*
X0356951Y0114860D01*
X0355928Y0115882D02*
X0355930Y0115941D01*
X0355935Y0115999D01*
X0355944Y0116057D01*
X0355957Y0116114D01*
X0355973Y0116171D01*
X0355993Y0116226D01*
X0356016Y0116280D01*
X0356042Y0116332D01*
X0356072Y0116383D01*
X0356104Y0116432D01*
X0356140Y0116479D01*
X0356178Y0116523D01*
X0356219Y0116565D01*
X0356263Y0116604D01*
X0356309Y0116641D01*
X0356357Y0116674D01*
X0356407Y0116705D01*
X0356459Y0116732D01*
X0356512Y0116756D01*
X0356567Y0116777D01*
X0355928Y0115882D02*
X0355930Y0115823D01*
X0355935Y0115765D01*
X0355944Y0115707D01*
X0355957Y0115650D01*
X0355973Y0115593D01*
X0355993Y0115538D01*
X0356016Y0115484D01*
X0356042Y0115432D01*
X0356072Y0115381D01*
X0356104Y0115332D01*
X0356140Y0115285D01*
X0356178Y0115241D01*
X0356219Y0115199D01*
X0356263Y0115160D01*
X0356309Y0115123D01*
X0356357Y0115090D01*
X0356407Y0115059D01*
X0356459Y0115032D01*
X0356512Y0115008D01*
X0356567Y0114987D01*
X0358228Y0117160D02*
X0358343Y0117158D01*
X0358457Y0117153D01*
X0358571Y0117144D01*
X0358685Y0117132D01*
X0358799Y0117117D01*
X0358912Y0117098D01*
X0359024Y0117075D01*
X0359136Y0117050D01*
X0359247Y0117020D01*
X0359357Y0116988D01*
X0359466Y0116952D01*
X0359574Y0116913D01*
X0359680Y0116871D01*
X0359785Y0116825D01*
X0359889Y0116777D01*
X0360529Y0115882D02*
X0360527Y0115823D01*
X0360522Y0115765D01*
X0360513Y0115707D01*
X0360500Y0115650D01*
X0360484Y0115593D01*
X0360464Y0115538D01*
X0360441Y0115484D01*
X0360415Y0115432D01*
X0360385Y0115381D01*
X0360353Y0115332D01*
X0360317Y0115285D01*
X0360279Y0115241D01*
X0360238Y0115199D01*
X0360194Y0115160D01*
X0360148Y0115123D01*
X0360100Y0115090D01*
X0360050Y0115059D01*
X0359998Y0115032D01*
X0359945Y0115008D01*
X0359890Y0114987D01*
X0360928Y0114604D02*
X0360928Y0115882D01*
X0360930Y0115952D01*
X0360936Y0116023D01*
X0360945Y0116092D01*
X0360959Y0116161D01*
X0360976Y0116230D01*
X0360997Y0116297D01*
X0361022Y0116363D01*
X0361050Y0116427D01*
X0361082Y0116490D01*
X0361117Y0116551D01*
X0361156Y0116610D01*
X0361197Y0116667D01*
X0361242Y0116721D01*
X0361290Y0116773D01*
X0361340Y0116822D01*
X0361394Y0116869D01*
X0361449Y0116912D01*
X0361507Y0116952D01*
X0361567Y0116989D01*
X0361629Y0117022D01*
X0361693Y0117052D01*
X0361758Y0117079D01*
X0361824Y0117102D01*
X0361892Y0117121D01*
X0361961Y0117136D01*
X0362030Y0117148D01*
X0362100Y0117156D01*
X0362171Y0117160D01*
X0362241Y0117160D01*
X0362312Y0117156D01*
X0362382Y0117148D01*
X0362451Y0117136D01*
X0362520Y0117121D01*
X0362588Y0117102D01*
X0362654Y0117079D01*
X0362719Y0117052D01*
X0362783Y0117022D01*
X0362845Y0116989D01*
X0362905Y0116952D01*
X0362963Y0116912D01*
X0363018Y0116869D01*
X0363072Y0116822D01*
X0363122Y0116773D01*
X0363170Y0116721D01*
X0363215Y0116667D01*
X0363256Y0116610D01*
X0363295Y0116551D01*
X0363330Y0116490D01*
X0363362Y0116427D01*
X0363390Y0116363D01*
X0363415Y0116297D01*
X0363436Y0116230D01*
X0363453Y0116161D01*
X0363467Y0116092D01*
X0363476Y0116023D01*
X0363482Y0115952D01*
X0363484Y0115882D01*
X0363484Y0116137D02*
X0363484Y0115115D01*
X0363484Y0116137D02*
X0363486Y0116200D01*
X0363492Y0116263D01*
X0363501Y0116325D01*
X0363515Y0116386D01*
X0363532Y0116447D01*
X0363553Y0116506D01*
X0363578Y0116564D01*
X0363606Y0116621D01*
X0363637Y0116675D01*
X0363672Y0116727D01*
X0363710Y0116778D01*
X0363751Y0116826D01*
X0363795Y0116871D01*
X0363841Y0116913D01*
X0363890Y0116953D01*
X0363941Y0116989D01*
X0363995Y0117022D01*
X0364050Y0117052D01*
X0364108Y0117078D01*
X0364166Y0117101D01*
X0364226Y0117120D01*
X0364287Y0117135D01*
X0364349Y0117147D01*
X0364412Y0117155D01*
X0364475Y0117159D01*
X0364537Y0117159D01*
X0364600Y0117155D01*
X0364663Y0117147D01*
X0364725Y0117135D01*
X0364786Y0117120D01*
X0364846Y0117101D01*
X0364904Y0117078D01*
X0364962Y0117052D01*
X0365017Y0117022D01*
X0365071Y0116989D01*
X0365122Y0116953D01*
X0365171Y0116913D01*
X0365217Y0116871D01*
X0365261Y0116826D01*
X0365302Y0116778D01*
X0365340Y0116727D01*
X0365375Y0116675D01*
X0365406Y0116621D01*
X0365434Y0116564D01*
X0365459Y0116506D01*
X0365480Y0116447D01*
X0365497Y0116386D01*
X0365511Y0116325D01*
X0365520Y0116263D01*
X0365526Y0116200D01*
X0365528Y0116137D01*
X0365528Y0114604D01*
X0358228Y0114604D02*
X0358113Y0114606D01*
X0357999Y0114611D01*
X0357885Y0114620D01*
X0357771Y0114632D01*
X0357657Y0114647D01*
X0357544Y0114666D01*
X0357432Y0114689D01*
X0357320Y0114714D01*
X0357209Y0114744D01*
X0357099Y0114776D01*
X0356990Y0114812D01*
X0356882Y0114851D01*
X0356776Y0114893D01*
X0356671Y0114939D01*
X0356567Y0114987D01*
X0338528Y0129155D02*
X0338528Y0131711D01*
X0338526Y0131773D01*
X0338521Y0131834D01*
X0338511Y0131895D01*
X0338498Y0131956D01*
X0338482Y0132015D01*
X0338462Y0132073D01*
X0338438Y0132130D01*
X0338411Y0132186D01*
X0338381Y0132240D01*
X0338347Y0132292D01*
X0338311Y0132341D01*
X0338271Y0132389D01*
X0338229Y0132434D01*
X0338184Y0132476D01*
X0338136Y0132516D01*
X0338087Y0132552D01*
X0338035Y0132586D01*
X0337981Y0132616D01*
X0337925Y0132643D01*
X0337868Y0132667D01*
X0337810Y0132687D01*
X0337751Y0132703D01*
X0337690Y0132716D01*
X0337629Y0132726D01*
X0337568Y0132731D01*
X0337506Y0132733D01*
X0336484Y0132733D01*
X0334765Y0132733D02*
X0332210Y0132733D01*
X0333232Y0130689D02*
X0334765Y0130689D01*
X0334765Y0132733D01*
X0333232Y0130688D02*
X0333170Y0130686D01*
X0333109Y0130681D01*
X0333048Y0130671D01*
X0332987Y0130658D01*
X0332928Y0130642D01*
X0332870Y0130622D01*
X0332813Y0130598D01*
X0332757Y0130571D01*
X0332703Y0130541D01*
X0332651Y0130507D01*
X0332602Y0130471D01*
X0332554Y0130431D01*
X0332509Y0130389D01*
X0332467Y0130344D01*
X0332427Y0130296D01*
X0332391Y0130247D01*
X0332357Y0130195D01*
X0332327Y0130141D01*
X0332300Y0130085D01*
X0332276Y0130028D01*
X0332256Y0129970D01*
X0332240Y0129911D01*
X0332227Y0129850D01*
X0332217Y0129789D01*
X0332212Y0129728D01*
X0332210Y0129666D01*
X0332210Y0129155D01*
X0332212Y0129093D01*
X0332217Y0129032D01*
X0332227Y0128971D01*
X0332240Y0128910D01*
X0332256Y0128851D01*
X0332276Y0128793D01*
X0332300Y0128736D01*
X0332327Y0128680D01*
X0332357Y0128626D01*
X0332391Y0128574D01*
X0332427Y0128525D01*
X0332467Y0128477D01*
X0332509Y0128432D01*
X0332554Y0128390D01*
X0332602Y0128350D01*
X0332651Y0128314D01*
X0332703Y0128280D01*
X0332757Y0128250D01*
X0332813Y0128223D01*
X0332870Y0128199D01*
X0332928Y0128179D01*
X0332987Y0128163D01*
X0333048Y0128150D01*
X0333109Y0128140D01*
X0333170Y0128135D01*
X0333232Y0128133D01*
X0334765Y0128133D01*
X0336484Y0128133D02*
X0337506Y0128133D01*
X0337568Y0128135D01*
X0337629Y0128140D01*
X0337690Y0128150D01*
X0337751Y0128163D01*
X0337810Y0128179D01*
X0337868Y0128199D01*
X0337925Y0128223D01*
X0337981Y0128250D01*
X0338035Y0128280D01*
X0338087Y0128314D01*
X0338136Y0128350D01*
X0338184Y0128390D01*
X0338229Y0128432D01*
X0338271Y0128477D01*
X0338311Y0128525D01*
X0338347Y0128574D01*
X0338381Y0128626D01*
X0338411Y0128680D01*
X0338438Y0128736D01*
X0338462Y0128793D01*
X0338482Y0128851D01*
X0338498Y0128910D01*
X0338511Y0128971D01*
X0338521Y0129032D01*
X0338526Y0129093D01*
X0338528Y0129155D01*
X0351428Y0133133D02*
X0356028Y0133133D01*
X0356028Y0134411D01*
X0356029Y0134411D02*
X0356027Y0134481D01*
X0356021Y0134552D01*
X0356012Y0134621D01*
X0355998Y0134690D01*
X0355981Y0134759D01*
X0355960Y0134826D01*
X0355935Y0134892D01*
X0355907Y0134956D01*
X0355875Y0135019D01*
X0355840Y0135080D01*
X0355801Y0135139D01*
X0355760Y0135196D01*
X0355715Y0135250D01*
X0355667Y0135302D01*
X0355617Y0135351D01*
X0355563Y0135398D01*
X0355508Y0135441D01*
X0355450Y0135481D01*
X0355390Y0135518D01*
X0355328Y0135551D01*
X0355264Y0135581D01*
X0355199Y0135608D01*
X0355133Y0135631D01*
X0355065Y0135650D01*
X0354996Y0135665D01*
X0354927Y0135677D01*
X0354857Y0135685D01*
X0354786Y0135689D01*
X0354716Y0135689D01*
X0354645Y0135685D01*
X0354575Y0135677D01*
X0354506Y0135665D01*
X0354437Y0135650D01*
X0354369Y0135631D01*
X0354303Y0135608D01*
X0354238Y0135581D01*
X0354174Y0135551D01*
X0354112Y0135518D01*
X0354052Y0135481D01*
X0353994Y0135441D01*
X0353939Y0135398D01*
X0353885Y0135351D01*
X0353835Y0135302D01*
X0353787Y0135250D01*
X0353742Y0135196D01*
X0353701Y0135139D01*
X0353662Y0135080D01*
X0353627Y0135019D01*
X0353595Y0134956D01*
X0353567Y0134892D01*
X0353542Y0134826D01*
X0353521Y0134759D01*
X0353504Y0134690D01*
X0353490Y0134621D01*
X0353481Y0134552D01*
X0353475Y0134481D01*
X0353473Y0134411D01*
X0353473Y0133133D01*
X0353473Y0134666D02*
X0351428Y0135689D01*
X0351428Y0137604D02*
X0351428Y0138882D01*
X0351430Y0138952D01*
X0351436Y0139023D01*
X0351445Y0139092D01*
X0351459Y0139161D01*
X0351476Y0139230D01*
X0351497Y0139297D01*
X0351522Y0139363D01*
X0351550Y0139427D01*
X0351582Y0139490D01*
X0351617Y0139551D01*
X0351656Y0139610D01*
X0351697Y0139667D01*
X0351742Y0139721D01*
X0351790Y0139773D01*
X0351840Y0139822D01*
X0351894Y0139869D01*
X0351949Y0139912D01*
X0352007Y0139952D01*
X0352067Y0139989D01*
X0352129Y0140022D01*
X0352193Y0140052D01*
X0352258Y0140079D01*
X0352324Y0140102D01*
X0352392Y0140121D01*
X0352461Y0140136D01*
X0352530Y0140148D01*
X0352600Y0140156D01*
X0352671Y0140160D01*
X0352741Y0140160D01*
X0352812Y0140156D01*
X0352882Y0140148D01*
X0352951Y0140136D01*
X0353020Y0140121D01*
X0353088Y0140102D01*
X0353154Y0140079D01*
X0353219Y0140052D01*
X0353283Y0140022D01*
X0353345Y0139989D01*
X0353405Y0139952D01*
X0353463Y0139912D01*
X0353518Y0139869D01*
X0353572Y0139822D01*
X0353622Y0139773D01*
X0353670Y0139721D01*
X0353715Y0139667D01*
X0353756Y0139610D01*
X0353795Y0139551D01*
X0353830Y0139490D01*
X0353862Y0139427D01*
X0353890Y0139363D01*
X0353915Y0139297D01*
X0353936Y0139230D01*
X0353953Y0139161D01*
X0353967Y0139092D01*
X0353976Y0139023D01*
X0353982Y0138952D01*
X0353984Y0138882D01*
X0353984Y0139137D02*
X0353984Y0138115D01*
X0353984Y0139137D02*
X0353986Y0139200D01*
X0353992Y0139263D01*
X0354001Y0139325D01*
X0354015Y0139386D01*
X0354032Y0139447D01*
X0354053Y0139506D01*
X0354078Y0139564D01*
X0354106Y0139621D01*
X0354137Y0139675D01*
X0354172Y0139727D01*
X0354210Y0139778D01*
X0354251Y0139826D01*
X0354295Y0139871D01*
X0354341Y0139913D01*
X0354390Y0139953D01*
X0354441Y0139989D01*
X0354495Y0140022D01*
X0354550Y0140052D01*
X0354608Y0140078D01*
X0354666Y0140101D01*
X0354726Y0140120D01*
X0354787Y0140135D01*
X0354849Y0140147D01*
X0354912Y0140155D01*
X0354975Y0140159D01*
X0355037Y0140159D01*
X0355100Y0140155D01*
X0355163Y0140147D01*
X0355225Y0140135D01*
X0355286Y0140120D01*
X0355346Y0140101D01*
X0355404Y0140078D01*
X0355462Y0140052D01*
X0355517Y0140022D01*
X0355571Y0139989D01*
X0355622Y0139953D01*
X0355671Y0139913D01*
X0355717Y0139871D01*
X0355761Y0139826D01*
X0355802Y0139778D01*
X0355840Y0139727D01*
X0355875Y0139675D01*
X0355906Y0139621D01*
X0355934Y0139564D01*
X0355959Y0139506D01*
X0355980Y0139447D01*
X0355997Y0139386D01*
X0356011Y0139325D01*
X0356020Y0139263D01*
X0356026Y0139200D01*
X0356028Y0139137D01*
X0356028Y0137604D01*
X0355006Y0142104D02*
X0356028Y0143382D01*
X0351428Y0143382D01*
X0351428Y0142104D02*
X0351428Y0144660D01*
X0367428Y0144660D02*
X0367428Y0142104D01*
X0369984Y0144276D01*
X0372028Y0143510D02*
X0372026Y0143436D01*
X0372021Y0143362D01*
X0372011Y0143288D01*
X0371998Y0143215D01*
X0371982Y0143142D01*
X0371961Y0143071D01*
X0371937Y0143001D01*
X0371910Y0142932D01*
X0371879Y0142864D01*
X0371845Y0142798D01*
X0371808Y0142734D01*
X0371767Y0142672D01*
X0371723Y0142612D01*
X0371677Y0142554D01*
X0371627Y0142498D01*
X0371575Y0142445D01*
X0371520Y0142395D01*
X0371463Y0142348D01*
X0371403Y0142304D01*
X0371341Y0142262D01*
X0371278Y0142224D01*
X0371212Y0142189D01*
X0371145Y0142158D01*
X0371076Y0142130D01*
X0371006Y0142105D01*
X0369984Y0144276D02*
X0370031Y0144323D01*
X0370081Y0144367D01*
X0370133Y0144409D01*
X0370187Y0144448D01*
X0370243Y0144483D01*
X0370301Y0144516D01*
X0370361Y0144546D01*
X0370422Y0144572D01*
X0370485Y0144595D01*
X0370549Y0144614D01*
X0370613Y0144630D01*
X0370679Y0144643D01*
X0370745Y0144652D01*
X0370811Y0144657D01*
X0370878Y0144659D01*
X0370878Y0144660D02*
X0370945Y0144658D01*
X0371012Y0144652D01*
X0371078Y0144643D01*
X0371143Y0144629D01*
X0371208Y0144612D01*
X0371271Y0144591D01*
X0371333Y0144566D01*
X0371394Y0144538D01*
X0371453Y0144506D01*
X0371510Y0144471D01*
X0371565Y0144432D01*
X0371617Y0144391D01*
X0371667Y0144346D01*
X0371714Y0144299D01*
X0371759Y0144249D01*
X0371800Y0144197D01*
X0371839Y0144142D01*
X0371874Y0144085D01*
X0371906Y0144026D01*
X0371934Y0143965D01*
X0371959Y0143903D01*
X0371980Y0143840D01*
X0371997Y0143775D01*
X0372011Y0143710D01*
X0372020Y0143644D01*
X0372026Y0143577D01*
X0372028Y0143510D01*
X0372028Y0139137D02*
X0372028Y0137604D01*
X0372028Y0139137D02*
X0372026Y0139200D01*
X0372020Y0139263D01*
X0372011Y0139325D01*
X0371997Y0139386D01*
X0371980Y0139447D01*
X0371959Y0139506D01*
X0371934Y0139564D01*
X0371906Y0139621D01*
X0371875Y0139675D01*
X0371840Y0139727D01*
X0371802Y0139778D01*
X0371761Y0139826D01*
X0371717Y0139871D01*
X0371671Y0139913D01*
X0371622Y0139953D01*
X0371571Y0139989D01*
X0371517Y0140022D01*
X0371462Y0140052D01*
X0371404Y0140078D01*
X0371346Y0140101D01*
X0371286Y0140120D01*
X0371225Y0140135D01*
X0371163Y0140147D01*
X0371100Y0140155D01*
X0371037Y0140159D01*
X0370975Y0140159D01*
X0370912Y0140155D01*
X0370849Y0140147D01*
X0370787Y0140135D01*
X0370726Y0140120D01*
X0370666Y0140101D01*
X0370608Y0140078D01*
X0370550Y0140052D01*
X0370495Y0140022D01*
X0370441Y0139989D01*
X0370390Y0139953D01*
X0370341Y0139913D01*
X0370295Y0139871D01*
X0370251Y0139826D01*
X0370210Y0139778D01*
X0370172Y0139727D01*
X0370137Y0139675D01*
X0370106Y0139621D01*
X0370078Y0139564D01*
X0370053Y0139506D01*
X0370032Y0139447D01*
X0370015Y0139386D01*
X0370001Y0139325D01*
X0369992Y0139263D01*
X0369986Y0139200D01*
X0369984Y0139137D01*
X0369984Y0138115D01*
X0369984Y0138882D02*
X0369982Y0138952D01*
X0369976Y0139023D01*
X0369967Y0139092D01*
X0369953Y0139161D01*
X0369936Y0139230D01*
X0369915Y0139297D01*
X0369890Y0139363D01*
X0369862Y0139427D01*
X0369830Y0139490D01*
X0369795Y0139551D01*
X0369756Y0139610D01*
X0369715Y0139667D01*
X0369670Y0139721D01*
X0369622Y0139773D01*
X0369572Y0139822D01*
X0369518Y0139869D01*
X0369463Y0139912D01*
X0369405Y0139952D01*
X0369345Y0139989D01*
X0369283Y0140022D01*
X0369219Y0140052D01*
X0369154Y0140079D01*
X0369088Y0140102D01*
X0369020Y0140121D01*
X0368951Y0140136D01*
X0368882Y0140148D01*
X0368812Y0140156D01*
X0368741Y0140160D01*
X0368671Y0140160D01*
X0368600Y0140156D01*
X0368530Y0140148D01*
X0368461Y0140136D01*
X0368392Y0140121D01*
X0368324Y0140102D01*
X0368258Y0140079D01*
X0368193Y0140052D01*
X0368129Y0140022D01*
X0368067Y0139989D01*
X0368007Y0139952D01*
X0367949Y0139912D01*
X0367894Y0139869D01*
X0367840Y0139822D01*
X0367790Y0139773D01*
X0367742Y0139721D01*
X0367697Y0139667D01*
X0367656Y0139610D01*
X0367617Y0139551D01*
X0367582Y0139490D01*
X0367550Y0139427D01*
X0367522Y0139363D01*
X0367497Y0139297D01*
X0367476Y0139230D01*
X0367459Y0139161D01*
X0367445Y0139092D01*
X0367436Y0139023D01*
X0367430Y0138952D01*
X0367428Y0138882D01*
X0367428Y0137604D01*
X0367428Y0135689D02*
X0369473Y0134666D01*
X0369473Y0134411D02*
X0369473Y0133133D01*
X0369473Y0134411D02*
X0369475Y0134481D01*
X0369481Y0134552D01*
X0369490Y0134621D01*
X0369504Y0134690D01*
X0369521Y0134759D01*
X0369542Y0134826D01*
X0369567Y0134892D01*
X0369595Y0134956D01*
X0369627Y0135019D01*
X0369662Y0135080D01*
X0369701Y0135139D01*
X0369742Y0135196D01*
X0369787Y0135250D01*
X0369835Y0135302D01*
X0369885Y0135351D01*
X0369939Y0135398D01*
X0369994Y0135441D01*
X0370052Y0135481D01*
X0370112Y0135518D01*
X0370174Y0135551D01*
X0370238Y0135581D01*
X0370303Y0135608D01*
X0370369Y0135631D01*
X0370437Y0135650D01*
X0370506Y0135665D01*
X0370575Y0135677D01*
X0370645Y0135685D01*
X0370716Y0135689D01*
X0370786Y0135689D01*
X0370857Y0135685D01*
X0370927Y0135677D01*
X0370996Y0135665D01*
X0371065Y0135650D01*
X0371133Y0135631D01*
X0371199Y0135608D01*
X0371264Y0135581D01*
X0371328Y0135551D01*
X0371390Y0135518D01*
X0371450Y0135481D01*
X0371508Y0135441D01*
X0371563Y0135398D01*
X0371617Y0135351D01*
X0371667Y0135302D01*
X0371715Y0135250D01*
X0371760Y0135196D01*
X0371801Y0135139D01*
X0371840Y0135080D01*
X0371875Y0135019D01*
X0371907Y0134956D01*
X0371935Y0134892D01*
X0371960Y0134826D01*
X0371981Y0134759D01*
X0371998Y0134690D01*
X0372012Y0134621D01*
X0372021Y0134552D01*
X0372027Y0134481D01*
X0372029Y0134411D01*
X0372028Y0134411D02*
X0372028Y0133133D01*
X0367428Y0133133D01*
X0383928Y0128666D02*
X0383928Y0128411D01*
X0383929Y0128666D02*
X0383931Y0128728D01*
X0383936Y0128789D01*
X0383946Y0128850D01*
X0383959Y0128911D01*
X0383975Y0128970D01*
X0383995Y0129028D01*
X0384019Y0129085D01*
X0384046Y0129141D01*
X0384076Y0129195D01*
X0384110Y0129247D01*
X0384146Y0129296D01*
X0384186Y0129344D01*
X0384228Y0129389D01*
X0384273Y0129431D01*
X0384321Y0129471D01*
X0384370Y0129507D01*
X0384422Y0129541D01*
X0384476Y0129571D01*
X0384532Y0129598D01*
X0384589Y0129622D01*
X0384647Y0129642D01*
X0384706Y0129658D01*
X0384767Y0129671D01*
X0384828Y0129681D01*
X0384889Y0129686D01*
X0384951Y0129688D01*
X0384951Y0129689D02*
X0386484Y0129689D01*
X0386484Y0128411D01*
X0386482Y0128341D01*
X0386476Y0128270D01*
X0386467Y0128201D01*
X0386453Y0128132D01*
X0386436Y0128063D01*
X0386415Y0127996D01*
X0386390Y0127930D01*
X0386362Y0127866D01*
X0386330Y0127803D01*
X0386295Y0127742D01*
X0386256Y0127683D01*
X0386215Y0127626D01*
X0386170Y0127572D01*
X0386122Y0127520D01*
X0386072Y0127471D01*
X0386018Y0127424D01*
X0385963Y0127381D01*
X0385905Y0127341D01*
X0385845Y0127304D01*
X0385783Y0127271D01*
X0385719Y0127241D01*
X0385654Y0127214D01*
X0385588Y0127191D01*
X0385520Y0127172D01*
X0385451Y0127157D01*
X0385382Y0127145D01*
X0385312Y0127137D01*
X0385241Y0127133D01*
X0385171Y0127133D01*
X0385100Y0127137D01*
X0385030Y0127145D01*
X0384961Y0127157D01*
X0384892Y0127172D01*
X0384824Y0127191D01*
X0384758Y0127214D01*
X0384693Y0127241D01*
X0384629Y0127271D01*
X0384567Y0127304D01*
X0384507Y0127341D01*
X0384449Y0127381D01*
X0384394Y0127424D01*
X0384340Y0127471D01*
X0384290Y0127520D01*
X0384242Y0127572D01*
X0384197Y0127626D01*
X0384156Y0127683D01*
X0384117Y0127742D01*
X0384082Y0127803D01*
X0384050Y0127866D01*
X0384022Y0127930D01*
X0383997Y0127996D01*
X0383976Y0128063D01*
X0383959Y0128132D01*
X0383945Y0128201D01*
X0383936Y0128270D01*
X0383930Y0128341D01*
X0383928Y0128411D01*
X0386483Y0129689D02*
X0386481Y0129778D01*
X0386475Y0129867D01*
X0386466Y0129956D01*
X0386452Y0130044D01*
X0386435Y0130131D01*
X0386413Y0130218D01*
X0386388Y0130304D01*
X0386360Y0130388D01*
X0386327Y0130471D01*
X0386291Y0130553D01*
X0386252Y0130633D01*
X0386209Y0130711D01*
X0386163Y0130787D01*
X0386113Y0130861D01*
X0386061Y0130933D01*
X0386005Y0131003D01*
X0385946Y0131070D01*
X0385884Y0131134D01*
X0385820Y0131196D01*
X0385753Y0131255D01*
X0385683Y0131311D01*
X0385611Y0131363D01*
X0385537Y0131413D01*
X0385461Y0131459D01*
X0385383Y0131502D01*
X0385303Y0131541D01*
X0385221Y0131577D01*
X0385138Y0131610D01*
X0385054Y0131638D01*
X0384968Y0131663D01*
X0384881Y0131685D01*
X0384794Y0131702D01*
X0384706Y0131716D01*
X0384617Y0131725D01*
X0384528Y0131731D01*
X0384439Y0131733D01*
X0388203Y0131733D02*
X0389225Y0131733D01*
X0389287Y0131731D01*
X0389348Y0131726D01*
X0389409Y0131716D01*
X0389470Y0131703D01*
X0389529Y0131687D01*
X0389587Y0131667D01*
X0389644Y0131643D01*
X0389700Y0131616D01*
X0389754Y0131586D01*
X0389806Y0131552D01*
X0389855Y0131516D01*
X0389903Y0131476D01*
X0389948Y0131434D01*
X0389990Y0131389D01*
X0390030Y0131341D01*
X0390066Y0131292D01*
X0390100Y0131240D01*
X0390130Y0131186D01*
X0390157Y0131130D01*
X0390181Y0131073D01*
X0390201Y0131015D01*
X0390217Y0130956D01*
X0390230Y0130895D01*
X0390240Y0130834D01*
X0390245Y0130773D01*
X0390247Y0130711D01*
X0390247Y0128155D01*
X0390245Y0128093D01*
X0390240Y0128032D01*
X0390230Y0127971D01*
X0390217Y0127910D01*
X0390201Y0127851D01*
X0390181Y0127793D01*
X0390157Y0127736D01*
X0390130Y0127680D01*
X0390100Y0127626D01*
X0390066Y0127574D01*
X0390030Y0127525D01*
X0389990Y0127477D01*
X0389948Y0127432D01*
X0389903Y0127390D01*
X0389855Y0127350D01*
X0389806Y0127314D01*
X0389754Y0127280D01*
X0389700Y0127250D01*
X0389644Y0127223D01*
X0389587Y0127199D01*
X0389529Y0127179D01*
X0389470Y0127163D01*
X0389409Y0127150D01*
X0389348Y0127140D01*
X0389287Y0127135D01*
X0389225Y0127133D01*
X0388203Y0127133D01*
X0387928Y0116733D02*
X0389206Y0112133D01*
X0392203Y0112133D02*
X0393225Y0112133D01*
X0393287Y0112135D01*
X0393348Y0112140D01*
X0393409Y0112150D01*
X0393470Y0112163D01*
X0393529Y0112179D01*
X0393587Y0112199D01*
X0393644Y0112223D01*
X0393700Y0112250D01*
X0393754Y0112280D01*
X0393806Y0112314D01*
X0393855Y0112350D01*
X0393903Y0112390D01*
X0393948Y0112432D01*
X0393990Y0112477D01*
X0394030Y0112525D01*
X0394066Y0112574D01*
X0394100Y0112626D01*
X0394130Y0112680D01*
X0394157Y0112736D01*
X0394181Y0112793D01*
X0394201Y0112851D01*
X0394217Y0112910D01*
X0394230Y0112971D01*
X0394240Y0113032D01*
X0394245Y0113093D01*
X0394247Y0113155D01*
X0394247Y0115711D01*
X0394245Y0115773D01*
X0394240Y0115834D01*
X0394230Y0115895D01*
X0394217Y0115956D01*
X0394201Y0116015D01*
X0394181Y0116073D01*
X0394157Y0116130D01*
X0394130Y0116186D01*
X0394100Y0116240D01*
X0394066Y0116292D01*
X0394030Y0116341D01*
X0393990Y0116389D01*
X0393948Y0116434D01*
X0393903Y0116476D01*
X0393855Y0116516D01*
X0393806Y0116552D01*
X0393754Y0116586D01*
X0393700Y0116616D01*
X0393644Y0116643D01*
X0393587Y0116667D01*
X0393529Y0116687D01*
X0393470Y0116703D01*
X0393409Y0116716D01*
X0393348Y0116726D01*
X0393287Y0116731D01*
X0393225Y0116733D01*
X0392203Y0116733D01*
X0390484Y0116733D02*
X0387928Y0116733D01*
X0390484Y0116733D02*
X0390484Y0116222D01*
X0396184Y0101211D02*
X0396186Y0101148D01*
X0396192Y0101085D01*
X0396201Y0101023D01*
X0396215Y0100962D01*
X0396232Y0100901D01*
X0396253Y0100842D01*
X0396278Y0100784D01*
X0396306Y0100727D01*
X0396337Y0100673D01*
X0396372Y0100621D01*
X0396410Y0100570D01*
X0396451Y0100522D01*
X0396495Y0100477D01*
X0396541Y0100435D01*
X0396590Y0100395D01*
X0396641Y0100359D01*
X0396695Y0100326D01*
X0396750Y0100296D01*
X0396808Y0100270D01*
X0396866Y0100247D01*
X0396926Y0100228D01*
X0396987Y0100213D01*
X0397049Y0100201D01*
X0397112Y0100193D01*
X0397175Y0100189D01*
X0397237Y0100189D01*
X0397300Y0100193D01*
X0397363Y0100201D01*
X0397425Y0100213D01*
X0397486Y0100228D01*
X0397546Y0100247D01*
X0397604Y0100270D01*
X0397662Y0100296D01*
X0397717Y0100326D01*
X0397771Y0100359D01*
X0397822Y0100395D01*
X0397871Y0100435D01*
X0397917Y0100477D01*
X0397961Y0100522D01*
X0398002Y0100570D01*
X0398040Y0100621D01*
X0398075Y0100673D01*
X0398106Y0100727D01*
X0398134Y0100784D01*
X0398159Y0100842D01*
X0398180Y0100901D01*
X0398197Y0100962D01*
X0398211Y0101023D01*
X0398220Y0101085D01*
X0398226Y0101148D01*
X0398228Y0101211D01*
X0398226Y0101274D01*
X0398220Y0101337D01*
X0398211Y0101399D01*
X0398197Y0101460D01*
X0398180Y0101521D01*
X0398159Y0101580D01*
X0398134Y0101638D01*
X0398106Y0101695D01*
X0398075Y0101749D01*
X0398040Y0101801D01*
X0398002Y0101852D01*
X0397961Y0101900D01*
X0397917Y0101945D01*
X0397871Y0101987D01*
X0397822Y0102027D01*
X0397771Y0102063D01*
X0397717Y0102096D01*
X0397662Y0102126D01*
X0397604Y0102152D01*
X0397546Y0102175D01*
X0397486Y0102194D01*
X0397425Y0102209D01*
X0397363Y0102221D01*
X0397300Y0102229D01*
X0397237Y0102233D01*
X0397175Y0102233D01*
X0397112Y0102229D01*
X0397049Y0102221D01*
X0396987Y0102209D01*
X0396926Y0102194D01*
X0396866Y0102175D01*
X0396808Y0102152D01*
X0396750Y0102126D01*
X0396695Y0102096D01*
X0396641Y0102063D01*
X0396590Y0102027D01*
X0396541Y0101987D01*
X0396495Y0101945D01*
X0396451Y0101900D01*
X0396410Y0101852D01*
X0396372Y0101801D01*
X0396337Y0101749D01*
X0396306Y0101695D01*
X0396278Y0101638D01*
X0396253Y0101580D01*
X0396232Y0101521D01*
X0396215Y0101460D01*
X0396201Y0101399D01*
X0396192Y0101337D01*
X0396186Y0101274D01*
X0396184Y0101211D01*
X0395928Y0098911D02*
X0395930Y0098841D01*
X0395936Y0098770D01*
X0395945Y0098701D01*
X0395959Y0098632D01*
X0395976Y0098563D01*
X0395997Y0098496D01*
X0396022Y0098430D01*
X0396050Y0098366D01*
X0396082Y0098303D01*
X0396117Y0098242D01*
X0396156Y0098183D01*
X0396197Y0098126D01*
X0396242Y0098072D01*
X0396290Y0098020D01*
X0396340Y0097971D01*
X0396394Y0097924D01*
X0396449Y0097881D01*
X0396507Y0097841D01*
X0396567Y0097804D01*
X0396629Y0097771D01*
X0396693Y0097741D01*
X0396758Y0097714D01*
X0396824Y0097691D01*
X0396892Y0097672D01*
X0396961Y0097657D01*
X0397030Y0097645D01*
X0397100Y0097637D01*
X0397171Y0097633D01*
X0397241Y0097633D01*
X0397312Y0097637D01*
X0397382Y0097645D01*
X0397451Y0097657D01*
X0397520Y0097672D01*
X0397588Y0097691D01*
X0397654Y0097714D01*
X0397719Y0097741D01*
X0397783Y0097771D01*
X0397845Y0097804D01*
X0397905Y0097841D01*
X0397963Y0097881D01*
X0398018Y0097924D01*
X0398072Y0097971D01*
X0398122Y0098020D01*
X0398170Y0098072D01*
X0398215Y0098126D01*
X0398256Y0098183D01*
X0398295Y0098242D01*
X0398330Y0098303D01*
X0398362Y0098366D01*
X0398390Y0098430D01*
X0398415Y0098496D01*
X0398436Y0098563D01*
X0398453Y0098632D01*
X0398467Y0098701D01*
X0398476Y0098770D01*
X0398482Y0098841D01*
X0398484Y0098911D01*
X0398482Y0098981D01*
X0398476Y0099052D01*
X0398467Y0099121D01*
X0398453Y0099190D01*
X0398436Y0099259D01*
X0398415Y0099326D01*
X0398390Y0099392D01*
X0398362Y0099456D01*
X0398330Y0099519D01*
X0398295Y0099580D01*
X0398256Y0099639D01*
X0398215Y0099696D01*
X0398170Y0099750D01*
X0398122Y0099802D01*
X0398072Y0099851D01*
X0398018Y0099898D01*
X0397963Y0099941D01*
X0397905Y0099981D01*
X0397845Y0100018D01*
X0397783Y0100051D01*
X0397719Y0100081D01*
X0397654Y0100108D01*
X0397588Y0100131D01*
X0397520Y0100150D01*
X0397451Y0100165D01*
X0397382Y0100177D01*
X0397312Y0100185D01*
X0397241Y0100189D01*
X0397171Y0100189D01*
X0397100Y0100185D01*
X0397030Y0100177D01*
X0396961Y0100165D01*
X0396892Y0100150D01*
X0396824Y0100131D01*
X0396758Y0100108D01*
X0396693Y0100081D01*
X0396629Y0100051D01*
X0396567Y0100018D01*
X0396507Y0099981D01*
X0396449Y0099941D01*
X0396394Y0099898D01*
X0396340Y0099851D01*
X0396290Y0099802D01*
X0396242Y0099750D01*
X0396197Y0099696D01*
X0396156Y0099639D01*
X0396117Y0099580D01*
X0396082Y0099519D01*
X0396050Y0099456D01*
X0396022Y0099392D01*
X0395997Y0099326D01*
X0395976Y0099259D01*
X0395959Y0099190D01*
X0395945Y0099121D01*
X0395936Y0099052D01*
X0395930Y0098981D01*
X0395928Y0098911D01*
X0400203Y0097633D02*
X0401225Y0097633D01*
X0401287Y0097635D01*
X0401348Y0097640D01*
X0401409Y0097650D01*
X0401470Y0097663D01*
X0401529Y0097679D01*
X0401587Y0097699D01*
X0401644Y0097723D01*
X0401700Y0097750D01*
X0401754Y0097780D01*
X0401806Y0097814D01*
X0401855Y0097850D01*
X0401903Y0097890D01*
X0401948Y0097932D01*
X0401990Y0097977D01*
X0402030Y0098025D01*
X0402066Y0098074D01*
X0402100Y0098126D01*
X0402130Y0098180D01*
X0402157Y0098236D01*
X0402181Y0098293D01*
X0402201Y0098351D01*
X0402217Y0098410D01*
X0402230Y0098471D01*
X0402240Y0098532D01*
X0402245Y0098593D01*
X0402247Y0098655D01*
X0402247Y0101211D01*
X0402245Y0101273D01*
X0402240Y0101334D01*
X0402230Y0101395D01*
X0402217Y0101456D01*
X0402201Y0101515D01*
X0402181Y0101573D01*
X0402157Y0101630D01*
X0402130Y0101686D01*
X0402100Y0101740D01*
X0402066Y0101792D01*
X0402030Y0101841D01*
X0401990Y0101889D01*
X0401948Y0101934D01*
X0401903Y0101976D01*
X0401855Y0102016D01*
X0401806Y0102052D01*
X0401754Y0102086D01*
X0401700Y0102116D01*
X0401644Y0102143D01*
X0401587Y0102167D01*
X0401529Y0102187D01*
X0401470Y0102203D01*
X0401409Y0102216D01*
X0401348Y0102226D01*
X0401287Y0102231D01*
X0401225Y0102233D01*
X0400203Y0102233D01*
X0405928Y0086455D02*
X0405928Y0085178D01*
X0407462Y0085178D01*
X0405929Y0085178D02*
X0405931Y0085089D01*
X0405937Y0085000D01*
X0405946Y0084911D01*
X0405960Y0084823D01*
X0405977Y0084736D01*
X0405999Y0084649D01*
X0406024Y0084563D01*
X0406052Y0084479D01*
X0406085Y0084396D01*
X0406121Y0084314D01*
X0406160Y0084234D01*
X0406203Y0084156D01*
X0406249Y0084080D01*
X0406299Y0084006D01*
X0406351Y0083934D01*
X0406407Y0083864D01*
X0406466Y0083797D01*
X0406528Y0083733D01*
X0406592Y0083671D01*
X0406659Y0083612D01*
X0406729Y0083556D01*
X0406801Y0083504D01*
X0406875Y0083454D01*
X0406951Y0083408D01*
X0407029Y0083365D01*
X0407109Y0083326D01*
X0407191Y0083290D01*
X0407274Y0083257D01*
X0407358Y0083229D01*
X0407444Y0083204D01*
X0407531Y0083182D01*
X0407618Y0083165D01*
X0407706Y0083151D01*
X0407795Y0083142D01*
X0407884Y0083136D01*
X0407973Y0083134D01*
X0410203Y0083133D02*
X0411225Y0083133D01*
X0411287Y0083135D01*
X0411348Y0083140D01*
X0411409Y0083150D01*
X0411470Y0083163D01*
X0411529Y0083179D01*
X0411587Y0083199D01*
X0411644Y0083223D01*
X0411700Y0083250D01*
X0411754Y0083280D01*
X0411806Y0083314D01*
X0411855Y0083350D01*
X0411903Y0083390D01*
X0411948Y0083432D01*
X0411990Y0083477D01*
X0412030Y0083525D01*
X0412066Y0083574D01*
X0412100Y0083626D01*
X0412130Y0083680D01*
X0412157Y0083736D01*
X0412181Y0083793D01*
X0412201Y0083851D01*
X0412217Y0083910D01*
X0412230Y0083971D01*
X0412240Y0084032D01*
X0412245Y0084093D01*
X0412247Y0084155D01*
X0412247Y0086711D01*
X0412245Y0086773D01*
X0412240Y0086834D01*
X0412230Y0086895D01*
X0412217Y0086956D01*
X0412201Y0087015D01*
X0412181Y0087073D01*
X0412157Y0087130D01*
X0412130Y0087186D01*
X0412100Y0087240D01*
X0412066Y0087292D01*
X0412030Y0087341D01*
X0411990Y0087389D01*
X0411948Y0087434D01*
X0411903Y0087476D01*
X0411855Y0087516D01*
X0411806Y0087552D01*
X0411754Y0087586D01*
X0411700Y0087616D01*
X0411644Y0087643D01*
X0411587Y0087667D01*
X0411529Y0087687D01*
X0411470Y0087703D01*
X0411409Y0087716D01*
X0411348Y0087726D01*
X0411287Y0087731D01*
X0411225Y0087733D01*
X0410203Y0087733D01*
X0408484Y0086455D02*
X0408484Y0086200D01*
X0408482Y0086138D01*
X0408477Y0086077D01*
X0408467Y0086016D01*
X0408454Y0085955D01*
X0408438Y0085896D01*
X0408418Y0085838D01*
X0408394Y0085781D01*
X0408367Y0085725D01*
X0408337Y0085671D01*
X0408303Y0085619D01*
X0408267Y0085570D01*
X0408227Y0085522D01*
X0408185Y0085477D01*
X0408140Y0085435D01*
X0408092Y0085395D01*
X0408043Y0085359D01*
X0407991Y0085325D01*
X0407937Y0085295D01*
X0407881Y0085268D01*
X0407824Y0085244D01*
X0407766Y0085224D01*
X0407707Y0085208D01*
X0407646Y0085195D01*
X0407585Y0085185D01*
X0407524Y0085180D01*
X0407462Y0085178D01*
X0408484Y0086455D02*
X0408482Y0086525D01*
X0408476Y0086596D01*
X0408467Y0086665D01*
X0408453Y0086734D01*
X0408436Y0086803D01*
X0408415Y0086870D01*
X0408390Y0086936D01*
X0408362Y0087000D01*
X0408330Y0087063D01*
X0408295Y0087124D01*
X0408256Y0087183D01*
X0408215Y0087240D01*
X0408170Y0087294D01*
X0408122Y0087346D01*
X0408072Y0087395D01*
X0408018Y0087442D01*
X0407963Y0087485D01*
X0407905Y0087525D01*
X0407845Y0087562D01*
X0407783Y0087595D01*
X0407719Y0087625D01*
X0407654Y0087652D01*
X0407588Y0087675D01*
X0407520Y0087694D01*
X0407451Y0087709D01*
X0407382Y0087721D01*
X0407312Y0087729D01*
X0407241Y0087733D01*
X0407171Y0087733D01*
X0407100Y0087729D01*
X0407030Y0087721D01*
X0406961Y0087709D01*
X0406892Y0087694D01*
X0406824Y0087675D01*
X0406758Y0087652D01*
X0406693Y0087625D01*
X0406629Y0087595D01*
X0406567Y0087562D01*
X0406507Y0087525D01*
X0406449Y0087485D01*
X0406394Y0087442D01*
X0406340Y0087395D01*
X0406290Y0087346D01*
X0406242Y0087294D01*
X0406197Y0087240D01*
X0406156Y0087183D01*
X0406117Y0087124D01*
X0406082Y0087063D01*
X0406050Y0087000D01*
X0406022Y0086936D01*
X0405997Y0086870D01*
X0405976Y0086803D01*
X0405959Y0086734D01*
X0405945Y0086665D01*
X0405936Y0086596D01*
X0405930Y0086525D01*
X0405928Y0086455D01*
X0404528Y0078733D02*
X0403251Y0078733D01*
X0404528Y0078733D02*
X0404528Y0074133D01*
X0404528Y0076178D02*
X0403251Y0076178D01*
X0402995Y0076178D02*
X0401973Y0074133D01*
X0400057Y0074133D02*
X0398780Y0074133D01*
X0398710Y0074135D01*
X0398639Y0074141D01*
X0398570Y0074150D01*
X0398501Y0074164D01*
X0398432Y0074181D01*
X0398365Y0074202D01*
X0398299Y0074227D01*
X0398235Y0074255D01*
X0398172Y0074287D01*
X0398111Y0074322D01*
X0398052Y0074361D01*
X0397995Y0074402D01*
X0397941Y0074447D01*
X0397889Y0074495D01*
X0397840Y0074545D01*
X0397793Y0074599D01*
X0397750Y0074654D01*
X0397710Y0074712D01*
X0397673Y0074772D01*
X0397640Y0074834D01*
X0397610Y0074898D01*
X0397583Y0074963D01*
X0397560Y0075029D01*
X0397541Y0075097D01*
X0397526Y0075166D01*
X0397514Y0075235D01*
X0397506Y0075305D01*
X0397502Y0075376D01*
X0397502Y0075446D01*
X0397506Y0075517D01*
X0397514Y0075587D01*
X0397526Y0075656D01*
X0397541Y0075725D01*
X0397560Y0075793D01*
X0397583Y0075859D01*
X0397610Y0075924D01*
X0397640Y0075988D01*
X0397673Y0076050D01*
X0397710Y0076110D01*
X0397750Y0076168D01*
X0397793Y0076223D01*
X0397840Y0076277D01*
X0397889Y0076327D01*
X0397941Y0076375D01*
X0397995Y0076420D01*
X0398052Y0076461D01*
X0398111Y0076500D01*
X0398172Y0076535D01*
X0398235Y0076567D01*
X0398299Y0076595D01*
X0398365Y0076620D01*
X0398432Y0076641D01*
X0398501Y0076658D01*
X0398570Y0076672D01*
X0398639Y0076681D01*
X0398710Y0076687D01*
X0398780Y0076689D01*
X0398524Y0076689D02*
X0399546Y0076689D01*
X0398524Y0076689D02*
X0398461Y0076691D01*
X0398398Y0076697D01*
X0398336Y0076706D01*
X0398275Y0076720D01*
X0398214Y0076737D01*
X0398155Y0076758D01*
X0398097Y0076783D01*
X0398040Y0076811D01*
X0397986Y0076842D01*
X0397934Y0076877D01*
X0397883Y0076915D01*
X0397835Y0076956D01*
X0397790Y0077000D01*
X0397748Y0077046D01*
X0397708Y0077095D01*
X0397672Y0077146D01*
X0397639Y0077200D01*
X0397609Y0077255D01*
X0397583Y0077313D01*
X0397560Y0077371D01*
X0397541Y0077431D01*
X0397526Y0077492D01*
X0397514Y0077554D01*
X0397506Y0077617D01*
X0397502Y0077680D01*
X0397502Y0077742D01*
X0397506Y0077805D01*
X0397514Y0077868D01*
X0397526Y0077930D01*
X0397541Y0077991D01*
X0397560Y0078051D01*
X0397583Y0078109D01*
X0397609Y0078167D01*
X0397639Y0078222D01*
X0397672Y0078276D01*
X0397708Y0078327D01*
X0397748Y0078376D01*
X0397790Y0078422D01*
X0397835Y0078466D01*
X0397883Y0078507D01*
X0397934Y0078545D01*
X0397986Y0078580D01*
X0398040Y0078611D01*
X0398097Y0078639D01*
X0398155Y0078664D01*
X0398214Y0078685D01*
X0398275Y0078702D01*
X0398336Y0078716D01*
X0398398Y0078725D01*
X0398461Y0078731D01*
X0398524Y0078733D01*
X0400057Y0078733D01*
X0403251Y0078733D02*
X0403181Y0078731D01*
X0403110Y0078725D01*
X0403041Y0078716D01*
X0402972Y0078702D01*
X0402903Y0078685D01*
X0402836Y0078664D01*
X0402770Y0078639D01*
X0402706Y0078611D01*
X0402643Y0078579D01*
X0402582Y0078544D01*
X0402523Y0078505D01*
X0402466Y0078464D01*
X0402412Y0078419D01*
X0402360Y0078371D01*
X0402311Y0078321D01*
X0402264Y0078267D01*
X0402221Y0078212D01*
X0402181Y0078154D01*
X0402144Y0078094D01*
X0402111Y0078032D01*
X0402081Y0077968D01*
X0402054Y0077903D01*
X0402031Y0077837D01*
X0402012Y0077769D01*
X0401997Y0077700D01*
X0401985Y0077631D01*
X0401977Y0077561D01*
X0401973Y0077490D01*
X0401973Y0077420D01*
X0401977Y0077349D01*
X0401985Y0077279D01*
X0401997Y0077210D01*
X0402012Y0077141D01*
X0402031Y0077073D01*
X0402054Y0077007D01*
X0402081Y0076942D01*
X0402111Y0076878D01*
X0402144Y0076816D01*
X0402181Y0076756D01*
X0402221Y0076698D01*
X0402264Y0076643D01*
X0402311Y0076589D01*
X0402360Y0076539D01*
X0402412Y0076491D01*
X0402466Y0076446D01*
X0402523Y0076405D01*
X0402582Y0076366D01*
X0402643Y0076331D01*
X0402706Y0076299D01*
X0402770Y0076271D01*
X0402836Y0076246D01*
X0402903Y0076225D01*
X0402972Y0076208D01*
X0403041Y0076194D01*
X0403110Y0076185D01*
X0403181Y0076179D01*
X0403251Y0076177D01*
X0395557Y0076689D02*
X0395557Y0078733D01*
X0393002Y0078733D01*
X0394024Y0076689D02*
X0395557Y0076689D01*
X0394024Y0076688D02*
X0393962Y0076686D01*
X0393901Y0076681D01*
X0393840Y0076671D01*
X0393779Y0076658D01*
X0393720Y0076642D01*
X0393662Y0076622D01*
X0393605Y0076598D01*
X0393549Y0076571D01*
X0393495Y0076541D01*
X0393443Y0076507D01*
X0393394Y0076471D01*
X0393346Y0076431D01*
X0393301Y0076389D01*
X0393259Y0076344D01*
X0393219Y0076296D01*
X0393183Y0076247D01*
X0393149Y0076195D01*
X0393119Y0076141D01*
X0393092Y0076085D01*
X0393068Y0076028D01*
X0393048Y0075970D01*
X0393032Y0075911D01*
X0393019Y0075850D01*
X0393009Y0075789D01*
X0393004Y0075728D01*
X0393002Y0075666D01*
X0393002Y0075155D01*
X0393004Y0075093D01*
X0393009Y0075032D01*
X0393019Y0074971D01*
X0393032Y0074910D01*
X0393048Y0074851D01*
X0393068Y0074793D01*
X0393092Y0074736D01*
X0393119Y0074680D01*
X0393149Y0074626D01*
X0393183Y0074574D01*
X0393219Y0074525D01*
X0393259Y0074477D01*
X0393301Y0074432D01*
X0393346Y0074390D01*
X0393394Y0074350D01*
X0393443Y0074314D01*
X0393495Y0074280D01*
X0393549Y0074250D01*
X0393605Y0074223D01*
X0393662Y0074199D01*
X0393720Y0074179D01*
X0393779Y0074163D01*
X0393840Y0074150D01*
X0393901Y0074140D01*
X0393962Y0074135D01*
X0394024Y0074133D01*
X0395557Y0074133D01*
X0394867Y0065560D02*
X0394971Y0065512D01*
X0395076Y0065466D01*
X0395182Y0065424D01*
X0395290Y0065385D01*
X0395399Y0065349D01*
X0395509Y0065317D01*
X0395620Y0065287D01*
X0395732Y0065262D01*
X0395844Y0065239D01*
X0395957Y0065220D01*
X0396071Y0065205D01*
X0396185Y0065193D01*
X0396299Y0065184D01*
X0396413Y0065179D01*
X0396528Y0065177D01*
X0396528Y0067733D02*
X0396643Y0067731D01*
X0396757Y0067726D01*
X0396871Y0067717D01*
X0396985Y0067705D01*
X0397099Y0067690D01*
X0397212Y0067671D01*
X0397324Y0067648D01*
X0397436Y0067623D01*
X0397547Y0067593D01*
X0397657Y0067561D01*
X0397766Y0067525D01*
X0397874Y0067486D01*
X0397980Y0067444D01*
X0398085Y0067398D01*
X0398189Y0067350D01*
X0397806Y0067478D02*
X0395251Y0065433D01*
X0394228Y0066455D02*
X0394230Y0066514D01*
X0394235Y0066572D01*
X0394244Y0066630D01*
X0394257Y0066687D01*
X0394273Y0066744D01*
X0394293Y0066799D01*
X0394316Y0066853D01*
X0394342Y0066905D01*
X0394372Y0066956D01*
X0394404Y0067005D01*
X0394440Y0067052D01*
X0394478Y0067096D01*
X0394519Y0067138D01*
X0394563Y0067177D01*
X0394609Y0067214D01*
X0394657Y0067247D01*
X0394707Y0067278D01*
X0394759Y0067305D01*
X0394812Y0067329D01*
X0394867Y0067350D01*
X0394228Y0066455D02*
X0394230Y0066396D01*
X0394235Y0066338D01*
X0394244Y0066280D01*
X0394257Y0066223D01*
X0394273Y0066166D01*
X0394293Y0066111D01*
X0394316Y0066057D01*
X0394342Y0066005D01*
X0394372Y0065954D01*
X0394404Y0065905D01*
X0394440Y0065858D01*
X0394478Y0065814D01*
X0394519Y0065772D01*
X0394563Y0065733D01*
X0394609Y0065696D01*
X0394657Y0065663D01*
X0394707Y0065632D01*
X0394759Y0065605D01*
X0394812Y0065581D01*
X0394867Y0065560D01*
X0394867Y0067350D02*
X0394971Y0067398D01*
X0395076Y0067444D01*
X0395182Y0067486D01*
X0395290Y0067525D01*
X0395399Y0067561D01*
X0395509Y0067593D01*
X0395620Y0067623D01*
X0395732Y0067648D01*
X0395844Y0067671D01*
X0395957Y0067690D01*
X0396071Y0067705D01*
X0396185Y0067717D01*
X0396299Y0067726D01*
X0396413Y0067731D01*
X0396528Y0067733D01*
X0396528Y0065177D02*
X0396643Y0065179D01*
X0396757Y0065184D01*
X0396871Y0065193D01*
X0396985Y0065205D01*
X0397099Y0065220D01*
X0397212Y0065239D01*
X0397324Y0065262D01*
X0397436Y0065287D01*
X0397547Y0065317D01*
X0397657Y0065349D01*
X0397766Y0065385D01*
X0397874Y0065424D01*
X0397980Y0065466D01*
X0398085Y0065512D01*
X0398189Y0065560D01*
X0398829Y0066455D02*
X0398827Y0066514D01*
X0398822Y0066572D01*
X0398813Y0066630D01*
X0398800Y0066687D01*
X0398784Y0066744D01*
X0398764Y0066799D01*
X0398741Y0066853D01*
X0398715Y0066905D01*
X0398685Y0066956D01*
X0398653Y0067005D01*
X0398617Y0067052D01*
X0398579Y0067096D01*
X0398538Y0067138D01*
X0398494Y0067177D01*
X0398448Y0067214D01*
X0398400Y0067247D01*
X0398350Y0067278D01*
X0398298Y0067305D01*
X0398245Y0067329D01*
X0398190Y0067350D01*
X0398829Y0066455D02*
X0398827Y0066396D01*
X0398822Y0066338D01*
X0398813Y0066280D01*
X0398800Y0066223D01*
X0398784Y0066166D01*
X0398764Y0066111D01*
X0398741Y0066057D01*
X0398715Y0066005D01*
X0398685Y0065954D01*
X0398653Y0065905D01*
X0398617Y0065858D01*
X0398579Y0065814D01*
X0398538Y0065772D01*
X0398494Y0065733D01*
X0398448Y0065696D01*
X0398400Y0065663D01*
X0398350Y0065632D01*
X0398298Y0065605D01*
X0398245Y0065581D01*
X0398190Y0065560D01*
X0396784Y0062850D02*
X0394228Y0060678D01*
X0394228Y0063233D01*
X0397806Y0060678D02*
X0397876Y0060703D01*
X0397945Y0060731D01*
X0398012Y0060762D01*
X0398078Y0060797D01*
X0398141Y0060835D01*
X0398203Y0060877D01*
X0398263Y0060921D01*
X0398320Y0060968D01*
X0398375Y0061018D01*
X0398427Y0061071D01*
X0398477Y0061127D01*
X0398523Y0061185D01*
X0398567Y0061245D01*
X0398608Y0061307D01*
X0398645Y0061371D01*
X0398679Y0061437D01*
X0398710Y0061505D01*
X0398737Y0061574D01*
X0398761Y0061644D01*
X0398782Y0061715D01*
X0398798Y0061788D01*
X0398811Y0061861D01*
X0398821Y0061935D01*
X0398826Y0062009D01*
X0398828Y0062083D01*
X0398826Y0062150D01*
X0398820Y0062217D01*
X0398811Y0062283D01*
X0398797Y0062348D01*
X0398780Y0062413D01*
X0398759Y0062476D01*
X0398734Y0062538D01*
X0398706Y0062599D01*
X0398674Y0062658D01*
X0398639Y0062715D01*
X0398600Y0062770D01*
X0398559Y0062822D01*
X0398514Y0062872D01*
X0398467Y0062919D01*
X0398417Y0062964D01*
X0398365Y0063005D01*
X0398310Y0063044D01*
X0398253Y0063079D01*
X0398194Y0063111D01*
X0398133Y0063139D01*
X0398071Y0063164D01*
X0398008Y0063185D01*
X0397943Y0063202D01*
X0397878Y0063216D01*
X0397812Y0063225D01*
X0397745Y0063231D01*
X0397678Y0063233D01*
X0397611Y0063231D01*
X0397545Y0063226D01*
X0397479Y0063217D01*
X0397413Y0063204D01*
X0397349Y0063188D01*
X0397285Y0063169D01*
X0397222Y0063146D01*
X0397161Y0063120D01*
X0397101Y0063090D01*
X0397043Y0063057D01*
X0396987Y0063022D01*
X0396933Y0062983D01*
X0396881Y0062941D01*
X0396831Y0062897D01*
X0396784Y0062850D01*
X0394228Y0058762D02*
X0396273Y0057740D01*
X0396273Y0057484D02*
X0396273Y0056207D01*
X0396273Y0057484D02*
X0396275Y0057554D01*
X0396281Y0057625D01*
X0396290Y0057694D01*
X0396304Y0057763D01*
X0396321Y0057832D01*
X0396342Y0057899D01*
X0396367Y0057965D01*
X0396395Y0058029D01*
X0396427Y0058092D01*
X0396462Y0058153D01*
X0396501Y0058212D01*
X0396542Y0058269D01*
X0396587Y0058323D01*
X0396635Y0058375D01*
X0396685Y0058424D01*
X0396739Y0058471D01*
X0396794Y0058514D01*
X0396852Y0058554D01*
X0396912Y0058591D01*
X0396974Y0058624D01*
X0397038Y0058654D01*
X0397103Y0058681D01*
X0397169Y0058704D01*
X0397237Y0058723D01*
X0397306Y0058738D01*
X0397375Y0058750D01*
X0397445Y0058758D01*
X0397516Y0058762D01*
X0397586Y0058762D01*
X0397657Y0058758D01*
X0397727Y0058750D01*
X0397796Y0058738D01*
X0397865Y0058723D01*
X0397933Y0058704D01*
X0397999Y0058681D01*
X0398064Y0058654D01*
X0398128Y0058624D01*
X0398190Y0058591D01*
X0398250Y0058554D01*
X0398308Y0058514D01*
X0398363Y0058471D01*
X0398417Y0058424D01*
X0398467Y0058375D01*
X0398515Y0058323D01*
X0398560Y0058269D01*
X0398601Y0058212D01*
X0398640Y0058153D01*
X0398675Y0058092D01*
X0398707Y0058029D01*
X0398735Y0057965D01*
X0398760Y0057899D01*
X0398781Y0057832D01*
X0398798Y0057763D01*
X0398812Y0057694D01*
X0398821Y0057625D01*
X0398827Y0057554D01*
X0398829Y0057484D01*
X0398828Y0057484D02*
X0398828Y0056207D01*
X0394228Y0056207D01*
X0427201Y0047933D02*
X0428734Y0047933D01*
X0427201Y0047933D02*
X0427138Y0047931D01*
X0427075Y0047925D01*
X0427013Y0047916D01*
X0426952Y0047902D01*
X0426891Y0047885D01*
X0426832Y0047864D01*
X0426774Y0047839D01*
X0426717Y0047811D01*
X0426663Y0047780D01*
X0426611Y0047745D01*
X0426560Y0047707D01*
X0426512Y0047666D01*
X0426467Y0047622D01*
X0426425Y0047576D01*
X0426385Y0047527D01*
X0426349Y0047476D01*
X0426316Y0047422D01*
X0426286Y0047367D01*
X0426260Y0047309D01*
X0426237Y0047251D01*
X0426218Y0047191D01*
X0426203Y0047130D01*
X0426191Y0047068D01*
X0426183Y0047005D01*
X0426179Y0046942D01*
X0426179Y0046880D01*
X0426183Y0046817D01*
X0426191Y0046754D01*
X0426203Y0046692D01*
X0426218Y0046631D01*
X0426237Y0046571D01*
X0426260Y0046513D01*
X0426286Y0046455D01*
X0426316Y0046400D01*
X0426349Y0046346D01*
X0426385Y0046295D01*
X0426425Y0046246D01*
X0426467Y0046200D01*
X0426512Y0046156D01*
X0426560Y0046115D01*
X0426611Y0046077D01*
X0426663Y0046042D01*
X0426717Y0046011D01*
X0426774Y0045983D01*
X0426832Y0045958D01*
X0426891Y0045937D01*
X0426952Y0045920D01*
X0427013Y0045906D01*
X0427075Y0045897D01*
X0427138Y0045891D01*
X0427201Y0045889D01*
X0428223Y0045889D01*
X0427456Y0045889D02*
X0427386Y0045887D01*
X0427315Y0045881D01*
X0427246Y0045872D01*
X0427177Y0045858D01*
X0427108Y0045841D01*
X0427041Y0045820D01*
X0426975Y0045795D01*
X0426911Y0045767D01*
X0426848Y0045735D01*
X0426787Y0045700D01*
X0426728Y0045661D01*
X0426671Y0045620D01*
X0426617Y0045575D01*
X0426565Y0045527D01*
X0426516Y0045477D01*
X0426469Y0045423D01*
X0426426Y0045368D01*
X0426386Y0045310D01*
X0426349Y0045250D01*
X0426316Y0045188D01*
X0426286Y0045124D01*
X0426259Y0045059D01*
X0426236Y0044993D01*
X0426217Y0044925D01*
X0426202Y0044856D01*
X0426190Y0044787D01*
X0426182Y0044717D01*
X0426178Y0044646D01*
X0426178Y0044576D01*
X0426182Y0044505D01*
X0426190Y0044435D01*
X0426202Y0044366D01*
X0426217Y0044297D01*
X0426236Y0044229D01*
X0426259Y0044163D01*
X0426286Y0044098D01*
X0426316Y0044034D01*
X0426349Y0043972D01*
X0426386Y0043912D01*
X0426426Y0043854D01*
X0426469Y0043799D01*
X0426516Y0043745D01*
X0426565Y0043695D01*
X0426617Y0043647D01*
X0426671Y0043602D01*
X0426728Y0043561D01*
X0426787Y0043522D01*
X0426848Y0043487D01*
X0426911Y0043455D01*
X0426975Y0043427D01*
X0427041Y0043402D01*
X0427108Y0043381D01*
X0427177Y0043364D01*
X0427246Y0043350D01*
X0427315Y0043341D01*
X0427386Y0043335D01*
X0427456Y0043333D01*
X0428734Y0043333D01*
X0430478Y0043333D02*
X0430734Y0043333D01*
X0430734Y0043589D01*
X0430478Y0043589D01*
X0430478Y0043333D01*
X0434651Y0043972D02*
X0434699Y0044076D01*
X0434745Y0044181D01*
X0434787Y0044287D01*
X0434826Y0044395D01*
X0434862Y0044504D01*
X0434894Y0044614D01*
X0434924Y0044725D01*
X0434949Y0044837D01*
X0434972Y0044949D01*
X0434991Y0045062D01*
X0435006Y0045176D01*
X0435018Y0045290D01*
X0435027Y0045404D01*
X0435032Y0045518D01*
X0435034Y0045633D01*
X0432478Y0045633D02*
X0432480Y0045748D01*
X0432485Y0045862D01*
X0432494Y0045976D01*
X0432506Y0046090D01*
X0432521Y0046204D01*
X0432540Y0046317D01*
X0432563Y0046429D01*
X0432588Y0046541D01*
X0432618Y0046652D01*
X0432650Y0046762D01*
X0432686Y0046871D01*
X0432725Y0046979D01*
X0432767Y0047085D01*
X0432813Y0047190D01*
X0432861Y0047294D01*
X0432734Y0046911D02*
X0434778Y0044355D01*
X0433756Y0043333D02*
X0433697Y0043335D01*
X0433639Y0043340D01*
X0433581Y0043349D01*
X0433524Y0043362D01*
X0433467Y0043378D01*
X0433412Y0043398D01*
X0433358Y0043421D01*
X0433306Y0043447D01*
X0433255Y0043477D01*
X0433206Y0043509D01*
X0433160Y0043545D01*
X0433115Y0043583D01*
X0433073Y0043624D01*
X0433034Y0043668D01*
X0432997Y0043714D01*
X0432964Y0043762D01*
X0432933Y0043812D01*
X0432906Y0043864D01*
X0432882Y0043917D01*
X0432861Y0043972D01*
X0433756Y0043333D02*
X0433815Y0043335D01*
X0433873Y0043340D01*
X0433931Y0043349D01*
X0433988Y0043362D01*
X0434045Y0043378D01*
X0434100Y0043398D01*
X0434154Y0043421D01*
X0434206Y0043447D01*
X0434257Y0043477D01*
X0434306Y0043509D01*
X0434353Y0043545D01*
X0434397Y0043583D01*
X0434439Y0043624D01*
X0434478Y0043668D01*
X0434515Y0043714D01*
X0434548Y0043762D01*
X0434579Y0043812D01*
X0434606Y0043864D01*
X0434630Y0043917D01*
X0434651Y0043972D01*
X0432861Y0043972D02*
X0432813Y0044076D01*
X0432767Y0044181D01*
X0432725Y0044287D01*
X0432686Y0044395D01*
X0432650Y0044504D01*
X0432618Y0044614D01*
X0432588Y0044725D01*
X0432563Y0044837D01*
X0432540Y0044949D01*
X0432521Y0045062D01*
X0432506Y0045176D01*
X0432494Y0045290D01*
X0432485Y0045404D01*
X0432480Y0045518D01*
X0432478Y0045633D01*
X0435034Y0045633D02*
X0435032Y0045748D01*
X0435027Y0045862D01*
X0435018Y0045976D01*
X0435006Y0046090D01*
X0434991Y0046204D01*
X0434972Y0046317D01*
X0434949Y0046429D01*
X0434924Y0046541D01*
X0434894Y0046652D01*
X0434862Y0046762D01*
X0434826Y0046871D01*
X0434787Y0046979D01*
X0434745Y0047085D01*
X0434699Y0047190D01*
X0434651Y0047294D01*
X0434651Y0047295D02*
X0434630Y0047350D01*
X0434606Y0047403D01*
X0434579Y0047455D01*
X0434548Y0047505D01*
X0434515Y0047553D01*
X0434478Y0047599D01*
X0434439Y0047643D01*
X0434397Y0047684D01*
X0434353Y0047722D01*
X0434306Y0047758D01*
X0434257Y0047790D01*
X0434206Y0047820D01*
X0434154Y0047846D01*
X0434100Y0047869D01*
X0434045Y0047889D01*
X0433988Y0047905D01*
X0433931Y0047918D01*
X0433873Y0047927D01*
X0433815Y0047932D01*
X0433756Y0047934D01*
X0433756Y0047933D02*
X0433697Y0047931D01*
X0433639Y0047926D01*
X0433581Y0047917D01*
X0433524Y0047904D01*
X0433467Y0047888D01*
X0433412Y0047868D01*
X0433358Y0047845D01*
X0433306Y0047819D01*
X0433255Y0047789D01*
X0433206Y0047757D01*
X0433159Y0047721D01*
X0433115Y0047683D01*
X0433073Y0047642D01*
X0433034Y0047598D01*
X0432997Y0047552D01*
X0432964Y0047504D01*
X0432933Y0047454D01*
X0432906Y0047402D01*
X0432882Y0047349D01*
X0432861Y0047294D01*
X0436784Y0046400D02*
X0437806Y0043333D01*
X0438828Y0046400D01*
X0462351Y0179133D02*
X0463628Y0179133D01*
X0462351Y0179133D02*
X0462281Y0179135D01*
X0462210Y0179141D01*
X0462141Y0179150D01*
X0462072Y0179164D01*
X0462003Y0179181D01*
X0461936Y0179202D01*
X0461870Y0179227D01*
X0461806Y0179255D01*
X0461743Y0179287D01*
X0461682Y0179322D01*
X0461623Y0179361D01*
X0461566Y0179402D01*
X0461512Y0179447D01*
X0461460Y0179495D01*
X0461411Y0179545D01*
X0461364Y0179599D01*
X0461321Y0179654D01*
X0461281Y0179712D01*
X0461244Y0179772D01*
X0461211Y0179834D01*
X0461181Y0179898D01*
X0461154Y0179963D01*
X0461131Y0180029D01*
X0461112Y0180097D01*
X0461097Y0180166D01*
X0461085Y0180235D01*
X0461077Y0180305D01*
X0461073Y0180376D01*
X0461073Y0180446D01*
X0461077Y0180517D01*
X0461085Y0180587D01*
X0461097Y0180656D01*
X0461112Y0180725D01*
X0461131Y0180793D01*
X0461154Y0180859D01*
X0461181Y0180924D01*
X0461211Y0180988D01*
X0461244Y0181050D01*
X0461281Y0181110D01*
X0461321Y0181168D01*
X0461364Y0181223D01*
X0461411Y0181277D01*
X0461460Y0181327D01*
X0461512Y0181375D01*
X0461566Y0181420D01*
X0461623Y0181461D01*
X0461682Y0181500D01*
X0461743Y0181535D01*
X0461806Y0181567D01*
X0461870Y0181595D01*
X0461936Y0181620D01*
X0462003Y0181641D01*
X0462072Y0181658D01*
X0462141Y0181672D01*
X0462210Y0181681D01*
X0462281Y0181687D01*
X0462351Y0181689D01*
X0462095Y0181689D02*
X0463117Y0181689D01*
X0462095Y0181689D02*
X0462032Y0181691D01*
X0461969Y0181697D01*
X0461907Y0181706D01*
X0461846Y0181720D01*
X0461785Y0181737D01*
X0461726Y0181758D01*
X0461668Y0181783D01*
X0461611Y0181811D01*
X0461557Y0181842D01*
X0461505Y0181877D01*
X0461454Y0181915D01*
X0461406Y0181956D01*
X0461361Y0182000D01*
X0461319Y0182046D01*
X0461279Y0182095D01*
X0461243Y0182146D01*
X0461210Y0182200D01*
X0461180Y0182255D01*
X0461154Y0182313D01*
X0461131Y0182371D01*
X0461112Y0182431D01*
X0461097Y0182492D01*
X0461085Y0182554D01*
X0461077Y0182617D01*
X0461073Y0182680D01*
X0461073Y0182742D01*
X0461077Y0182805D01*
X0461085Y0182868D01*
X0461097Y0182930D01*
X0461112Y0182991D01*
X0461131Y0183051D01*
X0461154Y0183109D01*
X0461180Y0183167D01*
X0461210Y0183222D01*
X0461243Y0183276D01*
X0461279Y0183327D01*
X0461319Y0183376D01*
X0461361Y0183422D01*
X0461406Y0183466D01*
X0461454Y0183507D01*
X0461505Y0183545D01*
X0461557Y0183580D01*
X0461611Y0183611D01*
X0461668Y0183639D01*
X0461726Y0183664D01*
X0461785Y0183685D01*
X0461846Y0183702D01*
X0461907Y0183716D01*
X0461969Y0183725D01*
X0462032Y0183731D01*
X0462095Y0183733D01*
X0463628Y0183733D01*
X0466851Y0183733D02*
X0468128Y0182711D01*
X0466851Y0183733D02*
X0466851Y0179133D01*
X0468128Y0179133D02*
X0465573Y0179133D01*
X0470223Y0180411D02*
X0470223Y0182455D01*
X0470225Y0182524D01*
X0470230Y0182593D01*
X0470240Y0182662D01*
X0470253Y0182730D01*
X0470270Y0182797D01*
X0470290Y0182863D01*
X0470314Y0182928D01*
X0470341Y0182992D01*
X0470372Y0183054D01*
X0470406Y0183114D01*
X0470443Y0183172D01*
X0470484Y0183228D01*
X0470527Y0183282D01*
X0470573Y0183334D01*
X0470622Y0183383D01*
X0470674Y0183429D01*
X0470728Y0183472D01*
X0470784Y0183513D01*
X0470842Y0183550D01*
X0470902Y0183584D01*
X0470964Y0183615D01*
X0471028Y0183642D01*
X0471093Y0183666D01*
X0471159Y0183686D01*
X0471226Y0183703D01*
X0471294Y0183716D01*
X0471363Y0183726D01*
X0471432Y0183731D01*
X0471501Y0183733D01*
X0472778Y0183733D01*
X0472778Y0179133D01*
X0471501Y0179133D01*
X0471432Y0179135D01*
X0471363Y0179140D01*
X0471294Y0179150D01*
X0471226Y0179163D01*
X0471159Y0179180D01*
X0471093Y0179200D01*
X0471028Y0179224D01*
X0470964Y0179251D01*
X0470902Y0179282D01*
X0470842Y0179316D01*
X0470784Y0179353D01*
X0470728Y0179394D01*
X0470674Y0179437D01*
X0470622Y0179483D01*
X0470573Y0179532D01*
X0470527Y0179584D01*
X0470484Y0179638D01*
X0470443Y0179694D01*
X0470406Y0179752D01*
X0470372Y0179812D01*
X0470341Y0179874D01*
X0470314Y0179938D01*
X0470290Y0180003D01*
X0470270Y0180069D01*
X0470253Y0180136D01*
X0470240Y0180204D01*
X0470230Y0180273D01*
X0470225Y0180342D01*
X0470223Y0180411D01*
X0551073Y0180155D02*
X0553628Y0180155D01*
X0552606Y0183733D01*
X0551839Y0181178D02*
X0551839Y0179133D01*
X0555573Y0179133D02*
X0558128Y0179133D01*
X0556851Y0179133D02*
X0556851Y0183733D01*
X0558128Y0182711D01*
X0560223Y0182455D02*
X0560223Y0180411D01*
X0560225Y0180342D01*
X0560230Y0180273D01*
X0560240Y0180204D01*
X0560253Y0180136D01*
X0560270Y0180069D01*
X0560290Y0180003D01*
X0560314Y0179938D01*
X0560341Y0179874D01*
X0560372Y0179812D01*
X0560406Y0179752D01*
X0560443Y0179694D01*
X0560484Y0179638D01*
X0560527Y0179584D01*
X0560573Y0179532D01*
X0560622Y0179483D01*
X0560674Y0179437D01*
X0560728Y0179394D01*
X0560784Y0179353D01*
X0560842Y0179316D01*
X0560902Y0179282D01*
X0560964Y0179251D01*
X0561028Y0179224D01*
X0561093Y0179200D01*
X0561159Y0179180D01*
X0561226Y0179163D01*
X0561294Y0179150D01*
X0561363Y0179140D01*
X0561432Y0179135D01*
X0561501Y0179133D01*
X0562778Y0179133D01*
X0562778Y0183733D01*
X0561501Y0183733D01*
X0561432Y0183731D01*
X0561363Y0183726D01*
X0561294Y0183716D01*
X0561226Y0183703D01*
X0561159Y0183686D01*
X0561093Y0183666D01*
X0561028Y0183642D01*
X0560964Y0183615D01*
X0560902Y0183584D01*
X0560842Y0183550D01*
X0560784Y0183513D01*
X0560728Y0183472D01*
X0560674Y0183429D01*
X0560622Y0183383D01*
X0560573Y0183334D01*
X0560527Y0183282D01*
X0560484Y0183228D01*
X0560443Y0183172D01*
X0560406Y0183114D01*
X0560372Y0183054D01*
X0560341Y0182992D01*
X0560314Y0182928D01*
X0560290Y0182863D01*
X0560270Y0182797D01*
X0560253Y0182730D01*
X0560240Y0182662D01*
X0560230Y0182593D01*
X0560225Y0182524D01*
X0560223Y0182455D01*
X0642073Y0183733D02*
X0644628Y0183733D01*
X0644628Y0181689D01*
X0643095Y0181689D01*
X0643095Y0181688D02*
X0643033Y0181686D01*
X0642972Y0181681D01*
X0642911Y0181671D01*
X0642850Y0181658D01*
X0642791Y0181642D01*
X0642733Y0181622D01*
X0642676Y0181598D01*
X0642620Y0181571D01*
X0642566Y0181541D01*
X0642514Y0181507D01*
X0642465Y0181471D01*
X0642417Y0181431D01*
X0642372Y0181389D01*
X0642330Y0181344D01*
X0642290Y0181296D01*
X0642254Y0181247D01*
X0642220Y0181195D01*
X0642190Y0181141D01*
X0642163Y0181085D01*
X0642139Y0181028D01*
X0642119Y0180970D01*
X0642103Y0180911D01*
X0642090Y0180850D01*
X0642080Y0180789D01*
X0642075Y0180728D01*
X0642073Y0180666D01*
X0642073Y0180155D01*
X0642075Y0180093D01*
X0642080Y0180032D01*
X0642090Y0179971D01*
X0642103Y0179910D01*
X0642119Y0179851D01*
X0642139Y0179793D01*
X0642163Y0179736D01*
X0642190Y0179680D01*
X0642220Y0179626D01*
X0642254Y0179574D01*
X0642290Y0179525D01*
X0642330Y0179477D01*
X0642372Y0179432D01*
X0642417Y0179390D01*
X0642465Y0179350D01*
X0642514Y0179314D01*
X0642566Y0179280D01*
X0642620Y0179250D01*
X0642676Y0179223D01*
X0642733Y0179199D01*
X0642791Y0179179D01*
X0642850Y0179163D01*
X0642911Y0179150D01*
X0642972Y0179140D01*
X0643033Y0179135D01*
X0643095Y0179133D01*
X0644628Y0179133D01*
X0646573Y0179133D02*
X0649128Y0179133D01*
X0647851Y0179133D02*
X0647851Y0183733D01*
X0649128Y0182711D01*
X0651223Y0182455D02*
X0651223Y0180411D01*
X0651225Y0180342D01*
X0651230Y0180273D01*
X0651240Y0180204D01*
X0651253Y0180136D01*
X0651270Y0180069D01*
X0651290Y0180003D01*
X0651314Y0179938D01*
X0651341Y0179874D01*
X0651372Y0179812D01*
X0651406Y0179752D01*
X0651443Y0179694D01*
X0651484Y0179638D01*
X0651527Y0179584D01*
X0651573Y0179532D01*
X0651622Y0179483D01*
X0651674Y0179437D01*
X0651728Y0179394D01*
X0651784Y0179353D01*
X0651842Y0179316D01*
X0651902Y0179282D01*
X0651964Y0179251D01*
X0652028Y0179224D01*
X0652093Y0179200D01*
X0652159Y0179180D01*
X0652226Y0179163D01*
X0652294Y0179150D01*
X0652363Y0179140D01*
X0652432Y0179135D01*
X0652501Y0179133D01*
X0653778Y0179133D01*
X0653778Y0183733D01*
X0652501Y0183733D01*
X0652432Y0183731D01*
X0652363Y0183726D01*
X0652294Y0183716D01*
X0652226Y0183703D01*
X0652159Y0183686D01*
X0652093Y0183666D01*
X0652028Y0183642D01*
X0651964Y0183615D01*
X0651902Y0183584D01*
X0651842Y0183550D01*
X0651784Y0183513D01*
X0651728Y0183472D01*
X0651674Y0183429D01*
X0651622Y0183383D01*
X0651573Y0183334D01*
X0651527Y0183282D01*
X0651484Y0183228D01*
X0651443Y0183172D01*
X0651406Y0183114D01*
X0651372Y0183054D01*
X0651341Y0182992D01*
X0651314Y0182928D01*
X0651290Y0182863D01*
X0651270Y0182797D01*
X0651253Y0182730D01*
X0651240Y0182662D01*
X0651230Y0182593D01*
X0651225Y0182524D01*
X0651223Y0182455D01*
X0726073Y0187511D02*
X0726073Y0187766D01*
X0726075Y0187828D01*
X0726080Y0187889D01*
X0726090Y0187950D01*
X0726103Y0188011D01*
X0726119Y0188070D01*
X0726139Y0188128D01*
X0726163Y0188185D01*
X0726190Y0188241D01*
X0726220Y0188295D01*
X0726254Y0188347D01*
X0726290Y0188396D01*
X0726330Y0188444D01*
X0726372Y0188489D01*
X0726417Y0188531D01*
X0726465Y0188571D01*
X0726514Y0188607D01*
X0726566Y0188641D01*
X0726620Y0188671D01*
X0726676Y0188698D01*
X0726733Y0188722D01*
X0726791Y0188742D01*
X0726850Y0188758D01*
X0726911Y0188771D01*
X0726972Y0188781D01*
X0727033Y0188786D01*
X0727095Y0188788D01*
X0727095Y0188789D02*
X0728628Y0188789D01*
X0728628Y0187511D01*
X0728629Y0187511D02*
X0728627Y0187441D01*
X0728621Y0187370D01*
X0728612Y0187301D01*
X0728598Y0187232D01*
X0728581Y0187163D01*
X0728560Y0187096D01*
X0728535Y0187030D01*
X0728507Y0186966D01*
X0728475Y0186903D01*
X0728440Y0186842D01*
X0728401Y0186783D01*
X0728360Y0186726D01*
X0728315Y0186672D01*
X0728267Y0186620D01*
X0728217Y0186571D01*
X0728163Y0186524D01*
X0728108Y0186481D01*
X0728050Y0186441D01*
X0727990Y0186404D01*
X0727928Y0186371D01*
X0727864Y0186341D01*
X0727799Y0186314D01*
X0727733Y0186291D01*
X0727665Y0186272D01*
X0727596Y0186257D01*
X0727527Y0186245D01*
X0727457Y0186237D01*
X0727386Y0186233D01*
X0727316Y0186233D01*
X0727245Y0186237D01*
X0727175Y0186245D01*
X0727106Y0186257D01*
X0727037Y0186272D01*
X0726969Y0186291D01*
X0726903Y0186314D01*
X0726838Y0186341D01*
X0726774Y0186371D01*
X0726712Y0186404D01*
X0726652Y0186441D01*
X0726594Y0186481D01*
X0726539Y0186524D01*
X0726485Y0186571D01*
X0726435Y0186620D01*
X0726387Y0186672D01*
X0726342Y0186726D01*
X0726301Y0186783D01*
X0726262Y0186842D01*
X0726227Y0186903D01*
X0726195Y0186966D01*
X0726167Y0187030D01*
X0726142Y0187096D01*
X0726121Y0187163D01*
X0726104Y0187232D01*
X0726090Y0187301D01*
X0726081Y0187370D01*
X0726075Y0187441D01*
X0726073Y0187511D01*
X0728628Y0188789D02*
X0728626Y0188878D01*
X0728620Y0188967D01*
X0728611Y0189056D01*
X0728597Y0189144D01*
X0728580Y0189231D01*
X0728558Y0189318D01*
X0728533Y0189404D01*
X0728505Y0189488D01*
X0728472Y0189571D01*
X0728436Y0189653D01*
X0728397Y0189733D01*
X0728354Y0189811D01*
X0728308Y0189887D01*
X0728258Y0189961D01*
X0728206Y0190033D01*
X0728150Y0190103D01*
X0728091Y0190170D01*
X0728029Y0190234D01*
X0727965Y0190296D01*
X0727898Y0190355D01*
X0727828Y0190411D01*
X0727756Y0190463D01*
X0727682Y0190513D01*
X0727606Y0190559D01*
X0727528Y0190602D01*
X0727448Y0190641D01*
X0727366Y0190677D01*
X0727283Y0190710D01*
X0727199Y0190738D01*
X0727113Y0190763D01*
X0727026Y0190785D01*
X0726939Y0190802D01*
X0726851Y0190816D01*
X0726762Y0190825D01*
X0726673Y0190831D01*
X0726584Y0190833D01*
X0731851Y0190833D02*
X0733128Y0189811D01*
X0731851Y0190833D02*
X0731851Y0186233D01*
X0733128Y0186233D02*
X0730573Y0186233D01*
X0735223Y0187511D02*
X0735223Y0189555D01*
X0735225Y0189624D01*
X0735230Y0189693D01*
X0735240Y0189762D01*
X0735253Y0189830D01*
X0735270Y0189897D01*
X0735290Y0189963D01*
X0735314Y0190028D01*
X0735341Y0190092D01*
X0735372Y0190154D01*
X0735406Y0190214D01*
X0735443Y0190272D01*
X0735484Y0190328D01*
X0735527Y0190382D01*
X0735573Y0190434D01*
X0735622Y0190483D01*
X0735674Y0190529D01*
X0735728Y0190572D01*
X0735784Y0190613D01*
X0735842Y0190650D01*
X0735902Y0190684D01*
X0735964Y0190715D01*
X0736028Y0190742D01*
X0736093Y0190766D01*
X0736159Y0190786D01*
X0736226Y0190803D01*
X0736294Y0190816D01*
X0736363Y0190826D01*
X0736432Y0190831D01*
X0736501Y0190833D01*
X0737778Y0190833D01*
X0737778Y0186233D01*
X0736501Y0186233D01*
X0736432Y0186235D01*
X0736363Y0186240D01*
X0736294Y0186250D01*
X0736226Y0186263D01*
X0736159Y0186280D01*
X0736093Y0186300D01*
X0736028Y0186324D01*
X0735964Y0186351D01*
X0735902Y0186382D01*
X0735842Y0186416D01*
X0735784Y0186453D01*
X0735728Y0186494D01*
X0735674Y0186537D01*
X0735622Y0186583D01*
X0735573Y0186632D01*
X0735527Y0186684D01*
X0735484Y0186738D01*
X0735443Y0186794D01*
X0735406Y0186852D01*
X0735372Y0186912D01*
X0735341Y0186974D01*
X0735314Y0187038D01*
X0735290Y0187103D01*
X0735270Y0187169D01*
X0735253Y0187236D01*
X0735240Y0187304D01*
X0735230Y0187373D01*
X0735225Y0187442D01*
X0735223Y0187511D01*
X0738451Y0145633D02*
X0738451Y0143078D01*
X0742028Y0144100D01*
X0739473Y0144866D02*
X0737428Y0144866D01*
X0737428Y0141133D02*
X0737428Y0138578D01*
X0739984Y0140750D01*
X0742028Y0139983D02*
X0742026Y0139909D01*
X0742021Y0139835D01*
X0742011Y0139761D01*
X0741998Y0139688D01*
X0741982Y0139615D01*
X0741961Y0139544D01*
X0741937Y0139474D01*
X0741910Y0139405D01*
X0741879Y0139337D01*
X0741845Y0139271D01*
X0741808Y0139207D01*
X0741767Y0139145D01*
X0741723Y0139085D01*
X0741677Y0139027D01*
X0741627Y0138971D01*
X0741575Y0138918D01*
X0741520Y0138868D01*
X0741463Y0138821D01*
X0741403Y0138777D01*
X0741341Y0138735D01*
X0741278Y0138697D01*
X0741212Y0138662D01*
X0741145Y0138631D01*
X0741076Y0138603D01*
X0741006Y0138578D01*
X0739984Y0140750D02*
X0740031Y0140797D01*
X0740081Y0140841D01*
X0740133Y0140883D01*
X0740187Y0140922D01*
X0740243Y0140957D01*
X0740301Y0140990D01*
X0740361Y0141020D01*
X0740422Y0141046D01*
X0740485Y0141069D01*
X0740549Y0141088D01*
X0740613Y0141104D01*
X0740679Y0141117D01*
X0740745Y0141126D01*
X0740811Y0141131D01*
X0740878Y0141133D01*
X0740945Y0141131D01*
X0741012Y0141125D01*
X0741078Y0141116D01*
X0741143Y0141102D01*
X0741208Y0141085D01*
X0741271Y0141064D01*
X0741333Y0141039D01*
X0741394Y0141011D01*
X0741453Y0140979D01*
X0741510Y0140944D01*
X0741565Y0140905D01*
X0741617Y0140864D01*
X0741667Y0140819D01*
X0741714Y0140772D01*
X0741759Y0140722D01*
X0741800Y0140670D01*
X0741839Y0140615D01*
X0741874Y0140558D01*
X0741906Y0140499D01*
X0741934Y0140438D01*
X0741959Y0140376D01*
X0741980Y0140313D01*
X0741997Y0140248D01*
X0742011Y0140183D01*
X0742020Y0140117D01*
X0742026Y0140050D01*
X0742028Y0139983D01*
X0742028Y0135384D02*
X0742028Y0134107D01*
X0737428Y0134107D01*
X0739473Y0134107D02*
X0739473Y0135384D01*
X0739473Y0135640D02*
X0737428Y0136662D01*
X0739473Y0135384D02*
X0739475Y0135454D01*
X0739481Y0135525D01*
X0739490Y0135594D01*
X0739504Y0135663D01*
X0739521Y0135732D01*
X0739542Y0135799D01*
X0739567Y0135865D01*
X0739595Y0135929D01*
X0739627Y0135992D01*
X0739662Y0136053D01*
X0739701Y0136112D01*
X0739742Y0136169D01*
X0739787Y0136223D01*
X0739835Y0136275D01*
X0739885Y0136324D01*
X0739939Y0136371D01*
X0739994Y0136414D01*
X0740052Y0136454D01*
X0740112Y0136491D01*
X0740174Y0136524D01*
X0740238Y0136554D01*
X0740303Y0136581D01*
X0740369Y0136604D01*
X0740437Y0136623D01*
X0740506Y0136638D01*
X0740575Y0136650D01*
X0740645Y0136658D01*
X0740716Y0136662D01*
X0740786Y0136662D01*
X0740857Y0136658D01*
X0740927Y0136650D01*
X0740996Y0136638D01*
X0741065Y0136623D01*
X0741133Y0136604D01*
X0741199Y0136581D01*
X0741264Y0136554D01*
X0741328Y0136524D01*
X0741390Y0136491D01*
X0741450Y0136454D01*
X0741508Y0136414D01*
X0741563Y0136371D01*
X0741617Y0136324D01*
X0741667Y0136275D01*
X0741715Y0136223D01*
X0741760Y0136169D01*
X0741801Y0136112D01*
X0741840Y0136053D01*
X0741875Y0135992D01*
X0741907Y0135929D01*
X0741935Y0135865D01*
X0741960Y0135799D01*
X0741981Y0135732D01*
X0741998Y0135663D01*
X0742012Y0135594D01*
X0742021Y0135525D01*
X0742027Y0135454D01*
X0742029Y0135384D01*
X0380778Y0179133D02*
X0379501Y0179133D01*
X0380778Y0179133D02*
X0380778Y0183733D01*
X0379501Y0183733D01*
X0379432Y0183731D01*
X0379363Y0183726D01*
X0379294Y0183716D01*
X0379226Y0183703D01*
X0379159Y0183686D01*
X0379093Y0183666D01*
X0379028Y0183642D01*
X0378964Y0183615D01*
X0378902Y0183584D01*
X0378842Y0183550D01*
X0378784Y0183513D01*
X0378728Y0183472D01*
X0378674Y0183429D01*
X0378622Y0183383D01*
X0378573Y0183334D01*
X0378527Y0183282D01*
X0378484Y0183228D01*
X0378443Y0183172D01*
X0378406Y0183114D01*
X0378372Y0183054D01*
X0378341Y0182992D01*
X0378314Y0182928D01*
X0378290Y0182863D01*
X0378270Y0182797D01*
X0378253Y0182730D01*
X0378240Y0182662D01*
X0378230Y0182593D01*
X0378225Y0182524D01*
X0378223Y0182455D01*
X0378223Y0180411D01*
X0378225Y0180342D01*
X0378230Y0180273D01*
X0378240Y0180204D01*
X0378253Y0180136D01*
X0378270Y0180069D01*
X0378290Y0180003D01*
X0378314Y0179938D01*
X0378341Y0179874D01*
X0378372Y0179812D01*
X0378406Y0179752D01*
X0378443Y0179694D01*
X0378484Y0179638D01*
X0378527Y0179584D01*
X0378573Y0179532D01*
X0378622Y0179483D01*
X0378674Y0179437D01*
X0378728Y0179394D01*
X0378784Y0179353D01*
X0378842Y0179316D01*
X0378902Y0179282D01*
X0378964Y0179251D01*
X0379028Y0179224D01*
X0379093Y0179200D01*
X0379159Y0179180D01*
X0379226Y0179163D01*
X0379294Y0179150D01*
X0379363Y0179140D01*
X0379432Y0179135D01*
X0379501Y0179133D01*
X0376128Y0179133D02*
X0373573Y0179133D01*
X0374851Y0179133D02*
X0374851Y0183733D01*
X0376128Y0182711D01*
X0371628Y0179133D02*
X0369073Y0179133D01*
X0371628Y0179133D02*
X0369456Y0181689D01*
X0370223Y0183733D02*
X0370297Y0183731D01*
X0370371Y0183726D01*
X0370445Y0183716D01*
X0370518Y0183703D01*
X0370591Y0183687D01*
X0370662Y0183666D01*
X0370732Y0183642D01*
X0370801Y0183615D01*
X0370869Y0183584D01*
X0370935Y0183550D01*
X0370999Y0183513D01*
X0371061Y0183472D01*
X0371122Y0183428D01*
X0371179Y0183382D01*
X0371235Y0183332D01*
X0371288Y0183280D01*
X0371338Y0183225D01*
X0371385Y0183168D01*
X0371429Y0183108D01*
X0371471Y0183046D01*
X0371509Y0182983D01*
X0371544Y0182917D01*
X0371575Y0182850D01*
X0371603Y0182781D01*
X0371628Y0182711D01*
X0369456Y0181689D02*
X0369409Y0181736D01*
X0369365Y0181786D01*
X0369323Y0181838D01*
X0369284Y0181892D01*
X0369249Y0181948D01*
X0369216Y0182006D01*
X0369186Y0182066D01*
X0369160Y0182127D01*
X0369137Y0182190D01*
X0369118Y0182254D01*
X0369102Y0182318D01*
X0369089Y0182384D01*
X0369080Y0182450D01*
X0369075Y0182516D01*
X0369073Y0182583D01*
X0369075Y0182650D01*
X0369081Y0182717D01*
X0369090Y0182783D01*
X0369104Y0182848D01*
X0369121Y0182913D01*
X0369142Y0182976D01*
X0369167Y0183038D01*
X0369195Y0183099D01*
X0369227Y0183158D01*
X0369262Y0183215D01*
X0369301Y0183270D01*
X0369342Y0183322D01*
X0369387Y0183372D01*
X0369434Y0183419D01*
X0369484Y0183464D01*
X0369536Y0183505D01*
X0369591Y0183544D01*
X0369648Y0183579D01*
X0369707Y0183611D01*
X0369768Y0183639D01*
X0369830Y0183664D01*
X0369893Y0183685D01*
X0369958Y0183702D01*
X0370023Y0183716D01*
X0370089Y0183725D01*
X0370156Y0183731D01*
X0370223Y0183733D01*
X0292778Y0183733D02*
X0292778Y0179133D01*
X0291501Y0179133D01*
X0291432Y0179135D01*
X0291363Y0179140D01*
X0291294Y0179150D01*
X0291226Y0179163D01*
X0291159Y0179180D01*
X0291093Y0179200D01*
X0291028Y0179224D01*
X0290964Y0179251D01*
X0290902Y0179282D01*
X0290842Y0179316D01*
X0290784Y0179353D01*
X0290728Y0179394D01*
X0290674Y0179437D01*
X0290622Y0179483D01*
X0290573Y0179532D01*
X0290527Y0179584D01*
X0290484Y0179638D01*
X0290443Y0179694D01*
X0290406Y0179752D01*
X0290372Y0179812D01*
X0290341Y0179874D01*
X0290314Y0179938D01*
X0290290Y0180003D01*
X0290270Y0180069D01*
X0290253Y0180136D01*
X0290240Y0180204D01*
X0290230Y0180273D01*
X0290225Y0180342D01*
X0290223Y0180411D01*
X0290223Y0182455D01*
X0290225Y0182524D01*
X0290230Y0182593D01*
X0290240Y0182662D01*
X0290253Y0182730D01*
X0290270Y0182797D01*
X0290290Y0182863D01*
X0290314Y0182928D01*
X0290341Y0182992D01*
X0290372Y0183054D01*
X0290406Y0183114D01*
X0290443Y0183172D01*
X0290484Y0183228D01*
X0290527Y0183282D01*
X0290573Y0183334D01*
X0290622Y0183383D01*
X0290674Y0183429D01*
X0290728Y0183472D01*
X0290784Y0183513D01*
X0290842Y0183550D01*
X0290902Y0183584D01*
X0290964Y0183615D01*
X0291028Y0183642D01*
X0291093Y0183666D01*
X0291159Y0183686D01*
X0291226Y0183703D01*
X0291294Y0183716D01*
X0291363Y0183726D01*
X0291432Y0183731D01*
X0291501Y0183733D01*
X0292778Y0183733D01*
X0288128Y0183733D02*
X0288128Y0183222D01*
X0288128Y0183733D02*
X0285573Y0183733D01*
X0286851Y0179133D01*
X0200778Y0179133D02*
X0199501Y0179133D01*
X0200778Y0179133D02*
X0200778Y0183733D01*
X0199501Y0183733D01*
X0199432Y0183731D01*
X0199363Y0183726D01*
X0199294Y0183716D01*
X0199226Y0183703D01*
X0199159Y0183686D01*
X0199093Y0183666D01*
X0199028Y0183642D01*
X0198964Y0183615D01*
X0198902Y0183584D01*
X0198842Y0183550D01*
X0198784Y0183513D01*
X0198728Y0183472D01*
X0198674Y0183429D01*
X0198622Y0183383D01*
X0198573Y0183334D01*
X0198527Y0183282D01*
X0198484Y0183228D01*
X0198443Y0183172D01*
X0198406Y0183114D01*
X0198372Y0183054D01*
X0198341Y0182992D01*
X0198314Y0182928D01*
X0198290Y0182863D01*
X0198270Y0182797D01*
X0198253Y0182730D01*
X0198240Y0182662D01*
X0198230Y0182593D01*
X0198225Y0182524D01*
X0198223Y0182455D01*
X0198223Y0180411D01*
X0198225Y0180342D01*
X0198230Y0180273D01*
X0198240Y0180204D01*
X0198253Y0180136D01*
X0198270Y0180069D01*
X0198290Y0180003D01*
X0198314Y0179938D01*
X0198341Y0179874D01*
X0198372Y0179812D01*
X0198406Y0179752D01*
X0198443Y0179694D01*
X0198484Y0179638D01*
X0198527Y0179584D01*
X0198573Y0179532D01*
X0198622Y0179483D01*
X0198674Y0179437D01*
X0198728Y0179394D01*
X0198784Y0179353D01*
X0198842Y0179316D01*
X0198902Y0179282D01*
X0198964Y0179251D01*
X0199028Y0179224D01*
X0199093Y0179200D01*
X0199159Y0179180D01*
X0199226Y0179163D01*
X0199294Y0179150D01*
X0199363Y0179140D01*
X0199432Y0179135D01*
X0199501Y0179133D01*
X0196128Y0179133D02*
X0194595Y0179133D01*
X0194533Y0179135D01*
X0194472Y0179140D01*
X0194411Y0179150D01*
X0194350Y0179163D01*
X0194291Y0179179D01*
X0194233Y0179199D01*
X0194176Y0179223D01*
X0194120Y0179250D01*
X0194066Y0179280D01*
X0194014Y0179314D01*
X0193965Y0179350D01*
X0193917Y0179390D01*
X0193872Y0179432D01*
X0193830Y0179477D01*
X0193790Y0179525D01*
X0193754Y0179574D01*
X0193720Y0179626D01*
X0193690Y0179680D01*
X0193663Y0179736D01*
X0193639Y0179793D01*
X0193619Y0179851D01*
X0193603Y0179910D01*
X0193590Y0179971D01*
X0193580Y0180032D01*
X0193575Y0180093D01*
X0193573Y0180155D01*
X0193573Y0180666D01*
X0193575Y0180728D01*
X0193580Y0180789D01*
X0193590Y0180850D01*
X0193603Y0180911D01*
X0193619Y0180970D01*
X0193639Y0181028D01*
X0193663Y0181085D01*
X0193690Y0181141D01*
X0193720Y0181195D01*
X0193754Y0181247D01*
X0193790Y0181296D01*
X0193830Y0181344D01*
X0193872Y0181389D01*
X0193917Y0181431D01*
X0193965Y0181471D01*
X0194014Y0181507D01*
X0194066Y0181541D01*
X0194120Y0181571D01*
X0194176Y0181598D01*
X0194233Y0181622D01*
X0194291Y0181642D01*
X0194350Y0181658D01*
X0194411Y0181671D01*
X0194472Y0181681D01*
X0194533Y0181686D01*
X0194595Y0181688D01*
X0194595Y0181689D02*
X0196128Y0181689D01*
X0196128Y0183733D01*
X0193573Y0183733D01*
X0112278Y0183233D02*
X0112278Y0178633D01*
X0111001Y0178633D01*
X0110932Y0178635D01*
X0110863Y0178640D01*
X0110794Y0178650D01*
X0110726Y0178663D01*
X0110659Y0178680D01*
X0110593Y0178700D01*
X0110528Y0178724D01*
X0110464Y0178751D01*
X0110402Y0178782D01*
X0110342Y0178816D01*
X0110284Y0178853D01*
X0110228Y0178894D01*
X0110174Y0178937D01*
X0110122Y0178983D01*
X0110073Y0179032D01*
X0110027Y0179084D01*
X0109984Y0179138D01*
X0109943Y0179194D01*
X0109906Y0179252D01*
X0109872Y0179312D01*
X0109841Y0179374D01*
X0109814Y0179438D01*
X0109790Y0179503D01*
X0109770Y0179569D01*
X0109753Y0179636D01*
X0109740Y0179704D01*
X0109730Y0179773D01*
X0109725Y0179842D01*
X0109723Y0179911D01*
X0109723Y0181955D01*
X0109725Y0182024D01*
X0109730Y0182093D01*
X0109740Y0182162D01*
X0109753Y0182230D01*
X0109770Y0182297D01*
X0109790Y0182363D01*
X0109814Y0182428D01*
X0109841Y0182492D01*
X0109872Y0182554D01*
X0109906Y0182614D01*
X0109943Y0182672D01*
X0109984Y0182728D01*
X0110027Y0182782D01*
X0110073Y0182834D01*
X0110122Y0182883D01*
X0110174Y0182929D01*
X0110228Y0182972D01*
X0110284Y0183013D01*
X0110342Y0183050D01*
X0110402Y0183084D01*
X0110464Y0183115D01*
X0110528Y0183142D01*
X0110593Y0183166D01*
X0110659Y0183186D01*
X0110726Y0183203D01*
X0110794Y0183216D01*
X0110863Y0183226D01*
X0110932Y0183231D01*
X0111001Y0183233D01*
X0112278Y0183233D01*
X0107628Y0182211D02*
X0106351Y0183233D01*
X0106351Y0178633D01*
X0107628Y0178633D02*
X0105073Y0178633D01*
D11*
X0155728Y0132933D03*
X0167228Y0125433D03*
X0178728Y0117933D03*
X0061528Y0121633D03*
X0061528Y0110133D03*
X0061528Y0100133D03*
X0274728Y0026933D03*
X0323028Y0065533D03*
D12*
X0335228Y0082433D03*
X0344728Y0096933D03*
X0378228Y0096433D03*
X0388728Y0082433D03*
X0389528Y0062433D03*
X0370228Y0111433D03*
X0352728Y0111433D03*
X0355728Y0126433D03*
X0366728Y0126433D03*
D13*
X0110478Y0107683D02*
X0109978Y0107683D01*
X0109918Y0107685D01*
X0109857Y0107690D01*
X0109798Y0107699D01*
X0109739Y0107712D01*
X0109680Y0107728D01*
X0109623Y0107748D01*
X0109568Y0107771D01*
X0109513Y0107798D01*
X0109461Y0107827D01*
X0109410Y0107860D01*
X0109361Y0107896D01*
X0109315Y0107934D01*
X0109271Y0107976D01*
X0109229Y0108020D01*
X0109191Y0108066D01*
X0109155Y0108115D01*
X0109122Y0108166D01*
X0109093Y0108218D01*
X0109066Y0108273D01*
X0109043Y0108328D01*
X0109023Y0108385D01*
X0109007Y0108444D01*
X0108994Y0108503D01*
X0108985Y0108562D01*
X0108980Y0108623D01*
X0108978Y0108683D01*
X0108978Y0112183D01*
X0108206Y0114487D02*
X0092851Y0114487D01*
X0104349Y0109183D02*
X0104349Y0108933D01*
X0104349Y0109183D02*
X0104351Y0109243D01*
X0104356Y0109304D01*
X0104365Y0109363D01*
X0104378Y0109422D01*
X0104394Y0109481D01*
X0104414Y0109538D01*
X0104437Y0109593D01*
X0104464Y0109648D01*
X0104493Y0109700D01*
X0104526Y0109751D01*
X0104562Y0109800D01*
X0104600Y0109846D01*
X0104642Y0109890D01*
X0104686Y0109932D01*
X0104732Y0109970D01*
X0104781Y0110006D01*
X0104832Y0110039D01*
X0104884Y0110068D01*
X0104939Y0110095D01*
X0104994Y0110118D01*
X0105051Y0110138D01*
X0105110Y0110154D01*
X0105169Y0110167D01*
X0105228Y0110176D01*
X0105289Y0110181D01*
X0105349Y0110183D01*
X0106849Y0110183D01*
X0106849Y0108933D01*
X0106847Y0108864D01*
X0106841Y0108795D01*
X0106832Y0108727D01*
X0106819Y0108660D01*
X0106802Y0108593D01*
X0106781Y0108527D01*
X0106757Y0108463D01*
X0106729Y0108400D01*
X0106698Y0108338D01*
X0106664Y0108278D01*
X0106626Y0108221D01*
X0106585Y0108165D01*
X0106542Y0108112D01*
X0106495Y0108061D01*
X0106446Y0108013D01*
X0106394Y0107968D01*
X0106339Y0107926D01*
X0106283Y0107887D01*
X0106224Y0107850D01*
X0106163Y0107818D01*
X0106101Y0107788D01*
X0106037Y0107762D01*
X0105972Y0107740D01*
X0105906Y0107721D01*
X0105839Y0107706D01*
X0105771Y0107695D01*
X0105702Y0107687D01*
X0105633Y0107683D01*
X0105565Y0107683D01*
X0105496Y0107687D01*
X0105427Y0107695D01*
X0105359Y0107706D01*
X0105292Y0107721D01*
X0105226Y0107740D01*
X0105161Y0107762D01*
X0105097Y0107788D01*
X0105035Y0107818D01*
X0104974Y0107850D01*
X0104915Y0107887D01*
X0104859Y0107926D01*
X0104804Y0107968D01*
X0104752Y0108013D01*
X0104703Y0108061D01*
X0104656Y0108112D01*
X0104613Y0108165D01*
X0104572Y0108221D01*
X0104534Y0108278D01*
X0104500Y0108338D01*
X0104469Y0108400D01*
X0104441Y0108463D01*
X0104417Y0108527D01*
X0104396Y0108593D01*
X0104379Y0108660D01*
X0104366Y0108727D01*
X0104357Y0108795D01*
X0104351Y0108864D01*
X0104349Y0108933D01*
X0106849Y0110183D02*
X0106847Y0110270D01*
X0106841Y0110357D01*
X0106832Y0110444D01*
X0106819Y0110530D01*
X0106802Y0110616D01*
X0106781Y0110701D01*
X0106756Y0110784D01*
X0106728Y0110867D01*
X0106697Y0110948D01*
X0106662Y0111028D01*
X0106623Y0111106D01*
X0106581Y0111183D01*
X0106536Y0111258D01*
X0106487Y0111330D01*
X0106436Y0111401D01*
X0106381Y0111469D01*
X0106324Y0111534D01*
X0106263Y0111597D01*
X0106200Y0111658D01*
X0106135Y0111715D01*
X0106067Y0111770D01*
X0105996Y0111821D01*
X0105924Y0111870D01*
X0105849Y0111915D01*
X0105772Y0111957D01*
X0105694Y0111996D01*
X0105614Y0112031D01*
X0105533Y0112062D01*
X0105450Y0112090D01*
X0105367Y0112115D01*
X0105282Y0112136D01*
X0105196Y0112153D01*
X0105110Y0112166D01*
X0105023Y0112175D01*
X0104936Y0112181D01*
X0104849Y0112183D01*
X0108206Y0133779D02*
X0092851Y0133779D01*
D14*
X0114308Y0133976D03*
D15*
X0097928Y0095233D02*
X0092928Y0095233D01*
X0090428Y0097733D01*
X0090428Y0102733D01*
X0092928Y0105233D01*
X0097928Y0105233D01*
X0100428Y0102733D01*
X0102928Y0105233D01*
X0107928Y0105233D01*
X0110428Y0102733D01*
X0110428Y0097733D01*
X0107928Y0095233D01*
X0102928Y0095233D01*
X0100428Y0097733D01*
X0097928Y0095233D01*
X0107835Y0185921D02*
X0110984Y0185921D01*
X0110984Y0188283D01*
X0110984Y0194583D02*
X0110984Y0196945D01*
X0107835Y0196945D01*
X0196335Y0196445D02*
X0199484Y0196445D01*
X0199484Y0194083D01*
X0199484Y0187783D02*
X0199484Y0185421D01*
X0196335Y0185421D01*
X0288335Y0185421D02*
X0291484Y0185421D01*
X0291484Y0187783D01*
X0291484Y0194083D02*
X0291484Y0196445D01*
X0288335Y0196445D01*
X0374335Y0196445D02*
X0377484Y0196445D01*
X0377484Y0194083D01*
X0377484Y0187783D02*
X0377484Y0185421D01*
X0374335Y0185421D01*
X0467335Y0185421D02*
X0470484Y0185421D01*
X0470484Y0187783D01*
X0470484Y0194083D02*
X0470484Y0196445D01*
X0467335Y0196445D01*
X0556335Y0196445D02*
X0559484Y0196445D01*
X0559484Y0194083D01*
X0559484Y0187783D02*
X0559484Y0185421D01*
X0556335Y0185421D01*
X0647335Y0185421D02*
X0650484Y0185421D01*
X0650484Y0187783D01*
X0650484Y0194083D02*
X0650484Y0196445D01*
X0647335Y0196445D01*
X0731435Y0192421D02*
X0734584Y0192421D01*
X0734584Y0194783D01*
X0734584Y0201083D02*
X0734584Y0203445D01*
X0731435Y0203445D01*
D16*
X0399228Y0086043D02*
X0399228Y0085823D01*
X0389228Y0100323D02*
X0389228Y0100543D01*
X0381228Y0114823D02*
X0381228Y0115043D01*
X0377228Y0129823D02*
X0377228Y0130043D01*
X0345228Y0130043D02*
X0345228Y0129823D01*
X0341728Y0115043D02*
X0341728Y0114823D01*
X0333228Y0100543D02*
X0333228Y0100323D01*
X0324228Y0086043D02*
X0324228Y0085823D01*
X0323028Y0055143D02*
X0323028Y0054923D01*
X0323028Y0044543D02*
X0323028Y0044323D01*
X0100528Y0139823D02*
X0100528Y0140043D01*
D17*
X0341228Y0070633D02*
X0341228Y0054233D01*
X0381228Y0054233D02*
X0381228Y0070633D01*
D18*
X0374428Y0048233D02*
X0373028Y0048233D01*
X0373028Y0047233D01*
X0374428Y0047233D01*
X0374428Y0048233D01*
D19*
X0374428Y0048232D02*
X0373028Y0048232D01*
X0373028Y0048231D02*
X0374428Y0048231D01*
X0374428Y0048230D02*
X0373028Y0048230D01*
X0373028Y0048229D02*
X0374428Y0048229D01*
X0374428Y0048228D02*
X0373028Y0048228D01*
X0373028Y0048227D02*
X0374428Y0048227D01*
X0374428Y0048226D02*
X0373028Y0048226D01*
X0373028Y0048225D02*
X0374428Y0048225D01*
X0374428Y0048224D02*
X0373028Y0048224D01*
X0373028Y0048223D02*
X0374428Y0048223D01*
X0374428Y0048222D02*
X0373028Y0048222D01*
X0373028Y0048221D02*
X0374428Y0048221D01*
X0374428Y0048220D02*
X0373028Y0048220D01*
X0373028Y0048219D02*
X0374428Y0048219D01*
X0373028Y0048219D01*
X0373028Y0048218D02*
X0374428Y0048218D01*
X0374428Y0048217D02*
X0373028Y0048217D01*
X0373028Y0048216D02*
X0374428Y0048216D01*
X0374428Y0048215D02*
X0373028Y0048215D01*
X0373028Y0048214D02*
X0374428Y0048214D01*
X0374428Y0048213D02*
X0373028Y0048213D01*
X0373028Y0048212D02*
X0374428Y0048212D01*
X0374428Y0048211D02*
X0373028Y0048211D01*
X0373028Y0048210D02*
X0374428Y0048210D01*
X0374428Y0048209D02*
X0373028Y0048209D01*
X0373028Y0048208D02*
X0374428Y0048208D01*
X0374428Y0048207D02*
X0373028Y0048207D01*
X0373028Y0048206D02*
X0374428Y0048206D01*
X0374428Y0048205D02*
X0373028Y0048205D01*
X0373028Y0048204D02*
X0374428Y0048204D01*
X0374428Y0048203D02*
X0373028Y0048203D01*
X0373028Y0048202D02*
X0374428Y0048202D01*
X0374428Y0048201D02*
X0373028Y0048201D01*
X0373028Y0048200D02*
X0374428Y0048200D01*
X0374428Y0048199D02*
X0373028Y0048199D01*
X0373028Y0048198D02*
X0374428Y0048198D01*
X0374428Y0048197D02*
X0373028Y0048197D01*
X0373028Y0048196D02*
X0374428Y0048196D01*
X0374428Y0048195D02*
X0373028Y0048195D01*
X0373028Y0048194D02*
X0374428Y0048194D01*
X0374428Y0048193D02*
X0373028Y0048193D01*
X0373028Y0048192D02*
X0374428Y0048192D01*
X0374428Y0048191D02*
X0373028Y0048191D01*
X0373028Y0048190D02*
X0374428Y0048190D01*
X0374428Y0048189D02*
X0373028Y0048189D01*
X0373028Y0048188D02*
X0374428Y0048188D01*
X0374428Y0048187D02*
X0373028Y0048187D01*
X0373028Y0048186D02*
X0374428Y0048186D01*
X0374428Y0048185D02*
X0373028Y0048185D01*
X0373028Y0048184D02*
X0374428Y0048184D01*
X0374428Y0048183D02*
X0373028Y0048183D01*
X0373028Y0048182D02*
X0374428Y0048182D01*
X0374428Y0048181D02*
X0373028Y0048181D01*
X0373028Y0048180D02*
X0374428Y0048180D01*
X0374428Y0048179D02*
X0373028Y0048179D01*
X0373028Y0048178D02*
X0374428Y0048178D01*
X0374428Y0048177D02*
X0373028Y0048177D01*
X0373028Y0048176D02*
X0374428Y0048176D01*
X0374428Y0048175D02*
X0373028Y0048175D01*
X0373028Y0048174D02*
X0374428Y0048174D01*
X0374428Y0048173D02*
X0373028Y0048173D01*
X0373028Y0048172D02*
X0374428Y0048172D01*
X0374428Y0048171D02*
X0373028Y0048171D01*
X0373028Y0048170D02*
X0374428Y0048170D01*
X0374428Y0048169D02*
X0373028Y0048169D01*
X0373028Y0048168D02*
X0374428Y0048168D01*
X0374428Y0048167D02*
X0373028Y0048167D01*
X0373028Y0048166D02*
X0374428Y0048166D01*
X0374428Y0048165D02*
X0373028Y0048165D01*
X0373028Y0048164D02*
X0374428Y0048164D01*
X0374428Y0048163D02*
X0373028Y0048163D01*
X0373028Y0048162D02*
X0374428Y0048162D01*
X0374428Y0048161D02*
X0373028Y0048161D01*
X0373028Y0048160D02*
X0374428Y0048160D01*
X0374428Y0048159D02*
X0373028Y0048159D01*
X0373028Y0048158D02*
X0374428Y0048158D01*
X0374428Y0048157D02*
X0373028Y0048157D01*
X0373028Y0048156D02*
X0374428Y0048156D01*
X0373028Y0048156D01*
X0373028Y0048155D02*
X0374428Y0048155D01*
X0374428Y0048154D02*
X0373028Y0048154D01*
X0373028Y0048153D02*
X0374428Y0048153D01*
X0374428Y0048152D02*
X0373028Y0048152D01*
X0373028Y0048151D02*
X0374428Y0048151D01*
X0374428Y0048150D02*
X0373028Y0048150D01*
X0373028Y0048149D02*
X0374428Y0048149D01*
X0374428Y0048148D02*
X0373028Y0048148D01*
X0373028Y0048147D02*
X0374428Y0048147D01*
X0374428Y0048146D02*
X0373028Y0048146D01*
X0373028Y0048145D02*
X0374428Y0048145D01*
X0374428Y0048144D02*
X0373028Y0048144D01*
X0373028Y0048143D02*
X0374428Y0048143D01*
X0374428Y0048142D02*
X0373028Y0048142D01*
X0373028Y0048141D02*
X0374428Y0048141D01*
X0374428Y0048140D02*
X0373028Y0048140D01*
X0373028Y0048139D02*
X0374428Y0048139D01*
X0374428Y0048138D02*
X0373028Y0048138D01*
X0373028Y0048137D02*
X0374428Y0048137D01*
X0374428Y0048136D02*
X0373028Y0048136D01*
X0373028Y0048135D02*
X0374428Y0048135D01*
X0374428Y0048134D02*
X0373028Y0048134D01*
X0373028Y0048133D02*
X0374428Y0048133D01*
X0374428Y0048132D02*
X0373028Y0048132D01*
X0373028Y0048131D02*
X0374428Y0048131D01*
X0374428Y0048130D02*
X0373028Y0048130D01*
X0373028Y0048129D02*
X0374428Y0048129D01*
X0374428Y0048128D02*
X0373028Y0048128D01*
X0373028Y0048127D02*
X0374428Y0048127D01*
X0374428Y0048126D02*
X0373028Y0048126D01*
X0373028Y0048125D02*
X0374428Y0048125D01*
X0374428Y0048124D02*
X0373028Y0048124D01*
X0373028Y0048123D02*
X0374428Y0048123D01*
X0374428Y0048122D02*
X0373028Y0048122D01*
X0373028Y0048121D02*
X0374428Y0048121D01*
X0374428Y0048120D02*
X0373028Y0048120D01*
X0373028Y0048119D02*
X0374428Y0048119D01*
X0374428Y0048118D02*
X0373028Y0048118D01*
X0373028Y0048117D02*
X0374428Y0048117D01*
X0374428Y0048116D02*
X0373028Y0048116D01*
X0373028Y0048115D02*
X0374428Y0048115D01*
X0374428Y0048114D02*
X0373028Y0048114D01*
X0373028Y0048113D02*
X0374428Y0048113D01*
X0374428Y0048112D02*
X0373028Y0048112D01*
X0373028Y0048111D02*
X0374428Y0048111D01*
X0374428Y0048110D02*
X0373028Y0048110D01*
X0373028Y0048109D02*
X0374428Y0048109D01*
X0374428Y0048108D02*
X0373028Y0048108D01*
X0373028Y0048107D02*
X0374428Y0048107D01*
X0374428Y0048106D02*
X0373028Y0048106D01*
X0373028Y0048105D02*
X0374428Y0048105D01*
X0374428Y0048104D02*
X0373028Y0048104D01*
X0373028Y0048103D02*
X0374428Y0048103D01*
X0374428Y0048102D02*
X0373028Y0048102D01*
X0373028Y0048101D02*
X0374428Y0048101D01*
X0374428Y0048100D02*
X0373028Y0048100D01*
X0373028Y0048099D02*
X0374428Y0048099D01*
X0374428Y0048098D02*
X0373028Y0048098D01*
X0373028Y0048097D02*
X0374428Y0048097D01*
X0374428Y0048096D02*
X0373028Y0048096D01*
X0373028Y0048095D02*
X0374428Y0048095D01*
X0374428Y0048094D02*
X0373028Y0048094D01*
X0374428Y0048094D01*
X0374428Y0048093D02*
X0373028Y0048093D01*
X0373028Y0048092D02*
X0374428Y0048092D01*
X0374428Y0048091D02*
X0373028Y0048091D01*
X0373028Y0048090D02*
X0374428Y0048090D01*
X0374428Y0048089D02*
X0373028Y0048089D01*
X0373028Y0048088D02*
X0374428Y0048088D01*
X0374428Y0048087D02*
X0373028Y0048087D01*
X0373028Y0048086D02*
X0374428Y0048086D01*
X0374428Y0048085D02*
X0373028Y0048085D01*
X0373028Y0048084D02*
X0374428Y0048084D01*
X0374428Y0048083D02*
X0373028Y0048083D01*
X0373028Y0048082D02*
X0374428Y0048082D01*
X0374428Y0048081D02*
X0373028Y0048081D01*
X0373028Y0048080D02*
X0374428Y0048080D01*
X0374428Y0048079D02*
X0373028Y0048079D01*
X0373028Y0048078D02*
X0374428Y0048078D01*
X0374428Y0048077D02*
X0373028Y0048077D01*
X0373028Y0048076D02*
X0374428Y0048076D01*
X0374428Y0048075D02*
X0373028Y0048075D01*
X0373028Y0048074D02*
X0374428Y0048074D01*
X0374428Y0048073D02*
X0373028Y0048073D01*
X0373028Y0048072D02*
X0374428Y0048072D01*
X0374428Y0048071D02*
X0373028Y0048071D01*
X0373028Y0048070D02*
X0374428Y0048070D01*
X0374428Y0048069D02*
X0373028Y0048069D01*
X0373028Y0048068D02*
X0374428Y0048068D01*
X0374428Y0048067D02*
X0373028Y0048067D01*
X0373028Y0048066D02*
X0374428Y0048066D01*
X0374428Y0048065D02*
X0373028Y0048065D01*
X0373028Y0048064D02*
X0374428Y0048064D01*
X0374428Y0048063D02*
X0373028Y0048063D01*
X0373028Y0048062D02*
X0374428Y0048062D01*
X0374428Y0048061D02*
X0373028Y0048061D01*
X0373028Y0048060D02*
X0374428Y0048060D01*
X0374428Y0048059D02*
X0373028Y0048059D01*
X0373028Y0048058D02*
X0374428Y0048058D01*
X0374428Y0048057D02*
X0373028Y0048057D01*
X0373028Y0048056D02*
X0374428Y0048056D01*
X0374428Y0048055D02*
X0373028Y0048055D01*
X0373028Y0048054D02*
X0374428Y0048054D01*
X0374428Y0048053D02*
X0373028Y0048053D01*
X0373028Y0048052D02*
X0374428Y0048052D01*
X0374428Y0048051D02*
X0373028Y0048051D01*
X0373028Y0048050D02*
X0374428Y0048050D01*
X0374428Y0048049D02*
X0373028Y0048049D01*
X0373028Y0048048D02*
X0374428Y0048048D01*
X0374428Y0048047D02*
X0373028Y0048047D01*
X0373028Y0048046D02*
X0374428Y0048046D01*
X0374428Y0048045D02*
X0373028Y0048045D01*
X0373028Y0048044D02*
X0374428Y0048044D01*
X0374428Y0048043D02*
X0373028Y0048043D01*
X0373028Y0048042D02*
X0374428Y0048042D01*
X0374428Y0048041D02*
X0373028Y0048041D01*
X0373028Y0048040D02*
X0374428Y0048040D01*
X0374428Y0048039D02*
X0373028Y0048039D01*
X0373028Y0048038D02*
X0374428Y0048038D01*
X0374428Y0048037D02*
X0373028Y0048037D01*
X0373028Y0048036D02*
X0374428Y0048036D01*
X0374428Y0048035D02*
X0373028Y0048035D01*
X0373028Y0048034D02*
X0374428Y0048034D01*
X0374428Y0048033D02*
X0373028Y0048033D01*
X0373028Y0048032D02*
X0374428Y0048032D01*
X0374428Y0048031D02*
X0373028Y0048031D01*
X0374428Y0048031D01*
X0374428Y0048030D02*
X0373028Y0048030D01*
X0373028Y0048029D02*
X0374428Y0048029D01*
X0374428Y0048028D02*
X0373028Y0048028D01*
X0373028Y0048027D02*
X0374428Y0048027D01*
X0374428Y0048026D02*
X0373028Y0048026D01*
X0373028Y0048025D02*
X0374428Y0048025D01*
X0374428Y0048024D02*
X0373028Y0048024D01*
X0373028Y0048023D02*
X0374428Y0048023D01*
X0374428Y0048022D02*
X0373028Y0048022D01*
X0373028Y0048021D02*
X0374428Y0048021D01*
X0374428Y0048020D02*
X0373028Y0048020D01*
X0373028Y0048019D02*
X0374428Y0048019D01*
X0374428Y0048018D02*
X0373028Y0048018D01*
X0373028Y0048017D02*
X0374428Y0048017D01*
X0374428Y0048016D02*
X0373028Y0048016D01*
X0373028Y0048015D02*
X0374428Y0048015D01*
X0374428Y0048014D02*
X0373028Y0048014D01*
X0373028Y0048013D02*
X0374428Y0048013D01*
X0374428Y0048012D02*
X0373028Y0048012D01*
X0373028Y0048011D02*
X0374428Y0048011D01*
X0374428Y0048010D02*
X0373028Y0048010D01*
X0373028Y0048009D02*
X0374428Y0048009D01*
X0374428Y0048008D02*
X0373028Y0048008D01*
X0373028Y0048007D02*
X0374428Y0048007D01*
X0374428Y0048006D02*
X0373028Y0048006D01*
X0373028Y0048005D02*
X0374428Y0048005D01*
X0374428Y0048004D02*
X0373028Y0048004D01*
X0373028Y0048003D02*
X0374428Y0048003D01*
X0374428Y0048002D02*
X0373028Y0048002D01*
X0373028Y0048001D02*
X0374428Y0048001D01*
X0374428Y0048000D02*
X0373028Y0048000D01*
X0373028Y0047999D02*
X0374428Y0047999D01*
X0374428Y0047998D02*
X0373028Y0047998D01*
X0373028Y0047997D02*
X0374428Y0047997D01*
X0374428Y0047996D02*
X0373028Y0047996D01*
X0373028Y0047995D02*
X0374428Y0047995D01*
X0374428Y0047994D02*
X0373028Y0047994D01*
X0373028Y0047993D02*
X0374428Y0047993D01*
X0374428Y0047992D02*
X0373028Y0047992D01*
X0373028Y0047991D02*
X0374428Y0047991D01*
X0374428Y0047990D02*
X0373028Y0047990D01*
X0373028Y0047989D02*
X0374428Y0047989D01*
X0374428Y0047988D02*
X0373028Y0047988D01*
X0373028Y0047987D02*
X0374428Y0047987D01*
X0374428Y0047986D02*
X0373028Y0047986D01*
X0373028Y0047985D02*
X0374428Y0047985D01*
X0374428Y0047984D02*
X0373028Y0047984D01*
X0373028Y0047983D02*
X0374428Y0047983D01*
X0374428Y0047982D02*
X0373028Y0047982D01*
X0373028Y0047981D02*
X0374428Y0047981D01*
X0374428Y0047980D02*
X0373028Y0047980D01*
X0373028Y0047979D02*
X0374428Y0047979D01*
X0374428Y0047978D02*
X0373028Y0047978D01*
X0373028Y0047977D02*
X0374428Y0047977D01*
X0374428Y0047976D02*
X0373028Y0047976D01*
X0373028Y0047975D02*
X0374428Y0047975D01*
X0374428Y0047974D02*
X0373028Y0047974D01*
X0373028Y0047973D02*
X0374428Y0047973D01*
X0374428Y0047972D02*
X0373028Y0047972D01*
X0373028Y0047971D02*
X0374428Y0047971D01*
X0374428Y0047970D02*
X0373028Y0047970D01*
X0373028Y0047969D02*
X0374428Y0047969D01*
X0373028Y0047969D01*
X0373028Y0047968D02*
X0374428Y0047968D01*
X0374428Y0047967D02*
X0373028Y0047967D01*
X0373028Y0047966D02*
X0374428Y0047966D01*
X0374428Y0047965D02*
X0373028Y0047965D01*
X0373028Y0047964D02*
X0374428Y0047964D01*
X0374428Y0047963D02*
X0373028Y0047963D01*
X0373028Y0047962D02*
X0374428Y0047962D01*
X0374428Y0047961D02*
X0373028Y0047961D01*
X0373028Y0047960D02*
X0374428Y0047960D01*
X0374428Y0047959D02*
X0373028Y0047959D01*
X0373028Y0047958D02*
X0374428Y0047958D01*
X0374428Y0047957D02*
X0373028Y0047957D01*
X0373028Y0047956D02*
X0374428Y0047956D01*
X0374428Y0047955D02*
X0373028Y0047955D01*
X0373028Y0047954D02*
X0374428Y0047954D01*
X0374428Y0047953D02*
X0373028Y0047953D01*
X0373028Y0047952D02*
X0374428Y0047952D01*
X0374428Y0047951D02*
X0373028Y0047951D01*
X0373028Y0047950D02*
X0374428Y0047950D01*
X0374428Y0047949D02*
X0373028Y0047949D01*
X0373028Y0047948D02*
X0374428Y0047948D01*
X0374428Y0047947D02*
X0373028Y0047947D01*
X0373028Y0047946D02*
X0374428Y0047946D01*
X0374428Y0047945D02*
X0373028Y0047945D01*
X0373028Y0047944D02*
X0374428Y0047944D01*
X0374428Y0047943D02*
X0373028Y0047943D01*
X0373028Y0047942D02*
X0374428Y0047942D01*
X0374428Y0047941D02*
X0373028Y0047941D01*
X0373028Y0047940D02*
X0374428Y0047940D01*
X0374428Y0047939D02*
X0373028Y0047939D01*
X0373028Y0047938D02*
X0374428Y0047938D01*
X0374428Y0047937D02*
X0373028Y0047937D01*
X0373028Y0047936D02*
X0374428Y0047936D01*
X0374428Y0047935D02*
X0373028Y0047935D01*
X0373028Y0047934D02*
X0374428Y0047934D01*
X0374428Y0047933D02*
X0373028Y0047933D01*
X0373028Y0047932D02*
X0374428Y0047932D01*
X0374428Y0047931D02*
X0373028Y0047931D01*
X0373028Y0047930D02*
X0374428Y0047930D01*
X0374428Y0047929D02*
X0373028Y0047929D01*
X0373028Y0047928D02*
X0374428Y0047928D01*
X0374428Y0047927D02*
X0373028Y0047927D01*
X0373028Y0047926D02*
X0374428Y0047926D01*
X0374428Y0047925D02*
X0373028Y0047925D01*
X0373028Y0047924D02*
X0374428Y0047924D01*
X0374428Y0047923D02*
X0373028Y0047923D01*
X0373028Y0047922D02*
X0374428Y0047922D01*
X0374428Y0047921D02*
X0373028Y0047921D01*
X0373028Y0047920D02*
X0374428Y0047920D01*
X0374428Y0047919D02*
X0373028Y0047919D01*
X0373028Y0047918D02*
X0374428Y0047918D01*
X0374428Y0047917D02*
X0373028Y0047917D01*
X0373028Y0047916D02*
X0374428Y0047916D01*
X0374428Y0047915D02*
X0373028Y0047915D01*
X0373028Y0047914D02*
X0374428Y0047914D01*
X0374428Y0047913D02*
X0373028Y0047913D01*
X0373028Y0047912D02*
X0374428Y0047912D01*
X0374428Y0047911D02*
X0373028Y0047911D01*
X0373028Y0047910D02*
X0374428Y0047910D01*
X0374428Y0047909D02*
X0373028Y0047909D01*
X0373028Y0047908D02*
X0374428Y0047908D01*
X0374428Y0047907D02*
X0373028Y0047907D01*
X0373028Y0047906D02*
X0374428Y0047906D01*
X0373028Y0047906D01*
X0373028Y0047905D02*
X0374428Y0047905D01*
X0374428Y0047904D02*
X0373028Y0047904D01*
X0373028Y0047903D02*
X0374428Y0047903D01*
X0374428Y0047902D02*
X0373028Y0047902D01*
X0373028Y0047901D02*
X0374428Y0047901D01*
X0374428Y0047900D02*
X0373028Y0047900D01*
X0373028Y0047899D02*
X0374428Y0047899D01*
X0374428Y0047898D02*
X0373028Y0047898D01*
X0373028Y0047897D02*
X0374428Y0047897D01*
X0374428Y0047896D02*
X0373028Y0047896D01*
X0373028Y0047895D02*
X0374428Y0047895D01*
X0374428Y0047894D02*
X0373028Y0047894D01*
X0373028Y0047893D02*
X0374428Y0047893D01*
X0374428Y0047892D02*
X0373028Y0047892D01*
X0373028Y0047891D02*
X0374428Y0047891D01*
X0374428Y0047890D02*
X0373028Y0047890D01*
X0373028Y0047889D02*
X0374428Y0047889D01*
X0374428Y0047888D02*
X0373028Y0047888D01*
X0373028Y0047887D02*
X0374428Y0047887D01*
X0374428Y0047886D02*
X0373028Y0047886D01*
X0373028Y0047885D02*
X0374428Y0047885D01*
X0374428Y0047884D02*
X0373028Y0047884D01*
X0373028Y0047883D02*
X0374428Y0047883D01*
X0374428Y0047882D02*
X0373028Y0047882D01*
X0373028Y0047881D02*
X0374428Y0047881D01*
X0374428Y0047880D02*
X0373028Y0047880D01*
X0373028Y0047879D02*
X0374428Y0047879D01*
X0374428Y0047878D02*
X0373028Y0047878D01*
X0373028Y0047877D02*
X0374428Y0047877D01*
X0374428Y0047876D02*
X0373028Y0047876D01*
X0373028Y0047875D02*
X0374428Y0047875D01*
X0374428Y0047874D02*
X0373028Y0047874D01*
X0373028Y0047873D02*
X0374428Y0047873D01*
X0374428Y0047872D02*
X0373028Y0047872D01*
X0373028Y0047871D02*
X0374428Y0047871D01*
X0374428Y0047870D02*
X0373028Y0047870D01*
X0373028Y0047869D02*
X0374428Y0047869D01*
X0374428Y0047868D02*
X0373028Y0047868D01*
X0373028Y0047867D02*
X0374428Y0047867D01*
X0374428Y0047866D02*
X0373028Y0047866D01*
X0373028Y0047865D02*
X0374428Y0047865D01*
X0374428Y0047864D02*
X0373028Y0047864D01*
X0373028Y0047863D02*
X0374428Y0047863D01*
X0374428Y0047862D02*
X0373028Y0047862D01*
X0373028Y0047861D02*
X0374428Y0047861D01*
X0374428Y0047860D02*
X0373028Y0047860D01*
X0373028Y0047859D02*
X0374428Y0047859D01*
X0374428Y0047858D02*
X0373028Y0047858D01*
X0373028Y0047857D02*
X0374428Y0047857D01*
X0374428Y0047856D02*
X0373028Y0047856D01*
X0373028Y0047855D02*
X0374428Y0047855D01*
X0374428Y0047854D02*
X0373028Y0047854D01*
X0373028Y0047853D02*
X0374428Y0047853D01*
X0374428Y0047852D02*
X0373028Y0047852D01*
X0373028Y0047851D02*
X0374428Y0047851D01*
X0374428Y0047850D02*
X0373028Y0047850D01*
X0373028Y0047849D02*
X0374428Y0047849D01*
X0374428Y0047848D02*
X0373028Y0047848D01*
X0373028Y0047847D02*
X0374428Y0047847D01*
X0374428Y0047846D02*
X0373028Y0047846D01*
X0373028Y0047845D02*
X0374428Y0047845D01*
X0374428Y0047844D02*
X0373028Y0047844D01*
X0374428Y0047844D01*
X0374428Y0047843D02*
X0373028Y0047843D01*
X0373028Y0047842D02*
X0374428Y0047842D01*
X0374428Y0047841D02*
X0373028Y0047841D01*
X0373028Y0047840D02*
X0374428Y0047840D01*
X0374428Y0047839D02*
X0373028Y0047839D01*
X0373028Y0047838D02*
X0374428Y0047838D01*
X0374428Y0047837D02*
X0373028Y0047837D01*
X0373028Y0047836D02*
X0374428Y0047836D01*
X0374428Y0047835D02*
X0373028Y0047835D01*
X0373028Y0047834D02*
X0374428Y0047834D01*
X0374428Y0047833D02*
X0373028Y0047833D01*
X0373028Y0047832D02*
X0374428Y0047832D01*
X0374428Y0047831D02*
X0373028Y0047831D01*
X0373028Y0047830D02*
X0374428Y0047830D01*
X0374428Y0047829D02*
X0373028Y0047829D01*
X0373028Y0047828D02*
X0374428Y0047828D01*
X0374428Y0047827D02*
X0373028Y0047827D01*
X0373028Y0047826D02*
X0374428Y0047826D01*
X0374428Y0047825D02*
X0373028Y0047825D01*
X0373028Y0047824D02*
X0374428Y0047824D01*
X0374428Y0047823D02*
X0373028Y0047823D01*
X0373028Y0047822D02*
X0374428Y0047822D01*
X0374428Y0047821D02*
X0373028Y0047821D01*
X0373028Y0047820D02*
X0374428Y0047820D01*
X0374428Y0047819D02*
X0373028Y0047819D01*
X0373028Y0047818D02*
X0374428Y0047818D01*
X0374428Y0047817D02*
X0373028Y0047817D01*
X0373028Y0047816D02*
X0374428Y0047816D01*
X0374428Y0047815D02*
X0373028Y0047815D01*
X0373028Y0047814D02*
X0374428Y0047814D01*
X0374428Y0047813D02*
X0373028Y0047813D01*
X0373028Y0047812D02*
X0374428Y0047812D01*
X0374428Y0047811D02*
X0373028Y0047811D01*
X0373028Y0047810D02*
X0374428Y0047810D01*
X0374428Y0047809D02*
X0373028Y0047809D01*
X0373028Y0047808D02*
X0374428Y0047808D01*
X0374428Y0047807D02*
X0373028Y0047807D01*
X0373028Y0047806D02*
X0374428Y0047806D01*
X0374428Y0047805D02*
X0373028Y0047805D01*
X0373028Y0047804D02*
X0374428Y0047804D01*
X0374428Y0047803D02*
X0373028Y0047803D01*
X0373028Y0047802D02*
X0374428Y0047802D01*
X0374428Y0047801D02*
X0373028Y0047801D01*
X0373028Y0047800D02*
X0374428Y0047800D01*
X0374428Y0047799D02*
X0373028Y0047799D01*
X0373028Y0047798D02*
X0374428Y0047798D01*
X0374428Y0047797D02*
X0373028Y0047797D01*
X0373028Y0047796D02*
X0374428Y0047796D01*
X0374428Y0047795D02*
X0373028Y0047795D01*
X0373028Y0047794D02*
X0374428Y0047794D01*
X0374428Y0047793D02*
X0373028Y0047793D01*
X0373028Y0047792D02*
X0374428Y0047792D01*
X0374428Y0047791D02*
X0373028Y0047791D01*
X0373028Y0047790D02*
X0374428Y0047790D01*
X0374428Y0047789D02*
X0373028Y0047789D01*
X0373028Y0047788D02*
X0374428Y0047788D01*
X0374428Y0047787D02*
X0373028Y0047787D01*
X0373028Y0047786D02*
X0374428Y0047786D01*
X0374428Y0047785D02*
X0373028Y0047785D01*
X0373028Y0047784D02*
X0374428Y0047784D01*
X0374428Y0047783D02*
X0373028Y0047783D01*
X0373028Y0047782D02*
X0374428Y0047782D01*
X0374428Y0047781D02*
X0373028Y0047781D01*
X0374428Y0047781D01*
X0374428Y0047780D02*
X0373028Y0047780D01*
X0373028Y0047779D02*
X0374428Y0047779D01*
X0374428Y0047778D02*
X0373028Y0047778D01*
X0373028Y0047777D02*
X0374428Y0047777D01*
X0374428Y0047776D02*
X0373028Y0047776D01*
X0373028Y0047775D02*
X0374428Y0047775D01*
X0374428Y0047774D02*
X0373028Y0047774D01*
X0373028Y0047773D02*
X0374428Y0047773D01*
X0374428Y0047772D02*
X0373028Y0047772D01*
X0373028Y0047771D02*
X0374428Y0047771D01*
X0374428Y0047770D02*
X0373028Y0047770D01*
X0373028Y0047769D02*
X0374428Y0047769D01*
X0374428Y0047768D02*
X0373028Y0047768D01*
X0373028Y0047767D02*
X0374428Y0047767D01*
X0374428Y0047766D02*
X0373028Y0047766D01*
X0373028Y0047765D02*
X0374428Y0047765D01*
X0374428Y0047764D02*
X0373028Y0047764D01*
X0373028Y0047763D02*
X0374428Y0047763D01*
X0374428Y0047762D02*
X0373028Y0047762D01*
X0373028Y0047761D02*
X0374428Y0047761D01*
X0374428Y0047760D02*
X0373028Y0047760D01*
X0373028Y0047759D02*
X0374428Y0047759D01*
X0374428Y0047758D02*
X0373028Y0047758D01*
X0373028Y0047757D02*
X0374428Y0047757D01*
X0374428Y0047756D02*
X0373028Y0047756D01*
X0373028Y0047755D02*
X0374428Y0047755D01*
X0374428Y0047754D02*
X0373028Y0047754D01*
X0373028Y0047753D02*
X0374428Y0047753D01*
X0374428Y0047752D02*
X0373028Y0047752D01*
X0373028Y0047751D02*
X0374428Y0047751D01*
X0374428Y0047750D02*
X0373028Y0047750D01*
X0373028Y0047749D02*
X0374428Y0047749D01*
X0374428Y0047748D02*
X0373028Y0047748D01*
X0373028Y0047747D02*
X0374428Y0047747D01*
X0374428Y0047746D02*
X0373028Y0047746D01*
X0373028Y0047745D02*
X0374428Y0047745D01*
X0374428Y0047744D02*
X0373028Y0047744D01*
X0373028Y0047743D02*
X0374428Y0047743D01*
X0374428Y0047742D02*
X0373028Y0047742D01*
X0373028Y0047741D02*
X0374428Y0047741D01*
X0374428Y0047740D02*
X0373028Y0047740D01*
X0373028Y0047739D02*
X0374428Y0047739D01*
X0374428Y0047738D02*
X0373028Y0047738D01*
X0373028Y0047737D02*
X0374428Y0047737D01*
X0374428Y0047736D02*
X0373028Y0047736D01*
X0373028Y0047735D02*
X0374428Y0047735D01*
X0374428Y0047734D02*
X0373028Y0047734D01*
X0373028Y0047733D02*
X0374428Y0047733D01*
X0374428Y0047732D02*
X0373028Y0047732D01*
X0373028Y0047731D02*
X0374428Y0047731D01*
X0374428Y0047730D02*
X0373028Y0047730D01*
X0373028Y0047729D02*
X0374428Y0047729D01*
X0374428Y0047728D02*
X0373028Y0047728D01*
X0373028Y0047727D02*
X0374428Y0047727D01*
X0374428Y0047726D02*
X0373028Y0047726D01*
X0373028Y0047725D02*
X0374428Y0047725D01*
X0374428Y0047724D02*
X0373028Y0047724D01*
X0373028Y0047723D02*
X0374428Y0047723D01*
X0374428Y0047722D02*
X0373028Y0047722D01*
X0373028Y0047721D02*
X0374428Y0047721D01*
X0374428Y0047720D02*
X0373028Y0047720D01*
X0373028Y0047719D02*
X0374428Y0047719D01*
X0373028Y0047719D01*
X0373028Y0047718D02*
X0374428Y0047718D01*
X0374428Y0047717D02*
X0373028Y0047717D01*
X0373028Y0047716D02*
X0374428Y0047716D01*
X0374428Y0047715D02*
X0373028Y0047715D01*
X0373028Y0047714D02*
X0374428Y0047714D01*
X0374428Y0047713D02*
X0373028Y0047713D01*
X0373028Y0047712D02*
X0374428Y0047712D01*
X0374428Y0047711D02*
X0373028Y0047711D01*
X0373028Y0047710D02*
X0374428Y0047710D01*
X0374428Y0047709D02*
X0373028Y0047709D01*
X0373028Y0047708D02*
X0374428Y0047708D01*
X0374428Y0047707D02*
X0373028Y0047707D01*
X0373028Y0047706D02*
X0374428Y0047706D01*
X0374428Y0047705D02*
X0373028Y0047705D01*
X0373028Y0047704D02*
X0374428Y0047704D01*
X0374428Y0047703D02*
X0373028Y0047703D01*
X0373028Y0047702D02*
X0374428Y0047702D01*
X0374428Y0047701D02*
X0373028Y0047701D01*
X0373028Y0047700D02*
X0374428Y0047700D01*
X0374428Y0047699D02*
X0373028Y0047699D01*
X0373028Y0047698D02*
X0374428Y0047698D01*
X0374428Y0047697D02*
X0373028Y0047697D01*
X0373028Y0047696D02*
X0374428Y0047696D01*
X0374428Y0047695D02*
X0373028Y0047695D01*
X0373028Y0047694D02*
X0374428Y0047694D01*
X0374428Y0047693D02*
X0373028Y0047693D01*
X0373028Y0047692D02*
X0374428Y0047692D01*
X0374428Y0047691D02*
X0373028Y0047691D01*
X0373028Y0047690D02*
X0374428Y0047690D01*
X0374428Y0047689D02*
X0373028Y0047689D01*
X0373028Y0047688D02*
X0374428Y0047688D01*
X0374428Y0047687D02*
X0373028Y0047687D01*
X0373028Y0047686D02*
X0374428Y0047686D01*
X0374428Y0047685D02*
X0373028Y0047685D01*
X0373028Y0047684D02*
X0374428Y0047684D01*
X0374428Y0047683D02*
X0373028Y0047683D01*
X0373028Y0047682D02*
X0374428Y0047682D01*
X0374428Y0047681D02*
X0373028Y0047681D01*
X0373028Y0047680D02*
X0374428Y0047680D01*
X0374428Y0047679D02*
X0373028Y0047679D01*
X0373028Y0047678D02*
X0374428Y0047678D01*
X0374428Y0047677D02*
X0373028Y0047677D01*
X0373028Y0047676D02*
X0374428Y0047676D01*
X0374428Y0047675D02*
X0373028Y0047675D01*
X0373028Y0047674D02*
X0374428Y0047674D01*
X0374428Y0047673D02*
X0373028Y0047673D01*
X0373028Y0047672D02*
X0374428Y0047672D01*
X0374428Y0047671D02*
X0373028Y0047671D01*
X0373028Y0047670D02*
X0374428Y0047670D01*
X0374428Y0047669D02*
X0373028Y0047669D01*
X0373028Y0047668D02*
X0374428Y0047668D01*
X0374428Y0047667D02*
X0373028Y0047667D01*
X0373028Y0047666D02*
X0374428Y0047666D01*
X0374428Y0047665D02*
X0373028Y0047665D01*
X0373028Y0047664D02*
X0374428Y0047664D01*
X0374428Y0047663D02*
X0373028Y0047663D01*
X0373028Y0047662D02*
X0374428Y0047662D01*
X0374428Y0047661D02*
X0373028Y0047661D01*
X0373028Y0047660D02*
X0374428Y0047660D01*
X0374428Y0047659D02*
X0373028Y0047659D01*
X0373028Y0047658D02*
X0374428Y0047658D01*
X0374428Y0047657D02*
X0373028Y0047657D01*
X0373028Y0047656D02*
X0374428Y0047656D01*
X0373028Y0047656D01*
X0373028Y0047655D02*
X0374428Y0047655D01*
X0374428Y0047654D02*
X0373028Y0047654D01*
X0373028Y0047653D02*
X0374428Y0047653D01*
X0374428Y0047652D02*
X0373028Y0047652D01*
X0373028Y0047651D02*
X0374428Y0047651D01*
X0374428Y0047650D02*
X0373028Y0047650D01*
X0373028Y0047649D02*
X0374428Y0047649D01*
X0374428Y0047648D02*
X0373028Y0047648D01*
X0373028Y0047647D02*
X0374428Y0047647D01*
X0374428Y0047646D02*
X0373028Y0047646D01*
X0373028Y0047645D02*
X0374428Y0047645D01*
X0374428Y0047644D02*
X0373028Y0047644D01*
X0373028Y0047643D02*
X0374428Y0047643D01*
X0374428Y0047642D02*
X0373028Y0047642D01*
X0373028Y0047641D02*
X0374428Y0047641D01*
X0374428Y0047640D02*
X0373028Y0047640D01*
X0373028Y0047639D02*
X0374428Y0047639D01*
X0374428Y0047638D02*
X0373028Y0047638D01*
X0373028Y0047637D02*
X0374428Y0047637D01*
X0374428Y0047636D02*
X0373028Y0047636D01*
X0373028Y0047635D02*
X0374428Y0047635D01*
X0374428Y0047634D02*
X0373028Y0047634D01*
X0373028Y0047633D02*
X0374428Y0047633D01*
X0374428Y0047632D02*
X0373028Y0047632D01*
X0373028Y0047631D02*
X0374428Y0047631D01*
X0374428Y0047630D02*
X0373028Y0047630D01*
X0373028Y0047629D02*
X0374428Y0047629D01*
X0374428Y0047628D02*
X0373028Y0047628D01*
X0373028Y0047627D02*
X0374428Y0047627D01*
X0374428Y0047626D02*
X0373028Y0047626D01*
X0373028Y0047625D02*
X0374428Y0047625D01*
X0374428Y0047624D02*
X0373028Y0047624D01*
X0373028Y0047623D02*
X0374428Y0047623D01*
X0374428Y0047622D02*
X0373028Y0047622D01*
X0373028Y0047621D02*
X0374428Y0047621D01*
X0374428Y0047620D02*
X0373028Y0047620D01*
X0373028Y0047619D02*
X0374428Y0047619D01*
X0374428Y0047618D02*
X0373028Y0047618D01*
X0373028Y0047617D02*
X0374428Y0047617D01*
X0374428Y0047616D02*
X0373028Y0047616D01*
X0373028Y0047615D02*
X0374428Y0047615D01*
X0374428Y0047614D02*
X0373028Y0047614D01*
X0373028Y0047613D02*
X0374428Y0047613D01*
X0374428Y0047612D02*
X0373028Y0047612D01*
X0373028Y0047611D02*
X0374428Y0047611D01*
X0374428Y0047610D02*
X0373028Y0047610D01*
X0373028Y0047609D02*
X0374428Y0047609D01*
X0374428Y0047608D02*
X0373028Y0047608D01*
X0373028Y0047607D02*
X0374428Y0047607D01*
X0374428Y0047606D02*
X0373028Y0047606D01*
X0373028Y0047605D02*
X0374428Y0047605D01*
X0374428Y0047604D02*
X0373028Y0047604D01*
X0373028Y0047603D02*
X0374428Y0047603D01*
X0374428Y0047602D02*
X0373028Y0047602D01*
X0373028Y0047601D02*
X0374428Y0047601D01*
X0374428Y0047600D02*
X0373028Y0047600D01*
X0373028Y0047599D02*
X0374428Y0047599D01*
X0374428Y0047598D02*
X0373028Y0047598D01*
X0373028Y0047597D02*
X0374428Y0047597D01*
X0374428Y0047596D02*
X0373028Y0047596D01*
X0373028Y0047595D02*
X0374428Y0047595D01*
X0374428Y0047594D02*
X0373028Y0047594D01*
X0374428Y0047594D01*
X0374428Y0047593D02*
X0373028Y0047593D01*
X0373028Y0047592D02*
X0374428Y0047592D01*
X0374428Y0047591D02*
X0373028Y0047591D01*
X0373028Y0047590D02*
X0374428Y0047590D01*
X0374428Y0047589D02*
X0373028Y0047589D01*
X0373028Y0047588D02*
X0374428Y0047588D01*
X0374428Y0047587D02*
X0373028Y0047587D01*
X0373028Y0047586D02*
X0374428Y0047586D01*
X0374428Y0047585D02*
X0373028Y0047585D01*
X0373028Y0047584D02*
X0374428Y0047584D01*
X0374428Y0047583D02*
X0373028Y0047583D01*
X0373028Y0047582D02*
X0374428Y0047582D01*
X0374428Y0047581D02*
X0373028Y0047581D01*
X0373028Y0047580D02*
X0374428Y0047580D01*
X0374428Y0047579D02*
X0373028Y0047579D01*
X0373028Y0047578D02*
X0374428Y0047578D01*
X0374428Y0047577D02*
X0373028Y0047577D01*
X0373028Y0047576D02*
X0374428Y0047576D01*
X0374428Y0047575D02*
X0373028Y0047575D01*
X0373028Y0047574D02*
X0374428Y0047574D01*
X0374428Y0047573D02*
X0373028Y0047573D01*
X0373028Y0047572D02*
X0374428Y0047572D01*
X0374428Y0047571D02*
X0373028Y0047571D01*
X0373028Y0047570D02*
X0374428Y0047570D01*
X0374428Y0047569D02*
X0373028Y0047569D01*
X0373028Y0047568D02*
X0374428Y0047568D01*
X0374428Y0047567D02*
X0373028Y0047567D01*
X0373028Y0047566D02*
X0374428Y0047566D01*
X0374428Y0047565D02*
X0373028Y0047565D01*
X0373028Y0047564D02*
X0374428Y0047564D01*
X0374428Y0047563D02*
X0373028Y0047563D01*
X0373028Y0047562D02*
X0374428Y0047562D01*
X0374428Y0047561D02*
X0373028Y0047561D01*
X0373028Y0047560D02*
X0374428Y0047560D01*
X0374428Y0047559D02*
X0373028Y0047559D01*
X0373028Y0047558D02*
X0374428Y0047558D01*
X0374428Y0047557D02*
X0373028Y0047557D01*
X0373028Y0047556D02*
X0374428Y0047556D01*
X0374428Y0047555D02*
X0373028Y0047555D01*
X0373028Y0047554D02*
X0374428Y0047554D01*
X0374428Y0047553D02*
X0373028Y0047553D01*
X0373028Y0047552D02*
X0374428Y0047552D01*
X0374428Y0047551D02*
X0373028Y0047551D01*
X0373028Y0047550D02*
X0374428Y0047550D01*
X0374428Y0047549D02*
X0373028Y0047549D01*
X0373028Y0047548D02*
X0374428Y0047548D01*
X0374428Y0047547D02*
X0373028Y0047547D01*
X0373028Y0047546D02*
X0374428Y0047546D01*
X0374428Y0047545D02*
X0373028Y0047545D01*
X0373028Y0047544D02*
X0374428Y0047544D01*
X0374428Y0047543D02*
X0373028Y0047543D01*
X0373028Y0047542D02*
X0374428Y0047542D01*
X0374428Y0047541D02*
X0373028Y0047541D01*
X0373028Y0047540D02*
X0374428Y0047540D01*
X0374428Y0047539D02*
X0373028Y0047539D01*
X0373028Y0047538D02*
X0374428Y0047538D01*
X0374428Y0047537D02*
X0373028Y0047537D01*
X0373028Y0047536D02*
X0374428Y0047536D01*
X0374428Y0047535D02*
X0373028Y0047535D01*
X0373028Y0047534D02*
X0374428Y0047534D01*
X0374428Y0047533D02*
X0373028Y0047533D01*
X0373028Y0047532D02*
X0374428Y0047532D01*
X0374428Y0047531D02*
X0373028Y0047531D01*
X0374428Y0047531D01*
X0374428Y0047530D02*
X0373028Y0047530D01*
X0373028Y0047529D02*
X0374428Y0047529D01*
X0374428Y0047528D02*
X0373028Y0047528D01*
X0373028Y0047527D02*
X0374428Y0047527D01*
X0374428Y0047526D02*
X0373028Y0047526D01*
X0373028Y0047525D02*
X0374428Y0047525D01*
X0374428Y0047524D02*
X0373028Y0047524D01*
X0373028Y0047523D02*
X0374428Y0047523D01*
X0374428Y0047522D02*
X0373028Y0047522D01*
X0373028Y0047521D02*
X0374428Y0047521D01*
X0374428Y0047520D02*
X0373028Y0047520D01*
X0373028Y0047519D02*
X0374428Y0047519D01*
X0374428Y0047518D02*
X0373028Y0047518D01*
X0373028Y0047517D02*
X0374428Y0047517D01*
X0374428Y0047516D02*
X0373028Y0047516D01*
X0373028Y0047515D02*
X0374428Y0047515D01*
X0374428Y0047514D02*
X0373028Y0047514D01*
X0373028Y0047513D02*
X0374428Y0047513D01*
X0374428Y0047512D02*
X0373028Y0047512D01*
X0373028Y0047511D02*
X0374428Y0047511D01*
X0374428Y0047510D02*
X0373028Y0047510D01*
X0373028Y0047509D02*
X0374428Y0047509D01*
X0374428Y0047508D02*
X0373028Y0047508D01*
X0373028Y0047507D02*
X0374428Y0047507D01*
X0374428Y0047506D02*
X0373028Y0047506D01*
X0373028Y0047505D02*
X0374428Y0047505D01*
X0374428Y0047504D02*
X0373028Y0047504D01*
X0373028Y0047503D02*
X0374428Y0047503D01*
X0374428Y0047502D02*
X0373028Y0047502D01*
X0373028Y0047501D02*
X0374428Y0047501D01*
X0374428Y0047500D02*
X0373028Y0047500D01*
X0373028Y0047499D02*
X0374428Y0047499D01*
X0374428Y0047498D02*
X0373028Y0047498D01*
X0373028Y0047497D02*
X0374428Y0047497D01*
X0374428Y0047496D02*
X0373028Y0047496D01*
X0373028Y0047495D02*
X0374428Y0047495D01*
X0374428Y0047494D02*
X0373028Y0047494D01*
X0373028Y0047493D02*
X0374428Y0047493D01*
X0374428Y0047492D02*
X0373028Y0047492D01*
X0373028Y0047491D02*
X0374428Y0047491D01*
X0374428Y0047490D02*
X0373028Y0047490D01*
X0373028Y0047489D02*
X0374428Y0047489D01*
X0374428Y0047488D02*
X0373028Y0047488D01*
X0373028Y0047487D02*
X0374428Y0047487D01*
X0374428Y0047486D02*
X0373028Y0047486D01*
X0373028Y0047485D02*
X0374428Y0047485D01*
X0374428Y0047484D02*
X0373028Y0047484D01*
X0373028Y0047483D02*
X0374428Y0047483D01*
X0374428Y0047482D02*
X0373028Y0047482D01*
X0373028Y0047481D02*
X0374428Y0047481D01*
X0374428Y0047480D02*
X0373028Y0047480D01*
X0373028Y0047479D02*
X0374428Y0047479D01*
X0374428Y0047478D02*
X0373028Y0047478D01*
X0373028Y0047477D02*
X0374428Y0047477D01*
X0374428Y0047476D02*
X0373028Y0047476D01*
X0373028Y0047475D02*
X0374428Y0047475D01*
X0374428Y0047474D02*
X0373028Y0047474D01*
X0373028Y0047473D02*
X0374428Y0047473D01*
X0374428Y0047472D02*
X0373028Y0047472D01*
X0373028Y0047471D02*
X0374428Y0047471D01*
X0374428Y0047470D02*
X0373028Y0047470D01*
X0373028Y0047469D02*
X0374428Y0047469D01*
X0373028Y0047469D01*
X0373028Y0047468D02*
X0374428Y0047468D01*
X0374428Y0047467D02*
X0373028Y0047467D01*
X0373028Y0047466D02*
X0374428Y0047466D01*
X0374428Y0047465D02*
X0373028Y0047465D01*
X0373028Y0047464D02*
X0374428Y0047464D01*
X0374428Y0047463D02*
X0373028Y0047463D01*
X0373028Y0047462D02*
X0374428Y0047462D01*
X0374428Y0047461D02*
X0373028Y0047461D01*
X0373028Y0047460D02*
X0374428Y0047460D01*
X0374428Y0047459D02*
X0373028Y0047459D01*
X0373028Y0047458D02*
X0374428Y0047458D01*
X0374428Y0047457D02*
X0373028Y0047457D01*
X0373028Y0047456D02*
X0374428Y0047456D01*
X0374428Y0047455D02*
X0373028Y0047455D01*
X0373028Y0047454D02*
X0374428Y0047454D01*
X0374428Y0047453D02*
X0373028Y0047453D01*
X0373028Y0047452D02*
X0374428Y0047452D01*
X0374428Y0047451D02*
X0373028Y0047451D01*
X0373028Y0047450D02*
X0374428Y0047450D01*
X0374428Y0047449D02*
X0373028Y0047449D01*
X0373028Y0047448D02*
X0374428Y0047448D01*
X0374428Y0047447D02*
X0373028Y0047447D01*
X0373028Y0047446D02*
X0374428Y0047446D01*
X0374428Y0047445D02*
X0373028Y0047445D01*
X0373028Y0047444D02*
X0374428Y0047444D01*
X0374428Y0047443D02*
X0373028Y0047443D01*
X0373028Y0047442D02*
X0374428Y0047442D01*
X0374428Y0047441D02*
X0373028Y0047441D01*
X0373028Y0047440D02*
X0374428Y0047440D01*
X0374428Y0047439D02*
X0373028Y0047439D01*
X0373028Y0047438D02*
X0374428Y0047438D01*
X0374428Y0047437D02*
X0373028Y0047437D01*
X0373028Y0047436D02*
X0374428Y0047436D01*
X0374428Y0047435D02*
X0373028Y0047435D01*
X0373028Y0047434D02*
X0374428Y0047434D01*
X0374428Y0047433D02*
X0373028Y0047433D01*
X0373028Y0047432D02*
X0374428Y0047432D01*
X0374428Y0047431D02*
X0373028Y0047431D01*
X0373028Y0047430D02*
X0374428Y0047430D01*
X0374428Y0047429D02*
X0373028Y0047429D01*
X0373028Y0047428D02*
X0374428Y0047428D01*
X0374428Y0047427D02*
X0373028Y0047427D01*
X0373028Y0047426D02*
X0374428Y0047426D01*
X0374428Y0047425D02*
X0373028Y0047425D01*
X0373028Y0047424D02*
X0374428Y0047424D01*
X0374428Y0047423D02*
X0373028Y0047423D01*
X0373028Y0047422D02*
X0374428Y0047422D01*
X0374428Y0047421D02*
X0373028Y0047421D01*
X0373028Y0047420D02*
X0374428Y0047420D01*
X0374428Y0047419D02*
X0373028Y0047419D01*
X0373028Y0047418D02*
X0374428Y0047418D01*
X0374428Y0047417D02*
X0373028Y0047417D01*
X0373028Y0047416D02*
X0374428Y0047416D01*
X0374428Y0047415D02*
X0373028Y0047415D01*
X0373028Y0047414D02*
X0374428Y0047414D01*
X0374428Y0047413D02*
X0373028Y0047413D01*
X0373028Y0047412D02*
X0374428Y0047412D01*
X0374428Y0047411D02*
X0373028Y0047411D01*
X0373028Y0047410D02*
X0374428Y0047410D01*
X0374428Y0047409D02*
X0373028Y0047409D01*
X0373028Y0047408D02*
X0374428Y0047408D01*
X0374428Y0047407D02*
X0373028Y0047407D01*
X0373028Y0047406D02*
X0374428Y0047406D01*
X0373028Y0047406D01*
X0373028Y0047405D02*
X0374428Y0047405D01*
X0374428Y0047404D02*
X0373028Y0047404D01*
X0373028Y0047403D02*
X0374428Y0047403D01*
X0374428Y0047402D02*
X0373028Y0047402D01*
X0373028Y0047401D02*
X0374428Y0047401D01*
X0374428Y0047400D02*
X0373028Y0047400D01*
X0373028Y0047399D02*
X0374428Y0047399D01*
X0374428Y0047398D02*
X0373028Y0047398D01*
X0373028Y0047397D02*
X0374428Y0047397D01*
X0374428Y0047396D02*
X0373028Y0047396D01*
X0373028Y0047395D02*
X0374428Y0047395D01*
X0374428Y0047394D02*
X0373028Y0047394D01*
X0373028Y0047393D02*
X0374428Y0047393D01*
X0374428Y0047392D02*
X0373028Y0047392D01*
X0373028Y0047391D02*
X0374428Y0047391D01*
X0374428Y0047390D02*
X0373028Y0047390D01*
X0373028Y0047389D02*
X0374428Y0047389D01*
X0374428Y0047388D02*
X0373028Y0047388D01*
X0373028Y0047387D02*
X0374428Y0047387D01*
X0374428Y0047386D02*
X0373028Y0047386D01*
X0373028Y0047385D02*
X0374428Y0047385D01*
X0374428Y0047384D02*
X0373028Y0047384D01*
X0373028Y0047383D02*
X0374428Y0047383D01*
X0374428Y0047382D02*
X0373028Y0047382D01*
X0373028Y0047381D02*
X0374428Y0047381D01*
X0374428Y0047380D02*
X0373028Y0047380D01*
X0373028Y0047379D02*
X0374428Y0047379D01*
X0374428Y0047378D02*
X0373028Y0047378D01*
X0373028Y0047377D02*
X0374428Y0047377D01*
X0374428Y0047376D02*
X0373028Y0047376D01*
X0373028Y0047375D02*
X0374428Y0047375D01*
X0374428Y0047374D02*
X0373028Y0047374D01*
X0373028Y0047373D02*
X0374428Y0047373D01*
X0374428Y0047372D02*
X0373028Y0047372D01*
X0373028Y0047371D02*
X0374428Y0047371D01*
X0374428Y0047370D02*
X0373028Y0047370D01*
X0373028Y0047369D02*
X0374428Y0047369D01*
X0374428Y0047368D02*
X0373028Y0047368D01*
X0373028Y0047367D02*
X0374428Y0047367D01*
X0374428Y0047366D02*
X0373028Y0047366D01*
X0373028Y0047365D02*
X0374428Y0047365D01*
X0374428Y0047364D02*
X0373028Y0047364D01*
X0373028Y0047363D02*
X0374428Y0047363D01*
X0374428Y0047362D02*
X0373028Y0047362D01*
X0373028Y0047361D02*
X0374428Y0047361D01*
X0374428Y0047360D02*
X0373028Y0047360D01*
X0373028Y0047359D02*
X0374428Y0047359D01*
X0374428Y0047358D02*
X0373028Y0047358D01*
X0373028Y0047357D02*
X0374428Y0047357D01*
X0374428Y0047356D02*
X0373028Y0047356D01*
X0373028Y0047355D02*
X0374428Y0047355D01*
X0374428Y0047354D02*
X0373028Y0047354D01*
X0373028Y0047353D02*
X0374428Y0047353D01*
X0374428Y0047352D02*
X0373028Y0047352D01*
X0373028Y0047351D02*
X0374428Y0047351D01*
X0374428Y0047350D02*
X0373028Y0047350D01*
X0373028Y0047349D02*
X0374428Y0047349D01*
X0374428Y0047348D02*
X0373028Y0047348D01*
X0373028Y0047347D02*
X0374428Y0047347D01*
X0374428Y0047346D02*
X0373028Y0047346D01*
X0373028Y0047345D02*
X0374428Y0047345D01*
X0374428Y0047344D02*
X0373028Y0047344D01*
X0374428Y0047344D01*
X0374428Y0047343D02*
X0373028Y0047343D01*
X0373028Y0047342D02*
X0374428Y0047342D01*
X0374428Y0047341D02*
X0373028Y0047341D01*
X0373028Y0047340D02*
X0374428Y0047340D01*
X0374428Y0047339D02*
X0373028Y0047339D01*
X0373028Y0047338D02*
X0374428Y0047338D01*
X0374428Y0047337D02*
X0373028Y0047337D01*
X0373028Y0047336D02*
X0374428Y0047336D01*
X0374428Y0047335D02*
X0373028Y0047335D01*
X0373028Y0047334D02*
X0374428Y0047334D01*
X0374428Y0047333D02*
X0373028Y0047333D01*
X0373028Y0047332D02*
X0374428Y0047332D01*
X0374428Y0047331D02*
X0373028Y0047331D01*
X0373028Y0047330D02*
X0374428Y0047330D01*
X0374428Y0047329D02*
X0373028Y0047329D01*
X0373028Y0047328D02*
X0374428Y0047328D01*
X0374428Y0047327D02*
X0373028Y0047327D01*
X0373028Y0047326D02*
X0374428Y0047326D01*
X0374428Y0047325D02*
X0373028Y0047325D01*
X0373028Y0047324D02*
X0374428Y0047324D01*
X0374428Y0047323D02*
X0373028Y0047323D01*
X0373028Y0047322D02*
X0374428Y0047322D01*
X0374428Y0047321D02*
X0373028Y0047321D01*
X0373028Y0047320D02*
X0374428Y0047320D01*
X0374428Y0047319D02*
X0373028Y0047319D01*
X0373028Y0047318D02*
X0374428Y0047318D01*
X0374428Y0047317D02*
X0373028Y0047317D01*
X0373028Y0047316D02*
X0374428Y0047316D01*
X0374428Y0047315D02*
X0373028Y0047315D01*
X0373028Y0047314D02*
X0374428Y0047314D01*
X0374428Y0047313D02*
X0373028Y0047313D01*
X0373028Y0047312D02*
X0374428Y0047312D01*
X0374428Y0047311D02*
X0373028Y0047311D01*
X0373028Y0047310D02*
X0374428Y0047310D01*
X0374428Y0047309D02*
X0373028Y0047309D01*
X0373028Y0047308D02*
X0374428Y0047308D01*
X0374428Y0047307D02*
X0373028Y0047307D01*
X0373028Y0047306D02*
X0374428Y0047306D01*
X0374428Y0047305D02*
X0373028Y0047305D01*
X0373028Y0047304D02*
X0374428Y0047304D01*
X0374428Y0047303D02*
X0373028Y0047303D01*
X0373028Y0047302D02*
X0374428Y0047302D01*
X0374428Y0047301D02*
X0373028Y0047301D01*
X0373028Y0047300D02*
X0374428Y0047300D01*
X0374428Y0047299D02*
X0373028Y0047299D01*
X0373028Y0047298D02*
X0374428Y0047298D01*
X0374428Y0047297D02*
X0373028Y0047297D01*
X0373028Y0047296D02*
X0374428Y0047296D01*
X0374428Y0047295D02*
X0373028Y0047295D01*
X0373028Y0047294D02*
X0374428Y0047294D01*
X0374428Y0047293D02*
X0373028Y0047293D01*
X0373028Y0047292D02*
X0374428Y0047292D01*
X0374428Y0047291D02*
X0373028Y0047291D01*
X0373028Y0047290D02*
X0374428Y0047290D01*
X0374428Y0047289D02*
X0373028Y0047289D01*
X0373028Y0047288D02*
X0374428Y0047288D01*
X0374428Y0047287D02*
X0373028Y0047287D01*
X0373028Y0047286D02*
X0374428Y0047286D01*
X0374428Y0047285D02*
X0373028Y0047285D01*
X0373028Y0047284D02*
X0374428Y0047284D01*
X0374428Y0047283D02*
X0373028Y0047283D01*
X0373028Y0047282D02*
X0374428Y0047282D01*
X0374428Y0047281D02*
X0373028Y0047281D01*
X0374428Y0047281D01*
X0374428Y0047280D02*
X0373028Y0047280D01*
X0373028Y0047279D02*
X0374428Y0047279D01*
X0374428Y0047278D02*
X0373028Y0047278D01*
X0373028Y0047277D02*
X0374428Y0047277D01*
X0374428Y0047276D02*
X0373028Y0047276D01*
X0373028Y0047275D02*
X0374428Y0047275D01*
X0374428Y0047274D02*
X0373028Y0047274D01*
X0373028Y0047273D02*
X0374428Y0047273D01*
X0374428Y0047272D02*
X0373028Y0047272D01*
X0373028Y0047271D02*
X0374428Y0047271D01*
X0374428Y0047270D02*
X0373028Y0047270D01*
X0373028Y0047269D02*
X0374428Y0047269D01*
X0374428Y0047268D02*
X0373028Y0047268D01*
X0373028Y0047267D02*
X0374428Y0047267D01*
X0374428Y0047266D02*
X0373028Y0047266D01*
X0373028Y0047265D02*
X0374428Y0047265D01*
X0374428Y0047264D02*
X0373028Y0047264D01*
X0373028Y0047263D02*
X0374428Y0047263D01*
X0374428Y0047262D02*
X0373028Y0047262D01*
X0373028Y0047261D02*
X0374428Y0047261D01*
X0374428Y0047260D02*
X0373028Y0047260D01*
X0373028Y0047259D02*
X0374428Y0047259D01*
X0374428Y0047258D02*
X0373028Y0047258D01*
X0373028Y0047257D02*
X0374428Y0047257D01*
X0374428Y0047256D02*
X0373028Y0047256D01*
X0373028Y0047255D02*
X0374428Y0047255D01*
X0374428Y0047254D02*
X0373028Y0047254D01*
X0373028Y0047253D02*
X0374428Y0047253D01*
X0374428Y0047252D02*
X0373028Y0047252D01*
X0373028Y0047251D02*
X0374428Y0047251D01*
X0374428Y0047250D02*
X0373028Y0047250D01*
X0373028Y0047249D02*
X0374428Y0047249D01*
X0374428Y0047248D02*
X0373028Y0047248D01*
X0373028Y0047247D02*
X0374428Y0047247D01*
X0374428Y0047246D02*
X0373028Y0047246D01*
X0373028Y0047245D02*
X0374428Y0047245D01*
X0374428Y0047244D02*
X0373028Y0047244D01*
X0373028Y0047243D02*
X0374428Y0047243D01*
X0374428Y0047242D02*
X0373028Y0047242D01*
X0373028Y0047241D02*
X0374428Y0047241D01*
X0374428Y0047240D02*
X0373028Y0047240D01*
X0373028Y0047239D02*
X0374428Y0047239D01*
X0374428Y0047238D02*
X0373028Y0047238D01*
X0373028Y0047237D02*
X0374428Y0047237D01*
X0374428Y0047236D02*
X0373028Y0047236D01*
X0373028Y0047235D02*
X0374428Y0047235D01*
X0374428Y0047234D02*
X0373028Y0047234D01*
X0373028Y0047233D02*
X0374428Y0047233D01*
D20*
X0376231Y0047287D02*
X0376231Y0042579D01*
X0375840Y0043103D02*
X0375785Y0043115D01*
X0375732Y0043130D01*
X0375680Y0043150D01*
X0375629Y0043173D01*
X0375581Y0043200D01*
X0375534Y0043230D01*
X0375489Y0043263D01*
X0375448Y0043300D01*
X0375408Y0043339D01*
X0375372Y0043381D01*
X0375339Y0043426D01*
X0375308Y0043472D01*
X0375282Y0043521D01*
X0375259Y0043572D01*
X0375239Y0043624D01*
X0375223Y0043677D01*
X0375212Y0043731D01*
X0375204Y0043786D01*
X0375200Y0043842D01*
X0375199Y0043897D01*
X0375203Y0043953D01*
X0375211Y0044008D01*
X0375223Y0044062D01*
X0375238Y0044116D01*
X0375258Y0044168D01*
X0375280Y0044218D01*
X0375307Y0044267D01*
X0375337Y0044314D01*
X0375370Y0044359D01*
X0375406Y0044401D01*
X0375445Y0044440D01*
X0375487Y0044477D01*
X0375532Y0044510D01*
X0375578Y0044541D01*
X0376231Y0044933D01*
X0376885Y0045325D01*
X0377278Y0043364D02*
X0377202Y0043321D01*
X0377124Y0043280D01*
X0377044Y0043243D01*
X0376963Y0043210D01*
X0376880Y0043180D01*
X0376796Y0043153D01*
X0376712Y0043130D01*
X0376626Y0043111D01*
X0376539Y0043095D01*
X0376452Y0043083D01*
X0376365Y0043075D01*
X0376277Y0043070D01*
X0376189Y0043069D01*
X0376101Y0043072D01*
X0376014Y0043079D01*
X0375926Y0043089D01*
X0375840Y0043103D01*
X0375185Y0046502D02*
X0375261Y0046545D01*
X0375339Y0046586D01*
X0375419Y0046623D01*
X0375500Y0046656D01*
X0375583Y0046686D01*
X0375667Y0046713D01*
X0375751Y0046736D01*
X0375837Y0046755D01*
X0375924Y0046771D01*
X0376011Y0046783D01*
X0376098Y0046791D01*
X0376186Y0046796D01*
X0376274Y0046797D01*
X0376362Y0046794D01*
X0376449Y0046787D01*
X0376537Y0046777D01*
X0376623Y0046763D01*
X0376678Y0046751D01*
X0376731Y0046736D01*
X0376783Y0046716D01*
X0376834Y0046693D01*
X0376882Y0046666D01*
X0376929Y0046636D01*
X0376974Y0046603D01*
X0377015Y0046566D01*
X0377055Y0046527D01*
X0377091Y0046485D01*
X0377124Y0046440D01*
X0377155Y0046394D01*
X0377181Y0046345D01*
X0377204Y0046294D01*
X0377224Y0046242D01*
X0377240Y0046189D01*
X0377251Y0046135D01*
X0377259Y0046080D01*
X0377263Y0046024D01*
X0377264Y0045969D01*
X0377260Y0045913D01*
X0377252Y0045858D01*
X0377240Y0045804D01*
X0377225Y0045750D01*
X0377205Y0045698D01*
X0377183Y0045648D01*
X0377156Y0045599D01*
X0377126Y0045552D01*
X0377093Y0045507D01*
X0377057Y0045465D01*
X0377018Y0045426D01*
X0376976Y0045389D01*
X0376931Y0045356D01*
X0376885Y0045325D01*
X0379281Y0043887D02*
X0379281Y0047287D01*
X0381896Y0047287D02*
X0381896Y0043887D01*
X0381894Y0043816D01*
X0381888Y0043746D01*
X0381879Y0043675D01*
X0381865Y0043606D01*
X0381848Y0043537D01*
X0381828Y0043469D01*
X0381803Y0043403D01*
X0381775Y0043338D01*
X0381744Y0043274D01*
X0381709Y0043213D01*
X0381671Y0043153D01*
X0381629Y0043095D01*
X0381585Y0043040D01*
X0381538Y0042987D01*
X0381488Y0042937D01*
X0381435Y0042890D01*
X0381380Y0042846D01*
X0381322Y0042804D01*
X0381262Y0042766D01*
X0381201Y0042731D01*
X0381137Y0042700D01*
X0381072Y0042672D01*
X0381006Y0042647D01*
X0380938Y0042627D01*
X0380869Y0042610D01*
X0380800Y0042596D01*
X0380729Y0042587D01*
X0380659Y0042581D01*
X0380588Y0042579D01*
X0380517Y0042581D01*
X0380447Y0042587D01*
X0380376Y0042596D01*
X0380307Y0042610D01*
X0380238Y0042627D01*
X0380170Y0042647D01*
X0380104Y0042672D01*
X0380039Y0042700D01*
X0379975Y0042731D01*
X0379914Y0042766D01*
X0379854Y0042804D01*
X0379796Y0042846D01*
X0379741Y0042890D01*
X0379688Y0042937D01*
X0379638Y0042987D01*
X0379591Y0043040D01*
X0379547Y0043095D01*
X0379505Y0043153D01*
X0379467Y0043213D01*
X0379432Y0043274D01*
X0379401Y0043338D01*
X0379373Y0043403D01*
X0379348Y0043469D01*
X0379328Y0043537D01*
X0379311Y0043606D01*
X0379297Y0043675D01*
X0379288Y0043746D01*
X0379282Y0043816D01*
X0379280Y0043887D01*
X0373333Y0042579D02*
X0370717Y0042579D01*
X0373333Y0042579D02*
X0371110Y0045195D01*
X0371894Y0047287D02*
X0371970Y0047285D01*
X0372046Y0047279D01*
X0372121Y0047270D01*
X0372196Y0047256D01*
X0372270Y0047239D01*
X0372343Y0047219D01*
X0372415Y0047194D01*
X0372486Y0047166D01*
X0372555Y0047135D01*
X0372623Y0047100D01*
X0372689Y0047061D01*
X0372752Y0047020D01*
X0372814Y0046975D01*
X0372873Y0046927D01*
X0372930Y0046877D01*
X0372984Y0046823D01*
X0373035Y0046767D01*
X0373084Y0046708D01*
X0373129Y0046647D01*
X0373171Y0046584D01*
X0373210Y0046519D01*
X0373246Y0046452D01*
X0373278Y0046383D01*
X0373307Y0046313D01*
X0373332Y0046241D01*
X0371109Y0045195D02*
X0371061Y0045243D01*
X0371016Y0045294D01*
X0370973Y0045347D01*
X0370933Y0045403D01*
X0370897Y0045460D01*
X0370863Y0045520D01*
X0370833Y0045581D01*
X0370806Y0045644D01*
X0370783Y0045708D01*
X0370763Y0045773D01*
X0370746Y0045839D01*
X0370734Y0045906D01*
X0370724Y0045974D01*
X0370719Y0046042D01*
X0370717Y0046110D01*
X0370719Y0046176D01*
X0370724Y0046242D01*
X0370734Y0046307D01*
X0370747Y0046372D01*
X0370763Y0046436D01*
X0370783Y0046499D01*
X0370807Y0046560D01*
X0370834Y0046621D01*
X0370864Y0046679D01*
X0370897Y0046736D01*
X0370934Y0046791D01*
X0370974Y0046844D01*
X0371016Y0046894D01*
X0371062Y0046942D01*
X0371110Y0046988D01*
X0371160Y0047030D01*
X0371213Y0047070D01*
X0371268Y0047107D01*
X0371325Y0047140D01*
X0371383Y0047170D01*
X0371444Y0047197D01*
X0371505Y0047221D01*
X0371568Y0047241D01*
X0371632Y0047257D01*
X0371697Y0047270D01*
X0371762Y0047280D01*
X0371828Y0047285D01*
X0371894Y0047287D01*
X0343701Y0077545D02*
X0342525Y0078460D01*
X0342002Y0079898D01*
X0342525Y0078460D02*
X0342002Y0077022D01*
X0342525Y0078460D02*
X0340956Y0078460D01*
X0342525Y0078460D02*
X0343701Y0079375D01*
M02*
