G75*
%MOIN*%
%OFA0B0*%
%FSLAX25Y25*%
%IPPOS*%
%LPD*%
%AMOC8*
5,1,8,0,0,1.08239X$1,22.5*
%
%ADD10C,0.03200*%
%ADD11R,0.05000X0.05787*%
%ADD12R,0.04331X0.03937*%
%ADD13R,0.02756X0.03543*%
%ADD14C,0.01496*%
%ADD15C,0.05600*%
%ADD16R,0.03937X0.04331*%
%ADD17OC8,0.07400*%
%ADD18C,0.10000*%
%ADD19C,0.11024*%
%ADD20C,0.07400*%
%ADD21R,0.06299X0.07087*%
%ADD22R,0.02362X0.03543*%
%ADD23R,0.02408X0.06402*%
%ADD24C,0.09449*%
%ADD25R,0.05787X0.05000*%
%ADD26C,0.05000*%
%ADD27C,0.01600*%
%ADD28C,0.03600*%
%ADD29C,0.05100*%
%ADD30C,0.02778*%
%ADD31C,0.02000*%
%ADD32C,0.04950*%
D10*
X0031828Y0020933D02*
X0031828Y0034074D01*
X0034378Y0031935D01*
X0034378Y0031935D01*
X0038523Y0030426D01*
X0042934Y0030426D01*
X0047078Y0031935D01*
X0049328Y0033823D01*
X0049328Y0031257D01*
X0049846Y0030007D01*
X0050802Y0029051D01*
X0050802Y0029051D01*
X0058920Y0020933D01*
X0031828Y0020933D01*
X0031828Y0022330D02*
X0057523Y0022330D01*
X0054324Y0025529D02*
X0031828Y0025529D01*
X0031828Y0028727D02*
X0051126Y0028727D01*
X0049328Y0031926D02*
X0047054Y0031926D01*
X0047078Y0031935D02*
X0047078Y0031935D01*
X0057837Y0031633D02*
X0062338Y0031633D01*
X0064728Y0034024D01*
X0067119Y0031633D01*
X0072338Y0031633D01*
X0074728Y0034024D01*
X0077119Y0031633D01*
X0082338Y0031633D01*
X0086028Y0035324D01*
X0086028Y0040543D01*
X0083638Y0042933D01*
X0084728Y0044024D01*
X0087119Y0041633D01*
X0092338Y0041633D01*
X0094728Y0044024D01*
X0095819Y0042933D01*
X0093428Y0040543D01*
X0093428Y0035324D01*
X0097119Y0031633D01*
X0102338Y0031633D01*
X0106028Y0035324D01*
X0106028Y0040543D01*
X0103638Y0042933D01*
X0104728Y0044024D01*
X0107119Y0041633D01*
X0112338Y0041633D01*
X0114728Y0044024D01*
X0115819Y0042933D01*
X0113428Y0040543D01*
X0113428Y0035324D01*
X0115869Y0032882D01*
X0108320Y0025333D01*
X0064137Y0025333D01*
X0057837Y0031633D01*
X0060743Y0028727D02*
X0111714Y0028727D01*
X0108516Y0025529D02*
X0063941Y0025529D01*
X0062630Y0031926D02*
X0066826Y0031926D01*
X0072630Y0031926D02*
X0076826Y0031926D01*
X0082630Y0031926D02*
X0096826Y0031926D01*
X0093628Y0035124D02*
X0085829Y0035124D01*
X0086028Y0038323D02*
X0093428Y0038323D01*
X0094407Y0041521D02*
X0085050Y0041521D01*
X0065819Y0042933D02*
X0064728Y0041843D01*
X0062338Y0044233D01*
X0057119Y0044233D01*
X0056128Y0043243D01*
X0056128Y0066525D01*
X0064137Y0074533D01*
X0087906Y0074533D01*
X0088236Y0074203D01*
X0088808Y0073966D01*
X0088328Y0072808D01*
X0088328Y0071058D01*
X0088998Y0069441D01*
X0089432Y0069007D01*
X0089846Y0068007D01*
X0101802Y0056051D01*
X0103052Y0055533D01*
X0109320Y0055533D01*
X0110620Y0054233D01*
X0107119Y0054233D01*
X0104728Y0051843D01*
X0102338Y0054233D01*
X0097119Y0054233D01*
X0094728Y0051843D01*
X0092338Y0054233D01*
X0087119Y0054233D01*
X0084728Y0051843D01*
X0082338Y0054233D01*
X0077119Y0054233D01*
X0074728Y0051843D01*
X0072338Y0054233D01*
X0067119Y0054233D01*
X0063428Y0050543D01*
X0063428Y0045324D01*
X0065819Y0042933D01*
X0064032Y0044720D02*
X0056128Y0044720D01*
X0056128Y0047918D02*
X0063428Y0047918D01*
X0064002Y0051117D02*
X0056128Y0051117D01*
X0056128Y0054315D02*
X0110538Y0054315D01*
X0116956Y0057514D02*
X0196128Y0057514D01*
X0196128Y0058442D02*
X0196128Y0053243D01*
X0194728Y0051843D01*
X0192338Y0054233D01*
X0187119Y0054233D01*
X0184728Y0051843D01*
X0182338Y0054233D01*
X0177119Y0054233D01*
X0174728Y0051843D01*
X0172338Y0054233D01*
X0167119Y0054233D01*
X0164728Y0051843D01*
X0162338Y0054233D01*
X0157119Y0054233D01*
X0154728Y0051843D01*
X0152338Y0054233D01*
X0147119Y0054233D01*
X0144728Y0051843D01*
X0142338Y0054233D01*
X0137119Y0054233D01*
X0133428Y0050543D01*
X0133428Y0045324D01*
X0135819Y0042933D01*
X0134728Y0041843D01*
X0132338Y0044233D01*
X0127119Y0044233D01*
X0124728Y0041843D01*
X0123638Y0042933D01*
X0126028Y0045324D01*
X0126028Y0050543D01*
X0122338Y0054233D01*
X0120237Y0054233D01*
X0113611Y0060859D01*
X0112654Y0061815D01*
X0112314Y0061956D01*
X0113028Y0063680D01*
X0113028Y0066186D01*
X0112069Y0068502D01*
X0110297Y0070274D01*
X0107981Y0071233D01*
X0105475Y0071233D01*
X0105307Y0071163D01*
X0098528Y0077941D01*
X0098528Y0085611D01*
X0098858Y0085941D01*
X0099528Y0087558D01*
X0099528Y0089308D01*
X0098858Y0090925D01*
X0097621Y0092163D01*
X0096004Y0092833D01*
X0094253Y0092833D01*
X0092642Y0092166D01*
X0092928Y0092858D01*
X0092928Y0094608D01*
X0092258Y0096225D01*
X0091021Y0097463D01*
X0089404Y0098133D01*
X0087653Y0098133D01*
X0086036Y0097463D01*
X0085906Y0097333D01*
X0069389Y0097333D01*
X0067828Y0098894D01*
X0067164Y0099169D01*
X0066889Y0099833D01*
X0065141Y0101581D01*
X0065150Y0101581D01*
X0066381Y0102091D01*
X0067323Y0103033D01*
X0067832Y0104263D01*
X0067832Y0110083D01*
X0067323Y0111314D01*
X0066381Y0112256D01*
X0065150Y0112765D01*
X0058306Y0112765D01*
X0057076Y0112256D01*
X0056134Y0111314D01*
X0055624Y0110083D01*
X0055624Y0104263D01*
X0056134Y0103033D01*
X0057076Y0102091D01*
X0058164Y0101640D01*
X0056635Y0100111D01*
X0056239Y0099156D01*
X0056239Y0098121D01*
X0056635Y0097166D01*
X0060428Y0093372D01*
X0061092Y0093097D01*
X0061367Y0092433D01*
X0065161Y0088640D01*
X0066117Y0088244D01*
X0067151Y0088244D01*
X0068107Y0088640D01*
X0069600Y0090133D01*
X0085906Y0090133D01*
X0086036Y0090003D01*
X0087653Y0089333D01*
X0089404Y0089333D01*
X0091015Y0090001D01*
X0090728Y0089308D01*
X0090728Y0087558D01*
X0091398Y0085941D01*
X0091728Y0085611D01*
X0091728Y0082281D01*
X0091604Y0082333D01*
X0089853Y0082333D01*
X0088236Y0081663D01*
X0087906Y0081333D01*
X0062052Y0081333D01*
X0060802Y0080815D01*
X0059846Y0079859D01*
X0049846Y0069859D01*
X0049328Y0068609D01*
X0049328Y0052044D01*
X0047078Y0053932D01*
X0042934Y0055440D01*
X0038523Y0055440D01*
X0034378Y0053932D01*
X0031828Y0051792D01*
X0031828Y0226842D01*
X0034205Y0224848D01*
X0034205Y0224848D01*
X0038350Y0223339D01*
X0042760Y0223339D01*
X0043444Y0223588D01*
X0035349Y0215494D01*
X0034168Y0214312D01*
X0033528Y0212769D01*
X0033528Y0202098D01*
X0034168Y0200554D01*
X0035349Y0199372D01*
X0036893Y0198733D01*
X0038564Y0198733D01*
X0040107Y0199372D01*
X0041289Y0200554D01*
X0041928Y0202098D01*
X0041928Y0210193D01*
X0058289Y0226554D01*
X0058928Y0228098D01*
X0058928Y0243769D01*
X0058689Y0244347D01*
X0060654Y0243533D01*
X0062802Y0243533D01*
X0064787Y0244355D01*
X0066306Y0245874D01*
X0067128Y0247859D01*
X0067128Y0250007D01*
X0066306Y0251992D01*
X0064787Y0253511D01*
X0062802Y0254333D01*
X0060654Y0254333D01*
X0058669Y0253511D01*
X0057150Y0251992D01*
X0056328Y0250007D01*
X0056328Y0247859D01*
X0056743Y0246858D01*
X0050928Y0252673D01*
X0050928Y0274193D01*
X0051548Y0274813D01*
X0051573Y0274838D01*
X0051604Y0274851D01*
X0052162Y0275427D01*
X0073468Y0296733D01*
X0117725Y0296733D01*
X0119243Y0284038D01*
X0117726Y0282522D01*
X0116569Y0279728D01*
X0116569Y0276705D01*
X0117726Y0273911D01*
X0119864Y0271774D01*
X0122658Y0270617D01*
X0125681Y0270617D01*
X0128474Y0271774D01*
X0130612Y0273911D01*
X0130677Y0274068D01*
X0144186Y0274174D01*
X0145005Y0274174D01*
X0145021Y0274181D01*
X0145038Y0274181D01*
X0145154Y0274230D01*
X0145285Y0273911D01*
X0147423Y0271774D01*
X0150217Y0270617D01*
X0153240Y0270617D01*
X0156033Y0271774D01*
X0158171Y0273911D01*
X0159328Y0276705D01*
X0159328Y0279728D01*
X0158171Y0282522D01*
X0156214Y0284479D01*
X0168468Y0296733D01*
X0210696Y0296733D01*
X0207125Y0285596D01*
X0204864Y0284659D01*
X0202726Y0282522D01*
X0202565Y0282132D01*
X0202564Y0282133D01*
X0199600Y0282133D01*
X0185811Y0282326D01*
X0185730Y0282522D01*
X0183592Y0284659D01*
X0180799Y0285817D01*
X0177776Y0285817D01*
X0174982Y0284659D01*
X0172844Y0282522D01*
X0171687Y0279728D01*
X0171687Y0276705D01*
X0171990Y0275974D01*
X0169902Y0275974D01*
X0167108Y0274817D01*
X0164970Y0272679D01*
X0163813Y0269886D01*
X0163813Y0266862D01*
X0164970Y0264069D01*
X0165947Y0263092D01*
X0162989Y0260133D01*
X0128468Y0260133D01*
X0106824Y0281777D01*
X0105280Y0282417D01*
X0100774Y0282417D01*
X0100730Y0282522D01*
X0098592Y0284659D01*
X0095799Y0285817D01*
X0092776Y0285817D01*
X0089982Y0284659D01*
X0087844Y0282522D01*
X0086687Y0279728D01*
X0086687Y0276705D01*
X0086990Y0275974D01*
X0084902Y0275974D01*
X0082108Y0274817D01*
X0079970Y0272679D01*
X0078813Y0269886D01*
X0078813Y0266862D01*
X0079825Y0264421D01*
X0072829Y0250016D01*
X0072730Y0248348D01*
X0073277Y0246769D01*
X0074386Y0245520D01*
X0075889Y0244790D01*
X0077557Y0244691D01*
X0079136Y0245238D01*
X0080386Y0246347D01*
X0087392Y0260774D01*
X0087925Y0260774D01*
X0090718Y0261931D01*
X0092856Y0264069D01*
X0094013Y0266862D01*
X0094013Y0269886D01*
X0093711Y0270617D01*
X0095799Y0270617D01*
X0098592Y0271774D01*
X0100730Y0273911D01*
X0100774Y0274017D01*
X0102705Y0274017D01*
X0123168Y0253554D01*
X0124349Y0252372D01*
X0125893Y0251733D01*
X0152043Y0251733D01*
X0151328Y0250007D01*
X0151328Y0247859D01*
X0152150Y0245874D01*
X0153669Y0244355D01*
X0155654Y0243533D01*
X0157802Y0243533D01*
X0159787Y0244355D01*
X0161306Y0245874D01*
X0162128Y0247859D01*
X0162128Y0250007D01*
X0161413Y0251733D01*
X0165564Y0251733D01*
X0167107Y0252372D01*
X0167656Y0252921D01*
X0167798Y0247977D01*
X0168482Y0246453D01*
X0169697Y0245306D01*
X0171258Y0244711D01*
X0172928Y0244759D01*
X0174453Y0245442D01*
X0175600Y0246657D01*
X0176195Y0248219D01*
X0175825Y0261090D01*
X0188468Y0273733D01*
X0199541Y0273733D01*
X0199995Y0273727D01*
X0221349Y0252372D01*
X0222893Y0251733D01*
X0247043Y0251733D01*
X0246328Y0250007D01*
X0246328Y0247859D01*
X0247150Y0245874D01*
X0248669Y0244355D01*
X0250654Y0243533D01*
X0252802Y0243533D01*
X0254787Y0244355D01*
X0256306Y0245874D01*
X0257128Y0247859D01*
X0257128Y0250007D01*
X0256413Y0251733D01*
X0260672Y0251733D01*
X0263680Y0246194D01*
X0264979Y0245143D01*
X0266581Y0244669D01*
X0268243Y0244844D01*
X0269711Y0245641D01*
X0270762Y0246940D01*
X0271237Y0248542D01*
X0271062Y0250204D01*
X0267499Y0256764D01*
X0284468Y0273733D01*
X0287905Y0273733D01*
X0289864Y0271774D01*
X0292658Y0270617D01*
X0295681Y0270617D01*
X0295981Y0270741D01*
X0314349Y0252372D01*
X0315893Y0251733D01*
X0342043Y0251733D01*
X0341328Y0250007D01*
X0341328Y0247859D01*
X0342150Y0245874D01*
X0343669Y0244355D01*
X0345654Y0243533D01*
X0347802Y0243533D01*
X0349787Y0244355D01*
X0351306Y0245874D01*
X0352128Y0247859D01*
X0352128Y0250007D01*
X0351413Y0251733D01*
X0352899Y0251733D01*
X0359694Y0245307D01*
X0361255Y0244711D01*
X0362925Y0244758D01*
X0364450Y0245440D01*
X0365598Y0246654D01*
X0366194Y0248215D01*
X0366147Y0249886D01*
X0365465Y0251411D01*
X0361189Y0255454D01*
X0376734Y0270999D01*
X0377658Y0270617D01*
X0379746Y0270617D01*
X0379443Y0269886D01*
X0379443Y0266862D01*
X0380600Y0264069D01*
X0382593Y0262076D01*
X0382550Y0262076D01*
X0381594Y0261681D01*
X0380863Y0260949D01*
X0380467Y0259994D01*
X0380467Y0251873D01*
X0380863Y0250917D01*
X0381594Y0250186D01*
X0382550Y0249790D01*
X0389883Y0249790D01*
X0390839Y0250186D01*
X0391570Y0250917D01*
X0391966Y0251873D01*
X0391966Y0259994D01*
X0391570Y0260949D01*
X0390839Y0261681D01*
X0390791Y0261700D01*
X0391348Y0261931D01*
X0393486Y0264069D01*
X0394643Y0266862D01*
X0394643Y0269886D01*
X0393486Y0272679D01*
X0391588Y0274577D01*
X0391963Y0274953D01*
X0392547Y0275529D01*
X0392553Y0275543D01*
X0392565Y0275554D01*
X0392879Y0276312D01*
X0393198Y0277068D01*
X0393198Y0277083D01*
X0393204Y0277098D01*
X0393204Y0277918D01*
X0393210Y0278739D01*
X0393204Y0278753D01*
X0393204Y0278769D01*
X0392890Y0279527D01*
X0392581Y0280287D01*
X0392570Y0280298D01*
X0392565Y0280312D01*
X0391984Y0280892D01*
X0391408Y0281477D01*
X0391394Y0281483D01*
X0391383Y0281494D01*
X0390625Y0281808D01*
X0389869Y0282127D01*
X0389854Y0282127D01*
X0389839Y0282133D01*
X0389019Y0282133D01*
X0385764Y0282156D01*
X0385612Y0282522D01*
X0383474Y0284659D01*
X0380681Y0285817D01*
X0377658Y0285817D01*
X0374864Y0284659D01*
X0372726Y0282522D01*
X0372614Y0282250D01*
X0355793Y0282370D01*
X0355730Y0282522D01*
X0353592Y0284659D01*
X0350799Y0285817D01*
X0347776Y0285817D01*
X0344982Y0284659D01*
X0342844Y0282522D01*
X0341687Y0279728D01*
X0341687Y0276705D01*
X0341990Y0275974D01*
X0339902Y0275974D01*
X0337108Y0274817D01*
X0334970Y0272679D01*
X0333813Y0269886D01*
X0333813Y0266862D01*
X0334970Y0264069D01*
X0337108Y0261931D01*
X0339902Y0260774D01*
X0342925Y0260774D01*
X0343212Y0260893D01*
X0344015Y0260133D01*
X0318468Y0260133D01*
X0301769Y0276832D01*
X0301769Y0279728D01*
X0301356Y0280726D01*
X0314623Y0298164D01*
X0315013Y0298554D01*
X0315125Y0298823D01*
X0315301Y0299055D01*
X0315442Y0299588D01*
X0315653Y0300098D01*
X0315653Y0300389D01*
X0315727Y0300671D01*
X0315653Y0301217D01*
X0315653Y0301769D01*
X0315541Y0302038D01*
X0315502Y0302326D01*
X0315224Y0302803D01*
X0315013Y0303312D01*
X0314807Y0303518D01*
X0314661Y0303770D01*
X0314222Y0304104D01*
X0313832Y0304494D01*
X0313563Y0304605D01*
X0313331Y0304781D01*
X0312798Y0304922D01*
X0312288Y0305133D01*
X0311997Y0305133D01*
X0311715Y0305207D01*
X0311169Y0305133D01*
X0260893Y0305133D01*
X0259349Y0304494D01*
X0258168Y0303312D01*
X0239960Y0285104D01*
X0238240Y0285817D01*
X0235217Y0285817D01*
X0232423Y0284659D01*
X0230291Y0282527D01*
X0215642Y0282451D01*
X0215612Y0282522D01*
X0215118Y0283015D01*
X0220399Y0299486D01*
X0220653Y0300098D01*
X0220653Y0300276D01*
X0220707Y0300446D01*
X0220653Y0301106D01*
X0220653Y0301769D01*
X0220584Y0301933D01*
X0220570Y0302111D01*
X0220267Y0302700D01*
X0220013Y0303312D01*
X0219887Y0303438D01*
X0219805Y0303597D01*
X0219300Y0304025D01*
X0218832Y0304494D01*
X0218667Y0304562D01*
X0218531Y0304677D01*
X0217900Y0304880D01*
X0217288Y0305133D01*
X0217110Y0305133D01*
X0216940Y0305188D01*
X0216280Y0305133D01*
X0165893Y0305133D01*
X0164349Y0304494D01*
X0163168Y0303312D01*
X0142416Y0282560D01*
X0130635Y0282468D01*
X0130612Y0282522D01*
X0128474Y0284659D01*
X0127585Y0285028D01*
X0125653Y0301183D01*
X0125653Y0301769D01*
X0125554Y0302006D01*
X0125524Y0302261D01*
X0125237Y0302772D01*
X0125013Y0303312D01*
X0124832Y0303494D01*
X0124706Y0303718D01*
X0124246Y0304080D01*
X0123832Y0304494D01*
X0123594Y0304592D01*
X0123392Y0304751D01*
X0122829Y0304909D01*
X0122288Y0305133D01*
X0122031Y0305133D01*
X0121784Y0305203D01*
X0121202Y0305133D01*
X0070893Y0305133D01*
X0069349Y0304494D01*
X0068168Y0303312D01*
X0047402Y0282547D01*
X0045614Y0282519D01*
X0045612Y0282522D01*
X0043474Y0284659D01*
X0040681Y0285817D01*
X0037658Y0285817D01*
X0034864Y0284659D01*
X0032726Y0282522D01*
X0031828Y0280354D01*
X0031828Y0325333D01*
X0410328Y0325333D01*
X0410328Y0322092D01*
X0410128Y0321892D01*
X0408971Y0319098D01*
X0408971Y0316075D01*
X0410128Y0313282D01*
X0410328Y0313081D01*
X0410328Y0284952D01*
X0408240Y0285817D01*
X0405217Y0285817D01*
X0402423Y0284659D01*
X0400285Y0282522D01*
X0399128Y0279728D01*
X0399128Y0276705D01*
X0400285Y0273911D01*
X0402423Y0271774D01*
X0405217Y0270617D01*
X0408240Y0270617D01*
X0410328Y0271482D01*
X0410328Y0020933D01*
X0291820Y0020933D01*
X0301768Y0030881D01*
X0302780Y0031894D01*
X0303328Y0033217D01*
X0303328Y0051311D01*
X0303458Y0051441D01*
X0304128Y0053058D01*
X0304128Y0054808D01*
X0303458Y0056425D01*
X0302221Y0057663D01*
X0300604Y0058333D01*
X0298853Y0058333D01*
X0297236Y0057663D01*
X0295998Y0056425D01*
X0295328Y0054808D01*
X0295328Y0053058D01*
X0295998Y0051441D01*
X0296128Y0051311D01*
X0296128Y0035424D01*
X0286237Y0025533D01*
X0149220Y0025533D01*
X0143328Y0031424D01*
X0143328Y0032624D01*
X0144728Y0034024D01*
X0147119Y0031633D01*
X0152338Y0031633D01*
X0156028Y0035324D01*
X0156028Y0040543D01*
X0153638Y0042933D01*
X0154728Y0044024D01*
X0157119Y0041633D01*
X0162338Y0041633D01*
X0164728Y0044024D01*
X0165819Y0042933D01*
X0163428Y0040543D01*
X0163428Y0035324D01*
X0167119Y0031633D01*
X0172338Y0031633D01*
X0174728Y0034024D01*
X0177119Y0031633D01*
X0182338Y0031633D01*
X0186028Y0035324D01*
X0186028Y0040543D01*
X0183638Y0042933D01*
X0184728Y0044024D01*
X0187119Y0041633D01*
X0192338Y0041633D01*
X0194728Y0044024D01*
X0195819Y0042933D01*
X0193428Y0040543D01*
X0193428Y0035324D01*
X0197119Y0031633D01*
X0202338Y0031633D01*
X0204728Y0034024D01*
X0207119Y0031633D01*
X0212338Y0031633D01*
X0214728Y0034024D01*
X0217119Y0031633D01*
X0222338Y0031633D01*
X0226028Y0035324D01*
X0226028Y0040543D01*
X0223638Y0042933D01*
X0224728Y0044024D01*
X0227119Y0041633D01*
X0232338Y0041633D01*
X0234728Y0044024D01*
X0235819Y0042933D01*
X0233428Y0040543D01*
X0233428Y0035324D01*
X0237119Y0031633D01*
X0242338Y0031633D01*
X0244728Y0034024D01*
X0247119Y0031633D01*
X0252338Y0031633D01*
X0256028Y0035324D01*
X0256028Y0040543D01*
X0253638Y0042933D01*
X0256028Y0045324D01*
X0256028Y0050543D01*
X0252911Y0053660D01*
X0254221Y0054203D01*
X0255458Y0055441D01*
X0256128Y0057058D01*
X0256128Y0058808D01*
X0255458Y0060425D01*
X0255328Y0060556D01*
X0255328Y0083376D01*
X0255901Y0083948D01*
X0256297Y0084904D01*
X0256297Y0090269D01*
X0256022Y0090933D01*
X0256297Y0091597D01*
X0256297Y0096962D01*
X0255901Y0097918D01*
X0255170Y0098649D01*
X0255128Y0098666D01*
X0255128Y0101581D01*
X0255150Y0101581D01*
X0256381Y0102091D01*
X0257323Y0103033D01*
X0257832Y0104263D01*
X0257832Y0110083D01*
X0257323Y0111314D01*
X0256381Y0112256D01*
X0255150Y0112765D01*
X0248306Y0112765D01*
X0247076Y0112256D01*
X0246134Y0111314D01*
X0245624Y0110083D01*
X0245624Y0104263D01*
X0246134Y0103033D01*
X0247076Y0102091D01*
X0248306Y0101581D01*
X0248328Y0101581D01*
X0248328Y0098666D01*
X0248287Y0098649D01*
X0247556Y0097918D01*
X0247160Y0096962D01*
X0247160Y0091597D01*
X0247435Y0090933D01*
X0247160Y0090269D01*
X0247160Y0084904D01*
X0247556Y0083948D01*
X0248128Y0083376D01*
X0248128Y0060556D01*
X0247998Y0060425D01*
X0247328Y0058808D01*
X0247328Y0057058D01*
X0247998Y0055441D01*
X0249206Y0054233D01*
X0247119Y0054233D01*
X0244728Y0051843D01*
X0242909Y0053662D01*
X0242780Y0053972D01*
X0228780Y0067972D01*
X0227768Y0068985D01*
X0226444Y0069533D01*
X0222220Y0069533D01*
X0190780Y0100972D01*
X0189768Y0101985D01*
X0188444Y0102533D01*
X0176351Y0102533D01*
X0176221Y0102663D01*
X0174604Y0103333D01*
X0172853Y0103333D01*
X0171236Y0102663D01*
X0169998Y0101425D01*
X0169328Y0099808D01*
X0169328Y0098058D01*
X0169998Y0096441D01*
X0171236Y0095203D01*
X0172853Y0094533D01*
X0174604Y0094533D01*
X0176221Y0095203D01*
X0176351Y0095333D01*
X0176960Y0095333D01*
X0176328Y0093808D01*
X0176328Y0092058D01*
X0176689Y0091187D01*
X0161127Y0091187D01*
X0161297Y0091597D01*
X0161297Y0096962D01*
X0160901Y0097918D01*
X0160170Y0098649D01*
X0160128Y0098666D01*
X0160128Y0101581D01*
X0160150Y0101581D01*
X0161381Y0102091D01*
X0162323Y0103033D01*
X0162832Y0104263D01*
X0162832Y0110083D01*
X0162323Y0111314D01*
X0161381Y0112256D01*
X0160150Y0112765D01*
X0153306Y0112765D01*
X0152076Y0112256D01*
X0151134Y0111314D01*
X0150624Y0110083D01*
X0150624Y0104263D01*
X0151134Y0103033D01*
X0152076Y0102091D01*
X0153306Y0101581D01*
X0153328Y0101581D01*
X0153328Y0098666D01*
X0153287Y0098649D01*
X0152556Y0097918D01*
X0152160Y0096962D01*
X0152160Y0091597D01*
X0152435Y0090933D01*
X0152160Y0090269D01*
X0152160Y0084904D01*
X0152556Y0083948D01*
X0153287Y0083217D01*
X0154243Y0082821D01*
X0159214Y0082821D01*
X0160170Y0083217D01*
X0160901Y0083948D01*
X0160917Y0083987D01*
X0175402Y0083987D01*
X0175328Y0083808D01*
X0175328Y0082058D01*
X0175998Y0080441D01*
X0176128Y0080311D01*
X0176128Y0079217D01*
X0176676Y0077894D01*
X0196128Y0058442D01*
X0193858Y0060712D02*
X0113757Y0060712D01*
X0113028Y0063911D02*
X0190659Y0063911D01*
X0187461Y0067109D02*
X0112646Y0067109D01*
X0110215Y0070308D02*
X0184262Y0070308D01*
X0181064Y0073506D02*
X0102963Y0073506D01*
X0099765Y0076705D02*
X0177865Y0076705D01*
X0176128Y0079903D02*
X0098528Y0079903D01*
X0098528Y0083102D02*
X0153565Y0083102D01*
X0152160Y0086300D02*
X0099007Y0086300D01*
X0099449Y0089499D02*
X0152160Y0089499D01*
X0152160Y0092697D02*
X0096331Y0092697D01*
X0093925Y0092697D02*
X0092862Y0092697D01*
X0092395Y0095896D02*
X0152160Y0095896D01*
X0153328Y0099094D02*
X0067344Y0099094D01*
X0066583Y0102293D02*
X0151874Y0102293D01*
X0150624Y0105491D02*
X0067832Y0105491D01*
X0067832Y0108690D02*
X0150624Y0108690D01*
X0151709Y0111888D02*
X0066748Y0111888D01*
X0056709Y0111888D02*
X0031828Y0111888D01*
X0031828Y0108690D02*
X0055624Y0108690D01*
X0055624Y0105491D02*
X0031828Y0105491D01*
X0031828Y0102293D02*
X0056874Y0102293D01*
X0056239Y0099094D02*
X0031828Y0099094D01*
X0031828Y0095896D02*
X0057905Y0095896D01*
X0061258Y0092697D02*
X0031828Y0092697D01*
X0031828Y0089499D02*
X0064302Y0089499D01*
X0068966Y0089499D02*
X0087253Y0089499D01*
X0089804Y0089499D02*
X0090807Y0089499D01*
X0091249Y0086300D02*
X0031828Y0086300D01*
X0031828Y0083102D02*
X0091728Y0083102D01*
X0088617Y0073506D02*
X0063110Y0073506D01*
X0059911Y0070308D02*
X0088639Y0070308D01*
X0090744Y0067109D02*
X0056713Y0067109D01*
X0056128Y0063911D02*
X0093942Y0063911D01*
X0097141Y0060712D02*
X0056128Y0060712D01*
X0056128Y0057514D02*
X0100339Y0057514D01*
X0120155Y0054315D02*
X0196128Y0054315D01*
X0203328Y0054315D02*
X0213255Y0054315D01*
X0213452Y0054118D02*
X0184128Y0083442D01*
X0184128Y0082058D01*
X0183708Y0081044D01*
X0202780Y0061972D01*
X0203328Y0060649D01*
X0203328Y0053243D01*
X0206028Y0050543D01*
X0206028Y0045324D01*
X0203638Y0042933D01*
X0204728Y0041843D01*
X0207119Y0044233D01*
X0212338Y0044233D01*
X0214728Y0041843D01*
X0215819Y0042933D01*
X0213428Y0045324D01*
X0213428Y0050543D01*
X0216456Y0053570D01*
X0214775Y0053570D01*
X0213452Y0054118D01*
X0214002Y0051117D02*
X0205454Y0051117D01*
X0206028Y0047918D02*
X0213428Y0047918D01*
X0214032Y0044720D02*
X0205424Y0044720D01*
X0194407Y0041521D02*
X0185050Y0041521D01*
X0186028Y0038323D02*
X0193428Y0038323D01*
X0193628Y0035124D02*
X0185829Y0035124D01*
X0182630Y0031926D02*
X0196826Y0031926D01*
X0202630Y0031926D02*
X0206826Y0031926D01*
X0212630Y0031926D02*
X0216826Y0031926D01*
X0222630Y0031926D02*
X0236826Y0031926D01*
X0233628Y0035124D02*
X0225829Y0035124D01*
X0226028Y0038323D02*
X0233428Y0038323D01*
X0234407Y0041521D02*
X0225050Y0041521D01*
X0242630Y0031926D02*
X0246826Y0031926D01*
X0252630Y0031926D02*
X0262403Y0031926D01*
X0262378Y0031935D02*
X0266523Y0030426D01*
X0270934Y0030426D01*
X0275078Y0031935D01*
X0278457Y0034770D01*
X0280662Y0038589D01*
X0281428Y0042933D01*
X0280662Y0047277D01*
X0278457Y0051096D01*
X0278457Y0051096D01*
X0275078Y0053932D01*
X0270934Y0055440D01*
X0266523Y0055440D01*
X0262378Y0053932D01*
X0259000Y0051096D01*
X0256794Y0047277D01*
X0256028Y0042933D01*
X0256794Y0038589D01*
X0259000Y0034770D01*
X0262378Y0031935D01*
X0262378Y0031935D01*
X0259000Y0034770D02*
X0259000Y0034770D01*
X0259000Y0034770D01*
X0258795Y0035124D02*
X0255829Y0035124D01*
X0256028Y0038323D02*
X0256948Y0038323D01*
X0256794Y0038589D02*
X0256794Y0038589D01*
X0256277Y0041521D02*
X0255050Y0041521D01*
X0256028Y0042933D02*
X0256028Y0042933D01*
X0256343Y0044720D02*
X0255424Y0044720D01*
X0256794Y0047277D02*
X0256794Y0047277D01*
X0257165Y0047918D02*
X0256028Y0047918D01*
X0255454Y0051117D02*
X0259024Y0051117D01*
X0259000Y0051096D02*
X0259000Y0051096D01*
X0262378Y0053932D02*
X0262378Y0053932D01*
X0263432Y0054315D02*
X0254333Y0054315D01*
X0256128Y0057514D02*
X0297086Y0057514D01*
X0295328Y0054315D02*
X0274024Y0054315D01*
X0278433Y0051117D02*
X0296128Y0051117D01*
X0296128Y0047918D02*
X0280292Y0047918D01*
X0280662Y0047277D02*
X0280662Y0047277D01*
X0281113Y0044720D02*
X0296128Y0044720D01*
X0296128Y0041521D02*
X0281179Y0041521D01*
X0280662Y0038589D02*
X0280662Y0038589D01*
X0280508Y0038323D02*
X0296128Y0038323D01*
X0295828Y0035124D02*
X0278662Y0035124D01*
X0278457Y0034770D02*
X0278457Y0034770D01*
X0275078Y0031935D02*
X0275078Y0031935D01*
X0275054Y0031926D02*
X0292630Y0031926D01*
X0289431Y0028727D02*
X0146025Y0028727D01*
X0146826Y0031926D02*
X0143328Y0031926D01*
X0136128Y0031926D02*
X0132630Y0031926D01*
X0132338Y0031633D02*
X0134728Y0034024D01*
X0136128Y0032624D01*
X0136128Y0029217D01*
X0136676Y0027894D01*
X0143637Y0020933D01*
X0113537Y0020933D01*
X0122611Y0030007D01*
X0123128Y0031257D01*
X0123128Y0032424D01*
X0124728Y0034024D01*
X0127119Y0031633D01*
X0132338Y0031633D01*
X0136331Y0028727D02*
X0121331Y0028727D01*
X0123128Y0031926D02*
X0126826Y0031926D01*
X0114913Y0031926D02*
X0102630Y0031926D01*
X0105829Y0035124D02*
X0113628Y0035124D01*
X0113428Y0038323D02*
X0106028Y0038323D01*
X0105050Y0041521D02*
X0114407Y0041521D01*
X0125424Y0044720D02*
X0134032Y0044720D01*
X0133428Y0047918D02*
X0126028Y0047918D01*
X0125454Y0051117D02*
X0134002Y0051117D01*
X0155050Y0041521D02*
X0164407Y0041521D01*
X0163428Y0038323D02*
X0156028Y0038323D01*
X0155829Y0035124D02*
X0163628Y0035124D01*
X0166826Y0031926D02*
X0152630Y0031926D01*
X0139042Y0025529D02*
X0118132Y0025529D01*
X0114934Y0022330D02*
X0142240Y0022330D01*
X0172630Y0031926D02*
X0176826Y0031926D01*
X0203328Y0057514D02*
X0210057Y0057514D01*
X0206858Y0060712D02*
X0203302Y0060712D01*
X0203659Y0063911D02*
X0200842Y0063911D01*
X0200461Y0067109D02*
X0197643Y0067109D01*
X0197262Y0070308D02*
X0194445Y0070308D01*
X0194064Y0073506D02*
X0191246Y0073506D01*
X0190865Y0076705D02*
X0188048Y0076705D01*
X0187667Y0079903D02*
X0184849Y0079903D01*
X0184468Y0083102D02*
X0184128Y0083102D01*
X0175328Y0083102D02*
X0159891Y0083102D01*
X0161297Y0092697D02*
X0176328Y0092697D01*
X0170543Y0095896D02*
X0161297Y0095896D01*
X0160128Y0099094D02*
X0169328Y0099094D01*
X0170866Y0102293D02*
X0161583Y0102293D01*
X0162832Y0105491D02*
X0206079Y0105491D01*
X0209277Y0102293D02*
X0189024Y0102293D01*
X0192658Y0099094D02*
X0210128Y0099094D01*
X0210128Y0101442D02*
X0210128Y0087556D01*
X0209998Y0087425D01*
X0209328Y0085808D01*
X0209328Y0084058D01*
X0209998Y0082441D01*
X0211236Y0081203D01*
X0212853Y0080533D01*
X0214604Y0080533D01*
X0216221Y0081203D01*
X0217458Y0082441D01*
X0218128Y0084058D01*
X0218128Y0085808D01*
X0217458Y0087425D01*
X0217328Y0087556D01*
X0217328Y0103649D01*
X0216780Y0104972D01*
X0215768Y0105985D01*
X0205768Y0115985D01*
X0204444Y0116533D01*
X0203012Y0116533D01*
X0194351Y0116533D01*
X0194221Y0116663D01*
X0192604Y0117333D01*
X0190853Y0117333D01*
X0189236Y0116663D01*
X0187998Y0115425D01*
X0187328Y0113808D01*
X0187328Y0112058D01*
X0187998Y0110441D01*
X0189236Y0109203D01*
X0190853Y0108533D01*
X0192604Y0108533D01*
X0194221Y0109203D01*
X0194351Y0109333D01*
X0202237Y0109333D01*
X0210128Y0101442D01*
X0210128Y0095896D02*
X0195857Y0095896D01*
X0199055Y0092697D02*
X0210128Y0092697D01*
X0210128Y0089499D02*
X0202254Y0089499D01*
X0205452Y0086300D02*
X0209532Y0086300D01*
X0209724Y0083102D02*
X0208651Y0083102D01*
X0211849Y0079903D02*
X0248128Y0079903D01*
X0248128Y0076705D02*
X0215048Y0076705D01*
X0218246Y0073506D02*
X0248128Y0073506D01*
X0248128Y0070308D02*
X0221445Y0070308D01*
X0229643Y0067109D02*
X0248128Y0067109D01*
X0248128Y0063911D02*
X0232842Y0063911D01*
X0236040Y0060712D02*
X0248128Y0060712D01*
X0247328Y0057514D02*
X0239239Y0057514D01*
X0242437Y0054315D02*
X0249124Y0054315D01*
X0255328Y0060712D02*
X0304772Y0060712D01*
X0304854Y0060631D02*
X0306719Y0059858D01*
X0308738Y0059858D01*
X0310603Y0060631D01*
X0310705Y0060733D01*
X0323989Y0060733D01*
X0336653Y0048068D01*
X0331317Y0048068D01*
X0330362Y0047673D01*
X0329630Y0046941D01*
X0329235Y0045986D01*
X0329235Y0039951D01*
X0329630Y0038996D01*
X0330362Y0038264D01*
X0331317Y0037869D01*
X0338139Y0037869D01*
X0339095Y0038264D01*
X0339826Y0038996D01*
X0340222Y0039951D01*
X0340222Y0045011D01*
X0340893Y0044733D01*
X0342564Y0044733D01*
X0344107Y0045372D01*
X0345289Y0046554D01*
X0345928Y0048098D01*
X0345928Y0049769D01*
X0345289Y0051312D01*
X0340075Y0056526D01*
X0340222Y0056880D01*
X0340222Y0062915D01*
X0339826Y0063870D01*
X0339095Y0064602D01*
X0338139Y0064998D01*
X0331603Y0064998D01*
X0328107Y0068494D01*
X0326564Y0069133D01*
X0310705Y0069133D01*
X0310603Y0069235D01*
X0308738Y0070008D01*
X0306719Y0070008D01*
X0304854Y0069235D01*
X0303426Y0067808D01*
X0302653Y0065943D01*
X0302653Y0063924D01*
X0303426Y0062058D01*
X0304854Y0060631D01*
X0302659Y0063911D02*
X0255328Y0063911D01*
X0255328Y0067109D02*
X0303137Y0067109D01*
X0307728Y0064933D02*
X0325728Y0064933D01*
X0341728Y0048933D01*
X0345370Y0051117D02*
X0410328Y0051117D01*
X0410328Y0054315D02*
X0342286Y0054315D01*
X0340222Y0057514D02*
X0389796Y0057514D01*
X0389362Y0057693D02*
X0390317Y0057298D01*
X0397139Y0057298D01*
X0398095Y0057693D01*
X0398826Y0058425D01*
X0399222Y0059380D01*
X0399222Y0065415D01*
X0398826Y0066370D01*
X0398095Y0067102D01*
X0397139Y0067498D01*
X0390317Y0067498D01*
X0389362Y0067102D01*
X0388630Y0066370D01*
X0388235Y0065415D01*
X0388235Y0059380D01*
X0388630Y0058425D01*
X0389362Y0057693D01*
X0388235Y0060712D02*
X0340222Y0060712D01*
X0339786Y0063911D02*
X0352658Y0063911D01*
X0352467Y0064373D02*
X0352863Y0063417D01*
X0353594Y0062686D01*
X0354550Y0062290D01*
X0361883Y0062290D01*
X0362839Y0062686D01*
X0363570Y0063417D01*
X0363728Y0063799D01*
X0363886Y0063417D01*
X0364618Y0062686D01*
X0365573Y0062290D01*
X0372907Y0062290D01*
X0373863Y0062686D01*
X0374594Y0063417D01*
X0374990Y0064373D01*
X0374990Y0072494D01*
X0374594Y0073449D01*
X0373863Y0074181D01*
X0372907Y0074576D01*
X0365573Y0074576D01*
X0364618Y0074181D01*
X0363886Y0073449D01*
X0363728Y0073068D01*
X0363570Y0073449D01*
X0362839Y0074181D01*
X0361883Y0074576D01*
X0354550Y0074576D01*
X0353594Y0074181D01*
X0352863Y0073449D01*
X0352467Y0072494D01*
X0352467Y0064373D01*
X0352467Y0067109D02*
X0329492Y0067109D01*
X0324009Y0060712D02*
X0310685Y0060712D01*
X0302370Y0057514D02*
X0327208Y0057514D01*
X0330407Y0054315D02*
X0304128Y0054315D01*
X0303328Y0051117D02*
X0333605Y0051117D01*
X0330955Y0047918D02*
X0303328Y0047918D01*
X0303328Y0044720D02*
X0329235Y0044720D01*
X0329235Y0041521D02*
X0303328Y0041521D01*
X0303328Y0038323D02*
X0330304Y0038323D01*
X0331052Y0036642D02*
X0328991Y0034582D01*
X0327876Y0031890D01*
X0327876Y0028976D01*
X0328991Y0026284D01*
X0331052Y0024224D01*
X0333744Y0023109D01*
X0336658Y0023109D01*
X0339350Y0024224D01*
X0341410Y0026284D01*
X0342525Y0028976D01*
X0342525Y0031890D01*
X0341410Y0034582D01*
X0339350Y0036642D01*
X0336658Y0037757D01*
X0333744Y0037757D01*
X0331052Y0036642D01*
X0329534Y0035124D02*
X0303328Y0035124D01*
X0302793Y0031926D02*
X0327891Y0031926D01*
X0327980Y0028727D02*
X0299614Y0028727D01*
X0296415Y0025529D02*
X0329747Y0025529D01*
X0340655Y0025529D02*
X0388802Y0025529D01*
X0388047Y0026284D02*
X0390107Y0024224D01*
X0392799Y0023109D01*
X0395713Y0023109D01*
X0398405Y0024224D01*
X0400465Y0026284D01*
X0401580Y0028976D01*
X0401580Y0031890D01*
X0400465Y0034582D01*
X0398405Y0036642D01*
X0395713Y0037757D01*
X0392799Y0037757D01*
X0390107Y0036642D01*
X0388047Y0034582D01*
X0386931Y0031890D01*
X0386931Y0028976D01*
X0388047Y0026284D01*
X0387035Y0028727D02*
X0342422Y0028727D01*
X0342510Y0031926D02*
X0386946Y0031926D01*
X0388589Y0035124D02*
X0340868Y0035124D01*
X0339153Y0038323D02*
X0410328Y0038323D01*
X0410328Y0041521D02*
X0398837Y0041521D01*
X0398826Y0041496D02*
X0399222Y0042451D01*
X0399222Y0048486D01*
X0398826Y0049441D01*
X0398095Y0050173D01*
X0397139Y0050568D01*
X0390317Y0050568D01*
X0389362Y0050173D01*
X0388630Y0049441D01*
X0388235Y0048486D01*
X0388235Y0042451D01*
X0388630Y0041496D01*
X0389362Y0040764D01*
X0390317Y0040369D01*
X0397139Y0040369D01*
X0398095Y0040764D01*
X0398826Y0041496D01*
X0399222Y0044720D02*
X0410328Y0044720D01*
X0410328Y0047918D02*
X0399222Y0047918D01*
X0397661Y0057514D02*
X0410328Y0057514D01*
X0410328Y0060712D02*
X0399222Y0060712D01*
X0399222Y0063911D02*
X0410328Y0063911D01*
X0410328Y0067109D02*
X0398077Y0067109D01*
X0389380Y0067109D02*
X0374990Y0067109D01*
X0374990Y0070308D02*
X0410328Y0070308D01*
X0410328Y0073506D02*
X0374537Y0073506D01*
X0363944Y0073506D02*
X0363513Y0073506D01*
X0352920Y0073506D02*
X0321712Y0073506D01*
X0321878Y0073909D02*
X0321878Y0075957D01*
X0321094Y0077850D01*
X0319646Y0079299D01*
X0317753Y0080083D01*
X0317518Y0080083D01*
X0258500Y0139101D01*
X0265150Y0139101D01*
X0266381Y0139610D01*
X0267323Y0140552D01*
X0267629Y0141293D01*
X0267928Y0141293D01*
X0268012Y0141090D01*
X0268744Y0140359D01*
X0269699Y0139963D01*
X0275064Y0139963D01*
X0275728Y0140238D01*
X0276392Y0139963D01*
X0281757Y0139963D01*
X0282713Y0140359D01*
X0283079Y0140725D01*
X0283445Y0140359D01*
X0284400Y0139963D01*
X0289765Y0139963D01*
X0290721Y0140359D01*
X0291452Y0141090D01*
X0291848Y0142046D01*
X0291848Y0147017D01*
X0291452Y0147973D01*
X0290721Y0148704D01*
X0289765Y0149100D01*
X0284400Y0149100D01*
X0283445Y0148704D01*
X0283079Y0148338D01*
X0282713Y0148704D01*
X0282569Y0148764D01*
X0282569Y0150266D01*
X0282751Y0150448D01*
X0283147Y0151404D01*
X0283147Y0155982D01*
X0282808Y0156802D01*
X0283623Y0156802D01*
X0284579Y0157197D01*
X0285310Y0157929D01*
X0285706Y0158884D01*
X0285706Y0163462D01*
X0285310Y0164418D01*
X0284579Y0165149D01*
X0283623Y0165545D01*
X0279833Y0165545D01*
X0278878Y0165149D01*
X0278146Y0164418D01*
X0278111Y0164333D01*
X0273793Y0164333D01*
X0273793Y0164344D01*
X0273397Y0165300D01*
X0272666Y0166031D01*
X0271710Y0166427D01*
X0265676Y0166427D01*
X0264720Y0166031D01*
X0263989Y0165300D01*
X0263593Y0164344D01*
X0263593Y0157522D01*
X0263989Y0156567D01*
X0264720Y0155835D01*
X0265676Y0155439D01*
X0271710Y0155439D01*
X0272666Y0155835D01*
X0273397Y0156567D01*
X0273793Y0157522D01*
X0273793Y0157533D01*
X0276183Y0157533D01*
X0275587Y0156937D01*
X0275191Y0155982D01*
X0275191Y0151404D01*
X0275587Y0150448D01*
X0275769Y0150266D01*
X0275769Y0148842D01*
X0275728Y0148825D01*
X0275064Y0149100D01*
X0269699Y0149100D01*
X0268744Y0148704D01*
X0268132Y0148093D01*
X0267629Y0148093D01*
X0267323Y0148834D01*
X0266381Y0149775D01*
X0265150Y0150285D01*
X0258306Y0150285D01*
X0257076Y0149775D01*
X0256728Y0149428D01*
X0256381Y0149775D01*
X0255150Y0150285D01*
X0255128Y0150285D01*
X0255128Y0155583D01*
X0255737Y0155835D01*
X0256468Y0156567D01*
X0256864Y0157522D01*
X0256864Y0164344D01*
X0256468Y0165300D01*
X0255737Y0166031D01*
X0255164Y0166268D01*
X0255164Y0174732D01*
X0256306Y0175874D01*
X0257128Y0177859D01*
X0257128Y0180007D01*
X0256306Y0181992D01*
X0254787Y0183511D01*
X0253597Y0184004D01*
X0249289Y0188312D01*
X0248107Y0189494D01*
X0246564Y0190133D01*
X0222893Y0190133D01*
X0221349Y0189494D01*
X0215989Y0184133D01*
X0199468Y0184133D01*
X0195289Y0188312D01*
X0194107Y0189494D01*
X0192564Y0190133D01*
X0162893Y0190133D01*
X0161349Y0189494D01*
X0160168Y0188312D01*
X0159528Y0186769D01*
X0159528Y0185098D01*
X0160168Y0183554D01*
X0161349Y0182372D01*
X0162893Y0181733D01*
X0182043Y0181733D01*
X0181328Y0180007D01*
X0181328Y0177859D01*
X0182150Y0175874D01*
X0183669Y0174355D01*
X0185654Y0173533D01*
X0187802Y0173533D01*
X0189787Y0174355D01*
X0191306Y0175874D01*
X0192128Y0177859D01*
X0192128Y0179593D01*
X0195349Y0176372D01*
X0196893Y0175733D01*
X0218564Y0175733D01*
X0220107Y0176372D01*
X0221289Y0177554D01*
X0225468Y0181733D01*
X0243989Y0181733D01*
X0246328Y0179393D01*
X0246328Y0177859D01*
X0247150Y0175874D01*
X0248364Y0174661D01*
X0248364Y0166268D01*
X0247791Y0166031D01*
X0247060Y0165300D01*
X0246664Y0164344D01*
X0246664Y0157522D01*
X0247060Y0156567D01*
X0247791Y0155835D01*
X0248328Y0155613D01*
X0248328Y0150285D01*
X0248306Y0150285D01*
X0247076Y0149775D01*
X0246134Y0148834D01*
X0245624Y0147603D01*
X0245624Y0141783D01*
X0246134Y0140552D01*
X0247076Y0139610D01*
X0247528Y0139423D01*
X0247528Y0139098D01*
X0248168Y0137554D01*
X0249349Y0136372D01*
X0311578Y0074143D01*
X0311578Y0073909D01*
X0312362Y0072016D01*
X0313811Y0070567D01*
X0315704Y0069783D01*
X0317753Y0069783D01*
X0319646Y0070567D01*
X0321094Y0072016D01*
X0321878Y0073909D01*
X0321569Y0076705D02*
X0410328Y0076705D01*
X0410328Y0079903D02*
X0318187Y0079903D01*
X0314499Y0083102D02*
X0341365Y0083102D01*
X0341506Y0083044D02*
X0342540Y0083044D01*
X0343496Y0083440D01*
X0347289Y0087233D01*
X0347564Y0087897D01*
X0348228Y0088172D01*
X0352022Y0091966D01*
X0352418Y0092921D01*
X0352418Y0093956D01*
X0352022Y0094911D01*
X0350495Y0096439D01*
X0350495Y0101724D01*
X0351381Y0102091D01*
X0352323Y0103033D01*
X0352832Y0104263D01*
X0352832Y0110083D01*
X0352323Y0111314D01*
X0351381Y0112256D01*
X0350150Y0112765D01*
X0343306Y0112765D01*
X0342076Y0112256D01*
X0341134Y0111314D01*
X0340624Y0110083D01*
X0340624Y0104263D01*
X0341134Y0103033D01*
X0342076Y0102091D01*
X0343295Y0101586D01*
X0343295Y0096160D01*
X0341767Y0094633D01*
X0341492Y0093969D01*
X0340828Y0093694D01*
X0339268Y0092133D01*
X0332751Y0092133D01*
X0332621Y0092263D01*
X0331004Y0092933D01*
X0329253Y0092933D01*
X0327636Y0092263D01*
X0326398Y0091025D01*
X0325728Y0089408D01*
X0325728Y0087658D01*
X0326398Y0086041D01*
X0327636Y0084803D01*
X0329253Y0084133D01*
X0331004Y0084133D01*
X0332621Y0084803D01*
X0332751Y0084933D01*
X0339057Y0084933D01*
X0340550Y0083440D01*
X0341506Y0083044D01*
X0342680Y0083102D02*
X0410328Y0083102D01*
X0410328Y0086300D02*
X0346356Y0086300D01*
X0349555Y0089499D02*
X0410328Y0089499D01*
X0410328Y0092697D02*
X0352325Y0092697D01*
X0351037Y0095896D02*
X0410328Y0095896D01*
X0410328Y0099094D02*
X0350495Y0099094D01*
X0351583Y0102293D02*
X0410328Y0102293D01*
X0410328Y0105491D02*
X0352832Y0105491D01*
X0352832Y0108690D02*
X0410328Y0108690D01*
X0410328Y0111888D02*
X0351748Y0111888D01*
X0341709Y0111888D02*
X0323840Y0111888D01*
X0323840Y0112419D02*
X0323444Y0113374D01*
X0322713Y0114106D01*
X0321757Y0114502D01*
X0316392Y0114502D01*
X0315437Y0114106D01*
X0314705Y0113374D01*
X0314309Y0112419D01*
X0314309Y0107447D01*
X0314705Y0106492D01*
X0315437Y0105760D01*
X0316392Y0105365D01*
X0321757Y0105365D01*
X0322713Y0105760D01*
X0323444Y0106492D01*
X0323840Y0107447D01*
X0323840Y0112419D01*
X0323840Y0108690D02*
X0340624Y0108690D01*
X0340624Y0105491D02*
X0322063Y0105491D01*
X0316086Y0105491D02*
X0292110Y0105491D01*
X0295308Y0102293D02*
X0341874Y0102293D01*
X0343295Y0099094D02*
X0298507Y0099094D01*
X0301705Y0095896D02*
X0343030Y0095896D01*
X0339832Y0092697D02*
X0331573Y0092697D01*
X0328684Y0092697D02*
X0304904Y0092697D01*
X0308102Y0089499D02*
X0325766Y0089499D01*
X0326291Y0086300D02*
X0311301Y0086300D01*
X0305818Y0079903D02*
X0255328Y0079903D01*
X0255328Y0076705D02*
X0309017Y0076705D01*
X0311745Y0073506D02*
X0255328Y0073506D01*
X0255328Y0070308D02*
X0314437Y0070308D01*
X0319019Y0070308D02*
X0352467Y0070308D01*
X0374798Y0063911D02*
X0388235Y0063911D01*
X0388235Y0047918D02*
X0345854Y0047918D01*
X0340222Y0044720D02*
X0388235Y0044720D01*
X0388620Y0041521D02*
X0340222Y0041521D01*
X0293217Y0022330D02*
X0410328Y0022330D01*
X0410328Y0025529D02*
X0399710Y0025529D01*
X0401477Y0028727D02*
X0410328Y0028727D01*
X0410328Y0031926D02*
X0401566Y0031926D01*
X0399923Y0035124D02*
X0410328Y0035124D01*
X0316728Y0074933D02*
X0251728Y0139933D01*
X0251728Y0144693D01*
X0245624Y0143874D02*
X0196848Y0143874D01*
X0196848Y0142046D02*
X0196848Y0147017D01*
X0196452Y0147973D01*
X0195721Y0148704D01*
X0194765Y0149100D01*
X0189400Y0149100D01*
X0188445Y0148704D01*
X0188079Y0148338D01*
X0187713Y0148704D01*
X0187569Y0148764D01*
X0187569Y0150266D01*
X0187751Y0150448D01*
X0188147Y0151404D01*
X0188147Y0155982D01*
X0187808Y0156802D01*
X0188623Y0156802D01*
X0189579Y0157197D01*
X0190310Y0157929D01*
X0190706Y0158884D01*
X0190706Y0163462D01*
X0190310Y0164418D01*
X0189579Y0165149D01*
X0188623Y0165545D01*
X0184833Y0165545D01*
X0183878Y0165149D01*
X0183146Y0164418D01*
X0183111Y0164333D01*
X0178793Y0164333D01*
X0178793Y0164344D01*
X0178397Y0165300D01*
X0177666Y0166031D01*
X0176710Y0166427D01*
X0170676Y0166427D01*
X0169720Y0166031D01*
X0168989Y0165300D01*
X0168593Y0164344D01*
X0168593Y0157522D01*
X0168989Y0156567D01*
X0169720Y0155835D01*
X0170676Y0155439D01*
X0176710Y0155439D01*
X0177666Y0155835D01*
X0178397Y0156567D01*
X0178793Y0157522D01*
X0178793Y0157533D01*
X0181183Y0157533D01*
X0180587Y0156937D01*
X0180191Y0155982D01*
X0180191Y0151404D01*
X0180587Y0150448D01*
X0180769Y0150266D01*
X0180769Y0148842D01*
X0180728Y0148825D01*
X0180064Y0149100D01*
X0174699Y0149100D01*
X0173744Y0148704D01*
X0173132Y0148093D01*
X0172629Y0148093D01*
X0172323Y0148834D01*
X0171381Y0149775D01*
X0170150Y0150285D01*
X0163306Y0150285D01*
X0162076Y0149775D01*
X0161728Y0149428D01*
X0161381Y0149775D01*
X0160150Y0150285D01*
X0160128Y0150285D01*
X0160128Y0155583D01*
X0160737Y0155835D01*
X0161468Y0156567D01*
X0161864Y0157522D01*
X0161864Y0164344D01*
X0161468Y0165300D01*
X0160737Y0166031D01*
X0160164Y0166268D01*
X0160164Y0174732D01*
X0161306Y0175874D01*
X0162128Y0177859D01*
X0162128Y0180007D01*
X0161306Y0181992D01*
X0159787Y0183511D01*
X0157802Y0184333D01*
X0155654Y0184333D01*
X0153669Y0183511D01*
X0152150Y0181992D01*
X0151328Y0180007D01*
X0151328Y0177859D01*
X0152150Y0175874D01*
X0153364Y0174661D01*
X0153364Y0166268D01*
X0152791Y0166031D01*
X0152060Y0165300D01*
X0151664Y0164344D01*
X0151664Y0157522D01*
X0152060Y0156567D01*
X0152791Y0155835D01*
X0153328Y0155613D01*
X0153328Y0150285D01*
X0153306Y0150285D01*
X0152076Y0149775D01*
X0151134Y0148834D01*
X0150624Y0147603D01*
X0150624Y0141783D01*
X0151134Y0140552D01*
X0152076Y0139610D01*
X0153306Y0139101D01*
X0160150Y0139101D01*
X0161381Y0139610D01*
X0161728Y0139958D01*
X0162076Y0139610D01*
X0163306Y0139101D01*
X0170150Y0139101D01*
X0171381Y0139610D01*
X0172323Y0140552D01*
X0172629Y0141293D01*
X0172928Y0141293D01*
X0173012Y0141090D01*
X0173744Y0140359D01*
X0174699Y0139963D01*
X0180064Y0139963D01*
X0180728Y0140238D01*
X0181392Y0139963D01*
X0186757Y0139963D01*
X0187713Y0140359D01*
X0188079Y0140725D01*
X0188445Y0140359D01*
X0189400Y0139963D01*
X0194765Y0139963D01*
X0195721Y0140359D01*
X0196452Y0141090D01*
X0196848Y0142046D01*
X0196037Y0140675D02*
X0246083Y0140675D01*
X0248245Y0137477D02*
X0031828Y0137477D01*
X0031828Y0140675D02*
X0056083Y0140675D01*
X0056134Y0140552D02*
X0057076Y0139610D01*
X0058306Y0139101D01*
X0065150Y0139101D01*
X0066381Y0139610D01*
X0066728Y0139958D01*
X0067076Y0139610D01*
X0068306Y0139101D01*
X0075150Y0139101D01*
X0076381Y0139610D01*
X0077323Y0140552D01*
X0077629Y0141293D01*
X0077928Y0141293D01*
X0078012Y0141090D01*
X0078744Y0140359D01*
X0079699Y0139963D01*
X0085064Y0139963D01*
X0085728Y0140238D01*
X0086392Y0139963D01*
X0091757Y0139963D01*
X0092713Y0140359D01*
X0093079Y0140725D01*
X0093445Y0140359D01*
X0094400Y0139963D01*
X0099765Y0139963D01*
X0100721Y0140359D01*
X0101452Y0141090D01*
X0101848Y0142046D01*
X0101848Y0147017D01*
X0101452Y0147973D01*
X0100721Y0148704D01*
X0099765Y0149100D01*
X0094400Y0149100D01*
X0093445Y0148704D01*
X0093079Y0148338D01*
X0092713Y0148704D01*
X0092569Y0148764D01*
X0092569Y0150266D01*
X0092751Y0150448D01*
X0093147Y0151404D01*
X0093147Y0155982D01*
X0092808Y0156802D01*
X0093623Y0156802D01*
X0094579Y0157197D01*
X0095310Y0157929D01*
X0095706Y0158884D01*
X0095706Y0163462D01*
X0095310Y0164418D01*
X0094579Y0165149D01*
X0093623Y0165545D01*
X0089833Y0165545D01*
X0088878Y0165149D01*
X0088146Y0164418D01*
X0088111Y0164333D01*
X0083793Y0164333D01*
X0083793Y0164344D01*
X0083397Y0165300D01*
X0082666Y0166031D01*
X0081710Y0166427D01*
X0075676Y0166427D01*
X0074720Y0166031D01*
X0073989Y0165300D01*
X0073593Y0164344D01*
X0073593Y0157522D01*
X0073989Y0156567D01*
X0074720Y0155835D01*
X0075676Y0155439D01*
X0081710Y0155439D01*
X0082666Y0155835D01*
X0083397Y0156567D01*
X0083793Y0157522D01*
X0083793Y0157533D01*
X0086183Y0157533D01*
X0085587Y0156937D01*
X0085191Y0155982D01*
X0085191Y0151404D01*
X0085587Y0150448D01*
X0085769Y0150266D01*
X0085769Y0148842D01*
X0085728Y0148825D01*
X0085064Y0149100D01*
X0079699Y0149100D01*
X0078744Y0148704D01*
X0078132Y0148093D01*
X0077629Y0148093D01*
X0077323Y0148834D01*
X0076381Y0149775D01*
X0075150Y0150285D01*
X0068306Y0150285D01*
X0067076Y0149775D01*
X0066728Y0149428D01*
X0066381Y0149775D01*
X0065150Y0150285D01*
X0065128Y0150285D01*
X0065128Y0155583D01*
X0065737Y0155835D01*
X0066468Y0156567D01*
X0066864Y0157522D01*
X0066864Y0164344D01*
X0066468Y0165300D01*
X0065737Y0166031D01*
X0065164Y0166268D01*
X0065164Y0174732D01*
X0066306Y0175874D01*
X0066799Y0177064D01*
X0071468Y0181733D01*
X0087043Y0181733D01*
X0086328Y0180007D01*
X0086328Y0177859D01*
X0087150Y0175874D01*
X0088669Y0174355D01*
X0090654Y0173533D01*
X0092802Y0173533D01*
X0094787Y0174355D01*
X0096306Y0175874D01*
X0097128Y0177859D01*
X0097128Y0178593D01*
X0098168Y0177554D01*
X0099349Y0176372D01*
X0100893Y0175733D01*
X0122564Y0175733D01*
X0124107Y0176372D01*
X0125289Y0177554D01*
X0129468Y0181733D01*
X0150564Y0181733D01*
X0152107Y0182372D01*
X0153289Y0183554D01*
X0153928Y0185098D01*
X0153928Y0186769D01*
X0153289Y0188312D01*
X0152107Y0189494D01*
X0150564Y0190133D01*
X0126893Y0190133D01*
X0125349Y0189494D01*
X0119989Y0184133D01*
X0103468Y0184133D01*
X0098107Y0189494D01*
X0096564Y0190133D01*
X0068893Y0190133D01*
X0067349Y0189494D01*
X0066168Y0188312D01*
X0062189Y0184333D01*
X0060654Y0184333D01*
X0058669Y0183511D01*
X0057150Y0181992D01*
X0056328Y0180007D01*
X0056328Y0177859D01*
X0057150Y0175874D01*
X0058364Y0174661D01*
X0058364Y0166268D01*
X0057791Y0166031D01*
X0057060Y0165300D01*
X0056664Y0164344D01*
X0056664Y0157522D01*
X0057060Y0156567D01*
X0057791Y0155835D01*
X0058328Y0155613D01*
X0058328Y0150285D01*
X0058306Y0150285D01*
X0057076Y0149775D01*
X0056134Y0148834D01*
X0055624Y0147603D01*
X0055624Y0141783D01*
X0056134Y0140552D01*
X0055624Y0143874D02*
X0031828Y0143874D01*
X0031828Y0147072D02*
X0055624Y0147072D01*
X0058272Y0150271D02*
X0031828Y0150271D01*
X0031828Y0153469D02*
X0058328Y0153469D01*
X0057018Y0156668D02*
X0031828Y0156668D01*
X0031828Y0159866D02*
X0056664Y0159866D01*
X0056664Y0163065D02*
X0031828Y0163065D01*
X0031828Y0166263D02*
X0058352Y0166263D01*
X0058364Y0169462D02*
X0031828Y0169462D01*
X0031828Y0172660D02*
X0058364Y0172660D01*
X0057166Y0175859D02*
X0031828Y0175859D01*
X0031828Y0179057D02*
X0056328Y0179057D01*
X0057414Y0182256D02*
X0031828Y0182256D01*
X0031828Y0185454D02*
X0063310Y0185454D01*
X0066508Y0188653D02*
X0031828Y0188653D01*
X0031828Y0191851D02*
X0103617Y0191851D01*
X0103617Y0191111D02*
X0104851Y0188129D01*
X0107133Y0185848D01*
X0110115Y0184613D01*
X0113342Y0184613D01*
X0116323Y0185848D01*
X0118605Y0188129D01*
X0119840Y0191111D01*
X0119840Y0194338D01*
X0118605Y0197319D01*
X0116323Y0199601D01*
X0115928Y0199765D01*
X0115928Y0200093D01*
X0116323Y0200257D01*
X0118605Y0202539D01*
X0119840Y0205520D01*
X0119840Y0208747D01*
X0118605Y0211729D01*
X0116323Y0214011D01*
X0113342Y0215246D01*
X0110115Y0215246D01*
X0107133Y0214011D01*
X0104851Y0211729D01*
X0104688Y0211334D01*
X0074267Y0211334D01*
X0067928Y0217673D01*
X0067928Y0217769D01*
X0067289Y0219312D01*
X0067128Y0219473D01*
X0067128Y0220007D01*
X0066306Y0221992D01*
X0064787Y0223511D01*
X0062802Y0224333D01*
X0060654Y0224333D01*
X0058669Y0223511D01*
X0057150Y0221992D01*
X0056328Y0220007D01*
X0056328Y0217859D01*
X0057150Y0215874D01*
X0058669Y0214355D01*
X0060077Y0213772D01*
X0060168Y0213554D01*
X0061349Y0212372D01*
X0070148Y0203573D01*
X0071692Y0202934D01*
X0104688Y0202934D01*
X0104851Y0202539D01*
X0107133Y0200257D01*
X0107528Y0200093D01*
X0107528Y0199765D01*
X0107133Y0199601D01*
X0104851Y0197319D01*
X0103617Y0194338D01*
X0103617Y0191111D01*
X0104635Y0188653D02*
X0098948Y0188653D01*
X0095728Y0185933D02*
X0101728Y0179933D01*
X0121728Y0179933D01*
X0127728Y0185933D01*
X0149728Y0185933D01*
X0152948Y0188653D02*
X0160508Y0188653D01*
X0159528Y0185454D02*
X0153928Y0185454D01*
X0152414Y0182256D02*
X0151825Y0182256D01*
X0151328Y0179057D02*
X0126792Y0179057D01*
X0122867Y0175859D02*
X0152166Y0175859D01*
X0153364Y0172660D02*
X0065164Y0172660D01*
X0065164Y0169462D02*
X0153364Y0169462D01*
X0153352Y0166263D02*
X0082105Y0166263D01*
X0075281Y0166263D02*
X0065176Y0166263D01*
X0066864Y0163065D02*
X0073593Y0163065D01*
X0073593Y0159866D02*
X0066864Y0159866D01*
X0066510Y0156668D02*
X0073947Y0156668D01*
X0065128Y0153469D02*
X0085191Y0153469D01*
X0085475Y0156668D02*
X0083439Y0156668D01*
X0085765Y0150271D02*
X0075185Y0150271D01*
X0068272Y0150271D02*
X0065185Y0150271D01*
X0077373Y0140675D02*
X0078428Y0140675D01*
X0093029Y0140675D02*
X0093128Y0140675D01*
X0101037Y0140675D02*
X0151083Y0140675D01*
X0150624Y0143874D02*
X0101848Y0143874D01*
X0101825Y0147072D02*
X0150624Y0147072D01*
X0153272Y0150271D02*
X0092573Y0150271D01*
X0093147Y0153469D02*
X0153328Y0153469D01*
X0152018Y0156668D02*
X0092863Y0156668D01*
X0095706Y0159866D02*
X0151664Y0159866D01*
X0151664Y0163065D02*
X0095706Y0163065D01*
X0096291Y0175859D02*
X0100590Y0175859D01*
X0102147Y0185454D02*
X0108083Y0185454D01*
X0115374Y0185454D02*
X0121310Y0185454D01*
X0118822Y0188653D02*
X0124508Y0188653D01*
X0119840Y0191851D02*
X0198617Y0191851D01*
X0198617Y0191111D02*
X0199851Y0188129D01*
X0202133Y0185848D01*
X0205115Y0184613D01*
X0208342Y0184613D01*
X0211323Y0185848D01*
X0213605Y0188129D01*
X0214840Y0191111D01*
X0214840Y0194338D01*
X0213605Y0197319D01*
X0211323Y0199601D01*
X0210928Y0199765D01*
X0210928Y0200093D01*
X0211323Y0200257D01*
X0213605Y0202539D01*
X0214840Y0205520D01*
X0214840Y0208747D01*
X0213605Y0211729D01*
X0211323Y0214011D01*
X0208342Y0215246D01*
X0205115Y0215246D01*
X0202133Y0214011D01*
X0199851Y0211729D01*
X0199688Y0211334D01*
X0167692Y0211334D01*
X0166148Y0210694D01*
X0164967Y0209513D01*
X0164328Y0207969D01*
X0164328Y0206298D01*
X0164967Y0204755D01*
X0166148Y0203573D01*
X0167692Y0202934D01*
X0199688Y0202934D01*
X0199851Y0202539D01*
X0202133Y0200257D01*
X0202528Y0200093D01*
X0202528Y0199765D01*
X0202133Y0199601D01*
X0199851Y0197319D01*
X0198617Y0194338D01*
X0198617Y0191111D01*
X0199635Y0188653D02*
X0194948Y0188653D01*
X0191728Y0185933D02*
X0163728Y0185933D01*
X0161631Y0182256D02*
X0161042Y0182256D01*
X0162128Y0179057D02*
X0181328Y0179057D01*
X0182166Y0175859D02*
X0161291Y0175859D01*
X0160164Y0172660D02*
X0248364Y0172660D01*
X0248364Y0169462D02*
X0160164Y0169462D01*
X0160176Y0166263D02*
X0170281Y0166263D01*
X0168593Y0163065D02*
X0161864Y0163065D01*
X0161864Y0159866D02*
X0168593Y0159866D01*
X0168947Y0156668D02*
X0161510Y0156668D01*
X0160128Y0153469D02*
X0180191Y0153469D01*
X0180475Y0156668D02*
X0178439Y0156668D01*
X0187863Y0156668D02*
X0247018Y0156668D01*
X0246664Y0159866D02*
X0190706Y0159866D01*
X0190706Y0163065D02*
X0246664Y0163065D01*
X0248352Y0166263D02*
X0177105Y0166263D01*
X0188147Y0153469D02*
X0248328Y0153469D01*
X0248272Y0150271D02*
X0187573Y0150271D01*
X0180765Y0150271D02*
X0170185Y0150271D01*
X0163272Y0150271D02*
X0160185Y0150271D01*
X0172373Y0140675D02*
X0173428Y0140675D01*
X0188029Y0140675D02*
X0188128Y0140675D01*
X0196825Y0147072D02*
X0245624Y0147072D01*
X0255185Y0150271D02*
X0258272Y0150271D01*
X0255128Y0153469D02*
X0275191Y0153469D01*
X0275475Y0156668D02*
X0273439Y0156668D01*
X0282863Y0156668D02*
X0342018Y0156668D01*
X0342060Y0156567D02*
X0342791Y0155835D01*
X0343328Y0155613D01*
X0343328Y0150285D01*
X0343306Y0150285D01*
X0342076Y0149775D01*
X0341134Y0148834D01*
X0340624Y0147603D01*
X0340624Y0141783D01*
X0341134Y0140552D01*
X0342076Y0139610D01*
X0343306Y0139101D01*
X0350150Y0139101D01*
X0351381Y0139610D01*
X0351728Y0139958D01*
X0352076Y0139610D01*
X0353306Y0139101D01*
X0360150Y0139101D01*
X0361381Y0139610D01*
X0362323Y0140552D01*
X0362629Y0141293D01*
X0362928Y0141293D01*
X0363012Y0141090D01*
X0363744Y0140359D01*
X0364699Y0139963D01*
X0370064Y0139963D01*
X0370728Y0140238D01*
X0371392Y0139963D01*
X0376757Y0139963D01*
X0377713Y0140359D01*
X0378079Y0140725D01*
X0378445Y0140359D01*
X0379400Y0139963D01*
X0384765Y0139963D01*
X0385721Y0140359D01*
X0386452Y0141090D01*
X0386848Y0142046D01*
X0386848Y0147017D01*
X0386452Y0147973D01*
X0385721Y0148704D01*
X0384765Y0149100D01*
X0379400Y0149100D01*
X0378445Y0148704D01*
X0378079Y0148338D01*
X0377713Y0148704D01*
X0377569Y0148764D01*
X0377569Y0150266D01*
X0377751Y0150448D01*
X0378147Y0151404D01*
X0378147Y0155982D01*
X0377808Y0156802D01*
X0378623Y0156802D01*
X0379579Y0157197D01*
X0380310Y0157929D01*
X0380706Y0158884D01*
X0380706Y0163462D01*
X0380310Y0164418D01*
X0379579Y0165149D01*
X0378623Y0165545D01*
X0374833Y0165545D01*
X0373878Y0165149D01*
X0373146Y0164418D01*
X0373111Y0164333D01*
X0368793Y0164333D01*
X0368793Y0164344D01*
X0368397Y0165300D01*
X0367666Y0166031D01*
X0366710Y0166427D01*
X0360676Y0166427D01*
X0359720Y0166031D01*
X0358989Y0165300D01*
X0358593Y0164344D01*
X0358593Y0157522D01*
X0358989Y0156567D01*
X0359720Y0155835D01*
X0360676Y0155439D01*
X0366710Y0155439D01*
X0367666Y0155835D01*
X0368397Y0156567D01*
X0368793Y0157522D01*
X0368793Y0157533D01*
X0371183Y0157533D01*
X0370587Y0156937D01*
X0370191Y0155982D01*
X0370191Y0151404D01*
X0370587Y0150448D01*
X0370769Y0150266D01*
X0370769Y0148842D01*
X0370728Y0148825D01*
X0370064Y0149100D01*
X0364699Y0149100D01*
X0363744Y0148704D01*
X0363133Y0148093D01*
X0362629Y0148093D01*
X0362323Y0148834D01*
X0361381Y0149775D01*
X0360150Y0150285D01*
X0353306Y0150285D01*
X0352076Y0149775D01*
X0351728Y0149428D01*
X0351381Y0149775D01*
X0350150Y0150285D01*
X0350128Y0150285D01*
X0350128Y0155583D01*
X0350737Y0155835D01*
X0351468Y0156567D01*
X0351864Y0157522D01*
X0351864Y0164344D01*
X0351468Y0165300D01*
X0350737Y0166031D01*
X0350164Y0166268D01*
X0350164Y0174732D01*
X0351306Y0175874D01*
X0352128Y0177859D01*
X0352128Y0180007D01*
X0351306Y0181992D01*
X0349787Y0183511D01*
X0347802Y0184333D01*
X0345654Y0184333D01*
X0343669Y0183511D01*
X0342150Y0181992D01*
X0341328Y0180007D01*
X0341328Y0177859D01*
X0342150Y0175874D01*
X0343364Y0174661D01*
X0343364Y0166268D01*
X0342791Y0166031D01*
X0342060Y0165300D01*
X0341664Y0164344D01*
X0341664Y0157522D01*
X0342060Y0156567D01*
X0341664Y0159866D02*
X0285706Y0159866D01*
X0285706Y0163065D02*
X0341664Y0163065D01*
X0343352Y0166263D02*
X0272105Y0166263D01*
X0265281Y0166263D02*
X0255176Y0166263D01*
X0255164Y0169462D02*
X0343364Y0169462D01*
X0343364Y0172660D02*
X0255164Y0172660D01*
X0256291Y0175859D02*
X0277166Y0175859D01*
X0277150Y0175874D02*
X0278669Y0174355D01*
X0280654Y0173533D01*
X0282802Y0173533D01*
X0284787Y0174355D01*
X0286306Y0175874D01*
X0287128Y0177859D01*
X0287128Y0178593D01*
X0289349Y0176372D01*
X0290893Y0175733D01*
X0312564Y0175733D01*
X0314107Y0176372D01*
X0319468Y0181733D01*
X0340564Y0181733D01*
X0342107Y0182372D01*
X0343289Y0183554D01*
X0343928Y0185098D01*
X0343928Y0186769D01*
X0343289Y0188312D01*
X0342107Y0189494D01*
X0340564Y0190133D01*
X0316893Y0190133D01*
X0315349Y0189494D01*
X0309989Y0184133D01*
X0293468Y0184133D01*
X0289289Y0188312D01*
X0289289Y0188312D01*
X0288107Y0189494D01*
X0286564Y0190133D01*
X0257893Y0190133D01*
X0256349Y0189494D01*
X0255168Y0188312D01*
X0254528Y0186769D01*
X0254528Y0185098D01*
X0255168Y0183554D01*
X0256349Y0182372D01*
X0257893Y0181733D01*
X0277043Y0181733D01*
X0276328Y0180007D01*
X0276328Y0177859D01*
X0277150Y0175874D01*
X0276328Y0179057D02*
X0257128Y0179057D01*
X0256631Y0182256D02*
X0256042Y0182256D01*
X0254528Y0185454D02*
X0252147Y0185454D01*
X0248948Y0188653D02*
X0255508Y0188653D01*
X0258728Y0185933D02*
X0285728Y0185933D01*
X0291728Y0179933D01*
X0311728Y0179933D01*
X0317728Y0185933D01*
X0339728Y0185933D01*
X0342948Y0188653D02*
X0389635Y0188653D01*
X0389851Y0188129D02*
X0392133Y0185848D01*
X0395115Y0184613D01*
X0398342Y0184613D01*
X0401323Y0185848D01*
X0403605Y0188129D01*
X0404840Y0191111D01*
X0404840Y0194338D01*
X0403605Y0197319D01*
X0401323Y0199601D01*
X0400928Y0199765D01*
X0400928Y0200093D01*
X0401323Y0200257D01*
X0403605Y0202539D01*
X0404840Y0205520D01*
X0404840Y0208747D01*
X0403605Y0211729D01*
X0401323Y0214011D01*
X0398342Y0215246D01*
X0395115Y0215246D01*
X0392133Y0214011D01*
X0389851Y0211729D01*
X0389688Y0211334D01*
X0357692Y0211334D01*
X0356148Y0210694D01*
X0354967Y0209513D01*
X0354328Y0207969D01*
X0354328Y0206298D01*
X0354967Y0204755D01*
X0356148Y0203573D01*
X0357692Y0202934D01*
X0389688Y0202934D01*
X0389851Y0202539D01*
X0392133Y0200257D01*
X0392528Y0200093D01*
X0392528Y0199765D01*
X0392133Y0199601D01*
X0389851Y0197319D01*
X0388617Y0194338D01*
X0388617Y0191111D01*
X0389851Y0188129D01*
X0388617Y0191851D02*
X0309840Y0191851D01*
X0309840Y0191111D02*
X0308605Y0188129D01*
X0306323Y0185848D01*
X0303342Y0184613D01*
X0300115Y0184613D01*
X0297133Y0185848D01*
X0294851Y0188129D01*
X0293617Y0191111D01*
X0293617Y0194338D01*
X0294851Y0197319D01*
X0297133Y0199601D01*
X0297528Y0199765D01*
X0297528Y0200093D01*
X0297133Y0200257D01*
X0294851Y0202539D01*
X0294688Y0202934D01*
X0262692Y0202934D01*
X0261148Y0203573D01*
X0259967Y0204755D01*
X0259328Y0206298D01*
X0259328Y0207969D01*
X0259967Y0209513D01*
X0261148Y0210694D01*
X0262692Y0211334D01*
X0294688Y0211334D01*
X0294851Y0211729D01*
X0297133Y0214011D01*
X0300115Y0215246D01*
X0303342Y0215246D01*
X0306323Y0214011D01*
X0308605Y0211729D01*
X0309840Y0208747D01*
X0309840Y0205520D01*
X0308605Y0202539D01*
X0306323Y0200257D01*
X0305928Y0200093D01*
X0305928Y0199765D01*
X0306323Y0199601D01*
X0308605Y0197319D01*
X0309840Y0194338D01*
X0309840Y0191111D01*
X0308822Y0188653D02*
X0314508Y0188653D01*
X0311310Y0185454D02*
X0305374Y0185454D01*
X0298083Y0185454D02*
X0292147Y0185454D01*
X0294635Y0188653D02*
X0288948Y0188653D01*
X0293617Y0191851D02*
X0214840Y0191851D01*
X0214545Y0195050D02*
X0293911Y0195050D01*
X0295780Y0198248D02*
X0212676Y0198248D01*
X0212513Y0201447D02*
X0295944Y0201447D01*
X0301728Y0207134D02*
X0301728Y0193933D01*
X0303728Y0191933D01*
X0302520Y0191933D01*
X0301728Y0192724D01*
X0307676Y0198248D02*
X0390780Y0198248D01*
X0390944Y0201447D02*
X0307513Y0201447D01*
X0309478Y0204645D02*
X0355076Y0204645D01*
X0354328Y0207844D02*
X0309840Y0207844D01*
X0308890Y0211042D02*
X0356988Y0211042D01*
X0358528Y0207134D02*
X0396728Y0207134D01*
X0396728Y0192724D01*
X0402676Y0198248D02*
X0410328Y0198248D01*
X0410328Y0195050D02*
X0404545Y0195050D01*
X0404840Y0191851D02*
X0410328Y0191851D01*
X0410328Y0188653D02*
X0403822Y0188653D01*
X0400374Y0185454D02*
X0410328Y0185454D01*
X0410328Y0182256D02*
X0381042Y0182256D01*
X0381306Y0181992D02*
X0379787Y0183511D01*
X0377802Y0184333D01*
X0375654Y0184333D01*
X0373669Y0183511D01*
X0372150Y0181992D01*
X0371328Y0180007D01*
X0371328Y0177859D01*
X0372150Y0175874D01*
X0373669Y0174355D01*
X0375654Y0173533D01*
X0377802Y0173533D01*
X0379787Y0174355D01*
X0381306Y0175874D01*
X0382128Y0177859D01*
X0382128Y0180007D01*
X0381306Y0181992D01*
X0382128Y0179057D02*
X0410328Y0179057D01*
X0410328Y0175859D02*
X0381291Y0175859D01*
X0372166Y0175859D02*
X0351291Y0175859D01*
X0352128Y0179057D02*
X0371328Y0179057D01*
X0372414Y0182256D02*
X0351042Y0182256D01*
X0343928Y0185454D02*
X0393083Y0185454D01*
X0388911Y0195050D02*
X0309545Y0195050D01*
X0301728Y0207134D02*
X0263528Y0207134D01*
X0261988Y0211042D02*
X0213890Y0211042D01*
X0214840Y0207844D02*
X0259328Y0207844D01*
X0260076Y0204645D02*
X0214478Y0204645D01*
X0206728Y0207134D02*
X0168528Y0207134D01*
X0166988Y0211042D02*
X0118890Y0211042D01*
X0119840Y0207844D02*
X0164328Y0207844D01*
X0165076Y0204645D02*
X0119478Y0204645D01*
X0117513Y0201447D02*
X0200944Y0201447D01*
X0200780Y0198248D02*
X0117676Y0198248D01*
X0119545Y0195050D02*
X0198911Y0195050D01*
X0206728Y0192724D02*
X0206728Y0207134D01*
X0202689Y0214241D02*
X0159511Y0214241D01*
X0159787Y0214355D02*
X0161306Y0215874D01*
X0162128Y0217859D01*
X0162128Y0220007D01*
X0161306Y0221992D01*
X0159787Y0223511D01*
X0157802Y0224333D01*
X0155654Y0224333D01*
X0153669Y0223511D01*
X0152150Y0221992D01*
X0151328Y0220007D01*
X0151328Y0217859D01*
X0152150Y0215874D01*
X0153669Y0214355D01*
X0155654Y0213533D01*
X0157802Y0213533D01*
X0159787Y0214355D01*
X0161955Y0217439D02*
X0203138Y0217439D01*
X0202133Y0217855D02*
X0205115Y0216620D01*
X0208342Y0216620D01*
X0211323Y0217855D01*
X0213605Y0220137D01*
X0214840Y0223119D01*
X0214840Y0226346D01*
X0213605Y0229327D01*
X0211323Y0231609D01*
X0210928Y0231773D01*
X0210928Y0232101D01*
X0211323Y0232265D01*
X0213605Y0234547D01*
X0213769Y0234942D01*
X0278083Y0234942D01*
X0278669Y0234355D01*
X0280654Y0233533D01*
X0282802Y0233533D01*
X0284787Y0234355D01*
X0285374Y0234942D01*
X0294688Y0234942D01*
X0294851Y0234547D01*
X0297133Y0232265D01*
X0297528Y0232101D01*
X0297528Y0231773D01*
X0297133Y0231609D01*
X0294851Y0229327D01*
X0293617Y0226346D01*
X0293617Y0223119D01*
X0294851Y0220137D01*
X0297133Y0217855D01*
X0300115Y0216620D01*
X0303342Y0216620D01*
X0306323Y0217855D01*
X0308605Y0220137D01*
X0309840Y0223119D01*
X0309840Y0226346D01*
X0308605Y0229327D01*
X0306323Y0231609D01*
X0305928Y0231773D01*
X0305928Y0232101D01*
X0306323Y0232265D01*
X0308605Y0234547D01*
X0308769Y0234942D01*
X0373083Y0234942D01*
X0373669Y0234355D01*
X0375654Y0233533D01*
X0377802Y0233533D01*
X0379787Y0234355D01*
X0380374Y0234942D01*
X0389688Y0234942D01*
X0389851Y0234547D01*
X0392133Y0232265D01*
X0392528Y0232101D01*
X0392528Y0231773D01*
X0392133Y0231609D01*
X0389851Y0229327D01*
X0388617Y0226346D01*
X0388617Y0223119D01*
X0389851Y0220137D01*
X0392133Y0217855D01*
X0395115Y0216620D01*
X0398342Y0216620D01*
X0401323Y0217855D01*
X0403605Y0220137D01*
X0404840Y0223119D01*
X0404840Y0226346D01*
X0403605Y0229327D01*
X0401323Y0231609D01*
X0400928Y0231773D01*
X0400928Y0232101D01*
X0401323Y0232265D01*
X0403605Y0234547D01*
X0404840Y0237528D01*
X0404840Y0240755D01*
X0403605Y0243737D01*
X0401323Y0246019D01*
X0398342Y0247254D01*
X0395115Y0247254D01*
X0392133Y0246019D01*
X0389851Y0243737D01*
X0389688Y0243342D01*
X0379956Y0243342D01*
X0379787Y0243511D01*
X0377802Y0244333D01*
X0375654Y0244333D01*
X0373669Y0243511D01*
X0373500Y0243342D01*
X0308769Y0243342D01*
X0308605Y0243737D01*
X0306323Y0246019D01*
X0303342Y0247254D01*
X0300115Y0247254D01*
X0297133Y0246019D01*
X0294851Y0243737D01*
X0294688Y0243342D01*
X0284956Y0243342D01*
X0284787Y0243511D01*
X0282802Y0244333D01*
X0280654Y0244333D01*
X0278669Y0243511D01*
X0278500Y0243342D01*
X0213769Y0243342D01*
X0213605Y0243737D01*
X0211323Y0246019D01*
X0208342Y0247254D01*
X0205115Y0247254D01*
X0202133Y0246019D01*
X0199851Y0243737D01*
X0199688Y0243342D01*
X0189956Y0243342D01*
X0189787Y0243511D01*
X0187802Y0244333D01*
X0185654Y0244333D01*
X0183669Y0243511D01*
X0183500Y0243342D01*
X0118769Y0243342D01*
X0118605Y0243737D01*
X0116323Y0246019D01*
X0113342Y0247254D01*
X0110115Y0247254D01*
X0107133Y0246019D01*
X0104851Y0243737D01*
X0103617Y0240755D01*
X0103617Y0237528D01*
X0104851Y0234547D01*
X0107133Y0232265D01*
X0107528Y0232101D01*
X0107528Y0231773D01*
X0107133Y0231609D01*
X0104851Y0229327D01*
X0103617Y0226346D01*
X0103617Y0223119D01*
X0104851Y0220137D01*
X0107133Y0217855D01*
X0110115Y0216620D01*
X0113342Y0216620D01*
X0116323Y0217855D01*
X0118605Y0220137D01*
X0119840Y0223119D01*
X0119840Y0226346D01*
X0118605Y0229327D01*
X0116323Y0231609D01*
X0115928Y0231773D01*
X0115928Y0232101D01*
X0116323Y0232265D01*
X0118605Y0234547D01*
X0118769Y0234942D01*
X0183083Y0234942D01*
X0183669Y0234355D01*
X0185654Y0233533D01*
X0187802Y0233533D01*
X0189787Y0234355D01*
X0190374Y0234942D01*
X0199688Y0234942D01*
X0199851Y0234547D01*
X0202133Y0232265D01*
X0202528Y0232101D01*
X0202528Y0231773D01*
X0202133Y0231609D01*
X0199851Y0229327D01*
X0198617Y0226346D01*
X0198617Y0223119D01*
X0199851Y0220137D01*
X0202133Y0217855D01*
X0199644Y0220638D02*
X0161867Y0220638D01*
X0159002Y0223836D02*
X0198617Y0223836D01*
X0198902Y0227035D02*
X0119555Y0227035D01*
X0119840Y0223836D02*
X0154455Y0223836D01*
X0151590Y0220638D02*
X0118812Y0220638D01*
X0115319Y0217439D02*
X0151502Y0217439D01*
X0153946Y0214241D02*
X0115768Y0214241D01*
X0107689Y0214241D02*
X0071360Y0214241D01*
X0068162Y0217439D02*
X0108138Y0217439D01*
X0104644Y0220638D02*
X0066867Y0220638D01*
X0064002Y0223836D02*
X0103617Y0223836D01*
X0103902Y0227035D02*
X0058488Y0227035D01*
X0058928Y0230233D02*
X0105758Y0230233D01*
X0105966Y0233432D02*
X0058928Y0233432D01*
X0058928Y0236630D02*
X0086837Y0236630D01*
X0087150Y0235874D02*
X0088669Y0234355D01*
X0090654Y0233533D01*
X0092802Y0233533D01*
X0094787Y0234355D01*
X0096306Y0235874D01*
X0097128Y0237859D01*
X0097128Y0240007D01*
X0096306Y0241992D01*
X0094787Y0243511D01*
X0092802Y0244333D01*
X0090654Y0244333D01*
X0088669Y0243511D01*
X0087150Y0241992D01*
X0086328Y0240007D01*
X0086328Y0237859D01*
X0087150Y0235874D01*
X0086328Y0239829D02*
X0058928Y0239829D01*
X0058928Y0243027D02*
X0088186Y0243027D01*
X0095271Y0243027D02*
X0104558Y0243027D01*
X0103617Y0239829D02*
X0097128Y0239829D01*
X0096619Y0236630D02*
X0103988Y0236630D01*
X0111728Y0239142D02*
X0206728Y0239142D01*
X0206728Y0237933D01*
X0207937Y0239142D01*
X0301728Y0239142D01*
X0301728Y0237933D01*
X0302937Y0239142D01*
X0396728Y0239142D01*
X0396728Y0224732D01*
X0390758Y0230233D02*
X0307699Y0230233D01*
X0307490Y0233432D02*
X0390966Y0233432D01*
X0388902Y0227035D02*
X0309555Y0227035D01*
X0309840Y0223836D02*
X0344455Y0223836D01*
X0343669Y0223511D02*
X0342150Y0221992D01*
X0341328Y0220007D01*
X0341328Y0217859D01*
X0342150Y0215874D01*
X0343669Y0214355D01*
X0345654Y0213533D01*
X0347802Y0213533D01*
X0349787Y0214355D01*
X0351306Y0215874D01*
X0352128Y0217859D01*
X0352128Y0220007D01*
X0351306Y0221992D01*
X0349787Y0223511D01*
X0347802Y0224333D01*
X0345654Y0224333D01*
X0343669Y0223511D01*
X0341590Y0220638D02*
X0308813Y0220638D01*
X0305319Y0217439D02*
X0341502Y0217439D01*
X0343946Y0214241D02*
X0305768Y0214241D01*
X0297689Y0214241D02*
X0254511Y0214241D01*
X0254787Y0214355D02*
X0256306Y0215874D01*
X0257128Y0217859D01*
X0257128Y0220007D01*
X0256306Y0221992D01*
X0254787Y0223511D01*
X0252802Y0224333D01*
X0250654Y0224333D01*
X0248669Y0223511D01*
X0247150Y0221992D01*
X0246328Y0220007D01*
X0246328Y0217859D01*
X0247150Y0215874D01*
X0248669Y0214355D01*
X0250654Y0213533D01*
X0252802Y0213533D01*
X0254787Y0214355D01*
X0256955Y0217439D02*
X0298138Y0217439D01*
X0294644Y0220638D02*
X0256867Y0220638D01*
X0254002Y0223836D02*
X0293617Y0223836D01*
X0293902Y0227035D02*
X0214555Y0227035D01*
X0214840Y0223836D02*
X0249455Y0223836D01*
X0246590Y0220638D02*
X0213812Y0220638D01*
X0210319Y0217439D02*
X0246502Y0217439D01*
X0248946Y0214241D02*
X0210768Y0214241D01*
X0206728Y0224732D02*
X0206728Y0237933D01*
X0200966Y0233432D02*
X0117490Y0233432D01*
X0117699Y0230233D02*
X0200758Y0230233D01*
X0212699Y0230233D02*
X0295758Y0230233D01*
X0295966Y0233432D02*
X0212490Y0233432D01*
X0210823Y0246226D02*
X0247005Y0246226D01*
X0246328Y0249424D02*
X0176160Y0249424D01*
X0176068Y0252623D02*
X0221099Y0252623D01*
X0223728Y0255933D02*
X0201728Y0277933D01*
X0199571Y0277933D01*
X0179287Y0278217D01*
X0186728Y0277933D02*
X0199571Y0277933D01*
X0204813Y0284608D02*
X0183644Y0284608D01*
X0186728Y0277933D02*
X0164728Y0255933D01*
X0126728Y0255933D01*
X0104445Y0278217D01*
X0094287Y0278217D01*
X0086687Y0278211D02*
X0074328Y0278211D01*
X0074328Y0276705D02*
X0074328Y0279728D01*
X0073171Y0282522D01*
X0071033Y0284659D01*
X0068240Y0285817D01*
X0065217Y0285817D01*
X0062423Y0284659D01*
X0060285Y0282522D01*
X0059128Y0279728D01*
X0059128Y0276705D01*
X0060285Y0273911D01*
X0062423Y0271774D01*
X0065217Y0270617D01*
X0068240Y0270617D01*
X0071033Y0271774D01*
X0073171Y0273911D01*
X0074328Y0276705D01*
X0073627Y0275012D02*
X0082580Y0275012D01*
X0079612Y0271814D02*
X0071074Y0271814D01*
X0062383Y0271814D02*
X0050928Y0271814D01*
X0051548Y0274813D02*
X0051548Y0274813D01*
X0051760Y0275012D02*
X0059829Y0275012D01*
X0059128Y0278211D02*
X0054946Y0278211D01*
X0058144Y0281410D02*
X0059825Y0281410D01*
X0061343Y0284608D02*
X0062372Y0284608D01*
X0064541Y0287807D02*
X0118793Y0287807D01*
X0118410Y0291005D02*
X0067740Y0291005D01*
X0070939Y0294204D02*
X0118028Y0294204D01*
X0121453Y0300933D02*
X0124169Y0278217D01*
X0144169Y0278374D01*
X0166728Y0300933D01*
X0216453Y0300933D01*
X0209169Y0278217D01*
X0239169Y0278374D01*
X0261728Y0300933D01*
X0311453Y0300933D01*
X0294169Y0278217D01*
X0294445Y0278217D02*
X0316728Y0255933D01*
X0355728Y0255933D01*
X0377728Y0277933D01*
X0389004Y0277933D01*
X0349287Y0278217D01*
X0341687Y0278211D02*
X0329328Y0278211D01*
X0329328Y0276705D02*
X0329328Y0279728D01*
X0328171Y0282522D01*
X0326033Y0284659D01*
X0323240Y0285817D01*
X0320217Y0285817D01*
X0317423Y0284659D01*
X0315285Y0282522D01*
X0314128Y0279728D01*
X0314128Y0276705D01*
X0315285Y0273911D01*
X0317423Y0271774D01*
X0320217Y0270617D01*
X0323240Y0270617D01*
X0326033Y0271774D01*
X0328171Y0273911D01*
X0329328Y0276705D01*
X0328627Y0275012D02*
X0337580Y0275012D01*
X0334612Y0271814D02*
X0326074Y0271814D01*
X0333813Y0268615D02*
X0309986Y0268615D01*
X0313184Y0265417D02*
X0334412Y0265417D01*
X0336821Y0262218D02*
X0316383Y0262218D01*
X0307702Y0259020D02*
X0269755Y0259020D01*
X0268011Y0255821D02*
X0310900Y0255821D01*
X0314099Y0252623D02*
X0269748Y0252623D01*
X0271144Y0249424D02*
X0341328Y0249424D01*
X0342005Y0246226D02*
X0305823Y0246226D01*
X0297634Y0246226D02*
X0270185Y0246226D01*
X0266972Y0248933D02*
X0256413Y0268374D01*
X0249412Y0265417D02*
X0220184Y0265417D01*
X0216986Y0268615D02*
X0248813Y0268615D01*
X0248813Y0269886D02*
X0248813Y0266862D01*
X0249970Y0264069D01*
X0252108Y0261931D01*
X0254902Y0260774D01*
X0255762Y0260774D01*
X0256110Y0260133D01*
X0225468Y0260133D01*
X0213651Y0271950D01*
X0215612Y0273911D01*
X0215670Y0274051D01*
X0230196Y0274127D01*
X0230285Y0273911D01*
X0232423Y0271774D01*
X0235217Y0270617D01*
X0238240Y0270617D01*
X0241033Y0271774D01*
X0243171Y0273911D01*
X0244328Y0276705D01*
X0244328Y0277593D01*
X0263468Y0296733D01*
X0302980Y0296733D01*
X0294674Y0285817D01*
X0292658Y0285817D01*
X0289864Y0284659D01*
X0287726Y0282522D01*
X0287683Y0282417D01*
X0270774Y0282417D01*
X0270730Y0282522D01*
X0268592Y0284659D01*
X0265799Y0285817D01*
X0262776Y0285817D01*
X0259982Y0284659D01*
X0257844Y0282522D01*
X0256687Y0279728D01*
X0256687Y0276705D01*
X0256990Y0275974D01*
X0254902Y0275974D01*
X0252108Y0274817D01*
X0249970Y0272679D01*
X0248813Y0269886D01*
X0249612Y0271814D02*
X0241074Y0271814D01*
X0243627Y0275012D02*
X0252580Y0275012D01*
X0256687Y0278211D02*
X0244946Y0278211D01*
X0248144Y0281410D02*
X0257384Y0281410D01*
X0259931Y0284608D02*
X0251343Y0284608D01*
X0254541Y0287807D02*
X0296188Y0287807D01*
X0298622Y0291005D02*
X0257740Y0291005D01*
X0260939Y0294204D02*
X0301055Y0294204D01*
X0309177Y0291005D02*
X0410328Y0291005D01*
X0410328Y0287807D02*
X0306743Y0287807D01*
X0304310Y0284608D02*
X0317372Y0284608D01*
X0314825Y0281410D02*
X0301876Y0281410D01*
X0301769Y0278211D02*
X0314128Y0278211D01*
X0314829Y0275012D02*
X0303589Y0275012D01*
X0306787Y0271814D02*
X0317383Y0271814D01*
X0328632Y0281410D02*
X0342384Y0281410D01*
X0344931Y0284608D02*
X0326085Y0284608D01*
X0311610Y0294204D02*
X0410328Y0294204D01*
X0410328Y0297402D02*
X0314044Y0297402D01*
X0315709Y0300601D02*
X0410328Y0300601D01*
X0410328Y0303799D02*
X0314622Y0303799D01*
X0313398Y0309987D02*
X0310374Y0309987D01*
X0307581Y0311144D01*
X0305443Y0313282D01*
X0304286Y0316075D01*
X0304286Y0319098D01*
X0305443Y0321892D01*
X0307581Y0324030D01*
X0310374Y0325187D01*
X0313398Y0325187D01*
X0316191Y0324030D01*
X0318329Y0321892D01*
X0319486Y0319098D01*
X0319486Y0316075D01*
X0318329Y0313282D01*
X0316191Y0311144D01*
X0313398Y0309987D01*
X0313903Y0310196D02*
X0329553Y0310196D01*
X0330059Y0309987D02*
X0333083Y0309987D01*
X0335876Y0311144D01*
X0338014Y0313282D01*
X0339171Y0316075D01*
X0339171Y0319098D01*
X0338014Y0321892D01*
X0335876Y0324030D01*
X0333083Y0325187D01*
X0330059Y0325187D01*
X0327266Y0324030D01*
X0325128Y0321892D01*
X0323971Y0319098D01*
X0323971Y0316075D01*
X0325128Y0313282D01*
X0327266Y0311144D01*
X0330059Y0309987D01*
X0333588Y0310196D02*
X0394868Y0310196D01*
X0395374Y0309987D02*
X0398398Y0309987D01*
X0401191Y0311144D01*
X0403329Y0313282D01*
X0404486Y0316075D01*
X0404486Y0319098D01*
X0403329Y0321892D01*
X0401191Y0324030D01*
X0398398Y0325187D01*
X0395374Y0325187D01*
X0392581Y0324030D01*
X0390443Y0321892D01*
X0389286Y0319098D01*
X0389286Y0316075D01*
X0390443Y0313282D01*
X0392581Y0311144D01*
X0395374Y0309987D01*
X0398903Y0310196D02*
X0410328Y0310196D01*
X0410328Y0306998D02*
X0031828Y0306998D01*
X0031828Y0310196D02*
X0054868Y0310196D01*
X0055374Y0309987D02*
X0058398Y0309987D01*
X0061191Y0311144D01*
X0063329Y0313282D01*
X0064486Y0316075D01*
X0064486Y0319098D01*
X0063329Y0321892D01*
X0061191Y0324030D01*
X0058398Y0325187D01*
X0055374Y0325187D01*
X0052581Y0324030D01*
X0050443Y0321892D01*
X0049286Y0319098D01*
X0049286Y0316075D01*
X0050443Y0313282D01*
X0052581Y0311144D01*
X0055374Y0309987D01*
X0058903Y0310196D02*
X0074553Y0310196D01*
X0075059Y0309987D02*
X0078083Y0309987D01*
X0080876Y0311144D01*
X0083014Y0313282D01*
X0084171Y0316075D01*
X0084171Y0319098D01*
X0083014Y0321892D01*
X0080876Y0324030D01*
X0078083Y0325187D01*
X0075059Y0325187D01*
X0072266Y0324030D01*
X0070128Y0321892D01*
X0068971Y0319098D01*
X0068971Y0316075D01*
X0070128Y0313282D01*
X0072266Y0311144D01*
X0075059Y0309987D01*
X0078588Y0310196D02*
X0139868Y0310196D01*
X0140374Y0309987D02*
X0143398Y0309987D01*
X0146191Y0311144D01*
X0148329Y0313282D01*
X0149486Y0316075D01*
X0149486Y0319098D01*
X0148329Y0321892D01*
X0146191Y0324030D01*
X0143398Y0325187D01*
X0140374Y0325187D01*
X0137581Y0324030D01*
X0135443Y0321892D01*
X0134286Y0319098D01*
X0134286Y0316075D01*
X0135443Y0313282D01*
X0137581Y0311144D01*
X0140374Y0309987D01*
X0143903Y0310196D02*
X0159553Y0310196D01*
X0160059Y0309987D02*
X0163083Y0309987D01*
X0165876Y0311144D01*
X0168014Y0313282D01*
X0169171Y0316075D01*
X0169171Y0319098D01*
X0168014Y0321892D01*
X0165876Y0324030D01*
X0163083Y0325187D01*
X0160059Y0325187D01*
X0157266Y0324030D01*
X0155128Y0321892D01*
X0153971Y0319098D01*
X0153971Y0316075D01*
X0155128Y0313282D01*
X0157266Y0311144D01*
X0160059Y0309987D01*
X0163588Y0310196D02*
X0224868Y0310196D01*
X0225374Y0309987D02*
X0228398Y0309987D01*
X0231191Y0311144D01*
X0233329Y0313282D01*
X0234486Y0316075D01*
X0234486Y0319098D01*
X0233329Y0321892D01*
X0231191Y0324030D01*
X0228398Y0325187D01*
X0225374Y0325187D01*
X0222581Y0324030D01*
X0220443Y0321892D01*
X0219286Y0319098D01*
X0219286Y0316075D01*
X0220443Y0313282D01*
X0222581Y0311144D01*
X0225374Y0309987D01*
X0228903Y0310196D02*
X0244553Y0310196D01*
X0245059Y0309987D02*
X0248083Y0309987D01*
X0250876Y0311144D01*
X0253014Y0313282D01*
X0254171Y0316075D01*
X0254171Y0319098D01*
X0253014Y0321892D01*
X0250876Y0324030D01*
X0248083Y0325187D01*
X0245059Y0325187D01*
X0242266Y0324030D01*
X0240128Y0321892D01*
X0238971Y0319098D01*
X0238971Y0316075D01*
X0240128Y0313282D01*
X0242266Y0311144D01*
X0245059Y0309987D01*
X0248588Y0310196D02*
X0309868Y0310196D01*
X0305396Y0313395D02*
X0253061Y0313395D01*
X0254171Y0316593D02*
X0304286Y0316593D01*
X0304573Y0319792D02*
X0253884Y0319792D01*
X0251915Y0322990D02*
X0306541Y0322990D01*
X0317230Y0322990D02*
X0326226Y0322990D01*
X0324258Y0319792D02*
X0319199Y0319792D01*
X0319486Y0316593D02*
X0323971Y0316593D01*
X0325081Y0313395D02*
X0318376Y0313395D01*
X0338061Y0313395D02*
X0390396Y0313395D01*
X0389286Y0316593D02*
X0339171Y0316593D01*
X0338884Y0319792D02*
X0389573Y0319792D01*
X0391541Y0322990D02*
X0336915Y0322990D01*
X0402230Y0322990D02*
X0410328Y0322990D01*
X0409258Y0319792D02*
X0404199Y0319792D01*
X0404486Y0316593D02*
X0408971Y0316593D01*
X0410081Y0313395D02*
X0403376Y0313395D01*
X0402372Y0284608D02*
X0383526Y0284608D01*
X0374813Y0284608D02*
X0353644Y0284608D01*
X0341413Y0268374D02*
X0361972Y0248933D01*
X0365193Y0246226D02*
X0392634Y0246226D01*
X0391966Y0252623D02*
X0410328Y0252623D01*
X0410328Y0255821D02*
X0391966Y0255821D01*
X0391966Y0259020D02*
X0410328Y0259020D01*
X0410328Y0262218D02*
X0391636Y0262218D01*
X0394045Y0265417D02*
X0410328Y0265417D01*
X0410328Y0268615D02*
X0394643Y0268615D01*
X0393845Y0271814D02*
X0402383Y0271814D01*
X0399829Y0275012D02*
X0392024Y0275012D01*
X0393206Y0278211D02*
X0399128Y0278211D01*
X0399825Y0281410D02*
X0391475Y0281410D01*
X0379443Y0268615D02*
X0374350Y0268615D01*
X0371152Y0265417D02*
X0380042Y0265417D01*
X0382451Y0262218D02*
X0367953Y0262218D01*
X0364755Y0259020D02*
X0380467Y0259020D01*
X0380467Y0255821D02*
X0361556Y0255821D01*
X0364183Y0252623D02*
X0380467Y0252623D01*
X0366160Y0249424D02*
X0410328Y0249424D01*
X0410328Y0246226D02*
X0400823Y0246226D01*
X0403899Y0243027D02*
X0410328Y0243027D01*
X0410328Y0239829D02*
X0404840Y0239829D01*
X0404468Y0236630D02*
X0410328Y0236630D01*
X0410328Y0233432D02*
X0402490Y0233432D01*
X0402699Y0230233D02*
X0410328Y0230233D01*
X0410328Y0227035D02*
X0404555Y0227035D01*
X0404840Y0223836D02*
X0410328Y0223836D01*
X0410328Y0220638D02*
X0403812Y0220638D01*
X0400319Y0217439D02*
X0410328Y0217439D01*
X0410328Y0214241D02*
X0400768Y0214241D01*
X0403890Y0211042D02*
X0410328Y0211042D01*
X0410328Y0207844D02*
X0404840Y0207844D01*
X0404478Y0204645D02*
X0410328Y0204645D01*
X0410328Y0201447D02*
X0402513Y0201447D01*
X0392689Y0214241D02*
X0349511Y0214241D01*
X0351955Y0217439D02*
X0393138Y0217439D01*
X0389644Y0220638D02*
X0351867Y0220638D01*
X0349002Y0223836D02*
X0388617Y0223836D01*
X0358722Y0246226D02*
X0351452Y0246226D01*
X0352128Y0249424D02*
X0355340Y0249424D01*
X0304503Y0262218D02*
X0272953Y0262218D01*
X0276152Y0265417D02*
X0301305Y0265417D01*
X0298106Y0268615D02*
X0279350Y0268615D01*
X0282549Y0271814D02*
X0289824Y0271814D01*
X0294004Y0277933D02*
X0282728Y0277933D01*
X0260728Y0255933D01*
X0223728Y0255933D01*
X0217900Y0255821D02*
X0175976Y0255821D01*
X0175884Y0259020D02*
X0214702Y0259020D01*
X0211503Y0262218D02*
X0176953Y0262218D01*
X0180152Y0265417D02*
X0208305Y0265417D01*
X0205106Y0268615D02*
X0183350Y0268615D01*
X0186549Y0271814D02*
X0201908Y0271814D01*
X0213787Y0271814D02*
X0232383Y0271814D01*
X0223383Y0262218D02*
X0251821Y0262218D01*
X0257128Y0249424D02*
X0261926Y0249424D01*
X0263663Y0246226D02*
X0256452Y0246226D01*
X0301728Y0237933D02*
X0301728Y0224732D01*
X0251728Y0179933D02*
X0245728Y0185933D01*
X0223728Y0185933D01*
X0217728Y0179933D01*
X0197728Y0179933D01*
X0191728Y0185933D01*
X0198147Y0185454D02*
X0203083Y0185454D01*
X0210374Y0185454D02*
X0217310Y0185454D01*
X0220508Y0188653D02*
X0213822Y0188653D01*
X0222792Y0179057D02*
X0246328Y0179057D01*
X0247166Y0175859D02*
X0218867Y0175859D01*
X0196590Y0175859D02*
X0191291Y0175859D01*
X0192128Y0179057D02*
X0192665Y0179057D01*
X0256864Y0163065D02*
X0263593Y0163065D01*
X0263593Y0159866D02*
X0256864Y0159866D01*
X0256510Y0156668D02*
X0263947Y0156668D01*
X0265185Y0150271D02*
X0275765Y0150271D01*
X0282573Y0150271D02*
X0319924Y0150271D01*
X0319924Y0151072D02*
X0319924Y0145313D01*
X0317972Y0145313D01*
X0317016Y0144918D01*
X0316285Y0144186D01*
X0316142Y0143842D01*
X0315757Y0144002D01*
X0310392Y0144002D01*
X0309437Y0143606D01*
X0308705Y0142874D01*
X0308309Y0141919D01*
X0308309Y0136947D01*
X0308705Y0135992D01*
X0309437Y0135260D01*
X0310392Y0134865D01*
X0315757Y0134865D01*
X0316199Y0135047D01*
X0316285Y0134839D01*
X0317016Y0134108D01*
X0317132Y0134060D01*
X0316834Y0133936D01*
X0316103Y0133205D01*
X0315707Y0132249D01*
X0315707Y0127672D01*
X0316103Y0126716D01*
X0316834Y0125985D01*
X0317790Y0125589D01*
X0321186Y0125589D01*
X0321358Y0125660D01*
X0321530Y0125589D01*
X0324927Y0125589D01*
X0325098Y0125660D01*
X0325270Y0125589D01*
X0328667Y0125589D01*
X0329622Y0125985D01*
X0330354Y0126716D01*
X0330750Y0127672D01*
X0330750Y0132249D01*
X0330354Y0133205D01*
X0329741Y0133818D01*
X0330440Y0134108D01*
X0331172Y0134839D01*
X0331568Y0135795D01*
X0331568Y0143231D01*
X0331172Y0144186D01*
X0330440Y0144918D01*
X0329485Y0145313D01*
X0327532Y0145313D01*
X0327532Y0151072D01*
X0327136Y0152027D01*
X0326405Y0152758D01*
X0325449Y0153154D01*
X0322007Y0153154D01*
X0321052Y0152758D01*
X0320320Y0152027D01*
X0319924Y0151072D01*
X0319924Y0147072D02*
X0291825Y0147072D01*
X0291848Y0143874D02*
X0310083Y0143874D01*
X0308309Y0140675D02*
X0291037Y0140675D01*
X0283128Y0140675D02*
X0283029Y0140675D01*
X0268428Y0140675D02*
X0267373Y0140675D01*
X0260125Y0137477D02*
X0308309Y0137477D01*
X0316846Y0134278D02*
X0263323Y0134278D01*
X0266522Y0131079D02*
X0315707Y0131079D01*
X0315707Y0127881D02*
X0269720Y0127881D01*
X0272919Y0124682D02*
X0316635Y0124682D01*
X0316834Y0124881D02*
X0316103Y0124150D01*
X0315707Y0123194D01*
X0315707Y0118617D01*
X0316103Y0117661D01*
X0316834Y0116930D01*
X0317790Y0116534D01*
X0321186Y0116534D01*
X0321358Y0116605D01*
X0321530Y0116534D01*
X0324927Y0116534D01*
X0325098Y0116605D01*
X0325270Y0116534D01*
X0328667Y0116534D01*
X0329622Y0116930D01*
X0330354Y0117661D01*
X0330750Y0118617D01*
X0330750Y0123194D01*
X0330354Y0124150D01*
X0329622Y0124881D01*
X0328667Y0125277D01*
X0325270Y0125277D01*
X0325098Y0125206D01*
X0324927Y0125277D01*
X0321530Y0125277D01*
X0321358Y0125206D01*
X0321186Y0125277D01*
X0317790Y0125277D01*
X0316834Y0124881D01*
X0315707Y0121484D02*
X0276117Y0121484D01*
X0279316Y0118285D02*
X0315844Y0118285D01*
X0314309Y0111888D02*
X0285713Y0111888D01*
X0288911Y0108690D02*
X0314309Y0108690D01*
X0330612Y0118285D02*
X0410328Y0118285D01*
X0410328Y0115087D02*
X0282514Y0115087D01*
X0277032Y0108690D02*
X0257832Y0108690D01*
X0257832Y0105491D02*
X0280230Y0105491D01*
X0283429Y0102293D02*
X0256583Y0102293D01*
X0255128Y0099094D02*
X0286627Y0099094D01*
X0289826Y0095896D02*
X0256297Y0095896D01*
X0256297Y0092697D02*
X0293024Y0092697D01*
X0296223Y0089499D02*
X0256297Y0089499D01*
X0256297Y0086300D02*
X0299421Y0086300D01*
X0302620Y0083102D02*
X0255328Y0083102D01*
X0248128Y0083102D02*
X0217732Y0083102D01*
X0217925Y0086300D02*
X0247160Y0086300D01*
X0247160Y0089499D02*
X0217328Y0089499D01*
X0217328Y0092697D02*
X0247160Y0092697D01*
X0247160Y0095896D02*
X0217328Y0095896D01*
X0217328Y0099094D02*
X0248328Y0099094D01*
X0246874Y0102293D02*
X0217328Y0102293D01*
X0216261Y0105491D02*
X0245624Y0105491D01*
X0245624Y0108690D02*
X0213063Y0108690D01*
X0209864Y0111888D02*
X0246709Y0111888D01*
X0256748Y0111888D02*
X0273833Y0111888D01*
X0270635Y0115087D02*
X0206666Y0115087D01*
X0202880Y0108690D02*
X0192982Y0108690D01*
X0190474Y0108690D02*
X0162832Y0108690D01*
X0161748Y0111888D02*
X0187399Y0111888D01*
X0187858Y0115087D02*
X0031828Y0115087D01*
X0031828Y0118285D02*
X0267436Y0118285D01*
X0264238Y0121484D02*
X0031828Y0121484D01*
X0031828Y0124682D02*
X0261039Y0124682D01*
X0257841Y0127881D02*
X0031828Y0127881D01*
X0031828Y0131079D02*
X0254642Y0131079D01*
X0251444Y0134278D02*
X0031828Y0134278D01*
X0066291Y0175859D02*
X0087166Y0175859D01*
X0086328Y0179057D02*
X0068792Y0179057D01*
X0062728Y0178933D02*
X0069728Y0185933D01*
X0095728Y0185933D01*
X0111728Y0192724D02*
X0111728Y0207134D01*
X0072528Y0207134D01*
X0063728Y0215933D01*
X0063728Y0216933D01*
X0058946Y0214241D02*
X0045976Y0214241D01*
X0049174Y0217439D02*
X0056502Y0217439D01*
X0056590Y0220638D02*
X0052373Y0220638D01*
X0055571Y0223836D02*
X0059455Y0223836D01*
X0054728Y0228933D02*
X0037728Y0211933D01*
X0037728Y0202933D01*
X0033798Y0201447D02*
X0031828Y0201447D01*
X0031828Y0204645D02*
X0033528Y0204645D01*
X0033528Y0207844D02*
X0031828Y0207844D01*
X0031828Y0211042D02*
X0033528Y0211042D01*
X0034138Y0214241D02*
X0031828Y0214241D01*
X0031828Y0217439D02*
X0037295Y0217439D01*
X0040493Y0220638D02*
X0031828Y0220638D01*
X0031828Y0223836D02*
X0036985Y0223836D01*
X0054728Y0228933D02*
X0054728Y0242933D01*
X0046728Y0250933D01*
X0046728Y0275933D01*
X0049012Y0278217D01*
X0039169Y0278217D01*
X0049169Y0278374D01*
X0071728Y0300933D01*
X0121453Y0300933D01*
X0124603Y0303799D02*
X0163655Y0303799D01*
X0160456Y0300601D02*
X0125722Y0300601D01*
X0126105Y0297402D02*
X0157258Y0297402D01*
X0154059Y0294204D02*
X0126487Y0294204D01*
X0126870Y0291005D02*
X0150861Y0291005D01*
X0147662Y0287807D02*
X0127252Y0287807D01*
X0128526Y0284608D02*
X0144464Y0284608D01*
X0156343Y0284608D02*
X0174931Y0284608D01*
X0172384Y0281410D02*
X0158632Y0281410D01*
X0159328Y0278211D02*
X0171687Y0278211D01*
X0167580Y0275012D02*
X0158627Y0275012D01*
X0156074Y0271814D02*
X0164612Y0271814D01*
X0163813Y0268615D02*
X0119986Y0268615D01*
X0119824Y0271814D02*
X0116787Y0271814D01*
X0117270Y0275012D02*
X0113589Y0275012D01*
X0116569Y0278211D02*
X0110390Y0278211D01*
X0107192Y0281410D02*
X0117266Y0281410D01*
X0119175Y0284608D02*
X0098644Y0284608D01*
X0089931Y0284608D02*
X0071085Y0284608D01*
X0073632Y0281410D02*
X0087384Y0281410D01*
X0098633Y0271814D02*
X0104908Y0271814D01*
X0108106Y0268615D02*
X0094013Y0268615D01*
X0093415Y0265417D02*
X0111305Y0265417D01*
X0114503Y0262218D02*
X0091006Y0262218D01*
X0086540Y0259020D02*
X0117702Y0259020D01*
X0120900Y0255821D02*
X0084987Y0255821D01*
X0083433Y0252623D02*
X0124099Y0252623D01*
X0115823Y0246226D02*
X0152005Y0246226D01*
X0151328Y0249424D02*
X0081880Y0249424D01*
X0080249Y0246226D02*
X0107634Y0246226D01*
X0111728Y0239142D02*
X0111728Y0224732D01*
X0105944Y0201447D02*
X0041659Y0201447D01*
X0041928Y0204645D02*
X0069076Y0204645D01*
X0065878Y0207844D02*
X0041928Y0207844D01*
X0042777Y0211042D02*
X0062679Y0211042D01*
X0031828Y0198248D02*
X0105780Y0198248D01*
X0103911Y0195050D02*
X0031828Y0195050D01*
X0032055Y0235846D02*
X0032058Y0236055D01*
X0032065Y0236263D01*
X0032078Y0236471D01*
X0032096Y0236679D01*
X0032119Y0236886D01*
X0032147Y0237093D01*
X0032180Y0237299D01*
X0032218Y0237504D01*
X0032262Y0237708D01*
X0032310Y0237911D01*
X0032363Y0238113D01*
X0032421Y0238313D01*
X0032484Y0238512D01*
X0032552Y0238710D01*
X0032625Y0238905D01*
X0032702Y0239099D01*
X0032784Y0239291D01*
X0032871Y0239480D01*
X0032963Y0239668D01*
X0033059Y0239853D01*
X0033159Y0240036D01*
X0033264Y0240216D01*
X0033374Y0240393D01*
X0033488Y0240568D01*
X0033606Y0240740D01*
X0033728Y0240909D01*
X0033854Y0241075D01*
X0033984Y0241238D01*
X0034119Y0241398D01*
X0034257Y0241554D01*
X0034399Y0241707D01*
X0034545Y0241856D01*
X0034694Y0242002D01*
X0034847Y0242144D01*
X0035003Y0242282D01*
X0035163Y0242417D01*
X0035326Y0242547D01*
X0035492Y0242673D01*
X0035661Y0242795D01*
X0035833Y0242913D01*
X0036008Y0243027D01*
X0036185Y0243137D01*
X0036365Y0243242D01*
X0036548Y0243342D01*
X0036733Y0243438D01*
X0036921Y0243530D01*
X0037110Y0243617D01*
X0037302Y0243699D01*
X0037496Y0243776D01*
X0037691Y0243849D01*
X0037889Y0243917D01*
X0038088Y0243980D01*
X0038288Y0244038D01*
X0038490Y0244091D01*
X0038693Y0244139D01*
X0038897Y0244183D01*
X0039102Y0244221D01*
X0039308Y0244254D01*
X0039515Y0244282D01*
X0039722Y0244305D01*
X0039930Y0244323D01*
X0040138Y0244336D01*
X0040346Y0244343D01*
X0040555Y0244346D01*
X0040764Y0244343D01*
X0040972Y0244336D01*
X0041180Y0244323D01*
X0041388Y0244305D01*
X0041595Y0244282D01*
X0041802Y0244254D01*
X0042008Y0244221D01*
X0042213Y0244183D01*
X0042417Y0244139D01*
X0042620Y0244091D01*
X0042822Y0244038D01*
X0043022Y0243980D01*
X0043221Y0243917D01*
X0043419Y0243849D01*
X0043614Y0243776D01*
X0043808Y0243699D01*
X0044000Y0243617D01*
X0044189Y0243530D01*
X0044377Y0243438D01*
X0044562Y0243342D01*
X0044745Y0243242D01*
X0044925Y0243137D01*
X0045102Y0243027D01*
X0045277Y0242913D01*
X0045449Y0242795D01*
X0045618Y0242673D01*
X0045784Y0242547D01*
X0045947Y0242417D01*
X0046107Y0242282D01*
X0046263Y0242144D01*
X0046416Y0242002D01*
X0046565Y0241856D01*
X0046711Y0241707D01*
X0046853Y0241554D01*
X0046991Y0241398D01*
X0047126Y0241238D01*
X0047256Y0241075D01*
X0047382Y0240909D01*
X0047504Y0240740D01*
X0047622Y0240568D01*
X0047736Y0240393D01*
X0047846Y0240216D01*
X0047951Y0240036D01*
X0048051Y0239853D01*
X0048147Y0239668D01*
X0048239Y0239480D01*
X0048326Y0239291D01*
X0048408Y0239099D01*
X0048485Y0238905D01*
X0048558Y0238710D01*
X0048626Y0238512D01*
X0048689Y0238313D01*
X0048747Y0238113D01*
X0048800Y0237911D01*
X0048848Y0237708D01*
X0048892Y0237504D01*
X0048930Y0237299D01*
X0048963Y0237093D01*
X0048991Y0236886D01*
X0049014Y0236679D01*
X0049032Y0236471D01*
X0049045Y0236263D01*
X0049052Y0236055D01*
X0049055Y0235846D01*
X0049052Y0235637D01*
X0049045Y0235429D01*
X0049032Y0235221D01*
X0049014Y0235013D01*
X0048991Y0234806D01*
X0048963Y0234599D01*
X0048930Y0234393D01*
X0048892Y0234188D01*
X0048848Y0233984D01*
X0048800Y0233781D01*
X0048747Y0233579D01*
X0048689Y0233379D01*
X0048626Y0233180D01*
X0048558Y0232982D01*
X0048485Y0232787D01*
X0048408Y0232593D01*
X0048326Y0232401D01*
X0048239Y0232212D01*
X0048147Y0232024D01*
X0048051Y0231839D01*
X0047951Y0231656D01*
X0047846Y0231476D01*
X0047736Y0231299D01*
X0047622Y0231124D01*
X0047504Y0230952D01*
X0047382Y0230783D01*
X0047256Y0230617D01*
X0047126Y0230454D01*
X0046991Y0230294D01*
X0046853Y0230138D01*
X0046711Y0229985D01*
X0046565Y0229836D01*
X0046416Y0229690D01*
X0046263Y0229548D01*
X0046107Y0229410D01*
X0045947Y0229275D01*
X0045784Y0229145D01*
X0045618Y0229019D01*
X0045449Y0228897D01*
X0045277Y0228779D01*
X0045102Y0228665D01*
X0044925Y0228555D01*
X0044745Y0228450D01*
X0044562Y0228350D01*
X0044377Y0228254D01*
X0044189Y0228162D01*
X0044000Y0228075D01*
X0043808Y0227993D01*
X0043614Y0227916D01*
X0043419Y0227843D01*
X0043221Y0227775D01*
X0043022Y0227712D01*
X0042822Y0227654D01*
X0042620Y0227601D01*
X0042417Y0227553D01*
X0042213Y0227509D01*
X0042008Y0227471D01*
X0041802Y0227438D01*
X0041595Y0227410D01*
X0041388Y0227387D01*
X0041180Y0227369D01*
X0040972Y0227356D01*
X0040764Y0227349D01*
X0040555Y0227346D01*
X0040346Y0227349D01*
X0040138Y0227356D01*
X0039930Y0227369D01*
X0039722Y0227387D01*
X0039515Y0227410D01*
X0039308Y0227438D01*
X0039102Y0227471D01*
X0038897Y0227509D01*
X0038693Y0227553D01*
X0038490Y0227601D01*
X0038288Y0227654D01*
X0038088Y0227712D01*
X0037889Y0227775D01*
X0037691Y0227843D01*
X0037496Y0227916D01*
X0037302Y0227993D01*
X0037110Y0228075D01*
X0036921Y0228162D01*
X0036733Y0228254D01*
X0036548Y0228350D01*
X0036365Y0228450D01*
X0036185Y0228555D01*
X0036008Y0228665D01*
X0035833Y0228779D01*
X0035661Y0228897D01*
X0035492Y0229019D01*
X0035326Y0229145D01*
X0035163Y0229275D01*
X0035003Y0229410D01*
X0034847Y0229548D01*
X0034694Y0229690D01*
X0034545Y0229836D01*
X0034399Y0229985D01*
X0034257Y0230138D01*
X0034119Y0230294D01*
X0033984Y0230454D01*
X0033854Y0230617D01*
X0033728Y0230783D01*
X0033606Y0230952D01*
X0033488Y0231124D01*
X0033374Y0231299D01*
X0033264Y0231476D01*
X0033159Y0231656D01*
X0033059Y0231839D01*
X0032963Y0232024D01*
X0032871Y0232212D01*
X0032784Y0232401D01*
X0032702Y0232593D01*
X0032625Y0232787D01*
X0032552Y0232982D01*
X0032484Y0233180D01*
X0032421Y0233379D01*
X0032363Y0233579D01*
X0032310Y0233781D01*
X0032262Y0233984D01*
X0032218Y0234188D01*
X0032180Y0234393D01*
X0032147Y0234599D01*
X0032119Y0234806D01*
X0032096Y0235013D01*
X0032078Y0235221D01*
X0032065Y0235429D01*
X0032058Y0235637D01*
X0032055Y0235846D01*
X0031828Y0244851D02*
X0031828Y0276079D01*
X0032726Y0273911D01*
X0034864Y0271774D01*
X0037658Y0270617D01*
X0040681Y0270617D01*
X0042528Y0271382D01*
X0042528Y0250098D01*
X0043168Y0248554D01*
X0043716Y0248006D01*
X0042760Y0248354D01*
X0038350Y0248354D01*
X0034205Y0246845D01*
X0031828Y0244851D01*
X0031828Y0246226D02*
X0033467Y0246226D01*
X0034205Y0246845D02*
X0034205Y0246845D01*
X0031828Y0249424D02*
X0042807Y0249424D01*
X0042528Y0252623D02*
X0031828Y0252623D01*
X0031828Y0255821D02*
X0042528Y0255821D01*
X0042528Y0259020D02*
X0031828Y0259020D01*
X0031828Y0262218D02*
X0042528Y0262218D01*
X0042528Y0265417D02*
X0031828Y0265417D01*
X0031828Y0268615D02*
X0042528Y0268615D01*
X0034824Y0271814D02*
X0031828Y0271814D01*
X0031828Y0275012D02*
X0032270Y0275012D01*
X0032266Y0281410D02*
X0031828Y0281410D01*
X0031828Y0284608D02*
X0034813Y0284608D01*
X0031828Y0287807D02*
X0052662Y0287807D01*
X0055861Y0291005D02*
X0031828Y0291005D01*
X0031828Y0294204D02*
X0059059Y0294204D01*
X0062258Y0297402D02*
X0031828Y0297402D01*
X0031828Y0300601D02*
X0065456Y0300601D01*
X0068655Y0303799D02*
X0031828Y0303799D01*
X0031828Y0313395D02*
X0050396Y0313395D01*
X0049286Y0316593D02*
X0031828Y0316593D01*
X0031828Y0319792D02*
X0049573Y0319792D01*
X0051541Y0322990D02*
X0031828Y0322990D01*
X0062230Y0322990D02*
X0071226Y0322990D01*
X0069258Y0319792D02*
X0064199Y0319792D01*
X0064486Y0316593D02*
X0068971Y0316593D01*
X0070081Y0313395D02*
X0063376Y0313395D01*
X0083061Y0313395D02*
X0135396Y0313395D01*
X0134286Y0316593D02*
X0084171Y0316593D01*
X0083884Y0319792D02*
X0134573Y0319792D01*
X0136541Y0322990D02*
X0081915Y0322990D01*
X0147230Y0322990D02*
X0156226Y0322990D01*
X0154258Y0319792D02*
X0149199Y0319792D01*
X0149486Y0316593D02*
X0153971Y0316593D01*
X0155081Y0313395D02*
X0148376Y0313395D01*
X0168061Y0313395D02*
X0220396Y0313395D01*
X0219286Y0316593D02*
X0169171Y0316593D01*
X0168884Y0319792D02*
X0219573Y0319792D01*
X0221541Y0322990D02*
X0166915Y0322990D01*
X0165939Y0294204D02*
X0209885Y0294204D01*
X0208859Y0291005D02*
X0162740Y0291005D01*
X0159541Y0287807D02*
X0207833Y0287807D01*
X0215629Y0284608D02*
X0232372Y0284608D01*
X0242662Y0287807D02*
X0216655Y0287807D01*
X0217680Y0291005D02*
X0245861Y0291005D01*
X0249059Y0294204D02*
X0218706Y0294204D01*
X0219731Y0297402D02*
X0252258Y0297402D01*
X0255456Y0300601D02*
X0220695Y0300601D01*
X0219567Y0303799D02*
X0258655Y0303799D01*
X0240081Y0313395D02*
X0233376Y0313395D01*
X0234486Y0316593D02*
X0238971Y0316593D01*
X0239258Y0319792D02*
X0234199Y0319792D01*
X0232230Y0322990D02*
X0241226Y0322990D01*
X0268644Y0284608D02*
X0289813Y0284608D01*
X0294004Y0277933D02*
X0264287Y0278217D01*
X0294445Y0278217D01*
X0202634Y0246226D02*
X0175193Y0246226D01*
X0171972Y0248933D02*
X0171413Y0268374D01*
X0164412Y0265417D02*
X0123184Y0265417D01*
X0126383Y0262218D02*
X0165074Y0262218D01*
X0167358Y0252623D02*
X0167665Y0252623D01*
X0167757Y0249424D02*
X0162128Y0249424D01*
X0161452Y0246226D02*
X0168722Y0246226D01*
X0147383Y0271814D02*
X0128515Y0271814D01*
X0086413Y0268374D02*
X0076972Y0248933D01*
X0073759Y0246226D02*
X0066452Y0246226D01*
X0067128Y0249424D02*
X0072794Y0249424D01*
X0074095Y0252623D02*
X0065675Y0252623D01*
X0057781Y0252623D02*
X0050978Y0252623D01*
X0050928Y0255821D02*
X0075649Y0255821D01*
X0077202Y0259020D02*
X0050928Y0259020D01*
X0050928Y0262218D02*
X0078755Y0262218D01*
X0079412Y0265417D02*
X0050928Y0265417D01*
X0050928Y0268615D02*
X0078813Y0268615D01*
X0056328Y0249424D02*
X0054177Y0249424D01*
X0049464Y0284608D02*
X0043526Y0284608D01*
X0283147Y0153469D02*
X0343328Y0153469D01*
X0343272Y0150271D02*
X0327532Y0150271D01*
X0327532Y0147072D02*
X0340624Y0147072D01*
X0340624Y0143874D02*
X0331301Y0143874D01*
X0331568Y0140675D02*
X0341083Y0140675D01*
X0331568Y0137477D02*
X0410328Y0137477D01*
X0410328Y0140675D02*
X0386037Y0140675D01*
X0386848Y0143874D02*
X0410328Y0143874D01*
X0410328Y0147072D02*
X0386825Y0147072D01*
X0377573Y0150271D02*
X0410328Y0150271D01*
X0410328Y0153469D02*
X0378147Y0153469D01*
X0377863Y0156668D02*
X0410328Y0156668D01*
X0410328Y0159866D02*
X0380706Y0159866D01*
X0380706Y0163065D02*
X0410328Y0163065D01*
X0410328Y0166263D02*
X0367105Y0166263D01*
X0360281Y0166263D02*
X0350176Y0166263D01*
X0350164Y0169462D02*
X0410328Y0169462D01*
X0410328Y0172660D02*
X0350164Y0172660D01*
X0342166Y0175859D02*
X0312867Y0175859D01*
X0316792Y0179057D02*
X0341328Y0179057D01*
X0341825Y0182256D02*
X0342414Y0182256D01*
X0351864Y0163065D02*
X0358593Y0163065D01*
X0358593Y0159866D02*
X0351864Y0159866D01*
X0351510Y0156668D02*
X0358947Y0156668D01*
X0350128Y0153469D02*
X0370191Y0153469D01*
X0370475Y0156668D02*
X0368439Y0156668D01*
X0370765Y0150271D02*
X0360185Y0150271D01*
X0353272Y0150271D02*
X0350185Y0150271D01*
X0362373Y0140675D02*
X0363428Y0140675D01*
X0378029Y0140675D02*
X0378128Y0140675D01*
X0410328Y0134278D02*
X0330611Y0134278D01*
X0330750Y0131079D02*
X0410328Y0131079D01*
X0410328Y0127881D02*
X0330750Y0127881D01*
X0329821Y0124682D02*
X0410328Y0124682D01*
X0410328Y0121484D02*
X0330750Y0121484D01*
X0316155Y0143874D02*
X0316066Y0143874D01*
X0290590Y0175859D02*
X0286291Y0175859D01*
X0278457Y0051096D02*
X0278457Y0051096D01*
X0260228Y0042933D02*
X0260231Y0043142D01*
X0260238Y0043350D01*
X0260251Y0043558D01*
X0260269Y0043766D01*
X0260292Y0043973D01*
X0260320Y0044180D01*
X0260353Y0044386D01*
X0260391Y0044591D01*
X0260435Y0044795D01*
X0260483Y0044998D01*
X0260536Y0045200D01*
X0260594Y0045400D01*
X0260657Y0045599D01*
X0260725Y0045797D01*
X0260798Y0045992D01*
X0260875Y0046186D01*
X0260957Y0046378D01*
X0261044Y0046567D01*
X0261136Y0046755D01*
X0261232Y0046940D01*
X0261332Y0047123D01*
X0261437Y0047303D01*
X0261547Y0047480D01*
X0261661Y0047655D01*
X0261779Y0047827D01*
X0261901Y0047996D01*
X0262027Y0048162D01*
X0262157Y0048325D01*
X0262292Y0048485D01*
X0262430Y0048641D01*
X0262572Y0048794D01*
X0262718Y0048943D01*
X0262867Y0049089D01*
X0263020Y0049231D01*
X0263176Y0049369D01*
X0263336Y0049504D01*
X0263499Y0049634D01*
X0263665Y0049760D01*
X0263834Y0049882D01*
X0264006Y0050000D01*
X0264181Y0050114D01*
X0264358Y0050224D01*
X0264538Y0050329D01*
X0264721Y0050429D01*
X0264906Y0050525D01*
X0265094Y0050617D01*
X0265283Y0050704D01*
X0265475Y0050786D01*
X0265669Y0050863D01*
X0265864Y0050936D01*
X0266062Y0051004D01*
X0266261Y0051067D01*
X0266461Y0051125D01*
X0266663Y0051178D01*
X0266866Y0051226D01*
X0267070Y0051270D01*
X0267275Y0051308D01*
X0267481Y0051341D01*
X0267688Y0051369D01*
X0267895Y0051392D01*
X0268103Y0051410D01*
X0268311Y0051423D01*
X0268519Y0051430D01*
X0268728Y0051433D01*
X0268937Y0051430D01*
X0269145Y0051423D01*
X0269353Y0051410D01*
X0269561Y0051392D01*
X0269768Y0051369D01*
X0269975Y0051341D01*
X0270181Y0051308D01*
X0270386Y0051270D01*
X0270590Y0051226D01*
X0270793Y0051178D01*
X0270995Y0051125D01*
X0271195Y0051067D01*
X0271394Y0051004D01*
X0271592Y0050936D01*
X0271787Y0050863D01*
X0271981Y0050786D01*
X0272173Y0050704D01*
X0272362Y0050617D01*
X0272550Y0050525D01*
X0272735Y0050429D01*
X0272918Y0050329D01*
X0273098Y0050224D01*
X0273275Y0050114D01*
X0273450Y0050000D01*
X0273622Y0049882D01*
X0273791Y0049760D01*
X0273957Y0049634D01*
X0274120Y0049504D01*
X0274280Y0049369D01*
X0274436Y0049231D01*
X0274589Y0049089D01*
X0274738Y0048943D01*
X0274884Y0048794D01*
X0275026Y0048641D01*
X0275164Y0048485D01*
X0275299Y0048325D01*
X0275429Y0048162D01*
X0275555Y0047996D01*
X0275677Y0047827D01*
X0275795Y0047655D01*
X0275909Y0047480D01*
X0276019Y0047303D01*
X0276124Y0047123D01*
X0276224Y0046940D01*
X0276320Y0046755D01*
X0276412Y0046567D01*
X0276499Y0046378D01*
X0276581Y0046186D01*
X0276658Y0045992D01*
X0276731Y0045797D01*
X0276799Y0045599D01*
X0276862Y0045400D01*
X0276920Y0045200D01*
X0276973Y0044998D01*
X0277021Y0044795D01*
X0277065Y0044591D01*
X0277103Y0044386D01*
X0277136Y0044180D01*
X0277164Y0043973D01*
X0277187Y0043766D01*
X0277205Y0043558D01*
X0277218Y0043350D01*
X0277225Y0043142D01*
X0277228Y0042933D01*
X0277225Y0042724D01*
X0277218Y0042516D01*
X0277205Y0042308D01*
X0277187Y0042100D01*
X0277164Y0041893D01*
X0277136Y0041686D01*
X0277103Y0041480D01*
X0277065Y0041275D01*
X0277021Y0041071D01*
X0276973Y0040868D01*
X0276920Y0040666D01*
X0276862Y0040466D01*
X0276799Y0040267D01*
X0276731Y0040069D01*
X0276658Y0039874D01*
X0276581Y0039680D01*
X0276499Y0039488D01*
X0276412Y0039299D01*
X0276320Y0039111D01*
X0276224Y0038926D01*
X0276124Y0038743D01*
X0276019Y0038563D01*
X0275909Y0038386D01*
X0275795Y0038211D01*
X0275677Y0038039D01*
X0275555Y0037870D01*
X0275429Y0037704D01*
X0275299Y0037541D01*
X0275164Y0037381D01*
X0275026Y0037225D01*
X0274884Y0037072D01*
X0274738Y0036923D01*
X0274589Y0036777D01*
X0274436Y0036635D01*
X0274280Y0036497D01*
X0274120Y0036362D01*
X0273957Y0036232D01*
X0273791Y0036106D01*
X0273622Y0035984D01*
X0273450Y0035866D01*
X0273275Y0035752D01*
X0273098Y0035642D01*
X0272918Y0035537D01*
X0272735Y0035437D01*
X0272550Y0035341D01*
X0272362Y0035249D01*
X0272173Y0035162D01*
X0271981Y0035080D01*
X0271787Y0035003D01*
X0271592Y0034930D01*
X0271394Y0034862D01*
X0271195Y0034799D01*
X0270995Y0034741D01*
X0270793Y0034688D01*
X0270590Y0034640D01*
X0270386Y0034596D01*
X0270181Y0034558D01*
X0269975Y0034525D01*
X0269768Y0034497D01*
X0269561Y0034474D01*
X0269353Y0034456D01*
X0269145Y0034443D01*
X0268937Y0034436D01*
X0268728Y0034433D01*
X0268519Y0034436D01*
X0268311Y0034443D01*
X0268103Y0034456D01*
X0267895Y0034474D01*
X0267688Y0034497D01*
X0267481Y0034525D01*
X0267275Y0034558D01*
X0267070Y0034596D01*
X0266866Y0034640D01*
X0266663Y0034688D01*
X0266461Y0034741D01*
X0266261Y0034799D01*
X0266062Y0034862D01*
X0265864Y0034930D01*
X0265669Y0035003D01*
X0265475Y0035080D01*
X0265283Y0035162D01*
X0265094Y0035249D01*
X0264906Y0035341D01*
X0264721Y0035437D01*
X0264538Y0035537D01*
X0264358Y0035642D01*
X0264181Y0035752D01*
X0264006Y0035866D01*
X0263834Y0035984D01*
X0263665Y0036106D01*
X0263499Y0036232D01*
X0263336Y0036362D01*
X0263176Y0036497D01*
X0263020Y0036635D01*
X0262867Y0036777D01*
X0262718Y0036923D01*
X0262572Y0037072D01*
X0262430Y0037225D01*
X0262292Y0037381D01*
X0262157Y0037541D01*
X0262027Y0037704D01*
X0261901Y0037870D01*
X0261779Y0038039D01*
X0261661Y0038211D01*
X0261547Y0038386D01*
X0261437Y0038563D01*
X0261332Y0038743D01*
X0261232Y0038926D01*
X0261136Y0039111D01*
X0261044Y0039299D01*
X0260957Y0039488D01*
X0260875Y0039680D01*
X0260798Y0039874D01*
X0260725Y0040069D01*
X0260657Y0040267D01*
X0260594Y0040466D01*
X0260536Y0040666D01*
X0260483Y0040868D01*
X0260435Y0041071D01*
X0260391Y0041275D01*
X0260353Y0041480D01*
X0260320Y0041686D01*
X0260292Y0041893D01*
X0260269Y0042100D01*
X0260251Y0042308D01*
X0260238Y0042516D01*
X0260231Y0042724D01*
X0260228Y0042933D01*
X0059890Y0079903D02*
X0031828Y0079903D01*
X0031828Y0076705D02*
X0056692Y0076705D01*
X0059846Y0079859D02*
X0059846Y0079859D01*
X0053493Y0073506D02*
X0031828Y0073506D01*
X0031828Y0070308D02*
X0050295Y0070308D01*
X0049328Y0067109D02*
X0031828Y0067109D01*
X0031828Y0063911D02*
X0049328Y0063911D01*
X0049328Y0060712D02*
X0031828Y0060712D01*
X0031828Y0057514D02*
X0049328Y0057514D01*
X0049328Y0054315D02*
X0046024Y0054315D01*
X0047078Y0053932D02*
X0047078Y0053932D01*
X0035432Y0054315D02*
X0031828Y0054315D01*
X0034378Y0053932D02*
X0034378Y0053932D01*
X0032228Y0042933D02*
X0032231Y0043142D01*
X0032238Y0043350D01*
X0032251Y0043558D01*
X0032269Y0043766D01*
X0032292Y0043973D01*
X0032320Y0044180D01*
X0032353Y0044386D01*
X0032391Y0044591D01*
X0032435Y0044795D01*
X0032483Y0044998D01*
X0032536Y0045200D01*
X0032594Y0045400D01*
X0032657Y0045599D01*
X0032725Y0045797D01*
X0032798Y0045992D01*
X0032875Y0046186D01*
X0032957Y0046378D01*
X0033044Y0046567D01*
X0033136Y0046755D01*
X0033232Y0046940D01*
X0033332Y0047123D01*
X0033437Y0047303D01*
X0033547Y0047480D01*
X0033661Y0047655D01*
X0033779Y0047827D01*
X0033901Y0047996D01*
X0034027Y0048162D01*
X0034157Y0048325D01*
X0034292Y0048485D01*
X0034430Y0048641D01*
X0034572Y0048794D01*
X0034718Y0048943D01*
X0034867Y0049089D01*
X0035020Y0049231D01*
X0035176Y0049369D01*
X0035336Y0049504D01*
X0035499Y0049634D01*
X0035665Y0049760D01*
X0035834Y0049882D01*
X0036006Y0050000D01*
X0036181Y0050114D01*
X0036358Y0050224D01*
X0036538Y0050329D01*
X0036721Y0050429D01*
X0036906Y0050525D01*
X0037094Y0050617D01*
X0037283Y0050704D01*
X0037475Y0050786D01*
X0037669Y0050863D01*
X0037864Y0050936D01*
X0038062Y0051004D01*
X0038261Y0051067D01*
X0038461Y0051125D01*
X0038663Y0051178D01*
X0038866Y0051226D01*
X0039070Y0051270D01*
X0039275Y0051308D01*
X0039481Y0051341D01*
X0039688Y0051369D01*
X0039895Y0051392D01*
X0040103Y0051410D01*
X0040311Y0051423D01*
X0040519Y0051430D01*
X0040728Y0051433D01*
X0040937Y0051430D01*
X0041145Y0051423D01*
X0041353Y0051410D01*
X0041561Y0051392D01*
X0041768Y0051369D01*
X0041975Y0051341D01*
X0042181Y0051308D01*
X0042386Y0051270D01*
X0042590Y0051226D01*
X0042793Y0051178D01*
X0042995Y0051125D01*
X0043195Y0051067D01*
X0043394Y0051004D01*
X0043592Y0050936D01*
X0043787Y0050863D01*
X0043981Y0050786D01*
X0044173Y0050704D01*
X0044362Y0050617D01*
X0044550Y0050525D01*
X0044735Y0050429D01*
X0044918Y0050329D01*
X0045098Y0050224D01*
X0045275Y0050114D01*
X0045450Y0050000D01*
X0045622Y0049882D01*
X0045791Y0049760D01*
X0045957Y0049634D01*
X0046120Y0049504D01*
X0046280Y0049369D01*
X0046436Y0049231D01*
X0046589Y0049089D01*
X0046738Y0048943D01*
X0046884Y0048794D01*
X0047026Y0048641D01*
X0047164Y0048485D01*
X0047299Y0048325D01*
X0047429Y0048162D01*
X0047555Y0047996D01*
X0047677Y0047827D01*
X0047795Y0047655D01*
X0047909Y0047480D01*
X0048019Y0047303D01*
X0048124Y0047123D01*
X0048224Y0046940D01*
X0048320Y0046755D01*
X0048412Y0046567D01*
X0048499Y0046378D01*
X0048581Y0046186D01*
X0048658Y0045992D01*
X0048731Y0045797D01*
X0048799Y0045599D01*
X0048862Y0045400D01*
X0048920Y0045200D01*
X0048973Y0044998D01*
X0049021Y0044795D01*
X0049065Y0044591D01*
X0049103Y0044386D01*
X0049136Y0044180D01*
X0049164Y0043973D01*
X0049187Y0043766D01*
X0049205Y0043558D01*
X0049218Y0043350D01*
X0049225Y0043142D01*
X0049228Y0042933D01*
X0049225Y0042724D01*
X0049218Y0042516D01*
X0049205Y0042308D01*
X0049187Y0042100D01*
X0049164Y0041893D01*
X0049136Y0041686D01*
X0049103Y0041480D01*
X0049065Y0041275D01*
X0049021Y0041071D01*
X0048973Y0040868D01*
X0048920Y0040666D01*
X0048862Y0040466D01*
X0048799Y0040267D01*
X0048731Y0040069D01*
X0048658Y0039874D01*
X0048581Y0039680D01*
X0048499Y0039488D01*
X0048412Y0039299D01*
X0048320Y0039111D01*
X0048224Y0038926D01*
X0048124Y0038743D01*
X0048019Y0038563D01*
X0047909Y0038386D01*
X0047795Y0038211D01*
X0047677Y0038039D01*
X0047555Y0037870D01*
X0047429Y0037704D01*
X0047299Y0037541D01*
X0047164Y0037381D01*
X0047026Y0037225D01*
X0046884Y0037072D01*
X0046738Y0036923D01*
X0046589Y0036777D01*
X0046436Y0036635D01*
X0046280Y0036497D01*
X0046120Y0036362D01*
X0045957Y0036232D01*
X0045791Y0036106D01*
X0045622Y0035984D01*
X0045450Y0035866D01*
X0045275Y0035752D01*
X0045098Y0035642D01*
X0044918Y0035537D01*
X0044735Y0035437D01*
X0044550Y0035341D01*
X0044362Y0035249D01*
X0044173Y0035162D01*
X0043981Y0035080D01*
X0043787Y0035003D01*
X0043592Y0034930D01*
X0043394Y0034862D01*
X0043195Y0034799D01*
X0042995Y0034741D01*
X0042793Y0034688D01*
X0042590Y0034640D01*
X0042386Y0034596D01*
X0042181Y0034558D01*
X0041975Y0034525D01*
X0041768Y0034497D01*
X0041561Y0034474D01*
X0041353Y0034456D01*
X0041145Y0034443D01*
X0040937Y0034436D01*
X0040728Y0034433D01*
X0040519Y0034436D01*
X0040311Y0034443D01*
X0040103Y0034456D01*
X0039895Y0034474D01*
X0039688Y0034497D01*
X0039481Y0034525D01*
X0039275Y0034558D01*
X0039070Y0034596D01*
X0038866Y0034640D01*
X0038663Y0034688D01*
X0038461Y0034741D01*
X0038261Y0034799D01*
X0038062Y0034862D01*
X0037864Y0034930D01*
X0037669Y0035003D01*
X0037475Y0035080D01*
X0037283Y0035162D01*
X0037094Y0035249D01*
X0036906Y0035341D01*
X0036721Y0035437D01*
X0036538Y0035537D01*
X0036358Y0035642D01*
X0036181Y0035752D01*
X0036006Y0035866D01*
X0035834Y0035984D01*
X0035665Y0036106D01*
X0035499Y0036232D01*
X0035336Y0036362D01*
X0035176Y0036497D01*
X0035020Y0036635D01*
X0034867Y0036777D01*
X0034718Y0036923D01*
X0034572Y0037072D01*
X0034430Y0037225D01*
X0034292Y0037381D01*
X0034157Y0037541D01*
X0034027Y0037704D01*
X0033901Y0037870D01*
X0033779Y0038039D01*
X0033661Y0038211D01*
X0033547Y0038386D01*
X0033437Y0038563D01*
X0033332Y0038743D01*
X0033232Y0038926D01*
X0033136Y0039111D01*
X0033044Y0039299D01*
X0032957Y0039488D01*
X0032875Y0039680D01*
X0032798Y0039874D01*
X0032725Y0040069D01*
X0032657Y0040267D01*
X0032594Y0040466D01*
X0032536Y0040666D01*
X0032483Y0040868D01*
X0032435Y0041071D01*
X0032391Y0041275D01*
X0032353Y0041480D01*
X0032320Y0041686D01*
X0032292Y0041893D01*
X0032269Y0042100D01*
X0032251Y0042308D01*
X0032238Y0042516D01*
X0032231Y0042724D01*
X0032228Y0042933D01*
X0031828Y0031926D02*
X0034403Y0031926D01*
D11*
X0061764Y0160933D03*
X0078693Y0160933D03*
X0156764Y0160933D03*
X0173693Y0160933D03*
X0251764Y0160933D03*
X0268693Y0160933D03*
X0346764Y0160933D03*
X0363693Y0160933D03*
X0426764Y0160933D03*
X0443693Y0160933D03*
X0496764Y0160933D03*
X0513693Y0160933D03*
X0566764Y0160933D03*
X0583693Y0160933D03*
X0646764Y0160933D03*
X0663693Y0160933D03*
D12*
X0667382Y0144533D03*
X0674075Y0144533D03*
X0682082Y0144533D03*
X0688775Y0144533D03*
X0608775Y0144533D03*
X0602082Y0144533D03*
X0594075Y0144533D03*
X0587382Y0144533D03*
X0538775Y0144533D03*
X0532082Y0144533D03*
X0524075Y0144533D03*
X0517382Y0144533D03*
X0468775Y0144533D03*
X0462082Y0144533D03*
X0454075Y0144533D03*
X0447382Y0144533D03*
X0388776Y0144531D03*
X0382083Y0144531D03*
X0374075Y0144531D03*
X0367382Y0144531D03*
X0313075Y0139433D03*
X0306382Y0139433D03*
X0293776Y0144531D03*
X0287083Y0144531D03*
X0279075Y0144531D03*
X0272382Y0144531D03*
X0312382Y0109933D03*
X0319075Y0109933D03*
G36*
X0349817Y0093438D02*
X0346756Y0090377D01*
X0343973Y0093160D01*
X0347034Y0096221D01*
X0349817Y0093438D01*
G37*
G36*
X0345084Y0088706D02*
X0342023Y0085645D01*
X0339240Y0088428D01*
X0342301Y0091489D01*
X0345084Y0088706D01*
G37*
X0198776Y0144531D03*
X0192083Y0144531D03*
X0184075Y0144531D03*
X0177382Y0144531D03*
X0103776Y0144531D03*
X0097083Y0144531D03*
X0089075Y0144531D03*
X0082382Y0144531D03*
G36*
X0061623Y0101421D02*
X0064684Y0098360D01*
X0061901Y0095577D01*
X0058840Y0098638D01*
X0061623Y0101421D01*
G37*
G36*
X0066356Y0096689D02*
X0069417Y0093628D01*
X0066634Y0090845D01*
X0063573Y0093906D01*
X0066356Y0096689D01*
G37*
D13*
X0089169Y0153693D03*
X0094287Y0153693D03*
X0091728Y0161173D03*
X0184169Y0153693D03*
X0189287Y0153693D03*
X0186728Y0161173D03*
X0279169Y0153693D03*
X0284287Y0153693D03*
X0281728Y0161173D03*
X0374169Y0153693D03*
X0379287Y0153693D03*
X0376728Y0161173D03*
X0454169Y0153693D03*
X0459287Y0153693D03*
X0456728Y0161173D03*
X0524169Y0153693D03*
X0529287Y0153693D03*
X0526728Y0161173D03*
X0594169Y0153693D03*
X0599287Y0153693D03*
X0596728Y0161173D03*
X0674169Y0153693D03*
X0679287Y0153693D03*
X0676728Y0161173D03*
D14*
X0659484Y0146937D02*
X0659484Y0142449D01*
X0653972Y0142449D01*
X0653972Y0146937D01*
X0659484Y0146937D01*
X0659484Y0143944D02*
X0653972Y0143944D01*
X0653972Y0145439D02*
X0659484Y0145439D01*
X0659484Y0146934D02*
X0653972Y0146934D01*
X0649484Y0146937D02*
X0649484Y0142449D01*
X0643972Y0142449D01*
X0643972Y0146937D01*
X0649484Y0146937D01*
X0649484Y0143944D02*
X0643972Y0143944D01*
X0643972Y0145439D02*
X0649484Y0145439D01*
X0649484Y0146934D02*
X0643972Y0146934D01*
X0579484Y0146937D02*
X0579484Y0142449D01*
X0573972Y0142449D01*
X0573972Y0146937D01*
X0579484Y0146937D01*
X0579484Y0143944D02*
X0573972Y0143944D01*
X0573972Y0145439D02*
X0579484Y0145439D01*
X0579484Y0146934D02*
X0573972Y0146934D01*
X0569484Y0146937D02*
X0569484Y0142449D01*
X0563972Y0142449D01*
X0563972Y0146937D01*
X0569484Y0146937D01*
X0569484Y0143944D02*
X0563972Y0143944D01*
X0563972Y0145439D02*
X0569484Y0145439D01*
X0569484Y0146934D02*
X0563972Y0146934D01*
X0509484Y0146937D02*
X0509484Y0142449D01*
X0503972Y0142449D01*
X0503972Y0146937D01*
X0509484Y0146937D01*
X0509484Y0143944D02*
X0503972Y0143944D01*
X0503972Y0145439D02*
X0509484Y0145439D01*
X0509484Y0146934D02*
X0503972Y0146934D01*
X0499484Y0146937D02*
X0499484Y0142449D01*
X0493972Y0142449D01*
X0493972Y0146937D01*
X0499484Y0146937D01*
X0499484Y0143944D02*
X0493972Y0143944D01*
X0493972Y0145439D02*
X0499484Y0145439D01*
X0499484Y0146934D02*
X0493972Y0146934D01*
X0439484Y0146937D02*
X0439484Y0142449D01*
X0433972Y0142449D01*
X0433972Y0146937D01*
X0439484Y0146937D01*
X0439484Y0143944D02*
X0433972Y0143944D01*
X0433972Y0145439D02*
X0439484Y0145439D01*
X0439484Y0146934D02*
X0433972Y0146934D01*
X0429484Y0146937D02*
X0429484Y0142449D01*
X0423972Y0142449D01*
X0423972Y0146937D01*
X0429484Y0146937D01*
X0429484Y0143944D02*
X0423972Y0143944D01*
X0423972Y0145439D02*
X0429484Y0145439D01*
X0429484Y0146934D02*
X0423972Y0146934D01*
X0359484Y0146937D02*
X0359484Y0142449D01*
X0353972Y0142449D01*
X0353972Y0146937D01*
X0359484Y0146937D01*
X0359484Y0143944D02*
X0353972Y0143944D01*
X0353972Y0145439D02*
X0359484Y0145439D01*
X0359484Y0146934D02*
X0353972Y0146934D01*
X0349484Y0146937D02*
X0349484Y0142449D01*
X0343972Y0142449D01*
X0343972Y0146937D01*
X0349484Y0146937D01*
X0349484Y0143944D02*
X0343972Y0143944D01*
X0343972Y0145439D02*
X0349484Y0145439D01*
X0349484Y0146934D02*
X0343972Y0146934D01*
X0349484Y0109417D02*
X0349484Y0104929D01*
X0343972Y0104929D01*
X0343972Y0109417D01*
X0349484Y0109417D01*
X0349484Y0106424D02*
X0343972Y0106424D01*
X0343972Y0107919D02*
X0349484Y0107919D01*
X0349484Y0109414D02*
X0343972Y0109414D01*
X0359484Y0109417D02*
X0359484Y0104929D01*
X0353972Y0104929D01*
X0353972Y0109417D01*
X0359484Y0109417D01*
X0359484Y0106424D02*
X0353972Y0106424D01*
X0353972Y0107919D02*
X0359484Y0107919D01*
X0359484Y0109414D02*
X0353972Y0109414D01*
X0429484Y0109417D02*
X0429484Y0104929D01*
X0423972Y0104929D01*
X0423972Y0109417D01*
X0429484Y0109417D01*
X0429484Y0106424D02*
X0423972Y0106424D01*
X0423972Y0107919D02*
X0429484Y0107919D01*
X0429484Y0109414D02*
X0423972Y0109414D01*
X0439484Y0109417D02*
X0439484Y0104929D01*
X0433972Y0104929D01*
X0433972Y0109417D01*
X0439484Y0109417D01*
X0439484Y0106424D02*
X0433972Y0106424D01*
X0433972Y0107919D02*
X0439484Y0107919D01*
X0439484Y0109414D02*
X0433972Y0109414D01*
X0499484Y0109417D02*
X0499484Y0104929D01*
X0493972Y0104929D01*
X0493972Y0109417D01*
X0499484Y0109417D01*
X0499484Y0106424D02*
X0493972Y0106424D01*
X0493972Y0107919D02*
X0499484Y0107919D01*
X0499484Y0109414D02*
X0493972Y0109414D01*
X0509484Y0109417D02*
X0509484Y0104929D01*
X0503972Y0104929D01*
X0503972Y0109417D01*
X0509484Y0109417D01*
X0509484Y0106424D02*
X0503972Y0106424D01*
X0503972Y0107919D02*
X0509484Y0107919D01*
X0509484Y0109414D02*
X0503972Y0109414D01*
X0569484Y0109417D02*
X0569484Y0104929D01*
X0563972Y0104929D01*
X0563972Y0109417D01*
X0569484Y0109417D01*
X0569484Y0106424D02*
X0563972Y0106424D01*
X0563972Y0107919D02*
X0569484Y0107919D01*
X0569484Y0109414D02*
X0563972Y0109414D01*
X0579484Y0109417D02*
X0579484Y0104929D01*
X0573972Y0104929D01*
X0573972Y0109417D01*
X0579484Y0109417D01*
X0579484Y0106424D02*
X0573972Y0106424D01*
X0573972Y0107919D02*
X0579484Y0107919D01*
X0579484Y0109414D02*
X0573972Y0109414D01*
X0649484Y0109417D02*
X0649484Y0104929D01*
X0643972Y0104929D01*
X0643972Y0109417D01*
X0649484Y0109417D01*
X0649484Y0106424D02*
X0643972Y0106424D01*
X0643972Y0107919D02*
X0649484Y0107919D01*
X0649484Y0109414D02*
X0643972Y0109414D01*
X0659484Y0109417D02*
X0659484Y0104929D01*
X0653972Y0104929D01*
X0653972Y0109417D01*
X0659484Y0109417D01*
X0659484Y0106424D02*
X0653972Y0106424D01*
X0653972Y0107919D02*
X0659484Y0107919D01*
X0659484Y0109414D02*
X0653972Y0109414D01*
X0264484Y0109417D02*
X0264484Y0104929D01*
X0258972Y0104929D01*
X0258972Y0109417D01*
X0264484Y0109417D01*
X0264484Y0106424D02*
X0258972Y0106424D01*
X0258972Y0107919D02*
X0264484Y0107919D01*
X0264484Y0109414D02*
X0258972Y0109414D01*
X0254484Y0109417D02*
X0254484Y0104929D01*
X0248972Y0104929D01*
X0248972Y0109417D01*
X0254484Y0109417D01*
X0254484Y0106424D02*
X0248972Y0106424D01*
X0248972Y0107919D02*
X0254484Y0107919D01*
X0254484Y0109414D02*
X0248972Y0109414D01*
X0254484Y0142449D02*
X0254484Y0146937D01*
X0254484Y0142449D02*
X0248972Y0142449D01*
X0248972Y0146937D01*
X0254484Y0146937D01*
X0254484Y0143944D02*
X0248972Y0143944D01*
X0248972Y0145439D02*
X0254484Y0145439D01*
X0254484Y0146934D02*
X0248972Y0146934D01*
X0264484Y0146937D02*
X0264484Y0142449D01*
X0258972Y0142449D01*
X0258972Y0146937D01*
X0264484Y0146937D01*
X0264484Y0143944D02*
X0258972Y0143944D01*
X0258972Y0145439D02*
X0264484Y0145439D01*
X0264484Y0146934D02*
X0258972Y0146934D01*
X0169484Y0146937D02*
X0169484Y0142449D01*
X0163972Y0142449D01*
X0163972Y0146937D01*
X0169484Y0146937D01*
X0169484Y0143944D02*
X0163972Y0143944D01*
X0163972Y0145439D02*
X0169484Y0145439D01*
X0169484Y0146934D02*
X0163972Y0146934D01*
X0159484Y0146937D02*
X0159484Y0142449D01*
X0153972Y0142449D01*
X0153972Y0146937D01*
X0159484Y0146937D01*
X0159484Y0143944D02*
X0153972Y0143944D01*
X0153972Y0145439D02*
X0159484Y0145439D01*
X0159484Y0146934D02*
X0153972Y0146934D01*
X0159484Y0109417D02*
X0159484Y0104929D01*
X0153972Y0104929D01*
X0153972Y0109417D01*
X0159484Y0109417D01*
X0159484Y0106424D02*
X0153972Y0106424D01*
X0153972Y0107919D02*
X0159484Y0107919D01*
X0159484Y0109414D02*
X0153972Y0109414D01*
X0169484Y0109417D02*
X0169484Y0104929D01*
X0163972Y0104929D01*
X0163972Y0109417D01*
X0169484Y0109417D01*
X0169484Y0106424D02*
X0163972Y0106424D01*
X0163972Y0107919D02*
X0169484Y0107919D01*
X0169484Y0109414D02*
X0163972Y0109414D01*
X0074484Y0109417D02*
X0074484Y0104929D01*
X0068972Y0104929D01*
X0068972Y0109417D01*
X0074484Y0109417D01*
X0074484Y0106424D02*
X0068972Y0106424D01*
X0068972Y0107919D02*
X0074484Y0107919D01*
X0074484Y0109414D02*
X0068972Y0109414D01*
X0064484Y0109417D02*
X0064484Y0104929D01*
X0058972Y0104929D01*
X0058972Y0109417D01*
X0064484Y0109417D01*
X0064484Y0106424D02*
X0058972Y0106424D01*
X0058972Y0107919D02*
X0064484Y0107919D01*
X0064484Y0109414D02*
X0058972Y0109414D01*
X0064484Y0142449D02*
X0064484Y0146937D01*
X0064484Y0142449D02*
X0058972Y0142449D01*
X0058972Y0146937D01*
X0064484Y0146937D01*
X0064484Y0143944D02*
X0058972Y0143944D01*
X0058972Y0145439D02*
X0064484Y0145439D01*
X0064484Y0146934D02*
X0058972Y0146934D01*
X0074484Y0146937D02*
X0074484Y0142449D01*
X0068972Y0142449D01*
X0068972Y0146937D01*
X0074484Y0146937D01*
X0074484Y0143944D02*
X0068972Y0143944D01*
X0068972Y0145439D02*
X0074484Y0145439D01*
X0074484Y0146934D02*
X0068972Y0146934D01*
D15*
X0061728Y0178933D03*
X0091728Y0178933D03*
X0061728Y0218933D03*
X0091728Y0238933D03*
X0061728Y0248933D03*
X0156728Y0248933D03*
X0186728Y0238933D03*
X0156728Y0218933D03*
X0156728Y0178933D03*
X0186728Y0178933D03*
X0251728Y0178933D03*
X0281728Y0178933D03*
X0346728Y0178933D03*
X0376728Y0178933D03*
X0346728Y0218933D03*
X0376728Y0238933D03*
X0346728Y0248933D03*
X0281728Y0238933D03*
X0251728Y0248933D03*
X0251728Y0218933D03*
D16*
X0251728Y0094280D03*
X0251728Y0087587D03*
X0156728Y0087587D03*
X0156728Y0094280D03*
X0426728Y0094280D03*
X0426728Y0087587D03*
X0496728Y0087587D03*
X0496728Y0094280D03*
X0566728Y0094280D03*
X0566728Y0087587D03*
X0646728Y0087587D03*
X0646728Y0094280D03*
D17*
X0249728Y0047933D03*
X0239728Y0047933D03*
X0229728Y0047933D03*
X0219728Y0047933D03*
X0209728Y0047933D03*
X0199728Y0047933D03*
X0189728Y0047933D03*
X0179728Y0047933D03*
X0169728Y0047933D03*
X0159728Y0047933D03*
X0149728Y0047933D03*
X0139728Y0047933D03*
X0129728Y0047933D03*
X0119728Y0047933D03*
X0109728Y0047933D03*
X0099728Y0047933D03*
X0089728Y0047933D03*
X0079728Y0047933D03*
X0069728Y0047933D03*
X0059728Y0047933D03*
X0059728Y0037933D03*
X0069728Y0037933D03*
X0079728Y0037933D03*
X0089728Y0037933D03*
X0099728Y0037933D03*
X0109728Y0037933D03*
X0119728Y0037933D03*
X0129728Y0037933D03*
X0139728Y0037933D03*
X0149728Y0037933D03*
X0159728Y0037933D03*
X0169728Y0037933D03*
X0179728Y0037933D03*
X0189728Y0037933D03*
X0199728Y0037933D03*
X0209728Y0037933D03*
X0219728Y0037933D03*
X0229728Y0037933D03*
X0239728Y0037933D03*
X0249728Y0037933D03*
D18*
X0256413Y0268374D03*
X0264287Y0278217D03*
X0236728Y0278217D03*
X0217043Y0268374D03*
X0209169Y0278217D03*
X0179287Y0278217D03*
X0171413Y0268374D03*
X0151728Y0278217D03*
X0132043Y0268374D03*
X0124169Y0278217D03*
X0094287Y0278217D03*
X0086413Y0268374D03*
X0066728Y0278217D03*
X0047043Y0268374D03*
X0039169Y0278217D03*
X0056886Y0317587D03*
X0076571Y0317587D03*
X0141886Y0317587D03*
X0161571Y0317587D03*
X0226886Y0317587D03*
X0246571Y0317587D03*
X0294169Y0278217D03*
X0302043Y0268374D03*
X0321728Y0278217D03*
X0341413Y0268374D03*
X0349287Y0278217D03*
X0379169Y0278217D03*
X0387043Y0268374D03*
X0406728Y0278217D03*
X0426413Y0268374D03*
X0434287Y0278217D03*
X0464169Y0278217D03*
X0472043Y0268374D03*
X0491728Y0278217D03*
X0511413Y0268374D03*
X0519287Y0278217D03*
X0549169Y0278217D03*
X0557043Y0268374D03*
X0576728Y0278217D03*
X0596413Y0268374D03*
X0604287Y0278217D03*
X0634169Y0278217D03*
X0642043Y0268374D03*
X0661728Y0278217D03*
X0681413Y0268374D03*
X0689287Y0278217D03*
X0671571Y0317587D03*
X0651886Y0317587D03*
X0586571Y0317587D03*
X0566886Y0317587D03*
X0501571Y0317587D03*
X0481886Y0317587D03*
X0416571Y0317587D03*
X0396886Y0317587D03*
X0331571Y0317587D03*
X0311886Y0317587D03*
D19*
X0301728Y0239142D03*
X0301728Y0224732D03*
X0301728Y0207134D03*
X0301728Y0192724D03*
X0206728Y0192724D03*
X0206728Y0207134D03*
X0206728Y0224732D03*
X0206728Y0239142D03*
X0111728Y0239142D03*
X0111728Y0224732D03*
X0111728Y0207134D03*
X0111728Y0192724D03*
X0396728Y0192724D03*
X0396728Y0207134D03*
X0396728Y0224732D03*
X0396728Y0239142D03*
D20*
X0116728Y0064933D03*
X0106728Y0064933D03*
D21*
X0358217Y0068433D03*
X0369240Y0068433D03*
X0386217Y0255933D03*
X0397240Y0255933D03*
D22*
X0326969Y0129961D03*
X0323228Y0129961D03*
X0319488Y0129961D03*
X0319488Y0120906D03*
X0323228Y0120906D03*
X0326969Y0120906D03*
D23*
X0327764Y0139513D03*
X0319693Y0139513D03*
X0323728Y0147354D03*
D24*
X0335201Y0030433D03*
X0354886Y0030433D03*
X0374571Y0030433D03*
X0394256Y0030433D03*
D25*
X0393728Y0045469D03*
X0393728Y0062398D03*
X0334728Y0059898D03*
X0334728Y0042969D03*
D26*
X0426728Y0178933D03*
X0456728Y0178933D03*
X0496728Y0178933D03*
X0526728Y0178933D03*
X0566728Y0178933D03*
X0596728Y0178933D03*
X0646728Y0178933D03*
X0676728Y0178933D03*
X0646728Y0218933D03*
X0646728Y0248933D03*
X0566728Y0248933D03*
X0566728Y0218933D03*
X0496728Y0218933D03*
X0496728Y0248933D03*
X0426728Y0248933D03*
X0426728Y0218933D03*
D27*
X0426728Y0178933D02*
X0426764Y0178898D01*
X0426764Y0160933D01*
X0426728Y0160898D01*
X0426728Y0144693D01*
X0436728Y0144693D02*
X0447222Y0144693D01*
X0447382Y0144533D01*
X0454075Y0144533D02*
X0454169Y0144628D01*
X0454169Y0144733D01*
X0454369Y0144533D01*
X0462082Y0144533D01*
X0454169Y0144733D02*
X0454169Y0153693D01*
X0456488Y0160933D02*
X0443693Y0160933D01*
X0456488Y0160933D02*
X0456728Y0161173D01*
X0456728Y0178933D01*
X0496728Y0178933D02*
X0496764Y0178898D01*
X0496764Y0160933D01*
X0496728Y0160898D01*
X0496728Y0144693D01*
X0506728Y0144693D02*
X0517222Y0144693D01*
X0517382Y0144533D01*
X0524075Y0144533D02*
X0524169Y0144628D01*
X0524169Y0144733D01*
X0524369Y0144533D01*
X0532082Y0144533D01*
X0524169Y0144733D02*
X0524169Y0153693D01*
X0526488Y0160933D02*
X0513693Y0160933D01*
X0526488Y0160933D02*
X0526728Y0161173D01*
X0526728Y0178933D01*
X0566728Y0178933D02*
X0566764Y0178898D01*
X0566764Y0160933D01*
X0566728Y0160898D01*
X0566728Y0144693D01*
X0576728Y0144693D02*
X0587222Y0144693D01*
X0587382Y0144533D01*
X0594075Y0144533D02*
X0594169Y0144628D01*
X0594169Y0144733D01*
X0594369Y0144533D01*
X0602082Y0144533D01*
X0594169Y0144733D02*
X0594169Y0153693D01*
X0596488Y0160933D02*
X0583693Y0160933D01*
X0596488Y0160933D02*
X0596728Y0161173D01*
X0596728Y0178933D01*
X0646728Y0178933D02*
X0646764Y0178898D01*
X0646764Y0160933D01*
X0646728Y0160898D01*
X0646728Y0144693D01*
X0656728Y0144693D02*
X0667222Y0144693D01*
X0667382Y0144533D01*
X0674075Y0144533D02*
X0674169Y0144628D01*
X0674169Y0144733D01*
X0674369Y0144533D01*
X0682082Y0144533D01*
X0674169Y0144733D02*
X0674169Y0153693D01*
X0676488Y0160933D02*
X0663693Y0160933D01*
X0676488Y0160933D02*
X0676728Y0161173D01*
X0676728Y0178933D01*
X0646728Y0107173D02*
X0646728Y0094280D01*
X0566728Y0094280D02*
X0566728Y0107173D01*
X0496728Y0107173D02*
X0496728Y0094280D01*
X0426728Y0094280D02*
X0426728Y0107173D01*
X0382083Y0144531D02*
X0374369Y0144533D01*
X0374169Y0144733D01*
X0374169Y0144628D01*
X0374075Y0144531D01*
X0374169Y0144733D02*
X0374169Y0153693D01*
X0376488Y0160933D02*
X0363693Y0160933D01*
X0376488Y0160933D02*
X0376728Y0161173D01*
X0367222Y0144693D02*
X0356728Y0144693D01*
X0367222Y0144693D02*
X0367382Y0144531D01*
X0346728Y0144693D02*
X0346728Y0160898D01*
X0346764Y0160933D01*
X0346764Y0178898D01*
X0281728Y0161173D02*
X0281488Y0160933D01*
X0268693Y0160933D01*
X0279169Y0153693D02*
X0279169Y0144733D01*
X0279369Y0144533D01*
X0287083Y0144531D01*
X0279169Y0144628D02*
X0279075Y0144531D01*
X0279169Y0144628D02*
X0279169Y0144733D01*
X0272382Y0144531D02*
X0272222Y0144693D01*
X0261728Y0144693D01*
X0251728Y0144693D02*
X0251728Y0160898D01*
X0251764Y0160933D01*
X0251764Y0178898D01*
X0186728Y0161173D02*
X0186488Y0160933D01*
X0173693Y0160933D01*
X0184169Y0153693D02*
X0184169Y0144733D01*
X0184369Y0144533D01*
X0192083Y0144531D01*
X0184169Y0144628D02*
X0184075Y0144531D01*
X0184169Y0144628D02*
X0184169Y0144733D01*
X0177382Y0144531D02*
X0177222Y0144693D01*
X0166728Y0144693D01*
X0156728Y0144693D02*
X0156728Y0160898D01*
X0156764Y0160933D01*
X0156764Y0178898D01*
X0097083Y0144531D02*
X0089369Y0144533D01*
X0089169Y0144733D01*
X0089169Y0144628D01*
X0089075Y0144531D01*
X0089169Y0144733D02*
X0089169Y0153693D01*
X0091488Y0160933D02*
X0078693Y0160933D01*
X0091488Y0160933D02*
X0091728Y0161173D01*
X0082222Y0144693D02*
X0071728Y0144693D01*
X0082222Y0144693D02*
X0082382Y0144531D01*
X0061728Y0144693D02*
X0061728Y0160898D01*
X0061764Y0160933D01*
X0061764Y0178898D01*
X0061728Y0107173D02*
X0061728Y0098533D01*
X0061762Y0098499D01*
X0062728Y0077933D02*
X0090728Y0077933D01*
X0095128Y0076533D02*
X0106728Y0064933D01*
X0103728Y0058933D02*
X0092728Y0069933D01*
X0092728Y0071933D01*
X0095128Y0076533D02*
X0095128Y0088433D01*
X0062728Y0077933D02*
X0052728Y0067933D01*
X0052728Y0031933D01*
X0062728Y0021933D01*
X0109728Y0021933D01*
X0119728Y0031933D01*
X0119728Y0037933D01*
X0119728Y0047933D02*
X0119728Y0049933D01*
X0110728Y0058933D01*
X0103728Y0058933D01*
X0156728Y0094280D02*
X0156728Y0107173D01*
X0180728Y0092933D02*
X0186528Y0092933D01*
X0194228Y0085233D01*
X0251728Y0094280D02*
X0251728Y0107173D01*
D28*
X0213728Y0084933D03*
X0194228Y0085233D03*
X0179728Y0082933D03*
X0180728Y0092933D03*
X0173728Y0098933D03*
X0176728Y0106933D03*
X0191728Y0112933D03*
X0256728Y0070933D03*
X0266728Y0075933D03*
X0276728Y0070933D03*
X0286728Y0075933D03*
X0296728Y0070933D03*
X0299728Y0053933D03*
X0251728Y0057933D03*
X0330128Y0088533D03*
X0169528Y0058533D03*
X0129828Y0027333D03*
X0092728Y0071933D03*
X0090728Y0077933D03*
X0095128Y0088433D03*
X0088528Y0093733D03*
X0043828Y0027233D03*
D29*
X0316728Y0074933D03*
D30*
X0346764Y0178898D03*
X0339728Y0185933D03*
X0358528Y0207134D03*
X0361972Y0248933D03*
X0266972Y0248933D03*
X0263528Y0207134D03*
X0258728Y0185933D03*
X0251728Y0179933D03*
X0251764Y0178898D03*
X0168528Y0207134D03*
X0163728Y0185933D03*
X0156764Y0178898D03*
X0149728Y0185933D03*
X0062728Y0178933D03*
X0061764Y0178898D03*
X0037728Y0202933D03*
X0063728Y0216933D03*
X0076972Y0248933D03*
X0171972Y0248933D03*
D31*
X0191728Y0112933D02*
X0203728Y0112933D01*
X0213728Y0102933D01*
X0213728Y0084933D01*
X0220728Y0065933D02*
X0187728Y0098933D01*
X0173728Y0098933D01*
X0185075Y0087587D02*
X0156728Y0087587D01*
X0179728Y0082933D02*
X0179728Y0079933D01*
X0199728Y0059933D01*
X0199728Y0047933D01*
X0215491Y0057170D02*
X0185075Y0087587D01*
X0220728Y0065933D02*
X0225728Y0065933D01*
X0239728Y0051933D01*
X0239728Y0047933D01*
X0229728Y0047933D02*
X0229728Y0050933D01*
X0223491Y0057170D01*
X0215491Y0057170D01*
X0251728Y0057933D02*
X0251728Y0087587D01*
X0299728Y0053933D02*
X0299728Y0033933D01*
X0287728Y0021933D01*
X0147728Y0021933D01*
X0139728Y0029933D01*
X0139728Y0037933D01*
X0088528Y0093733D02*
X0066528Y0093733D01*
X0066495Y0093767D01*
X0330128Y0088533D02*
X0342128Y0088533D01*
X0342162Y0088567D01*
X0346895Y0093299D02*
X0346895Y0107007D01*
X0346728Y0107173D01*
D32*
X0307728Y0064933D03*
M02*
