G75*
%MOIN*%
%OFA0B0*%
%FSLAX25Y25*%
%IPPOS*%
%LPD*%
%AMOC8*
5,1,8,0,0,1.08239X$1,22.5*
%
%ADD10C,0.12705*%
%ADD11C,0.06100*%
%ADD12OC8,0.07900*%
%ADD13C,0.10500*%
%ADD14C,0.11524*%
%ADD15R,0.04831X0.04437*%
%ADD16R,0.07587X0.06799*%
%ADD17R,0.04437X0.04831*%
%ADD18R,0.06602X0.02862*%
%ADD19C,0.07900*%
%ADD20R,0.02700X0.08300*%
%ADD21C,0.09949*%
%ADD22R,0.04043X0.03650*%
%ADD23C,0.02884*%
%ADD24C,0.05520*%
%ADD25C,0.08150*%
%ADD26C,0.04459*%
%ADD27C,0.03672*%
%ADD28C,0.04656*%
D10*
X0040555Y0042933D03*
X0268728Y0042933D03*
X0427240Y0071051D03*
X0551256Y0130106D03*
X0742201Y0287587D03*
X0192988Y0169476D03*
X0106374Y0283650D03*
D11*
X0071728Y0265744D03*
X0041728Y0255744D03*
X0071728Y0235744D03*
X0131728Y0255744D03*
X0161728Y0265744D03*
X0161728Y0235744D03*
X0221728Y0255744D03*
X0251728Y0265744D03*
X0251728Y0235744D03*
X0311728Y0255744D03*
X0341728Y0265744D03*
X0341728Y0235744D03*
X0401728Y0255744D03*
X0431728Y0265744D03*
X0431728Y0235744D03*
X0491728Y0255744D03*
X0521728Y0265744D03*
X0521728Y0235744D03*
X0581728Y0255744D03*
X0611728Y0265744D03*
X0611728Y0235744D03*
X0671728Y0255744D03*
X0701728Y0265744D03*
X0701728Y0235744D03*
X0701728Y0195744D03*
X0671728Y0195744D03*
X0611728Y0195744D03*
X0581728Y0195744D03*
X0521728Y0195744D03*
X0491728Y0195744D03*
X0431728Y0195744D03*
X0401728Y0195744D03*
X0341728Y0195744D03*
X0311728Y0195744D03*
X0251728Y0195744D03*
X0221728Y0195744D03*
X0161728Y0195744D03*
X0131728Y0195744D03*
X0071728Y0195744D03*
X0041728Y0195744D03*
D12*
X0059728Y0047933D03*
X0069728Y0047933D03*
X0079728Y0047933D03*
X0089728Y0047933D03*
X0099728Y0047933D03*
X0109728Y0047933D03*
X0119728Y0047933D03*
X0129728Y0047933D03*
X0139728Y0047933D03*
X0149728Y0047933D03*
X0159728Y0047933D03*
X0169728Y0047933D03*
X0179728Y0047933D03*
X0189728Y0047933D03*
X0199728Y0047933D03*
X0209728Y0047933D03*
X0219728Y0047933D03*
X0229728Y0047933D03*
X0239728Y0047933D03*
X0249728Y0047933D03*
X0249728Y0037933D03*
X0239728Y0037933D03*
X0229728Y0037933D03*
X0219728Y0037933D03*
X0209728Y0037933D03*
X0199728Y0037933D03*
X0189728Y0037933D03*
X0179728Y0037933D03*
X0169728Y0037933D03*
X0159728Y0037933D03*
X0149728Y0037933D03*
X0139728Y0037933D03*
X0129728Y0037933D03*
X0119728Y0037933D03*
X0109728Y0037933D03*
X0099728Y0037933D03*
X0089728Y0037933D03*
X0079728Y0037933D03*
X0069728Y0037933D03*
X0059728Y0037933D03*
D13*
X0047043Y0288374D03*
X0039169Y0298217D03*
X0066728Y0298217D03*
X0086413Y0288374D03*
X0094287Y0298217D03*
X0129169Y0298217D03*
X0137043Y0288374D03*
X0156728Y0298217D03*
X0176413Y0288374D03*
X0184287Y0298217D03*
X0219169Y0298217D03*
X0227043Y0288374D03*
X0246728Y0298217D03*
X0266413Y0288374D03*
X0274287Y0298217D03*
X0309169Y0298217D03*
X0317043Y0288374D03*
X0336728Y0298217D03*
X0356413Y0288374D03*
X0364287Y0298217D03*
X0399169Y0298217D03*
X0407043Y0288374D03*
X0426728Y0298217D03*
X0446413Y0288374D03*
X0454287Y0298217D03*
X0489169Y0298217D03*
X0497043Y0288374D03*
X0516728Y0298217D03*
X0536413Y0288374D03*
X0544287Y0298217D03*
X0579169Y0298217D03*
X0587043Y0288374D03*
X0606728Y0298217D03*
X0626413Y0288374D03*
X0634287Y0298217D03*
X0669169Y0298217D03*
X0677043Y0288374D03*
X0696728Y0298217D03*
X0716413Y0288374D03*
X0724287Y0298217D03*
X0706571Y0337587D03*
X0686886Y0337587D03*
X0616571Y0337587D03*
X0596886Y0337587D03*
X0526571Y0337587D03*
X0506886Y0337587D03*
X0436571Y0337587D03*
X0416886Y0337587D03*
X0346571Y0337587D03*
X0326886Y0337587D03*
X0256571Y0337587D03*
X0236886Y0337587D03*
X0166571Y0337587D03*
X0146886Y0337587D03*
X0076571Y0337587D03*
X0056886Y0337587D03*
D14*
X0091728Y0258453D03*
X0091728Y0244043D03*
X0091728Y0226445D03*
X0091728Y0212035D03*
X0181728Y0212035D03*
X0181728Y0226445D03*
X0181728Y0244043D03*
X0181728Y0258453D03*
X0271728Y0258453D03*
X0271728Y0244043D03*
X0271728Y0226445D03*
X0271728Y0212035D03*
X0361728Y0212035D03*
X0361728Y0226445D03*
X0361728Y0244043D03*
X0361728Y0258453D03*
X0451728Y0258453D03*
X0451728Y0244043D03*
X0451728Y0226445D03*
X0451728Y0212035D03*
X0541728Y0212035D03*
X0541728Y0226445D03*
X0541728Y0244043D03*
X0541728Y0258453D03*
X0631728Y0258453D03*
X0631728Y0244043D03*
X0631728Y0226445D03*
X0631728Y0212035D03*
X0721728Y0212035D03*
X0721728Y0226445D03*
X0721728Y0244043D03*
X0721728Y0258453D03*
X0724328Y0109842D03*
X0724328Y0095432D03*
X0724328Y0077834D03*
X0724328Y0063424D03*
D15*
X0402575Y0085933D03*
X0395882Y0085933D03*
X0392575Y0100433D03*
X0385882Y0100433D03*
X0384575Y0114933D03*
X0377882Y0114933D03*
X0345075Y0114933D03*
X0338382Y0114933D03*
X0336575Y0100433D03*
X0329882Y0100433D03*
X0327575Y0085933D03*
X0320882Y0085933D03*
X0319682Y0065533D03*
X0326375Y0065533D03*
X0326375Y0055033D03*
X0319682Y0055033D03*
X0319682Y0044433D03*
X0326375Y0044433D03*
X0278075Y0026933D03*
X0271382Y0026933D03*
X0182075Y0117933D03*
X0175382Y0117933D03*
X0170575Y0125433D03*
X0163882Y0125433D03*
X0159075Y0132933D03*
X0152382Y0132933D03*
X0103875Y0139933D03*
X0097182Y0139933D03*
X0064875Y0121633D03*
X0058182Y0121633D03*
X0058182Y0110133D03*
X0064875Y0110133D03*
X0064875Y0100133D03*
X0058182Y0100133D03*
X0341882Y0129933D03*
X0348575Y0129933D03*
X0373882Y0129933D03*
X0380575Y0129933D03*
D16*
X0249928Y0088445D03*
X0249928Y0077421D03*
X0746728Y0135321D03*
X0746728Y0146345D03*
D17*
X0388728Y0085780D03*
X0388728Y0079087D03*
X0378228Y0093087D03*
X0378228Y0099780D03*
X0370228Y0108087D03*
X0370228Y0114780D03*
X0352728Y0114780D03*
X0352728Y0108087D03*
X0344728Y0100280D03*
X0344728Y0093587D03*
X0335228Y0085780D03*
X0335228Y0079087D03*
X0389528Y0065780D03*
X0389528Y0059087D03*
X0366728Y0123087D03*
X0366728Y0129780D03*
X0355728Y0129780D03*
X0355728Y0123087D03*
D18*
X0111158Y0121633D03*
X0111158Y0116633D03*
X0111158Y0126633D03*
X0111158Y0131633D03*
X0089898Y0131633D03*
X0089898Y0126633D03*
X0089898Y0121633D03*
X0089898Y0116633D03*
D19*
X0095428Y0100233D03*
X0105428Y0100233D03*
D20*
X0343728Y0071733D03*
X0348728Y0071733D03*
X0353728Y0071733D03*
X0358728Y0071733D03*
X0363728Y0071733D03*
X0368728Y0071733D03*
X0373728Y0071733D03*
X0378728Y0071733D03*
X0378728Y0053133D03*
X0373728Y0053133D03*
X0368728Y0053133D03*
X0363728Y0053133D03*
X0358728Y0053133D03*
X0353728Y0053133D03*
X0348728Y0053133D03*
X0343728Y0053133D03*
D21*
X0665201Y0032933D03*
X0684886Y0032933D03*
X0704571Y0032933D03*
X0724256Y0032933D03*
D22*
X0643791Y0187193D03*
X0652059Y0190933D03*
X0643791Y0194673D03*
X0561059Y0190933D03*
X0552791Y0187193D03*
X0552791Y0194673D03*
X0472059Y0190933D03*
X0463791Y0187193D03*
X0463791Y0194673D03*
X0379059Y0190933D03*
X0370791Y0187193D03*
X0370791Y0194673D03*
X0293059Y0190933D03*
X0284791Y0187193D03*
X0284791Y0194673D03*
X0201059Y0190933D03*
X0192791Y0187193D03*
X0192791Y0194673D03*
X0112559Y0191433D03*
X0104291Y0187693D03*
X0104291Y0195173D03*
X0727891Y0194193D03*
X0736159Y0197933D03*
X0727891Y0201673D03*
D23*
X0026728Y0020933D03*
X0051728Y0020933D03*
X0076728Y0020933D03*
X0101728Y0020933D03*
X0126728Y0020933D03*
X0151728Y0020933D03*
X0154228Y0030933D03*
X0164228Y0030933D03*
X0176728Y0020933D03*
X0184228Y0030933D03*
X0194228Y0030933D03*
X0201728Y0020933D03*
X0224228Y0030933D03*
X0234228Y0030933D03*
X0226728Y0020933D03*
X0251728Y0020933D03*
X0311728Y0049933D03*
X0318728Y0049933D03*
X0306728Y0055933D03*
X0302728Y0075933D03*
X0297728Y0079933D03*
X0292728Y0083933D03*
X0311728Y0085933D03*
X0316728Y0080933D03*
X0321728Y0080933D03*
X0321728Y0075933D03*
X0326728Y0075933D03*
X0326728Y0080933D03*
X0336728Y0090933D03*
X0331728Y0095933D03*
X0321728Y0100933D03*
X0316728Y0100933D03*
X0276728Y0105933D03*
X0266728Y0115933D03*
X0256728Y0125933D03*
X0200228Y0112933D03*
X0257228Y0090933D03*
X0257228Y0086433D03*
X0261728Y0086433D03*
X0211728Y0055933D03*
X0206728Y0055933D03*
X0176728Y0065933D03*
X0166728Y0065933D03*
X0131728Y0060933D03*
X0081728Y0075933D03*
X0041728Y0075933D03*
X0041728Y0095933D03*
X0209728Y0163433D03*
X0105728Y0234933D03*
X0116728Y0265933D03*
X0201728Y0275933D03*
X0281728Y0275933D03*
X0381728Y0275933D03*
X0461728Y0275933D03*
X0561728Y0275933D03*
X0641728Y0275933D03*
X0721728Y0315933D03*
X0741728Y0315933D03*
X0432728Y0129933D03*
X0422728Y0114933D03*
X0442728Y0114933D03*
X0432728Y0099933D03*
X0412728Y0099933D03*
X0422728Y0084933D03*
X0442728Y0084933D03*
X0452728Y0099933D03*
X0499228Y0063433D03*
X0506728Y0051933D03*
X0487728Y0051933D03*
X0461728Y0035933D03*
X0518228Y0063433D03*
X0544228Y0043433D03*
X0529228Y0028433D03*
X0573228Y0028433D03*
X0599228Y0028433D03*
X0625728Y0027933D03*
X0637728Y0043933D03*
X0612228Y0043433D03*
X0588228Y0043433D03*
X0681728Y0075933D03*
X0681728Y0095933D03*
X0701728Y0095933D03*
X0741728Y0095933D03*
X0741728Y0075933D03*
X0741728Y0055933D03*
X0741728Y0035933D03*
D24*
X0632128Y0194733D03*
X0541728Y0194633D03*
X0453728Y0194633D03*
X0359228Y0194633D03*
X0273428Y0194633D03*
X0182428Y0194633D03*
X0095228Y0195133D03*
X0084828Y0139833D03*
X0290428Y0097333D03*
D25*
X0249928Y0097233D03*
D26*
X0229628Y0104733D03*
X0236728Y0113133D03*
X0209728Y0107433D03*
X0239728Y0087933D03*
X0189728Y0068033D03*
X0179728Y0059233D03*
X0109728Y0074733D03*
X0099728Y0081333D03*
X0277328Y0056233D03*
X0300628Y0050033D03*
X0294128Y0073833D03*
D27*
X0076428Y0100133D03*
X0070028Y0093233D03*
X0070028Y0121633D03*
X0076528Y0126633D03*
X0552728Y0036933D03*
X0570728Y0037933D03*
D28*
X0265828Y0081233D03*
M02*
