G75*
%MOIN*%
%OFA0B0*%
%FSLAX25Y25*%
%IPPOS*%
%LPD*%
%AMOC8*
5,1,8,0,0,1.08239X$1,22.5*
%
%ADD10C,0.11327*%
%ADD11C,0.05500*%
%ADD12OC8,0.07900*%
%ADD13R,0.02862X0.09161*%
%ADD14C,0.10500*%
%ADD15C,0.11524*%
%ADD16R,0.04831X0.04437*%
%ADD17R,0.06500X0.06500*%
%ADD18R,0.06602X0.02862*%
%ADD19C,0.07900*%
%ADD20C,0.04100*%
%ADD21C,0.05600*%
%ADD22C,0.05450*%
D10*
X0040555Y0042933D03*
X0268902Y0042933D03*
X0040555Y0235846D03*
D11*
X0061728Y0248933D03*
X0061728Y0218933D03*
X0061728Y0178933D03*
X0091728Y0178933D03*
X0156728Y0178933D03*
X0186728Y0178933D03*
X0156728Y0218933D03*
X0156728Y0248933D03*
X0251728Y0248933D03*
X0251728Y0218933D03*
X0251728Y0178933D03*
X0281728Y0178933D03*
X0346728Y0178933D03*
X0376728Y0178933D03*
X0346728Y0218933D03*
X0346728Y0248933D03*
D12*
X0249728Y0047933D03*
X0239728Y0047933D03*
X0229728Y0047933D03*
X0219728Y0047933D03*
X0209728Y0047933D03*
X0199728Y0047933D03*
X0189728Y0047933D03*
X0179728Y0047933D03*
X0169728Y0047933D03*
X0159728Y0047933D03*
X0149728Y0047933D03*
X0139728Y0047933D03*
X0129728Y0047933D03*
X0119728Y0047933D03*
X0109728Y0047933D03*
X0099728Y0047933D03*
X0089728Y0047933D03*
X0079728Y0047933D03*
X0069728Y0047933D03*
X0059728Y0047933D03*
X0059728Y0037933D03*
X0069728Y0037933D03*
X0079728Y0037933D03*
X0089728Y0037933D03*
X0099728Y0037933D03*
X0109728Y0037933D03*
X0119728Y0037933D03*
X0129728Y0037933D03*
X0139728Y0037933D03*
X0149728Y0037933D03*
X0159728Y0037933D03*
X0169728Y0037933D03*
X0179728Y0037933D03*
X0189728Y0037933D03*
X0199728Y0037933D03*
X0209728Y0037933D03*
X0219728Y0037933D03*
X0229728Y0037933D03*
X0239728Y0037933D03*
X0249728Y0037933D03*
D13*
X0236079Y0076563D03*
X0231079Y0076563D03*
X0226079Y0076563D03*
X0221079Y0076563D03*
X0216079Y0076563D03*
X0211079Y0076563D03*
X0206079Y0076563D03*
X0201079Y0076563D03*
X0201079Y0112783D03*
X0206079Y0112783D03*
X0211079Y0112783D03*
X0216079Y0112783D03*
X0221079Y0112783D03*
X0226079Y0112783D03*
X0231079Y0112783D03*
X0236079Y0112783D03*
D14*
X0247043Y0268374D03*
X0239169Y0278217D03*
X0266728Y0278217D03*
X0286413Y0268374D03*
X0294287Y0278217D03*
X0334169Y0278217D03*
X0342043Y0268374D03*
X0361728Y0278217D03*
X0381413Y0268374D03*
X0389287Y0278217D03*
X0371571Y0317587D03*
X0351886Y0317587D03*
X0276571Y0317587D03*
X0256886Y0317587D03*
X0199287Y0278217D03*
X0191413Y0268374D03*
X0171728Y0278217D03*
X0152043Y0268374D03*
X0144169Y0278217D03*
X0104287Y0278217D03*
X0096413Y0268374D03*
X0076728Y0278217D03*
X0057043Y0268374D03*
X0049169Y0278217D03*
X0066886Y0317587D03*
X0086571Y0317587D03*
X0161886Y0317587D03*
X0181571Y0317587D03*
D15*
X0206728Y0239142D03*
X0206728Y0224732D03*
X0206728Y0207134D03*
X0206728Y0192724D03*
X0111728Y0192724D03*
X0111728Y0207134D03*
X0111728Y0224732D03*
X0111728Y0239142D03*
X0301728Y0239142D03*
X0301728Y0224732D03*
X0301728Y0207134D03*
X0301728Y0192724D03*
X0396728Y0192724D03*
X0396728Y0207134D03*
X0396728Y0224732D03*
X0396728Y0239142D03*
D16*
X0184075Y0112933D03*
X0177382Y0112933D03*
X0154075Y0082933D03*
X0147382Y0082933D03*
X0155382Y0074933D03*
X0162075Y0074933D03*
X0163382Y0066933D03*
X0170075Y0066933D03*
X0185182Y0076533D03*
X0191875Y0076533D03*
X0115075Y0099933D03*
X0108382Y0099933D03*
X0087075Y0082933D03*
X0080382Y0082933D03*
X0080382Y0071933D03*
X0087075Y0071933D03*
X0087075Y0061933D03*
X0080382Y0061933D03*
X0279382Y0064933D03*
X0286075Y0064933D03*
X0287382Y0047933D03*
X0294075Y0047933D03*
X0294075Y0037933D03*
X0287382Y0037933D03*
D17*
X0312728Y0032933D03*
X0322728Y0032933D03*
X0341728Y0032933D03*
X0351728Y0032933D03*
X0370528Y0032933D03*
X0380528Y0032933D03*
X0397728Y0032933D03*
X0407728Y0032933D03*
D18*
X0122358Y0078433D03*
X0122358Y0083433D03*
X0122358Y0088433D03*
X0122358Y0093433D03*
X0101098Y0093433D03*
X0101098Y0088433D03*
X0101098Y0083433D03*
X0101098Y0078433D03*
D19*
X0106728Y0064933D03*
X0116728Y0064933D03*
D20*
X0043828Y0027233D03*
X0092728Y0071933D03*
X0090728Y0077933D03*
X0095128Y0088433D03*
X0088528Y0093733D03*
X0169528Y0058533D03*
X0179728Y0082933D03*
X0180728Y0092933D03*
X0173728Y0098933D03*
X0176728Y0106933D03*
X0191728Y0112933D03*
X0194228Y0085233D03*
X0213728Y0084933D03*
X0251728Y0057933D03*
X0256728Y0070933D03*
X0266728Y0075933D03*
X0276728Y0070933D03*
X0286728Y0075933D03*
X0296728Y0070933D03*
X0299728Y0053933D03*
X0330128Y0088533D03*
X0129828Y0027333D03*
D21*
X0316728Y0074933D03*
D22*
X0307728Y0064933D03*
M02*
