G75*
%MOIN*%
%OFA0B0*%
%FSLAX25Y25*%
%IPPOS*%
%LPD*%
%AMOC8*
5,1,8,0,0,1.08239X$1,22.5*
%
%ADD10C,0.03200*%
%ADD11C,0.05600*%
%ADD12OC8,0.07400*%
%ADD13C,0.10000*%
%ADD14C,0.11024*%
%ADD15R,0.04331X0.03937*%
%ADD16R,0.06102X0.02362*%
%ADD17C,0.07400*%
%ADD18R,0.02200X0.07800*%
%ADD19C,0.09449*%
%ADD20R,0.03937X0.04331*%
%ADD21C,0.05000*%
%ADD22C,0.02000*%
%ADD23C,0.03600*%
%ADD24C,0.01600*%
%ADD25C,0.05100*%
%ADD26C,0.02778*%
%ADD27C,0.04950*%
D10*
X0032228Y0042933D02*
X0032231Y0043142D01*
X0032238Y0043350D01*
X0032251Y0043558D01*
X0032269Y0043766D01*
X0032292Y0043973D01*
X0032320Y0044180D01*
X0032353Y0044386D01*
X0032391Y0044591D01*
X0032435Y0044795D01*
X0032483Y0044998D01*
X0032536Y0045200D01*
X0032594Y0045400D01*
X0032657Y0045599D01*
X0032725Y0045797D01*
X0032798Y0045992D01*
X0032875Y0046186D01*
X0032957Y0046378D01*
X0033044Y0046567D01*
X0033136Y0046755D01*
X0033232Y0046940D01*
X0033332Y0047123D01*
X0033437Y0047303D01*
X0033547Y0047480D01*
X0033661Y0047655D01*
X0033779Y0047827D01*
X0033901Y0047996D01*
X0034027Y0048162D01*
X0034157Y0048325D01*
X0034292Y0048485D01*
X0034430Y0048641D01*
X0034572Y0048794D01*
X0034718Y0048943D01*
X0034867Y0049089D01*
X0035020Y0049231D01*
X0035176Y0049369D01*
X0035336Y0049504D01*
X0035499Y0049634D01*
X0035665Y0049760D01*
X0035834Y0049882D01*
X0036006Y0050000D01*
X0036181Y0050114D01*
X0036358Y0050224D01*
X0036538Y0050329D01*
X0036721Y0050429D01*
X0036906Y0050525D01*
X0037094Y0050617D01*
X0037283Y0050704D01*
X0037475Y0050786D01*
X0037669Y0050863D01*
X0037864Y0050936D01*
X0038062Y0051004D01*
X0038261Y0051067D01*
X0038461Y0051125D01*
X0038663Y0051178D01*
X0038866Y0051226D01*
X0039070Y0051270D01*
X0039275Y0051308D01*
X0039481Y0051341D01*
X0039688Y0051369D01*
X0039895Y0051392D01*
X0040103Y0051410D01*
X0040311Y0051423D01*
X0040519Y0051430D01*
X0040728Y0051433D01*
X0040937Y0051430D01*
X0041145Y0051423D01*
X0041353Y0051410D01*
X0041561Y0051392D01*
X0041768Y0051369D01*
X0041975Y0051341D01*
X0042181Y0051308D01*
X0042386Y0051270D01*
X0042590Y0051226D01*
X0042793Y0051178D01*
X0042995Y0051125D01*
X0043195Y0051067D01*
X0043394Y0051004D01*
X0043592Y0050936D01*
X0043787Y0050863D01*
X0043981Y0050786D01*
X0044173Y0050704D01*
X0044362Y0050617D01*
X0044550Y0050525D01*
X0044735Y0050429D01*
X0044918Y0050329D01*
X0045098Y0050224D01*
X0045275Y0050114D01*
X0045450Y0050000D01*
X0045622Y0049882D01*
X0045791Y0049760D01*
X0045957Y0049634D01*
X0046120Y0049504D01*
X0046280Y0049369D01*
X0046436Y0049231D01*
X0046589Y0049089D01*
X0046738Y0048943D01*
X0046884Y0048794D01*
X0047026Y0048641D01*
X0047164Y0048485D01*
X0047299Y0048325D01*
X0047429Y0048162D01*
X0047555Y0047996D01*
X0047677Y0047827D01*
X0047795Y0047655D01*
X0047909Y0047480D01*
X0048019Y0047303D01*
X0048124Y0047123D01*
X0048224Y0046940D01*
X0048320Y0046755D01*
X0048412Y0046567D01*
X0048499Y0046378D01*
X0048581Y0046186D01*
X0048658Y0045992D01*
X0048731Y0045797D01*
X0048799Y0045599D01*
X0048862Y0045400D01*
X0048920Y0045200D01*
X0048973Y0044998D01*
X0049021Y0044795D01*
X0049065Y0044591D01*
X0049103Y0044386D01*
X0049136Y0044180D01*
X0049164Y0043973D01*
X0049187Y0043766D01*
X0049205Y0043558D01*
X0049218Y0043350D01*
X0049225Y0043142D01*
X0049228Y0042933D01*
X0049225Y0042724D01*
X0049218Y0042516D01*
X0049205Y0042308D01*
X0049187Y0042100D01*
X0049164Y0041893D01*
X0049136Y0041686D01*
X0049103Y0041480D01*
X0049065Y0041275D01*
X0049021Y0041071D01*
X0048973Y0040868D01*
X0048920Y0040666D01*
X0048862Y0040466D01*
X0048799Y0040267D01*
X0048731Y0040069D01*
X0048658Y0039874D01*
X0048581Y0039680D01*
X0048499Y0039488D01*
X0048412Y0039299D01*
X0048320Y0039111D01*
X0048224Y0038926D01*
X0048124Y0038743D01*
X0048019Y0038563D01*
X0047909Y0038386D01*
X0047795Y0038211D01*
X0047677Y0038039D01*
X0047555Y0037870D01*
X0047429Y0037704D01*
X0047299Y0037541D01*
X0047164Y0037381D01*
X0047026Y0037225D01*
X0046884Y0037072D01*
X0046738Y0036923D01*
X0046589Y0036777D01*
X0046436Y0036635D01*
X0046280Y0036497D01*
X0046120Y0036362D01*
X0045957Y0036232D01*
X0045791Y0036106D01*
X0045622Y0035984D01*
X0045450Y0035866D01*
X0045275Y0035752D01*
X0045098Y0035642D01*
X0044918Y0035537D01*
X0044735Y0035437D01*
X0044550Y0035341D01*
X0044362Y0035249D01*
X0044173Y0035162D01*
X0043981Y0035080D01*
X0043787Y0035003D01*
X0043592Y0034930D01*
X0043394Y0034862D01*
X0043195Y0034799D01*
X0042995Y0034741D01*
X0042793Y0034688D01*
X0042590Y0034640D01*
X0042386Y0034596D01*
X0042181Y0034558D01*
X0041975Y0034525D01*
X0041768Y0034497D01*
X0041561Y0034474D01*
X0041353Y0034456D01*
X0041145Y0034443D01*
X0040937Y0034436D01*
X0040728Y0034433D01*
X0040519Y0034436D01*
X0040311Y0034443D01*
X0040103Y0034456D01*
X0039895Y0034474D01*
X0039688Y0034497D01*
X0039481Y0034525D01*
X0039275Y0034558D01*
X0039070Y0034596D01*
X0038866Y0034640D01*
X0038663Y0034688D01*
X0038461Y0034741D01*
X0038261Y0034799D01*
X0038062Y0034862D01*
X0037864Y0034930D01*
X0037669Y0035003D01*
X0037475Y0035080D01*
X0037283Y0035162D01*
X0037094Y0035249D01*
X0036906Y0035341D01*
X0036721Y0035437D01*
X0036538Y0035537D01*
X0036358Y0035642D01*
X0036181Y0035752D01*
X0036006Y0035866D01*
X0035834Y0035984D01*
X0035665Y0036106D01*
X0035499Y0036232D01*
X0035336Y0036362D01*
X0035176Y0036497D01*
X0035020Y0036635D01*
X0034867Y0036777D01*
X0034718Y0036923D01*
X0034572Y0037072D01*
X0034430Y0037225D01*
X0034292Y0037381D01*
X0034157Y0037541D01*
X0034027Y0037704D01*
X0033901Y0037870D01*
X0033779Y0038039D01*
X0033661Y0038211D01*
X0033547Y0038386D01*
X0033437Y0038563D01*
X0033332Y0038743D01*
X0033232Y0038926D01*
X0033136Y0039111D01*
X0033044Y0039299D01*
X0032957Y0039488D01*
X0032875Y0039680D01*
X0032798Y0039874D01*
X0032725Y0040069D01*
X0032657Y0040267D01*
X0032594Y0040466D01*
X0032536Y0040666D01*
X0032483Y0040868D01*
X0032435Y0041071D01*
X0032391Y0041275D01*
X0032353Y0041480D01*
X0032320Y0041686D01*
X0032292Y0041893D01*
X0032269Y0042100D01*
X0032251Y0042308D01*
X0032238Y0042516D01*
X0032231Y0042724D01*
X0032228Y0042933D01*
X0239728Y0037933D02*
X0249728Y0037933D01*
X0259728Y0027933D01*
X0276728Y0027933D01*
X0286728Y0037933D01*
X0287382Y0037933D01*
X0305728Y0037933D02*
X0310728Y0032933D01*
X0305728Y0037933D02*
X0316728Y0048933D01*
X0316728Y0074933D01*
X0287382Y0047933D02*
X0286728Y0047933D01*
X0276728Y0057933D01*
X0259728Y0057933D01*
X0249728Y0047933D01*
X0260228Y0042933D02*
X0260231Y0043142D01*
X0260238Y0043350D01*
X0260251Y0043558D01*
X0260269Y0043766D01*
X0260292Y0043973D01*
X0260320Y0044180D01*
X0260353Y0044386D01*
X0260391Y0044591D01*
X0260435Y0044795D01*
X0260483Y0044998D01*
X0260536Y0045200D01*
X0260594Y0045400D01*
X0260657Y0045599D01*
X0260725Y0045797D01*
X0260798Y0045992D01*
X0260875Y0046186D01*
X0260957Y0046378D01*
X0261044Y0046567D01*
X0261136Y0046755D01*
X0261232Y0046940D01*
X0261332Y0047123D01*
X0261437Y0047303D01*
X0261547Y0047480D01*
X0261661Y0047655D01*
X0261779Y0047827D01*
X0261901Y0047996D01*
X0262027Y0048162D01*
X0262157Y0048325D01*
X0262292Y0048485D01*
X0262430Y0048641D01*
X0262572Y0048794D01*
X0262718Y0048943D01*
X0262867Y0049089D01*
X0263020Y0049231D01*
X0263176Y0049369D01*
X0263336Y0049504D01*
X0263499Y0049634D01*
X0263665Y0049760D01*
X0263834Y0049882D01*
X0264006Y0050000D01*
X0264181Y0050114D01*
X0264358Y0050224D01*
X0264538Y0050329D01*
X0264721Y0050429D01*
X0264906Y0050525D01*
X0265094Y0050617D01*
X0265283Y0050704D01*
X0265475Y0050786D01*
X0265669Y0050863D01*
X0265864Y0050936D01*
X0266062Y0051004D01*
X0266261Y0051067D01*
X0266461Y0051125D01*
X0266663Y0051178D01*
X0266866Y0051226D01*
X0267070Y0051270D01*
X0267275Y0051308D01*
X0267481Y0051341D01*
X0267688Y0051369D01*
X0267895Y0051392D01*
X0268103Y0051410D01*
X0268311Y0051423D01*
X0268519Y0051430D01*
X0268728Y0051433D01*
X0268937Y0051430D01*
X0269145Y0051423D01*
X0269353Y0051410D01*
X0269561Y0051392D01*
X0269768Y0051369D01*
X0269975Y0051341D01*
X0270181Y0051308D01*
X0270386Y0051270D01*
X0270590Y0051226D01*
X0270793Y0051178D01*
X0270995Y0051125D01*
X0271195Y0051067D01*
X0271394Y0051004D01*
X0271592Y0050936D01*
X0271787Y0050863D01*
X0271981Y0050786D01*
X0272173Y0050704D01*
X0272362Y0050617D01*
X0272550Y0050525D01*
X0272735Y0050429D01*
X0272918Y0050329D01*
X0273098Y0050224D01*
X0273275Y0050114D01*
X0273450Y0050000D01*
X0273622Y0049882D01*
X0273791Y0049760D01*
X0273957Y0049634D01*
X0274120Y0049504D01*
X0274280Y0049369D01*
X0274436Y0049231D01*
X0274589Y0049089D01*
X0274738Y0048943D01*
X0274884Y0048794D01*
X0275026Y0048641D01*
X0275164Y0048485D01*
X0275299Y0048325D01*
X0275429Y0048162D01*
X0275555Y0047996D01*
X0275677Y0047827D01*
X0275795Y0047655D01*
X0275909Y0047480D01*
X0276019Y0047303D01*
X0276124Y0047123D01*
X0276224Y0046940D01*
X0276320Y0046755D01*
X0276412Y0046567D01*
X0276499Y0046378D01*
X0276581Y0046186D01*
X0276658Y0045992D01*
X0276731Y0045797D01*
X0276799Y0045599D01*
X0276862Y0045400D01*
X0276920Y0045200D01*
X0276973Y0044998D01*
X0277021Y0044795D01*
X0277065Y0044591D01*
X0277103Y0044386D01*
X0277136Y0044180D01*
X0277164Y0043973D01*
X0277187Y0043766D01*
X0277205Y0043558D01*
X0277218Y0043350D01*
X0277225Y0043142D01*
X0277228Y0042933D01*
X0277225Y0042724D01*
X0277218Y0042516D01*
X0277205Y0042308D01*
X0277187Y0042100D01*
X0277164Y0041893D01*
X0277136Y0041686D01*
X0277103Y0041480D01*
X0277065Y0041275D01*
X0277021Y0041071D01*
X0276973Y0040868D01*
X0276920Y0040666D01*
X0276862Y0040466D01*
X0276799Y0040267D01*
X0276731Y0040069D01*
X0276658Y0039874D01*
X0276581Y0039680D01*
X0276499Y0039488D01*
X0276412Y0039299D01*
X0276320Y0039111D01*
X0276224Y0038926D01*
X0276124Y0038743D01*
X0276019Y0038563D01*
X0275909Y0038386D01*
X0275795Y0038211D01*
X0275677Y0038039D01*
X0275555Y0037870D01*
X0275429Y0037704D01*
X0275299Y0037541D01*
X0275164Y0037381D01*
X0275026Y0037225D01*
X0274884Y0037072D01*
X0274738Y0036923D01*
X0274589Y0036777D01*
X0274436Y0036635D01*
X0274280Y0036497D01*
X0274120Y0036362D01*
X0273957Y0036232D01*
X0273791Y0036106D01*
X0273622Y0035984D01*
X0273450Y0035866D01*
X0273275Y0035752D01*
X0273098Y0035642D01*
X0272918Y0035537D01*
X0272735Y0035437D01*
X0272550Y0035341D01*
X0272362Y0035249D01*
X0272173Y0035162D01*
X0271981Y0035080D01*
X0271787Y0035003D01*
X0271592Y0034930D01*
X0271394Y0034862D01*
X0271195Y0034799D01*
X0270995Y0034741D01*
X0270793Y0034688D01*
X0270590Y0034640D01*
X0270386Y0034596D01*
X0270181Y0034558D01*
X0269975Y0034525D01*
X0269768Y0034497D01*
X0269561Y0034474D01*
X0269353Y0034456D01*
X0269145Y0034443D01*
X0268937Y0034436D01*
X0268728Y0034433D01*
X0268519Y0034436D01*
X0268311Y0034443D01*
X0268103Y0034456D01*
X0267895Y0034474D01*
X0267688Y0034497D01*
X0267481Y0034525D01*
X0267275Y0034558D01*
X0267070Y0034596D01*
X0266866Y0034640D01*
X0266663Y0034688D01*
X0266461Y0034741D01*
X0266261Y0034799D01*
X0266062Y0034862D01*
X0265864Y0034930D01*
X0265669Y0035003D01*
X0265475Y0035080D01*
X0265283Y0035162D01*
X0265094Y0035249D01*
X0264906Y0035341D01*
X0264721Y0035437D01*
X0264538Y0035537D01*
X0264358Y0035642D01*
X0264181Y0035752D01*
X0264006Y0035866D01*
X0263834Y0035984D01*
X0263665Y0036106D01*
X0263499Y0036232D01*
X0263336Y0036362D01*
X0263176Y0036497D01*
X0263020Y0036635D01*
X0262867Y0036777D01*
X0262718Y0036923D01*
X0262572Y0037072D01*
X0262430Y0037225D01*
X0262292Y0037381D01*
X0262157Y0037541D01*
X0262027Y0037704D01*
X0261901Y0037870D01*
X0261779Y0038039D01*
X0261661Y0038211D01*
X0261547Y0038386D01*
X0261437Y0038563D01*
X0261332Y0038743D01*
X0261232Y0038926D01*
X0261136Y0039111D01*
X0261044Y0039299D01*
X0260957Y0039488D01*
X0260875Y0039680D01*
X0260798Y0039874D01*
X0260725Y0040069D01*
X0260657Y0040267D01*
X0260594Y0040466D01*
X0260536Y0040666D01*
X0260483Y0040868D01*
X0260435Y0041071D01*
X0260391Y0041275D01*
X0260353Y0041480D01*
X0260320Y0041686D01*
X0260292Y0041893D01*
X0260269Y0042100D01*
X0260251Y0042308D01*
X0260238Y0042516D01*
X0260231Y0042724D01*
X0260228Y0042933D01*
X0380728Y0033133D02*
X0380728Y0032933D01*
X0383728Y0035933D01*
X0383728Y0220933D01*
X0387528Y0224732D01*
X0396728Y0224732D01*
X0358528Y0207134D02*
X0346728Y0218933D01*
X0346728Y0248933D02*
X0361972Y0248933D01*
X0342043Y0271248D02*
X0346728Y0275933D01*
X0346728Y0280933D01*
X0356728Y0290933D01*
X0396728Y0290933D01*
X0406728Y0280933D01*
X0406728Y0111933D01*
X0397728Y0102933D01*
X0346728Y0178933D02*
X0339728Y0185933D01*
X0263528Y0207134D02*
X0251728Y0218933D01*
X0251728Y0248933D02*
X0266972Y0248933D01*
X0302043Y0268374D02*
X0342043Y0271248D01*
X0314287Y0268374D02*
X0306728Y0275933D01*
X0306728Y0285933D01*
X0301728Y0290933D01*
X0256728Y0290933D01*
X0251728Y0285933D01*
X0251728Y0275933D01*
X0247043Y0271248D01*
X0217043Y0268374D01*
X0219287Y0268374D01*
X0211728Y0275933D01*
X0211728Y0285933D01*
X0206728Y0290933D01*
X0161728Y0290933D01*
X0156728Y0285933D01*
X0156728Y0275933D01*
X0152043Y0271248D01*
X0132043Y0268374D01*
X0124287Y0268374D01*
X0116728Y0275933D01*
X0116728Y0285933D01*
X0111728Y0290933D01*
X0066728Y0290933D01*
X0061728Y0285933D01*
X0061728Y0275933D01*
X0057043Y0271248D01*
X0047043Y0268374D01*
X0061728Y0248933D02*
X0076972Y0248933D01*
X0032055Y0235846D02*
X0032058Y0236055D01*
X0032065Y0236263D01*
X0032078Y0236471D01*
X0032096Y0236679D01*
X0032119Y0236886D01*
X0032147Y0237093D01*
X0032180Y0237299D01*
X0032218Y0237504D01*
X0032262Y0237708D01*
X0032310Y0237911D01*
X0032363Y0238113D01*
X0032421Y0238313D01*
X0032484Y0238512D01*
X0032552Y0238710D01*
X0032625Y0238905D01*
X0032702Y0239099D01*
X0032784Y0239291D01*
X0032871Y0239480D01*
X0032963Y0239668D01*
X0033059Y0239853D01*
X0033159Y0240036D01*
X0033264Y0240216D01*
X0033374Y0240393D01*
X0033488Y0240568D01*
X0033606Y0240740D01*
X0033728Y0240909D01*
X0033854Y0241075D01*
X0033984Y0241238D01*
X0034119Y0241398D01*
X0034257Y0241554D01*
X0034399Y0241707D01*
X0034545Y0241856D01*
X0034694Y0242002D01*
X0034847Y0242144D01*
X0035003Y0242282D01*
X0035163Y0242417D01*
X0035326Y0242547D01*
X0035492Y0242673D01*
X0035661Y0242795D01*
X0035833Y0242913D01*
X0036008Y0243027D01*
X0036185Y0243137D01*
X0036365Y0243242D01*
X0036548Y0243342D01*
X0036733Y0243438D01*
X0036921Y0243530D01*
X0037110Y0243617D01*
X0037302Y0243699D01*
X0037496Y0243776D01*
X0037691Y0243849D01*
X0037889Y0243917D01*
X0038088Y0243980D01*
X0038288Y0244038D01*
X0038490Y0244091D01*
X0038693Y0244139D01*
X0038897Y0244183D01*
X0039102Y0244221D01*
X0039308Y0244254D01*
X0039515Y0244282D01*
X0039722Y0244305D01*
X0039930Y0244323D01*
X0040138Y0244336D01*
X0040346Y0244343D01*
X0040555Y0244346D01*
X0040764Y0244343D01*
X0040972Y0244336D01*
X0041180Y0244323D01*
X0041388Y0244305D01*
X0041595Y0244282D01*
X0041802Y0244254D01*
X0042008Y0244221D01*
X0042213Y0244183D01*
X0042417Y0244139D01*
X0042620Y0244091D01*
X0042822Y0244038D01*
X0043022Y0243980D01*
X0043221Y0243917D01*
X0043419Y0243849D01*
X0043614Y0243776D01*
X0043808Y0243699D01*
X0044000Y0243617D01*
X0044189Y0243530D01*
X0044377Y0243438D01*
X0044562Y0243342D01*
X0044745Y0243242D01*
X0044925Y0243137D01*
X0045102Y0243027D01*
X0045277Y0242913D01*
X0045449Y0242795D01*
X0045618Y0242673D01*
X0045784Y0242547D01*
X0045947Y0242417D01*
X0046107Y0242282D01*
X0046263Y0242144D01*
X0046416Y0242002D01*
X0046565Y0241856D01*
X0046711Y0241707D01*
X0046853Y0241554D01*
X0046991Y0241398D01*
X0047126Y0241238D01*
X0047256Y0241075D01*
X0047382Y0240909D01*
X0047504Y0240740D01*
X0047622Y0240568D01*
X0047736Y0240393D01*
X0047846Y0240216D01*
X0047951Y0240036D01*
X0048051Y0239853D01*
X0048147Y0239668D01*
X0048239Y0239480D01*
X0048326Y0239291D01*
X0048408Y0239099D01*
X0048485Y0238905D01*
X0048558Y0238710D01*
X0048626Y0238512D01*
X0048689Y0238313D01*
X0048747Y0238113D01*
X0048800Y0237911D01*
X0048848Y0237708D01*
X0048892Y0237504D01*
X0048930Y0237299D01*
X0048963Y0237093D01*
X0048991Y0236886D01*
X0049014Y0236679D01*
X0049032Y0236471D01*
X0049045Y0236263D01*
X0049052Y0236055D01*
X0049055Y0235846D01*
X0049052Y0235637D01*
X0049045Y0235429D01*
X0049032Y0235221D01*
X0049014Y0235013D01*
X0048991Y0234806D01*
X0048963Y0234599D01*
X0048930Y0234393D01*
X0048892Y0234188D01*
X0048848Y0233984D01*
X0048800Y0233781D01*
X0048747Y0233579D01*
X0048689Y0233379D01*
X0048626Y0233180D01*
X0048558Y0232982D01*
X0048485Y0232787D01*
X0048408Y0232593D01*
X0048326Y0232401D01*
X0048239Y0232212D01*
X0048147Y0232024D01*
X0048051Y0231839D01*
X0047951Y0231656D01*
X0047846Y0231476D01*
X0047736Y0231299D01*
X0047622Y0231124D01*
X0047504Y0230952D01*
X0047382Y0230783D01*
X0047256Y0230617D01*
X0047126Y0230454D01*
X0046991Y0230294D01*
X0046853Y0230138D01*
X0046711Y0229985D01*
X0046565Y0229836D01*
X0046416Y0229690D01*
X0046263Y0229548D01*
X0046107Y0229410D01*
X0045947Y0229275D01*
X0045784Y0229145D01*
X0045618Y0229019D01*
X0045449Y0228897D01*
X0045277Y0228779D01*
X0045102Y0228665D01*
X0044925Y0228555D01*
X0044745Y0228450D01*
X0044562Y0228350D01*
X0044377Y0228254D01*
X0044189Y0228162D01*
X0044000Y0228075D01*
X0043808Y0227993D01*
X0043614Y0227916D01*
X0043419Y0227843D01*
X0043221Y0227775D01*
X0043022Y0227712D01*
X0042822Y0227654D01*
X0042620Y0227601D01*
X0042417Y0227553D01*
X0042213Y0227509D01*
X0042008Y0227471D01*
X0041802Y0227438D01*
X0041595Y0227410D01*
X0041388Y0227387D01*
X0041180Y0227369D01*
X0040972Y0227356D01*
X0040764Y0227349D01*
X0040555Y0227346D01*
X0040346Y0227349D01*
X0040138Y0227356D01*
X0039930Y0227369D01*
X0039722Y0227387D01*
X0039515Y0227410D01*
X0039308Y0227438D01*
X0039102Y0227471D01*
X0038897Y0227509D01*
X0038693Y0227553D01*
X0038490Y0227601D01*
X0038288Y0227654D01*
X0038088Y0227712D01*
X0037889Y0227775D01*
X0037691Y0227843D01*
X0037496Y0227916D01*
X0037302Y0227993D01*
X0037110Y0228075D01*
X0036921Y0228162D01*
X0036733Y0228254D01*
X0036548Y0228350D01*
X0036365Y0228450D01*
X0036185Y0228555D01*
X0036008Y0228665D01*
X0035833Y0228779D01*
X0035661Y0228897D01*
X0035492Y0229019D01*
X0035326Y0229145D01*
X0035163Y0229275D01*
X0035003Y0229410D01*
X0034847Y0229548D01*
X0034694Y0229690D01*
X0034545Y0229836D01*
X0034399Y0229985D01*
X0034257Y0230138D01*
X0034119Y0230294D01*
X0033984Y0230454D01*
X0033854Y0230617D01*
X0033728Y0230783D01*
X0033606Y0230952D01*
X0033488Y0231124D01*
X0033374Y0231299D01*
X0033264Y0231476D01*
X0033159Y0231656D01*
X0033059Y0231839D01*
X0032963Y0232024D01*
X0032871Y0232212D01*
X0032784Y0232401D01*
X0032702Y0232593D01*
X0032625Y0232787D01*
X0032552Y0232982D01*
X0032484Y0233180D01*
X0032421Y0233379D01*
X0032363Y0233579D01*
X0032310Y0233781D01*
X0032262Y0233984D01*
X0032218Y0234188D01*
X0032180Y0234393D01*
X0032147Y0234599D01*
X0032119Y0234806D01*
X0032096Y0235013D01*
X0032078Y0235221D01*
X0032065Y0235429D01*
X0032058Y0235637D01*
X0032055Y0235846D01*
X0061728Y0218933D02*
X0063728Y0216933D01*
X0037728Y0202933D02*
X0061728Y0178933D01*
X0062728Y0178933D01*
X0149728Y0185933D02*
X0156728Y0178933D01*
X0163728Y0185933D01*
X0168528Y0207134D02*
X0156728Y0218933D01*
X0156728Y0248933D02*
X0171972Y0248933D01*
X0251728Y0178933D02*
X0258728Y0185933D01*
X0251728Y0179933D02*
X0251728Y0178933D01*
X0302043Y0268374D02*
X0314287Y0268374D01*
D11*
X0346728Y0248933D03*
X0376728Y0238933D03*
X0346728Y0218933D03*
X0281728Y0238933D03*
X0251728Y0248933D03*
X0251728Y0218933D03*
X0186728Y0238933D03*
X0156728Y0248933D03*
X0156728Y0218933D03*
X0156728Y0178933D03*
X0186728Y0178933D03*
X0251728Y0178933D03*
X0281728Y0178933D03*
X0346728Y0178933D03*
X0376728Y0178933D03*
X0091728Y0178933D03*
X0061728Y0178933D03*
X0061728Y0218933D03*
X0091728Y0238933D03*
X0061728Y0248933D03*
D12*
X0059728Y0047933D03*
X0069728Y0047933D03*
X0079728Y0047933D03*
X0089728Y0047933D03*
X0099728Y0047933D03*
X0109728Y0047933D03*
X0119728Y0047933D03*
X0129728Y0047933D03*
X0139728Y0047933D03*
X0149728Y0047933D03*
X0159728Y0047933D03*
X0169728Y0047933D03*
X0179728Y0047933D03*
X0189728Y0047933D03*
X0199728Y0047933D03*
X0209728Y0047933D03*
X0219728Y0047933D03*
X0229728Y0047933D03*
X0239728Y0047933D03*
X0249728Y0047933D03*
X0249728Y0037933D03*
X0239728Y0037933D03*
X0229728Y0037933D03*
X0219728Y0037933D03*
X0209728Y0037933D03*
X0199728Y0037933D03*
X0189728Y0037933D03*
X0179728Y0037933D03*
X0169728Y0037933D03*
X0159728Y0037933D03*
X0149728Y0037933D03*
X0139728Y0037933D03*
X0129728Y0037933D03*
X0119728Y0037933D03*
X0109728Y0037933D03*
X0099728Y0037933D03*
X0089728Y0037933D03*
X0079728Y0037933D03*
X0069728Y0037933D03*
X0059728Y0037933D03*
D13*
X0047043Y0268374D03*
X0039169Y0278217D03*
X0066728Y0278217D03*
X0086413Y0268374D03*
X0094287Y0278217D03*
X0124169Y0278217D03*
X0132043Y0268374D03*
X0151728Y0278217D03*
X0171413Y0268374D03*
X0179287Y0278217D03*
X0209169Y0278217D03*
X0217043Y0268374D03*
X0236728Y0278217D03*
X0256413Y0268374D03*
X0264287Y0278217D03*
X0294169Y0278217D03*
X0302043Y0268374D03*
X0321728Y0278217D03*
X0341413Y0268374D03*
X0349287Y0278217D03*
X0379169Y0278217D03*
X0387043Y0268374D03*
X0406728Y0278217D03*
X0426413Y0268374D03*
X0434287Y0278217D03*
X0464169Y0278217D03*
X0472043Y0268374D03*
X0491728Y0278217D03*
X0511413Y0268374D03*
X0519287Y0278217D03*
X0549169Y0278217D03*
X0557043Y0268374D03*
X0576728Y0278217D03*
X0596413Y0268374D03*
X0604287Y0278217D03*
X0634169Y0278217D03*
X0642043Y0268374D03*
X0661728Y0278217D03*
X0681413Y0268374D03*
X0689287Y0278217D03*
X0671571Y0317587D03*
X0651886Y0317587D03*
X0586571Y0317587D03*
X0566886Y0317587D03*
X0501571Y0317587D03*
X0481886Y0317587D03*
X0416571Y0317587D03*
X0396886Y0317587D03*
X0331571Y0317587D03*
X0311886Y0317587D03*
X0246571Y0317587D03*
X0226886Y0317587D03*
X0161571Y0317587D03*
X0141886Y0317587D03*
X0076571Y0317587D03*
X0056886Y0317587D03*
D14*
X0111728Y0239142D03*
X0111728Y0224732D03*
X0111728Y0207134D03*
X0111728Y0192724D03*
X0206728Y0192724D03*
X0206728Y0207134D03*
X0206728Y0224732D03*
X0206728Y0239142D03*
X0301728Y0239142D03*
X0301728Y0224732D03*
X0301728Y0207134D03*
X0301728Y0192724D03*
X0396728Y0192724D03*
X0396728Y0207134D03*
X0396728Y0224732D03*
X0396728Y0239142D03*
D15*
X0235575Y0163433D03*
X0228882Y0163433D03*
X0208575Y0163433D03*
X0201882Y0163433D03*
X0205075Y0147433D03*
X0198382Y0147433D03*
X0196575Y0139933D03*
X0189882Y0139933D03*
X0185075Y0131933D03*
X0178382Y0131933D03*
X0177382Y0112933D03*
X0184075Y0112933D03*
X0154075Y0082933D03*
X0147382Y0082933D03*
X0155382Y0074933D03*
X0162075Y0074933D03*
X0163382Y0066933D03*
X0170075Y0066933D03*
X0185182Y0076533D03*
X0191875Y0076533D03*
X0115075Y0099933D03*
X0108382Y0099933D03*
X0087075Y0082933D03*
X0080382Y0082933D03*
X0080382Y0071933D03*
X0087075Y0071933D03*
X0087075Y0061933D03*
X0080382Y0061933D03*
X0235382Y0147433D03*
X0242075Y0147433D03*
X0246882Y0137433D03*
X0253575Y0137433D03*
X0255882Y0131933D03*
X0262575Y0131933D03*
X0279382Y0064933D03*
X0286075Y0064933D03*
X0287382Y0047933D03*
X0294075Y0047933D03*
X0294075Y0037933D03*
X0287382Y0037933D03*
D16*
X0122358Y0078433D03*
X0122358Y0083433D03*
X0122358Y0088433D03*
X0122358Y0093433D03*
X0101098Y0093433D03*
X0101098Y0088433D03*
X0101098Y0083433D03*
X0101098Y0078433D03*
D17*
X0106728Y0064933D03*
X0116728Y0064933D03*
D18*
X0201228Y0096633D03*
X0206228Y0096633D03*
X0211228Y0096633D03*
X0216228Y0096633D03*
X0221228Y0096633D03*
X0226228Y0096633D03*
X0231228Y0096633D03*
X0236228Y0096633D03*
X0236228Y0115233D03*
X0231228Y0115233D03*
X0226228Y0115233D03*
X0221228Y0115233D03*
X0216228Y0115233D03*
X0211228Y0115233D03*
X0206228Y0115233D03*
X0201228Y0115233D03*
D19*
X0335201Y0030433D03*
X0354886Y0030433D03*
X0374571Y0030433D03*
X0394256Y0030433D03*
D20*
X0248728Y0125087D03*
X0239228Y0130587D03*
X0248728Y0131780D03*
X0239228Y0137280D03*
X0227728Y0140587D03*
X0227728Y0147280D03*
X0224228Y0156587D03*
X0224228Y0163280D03*
X0213228Y0163280D03*
X0213228Y0156587D03*
X0210228Y0147280D03*
X0210228Y0140587D03*
X0202228Y0137780D03*
X0202228Y0131087D03*
X0192728Y0131780D03*
X0192728Y0125087D03*
D21*
X0426728Y0178933D03*
X0456728Y0178933D03*
X0496728Y0178933D03*
X0526728Y0178933D03*
X0566728Y0178933D03*
X0596728Y0178933D03*
X0646728Y0178933D03*
X0676728Y0178933D03*
X0646728Y0218933D03*
X0646728Y0248933D03*
X0566728Y0248933D03*
X0566728Y0218933D03*
X0496728Y0218933D03*
X0496728Y0248933D03*
X0426728Y0248933D03*
X0426728Y0218933D03*
D22*
X0041728Y0020933D02*
X0031828Y0030833D01*
X0031828Y0034846D01*
X0034678Y0032454D01*
X0034678Y0032454D01*
X0038627Y0031017D01*
X0042829Y0031017D01*
X0046778Y0032454D01*
X0049997Y0035155D01*
X0052099Y0038795D01*
X0052828Y0042933D01*
X0052099Y0047071D01*
X0052099Y0047072D01*
X0049997Y0050711D01*
X0046778Y0053412D01*
X0042829Y0054849D01*
X0038627Y0054849D01*
X0034678Y0053412D01*
X0031828Y0051021D01*
X0031828Y0089033D01*
X0041728Y0098933D01*
X0089283Y0098935D01*
X0087973Y0097533D01*
X0087772Y0097533D01*
X0086376Y0096955D01*
X0085307Y0095886D01*
X0084728Y0094489D01*
X0084728Y0092977D01*
X0085307Y0091581D01*
X0086154Y0090733D01*
X0082171Y0090733D01*
X0081142Y0090307D01*
X0079142Y0088307D01*
X0078355Y0087519D01*
X0078099Y0086902D01*
X0077388Y0086902D01*
X0076217Y0085730D01*
X0076217Y0080136D01*
X0077388Y0078965D01*
X0077582Y0078965D01*
X0077582Y0075902D01*
X0077388Y0075902D01*
X0076217Y0074730D01*
X0076217Y0069136D01*
X0077388Y0067965D01*
X0077582Y0067965D01*
X0077582Y0065902D01*
X0077388Y0065902D01*
X0076217Y0064730D01*
X0076217Y0059136D01*
X0077388Y0057965D01*
X0083376Y0057965D01*
X0083728Y0058317D01*
X0084081Y0057965D01*
X0090069Y0057965D01*
X0091237Y0059133D01*
X0104285Y0059133D01*
X0105061Y0059454D01*
X0105595Y0059233D01*
X0107862Y0059233D01*
X0109957Y0060101D01*
X0111561Y0061704D01*
X0112428Y0063799D01*
X0112428Y0066067D01*
X0111561Y0068162D01*
X0109957Y0069765D01*
X0107862Y0070633D01*
X0105595Y0070633D01*
X0103500Y0069765D01*
X0101896Y0068162D01*
X0101028Y0066067D01*
X0101028Y0064733D01*
X0091237Y0064733D01*
X0090069Y0065902D01*
X0084081Y0065902D01*
X0083728Y0065549D01*
X0083376Y0065902D01*
X0083182Y0065902D01*
X0083182Y0067965D01*
X0083376Y0067965D01*
X0083728Y0068317D01*
X0084081Y0067965D01*
X0090069Y0067965D01*
X0090745Y0068641D01*
X0091972Y0068133D01*
X0093484Y0068133D01*
X0094881Y0068712D01*
X0095950Y0069781D01*
X0096528Y0071177D01*
X0096528Y0071773D01*
X0099888Y0075133D01*
X0101155Y0075133D01*
X0101442Y0075252D01*
X0104978Y0075252D01*
X0106150Y0076424D01*
X0106150Y0080443D01*
X0105659Y0080933D01*
X0106150Y0081424D01*
X0106150Y0085443D01*
X0105659Y0085933D01*
X0106150Y0086424D01*
X0106150Y0090443D01*
X0105659Y0090933D01*
X0106150Y0091424D01*
X0106150Y0095443D01*
X0105628Y0095965D01*
X0111376Y0095965D01*
X0112547Y0097136D01*
X0112547Y0098936D01*
X0136764Y0098937D01*
X0144355Y0091347D01*
X0145142Y0090559D01*
X0146171Y0090133D01*
X0178154Y0090133D01*
X0178576Y0089712D01*
X0179972Y0089133D01*
X0180686Y0089133D01*
X0177800Y0086247D01*
X0177576Y0086155D01*
X0176507Y0085086D01*
X0175928Y0083689D01*
X0175928Y0082177D01*
X0176507Y0080781D01*
X0177576Y0079712D01*
X0178972Y0079133D01*
X0180484Y0079133D01*
X0181057Y0079370D01*
X0181017Y0079330D01*
X0181017Y0074888D01*
X0170428Y0085476D01*
X0169325Y0085933D01*
X0158037Y0085933D01*
X0157069Y0086902D01*
X0151081Y0086902D01*
X0150728Y0086549D01*
X0150376Y0086902D01*
X0144388Y0086902D01*
X0143217Y0085730D01*
X0143217Y0085554D01*
X0143029Y0085476D01*
X0138029Y0080476D01*
X0137185Y0079632D01*
X0136728Y0078530D01*
X0136728Y0052994D01*
X0134028Y0050294D01*
X0134028Y0045572D01*
X0136667Y0042933D01*
X0134728Y0040994D01*
X0132089Y0043633D01*
X0127367Y0043633D01*
X0124728Y0040994D01*
X0122789Y0042933D01*
X0125428Y0045572D01*
X0125428Y0050294D01*
X0122089Y0053633D01*
X0117367Y0053633D01*
X0114728Y0050994D01*
X0112089Y0053633D01*
X0107367Y0053633D01*
X0104728Y0050994D01*
X0102089Y0053633D01*
X0097367Y0053633D01*
X0094728Y0050994D01*
X0092089Y0053633D01*
X0087367Y0053633D01*
X0084728Y0050994D01*
X0082089Y0053633D01*
X0077367Y0053633D01*
X0074728Y0050994D01*
X0072089Y0053633D01*
X0067367Y0053633D01*
X0064028Y0050294D01*
X0064028Y0045572D01*
X0066667Y0042933D01*
X0064728Y0040994D01*
X0062089Y0043633D01*
X0057367Y0043633D01*
X0054028Y0040294D01*
X0054028Y0035572D01*
X0057367Y0032233D01*
X0062089Y0032233D01*
X0064728Y0034872D01*
X0067367Y0032233D01*
X0072089Y0032233D01*
X0074728Y0034872D01*
X0077367Y0032233D01*
X0082089Y0032233D01*
X0085428Y0035572D01*
X0085428Y0040294D01*
X0082789Y0042933D01*
X0084728Y0044872D01*
X0087367Y0042233D01*
X0092089Y0042233D01*
X0094728Y0044872D01*
X0096667Y0042933D01*
X0094028Y0040294D01*
X0094028Y0035572D01*
X0097367Y0032233D01*
X0102089Y0032233D01*
X0105428Y0035572D01*
X0105428Y0040294D01*
X0102789Y0042933D01*
X0104728Y0044872D01*
X0107367Y0042233D01*
X0112089Y0042233D01*
X0114728Y0044872D01*
X0116667Y0042933D01*
X0114028Y0040294D01*
X0114028Y0035572D01*
X0117367Y0032233D01*
X0122089Y0032233D01*
X0124728Y0034872D01*
X0127367Y0032233D01*
X0132089Y0032233D01*
X0134728Y0034872D01*
X0137367Y0032233D01*
X0142089Y0032233D01*
X0144728Y0034872D01*
X0147367Y0032233D01*
X0152089Y0032233D01*
X0155428Y0035572D01*
X0155428Y0040294D01*
X0152789Y0042933D01*
X0154728Y0044872D01*
X0157367Y0042233D01*
X0162089Y0042233D01*
X0164728Y0044872D01*
X0166667Y0042933D01*
X0164028Y0040294D01*
X0164028Y0035572D01*
X0167367Y0032233D01*
X0172089Y0032233D01*
X0174728Y0034872D01*
X0177367Y0032233D01*
X0182089Y0032233D01*
X0185428Y0035572D01*
X0185428Y0040294D01*
X0182789Y0042933D01*
X0184728Y0044872D01*
X0187367Y0042233D01*
X0192089Y0042233D01*
X0194728Y0044872D01*
X0196667Y0042933D01*
X0194028Y0040294D01*
X0194028Y0035572D01*
X0197367Y0032233D01*
X0202089Y0032233D01*
X0204728Y0034872D01*
X0207367Y0032233D01*
X0212089Y0032233D01*
X0214728Y0034872D01*
X0217367Y0032233D01*
X0222089Y0032233D01*
X0225428Y0035572D01*
X0225428Y0040294D01*
X0222789Y0042933D01*
X0224728Y0044872D01*
X0227367Y0042233D01*
X0232089Y0042233D01*
X0234728Y0044872D01*
X0236667Y0042933D01*
X0234028Y0040294D01*
X0234028Y0035572D01*
X0237367Y0032233D01*
X0242089Y0032233D01*
X0244189Y0034333D01*
X0245267Y0034333D01*
X0247367Y0032233D01*
X0250337Y0032233D01*
X0257689Y0024881D01*
X0259012Y0024333D01*
X0277444Y0024333D01*
X0278768Y0024881D01*
X0279780Y0025894D01*
X0287851Y0033965D01*
X0290376Y0033965D01*
X0290728Y0034317D01*
X0291081Y0033965D01*
X0297069Y0033965D01*
X0298240Y0035136D01*
X0298240Y0040730D01*
X0297069Y0041902D01*
X0291081Y0041902D01*
X0290728Y0041549D01*
X0290376Y0041902D01*
X0284388Y0041902D01*
X0283217Y0040730D01*
X0283217Y0039512D01*
X0275237Y0031533D01*
X0272248Y0031533D01*
X0274778Y0032454D01*
X0277997Y0035155D01*
X0280099Y0038795D01*
X0280828Y0042933D01*
X0280099Y0047071D01*
X0280099Y0047072D01*
X0277997Y0050711D01*
X0274778Y0053412D01*
X0272248Y0054333D01*
X0275237Y0054333D01*
X0283217Y0046354D01*
X0283217Y0045136D01*
X0284388Y0043965D01*
X0290376Y0043965D01*
X0290728Y0044317D01*
X0291081Y0043965D01*
X0297069Y0043965D01*
X0298037Y0044933D01*
X0301325Y0044933D01*
X0302428Y0045390D01*
X0309428Y0052390D01*
X0310272Y0053234D01*
X0310728Y0054336D01*
X0310728Y0061604D01*
X0311522Y0062398D01*
X0312203Y0064043D01*
X0312203Y0065823D01*
X0311522Y0067468D01*
X0310728Y0068262D01*
X0310728Y0076690D01*
X0312178Y0075240D01*
X0312178Y0074028D01*
X0312871Y0072356D01*
X0313128Y0072098D01*
X0313128Y0050424D01*
X0303689Y0040985D01*
X0302676Y0039972D01*
X0302128Y0038649D01*
X0302128Y0037217D01*
X0302676Y0035894D01*
X0308689Y0029881D01*
X0310012Y0029333D01*
X0311444Y0029333D01*
X0312768Y0029881D01*
X0313780Y0030894D01*
X0314328Y0032217D01*
X0314328Y0033649D01*
X0313780Y0034972D01*
X0310820Y0037933D01*
X0318768Y0045881D01*
X0319780Y0046894D01*
X0320328Y0048217D01*
X0320328Y0072098D01*
X0320586Y0072356D01*
X0321278Y0074028D01*
X0321278Y0075838D01*
X0320586Y0077510D01*
X0319306Y0078790D01*
X0317633Y0079483D01*
X0316421Y0079483D01*
X0310371Y0085533D01*
X0327754Y0085533D01*
X0327976Y0085312D01*
X0329372Y0084733D01*
X0330884Y0084733D01*
X0332281Y0085312D01*
X0333350Y0086381D01*
X0333928Y0087777D01*
X0333928Y0089289D01*
X0333350Y0090686D01*
X0332281Y0091755D01*
X0330884Y0092333D01*
X0329372Y0092333D01*
X0327976Y0091755D01*
X0327754Y0091533D01*
X0310371Y0091533D01*
X0305428Y0096476D01*
X0304325Y0096933D01*
X0234328Y0096933D01*
X0234328Y0098942D01*
X0380128Y0098949D01*
X0380128Y0037424D01*
X0379031Y0036326D01*
X0378689Y0036185D01*
X0377676Y0035172D01*
X0377128Y0033849D01*
X0377128Y0032217D01*
X0377676Y0030894D01*
X0378689Y0029881D01*
X0380012Y0029333D01*
X0381444Y0029333D01*
X0382768Y0029881D01*
X0383780Y0030894D01*
X0386780Y0033894D01*
X0387328Y0035217D01*
X0387328Y0098949D01*
X0410246Y0098950D01*
X0410328Y0099033D01*
X0410328Y0020733D01*
X0042128Y0020733D01*
X0041728Y0020933D01*
X0040733Y0021929D02*
X0410328Y0021929D01*
X0410328Y0023927D02*
X0396121Y0023927D01*
X0395593Y0023709D02*
X0398065Y0024732D01*
X0399957Y0026624D01*
X0400980Y0029095D01*
X0400980Y0031771D01*
X0399957Y0034242D01*
X0398065Y0036134D01*
X0395593Y0037157D01*
X0392918Y0037157D01*
X0390447Y0036134D01*
X0388555Y0034242D01*
X0387531Y0031771D01*
X0387531Y0029095D01*
X0388555Y0026624D01*
X0390447Y0024732D01*
X0392918Y0023709D01*
X0395593Y0023709D01*
X0392391Y0023927D02*
X0337066Y0023927D01*
X0336538Y0023709D02*
X0339010Y0024732D01*
X0340901Y0026624D01*
X0341925Y0029095D01*
X0341925Y0031771D01*
X0340901Y0034242D01*
X0339010Y0036134D01*
X0336538Y0037157D01*
X0333863Y0037157D01*
X0331392Y0036134D01*
X0329500Y0034242D01*
X0328476Y0031771D01*
X0328476Y0029095D01*
X0329500Y0026624D01*
X0331392Y0024732D01*
X0333863Y0023709D01*
X0336538Y0023709D01*
X0333336Y0023927D02*
X0038734Y0023927D01*
X0036736Y0025926D02*
X0256645Y0025926D01*
X0254646Y0027924D02*
X0034737Y0027924D01*
X0032739Y0029923D02*
X0252648Y0029923D01*
X0250649Y0031921D02*
X0045314Y0031921D01*
X0046778Y0032454D02*
X0046778Y0032454D01*
X0048525Y0033920D02*
X0055681Y0033920D01*
X0054028Y0035918D02*
X0050438Y0035918D01*
X0049997Y0035155D02*
X0049997Y0035155D01*
X0051592Y0037917D02*
X0054028Y0037917D01*
X0054028Y0039915D02*
X0052296Y0039915D01*
X0052099Y0038795D02*
X0052099Y0038795D01*
X0052649Y0041914D02*
X0055648Y0041914D01*
X0052656Y0043912D02*
X0065688Y0043912D01*
X0065648Y0041914D02*
X0063809Y0041914D01*
X0064028Y0045911D02*
X0052303Y0045911D01*
X0051615Y0047909D02*
X0064028Y0047909D01*
X0064028Y0049908D02*
X0050461Y0049908D01*
X0049997Y0050711D02*
X0049997Y0050711D01*
X0049997Y0050711D01*
X0048573Y0051906D02*
X0065641Y0051906D01*
X0073816Y0051906D02*
X0075641Y0051906D01*
X0083816Y0051906D02*
X0085641Y0051906D01*
X0093816Y0051906D02*
X0095641Y0051906D01*
X0103816Y0051906D02*
X0105641Y0051906D01*
X0105688Y0043912D02*
X0103769Y0043912D01*
X0103809Y0041914D02*
X0115648Y0041914D01*
X0115688Y0043912D02*
X0113769Y0043912D01*
X0114028Y0039915D02*
X0105428Y0039915D01*
X0105428Y0037917D02*
X0114028Y0037917D01*
X0114028Y0035918D02*
X0105428Y0035918D01*
X0103776Y0033920D02*
X0115681Y0033920D01*
X0123776Y0033920D02*
X0125681Y0033920D01*
X0133776Y0033920D02*
X0135681Y0033920D01*
X0143776Y0033920D02*
X0145681Y0033920D01*
X0153776Y0033920D02*
X0165681Y0033920D01*
X0164028Y0035918D02*
X0155428Y0035918D01*
X0155428Y0037917D02*
X0164028Y0037917D01*
X0164028Y0039915D02*
X0155428Y0039915D01*
X0153809Y0041914D02*
X0165648Y0041914D01*
X0165688Y0043912D02*
X0163769Y0043912D01*
X0159728Y0047933D02*
X0159728Y0063933D01*
X0162728Y0066933D01*
X0163382Y0066933D01*
X0163002Y0062965D02*
X0162728Y0062690D01*
X0162728Y0052994D01*
X0164728Y0050994D01*
X0167367Y0053633D01*
X0172089Y0053633D01*
X0174728Y0050994D01*
X0177367Y0053633D01*
X0182089Y0053633D01*
X0184728Y0050994D01*
X0187367Y0053633D01*
X0192089Y0053633D01*
X0194728Y0050994D01*
X0197367Y0053633D01*
X0202089Y0053633D01*
X0205428Y0050294D01*
X0205428Y0045572D01*
X0202789Y0042933D01*
X0204728Y0040994D01*
X0207367Y0043633D01*
X0212089Y0043633D01*
X0214728Y0040994D01*
X0216667Y0042933D01*
X0214028Y0045572D01*
X0214028Y0050294D01*
X0217367Y0053633D01*
X0221186Y0053633D01*
X0228029Y0060476D01*
X0229132Y0060933D01*
X0249354Y0060933D01*
X0249576Y0061155D01*
X0250972Y0061733D01*
X0252484Y0061733D01*
X0253881Y0061155D01*
X0254950Y0060086D01*
X0255489Y0058785D01*
X0257689Y0060985D01*
X0259012Y0061533D01*
X0275820Y0061533D01*
X0275420Y0061933D01*
X0238132Y0061933D01*
X0237029Y0062390D01*
X0228535Y0070883D01*
X0228079Y0071986D01*
X0228079Y0073179D01*
X0228535Y0074282D01*
X0229379Y0075126D01*
X0230482Y0075583D01*
X0231675Y0075583D01*
X0232778Y0075126D01*
X0239971Y0067933D01*
X0275420Y0067933D01*
X0276388Y0068902D01*
X0282376Y0068902D01*
X0282728Y0068549D01*
X0283081Y0068902D01*
X0289069Y0068902D01*
X0290240Y0067730D01*
X0290240Y0067554D01*
X0290428Y0067476D01*
X0300171Y0057733D01*
X0300484Y0057733D01*
X0301881Y0057155D01*
X0302950Y0056086D01*
X0303444Y0054892D01*
X0304728Y0056176D01*
X0304728Y0061604D01*
X0303935Y0062398D01*
X0303253Y0064043D01*
X0303253Y0065823D01*
X0303935Y0067468D01*
X0304728Y0068262D01*
X0304728Y0075690D01*
X0297486Y0082933D01*
X0219132Y0082933D01*
X0218029Y0083390D01*
X0217444Y0083974D01*
X0216950Y0082781D01*
X0215881Y0081712D01*
X0214484Y0081133D01*
X0214171Y0081133D01*
X0212778Y0079740D01*
X0211675Y0079283D01*
X0210482Y0079283D01*
X0209379Y0079740D01*
X0208535Y0080584D01*
X0208079Y0081687D01*
X0208079Y0082880D01*
X0208192Y0083154D01*
X0207778Y0082740D01*
X0206675Y0082283D01*
X0205482Y0082283D01*
X0205121Y0082433D01*
X0196802Y0082433D01*
X0196381Y0082012D01*
X0194984Y0081433D01*
X0193472Y0081433D01*
X0192076Y0082012D01*
X0191007Y0083081D01*
X0190454Y0084416D01*
X0188182Y0082144D01*
X0188182Y0080495D01*
X0188528Y0080149D01*
X0188881Y0080502D01*
X0194869Y0080502D01*
X0196040Y0079330D01*
X0196040Y0073736D01*
X0194869Y0072565D01*
X0188881Y0072565D01*
X0188528Y0072917D01*
X0188176Y0072565D01*
X0183339Y0072565D01*
X0185971Y0069933D01*
X0209486Y0069933D01*
X0214379Y0074827D01*
X0215482Y0075283D01*
X0216675Y0075283D01*
X0217778Y0074827D01*
X0218622Y0073983D01*
X0218890Y0073337D01*
X0219379Y0073827D01*
X0220482Y0074283D01*
X0221675Y0074283D01*
X0222778Y0073827D01*
X0223622Y0072983D01*
X0224079Y0071880D01*
X0224079Y0070687D01*
X0223622Y0069584D01*
X0215971Y0061933D01*
X0216486Y0061933D01*
X0224379Y0069827D01*
X0225482Y0070283D01*
X0226675Y0070283D01*
X0227778Y0069827D01*
X0228622Y0068983D01*
X0229079Y0067880D01*
X0229079Y0066687D01*
X0228622Y0065584D01*
X0219428Y0056390D01*
X0218325Y0055933D01*
X0180132Y0055933D01*
X0179029Y0056390D01*
X0178185Y0057234D01*
X0172454Y0062965D01*
X0167081Y0062965D01*
X0166728Y0063317D01*
X0166376Y0062965D01*
X0163002Y0062965D01*
X0162728Y0061899D02*
X0173520Y0061899D01*
X0175518Y0059900D02*
X0162728Y0059900D01*
X0162728Y0057902D02*
X0177517Y0057902D01*
X0180728Y0058933D02*
X0217728Y0058933D01*
X0226079Y0067283D01*
X0228751Y0065896D02*
X0233523Y0065896D01*
X0231524Y0067894D02*
X0229073Y0067894D01*
X0229526Y0069893D02*
X0227618Y0069893D01*
X0228118Y0071891D02*
X0224074Y0071891D01*
X0223750Y0069893D02*
X0224539Y0069893D01*
X0222447Y0067894D02*
X0221932Y0067894D01*
X0220448Y0065896D02*
X0219934Y0065896D01*
X0218450Y0063897D02*
X0217935Y0063897D01*
X0212728Y0062933D02*
X0182728Y0062933D01*
X0170728Y0074933D01*
X0162075Y0074933D01*
X0155382Y0074933D02*
X0152728Y0074933D01*
X0149728Y0071933D01*
X0149728Y0047933D01*
X0153769Y0043912D02*
X0155688Y0043912D01*
X0163816Y0051906D02*
X0165641Y0051906D01*
X0162728Y0053905D02*
X0221457Y0053905D01*
X0223456Y0055903D02*
X0162728Y0055903D01*
X0169528Y0058533D02*
X0173128Y0054933D01*
X0202728Y0054933D01*
X0209728Y0047933D01*
X0205428Y0047909D02*
X0214028Y0047909D01*
X0214028Y0045911D02*
X0205428Y0045911D01*
X0203769Y0043912D02*
X0215688Y0043912D01*
X0215648Y0041914D02*
X0213809Y0041914D01*
X0223809Y0041914D02*
X0235648Y0041914D01*
X0235688Y0043912D02*
X0233769Y0043912D01*
X0234028Y0039915D02*
X0225428Y0039915D01*
X0225428Y0037917D02*
X0234028Y0037917D01*
X0234028Y0035918D02*
X0225428Y0035918D01*
X0223776Y0033920D02*
X0235681Y0033920D01*
X0243776Y0033920D02*
X0245681Y0033920D01*
X0225688Y0043912D02*
X0223769Y0043912D01*
X0219728Y0047933D02*
X0229728Y0057933D01*
X0251728Y0057933D01*
X0255027Y0059900D02*
X0256604Y0059900D01*
X0273424Y0053905D02*
X0275665Y0053905D01*
X0276573Y0051906D02*
X0277664Y0051906D01*
X0277997Y0050711D02*
X0277997Y0050711D01*
X0277997Y0050711D01*
X0278461Y0049908D02*
X0279662Y0049908D01*
X0279615Y0047909D02*
X0281661Y0047909D01*
X0280303Y0045911D02*
X0283217Y0045911D01*
X0280656Y0043912D02*
X0306616Y0043912D01*
X0304618Y0041914D02*
X0280649Y0041914D01*
X0280296Y0039915D02*
X0283217Y0039915D01*
X0281621Y0037917D02*
X0279592Y0037917D01*
X0280099Y0038795D02*
X0280099Y0038795D01*
X0279622Y0035918D02*
X0278438Y0035918D01*
X0277997Y0035155D02*
X0277997Y0035155D01*
X0277624Y0033920D02*
X0276525Y0033920D01*
X0275625Y0031921D02*
X0273314Y0031921D01*
X0274778Y0032454D02*
X0274778Y0032454D01*
X0281811Y0027924D02*
X0328962Y0027924D01*
X0328476Y0029923D02*
X0312809Y0029923D01*
X0314206Y0031921D02*
X0328539Y0031921D01*
X0329367Y0033920D02*
X0314216Y0033920D01*
X0312834Y0035918D02*
X0331176Y0035918D01*
X0339225Y0035918D02*
X0378422Y0035918D01*
X0377158Y0033920D02*
X0341035Y0033920D01*
X0341863Y0031921D02*
X0377251Y0031921D01*
X0378648Y0029923D02*
X0341925Y0029923D01*
X0341440Y0027924D02*
X0388017Y0027924D01*
X0387531Y0029923D02*
X0382809Y0029923D01*
X0384808Y0031921D02*
X0387594Y0031921D01*
X0386791Y0033920D02*
X0388422Y0033920D01*
X0387328Y0035918D02*
X0390231Y0035918D01*
X0387328Y0037917D02*
X0410328Y0037917D01*
X0410328Y0039915D02*
X0387328Y0039915D01*
X0387328Y0041914D02*
X0410328Y0041914D01*
X0410328Y0043912D02*
X0387328Y0043912D01*
X0387328Y0045911D02*
X0410328Y0045911D01*
X0410328Y0047909D02*
X0387328Y0047909D01*
X0387328Y0049908D02*
X0410328Y0049908D01*
X0410328Y0051906D02*
X0387328Y0051906D01*
X0387328Y0053905D02*
X0410328Y0053905D01*
X0410328Y0055903D02*
X0387328Y0055903D01*
X0387328Y0057902D02*
X0410328Y0057902D01*
X0410328Y0059900D02*
X0387328Y0059900D01*
X0387328Y0061899D02*
X0410328Y0061899D01*
X0410328Y0063897D02*
X0387328Y0063897D01*
X0387328Y0065896D02*
X0410328Y0065896D01*
X0410328Y0067894D02*
X0387328Y0067894D01*
X0387328Y0069893D02*
X0410328Y0069893D01*
X0410328Y0071891D02*
X0387328Y0071891D01*
X0387328Y0073890D02*
X0410328Y0073890D01*
X0410328Y0075888D02*
X0387328Y0075888D01*
X0387328Y0077887D02*
X0410328Y0077887D01*
X0410328Y0079885D02*
X0387328Y0079885D01*
X0387328Y0081884D02*
X0410328Y0081884D01*
X0410328Y0083882D02*
X0387328Y0083882D01*
X0387328Y0085881D02*
X0410328Y0085881D01*
X0410328Y0087879D02*
X0387328Y0087879D01*
X0387328Y0089878D02*
X0410328Y0089878D01*
X0410328Y0091877D02*
X0387328Y0091877D01*
X0387328Y0093875D02*
X0410328Y0093875D01*
X0410328Y0095874D02*
X0387328Y0095874D01*
X0387328Y0097872D02*
X0410328Y0097872D01*
X0380128Y0097872D02*
X0234328Y0097872D01*
X0233992Y0101942D02*
X0233465Y0101942D01*
X0233074Y0102333D01*
X0229383Y0102333D01*
X0228991Y0101942D01*
X0228465Y0101942D01*
X0228074Y0102333D01*
X0224383Y0102333D01*
X0223991Y0101942D01*
X0223465Y0101942D01*
X0223074Y0102333D01*
X0219383Y0102333D01*
X0218991Y0101941D01*
X0218466Y0101941D01*
X0218074Y0102333D01*
X0214383Y0102333D01*
X0213991Y0101941D01*
X0208466Y0101941D01*
X0208074Y0102333D01*
X0204383Y0102333D01*
X0203990Y0101941D01*
X0203466Y0101941D01*
X0203074Y0102333D01*
X0199383Y0102333D01*
X0198990Y0101940D01*
X0175813Y0101939D01*
X0175768Y0101985D01*
X0174444Y0102533D01*
X0173012Y0102533D01*
X0171689Y0101985D01*
X0171643Y0101939D01*
X0151683Y0101938D01*
X0143102Y0110519D01*
X0143102Y0110519D01*
X0142314Y0111307D01*
X0141285Y0111733D01*
X0103236Y0111733D01*
X0103190Y0111750D01*
X0102681Y0111733D01*
X0102171Y0111733D01*
X0102126Y0111714D01*
X0102077Y0111713D01*
X0101613Y0111502D01*
X0101142Y0111307D01*
X0101107Y0111272D01*
X0101062Y0111252D01*
X0100715Y0110879D01*
X0100355Y0110519D01*
X0100336Y0110474D01*
X0092359Y0101935D01*
X0041657Y0101933D01*
X0041132Y0101933D01*
X0041132Y0101933D01*
X0041131Y0101933D01*
X0040846Y0101815D01*
X0031828Y0110833D01*
X0031828Y0227871D01*
X0034605Y0225541D01*
X0034605Y0225541D01*
X0038489Y0224127D01*
X0042622Y0224127D01*
X0046505Y0225541D01*
X0049671Y0228197D01*
X0049671Y0228197D01*
X0051737Y0231776D01*
X0052455Y0235846D01*
X0051737Y0239916D01*
X0051737Y0239916D01*
X0049671Y0243496D01*
X0046505Y0246152D01*
X0042622Y0247566D01*
X0038489Y0247566D01*
X0034605Y0246152D01*
X0031828Y0243822D01*
X0031828Y0325933D01*
X0411728Y0325933D01*
X0411728Y0322361D01*
X0410806Y0321438D01*
X0409771Y0318939D01*
X0409771Y0316234D01*
X0410806Y0313735D01*
X0411728Y0312812D01*
X0411728Y0282833D01*
X0410580Y0283981D01*
X0408081Y0285017D01*
X0407453Y0285017D01*
X0398654Y0293815D01*
X0397405Y0294333D01*
X0356052Y0294333D01*
X0354802Y0293815D01*
X0353846Y0292859D01*
X0343846Y0282859D01*
X0343328Y0281609D01*
X0343328Y0281599D01*
X0342487Y0279569D01*
X0342487Y0276864D01*
X0342594Y0276607D01*
X0341161Y0275174D01*
X0340061Y0275174D01*
X0338134Y0274376D01*
X0326681Y0273553D01*
X0327493Y0274365D01*
X0328528Y0276864D01*
X0328528Y0279569D01*
X0327493Y0282068D01*
X0325580Y0283981D01*
X0323081Y0285017D01*
X0320376Y0285017D01*
X0317876Y0283981D01*
X0315964Y0282068D01*
X0314928Y0279569D01*
X0314928Y0276864D01*
X0315964Y0274365D01*
X0317439Y0272889D01*
X0314772Y0272697D01*
X0310128Y0277341D01*
X0310128Y0286609D01*
X0309611Y0287859D01*
X0304611Y0292859D01*
X0303654Y0293815D01*
X0302405Y0294333D01*
X0256052Y0294333D01*
X0254802Y0293815D01*
X0253846Y0292859D01*
X0248846Y0287859D01*
X0248328Y0286609D01*
X0248328Y0277341D01*
X0245503Y0274516D01*
X0242342Y0274213D01*
X0242493Y0274365D01*
X0243528Y0276864D01*
X0243528Y0279569D01*
X0242493Y0282068D01*
X0240580Y0283981D01*
X0238081Y0285017D01*
X0235376Y0285017D01*
X0232876Y0283981D01*
X0230964Y0282068D01*
X0229928Y0279569D01*
X0229928Y0276864D01*
X0230964Y0274365D01*
X0232097Y0273232D01*
X0222702Y0272332D01*
X0220895Y0274139D01*
X0218396Y0275174D01*
X0217296Y0275174D01*
X0215863Y0276607D01*
X0215969Y0276864D01*
X0215969Y0279569D01*
X0215128Y0281599D01*
X0215128Y0286609D01*
X0214611Y0287859D01*
X0209611Y0292859D01*
X0208654Y0293815D01*
X0207405Y0294333D01*
X0161052Y0294333D01*
X0159802Y0293815D01*
X0158846Y0292859D01*
X0153846Y0287859D01*
X0153328Y0286609D01*
X0153328Y0284914D01*
X0153081Y0285017D01*
X0150376Y0285017D01*
X0147876Y0283981D01*
X0145964Y0282068D01*
X0144928Y0279569D01*
X0144928Y0276864D01*
X0145964Y0274365D01*
X0146449Y0273879D01*
X0137448Y0272586D01*
X0135895Y0274139D01*
X0133396Y0275174D01*
X0130691Y0275174D01*
X0130182Y0274963D01*
X0130969Y0276864D01*
X0130969Y0279569D01*
X0129934Y0282068D01*
X0128021Y0283981D01*
X0125522Y0285017D01*
X0122817Y0285017D01*
X0120317Y0283981D01*
X0120128Y0283792D01*
X0120128Y0286609D01*
X0119611Y0287859D01*
X0114611Y0292859D01*
X0113654Y0293815D01*
X0112405Y0294333D01*
X0066052Y0294333D01*
X0064802Y0293815D01*
X0058846Y0287859D01*
X0058328Y0286609D01*
X0058328Y0277341D01*
X0055260Y0274273D01*
X0051765Y0273269D01*
X0050895Y0274139D01*
X0048396Y0275174D01*
X0045691Y0275174D01*
X0045182Y0274963D01*
X0045969Y0276864D01*
X0045969Y0279569D01*
X0044934Y0282068D01*
X0043021Y0283981D01*
X0040522Y0285017D01*
X0037817Y0285017D01*
X0035317Y0283981D01*
X0033405Y0282068D01*
X0032369Y0279569D01*
X0032369Y0276864D01*
X0033405Y0274365D01*
X0035317Y0272452D01*
X0037817Y0271417D01*
X0040522Y0271417D01*
X0041031Y0271627D01*
X0040243Y0269727D01*
X0040243Y0267021D01*
X0041279Y0264522D01*
X0043191Y0262609D01*
X0045691Y0261574D01*
X0048396Y0261574D01*
X0050895Y0262609D01*
X0052808Y0264522D01*
X0053735Y0266760D01*
X0057522Y0267848D01*
X0057720Y0267848D01*
X0058167Y0268033D01*
X0058632Y0268167D01*
X0058787Y0268290D01*
X0058969Y0268366D01*
X0059312Y0268708D01*
X0059690Y0269010D01*
X0059786Y0269183D01*
X0063003Y0272399D01*
X0065376Y0271417D01*
X0068081Y0271417D01*
X0070580Y0272452D01*
X0072493Y0274365D01*
X0073528Y0276864D01*
X0073528Y0279569D01*
X0072493Y0282068D01*
X0070580Y0283981D01*
X0068081Y0285017D01*
X0065620Y0285017D01*
X0068137Y0287533D01*
X0110320Y0287533D01*
X0113328Y0284525D01*
X0113328Y0275257D01*
X0113846Y0274007D01*
X0122361Y0265492D01*
X0123611Y0264974D01*
X0126091Y0264974D01*
X0126279Y0264522D01*
X0128191Y0262609D01*
X0130691Y0261574D01*
X0133396Y0261574D01*
X0135895Y0262609D01*
X0137808Y0264522D01*
X0138357Y0265846D01*
X0152286Y0267848D01*
X0152720Y0267848D01*
X0152950Y0267943D01*
X0153196Y0267979D01*
X0153569Y0268200D01*
X0153969Y0268366D01*
X0154145Y0268542D01*
X0154360Y0268669D01*
X0154619Y0269016D01*
X0158654Y0273051D01*
X0159611Y0274007D01*
X0160128Y0275257D01*
X0160128Y0284525D01*
X0163137Y0287533D01*
X0205320Y0287533D01*
X0207837Y0285017D01*
X0207817Y0285017D01*
X0205317Y0283981D01*
X0203405Y0282068D01*
X0202369Y0279569D01*
X0202369Y0276864D01*
X0203405Y0274365D01*
X0205317Y0272452D01*
X0207817Y0271417D01*
X0210522Y0271417D01*
X0211031Y0271627D01*
X0210243Y0269727D01*
X0210243Y0267021D01*
X0211279Y0264522D01*
X0213191Y0262609D01*
X0215691Y0261574D01*
X0218396Y0261574D01*
X0220895Y0262609D01*
X0222808Y0264522D01*
X0223234Y0265552D01*
X0247206Y0267848D01*
X0247720Y0267848D01*
X0247874Y0267912D01*
X0248041Y0267928D01*
X0248495Y0268169D01*
X0248969Y0268366D01*
X0249088Y0268484D01*
X0249235Y0268562D01*
X0249562Y0268959D01*
X0249613Y0269010D01*
X0249613Y0267021D01*
X0250649Y0264522D01*
X0252561Y0262609D01*
X0255061Y0261574D01*
X0257766Y0261574D01*
X0260265Y0262609D01*
X0262178Y0264522D01*
X0263213Y0267021D01*
X0263213Y0269727D01*
X0262426Y0271627D01*
X0262935Y0271417D01*
X0265640Y0271417D01*
X0268139Y0272452D01*
X0270052Y0274365D01*
X0271087Y0276864D01*
X0271087Y0279569D01*
X0270052Y0282068D01*
X0268139Y0283981D01*
X0265640Y0285017D01*
X0262935Y0285017D01*
X0260436Y0283981D01*
X0258523Y0282068D01*
X0257487Y0279569D01*
X0257487Y0276864D01*
X0258275Y0274963D01*
X0257766Y0275174D01*
X0255094Y0275174D01*
X0255128Y0275257D01*
X0255128Y0284525D01*
X0258137Y0287533D01*
X0300320Y0287533D01*
X0303328Y0284525D01*
X0303328Y0275257D01*
X0303363Y0275174D01*
X0300691Y0275174D01*
X0300182Y0274963D01*
X0300969Y0276864D01*
X0300969Y0279569D01*
X0299934Y0282068D01*
X0298021Y0283981D01*
X0295522Y0285017D01*
X0292817Y0285017D01*
X0290317Y0283981D01*
X0288405Y0282068D01*
X0287369Y0279569D01*
X0287369Y0276864D01*
X0288405Y0274365D01*
X0290317Y0272452D01*
X0292817Y0271417D01*
X0295522Y0271417D01*
X0296031Y0271627D01*
X0295243Y0269727D01*
X0295243Y0267021D01*
X0296279Y0264522D01*
X0298191Y0262609D01*
X0300691Y0261574D01*
X0303396Y0261574D01*
X0305895Y0262609D01*
X0307808Y0264522D01*
X0307995Y0264974D01*
X0314964Y0264974D01*
X0316213Y0265492D01*
X0316743Y0266021D01*
X0334613Y0267305D01*
X0334613Y0267021D01*
X0335649Y0264522D01*
X0337561Y0262609D01*
X0340061Y0261574D01*
X0342766Y0261574D01*
X0345265Y0262609D01*
X0347178Y0264522D01*
X0348213Y0267021D01*
X0348213Y0269727D01*
X0347426Y0271627D01*
X0347935Y0271417D01*
X0350640Y0271417D01*
X0353139Y0272452D01*
X0355052Y0274365D01*
X0356087Y0276864D01*
X0356087Y0279569D01*
X0355052Y0282068D01*
X0353862Y0283258D01*
X0358137Y0287533D01*
X0395320Y0287533D01*
X0400911Y0281942D01*
X0399928Y0279569D01*
X0399928Y0276864D01*
X0400964Y0274365D01*
X0402876Y0272452D01*
X0403328Y0272265D01*
X0403328Y0242315D01*
X0402927Y0243284D01*
X0400870Y0245340D01*
X0398183Y0246454D01*
X0395274Y0246454D01*
X0392587Y0245340D01*
X0390530Y0243284D01*
X0389556Y0240933D01*
X0386728Y0240933D01*
X0371728Y0225933D01*
X0371728Y0115933D01*
X0357743Y0101948D01*
X0238465Y0101942D01*
X0238074Y0102333D01*
X0234383Y0102333D01*
X0233992Y0101942D01*
X0234383Y0109533D02*
X0238074Y0109533D01*
X0239128Y0110587D01*
X0239128Y0119879D01*
X0238074Y0120933D01*
X0234383Y0120933D01*
X0233728Y0120279D01*
X0233074Y0120933D01*
X0229383Y0120933D01*
X0228728Y0120279D01*
X0228074Y0120933D01*
X0224383Y0120933D01*
X0223728Y0120279D01*
X0223074Y0120933D01*
X0219383Y0120933D01*
X0218728Y0120279D01*
X0218074Y0120933D01*
X0214383Y0120933D01*
X0213728Y0120279D01*
X0213074Y0120933D01*
X0209383Y0120933D01*
X0208728Y0120279D01*
X0208074Y0120933D01*
X0204383Y0120933D01*
X0203728Y0120279D01*
X0203074Y0120933D01*
X0199383Y0120933D01*
X0198328Y0119879D01*
X0198328Y0110587D01*
X0199383Y0109533D01*
X0203074Y0109533D01*
X0203728Y0110187D01*
X0204383Y0109533D01*
X0208074Y0109533D01*
X0208728Y0110187D01*
X0209383Y0109533D01*
X0213074Y0109533D01*
X0213728Y0110187D01*
X0214383Y0109533D01*
X0218074Y0109533D01*
X0218728Y0110187D01*
X0219383Y0109533D01*
X0223074Y0109533D01*
X0223728Y0110187D01*
X0224383Y0109533D01*
X0228074Y0109533D01*
X0228728Y0110187D01*
X0229383Y0109533D01*
X0233074Y0109533D01*
X0233728Y0110187D01*
X0234383Y0109533D01*
X0234053Y0109863D02*
X0233404Y0109863D01*
X0229053Y0109863D02*
X0228404Y0109863D01*
X0224053Y0109863D02*
X0223404Y0109863D01*
X0219053Y0109863D02*
X0218404Y0109863D01*
X0214053Y0109863D02*
X0213404Y0109863D01*
X0209053Y0109863D02*
X0208404Y0109863D01*
X0204053Y0109863D02*
X0203404Y0109863D01*
X0199053Y0109863D02*
X0180991Y0109863D01*
X0181347Y0110219D02*
X0180293Y0109165D01*
X0179588Y0109165D01*
X0179780Y0108972D01*
X0180328Y0107649D01*
X0180328Y0106217D01*
X0179780Y0104894D01*
X0178768Y0103881D01*
X0177444Y0103333D01*
X0176012Y0103333D01*
X0174689Y0103881D01*
X0173676Y0104894D01*
X0173128Y0106217D01*
X0173128Y0107649D01*
X0173676Y0108972D01*
X0173928Y0109224D01*
X0173928Y0109707D01*
X0173417Y0110219D01*
X0173417Y0115647D01*
X0174471Y0116702D01*
X0180293Y0116702D01*
X0181347Y0115647D01*
X0181347Y0110219D01*
X0181347Y0111862D02*
X0198328Y0111862D01*
X0198328Y0113860D02*
X0181347Y0113860D01*
X0181136Y0115859D02*
X0198328Y0115859D01*
X0198328Y0117857D02*
X0031828Y0117857D01*
X0031828Y0115859D02*
X0173628Y0115859D01*
X0173417Y0113860D02*
X0031828Y0113860D01*
X0031828Y0111862D02*
X0173417Y0111862D01*
X0173772Y0109863D02*
X0143758Y0109863D01*
X0145757Y0107865D02*
X0173218Y0107865D01*
X0173274Y0105866D02*
X0147755Y0105866D01*
X0149754Y0103868D02*
X0174722Y0103868D01*
X0176728Y0106933D02*
X0176728Y0112280D01*
X0177382Y0112933D01*
X0180239Y0107865D02*
X0363660Y0107865D01*
X0365658Y0109863D02*
X0238404Y0109863D01*
X0239128Y0111862D02*
X0367657Y0111862D01*
X0369655Y0113860D02*
X0239128Y0113860D01*
X0239128Y0115859D02*
X0371654Y0115859D01*
X0371728Y0117857D02*
X0239128Y0117857D01*
X0239128Y0119856D02*
X0371728Y0119856D01*
X0371728Y0121854D02*
X0252175Y0121854D01*
X0252497Y0122176D02*
X0252497Y0127998D01*
X0252061Y0128433D01*
X0252382Y0128754D01*
X0252971Y0128165D01*
X0258793Y0128165D01*
X0259847Y0129219D01*
X0259847Y0134647D01*
X0258793Y0135702D01*
X0252971Y0135702D01*
X0252228Y0134959D01*
X0251442Y0135745D01*
X0250847Y0135745D01*
X0250847Y0140147D01*
X0249793Y0141202D01*
X0243971Y0141202D01*
X0242978Y0140209D01*
X0241942Y0141245D01*
X0236514Y0141245D01*
X0235460Y0140190D01*
X0235460Y0134369D01*
X0235895Y0133933D01*
X0235460Y0133498D01*
X0235460Y0127676D01*
X0236514Y0126621D01*
X0241942Y0126621D01*
X0242997Y0127676D01*
X0242997Y0133498D01*
X0242561Y0133933D01*
X0242997Y0134369D01*
X0242997Y0134639D01*
X0243971Y0133665D01*
X0244960Y0133665D01*
X0244960Y0128869D01*
X0245395Y0128433D01*
X0244960Y0127998D01*
X0244960Y0122176D01*
X0246014Y0121121D01*
X0251442Y0121121D01*
X0252497Y0122176D01*
X0252497Y0123853D02*
X0371728Y0123853D01*
X0371728Y0125851D02*
X0252497Y0125851D01*
X0252497Y0127850D02*
X0371728Y0127850D01*
X0371728Y0129848D02*
X0259847Y0129848D01*
X0259847Y0131847D02*
X0371728Y0131847D01*
X0371728Y0133845D02*
X0259847Y0133845D01*
X0250847Y0135844D02*
X0371728Y0135844D01*
X0371728Y0137842D02*
X0250847Y0137842D01*
X0250847Y0139841D02*
X0371728Y0139841D01*
X0371728Y0141839D02*
X0231497Y0141839D01*
X0231497Y0143498D02*
X0231497Y0137676D01*
X0230442Y0136621D01*
X0225014Y0136621D01*
X0223960Y0137676D01*
X0223960Y0143498D01*
X0224395Y0143933D01*
X0223960Y0144369D01*
X0223960Y0150190D01*
X0225014Y0151245D01*
X0230442Y0151245D01*
X0231478Y0150209D01*
X0232471Y0151202D01*
X0238293Y0151202D01*
X0239347Y0150147D01*
X0239347Y0144719D01*
X0238293Y0143665D01*
X0232471Y0143665D01*
X0231497Y0144639D01*
X0231497Y0144369D01*
X0231061Y0143933D01*
X0231497Y0143498D01*
X0231157Y0143838D02*
X0232298Y0143838D01*
X0231497Y0139841D02*
X0235460Y0139841D01*
X0235460Y0137842D02*
X0231497Y0137842D01*
X0235460Y0135844D02*
X0205997Y0135844D01*
X0205997Y0134869D02*
X0205997Y0140690D01*
X0204942Y0141745D01*
X0200540Y0141745D01*
X0200540Y0142647D01*
X0199486Y0143702D01*
X0193664Y0143702D01*
X0192609Y0142647D01*
X0192609Y0137219D01*
X0193664Y0136165D01*
X0198460Y0136165D01*
X0198460Y0134869D01*
X0198895Y0134433D01*
X0198460Y0133998D01*
X0198460Y0128176D01*
X0199514Y0127121D01*
X0204942Y0127121D01*
X0205997Y0128176D01*
X0205997Y0133998D01*
X0205561Y0134433D01*
X0205997Y0134869D01*
X0205997Y0133845D02*
X0235808Y0133845D01*
X0235460Y0131847D02*
X0205997Y0131847D01*
X0205997Y0129848D02*
X0235460Y0129848D01*
X0235460Y0127850D02*
X0205671Y0127850D01*
X0198786Y0127850D02*
X0196497Y0127850D01*
X0196497Y0127998D02*
X0196061Y0128433D01*
X0196497Y0128869D01*
X0196497Y0134690D01*
X0195442Y0135745D01*
X0190014Y0135745D01*
X0188978Y0134709D01*
X0187986Y0135702D01*
X0182164Y0135702D01*
X0181109Y0134647D01*
X0181109Y0129219D01*
X0182164Y0128165D01*
X0187986Y0128165D01*
X0188960Y0129139D01*
X0188960Y0128869D01*
X0189395Y0128433D01*
X0188960Y0127998D01*
X0188960Y0122176D01*
X0190014Y0121121D01*
X0195442Y0121121D01*
X0196497Y0122176D01*
X0196497Y0127998D01*
X0196497Y0129848D02*
X0198460Y0129848D01*
X0198460Y0131847D02*
X0196497Y0131847D01*
X0196497Y0133845D02*
X0198460Y0133845D01*
X0198460Y0135844D02*
X0031828Y0135844D01*
X0031828Y0137842D02*
X0192609Y0137842D01*
X0192609Y0139841D02*
X0031828Y0139841D01*
X0031828Y0141839D02*
X0192609Y0141839D01*
X0200540Y0141839D02*
X0206460Y0141839D01*
X0206460Y0143498D02*
X0206460Y0137676D01*
X0207514Y0136621D01*
X0212942Y0136621D01*
X0213997Y0137676D01*
X0213997Y0143498D01*
X0213561Y0143933D01*
X0213997Y0144369D01*
X0213997Y0150190D01*
X0212942Y0151245D01*
X0207514Y0151245D01*
X0207471Y0151202D01*
X0202164Y0151202D01*
X0201109Y0150147D01*
X0201109Y0144719D01*
X0202164Y0143665D01*
X0206627Y0143665D01*
X0206460Y0143498D01*
X0206460Y0139841D02*
X0205997Y0139841D01*
X0205997Y0137842D02*
X0206460Y0137842D01*
X0213997Y0137842D02*
X0223960Y0137842D01*
X0223960Y0139841D02*
X0213997Y0139841D01*
X0213997Y0141839D02*
X0223960Y0141839D01*
X0224300Y0143838D02*
X0213657Y0143838D01*
X0213997Y0145836D02*
X0223960Y0145836D01*
X0223960Y0147835D02*
X0213997Y0147835D01*
X0213997Y0149833D02*
X0223960Y0149833D01*
X0221514Y0152621D02*
X0226942Y0152621D01*
X0227997Y0153676D01*
X0227997Y0159498D01*
X0227830Y0159665D01*
X0231793Y0159665D01*
X0232847Y0160719D01*
X0232847Y0166147D01*
X0231793Y0167202D01*
X0226986Y0167202D01*
X0226942Y0167245D01*
X0221514Y0167245D01*
X0220460Y0166190D01*
X0220460Y0160369D01*
X0220895Y0159933D01*
X0220460Y0159498D01*
X0220460Y0153676D01*
X0221514Y0152621D01*
X0220460Y0153830D02*
X0216997Y0153830D01*
X0216997Y0153676D02*
X0216997Y0159498D01*
X0216561Y0159933D01*
X0216997Y0160369D01*
X0216997Y0166190D01*
X0215942Y0167245D01*
X0210514Y0167245D01*
X0210471Y0167202D01*
X0205664Y0167202D01*
X0204609Y0166147D01*
X0204609Y0160719D01*
X0205664Y0159665D01*
X0209627Y0159665D01*
X0209460Y0159498D01*
X0209460Y0153676D01*
X0210514Y0152621D01*
X0215942Y0152621D01*
X0216997Y0153676D01*
X0216997Y0155829D02*
X0220460Y0155829D01*
X0220460Y0157827D02*
X0216997Y0157827D01*
X0216669Y0159826D02*
X0220788Y0159826D01*
X0220460Y0161824D02*
X0216997Y0161824D01*
X0216997Y0163823D02*
X0220460Y0163823D01*
X0220460Y0165821D02*
X0216997Y0165821D01*
X0209460Y0157827D02*
X0031828Y0157827D01*
X0031828Y0155829D02*
X0209460Y0155829D01*
X0209460Y0153830D02*
X0031828Y0153830D01*
X0031828Y0151832D02*
X0371728Y0151832D01*
X0371728Y0153830D02*
X0227997Y0153830D01*
X0227997Y0155829D02*
X0371728Y0155829D01*
X0371728Y0157827D02*
X0227997Y0157827D01*
X0231954Y0159826D02*
X0279472Y0159826D01*
X0279524Y0159700D02*
X0280256Y0158969D01*
X0281211Y0158573D01*
X0282246Y0158573D01*
X0283201Y0158969D01*
X0283933Y0159700D01*
X0284328Y0160656D01*
X0284328Y0175031D01*
X0284334Y0175033D01*
X0285628Y0176327D01*
X0286328Y0178018D01*
X0286328Y0179848D01*
X0285628Y0181539D01*
X0284334Y0182833D01*
X0282643Y0183533D01*
X0280813Y0183533D01*
X0279123Y0182833D01*
X0277829Y0181539D01*
X0277128Y0179848D01*
X0277128Y0178018D01*
X0277829Y0176327D01*
X0279123Y0175033D01*
X0279128Y0175031D01*
X0279128Y0160656D01*
X0279524Y0159700D01*
X0279128Y0161824D02*
X0232847Y0161824D01*
X0232847Y0163823D02*
X0279128Y0163823D01*
X0279128Y0165821D02*
X0232847Y0165821D01*
X0247829Y0176327D02*
X0249123Y0175033D01*
X0250813Y0174333D01*
X0252643Y0174333D01*
X0254334Y0175033D01*
X0255628Y0176327D01*
X0256328Y0178018D01*
X0256328Y0178725D01*
X0261611Y0184007D01*
X0262128Y0185257D01*
X0262128Y0186609D01*
X0261611Y0187859D01*
X0260654Y0188815D01*
X0259405Y0189333D01*
X0258052Y0189333D01*
X0256802Y0188815D01*
X0251520Y0183533D01*
X0250813Y0183533D01*
X0249123Y0182833D01*
X0247829Y0181539D01*
X0247128Y0179848D01*
X0247128Y0178018D01*
X0247829Y0176327D01*
X0248342Y0175814D02*
X0190115Y0175814D01*
X0190628Y0176327D02*
X0191328Y0178018D01*
X0191328Y0179848D01*
X0190628Y0181539D01*
X0189334Y0182833D01*
X0187643Y0183533D01*
X0185813Y0183533D01*
X0184123Y0182833D01*
X0182829Y0181539D01*
X0182128Y0179848D01*
X0182128Y0178018D01*
X0182829Y0176327D01*
X0184123Y0175033D01*
X0184128Y0175031D01*
X0184128Y0160656D01*
X0184524Y0159700D01*
X0185256Y0158969D01*
X0186211Y0158573D01*
X0187246Y0158573D01*
X0188201Y0158969D01*
X0188933Y0159700D01*
X0189328Y0160656D01*
X0189328Y0175031D01*
X0189334Y0175033D01*
X0190628Y0176327D01*
X0191243Y0177812D02*
X0247213Y0177812D01*
X0247128Y0179811D02*
X0191328Y0179811D01*
X0190357Y0181810D02*
X0248099Y0181810D01*
X0251795Y0183808D02*
X0166412Y0183808D01*
X0166611Y0184007D02*
X0167128Y0185257D01*
X0167128Y0186609D01*
X0166611Y0187859D01*
X0165654Y0188815D01*
X0164405Y0189333D01*
X0163052Y0189333D01*
X0161802Y0188815D01*
X0156728Y0183741D01*
X0151654Y0188815D01*
X0150405Y0189333D01*
X0149052Y0189333D01*
X0147802Y0188815D01*
X0146846Y0187859D01*
X0146328Y0186609D01*
X0146328Y0185257D01*
X0146846Y0184007D01*
X0152128Y0178725D01*
X0152128Y0178018D01*
X0152829Y0176327D01*
X0154123Y0175033D01*
X0155813Y0174333D01*
X0157643Y0174333D01*
X0159334Y0175033D01*
X0160628Y0176327D01*
X0161328Y0178018D01*
X0161328Y0178725D01*
X0166611Y0184007D01*
X0167128Y0185807D02*
X0204323Y0185807D01*
X0205274Y0185413D02*
X0208183Y0185413D01*
X0210870Y0186526D01*
X0212927Y0188583D01*
X0214040Y0191270D01*
X0214040Y0194179D01*
X0212927Y0196866D01*
X0210870Y0198923D01*
X0208441Y0199929D01*
X0210870Y0200935D01*
X0212927Y0202992D01*
X0214040Y0205679D01*
X0214040Y0208588D01*
X0212927Y0211276D01*
X0210870Y0213333D01*
X0208183Y0214446D01*
X0205274Y0214446D01*
X0202587Y0213333D01*
X0200530Y0211276D01*
X0199417Y0208588D01*
X0199417Y0205679D01*
X0200530Y0202992D01*
X0202587Y0200935D01*
X0205015Y0199929D01*
X0202587Y0198923D01*
X0200530Y0196866D01*
X0199417Y0194179D01*
X0199417Y0191270D01*
X0200530Y0188583D01*
X0202587Y0186526D01*
X0205274Y0185413D01*
X0209134Y0185807D02*
X0253793Y0185807D01*
X0255792Y0187805D02*
X0212149Y0187805D01*
X0213433Y0189804D02*
X0295024Y0189804D01*
X0295530Y0188583D02*
X0297587Y0186526D01*
X0300274Y0185413D01*
X0303183Y0185413D01*
X0305870Y0186526D01*
X0307927Y0188583D01*
X0309040Y0191270D01*
X0309040Y0194179D01*
X0307927Y0196866D01*
X0305870Y0198923D01*
X0303441Y0199929D01*
X0305870Y0200935D01*
X0307927Y0202992D01*
X0309040Y0205679D01*
X0309040Y0208588D01*
X0307927Y0211276D01*
X0305870Y0213333D01*
X0303183Y0214446D01*
X0300274Y0214446D01*
X0297587Y0213333D01*
X0295530Y0211276D01*
X0294417Y0208588D01*
X0294417Y0205679D01*
X0295530Y0202992D01*
X0297587Y0200935D01*
X0300015Y0199929D01*
X0297587Y0198923D01*
X0295530Y0196866D01*
X0294417Y0194179D01*
X0294417Y0191270D01*
X0295530Y0188583D01*
X0296307Y0187805D02*
X0261633Y0187805D01*
X0262128Y0185807D02*
X0299323Y0185807D01*
X0304134Y0185807D02*
X0336328Y0185807D01*
X0336328Y0185257D02*
X0336846Y0184007D01*
X0342128Y0178725D01*
X0342128Y0178018D01*
X0342829Y0176327D01*
X0344123Y0175033D01*
X0345813Y0174333D01*
X0347643Y0174333D01*
X0349334Y0175033D01*
X0350628Y0176327D01*
X0351328Y0178018D01*
X0351328Y0179848D01*
X0350628Y0181539D01*
X0349334Y0182833D01*
X0347643Y0183533D01*
X0346937Y0183533D01*
X0341654Y0188815D01*
X0340405Y0189333D01*
X0339052Y0189333D01*
X0337802Y0188815D01*
X0336846Y0187859D01*
X0336328Y0186609D01*
X0336328Y0185257D01*
X0337045Y0183808D02*
X0261412Y0183808D01*
X0259413Y0181810D02*
X0278099Y0181810D01*
X0277128Y0179811D02*
X0257415Y0179811D01*
X0256243Y0177812D02*
X0277213Y0177812D01*
X0278342Y0175814D02*
X0255115Y0175814D01*
X0279128Y0173815D02*
X0189328Y0173815D01*
X0189328Y0171817D02*
X0279128Y0171817D01*
X0279128Y0169818D02*
X0189328Y0169818D01*
X0189328Y0167820D02*
X0279128Y0167820D01*
X0284328Y0167820D02*
X0371728Y0167820D01*
X0371728Y0169818D02*
X0284328Y0169818D01*
X0284328Y0171817D02*
X0371728Y0171817D01*
X0371728Y0173815D02*
X0284328Y0173815D01*
X0285115Y0175814D02*
X0343342Y0175814D01*
X0342213Y0177812D02*
X0286243Y0177812D01*
X0286328Y0179811D02*
X0341042Y0179811D01*
X0339044Y0181810D02*
X0285357Y0181810D01*
X0294417Y0191802D02*
X0214040Y0191802D01*
X0214040Y0193801D02*
X0294417Y0193801D01*
X0295088Y0195799D02*
X0213369Y0195799D01*
X0211996Y0197798D02*
X0296461Y0197798D01*
X0299694Y0199796D02*
X0208762Y0199796D01*
X0211730Y0201795D02*
X0296727Y0201795D01*
X0295198Y0203793D02*
X0264347Y0203793D01*
X0264204Y0203734D02*
X0265453Y0204251D01*
X0266410Y0205208D01*
X0266928Y0206458D01*
X0266928Y0207810D01*
X0266410Y0209060D01*
X0256328Y0219141D01*
X0256328Y0219848D01*
X0255628Y0221539D01*
X0254334Y0222833D01*
X0252643Y0223533D01*
X0250813Y0223533D01*
X0249123Y0222833D01*
X0247829Y0221539D01*
X0247128Y0219848D01*
X0247128Y0218018D01*
X0247829Y0216327D01*
X0249123Y0215033D01*
X0250813Y0214333D01*
X0251520Y0214333D01*
X0261602Y0204251D01*
X0262851Y0203734D01*
X0264204Y0203734D01*
X0262708Y0203793D02*
X0213259Y0203793D01*
X0214040Y0205792D02*
X0260061Y0205792D01*
X0258063Y0207790D02*
X0214040Y0207790D01*
X0213543Y0209789D02*
X0256064Y0209789D01*
X0254066Y0211787D02*
X0212415Y0211787D01*
X0209776Y0213786D02*
X0252067Y0213786D01*
X0248372Y0215784D02*
X0164686Y0215784D01*
X0166684Y0213786D02*
X0203681Y0213786D01*
X0201041Y0211787D02*
X0168683Y0211787D01*
X0170681Y0209789D02*
X0199914Y0209789D01*
X0199417Y0207790D02*
X0171928Y0207790D01*
X0171928Y0207810D02*
X0171410Y0209060D01*
X0161328Y0219141D01*
X0161328Y0219848D01*
X0160628Y0221539D01*
X0159334Y0222833D01*
X0157643Y0223533D01*
X0155813Y0223533D01*
X0154123Y0222833D01*
X0152829Y0221539D01*
X0152128Y0219848D01*
X0152128Y0218018D01*
X0152829Y0216327D01*
X0154123Y0215033D01*
X0155813Y0214333D01*
X0156520Y0214333D01*
X0166602Y0204251D01*
X0167851Y0203734D01*
X0169204Y0203734D01*
X0170453Y0204251D01*
X0171410Y0205208D01*
X0171928Y0206458D01*
X0171928Y0207810D01*
X0171652Y0205792D02*
X0199417Y0205792D01*
X0200198Y0203793D02*
X0169347Y0203793D01*
X0167708Y0203793D02*
X0118259Y0203793D01*
X0117927Y0202992D02*
X0119040Y0205679D01*
X0119040Y0208588D01*
X0117927Y0211276D01*
X0115870Y0213333D01*
X0113183Y0214446D01*
X0110274Y0214446D01*
X0107587Y0213333D01*
X0105530Y0211276D01*
X0104417Y0208588D01*
X0104417Y0205679D01*
X0105530Y0202992D01*
X0107587Y0200935D01*
X0110015Y0199929D01*
X0107587Y0198923D01*
X0105530Y0196866D01*
X0104417Y0194179D01*
X0104417Y0191270D01*
X0105530Y0188583D01*
X0107587Y0186526D01*
X0110274Y0185413D01*
X0113183Y0185413D01*
X0115870Y0186526D01*
X0117927Y0188583D01*
X0119040Y0191270D01*
X0119040Y0194179D01*
X0117927Y0196866D01*
X0115870Y0198923D01*
X0113441Y0199929D01*
X0115870Y0200935D01*
X0117927Y0202992D01*
X0116730Y0201795D02*
X0201727Y0201795D01*
X0204694Y0199796D02*
X0113762Y0199796D01*
X0116996Y0197798D02*
X0201461Y0197798D01*
X0200088Y0195799D02*
X0118369Y0195799D01*
X0119040Y0193801D02*
X0199417Y0193801D01*
X0199417Y0191802D02*
X0119040Y0191802D01*
X0118433Y0189804D02*
X0200024Y0189804D01*
X0201307Y0187805D02*
X0166633Y0187805D01*
X0160792Y0187805D02*
X0152665Y0187805D01*
X0154663Y0185807D02*
X0158793Y0185807D01*
X0156795Y0183808D02*
X0156662Y0183808D01*
X0151042Y0179811D02*
X0096328Y0179811D01*
X0096328Y0179848D02*
X0095628Y0181539D01*
X0094334Y0182833D01*
X0092643Y0183533D01*
X0090813Y0183533D01*
X0089123Y0182833D01*
X0087829Y0181539D01*
X0087128Y0179848D01*
X0087128Y0178018D01*
X0087829Y0176327D01*
X0089123Y0175033D01*
X0089128Y0175031D01*
X0089128Y0160656D01*
X0089524Y0159700D01*
X0090256Y0158969D01*
X0091211Y0158573D01*
X0092246Y0158573D01*
X0093201Y0158969D01*
X0093933Y0159700D01*
X0094328Y0160656D01*
X0094328Y0175031D01*
X0094334Y0175033D01*
X0095628Y0176327D01*
X0096328Y0178018D01*
X0096328Y0179848D01*
X0096243Y0177812D02*
X0152213Y0177812D01*
X0153342Y0175814D02*
X0095115Y0175814D01*
X0094328Y0173815D02*
X0184128Y0173815D01*
X0184128Y0171817D02*
X0094328Y0171817D01*
X0094328Y0169818D02*
X0184128Y0169818D01*
X0184128Y0167820D02*
X0094328Y0167820D01*
X0094328Y0165821D02*
X0184128Y0165821D01*
X0184128Y0163823D02*
X0094328Y0163823D01*
X0094328Y0161824D02*
X0184128Y0161824D01*
X0184472Y0159826D02*
X0093984Y0159826D01*
X0089472Y0159826D02*
X0031828Y0159826D01*
X0031828Y0161824D02*
X0089128Y0161824D01*
X0089128Y0163823D02*
X0031828Y0163823D01*
X0031828Y0165821D02*
X0089128Y0165821D01*
X0089128Y0167820D02*
X0031828Y0167820D01*
X0031828Y0169818D02*
X0089128Y0169818D01*
X0089128Y0171817D02*
X0031828Y0171817D01*
X0031828Y0173815D02*
X0089128Y0173815D01*
X0088342Y0175814D02*
X0065115Y0175814D01*
X0065628Y0176327D02*
X0066328Y0178018D01*
X0066328Y0179848D01*
X0065628Y0181539D01*
X0064334Y0182833D01*
X0062643Y0183533D01*
X0061937Y0183533D01*
X0039654Y0205815D01*
X0038405Y0206333D01*
X0037052Y0206333D01*
X0035802Y0205815D01*
X0034846Y0204859D01*
X0034328Y0203609D01*
X0034328Y0202257D01*
X0034846Y0201007D01*
X0057128Y0178725D01*
X0057128Y0178018D01*
X0057829Y0176327D01*
X0059123Y0175033D01*
X0060813Y0174333D01*
X0062643Y0174333D01*
X0064334Y0175033D01*
X0065628Y0176327D01*
X0066243Y0177812D02*
X0087213Y0177812D01*
X0087128Y0179811D02*
X0066328Y0179811D01*
X0065357Y0181810D02*
X0088099Y0181810D01*
X0095357Y0181810D02*
X0149044Y0181810D01*
X0147045Y0183808D02*
X0061662Y0183808D01*
X0059663Y0185807D02*
X0109323Y0185807D01*
X0106307Y0187805D02*
X0057665Y0187805D01*
X0055666Y0189804D02*
X0105024Y0189804D01*
X0104417Y0191802D02*
X0053668Y0191802D01*
X0051669Y0193801D02*
X0104417Y0193801D01*
X0105088Y0195799D02*
X0049671Y0195799D01*
X0047672Y0197798D02*
X0106461Y0197798D01*
X0109694Y0199796D02*
X0045674Y0199796D01*
X0043675Y0201795D02*
X0106727Y0201795D01*
X0105198Y0203793D02*
X0041677Y0203793D01*
X0039678Y0205792D02*
X0104417Y0205792D01*
X0104417Y0207790D02*
X0031828Y0207790D01*
X0031828Y0205792D02*
X0035779Y0205792D01*
X0034404Y0203793D02*
X0031828Y0203793D01*
X0031828Y0201795D02*
X0034520Y0201795D01*
X0036057Y0199796D02*
X0031828Y0199796D01*
X0031828Y0197798D02*
X0038055Y0197798D01*
X0040054Y0195799D02*
X0031828Y0195799D01*
X0031828Y0193801D02*
X0042053Y0193801D01*
X0044051Y0191802D02*
X0031828Y0191802D01*
X0031828Y0189804D02*
X0046050Y0189804D01*
X0048048Y0187805D02*
X0031828Y0187805D01*
X0031828Y0185807D02*
X0050047Y0185807D01*
X0052045Y0183808D02*
X0031828Y0183808D01*
X0031828Y0181810D02*
X0054044Y0181810D01*
X0056042Y0179811D02*
X0031828Y0179811D01*
X0031828Y0177812D02*
X0057213Y0177812D01*
X0058342Y0175814D02*
X0031828Y0175814D01*
X0031828Y0149833D02*
X0201109Y0149833D01*
X0201109Y0147835D02*
X0031828Y0147835D01*
X0031828Y0145836D02*
X0201109Y0145836D01*
X0201991Y0143838D02*
X0031828Y0143838D01*
X0031828Y0133845D02*
X0181109Y0133845D01*
X0181109Y0131847D02*
X0031828Y0131847D01*
X0031828Y0129848D02*
X0181109Y0129848D01*
X0188960Y0127850D02*
X0031828Y0127850D01*
X0031828Y0125851D02*
X0188960Y0125851D01*
X0188960Y0123853D02*
X0031828Y0123853D01*
X0031828Y0121854D02*
X0189281Y0121854D01*
X0196175Y0121854D02*
X0245281Y0121854D01*
X0244960Y0123853D02*
X0196497Y0123853D01*
X0196497Y0125851D02*
X0244960Y0125851D01*
X0244960Y0127850D02*
X0242997Y0127850D01*
X0242997Y0129848D02*
X0244960Y0129848D01*
X0244960Y0131847D02*
X0242997Y0131847D01*
X0242649Y0133845D02*
X0243790Y0133845D01*
X0238466Y0143838D02*
X0371728Y0143838D01*
X0371728Y0145836D02*
X0239347Y0145836D01*
X0239347Y0147835D02*
X0371728Y0147835D01*
X0371728Y0149833D02*
X0239347Y0149833D01*
X0205503Y0159826D02*
X0188984Y0159826D01*
X0189328Y0161824D02*
X0204609Y0161824D01*
X0204609Y0163823D02*
X0189328Y0163823D01*
X0189328Y0165821D02*
X0204609Y0165821D01*
X0183342Y0175814D02*
X0160115Y0175814D01*
X0161243Y0177812D02*
X0182213Y0177812D01*
X0182128Y0179811D02*
X0162415Y0179811D01*
X0164413Y0181810D02*
X0183099Y0181810D01*
X0146824Y0187805D02*
X0117149Y0187805D01*
X0114134Y0185807D02*
X0146328Y0185807D01*
X0165061Y0205792D02*
X0119040Y0205792D01*
X0119040Y0207790D02*
X0163063Y0207790D01*
X0161064Y0209789D02*
X0118543Y0209789D01*
X0117415Y0211787D02*
X0159066Y0211787D01*
X0157067Y0213786D02*
X0114776Y0213786D01*
X0113183Y0217420D02*
X0115870Y0218534D01*
X0117927Y0220590D01*
X0119040Y0223278D01*
X0119040Y0226187D01*
X0117927Y0228874D01*
X0115870Y0230931D01*
X0113441Y0231937D01*
X0115870Y0232943D01*
X0117927Y0235000D01*
X0119040Y0237687D01*
X0119040Y0240596D01*
X0117927Y0243284D01*
X0115870Y0245340D01*
X0113183Y0246454D01*
X0110274Y0246454D01*
X0107587Y0245340D01*
X0105530Y0243284D01*
X0104417Y0240596D01*
X0104417Y0237687D01*
X0105530Y0235000D01*
X0107587Y0232943D01*
X0110015Y0231937D01*
X0107587Y0230931D01*
X0105530Y0228874D01*
X0104417Y0226187D01*
X0104417Y0223278D01*
X0105530Y0220590D01*
X0107587Y0218534D01*
X0110274Y0217420D01*
X0113183Y0217420D01*
X0114057Y0217783D02*
X0152226Y0217783D01*
X0152128Y0219781D02*
X0117118Y0219781D01*
X0118420Y0221780D02*
X0153070Y0221780D01*
X0153372Y0215784D02*
X0066933Y0215784D01*
X0067128Y0216257D02*
X0067128Y0217609D01*
X0066611Y0218859D01*
X0066328Y0219141D01*
X0066328Y0219848D01*
X0065628Y0221539D01*
X0064334Y0222833D01*
X0062643Y0223533D01*
X0060813Y0223533D01*
X0059123Y0222833D01*
X0057829Y0221539D01*
X0057128Y0219848D01*
X0057128Y0218018D01*
X0057829Y0216327D01*
X0059123Y0215033D01*
X0060813Y0214333D01*
X0061520Y0214333D01*
X0061802Y0214051D01*
X0063052Y0213533D01*
X0064405Y0213533D01*
X0065654Y0214051D01*
X0066611Y0215007D01*
X0067128Y0216257D01*
X0067057Y0217783D02*
X0109399Y0217783D01*
X0106339Y0219781D02*
X0066328Y0219781D01*
X0065387Y0221780D02*
X0105037Y0221780D01*
X0104417Y0223778D02*
X0031828Y0223778D01*
X0031828Y0221780D02*
X0058070Y0221780D01*
X0057128Y0219781D02*
X0031828Y0219781D01*
X0031828Y0217783D02*
X0057226Y0217783D01*
X0058372Y0215784D02*
X0031828Y0215784D01*
X0031828Y0213786D02*
X0062442Y0213786D01*
X0065015Y0213786D02*
X0108681Y0213786D01*
X0106041Y0211787D02*
X0031828Y0211787D01*
X0031828Y0209789D02*
X0104914Y0209789D01*
X0104417Y0225777D02*
X0046786Y0225777D01*
X0046505Y0225541D02*
X0046505Y0225541D01*
X0049168Y0227775D02*
X0105075Y0227775D01*
X0106429Y0229774D02*
X0050581Y0229774D01*
X0051735Y0231772D02*
X0109618Y0231772D01*
X0106759Y0233771D02*
X0052089Y0233771D01*
X0051737Y0231776D02*
X0051737Y0231776D01*
X0052441Y0235769D02*
X0088387Y0235769D01*
X0087829Y0236327D02*
X0089123Y0235033D01*
X0090813Y0234333D01*
X0092643Y0234333D01*
X0094334Y0235033D01*
X0095628Y0236327D01*
X0096328Y0238018D01*
X0096328Y0239848D01*
X0095628Y0241539D01*
X0094334Y0242833D01*
X0092643Y0243533D01*
X0090813Y0243533D01*
X0089123Y0242833D01*
X0087829Y0241539D01*
X0087128Y0239848D01*
X0087128Y0238018D01*
X0087829Y0236327D01*
X0087232Y0237768D02*
X0052116Y0237768D01*
X0051764Y0239766D02*
X0087128Y0239766D01*
X0088055Y0241765D02*
X0050670Y0241765D01*
X0049671Y0243496D02*
X0049671Y0243496D01*
X0049671Y0243496D01*
X0049352Y0243763D02*
X0106010Y0243763D01*
X0104901Y0241765D02*
X0095402Y0241765D01*
X0096328Y0239766D02*
X0104417Y0239766D01*
X0104417Y0237768D02*
X0096225Y0237768D01*
X0095070Y0235769D02*
X0105211Y0235769D01*
X0113839Y0231772D02*
X0204618Y0231772D01*
X0205015Y0231937D02*
X0202587Y0230931D01*
X0200530Y0228874D01*
X0199417Y0226187D01*
X0199417Y0223278D01*
X0200530Y0220590D01*
X0202587Y0218534D01*
X0205274Y0217420D01*
X0208183Y0217420D01*
X0210870Y0218534D01*
X0212927Y0220590D01*
X0214040Y0223278D01*
X0214040Y0226187D01*
X0212927Y0228874D01*
X0210870Y0230931D01*
X0208441Y0231937D01*
X0210870Y0232943D01*
X0212927Y0235000D01*
X0214040Y0237687D01*
X0214040Y0240596D01*
X0212927Y0243284D01*
X0210870Y0245340D01*
X0208183Y0246454D01*
X0205274Y0246454D01*
X0202587Y0245340D01*
X0200530Y0243284D01*
X0199417Y0240596D01*
X0199417Y0237687D01*
X0200530Y0235000D01*
X0202587Y0232943D01*
X0205015Y0231937D01*
X0201759Y0233771D02*
X0116698Y0233771D01*
X0118246Y0235769D02*
X0183387Y0235769D01*
X0182829Y0236327D02*
X0184123Y0235033D01*
X0185813Y0234333D01*
X0187643Y0234333D01*
X0189334Y0235033D01*
X0190628Y0236327D01*
X0191328Y0238018D01*
X0191328Y0239848D01*
X0190628Y0241539D01*
X0189334Y0242833D01*
X0187643Y0243533D01*
X0185813Y0243533D01*
X0184123Y0242833D01*
X0182829Y0241539D01*
X0182128Y0239848D01*
X0182128Y0238018D01*
X0182829Y0236327D01*
X0182232Y0237768D02*
X0119040Y0237768D01*
X0119040Y0239766D02*
X0182128Y0239766D01*
X0183055Y0241765D02*
X0118556Y0241765D01*
X0117447Y0243763D02*
X0201010Y0243763D01*
X0199901Y0241765D02*
X0190402Y0241765D01*
X0191328Y0239766D02*
X0199417Y0239766D01*
X0199417Y0237768D02*
X0191225Y0237768D01*
X0190070Y0235769D02*
X0200211Y0235769D01*
X0208839Y0231772D02*
X0299618Y0231772D01*
X0300015Y0231937D02*
X0297587Y0230931D01*
X0295530Y0228874D01*
X0294417Y0226187D01*
X0294417Y0223278D01*
X0295530Y0220590D01*
X0297587Y0218534D01*
X0300274Y0217420D01*
X0303183Y0217420D01*
X0305870Y0218534D01*
X0307927Y0220590D01*
X0309040Y0223278D01*
X0309040Y0226187D01*
X0307927Y0228874D01*
X0305870Y0230931D01*
X0303441Y0231937D01*
X0305870Y0232943D01*
X0307927Y0235000D01*
X0309040Y0237687D01*
X0309040Y0240596D01*
X0307927Y0243284D01*
X0305870Y0245340D01*
X0303183Y0246454D01*
X0300274Y0246454D01*
X0297587Y0245340D01*
X0295530Y0243284D01*
X0294417Y0240596D01*
X0294417Y0237687D01*
X0295530Y0235000D01*
X0297587Y0232943D01*
X0300015Y0231937D01*
X0296759Y0233771D02*
X0211698Y0233771D01*
X0213246Y0235769D02*
X0278387Y0235769D01*
X0277829Y0236327D02*
X0279123Y0235033D01*
X0280813Y0234333D01*
X0282643Y0234333D01*
X0284334Y0235033D01*
X0285628Y0236327D01*
X0286328Y0238018D01*
X0286328Y0239848D01*
X0285628Y0241539D01*
X0284334Y0242833D01*
X0282643Y0243533D01*
X0280813Y0243533D01*
X0279123Y0242833D01*
X0277829Y0241539D01*
X0277128Y0239848D01*
X0277128Y0238018D01*
X0277829Y0236327D01*
X0277232Y0237768D02*
X0214040Y0237768D01*
X0214040Y0239766D02*
X0277128Y0239766D01*
X0278055Y0241765D02*
X0213556Y0241765D01*
X0212447Y0243763D02*
X0296010Y0243763D01*
X0294901Y0241765D02*
X0285402Y0241765D01*
X0286328Y0239766D02*
X0294417Y0239766D01*
X0294417Y0237768D02*
X0286225Y0237768D01*
X0285070Y0235769D02*
X0295211Y0235769D01*
X0303839Y0231772D02*
X0377568Y0231772D01*
X0377643Y0234333D02*
X0375813Y0234333D01*
X0374123Y0235033D01*
X0372829Y0236327D01*
X0372128Y0238018D01*
X0372128Y0239848D01*
X0372829Y0241539D01*
X0374123Y0242833D01*
X0375813Y0243533D01*
X0377643Y0243533D01*
X0379334Y0242833D01*
X0380628Y0241539D01*
X0381328Y0239848D01*
X0381328Y0238018D01*
X0380628Y0236327D01*
X0379334Y0235033D01*
X0377643Y0234333D01*
X0379566Y0233771D02*
X0306698Y0233771D01*
X0308246Y0235769D02*
X0373387Y0235769D01*
X0372232Y0237768D02*
X0309040Y0237768D01*
X0309040Y0239766D02*
X0372128Y0239766D01*
X0373055Y0241765D02*
X0308556Y0241765D01*
X0307447Y0243763D02*
X0391010Y0243763D01*
X0389901Y0241765D02*
X0380402Y0241765D01*
X0381328Y0239766D02*
X0385562Y0239766D01*
X0383563Y0237768D02*
X0381225Y0237768D01*
X0381565Y0235769D02*
X0380070Y0235769D01*
X0375569Y0229774D02*
X0307027Y0229774D01*
X0308382Y0227775D02*
X0373571Y0227775D01*
X0371728Y0225777D02*
X0309040Y0225777D01*
X0309040Y0223778D02*
X0371728Y0223778D01*
X0371728Y0221780D02*
X0350387Y0221780D01*
X0350628Y0221539D02*
X0349334Y0222833D01*
X0347643Y0223533D01*
X0345813Y0223533D01*
X0344123Y0222833D01*
X0342829Y0221539D01*
X0342128Y0219848D01*
X0342128Y0218018D01*
X0342829Y0216327D01*
X0344123Y0215033D01*
X0345813Y0214333D01*
X0346520Y0214333D01*
X0356602Y0204251D01*
X0357851Y0203734D01*
X0359204Y0203734D01*
X0360453Y0204251D01*
X0361410Y0205208D01*
X0361928Y0206458D01*
X0361928Y0207810D01*
X0361410Y0209060D01*
X0351328Y0219141D01*
X0351328Y0219848D01*
X0350628Y0221539D01*
X0351328Y0219781D02*
X0371728Y0219781D01*
X0371728Y0217783D02*
X0352687Y0217783D01*
X0354686Y0215784D02*
X0371728Y0215784D01*
X0371728Y0213786D02*
X0356684Y0213786D01*
X0358683Y0211787D02*
X0371728Y0211787D01*
X0371728Y0209789D02*
X0360681Y0209789D01*
X0361928Y0207790D02*
X0371728Y0207790D01*
X0371728Y0205792D02*
X0361652Y0205792D01*
X0359347Y0203793D02*
X0371728Y0203793D01*
X0371728Y0201795D02*
X0306730Y0201795D01*
X0308259Y0203793D02*
X0357708Y0203793D01*
X0355061Y0205792D02*
X0309040Y0205792D01*
X0309040Y0207790D02*
X0353063Y0207790D01*
X0351064Y0209789D02*
X0308543Y0209789D01*
X0307415Y0211787D02*
X0349066Y0211787D01*
X0347067Y0213786D02*
X0304776Y0213786D01*
X0304057Y0217783D02*
X0342226Y0217783D01*
X0342128Y0219781D02*
X0307118Y0219781D01*
X0308420Y0221780D02*
X0343070Y0221780D01*
X0343372Y0215784D02*
X0259686Y0215784D01*
X0261684Y0213786D02*
X0298681Y0213786D01*
X0296041Y0211787D02*
X0263683Y0211787D01*
X0265681Y0209789D02*
X0294914Y0209789D01*
X0294417Y0207790D02*
X0266928Y0207790D01*
X0266652Y0205792D02*
X0294417Y0205792D01*
X0303762Y0199796D02*
X0371728Y0199796D01*
X0371728Y0197798D02*
X0306996Y0197798D01*
X0308369Y0195799D02*
X0371728Y0195799D01*
X0371728Y0193801D02*
X0309040Y0193801D01*
X0309040Y0191802D02*
X0371728Y0191802D01*
X0371728Y0189804D02*
X0308433Y0189804D01*
X0307149Y0187805D02*
X0336824Y0187805D01*
X0342665Y0187805D02*
X0371728Y0187805D01*
X0371728Y0185807D02*
X0344663Y0185807D01*
X0346662Y0183808D02*
X0371728Y0183808D01*
X0371728Y0181810D02*
X0350357Y0181810D01*
X0351328Y0179811D02*
X0371728Y0179811D01*
X0371728Y0177812D02*
X0351243Y0177812D01*
X0350115Y0175814D02*
X0371728Y0175814D01*
X0371728Y0165821D02*
X0284328Y0165821D01*
X0284328Y0163823D02*
X0371728Y0163823D01*
X0371728Y0161824D02*
X0284328Y0161824D01*
X0283984Y0159826D02*
X0371728Y0159826D01*
X0361661Y0105866D02*
X0180183Y0105866D01*
X0178735Y0103868D02*
X0359663Y0103868D01*
X0380128Y0095874D02*
X0306031Y0095874D01*
X0308029Y0093875D02*
X0380128Y0093875D01*
X0380128Y0091877D02*
X0331986Y0091877D01*
X0333684Y0089878D02*
X0380128Y0089878D01*
X0380128Y0087879D02*
X0333928Y0087879D01*
X0332850Y0085881D02*
X0380128Y0085881D01*
X0380128Y0083882D02*
X0312022Y0083882D01*
X0314020Y0081884D02*
X0380128Y0081884D01*
X0380128Y0079885D02*
X0316019Y0079885D01*
X0320209Y0077887D02*
X0380128Y0077887D01*
X0380128Y0075888D02*
X0321258Y0075888D01*
X0321221Y0073890D02*
X0380128Y0073890D01*
X0380128Y0071891D02*
X0320328Y0071891D01*
X0320328Y0069893D02*
X0380128Y0069893D01*
X0380128Y0067894D02*
X0320328Y0067894D01*
X0320328Y0065896D02*
X0380128Y0065896D01*
X0380128Y0063897D02*
X0320328Y0063897D01*
X0320328Y0061899D02*
X0380128Y0061899D01*
X0380128Y0059900D02*
X0320328Y0059900D01*
X0320328Y0057902D02*
X0380128Y0057902D01*
X0380128Y0055903D02*
X0320328Y0055903D01*
X0320328Y0053905D02*
X0380128Y0053905D01*
X0380128Y0051906D02*
X0320328Y0051906D01*
X0320328Y0049908D02*
X0380128Y0049908D01*
X0380128Y0047909D02*
X0320201Y0047909D01*
X0318797Y0045911D02*
X0380128Y0045911D01*
X0380128Y0043912D02*
X0316799Y0043912D01*
X0314800Y0041914D02*
X0380128Y0041914D01*
X0380128Y0039915D02*
X0312802Y0039915D01*
X0310836Y0037917D02*
X0380128Y0037917D01*
X0389254Y0025926D02*
X0340203Y0025926D01*
X0330198Y0025926D02*
X0279812Y0025926D01*
X0283809Y0029923D02*
X0308648Y0029923D01*
X0306649Y0031921D02*
X0285808Y0031921D01*
X0287806Y0033920D02*
X0304651Y0033920D01*
X0302666Y0035918D02*
X0298240Y0035918D01*
X0298240Y0037917D02*
X0302128Y0037917D01*
X0302653Y0039915D02*
X0298240Y0039915D01*
X0302949Y0045911D02*
X0308615Y0045911D01*
X0310613Y0047909D02*
X0304947Y0047909D01*
X0306946Y0049908D02*
X0312612Y0049908D01*
X0313128Y0051906D02*
X0308944Y0051906D01*
X0310550Y0053905D02*
X0313128Y0053905D01*
X0313128Y0055903D02*
X0310728Y0055903D01*
X0310728Y0057902D02*
X0313128Y0057902D01*
X0313128Y0059900D02*
X0310728Y0059900D01*
X0311023Y0061899D02*
X0313128Y0061899D01*
X0313128Y0063897D02*
X0312143Y0063897D01*
X0312173Y0065896D02*
X0313128Y0065896D01*
X0313128Y0067894D02*
X0311096Y0067894D01*
X0310728Y0069893D02*
X0313128Y0069893D01*
X0313128Y0071891D02*
X0310728Y0071891D01*
X0310728Y0073890D02*
X0312236Y0073890D01*
X0311530Y0075888D02*
X0310728Y0075888D01*
X0307728Y0076933D02*
X0298728Y0085933D01*
X0219728Y0085933D01*
X0215728Y0089933D01*
X0210728Y0089933D01*
X0206079Y0085283D01*
X0208079Y0081884D02*
X0196073Y0081884D01*
X0195485Y0079885D02*
X0209234Y0079885D01*
X0211079Y0082283D02*
X0213728Y0084933D01*
X0217406Y0083882D02*
X0217536Y0083882D01*
X0216053Y0081884D02*
X0298535Y0081884D01*
X0300533Y0079885D02*
X0212923Y0079885D01*
X0213443Y0073890D02*
X0196040Y0073890D01*
X0196040Y0075888D02*
X0304530Y0075888D01*
X0304728Y0073890D02*
X0234014Y0073890D01*
X0236013Y0071891D02*
X0304728Y0071891D01*
X0304728Y0069893D02*
X0238011Y0069893D01*
X0238728Y0064933D02*
X0231079Y0072583D01*
X0228373Y0073890D02*
X0222626Y0073890D01*
X0221079Y0071283D02*
X0212728Y0062933D01*
X0210728Y0066933D02*
X0216079Y0072283D01*
X0218661Y0073890D02*
X0219532Y0073890D01*
X0211444Y0071891D02*
X0184013Y0071891D01*
X0185182Y0076533D02*
X0185182Y0083387D01*
X0195728Y0093933D01*
X0217728Y0093933D01*
X0221728Y0089933D01*
X0301728Y0089933D01*
X0316728Y0074933D01*
X0307728Y0076933D02*
X0307728Y0064933D01*
X0307728Y0054933D01*
X0300728Y0047933D01*
X0294075Y0047933D01*
X0299728Y0053933D02*
X0288728Y0064933D01*
X0286075Y0064933D01*
X0290076Y0067894D02*
X0304361Y0067894D01*
X0303283Y0065896D02*
X0292008Y0065896D01*
X0294007Y0063897D02*
X0303314Y0063897D01*
X0304434Y0061899D02*
X0296005Y0061899D01*
X0298004Y0059900D02*
X0304728Y0059900D01*
X0304728Y0057902D02*
X0300002Y0057902D01*
X0303025Y0055903D02*
X0304456Y0055903D01*
X0279382Y0064933D02*
X0238728Y0064933D01*
X0235521Y0063897D02*
X0226935Y0063897D01*
X0224937Y0061899D02*
X0275454Y0061899D01*
X0302532Y0077887D02*
X0196040Y0077887D01*
X0192384Y0081884D02*
X0188182Y0081884D01*
X0189920Y0083882D02*
X0190675Y0083882D01*
X0179728Y0083933D02*
X0179728Y0082933D01*
X0179728Y0083933D02*
X0193728Y0097933D01*
X0219728Y0097933D01*
X0223728Y0093933D01*
X0303728Y0093933D01*
X0309128Y0088533D01*
X0330128Y0088533D01*
X0328270Y0091877D02*
X0310028Y0091877D01*
X0227453Y0059900D02*
X0222938Y0059900D01*
X0220940Y0057902D02*
X0225454Y0057902D01*
X0215641Y0051906D02*
X0203816Y0051906D01*
X0205428Y0049908D02*
X0214028Y0049908D01*
X0205648Y0041914D02*
X0203809Y0041914D01*
X0195648Y0041914D02*
X0183809Y0041914D01*
X0183769Y0043912D02*
X0185688Y0043912D01*
X0185428Y0039915D02*
X0194028Y0039915D01*
X0194028Y0037917D02*
X0185428Y0037917D01*
X0185428Y0035918D02*
X0194028Y0035918D01*
X0195681Y0033920D02*
X0183776Y0033920D01*
X0175681Y0033920D02*
X0173776Y0033920D01*
X0193769Y0043912D02*
X0195688Y0043912D01*
X0195641Y0051906D02*
X0193816Y0051906D01*
X0185641Y0051906D02*
X0183816Y0051906D01*
X0180728Y0058933D02*
X0172728Y0066933D01*
X0170075Y0066933D01*
X0184728Y0066933D02*
X0168728Y0082933D01*
X0154075Y0082933D01*
X0147382Y0082933D02*
X0144728Y0082933D01*
X0139728Y0077933D01*
X0139728Y0047933D01*
X0134028Y0047909D02*
X0125428Y0047909D01*
X0125428Y0045911D02*
X0134028Y0045911D01*
X0135688Y0043912D02*
X0123769Y0043912D01*
X0123809Y0041914D02*
X0125648Y0041914D01*
X0133809Y0041914D02*
X0135648Y0041914D01*
X0134028Y0049908D02*
X0125428Y0049908D01*
X0123816Y0051906D02*
X0135641Y0051906D01*
X0136728Y0053905D02*
X0045424Y0053905D01*
X0046778Y0053412D02*
X0046778Y0053412D01*
X0036032Y0053905D02*
X0031828Y0053905D01*
X0031828Y0055903D02*
X0136728Y0055903D01*
X0136728Y0057902D02*
X0031828Y0057902D01*
X0031828Y0059900D02*
X0076217Y0059900D01*
X0076217Y0061899D02*
X0031828Y0061899D01*
X0031828Y0063897D02*
X0076217Y0063897D01*
X0077382Y0065896D02*
X0031828Y0065896D01*
X0031828Y0067894D02*
X0077582Y0067894D01*
X0076217Y0069893D02*
X0031828Y0069893D01*
X0031828Y0071891D02*
X0076217Y0071891D01*
X0076217Y0073890D02*
X0031828Y0073890D01*
X0031828Y0075888D02*
X0077375Y0075888D01*
X0077582Y0077887D02*
X0031828Y0077887D01*
X0031828Y0079885D02*
X0076467Y0079885D01*
X0076217Y0081884D02*
X0031828Y0081884D01*
X0031828Y0083882D02*
X0076217Y0083882D01*
X0076368Y0085881D02*
X0031828Y0085881D01*
X0031828Y0087879D02*
X0078715Y0087879D01*
X0080713Y0089878D02*
X0032673Y0089878D01*
X0034672Y0091877D02*
X0085184Y0091877D01*
X0084728Y0093875D02*
X0036670Y0093875D01*
X0038669Y0095874D02*
X0085302Y0095874D01*
X0088290Y0097872D02*
X0040667Y0097872D01*
X0040792Y0101869D02*
X0040977Y0101869D01*
X0038794Y0103868D02*
X0094164Y0103868D01*
X0096031Y0105866D02*
X0036795Y0105866D01*
X0034797Y0107865D02*
X0097898Y0107865D01*
X0099765Y0109863D02*
X0032798Y0109863D01*
X0031828Y0119856D02*
X0198328Y0119856D01*
X0191728Y0112933D02*
X0184075Y0112933D01*
X0173728Y0098933D02*
X0150728Y0098933D01*
X0140728Y0108933D01*
X0102728Y0108933D01*
X0088528Y0093733D01*
X0105719Y0095874D02*
X0139828Y0095874D01*
X0137830Y0097872D02*
X0112547Y0097872D01*
X0106150Y0093875D02*
X0141827Y0093875D01*
X0143825Y0091877D02*
X0106150Y0091877D01*
X0106150Y0089878D02*
X0178409Y0089878D01*
X0179432Y0087879D02*
X0106150Y0087879D01*
X0105711Y0085881D02*
X0143368Y0085881D01*
X0141435Y0083882D02*
X0106150Y0083882D01*
X0106150Y0081884D02*
X0139437Y0081884D01*
X0137438Y0079885D02*
X0106150Y0079885D01*
X0106150Y0077887D02*
X0136728Y0077887D01*
X0136728Y0075888D02*
X0105614Y0075888D01*
X0098645Y0073890D02*
X0136728Y0073890D01*
X0136728Y0071891D02*
X0096646Y0071891D01*
X0095996Y0069893D02*
X0103808Y0069893D01*
X0101785Y0067894D02*
X0083182Y0067894D01*
X0083381Y0065896D02*
X0084075Y0065896D01*
X0090074Y0065896D02*
X0101028Y0065896D01*
X0109649Y0069893D02*
X0136728Y0069893D01*
X0136728Y0067894D02*
X0111671Y0067894D01*
X0112428Y0065896D02*
X0136728Y0065896D01*
X0136728Y0063897D02*
X0112428Y0063897D01*
X0111641Y0061899D02*
X0136728Y0061899D01*
X0136728Y0059900D02*
X0109473Y0059900D01*
X0113816Y0051906D02*
X0115641Y0051906D01*
X0095688Y0043912D02*
X0093769Y0043912D01*
X0095648Y0041914D02*
X0083809Y0041914D01*
X0083769Y0043912D02*
X0085688Y0043912D01*
X0085428Y0039915D02*
X0094028Y0039915D01*
X0094028Y0037917D02*
X0085428Y0037917D01*
X0085428Y0035918D02*
X0094028Y0035918D01*
X0095681Y0033920D02*
X0083776Y0033920D01*
X0075681Y0033920D02*
X0073776Y0033920D01*
X0065681Y0033920D02*
X0063776Y0033920D01*
X0036143Y0031921D02*
X0031828Y0031921D01*
X0031828Y0033920D02*
X0032932Y0033920D01*
X0032884Y0051906D02*
X0031828Y0051906D01*
X0034678Y0053412D02*
X0034678Y0053412D01*
X0169451Y0085881D02*
X0177302Y0085881D01*
X0176009Y0083882D02*
X0172022Y0083882D01*
X0174020Y0081884D02*
X0176050Y0081884D01*
X0176019Y0079885D02*
X0177402Y0079885D01*
X0178017Y0077887D02*
X0181017Y0077887D01*
X0181017Y0075888D02*
X0180016Y0075888D01*
X0184728Y0066933D02*
X0210728Y0066933D01*
X0175641Y0051906D02*
X0173816Y0051906D01*
X0203776Y0033920D02*
X0205681Y0033920D01*
X0213776Y0033920D02*
X0215681Y0033920D01*
X0398281Y0035918D02*
X0410328Y0035918D01*
X0410328Y0033920D02*
X0400090Y0033920D01*
X0400918Y0031921D02*
X0410328Y0031921D01*
X0410328Y0029923D02*
X0400980Y0029923D01*
X0400495Y0027924D02*
X0410328Y0027924D01*
X0410328Y0025926D02*
X0399258Y0025926D01*
X0299399Y0217783D02*
X0257687Y0217783D01*
X0256328Y0219781D02*
X0296339Y0219781D01*
X0295037Y0221780D02*
X0255387Y0221780D01*
X0248070Y0221780D02*
X0213420Y0221780D01*
X0214040Y0223778D02*
X0294417Y0223778D01*
X0294417Y0225777D02*
X0214040Y0225777D01*
X0213382Y0227775D02*
X0295075Y0227775D01*
X0296429Y0229774D02*
X0212027Y0229774D01*
X0201429Y0229774D02*
X0117027Y0229774D01*
X0118382Y0227775D02*
X0200075Y0227775D01*
X0199417Y0225777D02*
X0119040Y0225777D01*
X0119040Y0223778D02*
X0199417Y0223778D01*
X0200037Y0221780D02*
X0160387Y0221780D01*
X0161328Y0219781D02*
X0201339Y0219781D01*
X0204399Y0217783D02*
X0162687Y0217783D01*
X0157643Y0244333D02*
X0155813Y0244333D01*
X0154123Y0245033D01*
X0152829Y0246327D01*
X0152128Y0248018D01*
X0152128Y0249848D01*
X0152829Y0251539D01*
X0154123Y0252833D01*
X0155813Y0253533D01*
X0157643Y0253533D01*
X0159334Y0252833D01*
X0159834Y0252333D01*
X0172649Y0252333D01*
X0173898Y0251815D01*
X0174855Y0250859D01*
X0175372Y0249609D01*
X0175372Y0248257D01*
X0174855Y0247007D01*
X0173898Y0246051D01*
X0172649Y0245533D01*
X0159834Y0245533D01*
X0159334Y0245033D01*
X0157643Y0244333D01*
X0153394Y0245762D02*
X0114853Y0245762D01*
X0108604Y0245762D02*
X0078201Y0245762D01*
X0077649Y0245533D02*
X0078898Y0246051D01*
X0079855Y0247007D01*
X0080372Y0248257D01*
X0080372Y0249609D01*
X0079855Y0250859D01*
X0078898Y0251815D01*
X0077649Y0252333D01*
X0064834Y0252333D01*
X0064334Y0252833D01*
X0062643Y0253533D01*
X0060813Y0253533D01*
X0059123Y0252833D01*
X0057829Y0251539D01*
X0057128Y0249848D01*
X0057128Y0248018D01*
X0057829Y0246327D01*
X0059123Y0245033D01*
X0060813Y0244333D01*
X0062643Y0244333D01*
X0064334Y0245033D01*
X0064834Y0245533D01*
X0077649Y0245533D01*
X0080167Y0247760D02*
X0152235Y0247760D01*
X0152128Y0249759D02*
X0080311Y0249759D01*
X0078956Y0251757D02*
X0153047Y0251757D01*
X0167561Y0262609D02*
X0170061Y0261574D01*
X0172766Y0261574D01*
X0175265Y0262609D01*
X0177178Y0264522D01*
X0178213Y0267021D01*
X0178213Y0269727D01*
X0177426Y0271627D01*
X0177935Y0271417D01*
X0180640Y0271417D01*
X0183139Y0272452D01*
X0185052Y0274365D01*
X0186087Y0276864D01*
X0186087Y0279569D01*
X0185052Y0282068D01*
X0183139Y0283981D01*
X0180640Y0285017D01*
X0177935Y0285017D01*
X0175436Y0283981D01*
X0173523Y0282068D01*
X0172487Y0279569D01*
X0172487Y0276864D01*
X0173275Y0274963D01*
X0172766Y0275174D01*
X0170061Y0275174D01*
X0167561Y0274139D01*
X0165649Y0272226D01*
X0164613Y0269727D01*
X0164613Y0267021D01*
X0165649Y0264522D01*
X0167561Y0262609D01*
X0166422Y0263748D02*
X0137034Y0263748D01*
X0138315Y0265747D02*
X0165141Y0265747D01*
X0164613Y0267745D02*
X0151573Y0267745D01*
X0155348Y0269744D02*
X0164621Y0269744D01*
X0165448Y0271743D02*
X0157346Y0271743D01*
X0159345Y0273741D02*
X0167164Y0273741D01*
X0172953Y0275740D02*
X0160128Y0275740D01*
X0160128Y0277738D02*
X0172487Y0277738D01*
X0172557Y0279737D02*
X0160128Y0279737D01*
X0160128Y0281735D02*
X0173385Y0281735D01*
X0175188Y0283734D02*
X0160128Y0283734D01*
X0161336Y0285732D02*
X0207121Y0285732D01*
X0205070Y0283734D02*
X0183387Y0283734D01*
X0185190Y0281735D02*
X0203266Y0281735D01*
X0202439Y0279737D02*
X0186018Y0279737D01*
X0186087Y0277738D02*
X0202369Y0277738D01*
X0202835Y0275740D02*
X0185622Y0275740D01*
X0184429Y0273741D02*
X0204028Y0273741D01*
X0207030Y0271743D02*
X0181427Y0271743D01*
X0178206Y0269744D02*
X0210251Y0269744D01*
X0210243Y0267745D02*
X0178213Y0267745D01*
X0177685Y0265747D02*
X0210771Y0265747D01*
X0212052Y0263748D02*
X0176404Y0263748D01*
X0173191Y0261750D02*
X0215266Y0261750D01*
X0218821Y0261750D02*
X0254636Y0261750D01*
X0258191Y0261750D02*
X0300266Y0261750D01*
X0303821Y0261750D02*
X0339636Y0261750D01*
X0343191Y0261750D02*
X0385266Y0261750D01*
X0385691Y0261574D02*
X0388396Y0261574D01*
X0390895Y0262609D01*
X0392808Y0264522D01*
X0393843Y0267021D01*
X0393843Y0269727D01*
X0392808Y0272226D01*
X0390895Y0274139D01*
X0388396Y0275174D01*
X0385691Y0275174D01*
X0385182Y0274963D01*
X0385969Y0276864D01*
X0385969Y0279569D01*
X0384934Y0282068D01*
X0383021Y0283981D01*
X0380522Y0285017D01*
X0377817Y0285017D01*
X0375317Y0283981D01*
X0373405Y0282068D01*
X0372369Y0279569D01*
X0372369Y0276864D01*
X0373405Y0274365D01*
X0375317Y0272452D01*
X0377817Y0271417D01*
X0380522Y0271417D01*
X0381031Y0271627D01*
X0380243Y0269727D01*
X0380243Y0267021D01*
X0381279Y0264522D01*
X0383191Y0262609D01*
X0385691Y0261574D01*
X0388821Y0261750D02*
X0403328Y0261750D01*
X0403328Y0263748D02*
X0392034Y0263748D01*
X0393315Y0265747D02*
X0403328Y0265747D01*
X0403328Y0267745D02*
X0393843Y0267745D01*
X0393836Y0269744D02*
X0403328Y0269744D01*
X0403328Y0271743D02*
X0393008Y0271743D01*
X0391293Y0273741D02*
X0401587Y0273741D01*
X0400394Y0275740D02*
X0385504Y0275740D01*
X0385969Y0277738D02*
X0399928Y0277738D01*
X0399998Y0279737D02*
X0385900Y0279737D01*
X0385072Y0281735D02*
X0400826Y0281735D01*
X0399120Y0283734D02*
X0383269Y0283734D01*
X0375070Y0283734D02*
X0354337Y0283734D01*
X0355190Y0281735D02*
X0373266Y0281735D01*
X0372439Y0279737D02*
X0356018Y0279737D01*
X0356087Y0277738D02*
X0372369Y0277738D01*
X0372835Y0275740D02*
X0355622Y0275740D01*
X0354429Y0273741D02*
X0374028Y0273741D01*
X0377030Y0271743D02*
X0351427Y0271743D01*
X0348206Y0269744D02*
X0380251Y0269744D01*
X0380243Y0267745D02*
X0348213Y0267745D01*
X0347685Y0265747D02*
X0380771Y0265747D01*
X0382052Y0263748D02*
X0346404Y0263748D01*
X0336422Y0263748D02*
X0307034Y0263748D01*
X0316469Y0265747D02*
X0335141Y0265747D01*
X0329298Y0273741D02*
X0326869Y0273741D01*
X0328063Y0275740D02*
X0341727Y0275740D01*
X0342487Y0277738D02*
X0328528Y0277738D01*
X0328459Y0279737D02*
X0342557Y0279737D01*
X0343380Y0281735D02*
X0327631Y0281735D01*
X0325828Y0283734D02*
X0344721Y0283734D01*
X0346719Y0285732D02*
X0310128Y0285732D01*
X0310128Y0283734D02*
X0317629Y0283734D01*
X0315826Y0281735D02*
X0310128Y0281735D01*
X0310128Y0279737D02*
X0314998Y0279737D01*
X0314928Y0277738D02*
X0310128Y0277738D01*
X0311730Y0275740D02*
X0315394Y0275740D01*
X0316587Y0273741D02*
X0313729Y0273741D01*
X0303328Y0275740D02*
X0300504Y0275740D01*
X0300969Y0277738D02*
X0303328Y0277738D01*
X0303328Y0279737D02*
X0300900Y0279737D01*
X0300072Y0281735D02*
X0303328Y0281735D01*
X0303328Y0283734D02*
X0298269Y0283734D01*
X0302121Y0285732D02*
X0256336Y0285732D01*
X0255128Y0283734D02*
X0260188Y0283734D01*
X0258385Y0281735D02*
X0255128Y0281735D01*
X0255128Y0279737D02*
X0257557Y0279737D01*
X0257487Y0277738D02*
X0255128Y0277738D01*
X0255128Y0275740D02*
X0257953Y0275740D01*
X0266427Y0271743D02*
X0292030Y0271743D01*
X0289028Y0273741D02*
X0269429Y0273741D01*
X0270622Y0275740D02*
X0287835Y0275740D01*
X0287369Y0277738D02*
X0271087Y0277738D01*
X0271018Y0279737D02*
X0287439Y0279737D01*
X0288266Y0281735D02*
X0270190Y0281735D01*
X0268387Y0283734D02*
X0290070Y0283734D01*
X0303744Y0293726D02*
X0354713Y0293726D01*
X0352715Y0291728D02*
X0305742Y0291728D01*
X0307741Y0289729D02*
X0350716Y0289729D01*
X0348718Y0287731D02*
X0309664Y0287731D01*
X0295251Y0269744D02*
X0263206Y0269744D01*
X0263213Y0267745D02*
X0295243Y0267745D01*
X0295771Y0265747D02*
X0262685Y0265747D01*
X0261404Y0263748D02*
X0297052Y0263748D01*
X0269855Y0250859D02*
X0270372Y0249609D01*
X0270372Y0248257D01*
X0269855Y0247007D01*
X0268898Y0246051D01*
X0267649Y0245533D01*
X0254834Y0245533D01*
X0254334Y0245033D01*
X0252643Y0244333D01*
X0250813Y0244333D01*
X0249123Y0245033D01*
X0247829Y0246327D01*
X0247128Y0248018D01*
X0247128Y0249848D01*
X0247829Y0251539D01*
X0249123Y0252833D01*
X0250813Y0253533D01*
X0252643Y0253533D01*
X0254334Y0252833D01*
X0254834Y0252333D01*
X0267649Y0252333D01*
X0268898Y0251815D01*
X0269855Y0250859D01*
X0270311Y0249759D02*
X0342128Y0249759D01*
X0342128Y0249848D02*
X0342128Y0248018D01*
X0342829Y0246327D01*
X0344123Y0245033D01*
X0345813Y0244333D01*
X0347643Y0244333D01*
X0349334Y0245033D01*
X0349834Y0245533D01*
X0362649Y0245533D01*
X0363898Y0246051D01*
X0364855Y0247007D01*
X0365372Y0248257D01*
X0365372Y0249609D01*
X0364855Y0250859D01*
X0363898Y0251815D01*
X0362649Y0252333D01*
X0349834Y0252333D01*
X0349334Y0252833D01*
X0347643Y0253533D01*
X0345813Y0253533D01*
X0344123Y0252833D01*
X0342829Y0251539D01*
X0342128Y0249848D01*
X0342235Y0247760D02*
X0270167Y0247760D01*
X0268201Y0245762D02*
X0298604Y0245762D01*
X0304853Y0245762D02*
X0343394Y0245762D01*
X0343047Y0251757D02*
X0268956Y0251757D01*
X0248047Y0251757D02*
X0173956Y0251757D01*
X0175311Y0249759D02*
X0247128Y0249759D01*
X0247235Y0247760D02*
X0175167Y0247760D01*
X0173201Y0245762D02*
X0203604Y0245762D01*
X0209853Y0245762D02*
X0248394Y0245762D01*
X0251422Y0263748D02*
X0222034Y0263748D01*
X0225274Y0265747D02*
X0250141Y0265747D01*
X0249613Y0267745D02*
X0246135Y0267745D01*
X0246727Y0275740D02*
X0243063Y0275740D01*
X0243528Y0277738D02*
X0248328Y0277738D01*
X0248328Y0279737D02*
X0243459Y0279737D01*
X0242631Y0281735D02*
X0248328Y0281735D01*
X0248328Y0283734D02*
X0240828Y0283734D01*
X0248328Y0285732D02*
X0215128Y0285732D01*
X0215128Y0283734D02*
X0232629Y0283734D01*
X0230826Y0281735D02*
X0215128Y0281735D01*
X0215900Y0279737D02*
X0229998Y0279737D01*
X0229928Y0277738D02*
X0215969Y0277738D01*
X0216730Y0275740D02*
X0230394Y0275740D01*
X0231587Y0273741D02*
X0221293Y0273741D01*
X0214664Y0287731D02*
X0248793Y0287731D01*
X0250716Y0289729D02*
X0212741Y0289729D01*
X0210742Y0291728D02*
X0252715Y0291728D01*
X0254713Y0293726D02*
X0208744Y0293726D01*
X0223034Y0311822D02*
X0225533Y0310787D01*
X0228238Y0310787D01*
X0230738Y0311822D01*
X0232651Y0313735D01*
X0233686Y0316234D01*
X0233686Y0318939D01*
X0232651Y0321438D01*
X0230738Y0323351D01*
X0228238Y0324387D01*
X0225533Y0324387D01*
X0223034Y0323351D01*
X0221121Y0321438D01*
X0220086Y0318939D01*
X0220086Y0316234D01*
X0221121Y0313735D01*
X0223034Y0311822D01*
X0223297Y0311713D02*
X0165159Y0311713D01*
X0165423Y0311822D02*
X0167336Y0313735D01*
X0168371Y0316234D01*
X0168371Y0318939D01*
X0167336Y0321438D01*
X0165423Y0323351D01*
X0162923Y0324387D01*
X0160218Y0324387D01*
X0157719Y0323351D01*
X0155806Y0321438D01*
X0154771Y0318939D01*
X0154771Y0316234D01*
X0155806Y0313735D01*
X0157719Y0311822D01*
X0160218Y0310787D01*
X0162923Y0310787D01*
X0165423Y0311822D01*
X0167312Y0313711D02*
X0221145Y0313711D01*
X0220303Y0315710D02*
X0168154Y0315710D01*
X0168371Y0317708D02*
X0220086Y0317708D01*
X0220404Y0319707D02*
X0168053Y0319707D01*
X0167069Y0321705D02*
X0221388Y0321705D01*
X0223885Y0323704D02*
X0164572Y0323704D01*
X0158570Y0323704D02*
X0144887Y0323704D01*
X0145738Y0323351D02*
X0143238Y0324387D01*
X0140533Y0324387D01*
X0138034Y0323351D01*
X0136121Y0321438D01*
X0135086Y0318939D01*
X0135086Y0316234D01*
X0136121Y0313735D01*
X0138034Y0311822D01*
X0140533Y0310787D01*
X0143238Y0310787D01*
X0145738Y0311822D01*
X0147651Y0313735D01*
X0148686Y0316234D01*
X0148686Y0318939D01*
X0147651Y0321438D01*
X0145738Y0323351D01*
X0147384Y0321705D02*
X0156073Y0321705D01*
X0155089Y0319707D02*
X0148368Y0319707D01*
X0148686Y0317708D02*
X0154771Y0317708D01*
X0154988Y0315710D02*
X0148469Y0315710D01*
X0147627Y0313711D02*
X0155830Y0313711D01*
X0157982Y0311713D02*
X0145474Y0311713D01*
X0138297Y0311713D02*
X0080159Y0311713D01*
X0080423Y0311822D02*
X0082336Y0313735D01*
X0083371Y0316234D01*
X0083371Y0318939D01*
X0082336Y0321438D01*
X0080423Y0323351D01*
X0077923Y0324387D01*
X0075218Y0324387D01*
X0072719Y0323351D01*
X0070806Y0321438D01*
X0069771Y0318939D01*
X0069771Y0316234D01*
X0070806Y0313735D01*
X0072719Y0311822D01*
X0075218Y0310787D01*
X0077923Y0310787D01*
X0080423Y0311822D01*
X0082312Y0313711D02*
X0136145Y0313711D01*
X0135303Y0315710D02*
X0083154Y0315710D01*
X0083371Y0317708D02*
X0135086Y0317708D01*
X0135404Y0319707D02*
X0083053Y0319707D01*
X0082069Y0321705D02*
X0136388Y0321705D01*
X0138885Y0323704D02*
X0079572Y0323704D01*
X0073570Y0323704D02*
X0059887Y0323704D01*
X0060738Y0323351D02*
X0058238Y0324387D01*
X0055533Y0324387D01*
X0053034Y0323351D01*
X0051121Y0321438D01*
X0050086Y0318939D01*
X0050086Y0316234D01*
X0051121Y0313735D01*
X0053034Y0311822D01*
X0055533Y0310787D01*
X0058238Y0310787D01*
X0060738Y0311822D01*
X0062651Y0313735D01*
X0063686Y0316234D01*
X0063686Y0318939D01*
X0062651Y0321438D01*
X0060738Y0323351D01*
X0062384Y0321705D02*
X0071073Y0321705D01*
X0070089Y0319707D02*
X0063368Y0319707D01*
X0063686Y0317708D02*
X0069771Y0317708D01*
X0069988Y0315710D02*
X0063469Y0315710D01*
X0062627Y0313711D02*
X0070830Y0313711D01*
X0072982Y0311713D02*
X0060474Y0311713D01*
X0053297Y0311713D02*
X0031828Y0311713D01*
X0031828Y0313711D02*
X0051145Y0313711D01*
X0050303Y0315710D02*
X0031828Y0315710D01*
X0031828Y0317708D02*
X0050086Y0317708D01*
X0050404Y0319707D02*
X0031828Y0319707D01*
X0031828Y0321705D02*
X0051388Y0321705D01*
X0053885Y0323704D02*
X0031828Y0323704D01*
X0031828Y0325702D02*
X0411728Y0325702D01*
X0411728Y0323704D02*
X0399887Y0323704D01*
X0400738Y0323351D02*
X0398238Y0324387D01*
X0395533Y0324387D01*
X0393034Y0323351D01*
X0391121Y0321438D01*
X0390086Y0318939D01*
X0390086Y0316234D01*
X0391121Y0313735D01*
X0393034Y0311822D01*
X0395533Y0310787D01*
X0398238Y0310787D01*
X0400738Y0311822D01*
X0402651Y0313735D01*
X0403686Y0316234D01*
X0403686Y0318939D01*
X0402651Y0321438D01*
X0400738Y0323351D01*
X0402384Y0321705D02*
X0411073Y0321705D01*
X0410089Y0319707D02*
X0403368Y0319707D01*
X0403686Y0317708D02*
X0409771Y0317708D01*
X0409988Y0315710D02*
X0403469Y0315710D01*
X0402627Y0313711D02*
X0410830Y0313711D01*
X0411728Y0311713D02*
X0400474Y0311713D01*
X0393297Y0311713D02*
X0335159Y0311713D01*
X0335423Y0311822D02*
X0337336Y0313735D01*
X0338371Y0316234D01*
X0338371Y0318939D01*
X0337336Y0321438D01*
X0335423Y0323351D01*
X0332923Y0324387D01*
X0330218Y0324387D01*
X0327719Y0323351D01*
X0325806Y0321438D01*
X0324771Y0318939D01*
X0324771Y0316234D01*
X0325806Y0313735D01*
X0327719Y0311822D01*
X0330218Y0310787D01*
X0332923Y0310787D01*
X0335423Y0311822D01*
X0337312Y0313711D02*
X0391145Y0313711D01*
X0390303Y0315710D02*
X0338154Y0315710D01*
X0338371Y0317708D02*
X0390086Y0317708D01*
X0390404Y0319707D02*
X0338053Y0319707D01*
X0337069Y0321705D02*
X0391388Y0321705D01*
X0393885Y0323704D02*
X0334572Y0323704D01*
X0328570Y0323704D02*
X0314887Y0323704D01*
X0315738Y0323351D02*
X0313238Y0324387D01*
X0310533Y0324387D01*
X0308034Y0323351D01*
X0306121Y0321438D01*
X0305086Y0318939D01*
X0305086Y0316234D01*
X0306121Y0313735D01*
X0308034Y0311822D01*
X0310533Y0310787D01*
X0313238Y0310787D01*
X0315738Y0311822D01*
X0317651Y0313735D01*
X0318686Y0316234D01*
X0318686Y0318939D01*
X0317651Y0321438D01*
X0315738Y0323351D01*
X0317384Y0321705D02*
X0326073Y0321705D01*
X0325089Y0319707D02*
X0318368Y0319707D01*
X0318686Y0317708D02*
X0324771Y0317708D01*
X0324988Y0315710D02*
X0318469Y0315710D01*
X0317627Y0313711D02*
X0325830Y0313711D01*
X0327982Y0311713D02*
X0315474Y0311713D01*
X0308297Y0311713D02*
X0250159Y0311713D01*
X0250423Y0311822D02*
X0252336Y0313735D01*
X0253371Y0316234D01*
X0253371Y0318939D01*
X0252336Y0321438D01*
X0250423Y0323351D01*
X0247923Y0324387D01*
X0245218Y0324387D01*
X0242719Y0323351D01*
X0240806Y0321438D01*
X0239771Y0318939D01*
X0239771Y0316234D01*
X0240806Y0313735D01*
X0242719Y0311822D01*
X0245218Y0310787D01*
X0247923Y0310787D01*
X0250423Y0311822D01*
X0252312Y0313711D02*
X0306145Y0313711D01*
X0305303Y0315710D02*
X0253154Y0315710D01*
X0253371Y0317708D02*
X0305086Y0317708D01*
X0305404Y0319707D02*
X0253053Y0319707D01*
X0252069Y0321705D02*
X0306388Y0321705D01*
X0308885Y0323704D02*
X0249572Y0323704D01*
X0243570Y0323704D02*
X0229887Y0323704D01*
X0232384Y0321705D02*
X0241073Y0321705D01*
X0240089Y0319707D02*
X0233368Y0319707D01*
X0233686Y0317708D02*
X0239771Y0317708D01*
X0239988Y0315710D02*
X0233469Y0315710D01*
X0232627Y0313711D02*
X0240830Y0313711D01*
X0242982Y0311713D02*
X0230474Y0311713D01*
X0159713Y0293726D02*
X0113744Y0293726D01*
X0114611Y0292859D02*
X0114611Y0292859D01*
X0115742Y0291728D02*
X0157715Y0291728D01*
X0158846Y0292859D02*
X0158846Y0292859D01*
X0155716Y0289729D02*
X0117741Y0289729D01*
X0119664Y0287731D02*
X0153793Y0287731D01*
X0153328Y0285732D02*
X0120128Y0285732D01*
X0113328Y0283734D02*
X0098387Y0283734D01*
X0098139Y0283981D02*
X0095640Y0285017D01*
X0092935Y0285017D01*
X0090436Y0283981D01*
X0088523Y0282068D01*
X0087487Y0279569D01*
X0087487Y0276864D01*
X0088275Y0274963D01*
X0087766Y0275174D01*
X0085061Y0275174D01*
X0082561Y0274139D01*
X0080649Y0272226D01*
X0079613Y0269727D01*
X0079613Y0267021D01*
X0080649Y0264522D01*
X0082561Y0262609D01*
X0085061Y0261574D01*
X0087766Y0261574D01*
X0090265Y0262609D01*
X0092178Y0264522D01*
X0093213Y0267021D01*
X0093213Y0269727D01*
X0092426Y0271627D01*
X0092935Y0271417D01*
X0095640Y0271417D01*
X0098139Y0272452D01*
X0100052Y0274365D01*
X0101087Y0276864D01*
X0101087Y0279569D01*
X0100052Y0282068D01*
X0098139Y0283981D01*
X0100190Y0281735D02*
X0113328Y0281735D01*
X0113328Y0279737D02*
X0101018Y0279737D01*
X0101087Y0277738D02*
X0113328Y0277738D01*
X0113328Y0275740D02*
X0100622Y0275740D01*
X0099429Y0273741D02*
X0114112Y0273741D01*
X0116111Y0271743D02*
X0096427Y0271743D01*
X0093206Y0269744D02*
X0118109Y0269744D01*
X0120108Y0267745D02*
X0093213Y0267745D01*
X0092685Y0265747D02*
X0122106Y0265747D01*
X0127052Y0263748D02*
X0091404Y0263748D01*
X0088191Y0261750D02*
X0130266Y0261750D01*
X0133821Y0261750D02*
X0169636Y0261750D01*
X0145489Y0273741D02*
X0136293Y0273741D01*
X0130504Y0275740D02*
X0145394Y0275740D01*
X0144928Y0277738D02*
X0130969Y0277738D01*
X0130900Y0279737D02*
X0144998Y0279737D01*
X0145826Y0281735D02*
X0130072Y0281735D01*
X0128269Y0283734D02*
X0147629Y0283734D01*
X0112121Y0285732D02*
X0066336Y0285732D01*
X0070828Y0283734D02*
X0090188Y0283734D01*
X0088385Y0281735D02*
X0072631Y0281735D01*
X0073459Y0279737D02*
X0087557Y0279737D01*
X0087487Y0277738D02*
X0073528Y0277738D01*
X0073063Y0275740D02*
X0087953Y0275740D01*
X0082164Y0273741D02*
X0071869Y0273741D01*
X0068868Y0271743D02*
X0080448Y0271743D01*
X0079621Y0269744D02*
X0060348Y0269744D01*
X0062346Y0271743D02*
X0064589Y0271743D01*
X0057165Y0267745D02*
X0079613Y0267745D01*
X0080141Y0265747D02*
X0053315Y0265747D01*
X0052034Y0263748D02*
X0081422Y0263748D01*
X0084636Y0261750D02*
X0048821Y0261750D01*
X0045266Y0261750D02*
X0031828Y0261750D01*
X0031828Y0263748D02*
X0042052Y0263748D01*
X0040771Y0265747D02*
X0031828Y0265747D01*
X0031828Y0267745D02*
X0040243Y0267745D01*
X0040251Y0269744D02*
X0031828Y0269744D01*
X0031828Y0271743D02*
X0037030Y0271743D01*
X0034028Y0273741D02*
X0031828Y0273741D01*
X0031828Y0275740D02*
X0032835Y0275740D01*
X0032369Y0277738D02*
X0031828Y0277738D01*
X0031828Y0279737D02*
X0032439Y0279737D01*
X0031828Y0281735D02*
X0033266Y0281735D01*
X0031828Y0283734D02*
X0035070Y0283734D01*
X0031828Y0285732D02*
X0058328Y0285732D01*
X0058328Y0283734D02*
X0043269Y0283734D01*
X0045072Y0281735D02*
X0058328Y0281735D01*
X0058328Y0279737D02*
X0045900Y0279737D01*
X0045969Y0277738D02*
X0058328Y0277738D01*
X0056727Y0275740D02*
X0045504Y0275740D01*
X0051293Y0273741D02*
X0053409Y0273741D01*
X0031828Y0259751D02*
X0403328Y0259751D01*
X0403328Y0257753D02*
X0031828Y0257753D01*
X0031828Y0255754D02*
X0403328Y0255754D01*
X0403328Y0253756D02*
X0031828Y0253756D01*
X0031828Y0251757D02*
X0058047Y0251757D01*
X0057128Y0249759D02*
X0031828Y0249759D01*
X0031828Y0247760D02*
X0057235Y0247760D01*
X0058394Y0245762D02*
X0046970Y0245762D01*
X0046505Y0246152D02*
X0046505Y0246152D01*
X0034605Y0246152D02*
X0034605Y0246152D01*
X0034140Y0245762D02*
X0031828Y0245762D01*
X0031828Y0227775D02*
X0031942Y0227775D01*
X0031828Y0225777D02*
X0034324Y0225777D01*
X0031828Y0287731D02*
X0058793Y0287731D01*
X0060716Y0289729D02*
X0031828Y0289729D01*
X0031828Y0291728D02*
X0062715Y0291728D01*
X0064713Y0293726D02*
X0031828Y0293726D01*
X0031828Y0295725D02*
X0411728Y0295725D01*
X0411728Y0297723D02*
X0031828Y0297723D01*
X0031828Y0299722D02*
X0411728Y0299722D01*
X0411728Y0301720D02*
X0031828Y0301720D01*
X0031828Y0303719D02*
X0411728Y0303719D01*
X0411728Y0305717D02*
X0031828Y0305717D01*
X0031828Y0307716D02*
X0411728Y0307716D01*
X0411728Y0309714D02*
X0031828Y0309714D01*
X0209057Y0217783D02*
X0247226Y0217783D01*
X0247128Y0219781D02*
X0212118Y0219781D01*
X0356336Y0285732D02*
X0397121Y0285732D01*
X0402741Y0289729D02*
X0411728Y0289729D01*
X0411728Y0287731D02*
X0404739Y0287731D01*
X0406738Y0285732D02*
X0411728Y0285732D01*
X0411728Y0283734D02*
X0410828Y0283734D01*
X0411728Y0291728D02*
X0400742Y0291728D01*
X0398744Y0293726D02*
X0411728Y0293726D01*
X0403328Y0251757D02*
X0363956Y0251757D01*
X0365311Y0249759D02*
X0403328Y0249759D01*
X0403328Y0247760D02*
X0365167Y0247760D01*
X0363201Y0245762D02*
X0393604Y0245762D01*
X0399853Y0245762D02*
X0403328Y0245762D01*
X0403328Y0243763D02*
X0402447Y0243763D01*
D23*
X0191728Y0112933D03*
X0176728Y0106933D03*
X0173728Y0098933D03*
X0180728Y0092933D03*
X0194228Y0085233D03*
X0179728Y0082933D03*
X0213728Y0084933D03*
X0256728Y0070933D03*
X0266728Y0075933D03*
X0276728Y0070933D03*
X0286728Y0075933D03*
X0296728Y0070933D03*
X0299728Y0053933D03*
X0251728Y0057933D03*
X0330128Y0088533D03*
X0169528Y0058533D03*
X0129828Y0027333D03*
X0092728Y0071933D03*
X0090728Y0077933D03*
X0095128Y0088433D03*
X0088528Y0093733D03*
X0043828Y0027233D03*
D24*
X0080382Y0061933D02*
X0080382Y0071933D01*
X0080382Y0082933D01*
X0080728Y0083280D01*
X0080728Y0085933D01*
X0082728Y0087933D01*
X0088728Y0087933D01*
X0094228Y0093433D01*
X0101098Y0093433D01*
X0101098Y0096303D01*
X0104728Y0099933D01*
X0108382Y0099933D01*
X0108382Y0102587D01*
X0110728Y0104933D01*
X0134728Y0104933D01*
X0146728Y0092933D01*
X0180728Y0092933D01*
X0194228Y0085233D02*
X0206028Y0085233D01*
X0206079Y0085283D01*
X0122358Y0083433D02*
X0122358Y0078433D01*
X0122358Y0070563D01*
X0116728Y0064933D01*
X0106728Y0064933D02*
X0103728Y0061933D01*
X0087075Y0061933D01*
X0087075Y0071933D02*
X0092728Y0071933D01*
X0098728Y0077933D01*
X0100598Y0077933D01*
X0101098Y0078433D01*
X0101098Y0083433D02*
X0094228Y0083433D01*
X0090728Y0079933D01*
X0087402Y0083260D01*
X0087075Y0082933D01*
X0087402Y0083260D02*
X0087575Y0083433D01*
X0090728Y0079933D02*
X0090728Y0077933D01*
X0095128Y0088433D02*
X0101098Y0088433D01*
X0115075Y0099933D02*
X0118728Y0099933D01*
X0122358Y0096303D01*
X0122358Y0093433D01*
X0122358Y0088433D01*
X0122358Y0083433D01*
X0091728Y0161173D02*
X0091728Y0178933D01*
X0061764Y0178898D02*
X0061728Y0178933D01*
X0156728Y0178933D02*
X0156764Y0178898D01*
X0186728Y0178933D02*
X0186728Y0161173D01*
X0251728Y0178933D02*
X0251764Y0178898D01*
X0281728Y0178933D02*
X0281728Y0161173D01*
X0346728Y0178933D02*
X0346764Y0178898D01*
X0376728Y0178933D02*
X0376728Y0161173D01*
D25*
X0316728Y0074933D03*
D26*
X0346764Y0178898D03*
X0339728Y0185933D03*
X0358528Y0207134D03*
X0361972Y0248933D03*
X0266972Y0248933D03*
X0263528Y0207134D03*
X0258728Y0185933D03*
X0251728Y0179933D03*
X0251764Y0178898D03*
X0168528Y0207134D03*
X0163728Y0185933D03*
X0156764Y0178898D03*
X0149728Y0185933D03*
X0062728Y0178933D03*
X0061764Y0178898D03*
X0037728Y0202933D03*
X0063728Y0216933D03*
X0076972Y0248933D03*
X0171972Y0248933D03*
D27*
X0307728Y0064933D03*
M02*
