%
M48
M72
T01C0.0220
T02C0.0295
T03C0.0330
T04C0.0340
T05C0.0400
T06C0.0560
T07C0.0650
T08C0.1083
%
T01
X4383Y2723
X9273Y7193
X9073Y7793
X9513Y8843
X8853Y9373
X16953Y5853
X17973Y8293
X18073Y9293
X17373Y9893
X17673Y10693
X19173Y11293
X19423Y8523
X21373Y8493
X25173Y5793
X25673Y7093
X26673Y7593
X27673Y7093
X28673Y7593
X29673Y7093
X29973Y5393
X33013Y8853
X12983Y2733
T02
X15673Y17893
X18673Y17893
X15673Y21893
X15673Y24893
X25173Y24893
X25173Y21893
X25173Y17893
X28173Y17893
X34673Y17893
X37673Y17893
X34673Y21893
X34673Y24893
X9173Y17893
X6173Y17893
X6173Y21893
X6173Y24893
T03
X30773Y6493
T04
X31673Y7493
T05
X31273Y3293
X32273Y3293
X34173Y3293
X35173Y3293
X37053Y3293
X38053Y3293
X39773Y3293
X40773Y3293
X24973Y3793
X23973Y3793
X22973Y3793
X21973Y3793
X20973Y3793
X19973Y3793
X18973Y3793
X17973Y3793
X16973Y3793
X15973Y3793
X14973Y3793
X13973Y3793
X12973Y3793
X11973Y3793
X10973Y3793
X9973Y3793
X8973Y3793
X7973Y3793
X6973Y3793
X5973Y3793
X5973Y4793
X6973Y4793
X7973Y4793
X8973Y4793
X9973Y4793
X10973Y4793
X11973Y4793
X12973Y4793
X13973Y4793
X14973Y4793
X15973Y4793
X16973Y4793
X17973Y4793
X18973Y4793
X19973Y4793
X20973Y4793
X21973Y4793
X22973Y4793
X23973Y4793
X24973Y4793
X11673Y6493
X10673Y6493
T06
X9641Y26837
X10429Y27822
X7673Y27822
X5704Y26837
X4917Y27822
X6689Y31759
X8657Y31759
X14417Y27822
X15204Y26837
X17173Y27822
X19141Y26837
X19929Y27822
X23917Y27822
X24704Y26837
X26673Y27822
X28641Y26837
X29429Y27822
X33417Y27822
X34204Y26837
X36173Y27822
X38141Y26837
X38929Y27822
X37157Y31759
X35189Y31759
X27657Y31759
X25689Y31759
X18157Y31759
X16189Y31759
T07
X20673Y23914
X20673Y22473
X20673Y20713
X20673Y19272
X30173Y19272
X30173Y20713
X30173Y22473
X30173Y23914
X39673Y23914
X39673Y22473
X39673Y20713
X39673Y19272
X11173Y19272
X11173Y20713
X11173Y22473
X11173Y23914
T08
X4056Y23585
X4056Y4293
X26890Y4293
M30
