G75*
%MOIN*%
%OFA0B0*%
%FSLAX25Y25*%
%IPPOS*%
%LPD*%
%AMOC8*
5,1,8,0,0,1.08239X$1,22.5*
%
%ADD10R,0.04331X0.03937*%
%ADD11R,0.07087X0.06299*%
%ADD12R,0.03937X0.04331*%
%ADD13R,0.06102X0.02362*%
%ADD14R,0.02200X0.07800*%
%ADD15R,0.03543X0.03150*%
D10*
X0058182Y0100133D03*
X0064875Y0100133D03*
X0064875Y0110133D03*
X0058182Y0110133D03*
X0058182Y0121633D03*
X0064875Y0121633D03*
X0097182Y0139933D03*
X0103875Y0139933D03*
X0152382Y0132933D03*
X0159075Y0132933D03*
X0163882Y0125433D03*
X0170575Y0125433D03*
X0175382Y0117933D03*
X0182075Y0117933D03*
X0320882Y0085933D03*
X0327575Y0085933D03*
X0329882Y0100433D03*
X0336575Y0100433D03*
X0338382Y0114933D03*
X0345075Y0114933D03*
X0377882Y0114933D03*
X0384575Y0114933D03*
X0385882Y0100433D03*
X0392575Y0100433D03*
X0395882Y0085933D03*
X0402575Y0085933D03*
X0326375Y0065533D03*
X0319682Y0065533D03*
X0319682Y0055033D03*
X0326375Y0055033D03*
X0326375Y0044433D03*
X0319682Y0044433D03*
X0278075Y0026933D03*
X0271382Y0026933D03*
X0341882Y0129933D03*
X0348575Y0129933D03*
X0373882Y0129933D03*
X0380575Y0129933D03*
D11*
X0249928Y0088445D03*
X0249928Y0077421D03*
X0746728Y0135321D03*
X0746728Y0146345D03*
D12*
X0388728Y0085780D03*
X0388728Y0079087D03*
X0378228Y0093087D03*
X0378228Y0099780D03*
X0370228Y0108087D03*
X0370228Y0114780D03*
X0352728Y0114780D03*
X0352728Y0108087D03*
X0344728Y0100280D03*
X0344728Y0093587D03*
X0335228Y0085780D03*
X0335228Y0079087D03*
X0389528Y0065780D03*
X0389528Y0059087D03*
X0366728Y0123087D03*
X0366728Y0129780D03*
X0355728Y0129780D03*
X0355728Y0123087D03*
D13*
X0111158Y0121633D03*
X0111158Y0116633D03*
X0111158Y0126633D03*
X0111158Y0131633D03*
X0089898Y0131633D03*
X0089898Y0126633D03*
X0089898Y0121633D03*
X0089898Y0116633D03*
D14*
X0343728Y0071733D03*
X0348728Y0071733D03*
X0353728Y0071733D03*
X0358728Y0071733D03*
X0363728Y0071733D03*
X0368728Y0071733D03*
X0373728Y0071733D03*
X0378728Y0071733D03*
X0378728Y0053133D03*
X0373728Y0053133D03*
X0368728Y0053133D03*
X0363728Y0053133D03*
X0358728Y0053133D03*
X0353728Y0053133D03*
X0348728Y0053133D03*
X0343728Y0053133D03*
D15*
X0370791Y0187193D03*
X0379059Y0190933D03*
X0370791Y0194673D03*
X0293059Y0190933D03*
X0284791Y0187193D03*
X0284791Y0194673D03*
X0201059Y0190933D03*
X0192791Y0187193D03*
X0192791Y0194673D03*
X0112559Y0191433D03*
X0104291Y0187693D03*
X0104291Y0195173D03*
X0463791Y0194673D03*
X0472059Y0190933D03*
X0463791Y0187193D03*
X0552791Y0187193D03*
X0561059Y0190933D03*
X0552791Y0194673D03*
X0643791Y0194673D03*
X0652059Y0190933D03*
X0643791Y0187193D03*
X0727891Y0194193D03*
X0736159Y0197933D03*
X0727891Y0201673D03*
M02*
