G75*
%MOIN*%
%OFA0B0*%
%FSLAX25Y25*%
%IPPOS*%
%LPD*%
%AMOC8*
5,1,8,0,0,1.08239X$1,22.5*
%
%ADD10C,0.12705*%
%ADD11C,0.06100*%
%ADD12OC8,0.07900*%
%ADD13C,0.10500*%
%ADD14C,0.11524*%
%ADD15R,0.04831X0.04437*%
%ADD16R,0.06602X0.02862*%
%ADD17C,0.07900*%
%ADD18R,0.02700X0.08300*%
%ADD19C,0.09949*%
%ADD20R,0.04437X0.04831*%
%ADD21C,0.05500*%
%ADD22C,0.04100*%
%ADD23C,0.05600*%
%ADD24C,0.03278*%
%ADD25C,0.05450*%
D10*
X0040555Y0042933D03*
X0268902Y0042933D03*
X0040555Y0235846D03*
D11*
X0061728Y0248933D03*
X0091728Y0238933D03*
X0061728Y0218933D03*
X0061728Y0178933D03*
X0091728Y0178933D03*
X0156728Y0178933D03*
X0186728Y0178933D03*
X0251728Y0178933D03*
X0281728Y0178933D03*
X0346728Y0178933D03*
X0376728Y0178933D03*
X0346728Y0218933D03*
X0376728Y0238933D03*
X0346728Y0248933D03*
X0281728Y0238933D03*
X0251728Y0248933D03*
X0251728Y0218933D03*
X0186728Y0238933D03*
X0156728Y0248933D03*
X0156728Y0218933D03*
D12*
X0159728Y0047933D03*
X0149728Y0047933D03*
X0139728Y0047933D03*
X0129728Y0047933D03*
X0119728Y0047933D03*
X0109728Y0047933D03*
X0099728Y0047933D03*
X0089728Y0047933D03*
X0079728Y0047933D03*
X0069728Y0047933D03*
X0059728Y0047933D03*
X0059728Y0037933D03*
X0069728Y0037933D03*
X0079728Y0037933D03*
X0089728Y0037933D03*
X0099728Y0037933D03*
X0109728Y0037933D03*
X0119728Y0037933D03*
X0129728Y0037933D03*
X0139728Y0037933D03*
X0149728Y0037933D03*
X0159728Y0037933D03*
X0169728Y0037933D03*
X0179728Y0037933D03*
X0189728Y0037933D03*
X0199728Y0037933D03*
X0209728Y0037933D03*
X0219728Y0037933D03*
X0229728Y0037933D03*
X0239728Y0037933D03*
X0249728Y0037933D03*
X0249728Y0047933D03*
X0239728Y0047933D03*
X0229728Y0047933D03*
X0219728Y0047933D03*
X0209728Y0047933D03*
X0199728Y0047933D03*
X0189728Y0047933D03*
X0179728Y0047933D03*
X0169728Y0047933D03*
D13*
X0171413Y0268374D03*
X0179287Y0278217D03*
X0151728Y0278217D03*
X0132043Y0268374D03*
X0124169Y0278217D03*
X0094287Y0278217D03*
X0086413Y0268374D03*
X0066728Y0278217D03*
X0047043Y0268374D03*
X0039169Y0278217D03*
X0056886Y0317587D03*
X0076571Y0317587D03*
X0141886Y0317587D03*
X0161571Y0317587D03*
X0209169Y0278217D03*
X0217043Y0268374D03*
X0236728Y0278217D03*
X0256413Y0268374D03*
X0264287Y0278217D03*
X0294169Y0278217D03*
X0302043Y0268374D03*
X0321728Y0278217D03*
X0341413Y0268374D03*
X0349287Y0278217D03*
X0379169Y0278217D03*
X0387043Y0268374D03*
X0406728Y0278217D03*
X0426413Y0268374D03*
X0434287Y0278217D03*
X0464169Y0278217D03*
X0472043Y0268374D03*
X0491728Y0278217D03*
X0511413Y0268374D03*
X0519287Y0278217D03*
X0549169Y0278217D03*
X0557043Y0268374D03*
X0576728Y0278217D03*
X0596413Y0268374D03*
X0604287Y0278217D03*
X0634169Y0278217D03*
X0642043Y0268374D03*
X0661728Y0278217D03*
X0681413Y0268374D03*
X0689287Y0278217D03*
X0671571Y0317587D03*
X0651886Y0317587D03*
X0586571Y0317587D03*
X0566886Y0317587D03*
X0501571Y0317587D03*
X0481886Y0317587D03*
X0416571Y0317587D03*
X0396886Y0317587D03*
X0331571Y0317587D03*
X0311886Y0317587D03*
X0246571Y0317587D03*
X0226886Y0317587D03*
D14*
X0206728Y0239142D03*
X0206728Y0224732D03*
X0206728Y0207134D03*
X0206728Y0192724D03*
X0301728Y0192724D03*
X0301728Y0207134D03*
X0301728Y0224732D03*
X0301728Y0239142D03*
X0396728Y0239142D03*
X0396728Y0224732D03*
X0396728Y0207134D03*
X0396728Y0192724D03*
X0111728Y0192724D03*
X0111728Y0207134D03*
X0111728Y0224732D03*
X0111728Y0239142D03*
D15*
X0201882Y0163433D03*
X0208575Y0163433D03*
X0228882Y0163433D03*
X0235575Y0163433D03*
X0235382Y0147433D03*
X0242075Y0147433D03*
X0246882Y0137433D03*
X0253575Y0137433D03*
X0255882Y0131933D03*
X0262575Y0131933D03*
X0205075Y0147433D03*
X0198382Y0147433D03*
X0196575Y0139933D03*
X0189882Y0139933D03*
X0185075Y0131933D03*
X0178382Y0131933D03*
X0177382Y0112933D03*
X0184075Y0112933D03*
X0154075Y0082933D03*
X0147382Y0082933D03*
X0155382Y0074933D03*
X0162075Y0074933D03*
X0163382Y0066933D03*
X0170075Y0066933D03*
X0185182Y0076533D03*
X0191875Y0076533D03*
X0115075Y0099933D03*
X0108382Y0099933D03*
X0087075Y0082933D03*
X0080382Y0082933D03*
X0080382Y0071933D03*
X0087075Y0071933D03*
X0087075Y0061933D03*
X0080382Y0061933D03*
X0279382Y0064933D03*
X0286075Y0064933D03*
X0287382Y0047933D03*
X0294075Y0047933D03*
X0294075Y0037933D03*
X0287382Y0037933D03*
D16*
X0122358Y0078433D03*
X0122358Y0083433D03*
X0122358Y0088433D03*
X0122358Y0093433D03*
X0101098Y0093433D03*
X0101098Y0088433D03*
X0101098Y0083433D03*
X0101098Y0078433D03*
D17*
X0106728Y0064933D03*
X0116728Y0064933D03*
D18*
X0201228Y0096633D03*
X0206228Y0096633D03*
X0211228Y0096633D03*
X0216228Y0096633D03*
X0221228Y0096633D03*
X0226228Y0096633D03*
X0231228Y0096633D03*
X0236228Y0096633D03*
X0236228Y0115233D03*
X0231228Y0115233D03*
X0226228Y0115233D03*
X0221228Y0115233D03*
X0216228Y0115233D03*
X0211228Y0115233D03*
X0206228Y0115233D03*
X0201228Y0115233D03*
D19*
X0335201Y0030433D03*
X0354886Y0030433D03*
X0374571Y0030433D03*
X0394256Y0030433D03*
D20*
X0248728Y0125087D03*
X0239228Y0130587D03*
X0248728Y0131780D03*
X0239228Y0137280D03*
X0227728Y0140587D03*
X0227728Y0147280D03*
X0224228Y0156587D03*
X0224228Y0163280D03*
X0213228Y0163280D03*
X0213228Y0156587D03*
X0210228Y0147280D03*
X0210228Y0140587D03*
X0202228Y0137780D03*
X0202228Y0131087D03*
X0192728Y0131780D03*
X0192728Y0125087D03*
D21*
X0426728Y0178933D03*
X0456728Y0178933D03*
X0496728Y0178933D03*
X0526728Y0178933D03*
X0566728Y0178933D03*
X0596728Y0178933D03*
X0646728Y0178933D03*
X0676728Y0178933D03*
X0646728Y0218933D03*
X0646728Y0248933D03*
X0566728Y0248933D03*
X0566728Y0218933D03*
X0496728Y0218933D03*
X0496728Y0248933D03*
X0426728Y0248933D03*
X0426728Y0218933D03*
D22*
X0043828Y0027233D03*
X0092728Y0071933D03*
X0090728Y0077933D03*
X0095128Y0088433D03*
X0088528Y0093733D03*
X0169528Y0058533D03*
X0179728Y0082933D03*
X0194228Y0085233D03*
X0180728Y0092933D03*
X0173728Y0098933D03*
X0176728Y0106933D03*
X0191728Y0112933D03*
X0213728Y0084933D03*
X0256728Y0070933D03*
X0266728Y0075933D03*
X0276728Y0070933D03*
X0286728Y0075933D03*
X0296728Y0070933D03*
X0299728Y0053933D03*
X0251728Y0057933D03*
X0330128Y0088533D03*
X0129828Y0027333D03*
D23*
X0316728Y0074933D03*
D24*
X0346764Y0178898D03*
X0339728Y0185933D03*
X0358528Y0207134D03*
X0361972Y0248933D03*
X0266972Y0248933D03*
X0263528Y0207134D03*
X0258728Y0185933D03*
X0251728Y0179933D03*
X0251764Y0178898D03*
X0168528Y0207134D03*
X0163728Y0185933D03*
X0156764Y0178898D03*
X0149728Y0185933D03*
X0062728Y0178933D03*
X0061764Y0178898D03*
X0037728Y0202933D03*
X0063728Y0216933D03*
X0076972Y0248933D03*
X0171972Y0248933D03*
D25*
X0307728Y0064933D03*
M02*
