%
M48
M72
T01C0.0098
T02C0.0177
T03C0.0256
T04C0.0276
T05C0.0295
T06C0.0335
T07C0.0400
T08C0.0472
T09C0.0510
T10C0.0560
T11C0.0650
T12C0.1220
%
T01
X2673Y2093
X5173Y2093
X7673Y2093
X10173Y2093
X12673Y2093
X15173Y2093
X15423Y3093
X16423Y3093
X17673Y2093
X18423Y3093
X19423Y3093
X20173Y2093
X22423Y3093
X23423Y3093
X22673Y2093
X25173Y2093
X31173Y4993
X31873Y4993
X30673Y5593
X30273Y7593
X29773Y7993
X29273Y8393
X31173Y8593
X31673Y8093
X32173Y8093
X32173Y7593
X32673Y7593
X32673Y8093
X33673Y9093
X33173Y9593
X32173Y10093
X31673Y10093
X27673Y10593
X26673Y11593
X25673Y12593
X20023Y11293
X25723Y9093
X25723Y8643
X26173Y8643
X21173Y5593
X20673Y5593
X17673Y6593
X16673Y6593
X13173Y6093
X8173Y7593
X4173Y7593
X4173Y9593
X20973Y16343
X10573Y23493
X11673Y26593
X20173Y27593
X28173Y27593
X38173Y27593
X46173Y27593
X56173Y27593
X64173Y27593
X72173Y31593
X74173Y31593
X43273Y12993
X44273Y11493
X42273Y11493
X43273Y9993
X41273Y9993
X42273Y8493
X44273Y8493
X45273Y9993
X49923Y6343
X50673Y5193
X48773Y5193
X46173Y3593
X51823Y6343
X54423Y4343
X52923Y2843
X57323Y2843
X59923Y2843
X62573Y2793
X63773Y4393
X61223Y4343
X58823Y4343
X68173Y7593
X68173Y9593
X70173Y9593
X74173Y9593
X74173Y7593
X74173Y5593
X74173Y3593
T02
X57073Y3793
X55273Y3693
X7643Y10013
X7003Y9323
X7003Y12163
X7653Y12663
T03
X9973Y8133
X10973Y7473
X17973Y5923
X18973Y6803
X23973Y8793
X22963Y10473
X23673Y11313
X20973Y10743
X29413Y7383
X27733Y5623
X30063Y5003
T04
X26583Y8123
T05
X25173Y19574
X22173Y19574
X16173Y19574
X13173Y19574
X7173Y19574
X4173Y19574
X7173Y23574
X4173Y25574
X7173Y26574
X13173Y25574
X16173Y26574
X16173Y23574
X22173Y25574
X25173Y26574
X25173Y23574
X31173Y25574
X34173Y26574
X34173Y23574
X40173Y25574
X43173Y26574
X43173Y23574
X49173Y25574
X52173Y26574
X52173Y23574
X58173Y25574
X61173Y26574
X61173Y23574
X67173Y25574
X70173Y26574
X70173Y23574
X70173Y19574
X67173Y19574
X61173Y19574
X58173Y19574
X52173Y19574
X49173Y19574
X43173Y19574
X40173Y19574
X34173Y19574
X31173Y19574
T06
X27343Y19463
X35923Y19463
X45373Y19463
X54173Y19463
X63213Y19473
X29043Y9733
X18243Y19463
X9523Y19513
X8483Y13983
T07
X9543Y10023
X10543Y10023
X10973Y4793
X11973Y4793
X12973Y4793
X13973Y4793
X14973Y4793
X15973Y4793
X16973Y4793
X17973Y4793
X18973Y4793
X19973Y4793
X20973Y4793
X21973Y4793
X22973Y4793
X23973Y4793
X24973Y4793
X24973Y3793
X23973Y3793
X22973Y3793
X21973Y3793
X20973Y3793
X19973Y3793
X18973Y3793
X17973Y3793
X16973Y3793
X15973Y3793
X14973Y3793
X13973Y3793
X12973Y3793
X11973Y3793
X10973Y3793
X9973Y3793
X8973Y3793
X7973Y3793
X6973Y3793
X5973Y3793
X5973Y4793
X6973Y4793
X7973Y4793
X8973Y4793
X9973Y4793
T08
X66520Y3293
X68489Y3293
X70457Y3293
X72426Y3293
T09
X24993Y9723
T10
X26641Y28837
X27429Y29822
X24673Y29822
X22704Y28837
X21917Y29822
X18429Y29822
X17641Y28837
X15673Y29822
X13704Y28837
X12917Y29822
X9429Y29822
X8641Y28837
X6673Y29822
X4704Y28837
X3917Y29822
X5689Y33759
X7657Y33759
X14689Y33759
X16657Y33759
X23689Y33759
X25657Y33759
X30917Y29822
X31704Y28837
X33673Y29822
X35641Y28837
X36429Y29822
X39917Y29822
X40704Y28837
X42673Y29822
X44641Y28837
X45429Y29822
X48917Y29822
X49704Y28837
X51673Y29822
X53641Y28837
X54429Y29822
X57917Y29822
X58704Y28837
X60673Y29822
X62641Y28837
X63429Y29822
X66917Y29822
X67704Y28837
X69673Y29822
X71641Y28837
X72429Y29822
X70657Y33759
X68689Y33759
X61657Y33759
X59689Y33759
X52657Y33759
X50689Y33759
X43657Y33759
X41689Y33759
X34657Y33759
X32689Y33759
T11
X36173Y25845
X36173Y24404
X36173Y22644
X36173Y21204
X45173Y21204
X45173Y22644
X45173Y24404
X45173Y25845
X54173Y25845
X54173Y24404
X54173Y22644
X54173Y21204
X63173Y21204
X63173Y22644
X63173Y24404
X63173Y25845
X72173Y25845
X72173Y24404
X72173Y22644
X72173Y21204
X72433Y10984
X72433Y9543
X72433Y7783
X72433Y6342
X27173Y21204
X27173Y22644
X27173Y24404
X27173Y25845
X18173Y25845
X18173Y24404
X18173Y22644
X18173Y21204
X9173Y21204
X9173Y22644
X9173Y24404
X9173Y25845
T12
X10637Y28365
X19299Y16948
X42724Y7105
X55126Y13011
X26873Y4293
X4056Y4293
X74220Y28759
M30
